<svg version="1.1" xmlns="http://www.w3.org/2000/svg" xmlns:xlink="http://www.w3.org/1999/xlink" width="264.82589" height="250.47865" viewBox="0,0,264.82589,250.47865"><g transform="translate(-113.33155,-24.99961)"><g data-paper-data="{&quot;isPaintingLayer&quot;:true}" stroke="none" stroke-width="1" stroke-linecap="butt" stroke-linejoin="miter" stroke-miterlimit="10" stroke-dasharray="" stroke-dashoffset="0" style="mix-blend-mode: normal"><path d="M264,31c0,1.6667 0,3.3333 0,5c-1.459,0.0674 -2.792,-0.2659 -4,-1c0.182,-2.0914 -0.152,-4.0914 -1,-6c0.865,-1.0827 1.865,-1.2494 3,-0.5c0.566,0.9947 1.233,1.828 2,2.5z" fill="#4a4b4b" fill-rule="evenodd"/><path d="M276,76c-2.716,-8.0812 -4.216,-16.4145 -4.5,-25c-2.489,-6.6247 -4.656,-13.2914 -6.5,-20c1.585,-0.4854 3.085,0.1812 4.5,2c3.095,14.4087 6.595,28.742 10.5,43c-1.333,0 -2.667,0 -4,0z" fill="#4c4c4c" fill-rule="evenodd"/><path d="M359,93c2.213,1.273 4.546,2.273 7,3c2.763,1.58 5.43,3.413 8,5.5c1.964,1.451 3.297,3.284 4,5.5c-2.313,-0.892 -2.647,-0.058 -1,2.5c-2.581,4.79 -4.248,4.29 -5,-1.5c-0.886,0.825 -1.219,1.825 -1,3c-2.065,0.017 -4.065,0.35 -6,1c0.453,-0.958 1.119,-1.792 2,-2.5c-1.634,-0.494 -3.301,-0.66 -5,-0.5c2.65,-0.747 5.316,-1.747 8,-3c-4.218,-3.277 -8.885,-5.777 -14,-7.5c-0.88,-1.356 -1.214,-2.856 -1,-4.5c1.322,-0.17 2.489,0.163 3.5,1c0.464,-0.594 0.631,-1.261 0.5,-2z" fill="#292f2a" fill-rule="evenodd"/><path d="M242,28c5.794,2.6263 11.794,4.9597 18,7c1.208,0.7341 2.541,1.0674 4,1c0,-1.6667 0,-3.3333 0,-5c0.333,0 0.667,0 1,0c1.844,6.7086 4.011,13.3753 6.5,20c0.284,8.5855 1.784,16.9188 4.5,25c1.052,1.756 2.719,2.4227 5,2c-0.237,-1.291 0.096,-2.291 1,-3c0,0.3333 0,0.6667 0,1c0.856,3.0131 2.689,3.68 5.5,2c0.75,0.6258 1.584,1.1258 2.5,1.5c-1.75,1.754 -2.417,3.921 -2,6.5c2.298,0.81 4.632,1.644 7,2.5c-1.634,0.494 -3.301,0.66 -5,0.5c-0.019,1.56 -0.352,3.06 -1,4.5c2.7,1.832 2.367,2.999 -1,3.5c0,-1 0,-2 0,-3c-0.214,-1.644 0.12,-3.144 1,-4.5c-1.973,-0.495 -3.973,-0.662 -6,-0.5c0,-1 0,-2 0,-3c1.333,0 2.667,0 4,0c0,-1.667 0,-3.333 0,-5c-2,0 -4,0 -6,0c-0.333,6.667 -0.667,6.667 -1,0c-1.667,0 -3.333,0 -5,0c-0.333,5.333 -0.667,5.333 -1,0c-1.667,0 -3.333,0 -5,0c0.043,4.393 -0.457,4.726 -1.5,1c-0.893,-0.581 -1.893,-0.915 -3,-1c-2.965,0.79 -5.965,1.79 -9,3c-3.409,-1.122 -6.909,-1.289 -10.5,-0.5c-0.928,0.388 -1.595,1.055 -2,2c0.952,1.3 0.952,2.467 0,3.5c-0.952,-1.545 -1.285,-3.212 -1,-5c-1.43,-0.079 -2.764,0.254 -4,1c-1.09,-1.227 -2.424,-2.06 -4,-2.5c5.19,-0.451 10.19,-1.451 15,-3c-2.646,-0.4974 -5.313,-0.6641 -8,-0.5c0.321,-5.5262 -0.012,-10.8595 -1,-16c-2.314,-11.5493 -3.647,-23.216 -4,-35c-1.333,0 -2.667,0 -4,0c-0.166,5.6764 0.001,11.3431 0.5,17c2.784,11.2239 3.284,22.5573 1.5,34c1.667,0 3.333,0 5,0c-2.873,1.982 -5.873,2.315 -9,1c1.939,-5.736 2.939,-11.9026 3,-18.5c-1.195,-7.4757 -2.195,-14.9757 -3,-22.5c0.192,-3.6902 0.525,-7.3569 1,-11c-1.667,0 -3.333,0 -5,0c-0.487,3.8091 -0.821,7.6424 -1,11.5c1.379,7.2429 2.379,14.5762 3,22c-0.179,3.8576 -0.513,7.6909 -1,11.5c-0.904,-0.709 -1.237,-1.709 -1,-3c-1.19,-13.627 -1.857,-27.2936 -2,-41c-1.322,-0.17 -2.489,0.1634 -3.5,1c-0.859,3.4483 -1.359,6.9483 -1.5,10.5c2.319,13.4422 2.653,26.9422 1,40.5c4.408,0.438 6.075,-1.562 5,-6c0.961,1.7646 1.295,3.7646 1,6c1.052,-0.149 2.052,0.017 3,0.5c-2.25,0.611 -3.917,1.944 -5,4c0.333,0.333 0.667,0.667 1,1c-4.382,0.003 -6.049,2.169 -5,6.5c5.304,-0.884 10.637,-1.551 16,-2c-0.149,-1.052 0.017,-2.052 0.5,-3c1.777,2.019 3.944,3.519 6.5,4.5c10.016,-0.495 20.016,-0.662 30,-0.5c3.55,0.254 6.883,0.921 10,2c-11.845,-0.328 -23.512,0.005 -35,1c-31.603,3.145 -62.269,10.312 -92,21.5c-3.569,1.942 -6.902,4.108 -10,6.5c-2.71041,0.6784 -4.74561,2.09409 -6.10612,4.24706c-3.07332,0.60154 -5.64248,2.61083 -7.00858,5.32893c-0.18521,-0.01022 -0.37177,-0.01539 -0.55954,-0.01539c-0.33727,0 -0.67065,0.0167 -0.99934,0.04931c0.05877,-0.20216 0.11663,-0.40547 0.17358,-0.60991c0.2616,-13.711 1.0949,-27.378 2.5,-41c1.8766,-6.444 4.3766,-12.7777 7.5,-19c5.427,-7.1832 11.094,-14.1832 17,-21c1.139,-3.0833 2.472,-6.0833 4,-9c4.883,-3.53 10.05,-6.6967 15.5,-9.5c10.618,-1.2084 21.285,-1.8751 32,-2c4.872,-1.1029 9.538,-2.7696 14,-5c6.291,-0.9392 12.291,-0.1059 18,2.5z" fill="#0e0d0c" fill-rule="nonzero"/><path d="" fill="#0e0d0c" fill-rule="nonzero"/><path d="" fill="#0e0d0c" fill-rule="nonzero"/><path d="" fill="#0e0d0c" fill-rule="nonzero"/><path d="M188,39c-0.625,9.3092 -0.792,18.6426 -0.5,28c-2.726,5.783 -5.726,11.4497 -9,17c-1.199,3.226 -1.699,6.559 -1.5,10c1.644,0.214 3.144,-0.12 4.5,-1c0.497,-2.31 0.663,-4.643 0.5,-7c0.71,2.393 1.377,4.893 2,7.5c-0.333,0.333 -0.667,0.667 -1,1c1.778,0.704 3.612,1.204 5.5,1.5c2.539,-1.102 5.039,-1.102 7.5,0c0.903,-2.357 2.57,-3.857 5,-4.5c-1.537,-1.11 -2.203,-2.61 -2,-4.5c1.083,-0.039 2.083,-0.373 3,-1c0.67,-1.791 1.337,-3.458 2,-5c-0.284,1.915 0.049,3.581 1,5c1.617,-0.538 3.284,-0.871 5,-1c0.992,0.172 1.658,-0.162 2,-1c1.333,0 2.667,0 4,0c0.876,-0.131 1.543,0.202 2,1c-5.193,1.803 -5.193,3.136 0,4c-1.28,5.817 -4.78,7.484 -10.5,5c-1.365,2.36 -3.365,4.027 -6,5c-0.414,-0.457 -0.914,-0.791 -1.5,-1c-6.816,2.456 -13.816,4.456 -21,6c-0.929,-1.189 -1.262,-2.522 -1,-4c-1.929,-0.269 -3.595,0.231 -5,1.5c1.049,0.492 2.049,0.326 3,-0.5c1.361,3.574 0.027,5.24 -4,5c0,-1 0,-2 0,-3c-3.556,-0.225 -3.89,0.608 -1,2.5c-4.669,2.661 -9.669,4.828 -15,6.5c-1.094,-1.368 -0.76,-2.535 1,-3.5c-1.978,-0.481 -3.311,-1.647 -4,-3.5c-1.318,-4.603 -2.318,-9.27 -3,-14c0.419,-5.501 2.919,-9.835 7.5,-13c0.464,0.5944 0.631,1.2611 0.5,2c-4.497,7.943 -5.163,16.277 -2,25c-2.48,-13.922 1.853,-24.922 13,-33c-3.644,4.4883 -7.144,9.155 -10.5,14c-0.739,6.058 -0.406,12.058 1,18c0.995,-0.566 1.828,-1.233 2.5,-2c0.667,-0.333 1.333,-0.667 2,-1c0.996,0.086 1.829,-0.248 2.5,-1c0.333,-4.667 0.667,-9.333 1,-14c4.363,-6.5138 8.863,-12.8471 13.5,-19c0.009,1.8084 -0.491,3.4751 -1.5,5c-3.333,4.3333 -6.667,8.667 -10,13c-0.373,2.198 -0.873,4.365 -1.5,6.5c0.627,2.135 1.127,4.302 1.5,6.5c1.441,-0.76 2.941,-1.426 4.5,-2c0.682,-4.789 1.848,-9.455 3.5,-14c5.354,-6.3727 8.188,-13.706 8.5,-22c-1.94,-7.3824 -1.273,-14.3824 2,-21z" fill="#1a1a1b" fill-rule="evenodd"/><path d="M169,72c-11.147,8.078 -15.48,19.078 -13,33c-3.163,-8.723 -2.497,-17.057 2,-25c4.066,-3.0628 7.399,-6.7294 10,-11c1.91,-1.4746 3.076,-3.4746 3.5,-6c0.22,-6.6781 0.22,-13.3448 0,-20c0.561,-2.79 1.894,-5.1234 4,-7c-0.306,2.3229 -0.972,4.6563 -2,7c1.739,10.2288 0.239,19.8954 -4.5,29z" fill="#323232" fill-rule="evenodd"/><path d="M248,95c11.488,-0.995 23.155,-1.328 35,-1c1.667,0 3.333,0 5,0c0,1 0,2 0,3c-13.278,-1.598 -26.611,-2.265 -40,-2z" fill="#241e09" fill-rule="evenodd"/><path d="M240,63c0.988,5.1405 1.321,10.4738 1,16c2.687,-0.1641 5.354,0.0026 8,0.5c-4.81,1.549 -9.81,2.549 -15,3c1.576,0.44 2.91,1.273 4,2.5c1.236,-0.746 2.57,-1.079 4,-1c-0.285,1.788 0.048,3.455 1,5c0.952,-1.033 0.952,-2.2 0,-3.5c0.405,-0.945 1.072,-1.612 2,-2c3.591,-0.789 7.091,-0.622 10.5,0.5c3.035,-1.21 6.035,-2.21 9,-3c1.107,0.085 2.107,0.419 3,1c1.043,3.726 1.543,3.393 1.5,-1c1.667,0 3.333,0 5,0c0.333,5.333 0.667,5.333 1,0c1.667,0 3.333,0 5,0c0.333,6.667 0.667,6.667 1,0c2,0 4,0 6,0c0,1.667 0,3.333 0,5c-1.333,0 -2.667,0 -4,0c0,1 0,2 0,3c2.027,-0.162 4.027,0.005 6,0.5c-0.88,1.356 -1.214,2.856 -1,4.5c-1.667,0 -3.333,0 -5,0c-3.117,-1.079 -6.45,-1.746 -10,-2c-9.984,-0.162 -19.984,0.005 -30,0.5c-2.556,-0.981 -4.723,-2.481 -6.5,-4.5c-0.483,0.948 -0.649,1.948 -0.5,3c-5.363,0.449 -10.696,1.116 -16,2c-1.049,-4.331 0.618,-6.497 5,-6.5c-0.333,-0.333 -0.667,-0.667 -1,-1c1.083,-2.056 2.75,-3.389 5,-4c-0.948,-0.483 -1.948,-0.649 -3,-0.5c0.295,-2.2354 -0.039,-4.2354 -1,-6c-0.284,-1.9147 0.049,-3.5813 1,-5c-0.237,1.291 0.096,2.291 1,3c0,2.3333 0,4.6667 0,7c1,0 2,0 3,0c3.127,1.315 6.127,0.982 9,-1c0.949,-5.2401 1.282,-10.5735 1,-16z" fill="#272726" fill-rule="evenodd"/><path d="M195,33c1.086,0.12 1.753,0.7867 2,2c-1.641,4.5098 -2.641,9.1765 -3,14c0.975,5.9818 1.142,11.9818 0.5,18c-2.461,7.8407 -3.961,15.841 -4.5,24c-2,0.333 -4,0.667 -6,1c-0.164,-2.687 0.003,-5.354 0.5,-8c3.109,-5.3212 5.442,-10.9879 7,-17c0.333,-9 0.667,-18 1,-27c1.136,-2.243 1.97,-4.5763 2.5,-7z" fill="#515151" fill-rule="evenodd"/><path d="M188,39c-3.273,6.6176 -3.94,13.6176 -2,21c-0.312,8.294 -3.146,15.6273 -8.5,22c-1.652,4.545 -2.818,9.211 -3.5,14c-1.559,0.574 -3.059,1.24 -4.5,2c-0.373,-2.198 -0.873,-4.365 -1.5,-6.5c0.627,-2.135 1.127,-4.302 1.5,-6.5c3.333,-4.333 6.667,-8.6667 10,-13c1.009,-1.5249 1.509,-3.1916 1.5,-5c-4.637,6.1529 -9.137,12.4862 -13.5,19c-0.333,4.667 -0.667,9.333 -1,14c-0.671,0.752 -1.504,1.086 -2.5,1c-0.802,-5.652 -0.969,-11.318 -0.5,-17c2,-3.333 4.667,-6 8,-8c2.248,-2.828 4.248,-5.828 6,-9c0.333,-8 0.667,-16 1,-24c1.333,-2.6667 2.667,-5.3333 4,-8c0.718,-0.9506 1.551,-1.1172 2.5,-0.5c-3.669,5.659 -4.836,11.8257 -3.5,18.5c-0.001,-7.0047 1.999,-13.3381 6,-19c0.494,1.6341 0.66,3.3008 0.5,5z" fill="#4f4f4f" fill-rule="evenodd"/><path d="M267,65c0.902,3.4968 1.569,7.1634 2,11c-1.333,0 -2.667,0 -4,0c-0.174,-2.361 -0.507,-4.6944 -1,-7c0.299,-1.9553 1.299,-3.2886 3,-4z" fill="#4f4e4f" fill-rule="evenodd"/><path d="M258,68c0.333,0 0.667,0 1,0c0.79,0.9013 1.79,1.5679 3,2c0.961,1.7646 1.295,3.7646 1,6c-1.478,0.262 -2.811,-0.0713 -4,-1c-0.874,-2.2466 -1.208,-4.5799 -1,-7z" fill="#4d4c49" fill-rule="evenodd"/><path d="M267,63c0,0.6667 0,1.3333 0,2c-1.701,0.7114 -2.701,2.0447 -3,4c-0.992,-0.1716 -1.658,0.1618 -2,1c-1.21,-0.4321 -2.21,-1.0987 -3,-2c0,-1.3333 0,-2.6667 0,-4c1,0 2,0 3,0c0.333,5.3333 0.667,5.3333 1,0c1.459,0.0674 2.792,-0.2659 4,-1z" fill="#412b1b" fill-rule="evenodd"/><path d="M165,50c2.313,3.8043 2.48,7.8043 0.5,12c-2.26,4.8561 -5.26,9.1895 -9,13c-0.317,-1.8008 -0.984,-2.1341 -2,-1c-3.499,4.1717 -6.166,8.838 -8,14c-1.164,8.282 -1.831,16.616 -2,25c-0.667,-7.667 -0.667,-15.333 0,-23c0.873,-3.118 2.039,-6.118 3.5,-9c-0.346,-1.196 -0.846,-1.196 -1.5,0c-1.197,2.589 -2.197,5.256 -3,8c-1.007,9.339 -1.841,18.673 -2.5,28c-1,1 -2,2 -3,3c-0.6559,-7.649 -0.8226,-15.316 -0.5,-23c-1.0859,8.63 -1.7526,17.297 -2,26c-1.6383,-15.529 0.3617,-30.529 6,-45c6.281,-9.2817 12.948,-18.2817 20,-27c0.044,2.2597 -0.789,4.2597 -2.5,6c0.308,0.8081 0.808,1.4747 1.5,2c0.667,-1.3333 1.333,-2.6667 2,-4c0.333,0.6667 0.667,1.3333 1,2c0.662,-2.3127 1.162,-4.646 1.5,-7z" fill="#222222" fill-rule="evenodd"/><path d="M216,84c-1.333,0 -2.667,0 -4,0c1.129,-8.3126 2.129,-16.6459 3,-25c-1.054,-9.0116 -1.054,-18.0116 0,-27c0.667,-0.3333 1.333,-0.6667 2,-1c-0.101,9.6592 0.566,19.3258 2,29c-0.372,7.3419 -0.872,14.6752 -1.5,22c-0.717,0.544 -1.217,1.211 -1.5,2z" fill="#4f4f4f" fill-rule="evenodd"/><path d="M204,81c-0.663,1.542 -1.33,3.209 -2,5c-0.917,0.627 -1.917,0.961 -3,1c0.517,-7.7272 1.684,-15.3938 3.5,-23c0.051,-9.7663 0.718,-19.4329 2,-29c1.487,-1.2414 2.32,-0.7414 2.5,1.5c-0.491,14.8876 -1.491,29.721 -3,44.5z" fill="#505050" fill-rule="evenodd"/><path d="M240,63c0.282,5.4265 -0.051,10.7599 -1,16c-1.667,0 -3.333,0 -5,0c1.784,-11.4427 1.284,-22.7761 -1.5,-34c-0.499,-5.6569 -0.666,-11.3236 -0.5,-17c1.333,0 2.667,0 4,0c0.353,11.784 1.686,23.4507 4,35z" fill="#525252" fill-rule="evenodd"/><path d="M226,70c-0.951,1.4187 -1.284,3.0853 -1,5c1.075,4.438 -0.592,6.438 -5,6c1.653,-13.5578 1.319,-27.0578 -1,-40.5c0.141,-3.5517 0.641,-7.0517 1.5,-10.5c1.011,-0.8366 2.178,-1.17 3.5,-1c0.143,13.7064 0.81,27.373 2,41z" fill="#515151" fill-rule="evenodd"/><path d="M199,33c1.478,-0.262 2.811,0.0713 4,1c-1.822,3.7995 -2.822,7.7995 -3,12c0.888,5.6536 1.055,11.3202 0.5,17c-1.495,8.3132 -2.829,16.647 -4,25c-1.356,0.88 -2.856,1.214 -4.5,1c0.699,-8.464 2.199,-16.7978 4.5,-25c0.5,-5.5101 0.333,-11.0101 -0.5,-16.5c0.484,-4.9482 1.484,-9.7815 3,-14.5z" fill="#4e4e4e" fill-rule="evenodd"/><path d="M181,67c0.417,-4.3346 0.917,-8.6679 1.5,-13c0.939,4.6355 0.439,8.9689 -1.5,13z" fill="#0b0b0b" fill-rule="evenodd"/><path d="M168,69c-2.297,1.7941 -4.463,3.7941 -6.5,6c-0.167,-0.3333 -0.333,-0.6667 -0.5,-1c3.251,-3.4953 5.751,-7.4953 7.5,-12c0.333,-6.3333 0.667,-12.6667 1,-19c2.318,8.9108 1.818,17.5775 -1.5,26z" fill="#333333" fill-rule="evenodd"/><path d="M262,46c0.986,1.9077 2.652,2.9077 5,3c0.239,1.9672 -0.094,3.8005 -1,5.5c3.026,2.2976 3.692,5.1309 2,8.5c-0.333,0 -0.667,0 -1,0c-1.208,0.7341 -2.541,1.0674 -4,1c-0.333,5.3333 -0.667,5.3333 -1,0c-1,0 -2,0 -3,0c0,1.3333 0,2.6667 0,4c-0.333,0 -0.667,0 -1,0c-0.965,-2.2559 -2.632,-3.9226 -5,-5c2.012,-4.0917 2.512,-8.425 1.5,-13c-0.671,-0.7524 -1.504,-1.0858 -2.5,-1c2.176,-1.461 4.509,-1.7943 7,-1c0.765,-1.1119 1.765,-1.7786 3,-2z" fill="#cfa55b" fill-rule="evenodd"/><path d="M258,57c2.357,-0.1633 4.69,0.0034 7,0.5c1.227,1.5874 0.894,2.9207 -1,4c-1.973,0.4955 -3.973,0.6621 -6,0.5c0,-1.6667 0,-3.3333 0,-5z" fill="#322018" fill-rule="evenodd"/><path d="M182,86c0.163,2.357 -0.003,4.69 -0.5,7c-1.356,0.88 -2.856,1.214 -4.5,1c-0.199,-3.441 0.301,-6.774 1.5,-10c3.274,-5.5503 6.274,-11.217 9,-17c-0.292,-9.3574 -0.125,-18.6908 0.5,-28c0.929,-1.4361 2.095,-2.7695 3.5,-4c-1.144,10.5584 -1.811,21.225 -2,32c-2.214,6.481 -4.714,12.814 -7.5,19z" fill="#555555" fill-rule="evenodd"/><path d="M258,50c2,0 4,0 6,0c0.438,4.4083 -1.562,6.0749 -6,5c0,-1.6667 0,-3.3333 0,-5z" fill="#402515" fill-rule="evenodd"/><path d="M210,85c-1.716,0.129 -3.383,0.462 -5,1c0.025,-6.434 0.858,-12.7675 2.5,-19c0.232,-11.3658 0.732,-22.6991 1.5,-34c1,0 2,0 3,0c0.001,9.0108 0.334,18.0108 1,27c-1.091,8.3034 -2.091,16.6367 -3,25z" fill="#4f4f4f" fill-rule="evenodd"/><path d="M262,46c-1.235,0.2214 -2.235,0.8881 -3,2c-2.491,-0.7943 -4.824,-0.461 -7,1c-2.33,-4.6142 -3.664,-9.6142 -4,-15c1.43,-0.0792 2.764,0.2542 4,1c1.08,2.826 2.08,5.6593 3,8.5c1,0.6667 2,0.6667 3,0c-2.05,-1.6356 -3.05,-3.8023 -3,-6.5c1.333,0 2.667,0 4,0c1.183,2.8815 2.183,5.8815 3,9z" fill="#52443b" fill-rule="evenodd"/><path d="M162,102c-0.672,0.767 -1.505,1.434 -2.5,2c-1.406,-5.942 -1.739,-11.942 -1,-18c3.356,-4.845 6.856,-9.5117 10.5,-14c3.241,-2.8435 5.074,-6.5102 5.5,-11c0.333,-6.6667 0.667,-13.3333 1,-20c0.837,-2.3442 2.171,-4.3442 4,-6c-0.032,2.0979 -0.699,4.0979 -2,6c-0.333,7.3333 -0.667,14.6667 -1,22c-0.438,2.876 -1.438,5.5427 -3,8c-4.749,4.0779 -8.749,8.745 -12,14c-0.242,5.667 -0.075,11.333 0.5,17z" fill="#383838" fill-rule="evenodd"/><path d="M268,63c1.692,-3.3691 1.026,-6.2024 -2,-8.5c0.906,-1.6995 1.239,-3.5328 1,-5.5c-2.542,-2.8936 -4.542,-6.227 -6,-10c1.333,-1.3333 2.667,-1.3333 4,0c1.98,3.4315 3.48,7.0982 4.5,11c0.364,7.7883 1.53,15.455 3.5,23c-0.333,1 -0.667,2 -1,3c-0.333,-0.3333 -0.667,-0.6667 -1,-1c-0.516,-4.2393 -1.516,-8.2393 -3,-12z" fill="#4e4948" fill-rule="evenodd"/><path d="M230,80c-1,0 -2,0 -3,0c0,-2.3333 0,-4.6667 0,-7c0.487,-3.8091 0.821,-7.6424 1,-11.5c-0.621,-7.4238 -1.621,-14.7571 -3,-22c0.179,-3.8576 0.513,-7.6909 1,-11.5c1.667,0 3.333,0 5,0c-0.475,3.6431 -0.808,7.3098 -1,11c0.805,7.5243 1.805,15.0243 3,22.5c-0.061,6.5974 -1.061,12.764 -3,18.5z" fill="#4f4f4f" fill-rule="evenodd"/><path d="M243,32c1.624,-0.1399 2.79,0.5267 3.5,2c0.526,7.3952 2.526,14.3952 6,21c0.511,3.5497 0.178,6.8831 -1,10c1.356,0.8802 2.856,1.2135 4.5,1c0.224,3.6788 0.558,7.3455 1,11c-2.333,0 -4.667,0 -7,0c-1.437,-15.1787 -3.771,-30.1787 -7,-45z" fill="#504f4f" fill-rule="evenodd"/><path d="M237,29c1.083,0.0394 2.083,0.3728 3,1c1.098,9.9307 3.265,19.5974 6.5,29c1.162,5.9449 1.662,11.9449 1.5,18c-2,0.3333 -4,0.6667 -6,1c0.166,-7.0079 0,-14.0079 -0.5,-21c-2.472,-9.1919 -3.972,-18.5252 -4.5,-28z" fill="#4f4f4f" fill-rule="evenodd"/><path d="M375,116c0,1 0,2 0,3c-10.543,1.985 -21.21,3.318 -32,4c0,0.4234 0,0.84673 0,1.27003c-0.60108,-0.64948 -1.28727,-1.21903 -2.04086,-1.69094c0.00757,-0.19038 0.02119,-0.38341 0.04086,-0.57909c11.585,-0.708 22.919,-2.708 34,-6z" fill="#a3dcba" fill-rule="evenodd"/><path d="" fill="#222223" fill-rule="evenodd"/><path d="M265,27c3.705,1.7644 7.705,2.931 12,3.5c6.064,0.1946 12.064,0.8613 18,2c3.842,2.9191 8.175,4.7524 13,5.5c3.983,1.0997 7.65,2.7664 11,5c2.089,3.1774 3.923,6.5108 5.5,10c0.992,9.8012 1.826,19.4679 2.5,29c5.335,1.335 10.669,2.668 16,4c5.259,2.292 10.593,4.625 16,7c0.131,0.739 -0.036,1.406 -0.5,2c-1.011,-0.837 -2.178,-1.17 -3.5,-1c-0.214,1.644 0.12,3.144 1,4.5c5.115,1.723 9.782,4.223 14,7.5c-2.684,1.253 -5.35,2.253 -8,3c-9.523,1.065 -18.523,3.731 -27,8c0.833,0.333 1.667,0.667 2.5,1c9.134,-2.193 18.3,-4.193 27.5,-6c1.935,-0.65 3.935,-0.983 6,-1c-0.219,-1.175 0.114,-2.175 1,-3c0.752,5.79 2.419,6.29 5,1.5c-1.647,-2.558 -1.313,-3.392 1,-2.5c0.575,3.655 -0.425,6.655 -3,9c-11.081,3.292 -22.415,5.292 -34,6c-0.01967,0.19568 -0.03329,0.38871 -0.04086,0.57909c-1.53658,-0.96223 -3.35336,-1.51848 -5.30005,-1.51848c-0.75396,0 -1.48843,0.08344 -2.19468,0.24159c-1.42803,-3.02032 -3.58283,-5.4547 -6.46441,-7.30219c-4.859,-3.862 -10.192,-6.862 -16,-9c-7.597,-3.141 -15.264,-5.808 -23,-8c3.367,-0.501 3.7,-1.668 1,-3.5c0.648,-1.44 0.981,-2.94 1,-4.5c1.699,0.16 3.366,-0.006 5,-0.5c-2.368,-0.856 -4.702,-1.69 -7,-2.5c-0.417,-2.579 0.25,-4.746 2,-6.5c-0.916,-0.3742 -1.75,-0.8742 -2.5,-1.5c-2.811,1.68 -4.644,1.0131 -5.5,-2c1.333,0 2.667,0 4,0c-2.393,-8.1297 -3.893,-16.463 -4.5,-25c-2,-4.6667 -4,-9.3333 -6,-14c-1.512,-0.7567 -2.846,-1.7567 -4,-3c0.415,4.5272 1.748,8.8605 4,13c0.386,9.7804 2.553,19.1137 6.5,28c-0.904,0.709 -1.237,1.709 -1,3c-2.281,0.4227 -3.948,-0.244 -5,-2c1.333,0 2.667,0 4,0c-3.905,-14.258 -7.405,-28.5913 -10.5,-43c-1.415,-1.8188 -2.915,-2.4854 -4.5,-2c-0.333,0 -0.667,0 -1,0c-0.767,-0.672 -1.434,-1.5053 -2,-2.5c-1.135,-0.7494 -2.135,-0.5827 -3,0.5c0.848,1.9086 1.182,3.9086 1,6c-6.206,-2.0403 -12.206,-4.3737 -18,-7c4.804,-1.1001 9.637,-2.1001 14.5,-3c3.024,-0.0192 5.858,0.6475 8.5,2z" fill="#131411" fill-rule="nonzero"/><path d="M319.27976,266.39146c0.11905,-0.12126 0.23561,-0.24739 0.3493,-0.37858c0.07548,0.14748 0.15003,0.2955 0.22365,0.44408c-0.18927,-0.02426 -0.38032,-0.04602 -0.57295,-0.06549z" fill="#131411" fill-rule="nonzero"/><path d="M362,109c1.699,-0.16 3.366,0.006 5,0.5c-0.881,0.708 -1.547,1.542 -2,2.5c-9.2,1.807 -18.366,3.807 -27.5,6c-0.833,-0.333 -1.667,-0.667 -2.5,-1c8.477,-4.269 17.477,-6.935 27,-8z" fill="#535150" fill-rule="evenodd"/><path d="M355,104c3.018,-0.165 6.018,0.002 9,0.5c1.333,0.667 1.333,1.333 0,2c-7.389,1.464 -14.722,3.13 -22,5c-2.784,0.892 -5.45,2.058 -8,3.5c-1,-0.333 -1.667,-1 -2,-2c7.54,-3.597 15.207,-6.597 23,-9z" fill="#4e4e4f" fill-rule="evenodd"/><path d="M347,100c3.234,-0.295 6.234,0.371 9,2c-9.204,2.881 -18.204,6.214 -27,10c-1.601,-0.535 -2.101,-1.535 -1.5,-3c1.255,-0.711 2.421,-1.544 3.5,-2.5c5.526,-1.937 10.859,-4.104 16,-6.5z" fill="#4d4d4e" fill-rule="evenodd"/><path d="M338,96c3.559,-0.092 6.892,0.741 10,2.5c-7.786,2.27 -15.119,5.437 -22,9.5c-1,-0.5 -2,-1 -3,-1.5c4.717,-4.015 9.717,-7.515 15,-10.5z" fill="#4c4d4c" fill-rule="evenodd"/><path d="M330,94c2.25,-0.319 4.25,0.181 6,1.5c-5.89,2.863 -11.39,6.363 -16.5,10.5c2.498,-4.679 5.998,-8.679 10.5,-12z" fill="#4a4a49" fill-rule="evenodd"/><path d="M309,90c1.478,-0.262 2.811,0.071 4,1c-1.765,3.209 -3.765,6.209 -6,9c-1,-0.333 -1.667,-1 -2,-2c1.347,-2.693 2.68,-5.36 4,-8z" fill="#474646" fill-rule="evenodd"/><path d="M322,92c2.155,-0.128 4.155,0.372 6,1.5c-3.806,2.895 -7.14,6.228 -10,10c-1.444,0.781 -2.777,0.614 -4,-0.5c2.691,-3.685 5.358,-7.352 8,-11z" fill="#49484a" fill-rule="evenodd"/><path d="M315,91c1.333,0 2.667,0 4,0c-1.433,4.522 -4.1,8.189 -8,11c-0.667,-0.333 -1.333,-0.667 -2,-1c2.011,-3.361 4.011,-6.694 6,-10z" fill="#454647" fill-rule="evenodd"/><path d="M346,91c4.077,-0.483 6.41,1.184 7,5c-2.361,-0.174 -4.694,-0.507 -7,-1c0,-1.333 0,-2.667 0,-4z" fill="#504e4f" fill-rule="evenodd"/><path d="M302,90c1.699,-0.16 3.366,0.006 5,0.5c-1.538,1.932 -2.705,4.099 -3.5,6.5c-1.011,0.837 -2.178,1.17 -3.5,1c0.667,-2.667 1.333,-5.333 2,-8z" fill="#424541" fill-rule="evenodd"/><path d="M338,88c2.306,0.493 4.639,0.826 7,1c0,1.333 0,2.667 0,4c-2.333,0 -4.667,0 -7,0c0,-1.667 0,-3.333 0,-5z" fill="#544e50" fill-rule="evenodd"/><path d="M322,84c4.438,-1.075 6.438,0.592 6,5c-2,0 -4,0 -6,0c0,-1.667 0,-3.333 0,-5z" fill="#4d4d4d" fill-rule="evenodd"/><path d="M330,85c4.306,-0.197 6.306,1.803 6,6c-2,0 -4,0 -6,0c0,-2 0,-4 0,-6z" fill="#504b4b" fill-rule="evenodd"/><path d="M295,81c5.638,0.72 11.304,1.053 17,1c0,1.667 0,3.333 0,5c-5.667,0 -11.333,0 -17,0c0,-2 0,-4 0,-6z" fill="#353434" fill-rule="evenodd"/><path d="M314,83c2,0 4,0 6,0c0,1.667 0,3.333 0,5c-2,0 -4,0 -6,0c0,-1.667 0,-3.333 0,-5z" fill="#494b4a" fill-rule="evenodd"/><path d="M319,50c1.636,1.2489 2.803,2.9156 3.5,5c0.667,7.3333 0.667,14.6667 0,22c-1.827,-8.8907 -2.994,-17.8907 -3.5,-27z" fill="#3e3638" fill-rule="evenodd"/><path d="M279,41c0.996,-0.0858 1.829,0.2476 2.5,1c1.711,2.4562 3.044,5.1229 4,8c0.956,8.4448 2.456,16.7781 4.5,25c-0.333,0.3333 -0.667,0.6667 -1,1c-3.926,-8.8984 -6.093,-18.2318 -6.5,-28c-1.193,-2.3864 -2.36,-4.7198 -3.5,-7z" fill="#4b4b4b" fill-rule="evenodd"/><path d="M285,44c3.435,1.956 5.602,4.956 6.5,9c0.333,5 0.667,10 1,15c0.375,2.5001 1.208,4.8334 2.5,7c-2.818,1.3815 -4.318,0.3815 -4.5,-3c-0.612,-9.6161 -2.446,-18.9494 -5.5,-28z" fill="#4e4e4e" fill-rule="evenodd"/><path d="M306,40c1.37,0.3565 2.37,1.1898 3,2.5c2.23,4.2995 4.063,8.7995 5.5,13.5c0.667,-1.6667 0.667,-3.3333 0,-5c-1.914,-2.7975 -2.914,-5.7975 -3,-9c3.55,3.2332 5.883,7.2332 7,12c0.305,6.8503 0.805,13.6836 1.5,20.5c-0.333,1.1667 -0.667,2.3333 -1,3.5c-1.396,-2.4716 -2.23,-5.1383 -2.5,-8c-0.333,-4.3333 -0.667,-8.6667 -1,-13c-0.775,6.5384 -0.609,13.0384 0.5,19.5c-1.664,1.7674 -2.831,1.2674 -3.5,-1.5c-0.333,-6.6667 -0.667,-13.3333 -1,-20c-2.584,-5.0834 -4.418,-10.0834 -5.5,-15z" fill="#49494a" fill-rule="evenodd"/><path d="M300,38c1.517,0.0106 2.684,0.6772 3.5,2c0.856,4.0442 2.522,7.7108 5,11c1.204,8.6238 2.037,17.2904 2.5,26c-1.333,0 -2.667,0 -4,0c-0.636,-7.3151 -1.136,-14.6484 -1.5,-22c-1.924,-5.6056 -3.757,-11.2723 -5.5,-17z" fill="#4f4e4e" fill-rule="evenodd"/><path d="M287,33c1.53,0.5668 3.03,1.2334 4.5,2c-0.134,5.9289 1.532,11.2622 5,16c1.771,8.2578 2.938,16.5911 3.5,25c-2.888,0.2804 -4.388,-1.0529 -4.5,-4c-1.152,-6.2697 -1.818,-12.6031 -2,-19c-1.13,-3.8899 -3.13,-7.2233 -6,-10c-0.498,-3.3168 -0.665,-6.6501 -0.5,-10z" fill="#4f4f4f" fill-rule="evenodd"/><path d="M282,76c0,-0.3333 0,-0.6667 0,-1c-3.947,-8.8863 -6.114,-18.2196 -6.5,-28c-2.252,-4.1395 -3.585,-8.4728 -4,-13c1.154,1.2433 2.488,2.2433 4,3c2,4.6667 4,9.3333 6,14c0.607,8.537 2.107,16.8703 4.5,25c-1.333,0 -2.667,0 -4,0z" fill="#4f4f4e" fill-rule="evenodd"/><path d="M294,36c1.322,-0.17 2.489,0.1634 3.5,1c5.507,12.4015 8.007,25.4015 7.5,39c-1.322,0.17 -2.489,-0.1634 -3.5,-1c-0.412,-7.025 -1.079,-14.025 -2,-21c-1.139,-3.6122 -2.806,-6.9456 -5,-10c-0.497,-2.646 -0.664,-5.3127 -0.5,-8z" fill="#505150" fill-rule="evenodd"/><path d="M282,33c1.333,0 2.667,0 4,0c0.317,3.0719 -0.016,6.0719 -1,9c-0.978,-0.4767 -1.811,-1.1433 -2.5,-2c-0.497,-2.3098 -0.663,-4.6432 -0.5,-7z" fill="#454444" fill-rule="evenodd"/><path d="" fill="#2e2e2f" fill-rule="evenodd"/><path d="M288.20519,275.31243c0.17433,-0.02644 0.34949,-0.04434 0.52533,-0.0555c-0.20333,0.07474 -0.40761,0.14852 -0.61199,0.22133c0.01157,-0.05259 0.02303,-0.10519 0.03438,-0.15779c0.01744,-0.00272 0.03487,-0.0054 0.05229,-0.00804z" fill="#d4d4d6" fill-rule="evenodd"/><path d="" fill="#3d6c4f" fill-rule="evenodd"/><path d="" fill="#515151" fill-rule="evenodd"/><g fill="#000000" fill-rule="nonzero"><path d="M138.2991,169.05447c1.67881,-3.02641 2.76243,-3.56888 1.64586,-0.82392c-1.13832,2.79835 -2.25259,5.8564 -2.25259,6.18168c0,0.31572 0.14995,0.35923 6.26177,1.81459c4.54176,1.08164 6.68328,2.08484 10.25612,4.80475c5.04797,3.84275 6.26012,5.38149 5.7717,7.32824c-0.30419,1.21083 -7.33582,7.41888 -8.69166,7.6733c-2.34717,0.4403 -2.96544,-0.35956 -5.50508,-7.12227c-1.80899,-4.81761 -2.16361,-6.85861 -1.39539,-8.03088l0.52467,-0.80118l-4.15551,-1.36704c-2.28587,-0.75207 -4.28074,-1.24214 -4.43366,-1.08922c-0.29002,0.29002 -3.57712,8.25334 -5.25132,12.72193l-0.96959,2.58743l1.36902,2.52086c3.68423,6.78479 4.57109,8.55819 4.57109,9.14152c0,0.85819 -3.29666,7.53851 -4.58625,9.29345c-1.22961,1.67321 -2.31619,2.19195 -3.47989,1.66168c-1.00946,-0.45975 -1.2105,-1.09284 -2.49449,-7.85324c-1.69529,-8.92763 -1.80603,-9.90513 -1.3209,-11.63832c0.43305,-1.54666 8.75922,-17.56294 9.61742,-18.50056c0.70231,-0.7669 0.00363,-1.19237 -4.35061,-2.64906c-2.55019,-0.85358 -5.25099,-1.90028 -6.00141,-2.32641l-1.36441,-0.77514l1.96455,0.18192c1.08032,0.10019 3.86582,0.61168 6.18992,1.13701c2.3241,0.525 4.49628,0.95475 4.8265,0.95475c0.36516,0 0.84402,-0.48545 1.21907,-1.23588zM149.74001,187.34542c0.70132,1.94873 1.38286,3.54284 1.51469,3.54284c0.44986,0 3.41036,-2.74331 3.41036,-3.16054c0,-0.46205 -5.52519,-4.74906 -6.12071,-4.74906c-0.20697,0 -0.30946,0.18555 -0.22806,0.41196zM127.80438,199.26486c-0.00165,1.08691 1.78625,8.10009 2.06506,8.10108c0.13842,0.00033 0.57114,-0.65716 0.96168,-1.4613l0.71055,-1.46229l-1.24049,-2.73969c-1.29619,-2.86295 -1.88611,-3.73432 -2.26841,-3.35202z"/><path d="M128.89821,180.69147c1.27905,-2.07363 2.38474,-3.59392 2.45659,-3.37839c0.22147,0.66474 -10.5547,25.00818 -13.02118,29.41449c-0.82326,1.47053 -0.82886,1.52293 -0.25212,2.40287l0.58927,0.89939l0.94223,-1.64948c0.51808,-0.9073 0.9419,-1.74275 0.9419,-1.85678c0,-0.39317 2.13197,-3.7709 2.38013,-3.7709c0.37142,0 0.03131,3.15857 -0.69637,6.46709c-1.09878,4.99359 -1.41878,4.01808 4.35489,13.26539c4.70621,7.53851 12.13135,19.99679 13.52805,22.69924c0.96365,1.86436 -0.25673,1.31003 -1.81394,-0.82392c-0.76064,-1.04209 -2.44407,-3.30391 -3.74091,-5.02589c-1.29717,-1.72199 -5.55023,-7.58003 -9.45197,-13.01788c-3.90141,-5.43785 -7.87236,-10.92514 -8.82415,-12.19397c-3.74091,-4.987 -3.83253,-6.17245 -0.85259,-11.04048c1.05428,-1.72199 3.99039,-6.61605 6.52542,-10.8757z"/><path d="M138.16728,182.46091c2.01958,-1.487 2.9717,-0.08898 8.43163,12.38215c1.22994,2.80956 3.19548,7.1104 4.36742,9.55743c3.75113,7.83116 4.28239,9.02584 4.87231,10.95809c0.31836,1.04242 0.5484,1.89501 0.51182,1.89501c-0.34769,0 -2.99411,-4.08959 -5.33173,-8.23917c-1.58258,-2.80956 -3.99039,-6.9621 -5.35052,-9.22787c-1.36012,-2.26577 -2.76704,-4.77872 -3.12627,-5.58451l-0.65287,-1.46492l-0.4871,1.22039c-0.52994,1.32947 -1.42538,1.75428 -3.02344,1.4346l-0.93729,-0.18719l1.17425,3.42848c0.99793,2.91271 1.1169,3.55471 0.79195,4.26822c-0.55565,1.21907 -1.80405,1.11657 -2.81219,-0.23136c-0.95805,-1.2807 -4.83507,-10.51944 -4.83507,-11.52132c0,-0.96464 0.92839,-1.90852 1.87688,-1.90852c0.43206,0 1.36737,0.29661 2.07792,0.65913c0.71055,0.36252 1.44746,0.65913 1.63729,0.65913c0.22575,0 0.31605,-1.32057 0.26036,-3.81342z"/></g><g fill-rule="evenodd"><path d="M228,150c-4.413,1.638 -9.079,2.638 -14,3c-4.434,0.409 -8.768,1.409 -13,3c-0.667,-0.333 -1.333,-0.667 -2,-1c4.611,-4.139 9.944,-6.973 16,-8.5c5.128,-1.332 9.461,-0.165 13,3.5z" fill="#191409"/><path d="M276,146c9.313,-0.284 17.647,2.549 25,8.5c-8.918,-0.961 -17.918,-1.461 -27,-1.5c-0.334,-2.688 0.332,-5.021 2,-7z" fill="#1b160c"/><path d="M228,150c1.72,1.251 2.053,2.751 1,4.5c-4.905,-0.808 -9.905,-1.308 -15,-1.5c4.921,-0.362 9.587,-1.362 14,-3z" fill="#8f843d"/><path d="M296,170c-7.315,-4.294 -14.315,-3.96 -21,1c-0.17,-1.322 0.163,-2.489 1,-3.5c6.38,-3.155 12.713,-3.155 19,0c0.752,0.671 1.086,1.504 1,2.5z" fill="#9c8d50"/><path d="M296,170c7.062,8.475 6.395,16.475 -2,24c-5.294,2.211 -10.628,2.378 -16,0.5c-1.541,-1.371 -2.875,-2.871 -4,-4.5c-3.986,-6.278 -3.986,-12.611 0,-19c0.333,0 0.667,0 1,0c6.685,-4.96 13.685,-5.294 21,-1z" fill="#0c0907"/><path d="M227,173c1.752,3.727 2.419,7.727 2,12c-1.155,2.975 -2.822,5.642 -5,8c-6.351,3.856 -12.685,3.856 -19,0c-0.333,-1 -1,-1.667 -2,-2c-2.458,-4.283 -3.458,-8.949 -3,-14c3.539,-8.464 9.873,-11.964 19,-10.5c3.413,1.246 6.079,3.413 8,6.5z" fill="#0a0807"/><path d="M217,174c1.333,0 2.667,0 4,0c0,1.667 0,3.333 0,5c-1.333,0 -2.667,0 -4,0c0,-1.667 0,-3.333 0,-5z" fill="#d9d8d7"/><path d="M289,175c1.333,0 2.667,0 4,0c0.384,2.165 -0.283,3.832 -2,5c-1.717,-1.168 -2.384,-2.835 -2,-5z" fill="#e8e8e8"/><path d="M227,173c2.652,0.825 3.985,2.658 4,5.5c-0.302,2.4 -0.968,4.566 -2,6.5c0.419,-4.273 -0.248,-8.273 -2,-12z" fill="#766b30"/><path d="M274,171c-3.986,6.389 -3.986,12.722 0,19c-1.911,-0.074 -3.078,-1.074 -3.5,-3c-0.667,-3.667 -0.667,-7.333 0,-11c0.549,-2.26 1.716,-3.926 3.5,-5z" fill="#958949"/><path d="M200,177c-0.458,5.051 0.542,9.717 3,14c-1.673,-0.843 -2.84,-2.176 -3.5,-4c-0.808,-3.527 -0.641,-6.86 0.5,-10z" fill="#7a7245"/><path d="M205,193c6.315,3.856 12.649,3.856 19,0c-2.117,3.468 -5.284,4.802 -9.5,4c-3.651,-0.266 -7.151,-1.099 -10.5,-2.5c0.556,-0.383 0.889,-0.883 1,-1.5z" fill="#c7b964"/></g></g></g></svg>