<svg version="1.1" xmlns="http://www.w3.org/2000/svg" xmlns:xlink="http://www.w3.org/1999/xlink" width="25.17658" height="36.29546" viewBox="0,0,25.17658,36.29546"><g transform="translate(-213.19176,-141.35228)"><g data-paper-data="{&quot;isPaintingLayer&quot;:true}" fill-rule="nonzero" stroke="none" stroke-width="0.5" stroke-linecap="butt" stroke-linejoin="miter" stroke-miterlimit="10" stroke-dasharray="" stroke-dashoffset="0" style="mix-blend-mode: normal"><g data-paper-data="{&quot;index&quot;:null}"><path d="M236.09283,155.552c0.44629,0.04046 0.70635,-0.00605 1.00695,-0.19752c-0.18667,-0.11286 -0.23991,-0.29865 -0.23991,-0.29865c-0.20188,-0.76861 -0.34749,-0.78989 -1.29599,-0.93945c-0.30254,-0.0477 -0.63883,-0.2364 -0.90967,-0.13235c-0.26607,0.10221 -0.1135,0.46562 -0.20878,0.68843c-0.03683,0.08615 -0.23915,0.11786 -0.2171,0.20906c0.02214,0.09157 0.2061,0.09454 0.30361,0.14874c0.5149,0.28624 0.92491,0.46406 1.5609,0.52174zM237.79355,154.19686c0.05448,0.09374 0.08803,0.19264 0.11424,0.29332c0.17944,0.10244 0.246,0.27015 0.246,0.27015l0.21456,0.70226c-0.49877,0.59382 -0.4864,0.82386 -1.42713,1.006c-1.15678,0.22398 -3.5031,-0.38442 -3.86585,-1.45415c-0.07403,-0.2183 0.17684,-0.41936 0.24182,-0.63479c0.04592,-0.15229 0.06641,-0.28979 0.08969,-0.41641c-0.04832,0.00275 -0.09606,0.00459 -0.1431,0.0055c-0.26385,0.00512 -0.53811,0.06639 -0.79256,0.00079c-0.82837,-0.21353 -1.24886,-0.81822 -1.69633,-1.31861c-0.39073,-0.43694 -0.96285,-0.80655 -1.3537,-1.24418c-0.22117,-0.24763 -0.61342,-0.82458 -0.83457,-1.07221c-0.61458,-0.93716 -1.36039,-1.76558 -1.84075,-2.76146c-0.10509,-0.21788 -0.09013,-0.62375 -0.38041,-0.63333c-0.34035,-0.01124 -0.59151,0.24825 -0.90064,0.35061c-0.66163,0.21908 -1.36376,0.40345 -2.03193,0.60562c-0.95672,0.28948 -1.99384,0.44771 -3.02117,0.59119l-0.23495,0.17579c-0.88285,0.1775 -1.73668,0.1408 -2.58257,-0.26607c-0.30118,-0.14486 -0.67533,-0.29355 -0.79557,-0.55448c-0.14023,-0.30432 0.02625,-0.64038 0.10149,-0.95174c0.21287,-0.88092 0.82926,-1.73917 1.7161,-2.28997c-0.02371,-0.04621 -0.04049,-0.10003 -0.04758,-0.16271c-0.05259,-0.46455 0.53164,-0.4865 0.53164,-0.4865c1.36579,-0.04404 2.42834,-0.55033 3.63489,-0.96079c1.07384,-0.3653 2.18544,-0.67137 3.28549,-0.9873c0.43917,-0.12614 0.90094,-0.20567 1.3357,-0.34028c0.27729,-0.08586 0.50666,-0.35588 0.80431,-0.30436c0.37719,0.06529 0.62332,0.3775 0.89713,0.59886c0.68272,0.55194 1.22608,1.51186 1.69564,2.17747c1.35631,2.3689 2.96886,4.51982 4.85037,6.64286c0.17607,0.06198 0.28274,0.18142 0.28274,0.18142l0.11905,0.1333c0.15112,0.18921 0.40442,0.34983 0.45336,0.56764c0.14076,0.62655 -0.19927,1.14978 -0.74632,1.53887c0.01104,0.0018 0.02191,0.00354 0.03261,0.00522c0.88749,0.13993 1.62195,0.2589 2.04831,0.99247zM220.57036,144.7157c-0.08754,0.21583 -0.39265,0.28254 -0.39265,0.28254c-1.23184,0.24095 -1.77923,1.25731 -2.13429,2.13933c-0.05145,0.12781 -0.18811,0.24556 -0.16349,0.38079c0.01227,0.06741 0.16376,0.04433 0.24514,0.06771c0.27703,0.07958 0.4961,0.15132 0.70344,0.19764c0.09198,-0.03773 0.17023,-0.0493 0.17023,-0.0493c0.31141,-0.04603 0.61825,-0.09517 0.92165,-0.14722c0.07491,-0.03119 0.16707,-0.05356 0.27266,-0.04772c1.37826,-0.24597 2.69211,-0.5519 4.0523,-0.90037c0.59681,-0.1529 1.64366,-0.735 2.30143,-0.61138c0.34874,0.06554 0.65886,0.27308 0.88999,0.49461c0.09061,0.08684 0.60333,1.17368 0.69719,1.33784c0.40685,0.71155 0.99485,1.32525 1.44709,2.01486c0.2544,0.28484 0.53355,0.73119 0.78795,1.01604c0.39032,0.43703 0.96328,0.80646 1.3537,1.24418c0.27532,0.30868 0.52646,0.80584 1.05524,0.94765c0.12375,0.03319 0.2526,-0.03476 0.38064,-0.04327c0.68333,-0.04547 2.50702,-0.55724 2.04565,-1.26622l-0.40666,-0.32066c-1.97635,-2.21289 -3.67435,-4.45513 -5.08683,-6.9269c-0.39576,-0.56196 -0.82662,-1.10222 -1.24126,-1.65401c-0.09084,-0.12089 -0.223,-0.22167 -0.30814,-0.34501c-0.05232,-0.07581 0.00764,-0.23879 -0.09942,-0.24543c-0.11448,-0.0071 -0.07717,0.18445 -0.17497,0.2284c-0.6039,0.27142 -1.53459,0.40101 -2.19737,0.5915c-1.69487,0.48712 -3.34452,1.27008 -5.11923,1.6144z" fill="#9966ff"/><path d="M237.11038,155.35881c-0.3006,0.19148 -0.56701,0.24247 -1.01329,0.202c-0.63598,-0.05767 -1.06151,-0.24207 -1.57641,-0.52831c-0.09751,-0.05421 -0.28186,-0.05871 -0.30401,-0.15029c-0.02205,-0.0912 0.18022,-0.12471 0.21705,-0.21085c0.09528,-0.22281 -0.05427,-0.59166 0.2118,-0.69387c0.27084,-0.10405 0.6136,0.082 0.91614,0.1297c0.9485,0.14955 1.10769,0.18266 1.30958,0.95127c0,0 0.05246,0.18749 0.23913,0.30035z" data-paper-data="{&quot;noHover&quot;:false,&quot;origItem&quot;:[&quot;Path&quot;,{&quot;applyMatrix&quot;:true,&quot;segments&quot;:[[[428.29653,249.70232],[2.53963,2.48528],[-0.88695,1.97961]],[[425.52357,252.53569],[0,0],[-7.83313,3.35814]],[[417.70827,266.57322],[0,-9.26089],[0,2.95396]],[[417.82607,275.4341],[-1.56019,-2.36818],[1.5327,2.32645]],[[425.49513,276.11458],[-2.5285,-0.4825],[0.97762,0.18656]],[[428.08169,277.77625],[-0.93268,0.38046],[0.93648,-0.38202]],[[429.15412,274.62198],[-0.41283,1.02512],[2.18006,-5.41338]],[[432.08448,258.86309],[0.45298,6.12931],[-0.31787,-4.30112]]],&quot;closed&quot;:true}]}" fill="#ffffff"/><path d="M220.16665,144.99479c0,0 0.30541,-0.06729 0.39294,-0.28312c1.77471,-0.34432 3.432,-1.1323 5.12687,-1.61942c0.66278,-0.19049 1.59816,-0.32017 2.20207,-0.59159c0.0978,-0.04395 0.06073,-0.23547 0.17521,-0.22837c0.10706,0.00664 0.04737,0.16966 0.0997,0.24548c0.08513,0.12334 0.21807,0.22428 0.30891,0.34517c0.41464,0.55179 0.84975,1.09381 1.24551,1.65577c1.41247,2.47176 3.11315,4.72662 5.08951,6.9395l0.4066,0.32074c0.46136,0.70897 -1.36446,1.22256 -2.04779,1.26803c-0.12803,0.00852 -0.25722,0.07667 -0.38097,0.04348c-0.52879,-0.14181 -0.78006,-0.63889 -1.05538,-0.94756c-0.39042,-0.43772 -0.96366,-0.807 -1.35397,-1.24403c-0.2544,-0.28484 -0.54741,-0.74666 -0.80181,-1.03149c-0.45225,-0.68962 -1.04233,-1.30179 -1.44918,-2.01334c-0.09387,-0.16415 -0.60201,-1.23643 -0.69262,-1.32327c-0.23114,-0.22153 -0.53244,-0.42867 -0.88118,-0.49422c-0.65777,-0.12362 -1.69734,0.45178 -2.29415,0.60467c-1.3602,0.34846 -2.67392,0.65165 -4.05218,0.89762c-0.10559,-0.00584 -0.19776,0.01647 -0.27266,0.04768c-0.3034,0.05206 -0.61025,0.10106 -0.92167,0.14709c0,0 -0.10152,0.01327 -0.19349,0.05101c-0.20734,-0.04631 -0.42646,-0.11839 -0.70348,-0.19796c-0.08139,-0.02338 -0.23289,-0.0004 -0.24516,-0.06781c-0.02462,-0.13523 0.112,-0.25346 0.16345,-0.38127c0.35506,-0.88204 0.90311,-1.90182 2.13494,-2.14276z" data-paper-data="{&quot;noHover&quot;:false,&quot;origItem&quot;:[&quot;Path&quot;,{&quot;applyMatrix&quot;:true,&quot;segments&quot;:[[[657.04642,381.49437],[0,0],[4.62661,9.90368]],[[683.36858,395.78934],[-9.97259,-1.50293],[1.44514,0.21779]],[[687.69104,396.5235],[-1.39648,0.43093],[0.69604,-0.21479]],[[687.99997,394.36016],[-0.11213,0.71975],[0.38164,-2.4498]],[[688.92201,388.14704],[-0.14482,1.81148],[-0.55534,-0.70664]],[[688.1125,386.80499],[0,0],[-1.0114,-2.52849]],[[685.00235,379.34017],[1.06204,2.45139],[-0.45725,-0.5747]],[[684.03792,377.13874],[0.11497,0.89292],[-4.92546,-11.1202]],[[667.67276,344.73829],[5.98483,10.79863],[-2.62594,-4.73807]],[[657.31503,326.50353],[-0.21166,5.70793],[0.11222,-3.02632]],[[661.08161,318.2359],[-1.96776,2.30198],[0.77141,-0.90243]],[[674.13622,310.17835],[-1.58787,1.05821],[6.8829,-4.587]],[[693.13166,294.7216],[-6.57368,4.93026],[2.60189,-2.60189]],[[702.61288,286.44017],[-2.60189,2.60189],[3.99202,-3.99202]],[[713.57123,273.04664],[-3.99918,3.99409],[2.82019,-2.8166]],[[721.87737,262.64306],[-0.6213,4.65927],[0.1454,-1.09041]],[[720.77921,259.53094],[0.30521,1.05687],[-1.6289,-5.64052]],[[703.88827,244.52507],[6.76412,-5.03876],[0,0]],[[701.16079,248.46027],[0,0],[-20.21351,20.21351]],[[636.04404,302.53496],[23.91098,-15.92721],[-5.31112,4.24538]],[[620.54007,315.66967],[5.17134,-4.38641],[-1.13297,0.961]],[[617.38854,318.82119],[1.16859,-0.91735],[-0.71824,0.56382]],[[614.94591,320.06111],[-0.10883,-0.9066],[0.11639,0.9695]],[[617.66749,321.14479],[-0.63125,-0.74498],[3.89793,4.60022]],[[627.63949,338.54218],[-3.13622,-5.22739],[8.01997,13.36755]],[[653.38438,378.67981],[-6.6356,-14.27295],[2.44136,0.3732]]],&quot;closed&quot;:true}]}" fill="#ffffff"/></g><g data-paper-data="{&quot;index&quot;:null}"><path d="M223.24519,169.07581c0.59874,-0.04625 0.64501,0.42862 0.64501,0.42862l-0.07263,-0.09185c0.0431,0.05698 0.08447,0.11454 0.12429,0.17264c0.03978,0.02835 0.07948,0.05683 0.1191,0.08545c0.15849,0.35841 0.33797,0.70615 0.52648,1.04973c-0.00903,0.01096 -0.01793,0.02198 -0.02669,0.03308c0.25022,0.58356 0.45928,1.18144 0.76393,1.74715c0.20258,0.37618 0.45074,0.73923 0.69342,1.1048c0.01412,0.00253 0.02829,0.00494 0.0425,0.00726c0.0617,0.11766 0.13169,0.23519 0.21472,0.35265c0.10033,0.14192 0.21103,0.26382 0.32572,0.37645c-0.00525,0.06651 -0.00972,0.13313 -0.01307,0.19983c0.05717,0.11028 0.11026,0.22187 0.15807,0.33515c0.14867,0.35233 0.20926,0.72684 0.26883,1.09672c0.04463,0.27715 0.3119,0.56848 0.16905,0.82684c-0.34547,0.62482 -1.16795,0.58211 -1.80163,0.64043c0,0 -0.06064,0.00468 -0.14481,-0.00423c-0.70817,0.14848 -1.45582,0.2165 -2.15632,0.17336c-0.26127,-0.01609 -0.49098,-0.15384 -0.75155,-0.17497c-1.10405,-0.0895 -1.83145,0.07305 -2.82455,-0.47272c-0.15393,-0.0846 -0.2661,-0.21301 -0.42642,-0.2899c-0.22913,-0.10988 -0.55728,-0.10402 -0.73129,-0.26529c-0.55467,-0.51407 -0.39964,-1.54249 0.13842,-2.0465c0.71856,-0.6731 2.34242,-0.74076 3.34166,-0.74617c0.07404,-0.0004 0.14967,-0.00348 0.22581,-0.00686c-0.94315,-1.20641 -1.92956,-2.37096 -3.02372,-3.46062c-0.42985,-0.42808 -0.92368,-0.84655 -1.3984,-1.24359c-0.19934,-0.16672 -0.52726,-0.26743 -0.61387,-0.48788c-0.26616,-0.67738 0.50497,-1.33165 0.91646,-1.84816c0.78512,-1.56269 1.96408,-2.91329 2.94791,-4.42208c0.20103,-0.30829 0.44656,-0.59745 0.67103,-0.89562c0.33634,-0.44679 0.13949,-0.78822 0.84252,-1.14535c0.28386,-0.1442 0.65994,-0.09316 0.99191,-0.12713c1.25691,-0.12864 2.53029,-0.19546 3.79091,-0.29284c0,0 0.48709,-0.03763 0.61655,0.30344l0.12731,0.03914c0.50186,0.15912 1.36529,0.33769 1.44932,0.89853c0.04165,0.27799 -0.34644,0.49547 -0.54626,0.73004c-0.35702,0.41909 -0.78561,0.97988 -1.26804,1.31288c-0.14249,0.09836 -0.37062,0.10653 -0.49222,0.22122c-0.1216,0.1147 -0.09325,0.2935 -0.18986,0.42215c-0.21377,0.28467 -0.59595,0.4756 -0.80723,0.76142c-0.88938,1.20317 -1.8022,2.3952 -3.1461,3.35399c-0.19897,0.18768 -0.60871,0.30228 -0.62273,0.5452c-0.00535,0.09266 0.18213,0.11604 0.25104,0.18971c0.20189,0.21586 0.39737,0.44247 0.65326,0.61796c0.0137,-0.0016 0.02777,-0.00297 0.0422,-0.00408zM224.22204,172.89635c-0.45989,-0.86452 -0.68145,-1.82931 -1.2168,-2.66737c-0.17905,-0.13342 -0.36308,-0.26411 -0.55312,-0.39167c-0.4477,-0.3005 -1.38577,-1.03462 -1.35438,-1.55827c0.02275,-0.3796 0.65869,-0.91603 0.96919,-1.20891c0.83076,-0.59269 1.36243,-1.19661 1.92127,-1.93089c0.2159,-0.28368 0.59595,-0.4756 0.80723,-0.76142c0.11135,-0.15064 0.13276,-0.33557 0.24654,-0.48509c0.2159,-0.28368 0.59346,-0.47675 0.80723,-0.76142c0.12887,-0.17161 0.14102,-0.39501 0.30323,-0.54802c0.16221,-0.15301 0.4369,-0.20225 0.62915,-0.33144c0.2728,-0.18331 0.67321,-0.99685 1.10395,-1.20106c-0.14253,-0.03428 -0.2765,-0.09192 -0.41648,-0.13316l-0.60575,-0.18623c0,0 -0.05719,-0.01758 -0.12743,-0.05615c-0.74522,0.05757 -1.49044,0.11514 -2.23566,0.1727c-0.34021,0.02628 -0.67961,0.06409 -1.02063,0.07885c-0.15556,0.00673 -0.32988,-0.07642 -0.46614,-0.0145c-0.32375,0.14712 -0.24446,0.56285 -0.43526,0.81752c-0.20903,0.27899 -0.44193,0.54765 -0.62929,0.83597c-0.98265,1.51211 -2.14802,2.86348 -2.94791,4.42208c-0.24874,0.3168 -0.508,0.62844 -0.75783,0.94471c-0.03566,0.04515 -0.13293,0.09652 -0.09658,0.14017c0.06834,0.08206 0.23592,0.07319 0.32856,0.13838c0.75943,0.53442 1.29686,1.25309 1.96263,1.8481c0.15515,0.13865 0.39287,0.21507 0.52598,0.36762c0.12125,0.13894 0.10303,0.33501 0.21339,0.47966c0.71066,0.93153 1.59646,1.78366 2.31702,2.72542l0.33045,0.4319c0.05023,0.06261 0.08235,0.13585 0.09012,0.21561c0.02555,0.26226 -0.2218,0.49558 -0.55247,0.52113c-0.10056,0.00777 -0.19725,-0.00457 -0.28384,-0.03289l-0.59456,-0.18278l0.00052,-0.00102c-0.93258,-0.0304 -1.88876,-0.0237 -2.74376,0.23755c-0.22865,0.06986 -0.8724,0.73017 -0.51708,0.91916c0.13761,0.0732 0.33564,0.0428 0.48021,0.10716c0.4845,0.21571 0.47815,0.42296 0.99122,0.57862c0.57014,0.17298 1.1992,0.01321 1.77024,0.05847c0.26064,0.02066 0.49061,0.1564 0.75156,0.17497c0.65645,0.04669 1.39872,-0.22672 2.06275,-0.16775c0.00664,-0.00074 0.01026,-0.00101 0.01026,-0.00101c0.07946,-0.00442 0.15889,-0.0096 0.23833,-0.01462c-0.08416,-0.23621 -0.0412,-0.49831 -0.02981,-0.7466c0.01577,-0.34387 -0.09865,-0.68354 -0.11264,-1.02647c-0.37414,-0.6123 -0.83004,-1.17993 -1.1636,-1.80698z" fill="#9966ff"/><path d="M223.00791,170.21965c0.53535,0.83805 0.75242,1.80278 1.21231,2.6673c0.33356,0.62705 0.78824,1.1949 1.16239,1.8072c0.01397,0.34294 0.13419,0.70103 0.11842,1.04491c-0.01138,0.2483 -0.05457,0.51043 0.02959,0.74664c-0.07944,0.00502 -0.15915,0.01026 -0.23861,0.01468c0,0 -0.00362,0.00028 -0.01027,0.00101c-0.66403,-0.05897 -1.40879,0.21465 -2.06524,0.16796c-0.26095,-0.01856 -0.49184,-0.15433 -0.75249,-0.17499c-0.57104,-0.04526 -1.2022,0.11422 -1.77235,-0.05875c-0.51307,-0.15567 -0.50808,-0.36327 -0.99259,-0.57898c-0.14457,-0.06436 -0.34317,-0.03416 -0.48079,-0.10736c-0.35532,-0.18899 0.29892,-0.86663 0.52757,-0.9365c0.855,-0.26125 1.80745,-0.26878 2.74002,-0.23838l-0.00052,0.00102l0.59358,0.18274c0.08659,0.02832 0.18283,0.04066 0.28338,0.03289c0.33068,-0.02555 0.57708,-0.25882 0.55153,-0.52108c-0.00777,-0.07976 -0.03832,-0.13399 -0.08855,-0.19659l-0.33104,-0.43188c-0.72055,-0.94177 -1.61427,-1.79603 -2.32493,-2.72756c-0.11035,-0.14466 -0.09361,-0.34188 -0.21486,-0.48082c-0.13312,-0.15255 -0.37223,-0.2306 -0.52738,-0.36924c-0.66578,-0.595 -1.20442,-1.31961 -1.96385,-1.85403c-0.09264,-0.06519 -0.26017,-0.05654 -0.32851,-0.13861c-0.03635,-0.04365 0.06101,-0.09536 0.09667,-0.1405c0.24982,-0.31627 0.51019,-0.6303 0.75892,-0.9471c0.79989,-1.55861 1.97367,-2.91504 2.95632,-4.42715c0.18736,-0.28831 0.42134,-0.55711 0.63037,-0.8361c0.1908,-0.25467 0.11216,-0.67045 0.4359,-0.81756c0.13626,-0.06192 0.31115,0.02122 0.46671,0.01448c0.34102,-0.01476 0.68164,-0.05253 1.02185,-0.07881c0.74522,-0.05757 1.49289,-0.11476 2.23812,-0.17233c0.07024,0.03857 0.12759,0.05619 0.12759,0.05619l0.60644,0.18642c0.13998,0.04124 0.26432,0.1165 0.40685,0.15078c-0.43074,0.20421 -0.83068,1.01791 -1.10348,1.20122c-0.19226,0.12919 -0.46635,0.17861 -0.62856,0.33161c-0.16221,0.15301 -0.17427,0.37644 -0.30315,0.54805c-0.21377,0.28467 -0.5905,0.47793 -0.8064,0.76161c-0.11379,0.14951 -0.13501,0.33448 -0.24637,0.48512c-0.21128,0.28582 -0.58989,0.47793 -0.8058,0.76161c-0.55885,0.73428 -1.08265,1.33669 -1.91342,1.92938c-0.31051,0.29288 -0.94126,0.82376 -0.96401,1.20336c-0.03139,0.52365 0.90221,1.24753 1.34992,1.54802c0.19004,0.12755 0.36965,0.25671 0.5487,0.39014z" data-paper-data="{&quot;noHover&quot;:false,&quot;origItem&quot;:[&quot;Path&quot;,{&quot;applyMatrix&quot;:true,&quot;segments&quot;:[[[443.00711,690.71721],[3.11369,-6.18565],[-2.2584,4.48652]],[[434.82177,703.75356],[2.60664,-4.40676],[0.16107,2.36427]],[[434.71713,710.86786],[-0.4084,-2.35489],[0.29489,1.70038]],[[435.07295,716.01475],[0.5068,-1.66805],[0.66246,-0.00766]],[[437.06015,715.98872],[-0.6622,0.01179],[0,0]],[[437.14603,715.99026],[-0.05569,-0.00154],[5.45612,-0.75779]],[[454.37852,716.04805],[-5.40326,0.66938],[2.14787,-0.26609]],[[460.46649,714.4466],[-2.14367,0.28035],[4.69648,-0.61421]],[[475.09189,713.10498],[-4.58593,1.4915],[4.12686,-1.3422]],[[482.84036,708.60214],[-3.84168,1.73971],[1.1463,-0.51911]],[[486.73408,707.6107],[-1.08151,0.5761],[2.79248,-1.4875]],[[481.70604,701.56821],[1.95157,0.35876],[-7.29763,-1.34152]],[[458.7726,701.39231],[7.70509,-0.70404],[0,0]],[458.77772,701.39905],[[453.99731,702.97091],[0,0],[-0.69482,0.24057]],[[451.67128,703.34763],[0.83979,0],[-2.76142,0]],[[446.67128,700.05949],[0,1.81599],[0,-0.55227]],[[447.24413,698.52983],[-0.36581,0.45693],[0,0]],[[449.63433,695.3861],[0,0],[5.21183,-6.85488]],[[466.63809,675.42537],[-5.13805,6.77932],[0.79786,-1.05273]],[[468.01938,672.01556],[-0.89274,1.01925],[0.98017,-1.11906]],[[472.08213,669.20989],[-1.17395,1.03527],[5.03779,-4.44267]],[[486.85702,655.46676],[-5.86295,4.07605],[0.71521,-0.49723]],[[489.46849,654.34127],[-0.50014,0.60023],[0.26603,-0.31927]],[[488.55479,653.42924],[0.33201,0.29132],[-2.32609,-2.04099]],[[481.51066,647.33898],[2.3175,2.04521],[-7.88843,-10.287]],[[453.50599,618.51294],[9.36575,9.87034],[-1.78576,-1.88197]],[[447.61507,613.10181],[1.95784,1.80644],[-1.78711,-1.64891]],[[443.34724,607.71442],[2.80217,0.83921],[-1.17942,-0.35322]],[[439.49534,608.06155],[1.29479,-0.03632],[-2.83847,0.07962]],[[430.97218,608.06155],[2.84105,0],[-6.22326,0]],[[412.30241,608.06155],[6.22326,0],[-0.55103,0.30239]],[411.29156,608.51514],[[406.42118,610.11659],[0,0],[-1.12691,0.35775]],[[403.07668,611.25284],[1.15365,-0.31126],[3.73508,1.17475]],[[413.19664,618.92113],[-2.40909,-1.11502],[1.69781,0.78581]],[[418.67899,620.86499],[-1.46806,-0.96543],[1.46806,0.96543]],[[421.63486,624.47034],[-1.20673,-1.11101],[2.00171,1.84293]],[[428.94042,629.27468],[-2.01857,-1.83496],[1.06388,0.96711]],[[431.37561,632.47757],[-1.04459,-0.97616],[1.98197,1.85214]],[[438.68117,637.28191],[-2.01857,-1.83496],[5.22497,4.74971]],[[456.16488,649.53206],[-7.36442,-3.63228],[2.81011,1.84801]],[[465.17423,657.32586],[-0.4951,-2.59676],[0.68297,3.58211]],[[455.20681,668.75418],[3.46813,-2.30284],[-1.47217,0.97752]],[[450.93856,671.73959],[1.37628,-1.01203],[-3.76048,6.04374]]],&quot;closed&quot;:true}]}" fill="#ffffff"/></g><g data-paper-data="{&quot;index&quot;:null}"><path d="M220.06399,168.88245c0.65586,-0.05066 0.70329,0.43616 0.70329,0.43616l-0.0789,-0.09381c0.0468,0.05821 0.09171,0.11703 0.13491,0.17641c0.04336,0.02885 0.08664,0.05786 0.12981,0.087c0.17109,0.36677 0.36524,0.72249 0.5693,1.07388c-0.00996,0.01128 -0.01978,0.02264 -0.02944,0.03407c0.26999,0.59722 0.49484,1.20934 0.82454,1.78795c0.21925,0.38476 0.48849,0.75581 0.75171,1.12946c0.01544,0.00251 0.03094,0.00492 0.04648,0.00722c0.06675,0.12036 0.14258,0.24053 0.2327,0.36056c0.10888,0.14503 0.22926,0.26947 0.35406,0.38437c-0.0062,0.06825 -0.01154,0.13661 -0.01566,0.20504c0.06183,0.11281 0.11921,0.22698 0.17079,0.34292c0.16039,0.36059 0.22418,0.74439 0.28689,1.12346c0.04698,0.28403 0.33763,0.58141 0.17948,0.84719c-0.38249,0.64275 -1.2827,0.60336 -1.9769,0.6666c0,0 -0.06643,0.00513 -0.15852,-0.00356c-0.77636,0.15611 -1.59541,0.22991 -2.36207,0.18942c-0.28594,-0.0151 -0.53651,-0.15515 -0.82167,-0.17542c-1.20819,-0.08586 -2.0057,0.08479 -3.08932,-0.46967c-0.16796,-0.08594 -0.2899,-0.21706 -0.46491,-0.29506c-0.25012,-0.11147 -0.60944,-0.10369 -0.79887,-0.26817c-0.6038,-0.5243 -0.42708,-1.57999 0.16545,-2.09985c0.79131,-0.69427 2.56968,-0.77242 3.66376,-0.78334c0.08107,-0.00081 0.16389,-0.00438 0.24728,-0.00825c-1.02443,-1.23234 -2.09653,-2.42152 -3.28709,-3.5333c-0.46772,-0.43677 -1.00556,-0.86334 -1.52262,-1.26802c-0.21712,-0.16993 -0.57546,-0.27147 -0.6688,-0.49711c-0.28681,-0.69335 0.56192,-1.3686 1.01596,-1.90061c0.87022,-1.6071 2.1702,-2.99875 3.25761,-4.55164c0.22219,-0.31731 0.49299,-0.6152 0.74077,-0.92226c0.37128,-0.46009 0.15808,-0.80923 0.93023,-1.17932c0.31177,-0.14944 0.72319,-0.09911 1.08687,-0.13574c1.37703,-0.13872 2.77167,-0.21411 4.15256,-0.32078c0,0 0.53356,-0.04122 0.67298,0.30792l0.13912,0.03946c0.54839,0.1605 1.49253,0.33901 1.58072,0.91382c0.04371,0.28491 -0.38267,0.51008 -0.60305,0.75175c-0.39374,0.43179 -0.86679,1.0093 -1.39726,1.35345c-0.15668,0.10165 -0.4065,0.11126 -0.54042,0.22956c-0.13392,0.1183 -0.10409,0.30155 -0.21074,0.43402c-0.23599,0.29314 -0.65572,0.49103 -0.88898,0.78534c-0.98193,1.23889 -1.98944,2.46648 -3.46735,3.45715c-0.21912,0.19357 -0.66851,0.31332 -0.68551,0.56257c-0.00649,0.09506 0.19862,0.11804 0.27357,0.19324c0.21958,0.22031 0.43207,0.45171 0.71103,0.63033c0.01501,-0.00171 0.03042,-0.00319 0.04624,-0.00441zM221.10758,172.79594c-0.49765,-0.88428 -0.73368,-1.87267 -1.31412,-2.72938c-0.19513,-0.13589 -0.39573,-0.26895 -0.60294,-0.39876c-0.48814,-0.30581 -1.51021,-1.05376 -1.4723,-1.59103c0.02749,-0.38948 0.7274,-0.94312 1.06935,-1.24521c0.91361,-0.6124 1.49981,-1.2347 2.11666,-1.99087c0.23831,-0.29213 0.65572,-0.49103 0.88898,-0.78534c0.12294,-0.15512 0.14763,-0.34492 0.27323,-0.49888c0.23831,-0.29213 0.653,-0.4922 0.88898,-0.78534c0.14226,-0.17672 0.15708,-0.40593 0.33572,-0.56374c0.17864,-0.15781 0.47972,-0.20981 0.69109,-0.34335c0.29992,-0.18949 0.74385,-1.0261 1.21684,-1.23788c-0.15582,-0.0344 -0.30211,-0.09279 -0.45509,-0.13434l-0.66195,-0.18775c0,0 -0.0625,-0.01773 -0.13914,-0.05692c-0.81632,0.06306 -1.63263,0.12612 -2.44894,0.18918c-0.37266,0.02878 -0.74452,0.06939 -1.118,0.08636c-0.17036,0.00774 -0.36066,-0.07661 -0.51027,-0.01236c-0.35546,0.15264 -0.27148,0.57864 -0.48211,0.84088c-0.23076,0.28729 -0.48757,0.56411 -0.69467,0.86084c-1.08614,1.55627 -2.37126,2.94865 -3.25761,4.55164c-0.27449,0.32628 -0.56046,0.64732 -0.83615,0.97308c-0.03935,0.0465 -0.1462,0.09972 -0.1067,0.14429c0.07426,0.0838 0.2578,0.07381 0.35878,0.14018c0.82785,0.54407 1.41139,1.27832 2.13628,1.88504c0.16892,0.14139 0.42868,0.21848 0.57339,0.37423c0.1318,0.14186 0.11053,0.34307 0.23037,0.49084c0.77175,0.95165 1.73581,1.82091 2.51834,2.78301l0.35888,0.44122c0.05457,0.06395 0.08924,0.1389 0.0972,0.22067c0.02619,0.26887 -0.24621,0.50951 -0.60843,0.53749c-0.11016,0.00851 -0.21593,-0.00363 -0.31054,-0.03221l-0.64973,-0.18428l0.00058,-0.00105c-1.02085,-0.02616 -2.06778,-0.01414 -3.00568,0.25843c-0.25081,0.07289 -0.96013,0.75363 -0.57237,0.94557c0.15017,0.07433 0.36719,0.04209 0.52505,0.10733c0.52902,0.21865 0.52064,0.43125 1.08133,0.58816c0.62306,0.17436 1.31288,0.00709 1.93779,0.05044c0.28523,0.01978 0.53609,0.15778 0.82167,0.17542c0.71841,0.04436 1.53296,-0.24008 2.25958,-0.18317c0.00728,-0.00079 0.01124,-0.0011 0.01124,-0.0011c0.08703,-0.00496 0.17404,-0.0107 0.26104,-0.01628c-0.09054,-0.24183 -0.04172,-0.51089 -0.02757,-0.76563c0.0196,-0.35279 -0.10337,-0.70058 -0.11635,-1.05225c-0.40548,-0.62603 -0.90078,-1.20579 -1.26173,-1.84717z" fill="#9966ff"/><path d="M219.79644,170.05697c0.58045,0.85671 0.81156,1.84507 1.30921,2.72934c0.36096,0.64137 0.85491,1.22137 1.2604,1.8474c0.01297,0.35168 0.14217,0.71833 0.12256,1.07112c-0.01415,0.25474 -0.06321,0.52385 0.02732,0.76567c-0.08701,0.00558 -0.17431,0.01138 -0.26135,0.01634c0,0 -0.00397,0.00031 -0.01126,0.0011c-0.72662,-0.05691 -1.54391,0.22775 -2.26231,0.18339c-0.28558,-0.01763 -0.53746,-0.15565 -0.82269,-0.17544c-0.62491,-0.04335 -1.31703,0.12364 -1.94009,-0.05072c-0.56069,-0.15691 -0.55381,-0.36987 -1.08283,-0.58852c-0.15785,-0.06524 -0.37549,-0.03319 -0.52567,-0.10753c-0.38775,-0.19194 0.33316,-0.89052 0.58398,-0.96341c0.93789,-0.27257 1.98075,-0.28542 3.00159,-0.25926l-0.00058,0.00105l0.64865,0.18423c0.09461,0.02858 0.1999,0.04072 0.31005,0.03221c0.36222,-0.02798 0.63359,-0.26858 0.60739,-0.53745c-0.00797,-0.08177 -0.04104,-0.13723 -0.09562,-0.20118l-0.35951,-0.4412c-0.78252,-0.96209 -1.75523,-1.8335 -2.52698,-2.78516c-0.11984,-0.14778 -0.10017,-0.35017 -0.23198,-0.49203c-0.14472,-0.15575 -0.40598,-0.23452 -0.5749,-0.3759c-0.7249,-0.60671 -1.30974,-1.34705 -2.13758,-1.89112c-0.10099,-0.06637 -0.28447,-0.0566 -0.35874,-0.1404c-0.0395,-0.04457 0.06744,-0.09814 0.1068,-0.14463c0.27567,-0.32575 0.56287,-0.64925 0.83736,-0.97553c0.88635,-1.60299 2.18071,-3.00061 3.26685,-4.55687c0.20709,-0.29673 0.4651,-0.57369 0.69585,-0.86099c0.21063,-0.26224 0.12735,-0.68829 0.48281,-0.84093c0.14961,-0.06425 0.34052,0.02008 0.51089,0.01234c0.37348,-0.01697 0.74667,-0.05755 1.11934,-0.08633c0.81632,-0.06306 1.63531,-0.12575 2.45162,-0.1888c0.07664,0.03919 0.13931,0.05695 0.13931,0.05695l0.66271,0.18795c0.15298,0.04155 0.28861,0.11808 0.44443,0.15247c-0.47299,0.21178 -0.91641,1.04854 -1.21633,1.23804c-0.21137,0.13355 -0.51181,0.18571 -0.69045,0.34352c-0.17864,0.15781 -0.19336,0.38705 -0.33562,0.56377c-0.23599,0.29314 -0.64976,0.4934 -0.88807,0.78553c-0.1256,0.15396 -0.1501,0.3438 -0.27304,0.49891c-0.23326,0.2943 -0.6491,0.49339 -0.88742,0.78553c-0.61686,0.75617 -1.19444,1.37688 -2.10805,1.98928c-0.34195,0.30208 -1.03616,0.85 -1.06365,1.23949c-0.03791,0.53727 0.97934,1.27475 1.46748,1.58055c0.20721,0.12981 0.40298,0.26132 0.59811,0.39721z" data-paper-data="{&quot;noHover&quot;:false,&quot;origItem&quot;:[&quot;Path&quot;,{&quot;applyMatrix&quot;:true,&quot;segments&quot;:[[[443.00711,690.71721],[3.11369,-6.18565],[-2.2584,4.48652]],[[434.82177,703.75356],[2.60664,-4.40676],[0.16107,2.36427]],[[434.71713,710.86786],[-0.4084,-2.35489],[0.29489,1.70038]],[[435.07295,716.01475],[0.5068,-1.66805],[0.66246,-0.00766]],[[437.06015,715.98872],[-0.6622,0.01179],[0,0]],[[437.14603,715.99026],[-0.05569,-0.00154],[5.45612,-0.75779]],[[454.37852,716.04805],[-5.40326,0.66938],[2.14787,-0.26609]],[[460.46649,714.4466],[-2.14367,0.28035],[4.69648,-0.61421]],[[475.09189,713.10498],[-4.58593,1.4915],[4.12686,-1.3422]],[[482.84036,708.60214],[-3.84168,1.73971],[1.1463,-0.51911]],[[486.73408,707.6107],[-1.08151,0.5761],[2.79248,-1.4875]],[[481.70604,701.56821],[1.95157,0.35876],[-7.29763,-1.34152]],[[458.7726,701.39231],[7.70509,-0.70404],[0,0]],[458.77772,701.39905],[[453.99731,702.97091],[0,0],[-0.69482,0.24057]],[[451.67128,703.34763],[0.83979,0],[-2.76142,0]],[[446.67128,700.05949],[0,1.81599],[0,-0.55227]],[[447.24413,698.52983],[-0.36581,0.45693],[0,0]],[[449.63433,695.3861],[0,0],[5.21183,-6.85488]],[[466.63809,675.42537],[-5.13805,6.77932],[0.79786,-1.05273]],[[468.01938,672.01556],[-0.89274,1.01925],[0.98017,-1.11906]],[[472.08213,669.20989],[-1.17395,1.03527],[5.03779,-4.44267]],[[486.85702,655.46676],[-5.86295,4.07605],[0.71521,-0.49723]],[[489.46849,654.34127],[-0.50014,0.60023],[0.26603,-0.31927]],[[488.55479,653.42924],[0.33201,0.29132],[-2.32609,-2.04099]],[[481.51066,647.33898],[2.3175,2.04521],[-7.88843,-10.287]],[[453.50599,618.51294],[9.36575,9.87034],[-1.78576,-1.88197]],[[447.61507,613.10181],[1.95784,1.80644],[-1.78711,-1.64891]],[[443.34724,607.71442],[2.80217,0.83921],[-1.17942,-0.35322]],[[439.49534,608.06155],[1.29479,-0.03632],[-2.83847,0.07962]],[[430.97218,608.06155],[2.84105,0],[-6.22326,0]],[[412.30241,608.06155],[6.22326,0],[-0.55103,0.30239]],[411.29156,608.51514],[[406.42118,610.11659],[0,0],[-1.12691,0.35775]],[[403.07668,611.25284],[1.15365,-0.31126],[3.73508,1.17475]],[[413.19664,618.92113],[-2.40909,-1.11502],[1.69781,0.78581]],[[418.67899,620.86499],[-1.46806,-0.96543],[1.46806,0.96543]],[[421.63486,624.47034],[-1.20673,-1.11101],[2.00171,1.84293]],[[428.94042,629.27468],[-2.01857,-1.83496],[1.06388,0.96711]],[[431.37561,632.47757],[-1.04459,-0.97616],[1.98197,1.85214]],[[438.68117,637.28191],[-2.01857,-1.83496],[5.22497,4.74971]],[[456.16488,649.53206],[-7.36442,-3.63228],[2.81011,1.84801]],[[465.17423,657.32586],[-0.4951,-2.59676],[0.68297,3.58211]],[[455.20681,668.75418],[3.46813,-2.30284],[-1.47217,0.97752]],[[450.93856,671.73959],[1.37628,-1.01203],[-3.76048,6.04374]]],&quot;closed&quot;:true}]}" fill="#ffffff"/></g><g data-paper-data="{&quot;index&quot;:null}"><g><path d="M227.23182,158.6167c0.29733,0.12915 0.3292,0.45629 0.3292,0.45629l-0.00098,0.00211c0.03186,0.04714 0.06554,0.09636 0.10189,0.14791c0,0 0.32584,0.47304 -0.2054,0.76318c-0.19773,0.10799 -0.367,0.11025 -0.50161,0.07054c0.04754,0.06703 0.10507,0.13441 0.10818,0.20792c0.02496,0.58803 -0.2731,0.97332 -0.54094,1.49337c-0.21072,0.07622 -0.38956,0.14917 -0.55777,0.21179c0.30748,0.01915 0.61521,0.01306 0.94742,-0.0126c0.32412,-0.02504 0.76474,0.13592 0.97098,-0.08813c0.10088,-0.10959 0.05568,-0.28252 0.12397,-0.4105c0.28978,-0.54308 0.60082,-1.0297 0.85643,-1.59429c0.08021,-0.41337 0.34338,-0.78129 0.51708,-1.17122c0.0822,-0.18452 0.02248,-0.40622 0.11566,-0.58656c0.08971,-0.17362 0.31999,-0.26723 0.41423,-0.43893c0.2834,-0.51631 0.24295,-1.48158 0.34633,-2.0577c0.22462,-1.25178 0.34375,-2.47358 0.07896,-3.7366c-0.09489,-0.45264 -0.41622,-0.74217 -0.67062,-1.1445c-0.63485,-1.00403 -1.46671,-1.96779 -2.33845,-2.83312c-0.31778,-0.31616 -0.58386,-0.67923 -0.94865,-0.9522c-0.8129,-0.60827 -1.78172,-0.87017 -2.76382,-1.11062c-0.25225,0.0497 -0.48402,-0.07882 -0.48402,-0.07882c-0.04263,-0.02383 -0.0859,-0.04768 -0.12975,-0.07149c-0.11779,-0.02947 -0.23534,-0.05962 -0.35241,-0.09098l-0.06795,0.04509c0,0 -0.59798,0.04619 -0.67114,-0.47465c-0.37651,-0.15368 -0.76318,-0.28288 -1.13702,-0.36532c-0.45198,-0.09967 -0.93141,0.00825 -1.3969,-0.00176c-0.45734,-0.00983 -1.15978,-0.23954 -1.59034,0.05472c-0.19815,0.13542 -0.3809,0.27722 -0.5473,0.42522c0.05742,0.05308 0.08785,0.09724 0.08785,0.09724c1.04409,1.53284 1.39075,3.46809 1.26631,5.28132c0.37287,0.20569 0.67312,0.51339 1.06504,0.68909c0.98882,0.44328 2.32393,1.01341 2.98707,1.86764c0.15562,0.20047 0.54288,1.39275 0.48015,1.55524c-0.10591,0.27434 -0.52123,0.35009 -0.75838,0.549c-0.75364,0.6321 -1.75609,1.62837 -2.12681,2.4829c-0.20702,1.13931 0.46011,2.02925 1.43844,2.69262c-0.35246,-0.42866 -0.6011,-0.90744 -0.69337,-1.39647c-0.0562,-0.2979 -0.15778,-0.61568 -0.05908,-0.90468c0.68164,-1.9959 3.37075,-0.73457 4.78163,-0.29443c0.28839,0.08996 0.60493,0.11761 0.87381,0.24689c0.31955,0.15366 0.50273,0.30142 0.6521,0.47549zM223.88229,158.50888c-0.4324,-0.13299 -1.1337,-0.44915 -1.62501,-0.29132c-0.49113,0.15777 0.25813,1.43911 0.41009,1.61885c0.69753,0.82507 1.88059,1.27144 2.99378,1.11915c0.09014,-0.34888 0.09357,-1.54635 0.19106,-1.68642c0.02362,-0.03394 0.0516,-0.0636 0.08309,-0.08984c-0.57975,-0.34284 -1.31106,-0.44223 -2.053,-0.67042zM215.34012,152.37668c-0.57941,-0.20434 -0.34992,-0.72028 -0.34992,-0.72028l0.0835,-0.02863c-0.05944,-0.65243 -0.13767,-0.78801 0.05302,-1.41814c0.05235,-0.173 0.20622,-0.31797 0.23428,-0.49539c0.00515,-0.03256 0.0095,-0.0656 0.01313,-0.09907c-0.05962,-0.07862 -0.11855,-0.16027 -0.17689,-0.24526c-0.51079,-1.32663 -0.56177,-2.82642 0.29219,-4.06824c0.26159,-0.3804 0.73947,-0.6022 1.12122,-0.89101c0.38879,-0.29414 0.785,-0.64524 1.2833,-0.74267c0.49673,-0.09713 1.01715,0.00687 1.52558,0.01779c0.55105,0.01184 1.11646,-0.07784 1.6532,0.03391c0.81867,0.17046 1.69009,0.55026 2.43283,0.93994c1.30055,0.33287 2.5903,0.62322 3.67405,1.43416c0.04403,0.03295 1.00434,0.99089 1.07554,1.06172c0.93117,0.9284 1.81656,1.95636 2.49833,3.03282c0.4045,0.63866 0.64075,0.77188 0.80126,1.45466c0.32444,1.38007 0.17873,2.77011 -0.06744,4.14201c-0.12659,0.70548 -0.12044,1.69255 -0.44348,2.34389c-0.0867,0.17482 -0.32396,0.26554 -0.41423,0.43893c-0.08171,0.15695 -0.01034,0.35297 -0.08179,0.51384c-0.15954,0.35923 -0.42063,0.69395 -0.48261,1.07629c-0.28233,0.64411 -0.58025,1.19545 -0.94548,1.80034c-0.13967,0.23131 -0.15852,0.53574 -0.37587,0.71326c-0.72052,0.58848 -2.37717,0.47932 -3.25032,0.35697c-0.98872,-0.13854 -1.86825,-0.44967 -2.79326,-0.7759c-0.1486,-0.05241 -1.31527,-0.45947 -1.389,-0.50583c-0.86297,-0.54268 -1.98613,-1.78379 -2.29895,-2.6993c-0.20815,-0.60917 -0.0796,-0.96175 0.02404,-1.54387c0.37899,-0.8395 0.969,-1.40274 1.6165,-2.08884c0.06442,-0.06826 0.86269,-0.91734 0.89884,-0.9413c0.10948,-0.07255 0.31979,0.0162 0.39869,-0.08296c0.05255,-0.06605 -0.16319,-0.08754 -0.20635,-0.15878c-0.07279,-0.12014 -0.04066,-0.28121 -0.12814,-0.39333c-0.25851,-0.33135 -0.96146,-0.7333 -1.33115,-0.9716c-0.35962,-0.23181 -0.79522,-0.3518 -1.18962,-0.53329c-0.2209,-0.10165 -0.4168,-0.23926 -0.6118,-0.37848l0.01444,0.08645c0,0 0.05386,0.55286 -0.56701,0.60081c-0.62087,0.04796 -0.67474,-0.50489 -0.67474,-0.50489l-0.03387,-0.53941c0.02126,-0.1185 0.04046,-0.23861 0.05746,-0.36005c-0.31933,-0.1855 -0.61112,-0.37528 -0.88259,-0.58647c-0.07281,0.24071 -0.1238,0.47866 -0.08155,0.88036l-0.16642,0.53325c0,0 -0.22949,0.51593 -0.8089,0.31159zM216.33617,147.05402c0.06638,0.68131 0.26195,1.49005 0.28554,2.22449c0.23168,0.26452 0.47957,0.47711 0.7502,0.66697c0.00354,-1.28732 -0.26169,-2.61694 -0.92728,-3.71343c-0.09573,0.16895 -0.17385,0.34355 -0.23348,0.52365c0.10959,0.13988 0.12503,0.29831 0.12503,0.29831z" fill="#9966ff"/><path d="M216.33167,147.04366c0,0 -0.01541,-0.15844 -0.125,-0.29833c0.05962,-0.18009 0.14019,-0.35529 0.23592,-0.52423c0.6656,1.09649 0.93621,2.44775 0.93267,3.73507c-0.27062,-0.18987 -0.52345,-0.40213 -0.75513,-0.66665c-0.02359,-0.73446 -0.22209,-1.56454 -0.28847,-2.24586z" data-paper-data="{&quot;noHover&quot;:false,&quot;origItem&quot;:[&quot;Path&quot;,{&quot;applyMatrix&quot;:true,&quot;segments&quot;:[[[229.42361,238.13379],[0,3.08092],[0,0]],[[229.80713,236.75155],[-0.38352,0.66581],[-0.30843,-0.78763]],[[228.67013,234.48225],[0.44835,0.72509],[-2.23314,5.15208]],[[226.41012,251.47048],[-0.51539,-5.77655],[1.00762,-0.94598]],[[229.1486,248.21684],[-0.82294,1.26755],[-0.1917,-3.30457]]],&quot;closed&quot;:true}]}" fill="#ffffff"/><path d="M223.88021,158.49793c0.74195,0.22819 1.48746,0.33598 2.06721,0.67882c-0.03148,0.02624 -0.05936,0.05639 -0.08297,0.09032c-0.09749,0.14007 -0.1043,1.3474 -0.19443,1.69629c-1.1132,0.15229 -2.31732,-0.29957 -3.01484,-1.12464c-0.15196,-0.17974 -0.89861,-1.47048 -0.40749,-1.62825c0.49131,-0.15784 1.20013,0.15449 1.63252,0.28747z" data-paper-data="{&quot;noHover&quot;:false,&quot;origItem&quot;:[&quot;Path&quot;,{&quot;applyMatrix&quot;:true,&quot;segments&quot;:[[[195.78166,295.88295],[2.18352,-1.73976],[0.13606,0.10686]],[[196.14871,296.25737],[-0.1076,-0.14412],[0.44415,0.59487]],[[197.56891,303.76015],[-0.49609,-1.53462],[4.50823,0.29752]],[[209.09788,297.69916],[-2.46644,3.94494],[0.53733,-0.85942]],[[210.10648,290.29121],[2.02423,0.53783],[-2.025,-0.53804]],[[203.72549,292.16214],[1.67631,-0.74678],[-2.87635,1.28139]]],&quot;closed&quot;:true}]}" fill="#ffffff"/><path d="M227.55541,159.06309c0,0 -0.02076,-0.30727 -0.31809,-0.43642c-0.14936,-0.17406 -0.33321,-0.32156 -0.65276,-0.47522c-0.26888,-0.12929 -0.58693,-0.15646 -0.87533,-0.24643c-1.41088,-0.44013 -4.10973,-1.70265 -4.79137,0.29325c-0.0987,0.289 0.01487,0.58734 0.07107,0.88523c0.09227,0.48903 0.33157,0.98832 0.68403,1.41698c-0.97833,-0.66337 -1.64939,-1.55517 -1.44237,-2.69447c0.37072,-0.85453 1.38875,-1.86812 2.14239,-2.50022c0.23716,-0.19891 0.6377,-0.25681 0.74361,-0.53115c0.06273,-0.16249 -0.33008,-1.36426 -0.48571,-1.56474c-0.66315,-0.85423 -1.9971,-1.42878 -2.98592,-1.87205c-0.39192,-0.17569 -0.69195,-0.4838 -1.06482,-0.68949c0.12444,-1.81323 -0.21883,-3.75214 -1.26292,-5.28499c0,0 -0.03043,-0.04417 -0.08785,-0.09724c0.16641,-0.148 0.3498,-0.29021 0.54794,-0.42564c0.43057,-0.29427 1.13435,-0.06527 1.59169,-0.05545c0.4655,0.01 0.94633,-0.09846 1.39831,0.00121c0.37384,0.08244 0.76168,0.21132 1.13819,0.365c0.07317,0.52084 0.67187,0.4745 0.67187,0.4745l0.06805,-0.04511c0.11706,0.03137 0.23508,0.06144 0.35287,0.09092c0.04385,0.02382 0.08728,0.04764 0.12992,0.07147c0,0 0.23246,0.12845 0.48472,0.07875c0.98211,0.24045 1.95547,0.50278 2.76837,1.11105c0.3648,0.27297 0.63297,0.63679 0.95074,0.95295c0.87174,0.86534 1.70898,1.83384 2.34383,2.83787c0.2544,0.40234 0.57676,0.69428 0.67166,1.14691c0.26479,1.26302 0.14497,2.49204 -0.07965,3.74382c-0.10338,0.57612 -0.06496,1.54422 -0.34837,2.06053c-0.09424,0.1717 -0.32526,0.266 -0.41497,0.43961c-0.09319,0.18034 -0.0341,0.40254 -0.11629,0.58706c-0.1737,0.38994 -0.43831,0.75878 -0.51852,1.17215c-0.2556,0.56458 -0.56852,1.05206 -0.85829,1.59514c-0.06828,0.12798 -0.02342,0.30102 -0.12429,0.41061c-0.20624,0.22404 -0.64797,0.06341 -0.97208,0.08845c-0.3322,0.02566 -0.64106,0.03199 -0.94854,0.01283c0.16821,-0.06262 0.34205,-0.1573 0.55278,-0.23353c0.26783,-0.52005 0.56459,-0.905 0.53963,-1.49303c-0.00312,-0.07351 -0.06061,-0.1409 -0.10815,-0.20793c0.13461,0.03972 0.30318,0.03769 0.5009,-0.07029c0.53124,-0.29014 0.20461,-0.76285 0.20461,-0.76285c-0.03635,-0.05157 -0.05879,-0.08097 -0.09065,-0.12811l-0.01023,-0.02193z" data-paper-data="{&quot;noHover&quot;:false,&quot;origItem&quot;:[&quot;Path&quot;,{&quot;applyMatrix&quot;:true,&quot;segments&quot;:[[[190.38099,293.80742],[-1.13798,0.68273],[0.52916,-0.83304]],[[192.80197,291.44721],[-1.21727,0.80044],[1.02425,-0.67352]],[[196.19804,290.03612],[-1.11755,0.50378],[5.46726,-2.4646]],[[215.42261,289.69976],[-3.50135,-8.72173],[0.50699,1.26288]],[[215.53874,293.78066],[0.10863,-1.35651],[-0.17833,2.22686]],[[213.31142,300.28874],[1.2417,-2.04611],[3.65162,-3.31658]],[[218.01175,287.70492],[1.27098,5.04171],[-1.81432,-3.70677]],[[208.54514,277.29851],[3.25808,2.57572],[-1.02525,-0.81052]],[[205.30045,275.09746],[0.53011,1.1946],[-0.31398,-0.70756]],[[206.61382,267.95069],[-0.54391,0.95371],[2.31767,-4.06389]],[[217.82454,258.53265],[-3.77924,2.33236],[1.49792,-0.92444]],[[221.81269,255.0706],[-1.4101,1.05246],[-1.20333,-8.09506]],[[224.81717,230.92779],[-3.57588,7.24175],[0,0]],[[225.13039,230.46087],[-0.20881,0.2581],[-0.72267,-0.60656]],[[222.7775,228.74215],[0.84463,0.53911],[-1.83533,-1.17146]],[[216.40035,229.04792],[1.82394,-0.20266],[-1.85649,0.20628]],[[210.81826,229.54013],[1.76754,-0.60407],[-1.46196,0.49963]],[[206.41638,231.57401],[1.44491,-0.8203],[-0.08961,2.36301]],[203.91895,233.93703],[[203.62983,233.75822],[0,0],[-0.45565,0.18138]],[[202.25687,234.28877],[0.45926,-0.17313],[-0.16597,0.12209]],[[201.76617,234.65462],[0.1611,-0.12173],[0,0]],[[199.86246,235.17619],[1.02748,0.1356],[-3.8314,1.41973]],[[189.2492,241.11915],[3.01191,-3.01191],[-1.35163,1.35163]],[[185.82865,245.72176],[1.14689,-1.52919],[-3.14701,4.18607]],[[177.58609,259.24823],[2.14627,-4.72643],[-0.86006,1.89398]],[[175.35157,264.61752],[0.20301,-2.06444],[-0.56647,5.76048]],[[177.12205,281.36084],[-1.3851,-5.5404],[0.63748,2.54991]],[[179.30738,290.47618],[-1.33366,-2.21907],[0.44351,0.73795]],[[181.13377,292.30257],[-0.42613,-0.74812],[0.44263,0.77709]],[[181.82441,294.89508],[-0.40035,-0.79969],[0.84602,1.6899]],[[184.34697,299.97252],[-0.48149,-1.82748],[1.24137,2.44537]],[[188.39046,306.83112],[-1.36958,-2.33698],[0.32275,0.55073]],[[189.04575,308.63053],[-0.44581,-0.45687],[0.91147,0.93408]],[[192.9606,308.68943],[-1.3051,0],[1.33766,0]],[[196.75189,308.41752],[-1.22139,0.19258],[-0.69664,-0.22271]],[[194.44027,307.66036],[0.87184,0.26904],[-1.27289,-2.24123]],[[191.69693,301.14534],[0.1292,2.64786],[-0.01615,-0.33102]],[[192.04832,300.17464],[-0.1639,0.31733],[-0.5225,0.22494]],[[190.01618,300.03196],[0.83227,0.41613],[-2.23607,-1.11803]],[[188.89814,296.67786],[0,0],[0.12519,-0.24404]],[[189.24776,295.97865],[-0.10898,0.2226],[0,0]],[189.24301,295.9695]],&quot;closed&quot;:true}]}" fill="#ffffff"/></g><path d="M224.33269,145.90943c0.64352,0.14449 1.46801,0.21812 1.63667,-0.39124c0,0 0.03286,-0.07386 0.10509,-0.15462c-0.4097,-0.95136 -1.37473,-1.50681 -2.42469,-2.09126c-0.70149,-0.39047 -1.5015,-0.78729 -2.35337,-0.79465c-0.898,-0.00777 -1.88471,0.32591 -2.66035,0.70191c-0.13922,0.06748 -0.32403,0.11779 -0.46989,0.19195c0.04884,-0.00378 0.07941,-0.00613 0.07941,-0.00613l0.00112,0.01143c0.02494,-0.00476 0.04998,-0.00915 0.07515,-0.01314c0.4072,-0.0646 1.10232,0.22465 1.45598,0.34909c0.90404,0.31808 1.64812,0.84501 2.55026,1.15943l-0.13216,-0.0486c0,0 0.62087,-0.04796 0.67474,0.50489c0.00229,0.02348 0.00336,0.04605 0.00331,0.06774c0.47774,0.18773 0.9107,0.3902 1.45874,0.51325zM217.50327,144.6714c-0.01429,0.00175 -0.02897,0.00321 -0.04404,0.00437c-0.62087,0.04796 -0.67474,-0.50489 -0.67474,-0.50489c-0.01298,-0.29612 -0.13953,-0.60588 -0.03894,-0.88837c0.1858,-0.52178 0.79877,-0.8312 1.28352,-1.07234c0.95266,-0.47391 2.17708,-0.85761 3.28246,-0.84231c1.09607,0.01517 2.08803,0.46004 2.99707,0.96232c1.67043,0.92297 3.01156,1.88212 3.20276,3.72492l0.03935,0.40389c0,0 0.05386,0.55286 -0.56701,0.60081c-0.27287,0.02108 -0.43621,-0.07389 -0.5336,-0.18698c-0.89858,0.47455 -2.19663,0.10452 -3.06387,-0.11229c-0.21859,-0.05465 -0.45989,-0.02929 -0.6712,-0.10326c-0.2354,-0.0824 -0.41009,-0.27174 -0.64412,-0.35717c-0.36892,-0.13466 -0.7984,-0.06516 -1.18248,-0.16047c-1.09969,-0.27292 -2.37941,-0.72986 -3.253,-1.36933z" fill="#9966ff"/><path d="M224.34241,145.91637c-0.54804,-0.12305 -0.98408,-0.32308 -1.46182,-0.51081c0.00005,-0.02169 -0.00073,-0.04443 -0.00302,-0.0679c-0.05386,-0.55286 -0.67991,-0.50313 -0.67991,-0.50313l0.13445,0.0481c-0.90214,-0.31441 -1.66225,-0.85497 -2.56628,-1.17304c-0.35367,-0.12444 -1.02484,-0.40752 -1.43204,-0.34293c-0.02516,0.00399 -0.05018,0.00829 -0.07512,0.01305l-0.00113,-0.0114c0,0 -0.05461,-0.00351 -0.10345,0.00026c0.14586,-0.07415 0.33101,-0.1254 0.47023,-0.19289c0.77563,-0.376 1.76946,-0.71615 2.66746,-0.70839c0.85187,0.00737 1.66634,0.40774 2.36783,0.79821c1.04996,0.58445 2.01707,1.14981 2.42677,2.10118c-0.07223,0.08077 -0.10527,0.15514 -0.10527,0.15514c-0.16866,0.60937 -0.9952,0.53904 -1.63873,0.39455z" data-paper-data="{&quot;noHover&quot;:false,&quot;origItem&quot;:[&quot;Path&quot;,{&quot;applyMatrix&quot;:true,&quot;segments&quot;:[[[202.64968,232.95977],[-1.83618,1.00821],[-0.00863,-0.09734]],[[202.63654,232.65462],[0,0.10616],[0,-2.5]],[205.13654,230.15462],[[204.6273,230.41855],[0,0],[3.48302,-1.72394]],[[214.36806,224.33058],[-3.48915,1.74103],[1.36499,-0.68111]],[[220.05101,222.25899],[-1.65251,-0.14875],[0.10214,0.00919]],[[220.35647,222.29193],[-0.10151,-0.01272],[0,0]],[220.35647,222.24026],[[220.67621,222.24026],[-0.19666,0],[-0.6118,-0.28223]],[[218.72353,221.54169],[0.58266,0.25463],[-3.24624,-1.41863]],[[207.81807,219.31373],[3.58586,-0.34619],[-3.40165,0.32841]],[[198.72218,223.69627],[2.65148,-1.99575],[-3.96864,2.98718]],[[189.84611,233.92301],[1.26696,-4.41198],[0.32012,0.33743]],[[190.32629,234.58057],[0,0],[0.91132,2.67651]],[[197.01964,235.76911],[-2.5156,0.87161],[2.14232,-0.74228]]],&quot;closed&quot;:true}]}" fill="#ffffff"/></g><g data-paper-data="{&quot;index&quot;:null}"><path d="M233.04719,159.20648c0.42818,0.13272 0.6961,0.14114 1.04195,0.01547c-0.1539,-0.14984 -0.15745,-0.3436 -0.15745,-0.3436c0.00336,-0.79777 -0.13422,-0.84902 -1.02756,-1.19358c-0.28495,-0.1099 -0.56604,-0.36546 -0.85967,-0.31956c-0.28846,0.04509 -0.23389,0.43419 -0.38608,0.63342c-0.05885,0.07703 -0.26609,0.06608 -0.26836,0.16035c-0.00228,0.09465 0.17782,0.13587 0.25946,0.20947c0.43111,0.38867 0.78754,0.6489 1.39771,0.83803zM235.0753,158.22819c0.02895,0.10353 0.03596,0.20774 0.03528,0.3122c0.14953,0.13809 0.17093,0.31685 0.17093,0.31685l0.02654,0.73517c-0.64636,0.48 -0.69462,0.70877 -1.66743,0.69197c-1.19621,-0.02066 -3.34344,-1.10746 -3.41918,-2.2348c-0.01546,-0.23006 0.28402,-0.37551 0.40448,-0.5738c0.08516,-0.14018 0.1414,-0.2711 0.19754,-0.39076c-0.04824,-0.00736 -0.09566,-0.0155 -0.14214,-0.02439c-0.26077,-0.04991 -0.54653,-0.04678 -0.7795,-0.16426c-0.75842,-0.38245 -1.01304,-1.06457 -1.3216,-1.64976c-0.26943,-0.51098 -0.7349,-0.99354 -1.00426,-1.50522c-0.15243,-0.28954 -0.38657,-0.9385 -0.539,-1.22803c-0.35815,-1.04943 -0.8739,-2.01928 -1.08467,-3.0985c-0.04611,-0.23611 0.07519,-0.63207 -0.2077,-0.70194c-0.33169,-0.08193 -0.6468,0.12091 -0.97763,0.15718c-0.70808,0.07763 -1.44687,0.1127 -2.15694,0.17235c-1.01671,0.0854 -2.07801,0.02502 -3.12581,-0.04783l-0.27719,0.12392c-0.91467,-0.00932 -1.74456,-0.2232 -2.46942,-0.7994c-0.25808,-0.20515 -0.58692,-0.42926 -0.63661,-0.71086c-0.05795,-0.32842 0.194,-0.62418 0.34975,-0.91466c0.44066,-0.82184 1.27212,-1.53735 2.28875,-1.89425c-0.01118,-0.05038 -0.01353,-0.10679 -0.00405,-0.16989c0.07029,-0.46772 0.6505,-0.36763 0.6505,-0.36763c1.35447,0.24111 2.53219,-0.03544 3.82633,-0.18777c1.15178,-0.13557 2.32514,-0.20503 3.48973,-0.2866c0.46493,-0.03257 0.93986,-0.01462 1.40268,-0.05644c0.29519,-0.02668 0.59163,-0.24441 0.87077,-0.13177c0.35373,0.14274 0.51374,0.50098 0.72482,0.77564c0.52633,0.68486 0.80848,1.74184 1.09536,2.49408c0.71144,2.61164 1.73208,5.06232 3.0245,7.54158c0.15684,0.09761 0.23036,0.23725 0.23036,0.23725l0.08204,0.15585c0.0989,0.21751 0.30578,0.42818 0.29669,0.65253c-0.02615,0.64536 -0.4979,1.08902 -1.13797,1.35767c0.01038,0.00406 0.02061,0.00804 0.03069,0.01192c0.83587,0.3224 1.52679,0.59231 1.75333,1.40237zM220.63072,145.31939c-0.14275,0.19399 -0.46027,0.19604 -0.46027,0.19604c-1.27448,-0.0196 -2.07962,0.86574 -2.66037,1.65905c-0.08416,0.11496 -0.24945,0.20227 -0.26076,0.34037c-0.00563,0.06883 0.14937,0.07769 0.22326,0.11763c0.25149,0.13594 0.44804,0.2521 0.63974,0.34081c0.10035,-0.01794 0.18033,-0.01303 0.18033,-0.01303c0.31829,0.01959 0.63288,0.03518 0.94487,0.04717c0.08185,-0.01508 0.17834,-0.01787 0.28062,0.00986c1.41977,0.04515 2.79195,0.01794 4.22087,-0.04144c0.62696,-0.02606 1.80915,-0.38041 2.42343,-0.12189c0.32569,0.13706 0.5761,0.4057 0.74518,0.67165c0.06628,0.10426 0.28498,1.27966 0.33416,1.4606c0.21316,0.78435 0.63013,1.5102 0.89369,2.28245c0.17533,0.33305 0.33258,0.83005 0.50791,1.1631c0.269,0.51098 0.73534,0.99354 1.00426,1.50522c0.18965,0.36083 0.30599,0.90196 0.78868,1.15152c0.11296,0.0584 0.2575,0.01843 0.38563,0.03672c0.68383,0.09759 2.61136,-0.02585 2.34392,-0.81902l-0.31563,-0.39997c-1.36207,-2.58736 -2.44274,-5.14563 -3.1824,-7.8701c-0.24154,-0.63495 -0.5233,-1.25588 -0.78608,-1.88477c-0.05757,-0.13779 -0.16104,-0.2644 -0.21236,-0.4034c-0.03154,-0.08543 0.07022,-0.2332 -0.03329,-0.26202c-0.1107,-0.03082 -0.12431,0.16529 -0.23202,0.18814c-0.66506,0.14112 -1.61419,0.07473 -2.31589,0.12402c-1.79441,0.12603 -3.62203,0.55234 -5.45744,0.52134z" fill="#9966ff"/><path d="M234.09843,159.22841c-0.34585,0.12568 -0.62118,0.12033 -1.04937,-0.01239c-0.61018,-0.18914 -0.98015,-0.45906 -1.41125,-0.84772c-0.08164,-0.0736 -0.26172,-0.11642 -0.25944,-0.21108c0.00227,-0.09427 0.20995,-0.08509 0.26879,-0.16212c0.15219,-0.19924 0.10203,-0.59305 0.39048,-0.63814c0.29363,-0.0459 0.58179,0.20839 0.86673,0.3183c0.89334,0.34456 1.04116,0.41027 1.03781,1.20804c0,0 0.00234,0.19527 0.15624,0.34511z" data-paper-data="{&quot;noHover&quot;:false,&quot;origItem&quot;:[&quot;Path&quot;,{&quot;applyMatrix&quot;:true,&quot;segments&quot;:[[[428.29653,249.70232],[2.53963,2.48528],[-0.88695,1.97961]],[[425.52357,252.53569],[0,0],[-7.83313,3.35814]],[[417.70827,266.57322],[0,-9.26089],[0,2.95396]],[[417.82607,275.4341],[-1.56019,-2.36818],[1.5327,2.32645]],[[425.49513,276.11458],[-2.5285,-0.4825],[0.97762,0.18656]],[[428.08169,277.77625],[-0.93268,0.38046],[0.93648,-0.38202]],[[429.15412,274.62198],[-0.41283,1.02512],[2.18006,-5.41338]],[[432.08448,258.86309],[0.45298,6.12931],[-0.31787,-4.30112]]],&quot;closed&quot;:true}]}" fill="#ffffff"/><path d="M220.16047,145.50974c0,0 0.31796,-0.00256 0.46071,-0.19655c1.8354,0.03101 3.67187,-0.39865 5.46627,-0.52468c0.7017,-0.04928 1.65547,0.01798 2.32054,-0.12313c0.1077,-0.02285 0.12155,-0.21887 0.23225,-0.18806c0.10352,0.02882 0.00202,0.17669 0.03356,0.26213c0.05132,0.13901 0.15551,0.26594 0.21308,0.40372c0.26277,0.62889 0.54825,1.25244 0.78979,1.88739c0.73965,2.72447 1.81965,5.2957 3.18172,7.88305l0.31555,0.40003c0.26744,0.79317 -1.66267,0.91794 -2.3465,0.82036c-0.12813,-0.01828 -0.27304,0.02183 -0.38601,-0.03658c-0.48268,-0.24955 -0.59919,-0.79062 -0.78884,-1.15146c-0.26893,-0.51169 -0.73557,-0.99415 -1.00457,-1.50513c-0.17533,-0.33304 -0.34215,-0.84813 -0.51747,-1.18118c-0.26355,-0.77224 -0.68298,-1.49703 -0.89614,-2.28138c-0.04917,-0.18095 -0.2672,-1.34108 -0.33348,-1.44533c-0.16908,-0.26595 -0.41093,-0.53236 -0.73662,-0.66943c-0.61428,-0.25852 -1.78755,0.09076 -2.41452,0.11681c-1.42893,0.05938 -2.80026,0.08392 -4.22002,0.03877c-0.10229,-0.02772 -0.19877,-0.02499 -0.28062,-0.0099c-0.31199,-0.01199 -0.62657,-0.02771 -0.94485,-0.0473c0,0 -0.1033,-0.00809 -0.20364,0.00986c-0.19171,-0.08872 -0.38822,-0.20521 -0.63971,-0.34114c-0.07388,-0.03994 -0.22888,-0.0489 -0.22325,-0.11773c0.0113,-0.1381 0.17668,-0.22589 0.26084,-0.34085c0.58076,-0.79332 1.38745,-1.68189 2.66192,-1.66228z" data-paper-data="{&quot;noHover&quot;:false,&quot;origItem&quot;:[&quot;Path&quot;,{&quot;applyMatrix&quot;:true,&quot;segments&quot;:[[[657.04642,381.49437],[0,0],[4.62661,9.90368]],[[683.36858,395.78934],[-9.97259,-1.50293],[1.44514,0.21779]],[[687.69104,396.5235],[-1.39648,0.43093],[0.69604,-0.21479]],[[687.99997,394.36016],[-0.11213,0.71975],[0.38164,-2.4498]],[[688.92201,388.14704],[-0.14482,1.81148],[-0.55534,-0.70664]],[[688.1125,386.80499],[0,0],[-1.0114,-2.52849]],[[685.00235,379.34017],[1.06204,2.45139],[-0.45725,-0.5747]],[[684.03792,377.13874],[0.11497,0.89292],[-4.92546,-11.1202]],[[667.67276,344.73829],[5.98483,10.79863],[-2.62594,-4.73807]],[[657.31503,326.50353],[-0.21166,5.70793],[0.11222,-3.02632]],[[661.08161,318.2359],[-1.96776,2.30198],[0.77141,-0.90243]],[[674.13622,310.17835],[-1.58787,1.05821],[6.8829,-4.587]],[[693.13166,294.7216],[-6.57368,4.93026],[2.60189,-2.60189]],[[702.61288,286.44017],[-2.60189,2.60189],[3.99202,-3.99202]],[[713.57123,273.04664],[-3.99918,3.99409],[2.82019,-2.8166]],[[721.87737,262.64306],[-0.6213,4.65927],[0.1454,-1.09041]],[[720.77921,259.53094],[0.30521,1.05687],[-1.6289,-5.64052]],[[703.88827,244.52507],[6.76412,-5.03876],[0,0]],[[701.16079,248.46027],[0,0],[-20.21351,20.21351]],[[636.04404,302.53496],[23.91098,-15.92721],[-5.31112,4.24538]],[[620.54007,315.66967],[5.17134,-4.38641],[-1.13297,0.961]],[[617.38854,318.82119],[1.16859,-0.91735],[-0.71824,0.56382]],[[614.94591,320.06111],[-0.10883,-0.9066],[0.11639,0.9695]],[[617.66749,321.14479],[-0.63125,-0.74498],[3.89793,4.60022]],[[627.63949,338.54218],[-3.13622,-5.22739],[8.01997,13.36755]],[[653.38438,378.67981],[-6.6356,-14.27295],[2.44136,0.3732]]],&quot;closed&quot;:true}]}" fill="#ffffff"/></g></g></g></svg>