<svg version="1.1" xmlns="http://www.w3.org/2000/svg" xmlns:xlink="http://www.w3.org/1999/xlink" width="41.58902" height="11.69629" viewBox="0,0,41.58902,11.69629"><g transform="translate(-225.02742,-170.30473)"><g data-paper-data="{&quot;isPaintingLayer&quot;:true}" stroke-linejoin="miter" stroke-miterlimit="10" stroke-dasharray="" stroke-dashoffset="0" style="mix-blend-mode: normal"><g data-paper-data="{&quot;index&quot;:null}" fill-rule="nonzero" stroke="none" stroke-width="0.5" stroke-linecap="butt"><path d="M227.37537,178.46688l0.22513,0.01473c1.49531,0.10125 2.96724,0.40963 4.476,0.29393c1.41935,0.08971 2.88073,0.30239 4.29894,0.11789c0.31692,-0.04122 0.76209,-0.11465 1.01522,-0.33895c0.07727,-0.06847 0.11649,-0.17092 0.183,-0.24988c0.03937,-0.04674 0.13893,-0.15205 0.07927,-0.16528c-0.59787,-0.1327 -1.23513,-0.13567 -1.84586,-0.17659c-0.68642,-0.13181 -1.38718,-0.15691 -2.07837,-0.2493c-2.34562,-0.31354 -4.7111,-0.49252 -7.0788,-0.35268c-0.07567,0.0058 -0.73906,-0.03925 -0.78345,0.11516c-0.0699,0.24319 -0.00431,0.50635 -0.02099,0.75884c-0.03552,0.53732 -0.07871,1.13887 -0.00475,1.67337c0.01494,0.10799 0.03052,0.21719 0.06557,0.3204c0.28858,0.84948 0.74564,-0.20363 0.85543,-0.51114c0.08559,-0.23971 0.16336,-0.48225 0.23632,-0.72614c-0.0178,-0.04737 -0.02687,-0.10462 -0.02234,-0.17379c0.02455,-0.37513 0.39968,-0.35057 0.39968,-0.35057zM227.32254,180.37945c-0.32725,0.73281 -1.10428,1.30838 -1.83069,0.60165c-0.64201,-0.62462 -0.44821,-1.99973 -0.39663,-2.79547c0.00611,-0.09438 0.05437,-0.96722 0.09689,-1.04222c0.32717,-0.57711 0.86066,-0.49095 1.40689,-0.53281c2.42032,-0.14296 4.83386,0.04216 7.23187,0.35793c0.68908,0.09074 1.38765,0.11706 2.07184,0.24845c0.55421,0.03533 1.11649,0.03571 1.65806,0.1681c0.17914,0.0438 0.39672,0.02226 0.53372,0.14569c0.95369,0.85926 -0.33569,1.80874 -1.11692,2.01574c-1.54878,0.41036 -3.32295,0.08795 -4.89688,-0.01913c-1.47428,0.11305 -2.9128,-0.17887 -4.37202,-0.28484c-0.11055,0.38227 -0.2252,0.77648 -0.38616,1.13692z" data-paper-data="{&quot;index&quot;:null}" fill="#525252"/><path d="M226.98319,178.81804c-0.00453,0.06916 0.00455,0.12613 0.02234,0.17351c-0.07295,0.2439 -0.15077,0.4853 -0.23634,0.72502c-0.10978,0.3075 -0.58173,1.36277 -0.87031,0.51329c-0.03506,-0.10322 -0.05068,-0.21283 -0.06563,-0.32082c-0.07395,-0.5345 -0.03071,-1.13818 0.00481,-1.6755c0.01668,-0.25249 -0.0487,-0.51656 0.0212,-0.75976c0.04439,-0.1544 0.70793,-0.1098 0.78359,-0.1156c2.36769,-0.13985 4.74635,0.03734 7.09196,0.35086c0.69119,0.09239 1.39306,0.11974 2.07948,0.25155c0.61073,0.04091 1.24818,0.04471 1.84606,0.17741c0.05965,0.01324 -0.03987,0.11874 -0.07924,0.16547c-0.06651,0.07896 -0.1057,0.18169 -0.18297,0.25015c-0.25313,0.2243 -0.71329,0.29903 -1.0302,0.34025c-1.41821,0.18451 -2.87736,-0.0233 -4.29672,-0.11301c-1.50876,0.11569 -2.96801,-0.19673 -4.46331,-0.29799l-0.22512,-0.01478c0,0 -0.37505,-0.0252 -0.3996,0.34993z" data-paper-data="{&quot;noHover&quot;:false,&quot;origItem&quot;:[&quot;Path&quot;,{&quot;applyMatrix&quot;:true,&quot;segments&quot;:[[386.45029,689.05383],[[386.45029,686.05308],[0,0],[0.04473,-19.93365]],[[386.46286,626.39253],[2.84625,19.92377],[-0.04245,-18.91557]],[[384.29298,569.23481],[3.68067,18.66211],[-0.82249,-4.17029]],[[378.9125,556.05523],[3.19679,3.16476],[-0.97581,-0.96604]],[[375.43728,553.8435],[1.10571,0.81416],[-0.65445,-0.48189]],[[373.17469,552.935],[0.12391,-0.80322],[-1.24187,8.05023]],[[372.43462,577.58658],[0.01246,-8.14114],[-1.15309,9.22469]],[[370.93133,605.38727],[0.62575,-9.2537],[-2.12356,31.40327]],[[372.40004,699.64298],[-3.9128,-31.30241],[0.14277,0.99913]],[[374.60901,709.94081],[-2.08791,-0.45491],[3.28844,0.71647]],[[384.6986,709.56021],[-3.36559,-0.0022],[7.16214,0.00467]],[[406.91163,708.16978],[-7.02964,1.44582],[1.42021,-0.2921]],[[411.10706,707.02122],[-1.33949,0.55506],[11.02351,-4.56796]],[[403.58006,696.11202],[4.17659,1.18995],[-3.25577,-0.9276]],[[393.73752,693.60652],[3.30032,0.75641],[-0.6133,0.27731]],[[391.45029,694.05383],[0.92196,0],[-5,0]]],&quot;closed&quot;:true}]}" fill="#0e0d0c"/></g><g data-paper-data="{&quot;index&quot;:null}" fill-rule="nonzero" stroke="none" stroke-width="0.5" stroke-linecap="butt"><path d="M227.73658,173.73938l0.21377,0.07215c1.41896,0.48245 2.76205,1.15904 4.24982,1.43528c1.34853,0.45175 2.70604,1.03316 4.12399,1.21963c0.31686,0.04167 0.76594,0.08522 1.06826,-0.06643c0.09228,-0.04629 0.15653,-0.1352 0.24111,-0.1944c0.05005,-0.03503 0.17337,-0.1112 0.11911,-0.13934c-0.54362,-0.28202 -1.15868,-0.44878 -1.73834,-0.64541c-0.62942,-0.30392 -1.30015,-0.50843 -1.94433,-0.77549c-2.18607,-0.90629 -4.42592,-1.68767 -6.74992,-2.16152c-0.07461,-0.01386 -0.70411,-0.22803 -0.78672,-0.09023c-0.1301,0.21704 -0.13439,0.48822 -0.21545,0.72792c-0.17253,0.51011 -0.36898,1.0803 -0.435,1.61584c-0.01334,0.10819 -0.02638,0.21772 -0.01905,0.32649c0.06037,0.89513 0.77293,-0.00501 0.95811,-0.27393c0.14436,-0.20963 0.2819,-0.42401 0.41513,-0.64091c-0.00502,-0.05036 0.00096,-0.10802 0.02313,-0.1737c0.12021,-0.3562 0.4764,-0.23598 0.4764,-0.23598zM227.1936,175.57403c-0.50472,0.62399 -1.40364,0.98033 -1.92382,0.11055c-0.45975,-0.76873 0.0812,-2.04774 0.33571,-2.80342c0.03018,-0.08963 0.30132,-0.92069 0.36169,-0.98223c0.4646,-0.47355 0.95798,-0.25307 1.49661,-0.15303c2.37566,0.48438 4.66038,1.28403 6.89649,2.20596c0.64256,0.26492 1.31085,0.47003 1.93823,0.77298c0.52648,0.17668 1.06975,0.32168 1.55905,0.58891c0.16184,0.0884 0.37765,0.12355 0.47829,0.27807c0.70059,1.07564 -0.78962,1.66155 -1.59781,1.66065c-1.60222,-0.0018 -3.23377,-0.76968 -4.7272,-1.27799c-1.45375,-0.26995 -2.76878,-0.92206 -4.15166,-1.39977c-0.20515,0.34097 -0.41733,0.69244 -0.66559,0.99936z" data-paper-data="{&quot;index&quot;:null}" fill="#525252"/><path d="M227.26728,173.97785c-0.02217,0.06567 -0.02805,0.12308 -0.02303,0.17344c-0.13323,0.21693 -0.27052,0.4302 -0.41488,0.63984c-0.18517,0.26892 -0.91266,1.16728 -0.97305,0.27217c-0.00734,-0.10876 0.00575,-0.21871 0.01909,-0.3269c0.06602,-0.53554 0.26307,-1.10779 0.43561,-1.6179c0.08107,-0.2397 0.0858,-0.51171 0.2159,-0.72876c0.08261,-0.1378 0.71234,0.07598 0.78697,0.08984c2.324,0.47385 4.57705,1.25687 6.76312,2.16315c0.64417,0.26706 1.3154,0.47401 1.94482,0.77794c0.57966,0.19662 1.19469,0.36425 1.73832,0.64626c0.05425,0.02813 -0.06907,0.1045 -0.11913,0.13953c-0.08458,0.05919 -0.14887,0.14838 -0.24116,0.19467c-0.3023,0.15165 -0.76621,0.1055 -1.08306,0.06383c-1.41795,-0.18647 -2.77456,-0.76259 -4.12309,-1.21435c-1.48775,-0.27626 -2.81754,-0.95351 -4.23651,-1.43596l-0.21375,-0.07218c0,0 -0.35595,-0.12082 -0.47616,0.23537z" data-paper-data="{&quot;noHover&quot;:false,&quot;origItem&quot;:[&quot;Path&quot;,{&quot;applyMatrix&quot;:true,&quot;segments&quot;:[[386.45029,689.05383],[[386.45029,686.05308],[0,0],[0.04473,-19.93365]],[[386.46286,626.39253],[2.84625,19.92377],[-0.04245,-18.91557]],[[384.29298,569.23481],[3.68067,18.66211],[-0.82249,-4.17029]],[[378.9125,556.05523],[3.19679,3.16476],[-0.97581,-0.96604]],[[375.43728,553.8435],[1.10571,0.81416],[-0.65445,-0.48189]],[[373.17469,552.935],[0.12391,-0.80322],[-1.24187,8.05023]],[[372.43462,577.58658],[0.01246,-8.14114],[-1.15309,9.22469]],[[370.93133,605.38727],[0.62575,-9.2537],[-2.12356,31.40327]],[[372.40004,699.64298],[-3.9128,-31.30241],[0.14277,0.99913]],[[374.60901,709.94081],[-2.08791,-0.45491],[3.28844,0.71647]],[[384.6986,709.56021],[-3.36559,-0.0022],[7.16214,0.00467]],[[406.91163,708.16978],[-7.02964,1.44582],[1.42021,-0.2921]],[[411.10706,707.02122],[-1.33949,0.55506],[11.02351,-4.56796]],[[403.58006,696.11202],[4.17659,1.18995],[-3.25577,-0.9276]],[[393.73752,693.60652],[3.30032,0.75641],[-0.6133,0.27731]],[[391.45029,694.05383],[0.92196,0],[-5,0]]],&quot;closed&quot;:true}]}" fill="#0e0d0c"/></g><g data-paper-data="{&quot;index&quot;:null}" fill-rule="nonzero" stroke="none" stroke-width="0.5" stroke-linecap="butt"><g><g><g><path d="M251.57146,180.88695c-0.11334,0.03095 -0.22344,0.05311 -0.32713,0.06521c-0.35836,0.04181 -0.7222,-0.02569 -1.08236,-0.00442c-0.70893,-0.04615 -1.38034,0.11365 -2.08477,0.10797c-0.84036,-0.00677 -1.7077,0.00151 -2.54537,-0.10549c-1.77803,-0.22711 -3.56099,-0.55033 -5.36157,-0.41225c-0.83466,-0.05288 -2.10599,0.12173 -2.7027,-0.53074c-0.92594,-1.01243 -0.53075,-2.91324 -0.45007,-4.14569c0.03693,-0.56426 -0.05477,-1.05939 0.48657,-1.42902c0.47798,-0.32638 1.1115,-0.24785 1.64761,-0.21353c1.90266,0.12454 3.784,0.31139 5.67017,0.55519c1.18668,0.15339 2.38273,0.09257 3.57533,0.12491c0.00147,-0.00801 0.00295,-0.01612 0.00445,-0.02433c0.1434,0.04183 0.30407,0.06956 0.48564,0.08145c1.31945,0.08637 2.88061,0.24635 4.00717,1.04816c0.27265,0.19406 0.36,0.63927 0.49945,0.92194c0.14998,0.30403 0.42987,0.8701 0.42954,1.23128c-0.00038,0.43129 -0.46974,0.86408 -0.72078,1.18676c-0.44603,0.57332 -0.96297,1.08229 -1.53119,1.54259zM238.52942,175.92135c-0.24788,-0.28261 0.03473,-0.53052 0.03473,-0.53052l0.1648,-0.14149c0.00071,-0.00074 0.00144,-0.00147 0.00215,-0.00221c-0.0453,-0.0585 -0.07536,-0.14058 -0.06784,-0.25562c0.0014,-0.02149 0.00398,-0.04167 0.00754,-0.06062c-0.36089,-0.02169 -0.80264,-0.00359 -0.87656,0.25065c-0.09309,0.32019 -0.03235,0.81857 -0.05436,1.15502c-0.06141,0.93808 -0.35035,2.37485 0.29292,3.17487c0.2134,0.2654 0.55938,0.17071 0.88211,0.19182c0.41708,0.02731 0.83414,0.05456 1.25115,0.08285c1.83239,-0.14051 3.65209,0.18449 5.4614,0.41836c0.8068,0.10429 1.64271,0.08987 2.45212,0.09939c0.70275,0.00829 1.37574,-0.15464 2.08476,-0.10798c0.78951,-0.04664 1.85383,0.0469 2.37262,-0.75427c0.02205,-0.03405 0.04115,-0.06951 0.058,-0.10604c-0.05402,-0.00353 -0.10804,-0.00708 -0.16206,-0.01061c0.20028,-0.09903 0.39939,-0.19843 0.44721,-0.39682c0.05192,-0.21539 0.0511,-0.38925 0.0365,-0.55477c0.0011,-0.0031 0.00221,-0.00621 0.00332,-0.0093c-0.00137,0.00024 -0.00274,0.00049 -0.00409,0.00072c-0.00758,-0.08309 -0.01847,-0.16422 -0.02772,-0.2476c-0.01666,-0.15015 0.05289,-0.32373 0.06481,-0.47664c0.03624,0.01216 0.0856,0.03341 0.13171,0.0688c0.05652,-0.48343 -0.0763,-0.92223 -0.62197,-1.23323c-0.34177,-0.19479 -0.4266,-0.34184 -0.79825,-0.21514c0,0 -0.35017,0.0918 -0.45335,-0.24838c-0.72316,-0.14819 -1.46458,-0.28688 -2.19428,-0.33333c-1.42962,-0.09357 -2.86513,0.02274 -4.29058,-0.15935c-1.27835,-0.1633 -2.55386,-0.30284 -3.83556,-0.41427c0.00171,0.01483 0.00285,0.0298 0.0035,0.04485l0.03629,-0.00278l0.03247,0.42346c0.00181,0.01955 0.00211,0.03953 0.00079,0.05975c-0.00324,0.04967 -0.016,0.09645 -0.03637,0.13868c0.02958,0.0629 0.04739,0.12625 0.05917,0.19406c0.19288,0.10667 0.17678,0.35251 0.17678,0.35251c-0.05968,0.91181 -0.0624,2.49679 -1.28164,2.61011c-0.20421,0.01898 -0.42777,0.03121 -0.61258,-0.05773c-0.84948,-0.40883 -0.70229,-1.47094 -0.65248,-2.2302c0.00901,-0.13746 0.01732,-0.37892 0.04512,-0.61293c-0.04403,-0.02113 -0.08869,-0.05441 -0.13228,-0.10412zM240.3667,176.9814c-0.11486,-0.1188 -0.10323,-0.29631 -0.10323,-0.29631l0.01623,-0.19009c-0.01834,-0.50047 -0.16346,-0.58539 -0.67414,-0.58389c-0.06871,0.0002 -0.16611,-0.02967 -0.20428,0.02745c-0.13886,0.20779 -0.01814,0.49958 -0.03442,0.74895c-0.02014,0.30841 -0.21675,1.32113 0.20382,1.49237c0.29087,0.11843 0.48048,-0.07278 0.5833,-0.30382c0.12874,-0.28931 0.18325,-0.58945 0.21275,-0.89466z" fill="#525252"/><path d="M240.15684,177.88299c-0.10282,0.23104 -0.29696,0.42265 -0.58782,0.30423c-0.42056,-0.17123 -0.22805,-1.19615 -0.20791,-1.50455c0.01629,-0.24938 -0.10131,-0.54337 0.03755,-0.75116c0.03818,-0.05712 0.13682,-0.02758 0.20553,-0.02778c0.51068,-0.00151 0.66187,0.08495 0.68021,0.58541l-0.01524,0.19105c0,0 -0.00988,0.18123 0.10497,0.30003c-0.0295,0.30519 -0.08854,0.61348 -0.21728,0.90279z" data-paper-data="{&quot;noHover&quot;:false,&quot;origItem&quot;:[&quot;Path&quot;,{&quot;applyMatrix&quot;:true,&quot;segments&quot;:[[[358.86813,523.3342],[4.07617,0.12642],[-1.47688,1.62759]],[355.02522,524.96179],[[352.48821,524.91154],[0,0],[-6.62617,0.67818]],[[345.32457,534.36604],[-0.4636,-6.77645],[0.06237,0.9117]],[[345.86628,537.05347],[-0.79133,-0.45704],[2.87836,1.66243]],[[355.83625,536.85961],[-3.32395,0.00051],[4.11062,-0.00063]],[[375.46579,532.85821],[-1.90729,5.73051],[1.31908,-3.96322]],[[370.92667,525.38061],[3.15563,1.16381],[-3.95145,-1.45731]]],&quot;closed&quot;:true}]}" fill="#ffffff"/><path d="" data-paper-data="{&quot;noHover&quot;:false,&quot;origItem&quot;:[&quot;Path&quot;,{&quot;applyMatrix&quot;:true,&quot;segments&quot;:[[[338.44262,342.45984],[2.66651,0.38866],[-2.91538,1.07796]],[[329.54887,345.2624],[2.83772,-1.26839],[-13.54673,6.05504]],[[310.44244,380.69638],[2.74258,-12.52637],[-1.46397,6.68648]],[[316.19833,406.97442],[-7.33565,-3.98544],[1.30721,0.71021]],[[324.07919,408.49777],[-2.65476,-0.29848],[0.11576,-11.30057]],[[327.32896,374.43298],[-1.62098,11.16043],[0,0]],[327.31638,369.11021],[[329.10876,365.12552],[-1.79238,1.46154],[2.58323,-8.19254]],[[345.6743,345.084],[-6.73172,2.80644],[-2.28966,-1.16404]]],&quot;closed&quot;:true}]}" fill="#ffffff"/><path d="M238.66901,176.0274c-0.02779,0.23402 -0.03598,0.47482 -0.045,0.61227c-0.0498,0.75925 -0.197,1.81877 0.65248,2.22762c0.18481,0.08894 0.39361,0.07957 0.59781,0.06059c1.21923,-0.11332 1.22222,-1.70233 1.2819,-2.61414c0,0 0.01625,-0.24624 -0.17663,-0.35292c-0.01178,-0.06781 -0.02948,-0.1314 -0.05908,-0.19429c0.02037,-0.04224 0.03323,-0.08921 0.03648,-0.13888c0.00132,-0.02022 0.00107,-0.04026 -0.00075,-0.05982l-0.03222,-0.42392l-0.0363,0.00281c-0.00064,-0.01506 -0.00177,-0.03006 -0.00348,-0.04489c1.28171,0.11143 2.56169,0.24758 3.84004,0.41088c1.42546,0.18209 2.86944,0.06929 4.29906,0.16286c0.72968,0.04645 1.47178,0.1867 2.19495,0.3349c0.10318,0.34018 0.45346,0.2488 0.45346,0.2488c0.37165,-0.1267 0.45657,0.02074 0.79835,0.21553c0.54567,0.311 0.67861,0.75108 0.6221,1.23451c-0.04587,-0.0352 -0.09913,-0.05634 -0.13925,-0.06847c0.00664,-0.08488 -0.00444,-0.1634 -0.05784,-0.22803c-0.96112,-1.16305 -1.41853,-0.62998 -2.56275,-0.6753c-0.37083,-0.01468 -0.75896,-0.1291 -1.14442,-0.18281c-0.07441,-0.01651 -0.15102,-0.02757 -0.22946,-0.0327c-0.12633,-0.00827 -0.25003,-0.00069 -0.36915,0.02103c-0.13305,0.01882 -0.26447,0.05562 -0.39337,0.11742c-0.06027,0.0289 -0.11437,0.06489 -0.16349,0.10659c-0.3221,0.27342 -0.43086,0.79172 -0.67271,1.15725l0.65431,1.34152c0.083,0.17017 0.90332,0.3067 1.14823,0.37758c0.29703,0.08597 2.58721,0.15294 2.97944,-0.15123c0.08402,-0.06516 0.18882,-0.11656 0.29316,-0.16816c0.05091,0.00333 0.10183,0.00667 0.15273,0.01c-0.01685,0.03652 -0.02126,0.07525 -0.04331,0.10931c-0.51878,0.80116 -1.58371,0.70931 -2.37322,0.75593c-0.70901,-0.04666 -1.38321,0.11798 -2.08595,0.1097c-0.80942,-0.00952 -1.64997,0.00727 -2.45677,-0.09701c-1.80932,-0.23388 -3.6369,-0.56363 -5.46929,-0.42311c-0.41701,-0.02828 -0.83427,-0.05611 -1.25135,-0.08342c-0.32273,-0.02113 -0.66882,0.07315 -0.88223,-0.19224c-0.64328,-0.80002 -0.3544,-2.23994 -0.29299,-3.178c0.02203,-0.33646 -0.03844,-0.83588 0.05464,-1.15607c0.07392,-0.25424 0.51586,-0.27285 0.87676,-0.25115c-0.00357,0.01895 0.00771,0.04499 0.00631,0.06648c-0.00753,0.11504 0.0226,0.1969 0.06791,0.25541c-0.00071,0.00074 -0.00143,0.00147 -0.00215,0.00221l-0.16473,0.1413c0,0 -0.28245,0.24738 -0.03456,0.52999c0.04359,0.0497 0.08828,0.08293 0.13231,0.10405z" data-paper-data="{&quot;noHover&quot;:false,&quot;origItem&quot;:[&quot;Path&quot;,{&quot;applyMatrix&quot;:true,&quot;segments&quot;:[[[346.39531,548.63926],[0.62179,-0.62179],[-3.53553,3.53553]],[339.32424,548.63926],[[337.30321,546.57498],[0,0],[-0.01041,-0.00887]],[[337.27199,546.54836],[0.0104,0.00888],[-0.73709,0.65205]],[[333.93844,547.67064],[1.53334,0],[-0.28644,0]],[[333.12741,547.62329],[0.25456,0.03094],[0.02559,4.80858]],[[337.21554,559.03927],[-3.43859,-0.76019],[4.33046,0.95736]],[[352.59213,558.75742],[-4.48449,0],[12.50333,0]],[[394.47428,552.11158],[-10.05894,9.23254],[3.33699,-3.06283]],[[396.25393,540.23755],[0,4.3016],[0,-5.5591]],[[396.26651,523.56036],[-0.01314,5.55908],[-3.45677,-24.19739]],[[397.07462,450.71356],[-1.53217,24.21631],[0.68322,-10.79851]],[[396.26359,418.0827],[0.57662,10.7508],[-0.50063,-9.33407]],[[393.01947,390.50768],[-0.00337,9.4505],[-1.30472,-10.43773]],[[380.94778,359.6737],[11.08375,6.18927],[-0.47114,-0.26309]],[[379.48994,358.99615],[0.49945,0.19197],[0,10.94097]],[[379.48994,391.81905],[0,-10.94097],[0,0]],[379.48994,392.63008],[[374.48994,397.63008],[5,0],[-5,0]],[[369.48994,392.63008],[0,0],[0,-11.62476]],[[369.48994,356.94476],[0,11.62476],[0,0]],[[369.52027,356.5065],[-0.03033,0.27196],[-1.07005,-0.34818]],[[366.314,355.5272],[1.06586,0.3011],[0.26145,1.04712]],[[366.48865,357.44228],[0,0],[-1.12554,11.16678]],[[365.70243,391.00802],[0,-11.21704],[0,0]],[365.70243,392.63008],[[360.70243,397.63008],[5,0],[-5,0]],[355.70243,392.63008],[[355.70243,391.00802],[0,0],[0,-11.55476]],[[356.53828,356.44724],[-1.14201,11.50594],[0,0]],[[357.48175,353.90977],[-0.81108,1.21362],[-6.46521,-0.33011]],[[341.6547,363.23598],[3.65359,-7.5123],[-2.28839,4.70525]],[[339.49289,374.01731],[-2.0045,-4.82238],[0,0]],[[336.59012,380.24991],[4.42532,-1.66491],[-1.33864,9.72654]],[[334.07226,409.66171],[-0.01751,-9.72475],[0,19.05517]],[[335.68466,466.7445],[1.17829,-19.07679],[-1.0567,17.10812]],[[333.51866,518.00978],[0.36534,-17.10746],[0.19544,-0.03554]],[[334.11082,517.9243],[-0.19927,0.02168],[0,0]],[334.04237,517.44514],[[339.63443,516.64627],[0,0],[0.25804,-0.04108]],[[340.42668,516.58385],[-0.2696,0],[0.66201,0]],[[342.29891,516.94618],[-0.57827,-0.23367],[0.80901,-0.44746]],[[344.82312,515.99226],[-0.88983,0.21525],[1.24824,-2.65253]],[[349.34801,513.33973],[0,0],[12.15349,0]],[[385.10259,528.08221],[-2.56313,-16.08322],[0.42931,2.69387]],[[384.86851,536.26246],[1.01992,-2.53002],[-4.68809,11.62938]],[[355.83625,546.85961],[10.12013,0.00142],[-1.83212,-0.00026]],[[347.66225,546.79312],[3.13001,0.16559],[-0.24207,0.60256]]],&quot;closed&quot;:true}]}" fill="#0e0d0c"/><path d="M252.91602,178.36657c0.00377,-0.00059 0.00757,-0.00122 0.01141,-0.00192c-0.00309,0.00869 -0.00619,0.0174 -0.00933,0.02611c-0.00066,-0.00807 -0.00136,-0.01614 -0.00209,-0.02419z" data-paper-data="{&quot;noHover&quot;:false,&quot;origItem&quot;:[&quot;Path&quot;,{&quot;applyMatrix&quot;:true,&quot;segments&quot;:[[[346.39531,548.63926],[0.62179,-0.62179],[-3.53553,3.53553]],[339.32424,548.63926],[[337.30321,546.57498],[0,0],[-0.01041,-0.00887]],[[337.27199,546.54836],[0.0104,0.00888],[-0.73709,0.65205]],[[333.93844,547.67064],[1.53334,0],[-0.28644,0]],[[333.12741,547.62329],[0.25456,0.03094],[0.02559,4.80858]],[[337.21554,559.03927],[-3.43859,-0.76019],[4.33046,0.95736]],[[352.59213,558.75742],[-4.48449,0],[12.50333,0]],[[394.47428,552.11158],[-10.05894,9.23254],[3.33699,-3.06283]],[[396.25393,540.23755],[0,4.3016],[0,-5.5591]],[[396.26651,523.56036],[-0.01314,5.55908],[-3.45677,-24.19739]],[[397.07462,450.71356],[-1.53217,24.21631],[0.68322,-10.79851]],[[396.26359,418.0827],[0.57662,10.7508],[-0.50063,-9.33407]],[[393.01947,390.50768],[-0.00337,9.4505],[-1.30472,-10.43773]],[[380.94778,359.6737],[11.08375,6.18927],[-0.47114,-0.26309]],[[379.48994,358.99615],[0.49945,0.19197],[0,10.94097]],[[379.48994,391.81905],[0,-10.94097],[0,0]],[379.48994,392.63008],[[374.48994,397.63008],[5,0],[-5,0]],[[369.48994,392.63008],[0,0],[0,-11.62476]],[[369.48994,356.94476],[0,11.62476],[0,0]],[[369.52027,356.5065],[-0.03033,0.27196],[-1.07005,-0.34818]],[[366.314,355.5272],[1.06586,0.3011],[0.26145,1.04712]],[[366.48865,357.44228],[0,0],[-1.12554,11.16678]],[[365.70243,391.00802],[0,-11.21704],[0,0]],[365.70243,392.63008],[[360.70243,397.63008],[5,0],[-5,0]],[355.70243,392.63008],[[355.70243,391.00802],[0,0],[0,-11.55476]],[[356.53828,356.44724],[-1.14201,11.50594],[0,0]],[[357.48175,353.90977],[-0.81108,1.21362],[-6.46521,-0.33011]],[[341.6547,363.23598],[3.65359,-7.5123],[-2.28839,4.70525]],[[339.49289,374.01731],[-2.0045,-4.82238],[0,0]],[[336.59012,380.24991],[4.42532,-1.66491],[-1.33864,9.72654]],[[334.07226,409.66171],[-0.01751,-9.72475],[0,19.05517]],[[335.68466,466.7445],[1.17829,-19.07679],[-1.0567,17.10812]],[[333.51866,518.00978],[0.36534,-17.10746],[0.19544,-0.03554]],[[334.11082,517.9243],[-0.19927,0.02168],[0,0]],[334.04237,517.44514],[[339.63443,516.64627],[0,0],[0.25804,-0.04108]],[[340.42668,516.58385],[-0.2696,0],[0.66201,0]],[[342.29891,516.94618],[-0.57827,-0.23367],[0.80901,-0.44746]],[[344.82312,515.99226],[-0.88983,0.21525],[1.24824,-2.65253]],[[349.34801,513.33973],[0,0],[12.15349,0]],[[385.10259,528.08221],[-2.56313,-16.08322],[0.42931,2.69387]],[[384.86851,536.26246],[1.01992,-2.53002],[-4.68809,11.62938]],[[355.83625,546.85961],[10.12013,0.00142],[-1.83212,-0.00026]],[[347.66225,546.79312],[3.13001,0.16559],[-0.24207,0.60256]]],&quot;closed&quot;:true}]}" fill="#ffffff"/><path d="M238.66899,176.02739z" data-paper-data="{&quot;noHover&quot;:false,&quot;origItem&quot;:[&quot;Path&quot;,{&quot;applyMatrix&quot;:true,&quot;segments&quot;:[[[346.39531,548.63926],[0.62179,-0.62179],[-3.53553,3.53553]],[339.32424,548.63926],[[337.30321,546.57498],[0,0],[-0.01041,-0.00887]],[[337.27199,546.54836],[0.0104,0.00888],[-0.73709,0.65205]],[[333.93844,547.67064],[1.53334,0],[-0.28644,0]],[[333.12741,547.62329],[0.25456,0.03094],[0.02559,4.80858]],[[337.21554,559.03927],[-3.43859,-0.76019],[4.33046,0.95736]],[[352.59213,558.75742],[-4.48449,0],[12.50333,0]],[[394.47428,552.11158],[-10.05894,9.23254],[3.33699,-3.06283]],[[396.25393,540.23755],[0,4.3016],[0,-5.5591]],[[396.26651,523.56036],[-0.01314,5.55908],[-3.45677,-24.19739]],[[397.07462,450.71356],[-1.53217,24.21631],[0.68322,-10.79851]],[[396.26359,418.0827],[0.57662,10.7508],[-0.50063,-9.33407]],[[393.01947,390.50768],[-0.00337,9.4505],[-1.30472,-10.43773]],[[380.94778,359.6737],[11.08375,6.18927],[-0.47114,-0.26309]],[[379.48994,358.99615],[0.49945,0.19197],[0,10.94097]],[[379.48994,391.81905],[0,-10.94097],[0,0]],[379.48994,392.63008],[[374.48994,397.63008],[5,0],[-5,0]],[[369.48994,392.63008],[0,0],[0,-11.62476]],[[369.48994,356.94476],[0,11.62476],[0,0]],[[369.52027,356.5065],[-0.03033,0.27196],[-1.07005,-0.34818]],[[366.314,355.5272],[1.06586,0.3011],[0.26145,1.04712]],[[366.48865,357.44228],[0,0],[-1.12554,11.16678]],[[365.70243,391.00802],[0,-11.21704],[0,0]],[365.70243,392.63008],[[360.70243,397.63008],[5,0],[-5,0]],[355.70243,392.63008],[[355.70243,391.00802],[0,0],[0,-11.55476]],[[356.53828,356.44724],[-1.14201,11.50594],[0,0]],[[357.48175,353.90977],[-0.81108,1.21362],[-6.46521,-0.33011]],[[341.6547,363.23598],[3.65359,-7.5123],[-2.28839,4.70525]],[[339.49289,374.01731],[-2.0045,-4.82238],[0,0]],[[336.59012,380.24991],[4.42532,-1.66491],[-1.33864,9.72654]],[[334.07226,409.66171],[-0.01751,-9.72475],[0,19.05517]],[[335.68466,466.7445],[1.17829,-19.07679],[-1.0567,17.10812]],[[333.51866,518.00978],[0.36534,-17.10746],[0.19544,-0.03554]],[[334.11082,517.9243],[-0.19927,0.02168],[0,0]],[334.04237,517.44514],[[339.63443,516.64627],[0,0],[0.25804,-0.04108]],[[340.42668,516.58385],[-0.2696,0],[0.66201,0]],[[342.29891,516.94618],[-0.57827,-0.23367],[0.80901,-0.44746]],[[344.82312,515.99226],[-0.88983,0.21525],[1.24824,-2.65253]],[[349.34801,513.33973],[0,0],[12.15349,0]],[[385.10259,528.08221],[-2.56313,-16.08322],[0.42931,2.69387]],[[384.86851,536.26246],[1.01992,-2.53002],[-4.68809,11.62938]],[[355.83625,546.85961],[10.12013,0.00142],[-1.83212,-0.00026]],[[347.66225,546.79312],[3.13001,0.16559],[-0.24207,0.60256]]],&quot;closed&quot;:true}]}" fill="#ffffff"/></g><path d="M247.51023,178.48498c-0.09336,0.03162 -0.20734,0.04155 -0.3461,0.0149c-0.62761,-0.12052 -0.50709,-0.74813 -0.50709,-0.74813c0.07461,-0.34279 0.19035,-0.69613 0.41088,-0.96898c1.02024,-1.26228 2.52621,-0.68102 3.83112,-0.30934c0.12597,-0.15884 0.32525,-0.25524 0.54284,-0.24099c0.03023,0.00198 0.05982,0.00602 0.08867,0.012l0.36216,0.06955l-0.00435,0.02263l0.04196,-0.01422c0.02013,0.00875 0.04073,0.01684 0.06166,0.02445c0.0683,-0.0339 0.16928,0.02365 0.26693,0.08239c0.10817,0.03369 0.21182,0.07383 0.29527,0.14279c0.41962,0.17962 0.73682,0.37197 0.83818,0.93064c0.04872,0.26854 -0.03297,0.55706 -0.14536,0.80577c-0.0761,0.1684 -0.26894,0.2539 -0.39469,0.3893c-0.28285,0.30453 -0.50299,0.73997 -0.83083,0.99575c-0.87806,0.68508 -2.48699,0.66384 -3.4331,0.16734c-0.44524,-0.23364 -1.02031,-0.74808 -1.07363,-1.29112c-0.00278,-0.02828 -0.00421,-0.05653 -0.00452,-0.08475z" fill="#0e0d0c"/><path d="M238.5145,177.10693c-0.20202,-0.17364 -0.30907,-0.45236 -0.23442,-0.87851c-0.08396,-0.06007 -0.16112,-0.15231 -0.21943,-0.29087c-0.24786,-0.58906 0.34119,-0.83692 0.34119,-0.83692l0.47364,-0.17487c0.58127,-0.07308 1.49843,-0.13109 2.06906,0.05077c0.72219,0.23015 1.29559,0.44096 0.77931,1.41432c0.02114,0.01883 0.04257,0.0372 0.06445,0.05486c0.26343,0.56567 0.6068,0.91349 0.1223,1.52474c0.11701,0.07148 0.22144,0.19648 0.26791,0.41142c0.13505,0.62464 -0.48959,0.7597 -0.48959,0.7597c-0.87306,0.18793 -1.7066,0.27273 -2.59726,0.15602c-0.61664,-0.0808 -0.9478,-0.03078 -1.15702,-0.81504c-0.17495,-0.65586 0.11419,-1.12473 0.57982,-1.37562z" fill="#0e0d0c"/><path d="M248.56208,179.65375c0.02455,-0.37513 0.39968,-0.35058 0.39968,-0.35058l0.15005,0.00982c0.31801,0.02083 0.7393,0.12095 1.054,0.07579c0.13359,-0.01916 0.251,-0.10889 0.38494,-0.1255c0.51579,-0.06394 1.12634,0.06691 1.64692,0.10099c0,0 0.00171,0.0001 0.00487,0.00043c0.47308,-0.64722 0.68505,-1.64263 1.06645,-2.22949c0,0 0.05801,-0.08766 0.15901,-0.13961c0.10299,0.20981 0.24441,0.50705 0.32724,0.78125c-0.32259,0.56494 -0.50738,1.21216 -0.81646,1.77145c-0.30723,0.37049 -0.64467,0.71345 -1.00657,1.03346c-0.02414,0.01259 -0.04874,0.02488 -0.07382,0.03684c-0.1468,0.07009 -0.31836,0.06705 -0.47755,0.10057l-0.01821,0.01737c0,0 -0.34651,0.14581 -0.49231,-0.2007c-0.1458,-0.34651 0.2007,-0.49231 0.2007,-0.49231l0.10788,-0.03941c-0.18697,-0.0153 -0.36899,-0.01858 -0.53448,0.00516c-0.13359,0.01916 -0.25101,0.10889 -0.38495,0.1255c-0.36832,0.04566 -0.82498,-0.0472 -1.19676,-0.07154l-0.15005,-0.00982c0,0 -0.37513,-0.02454 -0.35057,-0.39968z" fill="#525252"/></g><path d="M239.67992,180.01957c-0.02455,0.37513 -0.39968,0.35057 -0.39968,0.35057l-0.38308,-0.10443c-0.34682,-0.31913 -0.54946,-0.40468 -0.62993,-0.92621c-0.11565,-0.74953 0.34923,-1.23537 1.08136,-1.22529c1.05783,0.01458 1.74524,0.67665 2.20398,1.5565c0,0 0.17195,0.3343 -0.16235,0.50624c-0.33431,0.17195 -0.50625,-0.16234 -0.50625,-0.16234c-0.17067,-0.3374 -0.45308,-0.88107 -0.85664,-0.99567c-0.27479,-0.07803 -1.14394,-0.40305 -1.01862,0.19598c0.01863,0.08904 0.04998,0.17999 0.10653,0.25124c0.07628,0.09613 0.18753,0.15832 0.28131,0.23748l-0.06718,-0.08375c0,0 0.37513,0.02455 0.35058,0.39968z" fill="#525252"/></g><path d="M250.25241,174.71168c-0.51391,0.18469 -0.74532,0.96755 -0.95142,1.41356c-0.08947,0.52412 -0.29621,1.24108 0.03588,1.71678c0.30554,0.43767 0.82945,0.37772 1.29503,0.4329c0.83485,0.09892 1.99594,0.25615 2.49285,-0.58677l0.02991,-0.18705c-0.3744,-0.89441 -1.57995,-1.37541 -2.50934,-1.53289l-0.26765,-0.01522c0,0 -0.37513,-0.02454 -0.35058,-0.39968c0.02455,-0.37513 0.39968,-0.35058 0.39968,-0.35058l0.35021,0.02522c0.58508,0.10798 1.25498,0.32057 1.83978,0.65482c-0.57109,-0.65352 -1.47248,-1.49158 -2.36435,-1.17108zM252.99353,178.85144c-0.74186,0.36489 -1.67842,0.26156 -2.45215,0.16987c-0.71237,-0.08441 -1.35336,-0.09539 -1.81897,-0.746c-0.49707,-0.69459 -0.2808,-1.60102 -0.13968,-2.3723c0.30337,-0.68423 0.62182,-1.60266 1.39227,-1.89013c1.33096,-0.4966 2.61986,0.64365 3.38985,1.58908c0.33496,0.41127 0.63805,0.8869 0.71136,1.43045c0.00391,0.02898 -0.01874,0.39108 -0.03578,0.65243c0.00111,0.01891 0.00187,0.03781 0.00232,0.05671c0.0559,0.11855 0.03327,0.24582 0.03327,0.24582c-0.01672,0.09147 -0.03715,0.18581 -0.06127,0.28188c-0.00305,0.02176 -0.01059,0.062 -0.02827,0.10721c-0.20424,0.73953 -0.62127,1.55625 -1.23775,1.9598c-0.44191,0.28928 -1.00088,0.50473 -1.50503,0.65776l-0.22154,0.00948c0,0 -0.37513,-0.02455 -0.35058,-0.39968c0.02455,-0.37513 0.39968,-0.35058 0.39968,-0.35058l-0.04501,0.02105c0.8835,-0.26554 1.56601,-0.70982 1.96726,-1.42286z" fill="#525252"/><path d="M252.60646,175.77305c0.27067,0.36162 0.81048,0.92118 0.66816,1.43397c-0.00602,0.02169 -0.01254,0.04318 -0.01952,0.06449l0.01883,0.00123l-0.0289,0.44133c-0.02169,0.33148 -0.308,0.58262 -0.63949,0.56091c-0.05603,-0.00367 -0.10975,-0.01489 -0.16026,-0.03261c-0.55537,0.19588 -1.25979,0.10557 -1.8157,0.0397c-0.46557,-0.05516 -0.99329,0.00198 -1.29882,-0.43568c-0.3321,-0.47569 -0.12661,-1.1985 -0.03714,-1.72262c0.2061,-0.44601 0.44134,-1.23405 0.95526,-1.41872c0.69877,-0.2511 1.40978,0.21117 1.95956,0.73744c0.0188,0.01198 0.02912,0.01989 0.02912,0.01989z" fill="#0e0d0c"/></g><g data-paper-data="{&quot;index&quot;:null}" fill-rule="nonzero" stroke="none" stroke-width="0.5" stroke-linecap="butt"><path d="M239.06087,173.49354c-0.20718,0.01489 -0.41359,-0.06667 -0.60618,-0.14452c-0.33198,-0.13419 -0.84267,-0.55001 -0.92944,-0.89702c-0.18406,-0.73603 0.6684,-2.05365 1.46415,-2.05446c0.32748,-0.00034 0.77121,0.32794 0.96699,0.57464c0.03776,0.04758 0.0743,0.10618 0.1093,0.17107c0.21883,-0.21044 0.65127,-0.48308 0.85475,-0.49097c0.10555,-0.0041 0.79609,0.30765 0.94624,0.37332c0.54006,0.23619 1.08015,0.47235 1.62023,0.70854c2.89695,1.26687 5.64191,2.80005 8.53759,4.06637c0.29379,0.12912 0.66349,0.26406 0.90946,0.48295c0.54337,0.48351 0.81285,1.53792 0.25875,2.126c-0.1634,0.17343 -0.52514,0.24766 -0.81123,0.29639c-0.16442,0.12921 -0.37853,0.03557 -0.37853,0.03557c-0.77211,-0.33954 -1.60671,-0.4146 -2.39547,-0.71531c-2.20687,-0.84135 -4.26597,-2.02666 -6.54669,-2.66381c-0.82559,-0.36104 -1.67897,-0.66138 -2.50747,-1.02895c-0.34455,-0.15286 -0.62953,-0.22717 -0.84737,-0.57742c-0.09471,-0.15229 -0.14797,-0.31451 -0.17176,-0.48163c-0.1573,0.07488 -0.29987,0.20679 -0.47328,0.21925zM239.67971,172.14703c-0.02148,-0.03456 -0.03147,-0.06008 -0.03147,-0.06008c-0.10608,-0.27207 -0.2769,-0.90611 -0.67353,-0.93769c-0.27519,-0.02192 -0.77675,0.88823 -0.72109,1.11626c0.09242,0.37859 0.68592,0.50794 0.93798,0.33982l0.03085,-0.09592c0,0 0.16461,-0.21332 0.3957,-0.1394c0.01921,-0.07532 0.04007,-0.14979 0.06153,-0.22298zM252.15009,177.98897c0.18642,-0.01327 0.387,-0.00307 0.52146,-0.12146c0.16001,-0.14088 0.04625,-0.38164 0.01221,-0.52722c-0.12503,-0.53462 -0.48013,-0.642 -0.96052,-0.85092c-2.89584,-1.26639 -5.64075,-2.79954 -8.5376,-4.06636c-0.54006,-0.23619 -1.08015,-0.47236 -1.6202,-0.70855c-0.2113,-0.09241 -0.38786,-0.29779 -0.6181,-0.3108c-0.15044,-0.00851 -0.28414,0.14382 -0.35923,0.27446c-0.06306,0.10974 -0.0599,0.24598 -0.09227,0.36834c-0.09834,0.37175 -0.37367,0.93034 -0.1488,1.31667c0.13564,0.23301 0.67937,0.35646 0.8986,0.45233c0.68433,0.29925 1.38651,0.54083 2.0668,0.83831c2.28807,0.62837 4.3518,1.8245 6.56159,2.66928c0.74859,0.28617 1.53322,0.37524 2.27608,0.66588z" fill="#525252"/><path d="M239.65564,172.08821c0,0 0.00986,0.02612 0.03133,0.06068c-0.02146,0.07319 -0.04336,0.15002 -0.06258,0.22532c-0.2311,-0.07391 -0.39954,0.14232 -0.39954,0.14232l-0.03152,0.09611c-0.25206,0.16812 -0.85438,0.03395 -0.94681,-0.34464c-0.05567,-0.22801 0.45236,-1.14816 0.72755,-1.12625c0.39663,0.03158 0.57549,0.67434 0.68157,0.94643z" data-paper-data="{&quot;noHover&quot;:false,&quot;origItem&quot;:[&quot;Path&quot;,{&quot;applyMatrix&quot;:true,&quot;segments&quot;:[[[475.794,535.00135],[0,0],[-2.75029,2.74259]],[[467.95653,548.20608],[-1.72879,-5.00165],[1.19951,3.47034]],[[485.402,551.04465],[-2.48197,1.89348],[4.12088,-3.1438]],[[484.54456,537.80325],[3.39197,2.17571],[0,0]],[483.21123,537.93858],[[479.40376,533.85935],[0.33076,3.21005],[-1.02019,0.16718]],[[476.35846,534.29769],[1.00624,-0.12859],[-0.30672,0.4459]]],&quot;closed&quot;:true}]}" fill="#ffeb6e"/><path d="M249.88018,177.32739c-2.20978,-0.84476 -4.28715,-2.04602 -6.57523,-2.67438c-0.68029,-0.29749 -1.38233,-0.53989 -2.06666,-0.83916c-0.21922,-0.09587 -0.76289,-0.2196 -0.89852,-0.45261c-0.22487,-0.38632 0.05098,-0.9463 0.14933,-1.31805c0.03238,-0.12237 0.02939,-0.25897 0.09246,-0.36871c0.07509,-0.13064 0.20901,-0.28338 0.35947,-0.27486c0.23024,0.01301 0.40686,0.21831 0.61816,0.31071c0.54006,0.23619 1.08044,0.47192 1.62052,0.70811c2.89685,1.26683 5.65495,2.80663 8.55079,4.07301c0.48039,0.2089 0.8353,0.3169 0.96033,0.85151c0.03405,0.14558 0.14759,0.38683 -0.01242,0.52773c-0.13447,0.11838 -0.33522,0.10855 -0.52163,0.12182c-0.74286,-0.29065 -1.52795,-0.37895 -2.27654,-0.66512z" data-paper-data="{&quot;noHover&quot;:false,&quot;origItem&quot;:[&quot;Path&quot;,{&quot;applyMatrix&quot;:true,&quot;segments&quot;:[[[481.09232,351.20035],[0.41699,10.60131],[-1.15507,-2.20096]],[[476.83329,345.49316],[2.15917,1.00762],[-2.56962,-1.19916]],[[470.34355,348.15397],[1.59265,-1.19073],[-5.84861,4.37267]],[[465.09302,364.39363],[-0.01429,-6.96741],[0,42.03747]],[[461.03787,490.10328],[0,-42.05218],[0,7.83996]],[[461.03787,513.62315],[0,-7.83996],[0,3.06724]],[[460.54438,522.81163],[-1.0683,-2.87518],[0.69807,1.87877]],[[465.80336,525.72656],[-1.99229,-0.21876],[1.67344,0.18375]],[[470.78377,524.88799],[-1.66368,0.25762],[5.05436,-0.78266]],[[487.62181,519.68464],[-3.50945,4.79923],[2.11667,-2.89459]],[[488.34525,506.32388],[0,3.18234],[0,-9.93399]],[[487.54679,476.67022],[0,9.87543],[-4.53614,-31.23126]],[[485.10733,382.48536],[1.48188,31.43047],[-0.50201,-10.64746]]],&quot;closed&quot;:true}]}" fill="#0e0d0c"/></g><g><path d="M264.36991,174.10971c0.88064,2.24213 0.55037,4.27709 -0.99079,6.10483c-1.7374,1.70259 -3.75561,2.16903 -6.05457,1.39927c-2.11285,-0.9363 -3.29001,-2.55953 -3.53157,-4.86972c-0.02422,-2.25878 0.93233,-3.96856 2.86971,-5.12932c2.05738,-1.02137 4.03449,-0.89848 5.93141,0.36864c0.75119,0.57514 1.34314,1.2839 1.77584,2.12626z" fill="#0c0608" fill-rule="evenodd" stroke="none" stroke-width="1" stroke-linecap="butt"/><path d="M259.32771,181.65821c2.25646,-0.50678 3.74175,-1.85289 4.45588,-4.03834c0.34873,-1.26799 0.35923,-2.53893 0.03152,-3.81277c0.95462,1.75831 0.96219,3.51736 0.02273,5.27712c-1.0468,1.64973 -2.55018,2.50771 -4.51012,2.57399z" fill="#feffb1" fill-rule="evenodd" stroke="none" stroke-width="1" stroke-linecap="butt"/><path d="M263.81512,173.8071c0.32771,1.27384 0.31719,2.54478 -0.03153,3.81278c-0.71413,2.18546 -2.19941,3.53155 -4.45588,4.03835c-1.69358,-0.03818 -3.07692,-0.71448 -4.15016,-2.02896c-0.17247,-0.2263 -0.31748,-0.46847 -0.43506,-0.7264c-0.58982,-1.9559 -0.24871,-3.73283 1.02322,-5.33082c0.87451,-0.91554 1.93715,-1.5097 3.18796,-1.78249c0.89695,-0.15896 1.79131,-0.16189 2.68303,-0.00881c0.93321,0.45012 1.65934,1.12555 2.17841,2.02636z" fill="#ffeb6e" fill-rule="evenodd" stroke="none" stroke-width="1" stroke-linecap="butt"/><path d="M261.63669,171.78074c-0.89172,-0.15308 -1.78607,-0.15014 -2.68301,0.00881c-1.25081,0.27277 -2.31346,0.86693 -3.18797,1.7825c-1.27193,1.59799 -1.61304,3.37492 -1.02322,5.33082c-0.92128,-1.8408 -0.83474,-3.63137 0.25957,-5.37166c1.3353,-1.79624 3.11256,-2.5308 5.33174,-2.20374c0.45816,0.08468 0.89246,0.23577 1.3029,0.45327z" fill="#fec900" fill-rule="evenodd" stroke="none" stroke-width="1" stroke-linecap="butt"/><path d="M259.58148,175.85248c0.00356,0.08919 -0.02948,0.16419 -0.09907,0.22503c-0.10967,0.10298 -0.23685,0.17465 -0.38151,0.21495c0.03712,-0.0404 0.08413,-0.07359 0.14108,-0.09956c-0.07126,0.0172 -0.13924,0.02251 -0.20395,0.01597c0.23257,-0.04416 0.41371,-0.16296 0.54346,-0.35638z" fill="#79527e" fill-rule="evenodd" stroke="none" stroke-width="1" stroke-linecap="butt"/><path d="M258.79535,174.65061c-0.26581,0.0574 -0.47482,0.19713 -0.62705,0.41924c0.01704,-0.15071 0.09536,-0.26415 0.23491,-0.34028c0.06098,-0.02624 0.12197,-0.05245 0.18295,-0.07869c0.07732,-0.02453 0.14707,-0.0246 0.20922,-0.00027z" fill="#916796" fill-rule="evenodd" stroke="none" stroke-width="1" stroke-linecap="butt"/><path d="M259.1009,176.29245c-0.14077,0.00555 -0.28199,0.00051 -0.42366,-0.01513c-0.09049,-0.03169 -0.16554,-0.08216 -0.22509,-0.15137c0.18338,0.1045 0.37865,0.13211 0.58588,0.08289c0.06471,0.00654 0.13269,0.00125 0.20396,-0.01596c-0.05695,0.02598 -0.10395,0.05916 -0.14108,0.09957z" fill="#a87fae" fill-rule="evenodd" stroke="none" stroke-width="1" stroke-linecap="butt"/><path d="M260.31689,178.25735c-0.37323,-0.10761 -0.67643,-0.00608 -0.90963,0.30456c-0.04461,-0.02255 -0.05509,-0.05395 -0.0315,-0.0941c0.23734,-0.26536 0.53009,-0.36339 0.87825,-0.29406c0.03644,0.01657 0.05741,0.04446 0.06287,0.08359z" fill="#976e9d" fill-rule="evenodd" stroke="none" stroke-width="1" stroke-linecap="butt"/><g fill-rule="evenodd" stroke="none" stroke-width="1" stroke-linecap="butt"><path d="M260.61725,175.57827c-0.15116,-0.1875 -0.27548,-0.39765 -0.37298,-0.63053c-0.09187,-0.20849 -0.21081,-0.40252 -0.35674,-0.58202c0.00533,-0.03777 0.01071,-0.07551 0.01603,-0.11328c0.27573,0.15648 0.49985,0.36919 0.67232,0.63821c0.14793,0.22716 0.16169,0.45636 0.04136,0.6876z" fill="#191409"/><path d="M261.59108,177.8422c0.16508,0.44725 0.16301,0.89761 -0.00628,1.35106c-0.09824,-0.4483 -0.2202,-0.8931 -0.36584,-1.33439c0.12499,-0.05987 0.24901,-0.06547 0.37212,-0.01667z" fill="#1b160c"/><path d="M260.61725,175.57827c-0.03276,0.10377 -0.10012,0.14432 -0.20209,0.12163c-0.04047,-0.25111 -0.09744,-0.50183 -0.17089,-0.75215c0.0975,0.23288 0.22181,0.44304 0.37298,0.63053z" fill="#8f843d"/><path d="M260.75153,179.20246c0.0895,-0.42467 -0.04042,-0.75887 -0.38967,-1.00266c0.06137,-0.02973 0.12341,-0.03251 0.18606,-0.00834c0.25672,0.25829 0.3596,0.56556 0.30867,0.92186c-0.02034,0.04739 -0.05532,0.07712 -0.10504,0.08913z" fill="#9c8d50"/><path d="M260.75153,179.20246c-0.29648,0.48031 -0.69546,0.57792 -1.19694,0.29285c-0.19327,-0.22094 -0.28802,-0.47703 -0.28418,-0.76818c0.04148,-0.09704 0.0926,-0.18613 0.15336,-0.26717c0.23986,-0.29539 0.54712,-0.39827 0.92185,-0.30866c0.00542,0.01616 0.01085,0.03235 0.01624,0.0485c0.34926,0.24378 0.47917,0.57799 0.38967,1.00266z" fill="#0c0907"/><path d="M259.48506,175.90338c-0.15236,0.14554 -0.33561,0.24289 -0.54974,0.29198c-0.16311,-0.0077 -0.31958,-0.04527 -0.46938,-0.11264c-0.29026,-0.24551 -0.39317,-0.55283 -0.30867,-0.92186c0.04311,-0.0324 0.06464,-0.07561 0.06455,-0.12953c0.16788,-0.18883 0.37802,-0.31316 0.63053,-0.37299c0.46816,0.0342 0.74088,0.28468 0.81811,0.75128c-0.00501,0.18583 -0.06685,0.35038 -0.18541,0.49374z" fill="#0a0807"/><path d="M259.2741,175.43444c0.02165,0.06468 0.04333,0.1294 0.06498,0.19408c-0.08088,0.02706 -0.16171,0.05415 -0.2426,0.08123c-0.02165,-0.06468 -0.04334,-0.12939 -0.06498,-0.19408c0.08088,-0.02706 0.16171,-0.05415 0.24261,-0.08124z" fill="#d9d8d7"/><path d="M260.39522,178.94406c0.02165,0.06468 0.04333,0.1294 0.06497,0.19407c-0.09881,0.0538 -0.19052,0.04852 -0.27509,-0.01582c0.02878,-0.10228 0.09883,-0.16171 0.21011,-0.17826z" fill="#e8e8e8"/><path d="M259.48506,175.90338c0.00305,0.14208 -0.06423,0.23653 -0.20188,0.28343c-0.12134,0.02434 -0.23726,0.02721 -0.34786,0.00855c0.21413,-0.04909 0.39738,-0.14643 0.54974,-0.29198z" fill="#766b30"/><path d="M260.34562,178.15128c-0.37473,-0.08961 -0.682,0.01327 -0.92185,0.30865c-0.02745,-0.09392 0.00211,-0.16679 0.0887,-0.21855c0.16708,-0.09194 0.34495,-0.15148 0.53371,-0.1787c0.11858,-0.01008 0.21836,0.01946 0.29946,0.08858z" fill="#958949"/><path d="M258.85237,174.65835c-0.25251,0.05983 -0.46265,0.18416 -0.63053,0.37299c0.01372,-0.09487 0.05945,-0.17315 0.13722,-0.2348c0.15801,-0.09649 0.32244,-0.14254 0.49332,-0.13819z" fill="#7a7245"/><path d="M258.15729,175.16086c-0.08451,0.36904 0.0184,0.67636 0.30867,0.92186c-0.20266,-0.04638 -0.31882,-0.17837 -0.34841,-0.39595c-0.0464,-0.18146 -0.06284,-0.36481 -0.04927,-0.55006c0.02762,0.02075 0.05728,0.02879 0.08902,0.02415z" fill="#c7b964"/></g><path d="M257.44191,179.47401c0,0 -0.70704,-0.68169 -0.86822,-1.16307c-0.13958,-0.41688 -0.04339,-1.55965 -0.04339,-1.55965" fill="none" fill-rule="nonzero" stroke="#000000" stroke-width="0.5" stroke-linecap="round"/><g stroke="none" stroke-width="1" stroke-linecap="butt"><path d="M266.18651,175.39971c-0.07764,0.02688 -0.15528,0.05374 -0.23291,0.08061c-0.02666,-0.06688 -0.03263,-0.13435 -0.01792,-0.20244c0.10036,-0.02524 0.18814,-0.07305 0.26338,-0.14331c0.06438,0.02284 0.08827,0.06673 0.07166,0.13167c-0.03721,0.0424 -0.06528,0.08691 -0.0842,0.13348z" fill="#4a4b4b" fill-rule="evenodd"/><path d="M264.28379,176.6842c0.33265,-0.25681 0.69665,-0.46103 1.09201,-0.61269c0.26846,-0.22274 0.54407,-0.43118 0.82685,-0.62523c0.04817,0.06602 0.04129,0.14663 -0.02062,0.24187c-0.62129,0.37648 -1.23253,0.77061 -1.83375,1.18238c-0.02149,-0.06209 -0.043,-0.12424 -0.0645,-0.18633z" fill="#4c4c4c" fill-rule="evenodd"/><path d="M264.83006,180.82463c-0.02362,0.12362 -0.03258,0.24842 -0.02689,0.37445c-0.02906,0.15419 -0.07144,0.30796 -0.12722,0.46133c-0.03592,0.11488 -0.09982,0.20653 -0.19173,0.27501c0.00425,-0.12213 -0.03997,-0.12424 -0.13257,-0.00627c-0.26473,-0.04301 -0.26833,-0.12871 -0.01074,-0.25709c-0.05272,-0.02798 -0.10468,-0.02735 -0.15587,0.00179c-0.03408,-0.09592 -0.08183,-0.18372 -0.14331,-0.26338c0.05193,0.00566 0.10152,0.02323 0.1487,0.05286c-0.00334,-0.08408 -0.02248,-0.1644 -0.05732,-0.24098c0.07751,0.1114 0.16708,0.21947 0.26872,0.32429c0.08465,-0.24931 0.12585,-0.50704 0.12366,-0.77308c0.04897,-0.06285 0.11347,-0.10259 0.1935,-0.11913c0.02922,0.05884 0.03255,0.11857 0.00986,0.17916c0.03515,0.01204 0.06891,0.00906 0.10122,-0.00895z" fill="#292f2a" fill-rule="evenodd"/><path d="M265.97156,174.32652c-0.02893,0.31224 -0.04087,0.62936 -0.03587,0.95134c-0.01473,0.0681 -0.00874,0.13559 0.01791,0.20246c0.07764,-0.02688 0.15527,-0.05375 0.23291,-0.08062c0.00537,0.01552 0.01075,0.03108 0.01611,0.04658c-0.28277,0.19405 -0.55837,0.40249 -0.82685,0.62524c-0.39535,0.15165 -0.75935,0.35588 -1.09201,0.61269c-0.06484,0.07732 -0.06902,0.16572 -0.01255,0.26516c0.05631,-0.03185 0.10827,-0.03248 0.15587,-0.00179c-0.01552,0.00536 -0.03107,0.01075 -0.04658,0.01612c-0.12656,0.08845 -0.12806,0.18459 -0.00448,0.28845c-0.01706,0.04502 -0.02691,0.09194 -0.02956,0.14064c-0.10992,-0.05324 -0.22162,-0.04937 -0.33502,0.01163c-0.00069,0.12011 -0.0019,0.24229 -0.0036,0.36638c-0.04936,-0.06815 -0.08397,-0.14312 -0.10391,-0.22485c-0.07298,0.02427 -0.14821,0.03292 -0.22574,0.02597c-0.04181,0.15531 -0.10154,0.15861 -0.17916,0.00985c0.04659,-0.01613 0.09316,-0.03224 0.13975,-0.04836c0.07312,-0.03646 0.1484,-0.0451 0.22575,-0.02597c-0.00876,-0.09989 -0.03322,-0.19576 -0.07345,-0.28755c0.04659,-0.01613 0.09316,-0.03224 0.13975,-0.04836c0.02149,0.06209 0.04301,0.12424 0.0645,0.18633c0.07765,-0.02688 0.15526,-0.05373 0.23291,-0.08062c-0.03224,-0.09316 -0.06451,-0.18632 -0.09674,-0.27949c-0.31594,0.09198 -0.32131,0.07642 -0.01611,-0.04658c-0.02687,-0.07766 -0.05373,-0.15526 -0.08061,-0.23291c-0.2538,0.07047 -0.25918,0.0549 -0.01611,-0.04658c-0.02687,-0.07766 -0.05374,-0.15525 -0.08062,-0.23291c-0.20393,0.07283 -0.22751,0.05489 -0.07077,-0.05375c0.01268,-0.05097 0.01209,-0.10292 -0.00179,-0.15587c-0.0846,-0.12538 -0.17956,-0.24901 -0.28485,-0.37088c-0.00269,-0.17689 -0.05135,-0.34261 -0.146,-0.49717c-0.03303,-0.03698 -0.07486,-0.05729 -0.12541,-0.06093c-0.0452,0.06531 -0.09956,0.08412 -0.16303,0.05643c0.05662,-0.06926 0.12891,-0.11165 0.21679,-0.1272c-0.01938,-0.06787 -0.05639,-0.12465 -0.11106,-0.17021c0.03958,-0.07056 0.05688,-0.14612 0.05197,-0.22664c0.10469,0.2345 0.23188,0.45129 0.38159,0.65037c-0.01949,-0.13128 -0.05472,-0.25821 -0.10569,-0.38073c0.2626,-0.07415 0.50566,-0.17564 0.7292,-0.30454c0.50069,-0.29399 1.02265,-0.5442 1.56589,-0.75062c-0.02149,-0.06209 -0.04301,-0.12424 -0.0645,-0.18633c-0.2671,0.08379 -0.52836,0.18293 -0.78384,0.29737c-0.47796,0.31064 -0.99782,0.51667 -1.55961,0.61805c0.02687,0.07766 0.05374,0.15526 0.08062,0.23291c-0.13865,-0.10188 -0.20251,-0.23625 -0.19168,-0.40312c0.29846,-0.00215 0.60183,-0.055 0.91014,-0.15853c0.32898,-0.17619 0.66222,-0.3437 0.99973,-0.5025c0.175,-0.05055 0.35117,-0.09416 0.52853,-0.13077c-0.02687,-0.07766 -0.05374,-0.15525 -0.08062,-0.23291c-0.1853,0.03872 -0.36923,0.08497 -0.55183,0.13882c-0.31516,0.18101 -0.64064,0.34583 -0.97644,0.49445c-0.18258,0.05386 -0.36653,0.1001 -0.55182,0.13883c0.01846,-0.05354 0.05965,-0.08518 0.12363,-0.09494c0.61559,-0.27513 1.24146,-0.52655 1.87762,-0.75419c-0.0134,-0.06432 -0.04775,-0.11331 -0.10302,-0.14692c-0.17449,0.01559 -0.34558,0.04872 -0.51329,0.09942c-0.58879,0.32475 -1.21225,0.55797 -1.87045,0.69954c0.05066,0.2124 0.1707,0.2578 0.3601,0.13617c-0.06671,0.07323 -0.15447,0.12103 -0.26336,0.14332c0.0239,0.0466 0.03228,0.09586 0.02508,0.1478c-0.06474,-0.09495 -0.15371,-0.15111 -0.26695,-0.16841c-0.01014,0.02088 -0.02031,0.04183 -0.03045,0.06271c-0.07078,-0.20407 -0.19857,-0.24682 -0.3834,-0.12813c0.1267,0.23281 0.24374,0.47048 0.35113,0.71307c0.04661,-0.0239 0.09586,-0.03228 0.14781,-0.02507c-0.0654,0.11533 -0.10034,0.24045 -0.10483,0.37534c0.18454,0.45858 0.35355,0.92172 0.50697,1.38941c0.04541,0.16946 0.06806,0.33548 0.06806,0.49807c-0.17569,-0.55705 -0.37931,-1.09517 -0.61086,-1.61426c-0.65603,-1.42144 -1.4843,-2.73438 -2.48481,-3.93894c-0.148,-0.13494 -0.30264,-0.25528 -0.46402,-0.36103c-0.07529,-0.11532 -0.17406,-0.1873 -0.29627,-0.21596c-0.07757,-0.13347 -0.2126,-0.22075 -0.36123,-0.24056c-0.00251,-0.00879 -0.00528,-0.01755 -0.0083,-0.02632c-0.00544,-0.01571 -0.01159,-0.03096 -0.0184,-0.04576c0.01036,-0.00053 0.02076,-0.00111 0.0312,-0.00175c0.64291,-0.20887 1.29299,-0.3904 1.95019,-0.54457c0.33042,-0.01648 0.66577,-0.00214 1.00599,0.04305c0.4221,0.13698 0.83956,0.28812 1.25231,0.45333c0.16199,0.00334 0.32323,0.01707 0.48374,0.04122c0.24316,0.17055 0.47398,0.36018 0.69243,0.56887c0.22748,0.47512 0.43052,0.96127 0.60909,1.4584c0.12993,0.20917 0.28279,0.39965 0.45864,0.57154c0.14518,0.27791 0.20309,0.57084 0.17375,0.8788z" fill="#0e0d0c" fill-rule="nonzero"/><path d="M264.58853,171.98842c-0.44371,0.12097 -0.88117,0.26368 -1.31236,0.42815c-0.31334,-0.03375 -0.62568,-0.08213 -0.93701,-0.14517c-0.1696,-0.00385 -0.33292,0.0266 -0.49,0.09134c0.01654,0.08004 0.05628,0.14452 0.11914,0.19351c0.11562,-0.0141 0.22697,-0.04398 0.33413,-0.08957c-0.10002,0.07165 -0.20573,0.14304 -0.31713,0.21409c-0.02088,-0.01014 -0.04182,-0.02031 -0.06271,-0.03046c-0.00413,0.09418 0.00214,0.18767 0.01879,0.28038c0.09227,0.10051 0.13258,0.21696 0.12092,0.34937c0.12435,0.00407 0.2211,0.05752 0.29023,0.16036c0.02693,-0.0895 0.08607,-0.1447 0.17737,-0.16571c0.01929,0.04982 0.05096,0.09101 0.09494,0.12363c0.09423,0.00233 0.18264,0.00653 0.26516,0.01254c-0.09378,0.01765 -0.16602,0.06002 -0.21679,0.12719c0.05114,0.06665 0.09351,0.13893 0.12718,0.2168c0.00798,0.04898 0.03427,0.07462 0.07883,0.07704c0.02149,0.06209 0.04301,0.12424 0.0645,0.18633c0.02023,0.0387 0.01547,0.07514 -0.01433,0.10929c-0.16771,-0.21284 -0.2298,-0.19134 -0.18633,0.0645c-0.29161,0.03417 -0.42569,-0.10199 -0.40219,-0.4085c-0.13195,-0.02554 -0.24184,-0.09184 -0.32966,-0.19889c0.01461,-0.02666 0.02212,-0.05534 0.0224,-0.086c-0.22429,-0.27792 -0.43033,-0.57174 -0.61806,-0.88149c0.04041,-0.06244 0.09714,-0.09944 0.17021,-0.11106c-0.01857,-0.0942 -0.06872,-0.16374 -0.1505,-0.20873c-0.006,0.0568 0.01785,0.10071 0.07167,0.13169c-0.14455,0.12103 -0.24367,0.08574 -0.29741,-0.10572c0.04659,-0.01613 0.09317,-0.03224 0.13976,-0.04837c-0.04684,-0.16928 -0.09105,-0.1714 -0.13258,-0.00628c-0.19924,-0.1746 -0.38079,-0.37257 -0.54463,-0.59394c0.04609,-0.07301 0.10583,-0.07628 0.17916,-0.00985c-0.00948,-0.09989 0.02333,-0.18078 0.09855,-0.24276c0.19316,-0.13561 0.39444,-0.25743 0.60379,-0.36547c0.263,-0.06917 0.50521,-0.0226 0.7265,0.13977c-0.02021,0.0312 -0.04857,0.04972 -0.0851,0.05553c-0.44251,-0.08143 -0.84147,0.02193 -1.19681,0.30991c0.60854,-0.33998 1.19081,-0.31549 1.74682,0.07352c-0.26784,-0.09739 -0.54164,-0.18518 -0.82144,-0.2634c-0.2941,0.06325 -0.56825,0.17549 -0.82236,0.33678c0.04241,0.03722 0.08691,0.06528 0.13348,0.0842c0.02626,0.0257 0.05257,0.05134 0.07883,0.07704c0.01205,0.04778 0.04105,0.0812 0.08689,0.10032c0.22276,-0.05974 0.4455,-0.11941 0.66827,-0.17913c0.37377,0.09822 0.74135,0.20573 1.10273,0.32253c-0.0841,0.02957 -0.16981,0.03315 -0.2571,0.01074c-0.25558,-0.08539 -0.51121,-0.17083 -0.7668,-0.25623c-0.1084,0.01807 -0.21741,0.02971 -0.32697,0.03492c-0.08933,0.06362 -0.18222,0.12186 -0.2786,0.17466c0.05863,0.05487 0.11384,0.11401 0.16571,0.17737c0.23407,-0.04543 0.47024,-0.06636 0.70859,-0.06268c0.38318,0.14665 0.77047,0.16044 1.16185,0.04125c0.31261,-0.2094 0.64943,-0.2912 1.01046,-0.24542z" fill="#1a1a1b" fill-rule="evenodd"/><path d="M262.74499,171.63539c-0.55601,-0.38902 -1.13827,-0.41351 -1.74681,-0.07352c0.35534,-0.28799 0.75429,-0.39132 1.1968,-0.3099c0.20822,0.14002 0.43276,0.23617 0.67363,0.28847c0.09948,0.0652 0.21145,0.08727 0.33592,0.06631c0.31463,-0.09743 0.62519,-0.2049 0.93165,-0.32246c0.139,-0.01886 0.2692,0.00562 0.39057,0.07346c-0.11314,0.0232 -0.23257,0.02979 -0.35832,0.01969c-0.44843,0.24592 -0.92293,0.33189 -1.42344,0.25793z" fill="#323232" fill-rule="evenodd"/><path d="M262.94729,175.68623c0.23157,0.5191 0.43518,1.05721 0.61088,1.61427c0.02687,0.07766 0.05375,0.15527 0.08062,0.23291c-0.04659,0.01613 -0.09316,0.03224 -0.13975,0.04836c-0.13964,-0.64428 -0.32354,-1.27612 -0.55175,-1.89554z" fill="#241e09" fill-rule="evenodd"/><path d="M264.30893,174.79764c-0.22353,0.12889 -0.4666,0.2304 -0.72919,0.30454c0.05097,0.12252 0.08621,0.24944 0.1057,0.38072c-0.1497,-0.19909 -0.2769,-0.41587 -0.38158,-0.65036c0.0049,0.08051 -0.01237,0.15608 -0.05197,0.22664c0.05467,0.04556 0.09169,0.10232 0.11106,0.1702c-0.08788,0.01555 -0.16017,0.05794 -0.21679,0.12719c0.06348,0.02769 0.11784,0.00888 0.16304,-0.05642c0.05055,0.00363 0.09237,0.02394 0.12542,0.06092c0.09466,0.15456 0.1433,0.3203 0.146,0.49718c0.1053,0.12187 0.20025,0.24549 0.28485,0.37086c0.01388,0.05294 0.01446,0.10489 0.00179,0.15587c-0.15676,0.10866 -0.13318,0.12659 0.07076,0.05375c0.02687,0.07766 0.05374,0.15526 0.08062,0.23291c-0.24305,0.10149 -0.23767,0.11705 0.01613,0.04659c0.02687,0.07766 0.05373,0.15525 0.08061,0.23291c-0.3052,0.12299 -0.29981,0.13856 0.01611,0.04658c0.03224,0.09316 0.06449,0.18632 0.09674,0.27949c-0.07765,0.02688 -0.15526,0.05373 -0.23291,0.08061c-0.02149,-0.06209 -0.043,-0.12423 -0.06449,-0.18632c-0.04659,0.01613 -0.09316,0.03224 -0.13975,0.04836c0.04023,0.09181 0.06469,0.18767 0.07344,0.28755c-0.07736,-0.01913 -0.15261,-0.0105 -0.22573,0.02598c-0.02687,-0.07766 -0.05374,-0.15526 -0.08061,-0.23291c0,-0.16259 -0.02267,-0.3286 -0.06807,-0.49807c-0.15343,-0.46769 -0.32243,-0.93082 -0.50697,-1.38941c0.00449,-0.13488 0.03942,-0.26001 0.10482,-0.37534c-0.05195,-0.00721 -0.1012,0.00119 -0.1478,0.02508c-0.10738,-0.24258 -0.22443,-0.48024 -0.35111,-0.71307c0.18483,-0.11869 0.31261,-0.07596 0.38339,0.12812c0.01014,-0.02088 0.02032,-0.04182 0.03046,-0.06271c0.11323,0.0173 0.20221,0.07346 0.26694,0.16842c0.00721,-0.05195 -0.00116,-0.10121 -0.02507,-0.14781c0.10888,-0.02229 0.19666,-0.07011 0.26337,-0.14332c0.08462,-0.0441 0.16762,-0.05546 0.24903,-0.03403c-0.06396,0.00977 -0.10518,0.04141 -0.12364,0.09495c-0.10869,0.03762 -0.21739,0.07524 -0.32607,0.11286c0.01612,0.04658 0.03225,0.09317 0.04838,0.13975c-0.01083,0.16686 0.05303,0.30124 0.19168,0.40312c0.2594,-0.04029 0.51322,-0.11074 0.76144,-0.21137z" fill="#272726" fill-rule="evenodd"/><path d="M264.98089,172.21776c0.01192,0.05253 -0.00839,0.09434 -0.06093,0.12541c-0.23653,-0.00374 -0.47004,0.02493 -0.70052,0.08598c-0.26293,0.14186 -0.53972,0.24637 -0.83042,0.3135c-0.40491,0.01177 -0.80176,0.07089 -1.19052,0.17733c-0.04776,-0.08779 -0.09556,-0.17558 -0.14331,-0.26337c0.12253,-0.05096 0.24946,-0.08618 0.38073,-0.10569c0.29801,0.05903 0.59958,0.07635 0.90475,0.05199c0.42461,-0.12959 0.84923,-0.25913 1.27386,-0.38873c0.12281,0.01675 0.24493,0.01799 0.36637,0.0036z" fill="#515151" fill-rule="evenodd"/><path d="M264.58853,171.98842c-0.36104,-0.04577 -0.69786,0.03601 -1.01047,0.24541c-0.39138,0.11918 -0.77867,0.10541 -1.16185,-0.04125c-0.23834,-0.00368 -0.4745,0.01725 -0.70859,0.06268c-0.05187,-0.06337 -0.10708,-0.1225 -0.16572,-0.17736c0.09637,-0.05281 0.18926,-0.11105 0.2786,-0.17468c0.10957,-0.00522 0.21856,-0.01686 0.32698,-0.03493c0.25558,0.08539 0.5112,0.17084 0.76679,0.25624c0.08731,0.02242 0.17301,0.01884 0.2571,-0.01075c-0.36138,-0.11679 -0.72895,-0.22431 -1.10272,-0.32252c-0.22276,0.05974 -0.44551,0.1194 -0.66827,0.17913c-0.04584,-0.01913 -0.07484,-0.05256 -0.0869,-0.10034c0.25036,-0.12849 0.51158,-0.22761 0.78383,-0.29737c0.18752,0.03942 0.35475,0.12066 0.50165,0.24368c0.16798,0.05913 0.33997,0.10392 0.51597,0.1344c0.37803,-0.11347 0.75608,-0.2269 1.1341,-0.34037c0.14572,0.0191 0.29143,0.03825 0.43714,0.05734c0.05585,0.01812 0.07704,0.05424 0.0636,0.10839c-0.32277,-0.07967 -0.62883,-0.03461 -0.91819,0.13523c0.32627,-0.11298 0.65355,-0.12193 0.9818,-0.02683c-0.06816,0.04936 -0.14312,0.08395 -0.22484,0.10391z" fill="#4f4f4f" fill-rule="evenodd"/><path d="M264.65109,176.08761c-0.14835,0.09839 -0.30839,0.18859 -0.48016,0.27051c-0.02149,-0.06209 -0.04299,-0.12424 -0.06449,-0.18632c0.10718,-0.04616 0.2105,-0.09931 0.30994,-0.15944c0.09591,-0.01759 0.17414,0.00749 0.23471,0.07525z" fill="#4f4e4f" fill-rule="evenodd"/><path d="M264.36625,175.71674c0.00537,0.01552 0.01075,0.03108 0.01611,0.04658c-0.02924,0.05134 -0.04418,0.10865 -0.04481,0.17199c-0.06671,0.07323 -0.15448,0.12102 -0.26337,0.14332c-0.03604,-0.06462 -0.042,-0.13208 -0.01792,-0.20244c0.09056,-0.07693 0.19387,-0.13012 0.30996,-0.15944z" fill="#4d4c49" fill-rule="evenodd"/><path d="M264.74425,176.05538c-0.03106,0.01075 -0.0621,0.02148 -0.09315,0.03224c-0.06056,-0.06777 -0.13878,-0.09285 -0.23471,-0.07525c-0.008,-0.04899 -0.03427,-0.07462 -0.07884,-0.07704c0.00062,-0.06332 0.01555,-0.12066 0.0448,-0.17199c0.06211,-0.0215 0.12423,-0.04299 0.18632,-0.06449c0.01612,0.04658 0.03224,0.09316 0.04836,0.13974c-0.24307,0.1015 -0.23768,0.11706 0.01612,0.04658c0.02039,0.06904 0.05739,0.12577 0.11106,0.17021z" fill="#412b1b" fill-rule="evenodd"/><path d="M263.7053,171.09438c-0.13992,0.16909 -0.32356,0.24135 -0.55093,0.21676c-0.26264,-0.02699 -0.51288,-0.09686 -0.75068,-0.20964c0.07878,-0.04379 0.08355,-0.08024 0.01433,-0.10928c-0.25074,-0.09574 -0.51111,-0.14475 -0.78113,-0.14696c-0.40456,0.07931 -0.80354,0.1826 -1.19682,0.3099c0.34639,-0.15469 0.7035,-0.27828 1.07139,-0.37082c0.15933,-0.0096 0.31787,-0.00366 0.47568,0.01793c0.05013,-0.03541 0.04207,-0.05869 -0.02419,-0.06988c-0.13991,-0.01403 -0.28026,-0.0176 -0.42102,-0.01076c-0.45127,0.10366 -0.89951,0.2153 -1.34461,0.33498c-0.06271,-0.03046 -0.12541,-0.06093 -0.18812,-0.09137c0.34574,-0.15388 0.70019,-0.28526 1.06332,-0.39411c-0.41952,0.08856 -0.83399,0.19723 -1.24337,0.32602c0.69696,-0.32669 1.42794,-0.47535 2.19294,-0.44604c0.53363,0.14294 1.06036,0.3084 1.58017,0.49634c-0.10455,0.03849 -0.21114,0.03192 -0.3198,-0.01972c-0.03267,0.02737 -0.05567,0.06141 -0.06897,0.10211c0.07287,0.00957 0.14571,0.01911 0.21858,0.02868c-0.02569,0.02626 -0.05136,0.05257 -0.07704,0.07883c0.11841,-0.00645 0.23515,-0.02078 0.35026,-0.04298z" fill="#222222" fill-rule="evenodd"/><path d="M262.94378,174.01824c-0.02149,-0.06209 -0.04301,-0.12424 -0.0645,-0.18633c0.40542,-0.08143 0.80974,-0.16921 1.21294,-0.26332c0.40278,-0.19438 0.82203,-0.33949 1.25772,-0.43531c0.02628,0.0257 0.05255,0.05135 0.07883,0.07704c-0.45159,0.15103 -0.89111,0.33794 -1.31864,0.56071c-0.348,0.10105 -0.69766,0.19599 -1.04899,0.28484c-0.0369,-0.02463 -0.07603,-0.03718 -0.11735,-0.03763z" fill="#4f4f4f" fill-rule="evenodd"/><path d="M262.89005,173.4109c-0.08253,-0.00602 -0.17092,-0.01022 -0.26515,-0.01255c-0.04399,-0.03261 -0.07567,-0.07381 -0.09494,-0.12363c0.36829,-0.1005 0.74423,-0.16974 1.12782,-0.20778c0.45576,-0.15508 0.9168,-0.27986 1.38313,-0.3744c0.0818,0.04925 0.07194,0.09613 -0.02956,0.14064c-0.70142,0.21715 -1.40851,0.40973 -2.12129,0.57771z" fill="#505050" fill-rule="evenodd"/><path d="M264.30893,174.79764c-0.24823,0.10062 -0.50204,0.17111 -0.76143,0.21137c-0.02687,-0.07766 -0.05374,-0.15526 -0.08062,-0.23291c0.56179,-0.10138 1.08166,-0.30741 1.55961,-0.61805c0.25546,-0.11445 0.51675,-0.21359 0.78384,-0.29737c0.02149,0.06209 0.04301,0.12424 0.0645,0.18633c-0.54324,0.20643 -1.06521,0.45664 -1.5659,0.75063z" fill="#525252" fill-rule="evenodd"/><path d="M263.75715,174.25835c-0.08142,-0.02143 -0.16442,-0.01006 -0.24904,0.03404c-0.1894,0.12163 -0.30943,0.07623 -0.3601,-0.13617c0.6582,-0.14157 1.28169,-0.37479 1.87045,-0.69954c0.16772,-0.05069 0.33882,-0.08384 0.51329,-0.09942c0.05527,0.03361 0.08961,0.0826 0.10302,0.14692c-0.63617,0.22765 -1.26203,0.47906 -1.87762,0.75419z" fill="#515151" fill-rule="evenodd"/><path d="M265.04539,172.40409c0.03604,0.06462 0.04199,0.13209 0.0179,0.20246c-0.20637,-0.02361 -0.40883,-0.00572 -0.60736,0.05371c-0.24905,0.13252 -0.51031,0.23166 -0.78384,0.29739c-0.41136,0.0644 -0.82106,0.1366 -1.22905,0.21674c-0.06285,-0.04897 -0.1026,-0.11346 -0.11913,-0.1935c0.40555,-0.1039 0.81793,-0.1684 1.23711,-0.19345c0.26474,-0.06555 0.51824,-0.16198 0.76055,-0.28932c0.2383,-0.05723 0.47958,-0.08857 0.72382,-0.09403z" fill="#4e4e4e" fill-rule="evenodd"/><path d="M263.17138,172.11378c0.20864,-0.05047 0.41855,-0.09704 0.62976,-0.13972c-0.20079,0.11849 -0.41072,0.16505 -0.62976,0.13972z" fill="#0b0b0b" fill-rule="evenodd"/><path d="M262.86861,171.54046c-0.12061,-0.07807 -0.24868,-0.14672 -0.38429,-0.20605c0.01284,-0.01314 0.02568,-0.02627 0.03852,-0.03941c0.21523,0.09508 0.44186,0.14705 0.67991,0.1559c0.30038,-0.0866 0.6008,-0.17315 0.90119,-0.25974c-0.37772,0.25166 -0.78949,0.36809 -1.23532,0.34933z" fill="#333333" fill-rule="evenodd"/><path d="M265.45553,175.54838c-0.07297,0.07669 -0.09269,0.17043 -0.05914,0.28128c-0.08778,0.04285 -0.17856,0.05689 -0.27232,0.04208c-0.05823,0.17801 -0.17947,0.25471 -0.36371,0.23021c-0.00537,-0.01552 -0.01075,-0.03108 -0.01611,-0.04658c-0.05368,-0.04444 -0.0907,-0.10116 -0.11107,-0.17021c-0.25381,0.07048 -0.25919,0.0549 -0.01611,-0.04658c-0.01612,-0.04658 -0.03225,-0.09317 -0.04838,-0.13975c-0.06211,0.0215 -0.12423,0.04299 -0.18632,0.06449c-0.00537,-0.01552 -0.01075,-0.03107 -0.01611,-0.04658c0.08954,-0.08133 0.14029,-0.18585 0.15229,-0.31354c0.22303,0.02776 0.43296,-0.01883 0.62976,-0.13972c0.02423,-0.04339 0.02634,-0.08757 0.00628,-0.13257c0.10314,0.07781 0.15627,0.18112 0.15944,0.30996c0.06413,0.01772 0.11131,0.05355 0.14154,0.1075z" fill="#cfa55b" fill-rule="evenodd"/><path d="M264.87865,175.5394c0.04561,0.10717 0.07545,0.21852 0.08956,0.33414c-0.05416,0.08274 -0.12164,0.08873 -0.20246,0.01791c-0.05489,-0.08391 -0.09489,-0.17439 -0.12002,-0.27142c0.07764,-0.02688 0.15527,-0.05375 0.23291,-0.08062z" fill="#322018" fill-rule="evenodd"/><path d="M262.30244,172.46669c-0.10716,0.04559 -0.21852,0.07547 -0.33413,0.08957c-0.06285,-0.04897 -0.10261,-0.11347 -0.11914,-0.19351c0.15708,-0.06475 0.32041,-0.09519 0.49,-0.09134c0.31133,0.06303 0.62367,0.11141 0.93701,0.14517c0.43118,-0.16447 0.86864,-0.30717 1.31236,-0.42815c0.08188,0.02012 0.16279,0.05294 0.24277,0.09854c-0.51029,0.11693 -1.01791,0.25784 -1.5229,0.42276c-0.3376,0.00136 -0.67291,-0.01299 -1.00598,-0.04304z" fill="#555555" fill-rule="evenodd"/><path d="M265.20471,175.42655c0.03224,0.09316 0.0645,0.18633 0.09674,0.27949c-0.19829,0.09148 -0.30816,0.02518 -0.32965,-0.19889c0.07764,-0.02688 0.15526,-0.05373 0.23291,-0.08062z" fill="#402515" fill-rule="evenodd"/><path d="M262.80044,173.75488c-0.03367,-0.07785 -0.07605,-0.15015 -0.12718,-0.2168c0.30012,-0.10258 0.60857,-0.16588 0.92537,-0.18988c0.53319,-0.17244 1.06917,-0.33188 1.60799,-0.4783c0.01612,0.04658 0.03224,0.09316 0.04836,0.13975c-0.41973,0.14533 -0.8336,0.30594 -1.24159,0.48189c-0.40438,0.08305 -0.80868,0.17082 -1.21294,0.26332z" fill="#4f4f4f" fill-rule="evenodd"/><path d="M265.45553,175.54838c-0.03022,-0.05396 -0.07741,-0.0898 -0.14155,-0.10751c-0.00315,-0.12885 -0.05629,-0.23214 -0.15944,-0.30994c0.17738,-0.18293 0.38877,-0.32568 0.63425,-0.42816c0.02674,0.06533 0.03272,0.13285 0.01792,0.20245c-0.11422,0.09587 -0.2301,0.18813 -0.34758,0.27679c-0.01493,0.05733 0.00118,0.10391 0.04836,0.13975c0.04314,-0.12186 0.12795,-0.20338 0.2544,-0.24455c0.02149,0.06209 0.04301,0.12424 0.0645,0.18633c-0.11515,0.10156 -0.23878,0.19651 -0.37088,0.28485z" fill="#52443b" fill-rule="evenodd"/><path d="M261.23467,171.793c-0.04656,-0.01894 -0.09107,-0.047 -0.13348,-0.0842c0.25412,-0.16129 0.52825,-0.27354 0.82236,-0.33679c0.2798,0.07822 0.55361,0.16601 0.82145,0.26339c0.18471,0.10513 0.38505,0.13139 0.60108,0.07885c0.31592,-0.09197 0.63184,-0.18389 0.94777,-0.27587c0.12269,0.0012 0.23738,0.0311 0.34399,0.08959c-0.09824,0.03233 -0.20215,0.03351 -0.31174,0.00357c-0.34698,0.10272 -0.69396,0.2054 -1.04095,0.30813c-0.14103,0.02596 -0.28138,0.02237 -0.42103,-0.01077c-0.26652,-0.15547 -0.54841,-0.26655 -0.84562,-0.33326c-0.26788,0.08009 -0.52913,0.17922 -0.78384,0.29737z" fill="#383838" fill-rule="evenodd"/><path d="M264.76036,176.10196c0.18421,0.0245 0.30546,-0.0522 0.36372,-0.2302c0.09377,0.01479 0.18453,0.00075 0.2723,-0.04209c0.09381,-0.16507 0.21686,-0.31197 0.36909,-0.44072c0.08359,0.0406 0.10511,0.10274 0.0645,0.18633c-0.12793,0.14755 -0.27454,0.27655 -0.43986,0.38698c-0.35692,0.14253 -0.69528,0.32044 -1.01498,0.53385c-0.05196,0.00061 -0.10392,0.00117 -0.15586,0.00178c0.01015,-0.02089 0.0203,-0.04182 0.03046,-0.0627c0.18915,-0.09238 0.35937,-0.20345 0.51061,-0.33322z" fill="#4e4948" fill-rule="evenodd"/><path d="M263.35581,174.60592c-0.01612,-0.04658 -0.03224,-0.09317 -0.04836,-0.13975c0.10869,-0.03762 0.2174,-0.07524 0.32608,-0.11286c0.1853,-0.03872 0.36923,-0.08497 0.55182,-0.13883c0.3358,-0.14863 0.66129,-0.31342 0.97644,-0.49444c0.18258,-0.05386 0.36652,-0.10011 0.55182,-0.13883c0.02687,0.07766 0.05372,0.15526 0.08061,0.23291c-0.17735,0.0366 -0.35353,0.08022 -0.52853,0.13076c-0.33752,0.15881 -0.67077,0.32632 -0.99974,0.50252c-0.30831,0.10352 -0.61168,0.15636 -0.91015,0.15852z" fill="#4f4f4f" fill-rule="evenodd"/><path d="M265.80136,174.4376c0.0327,0.0734 0.02044,0.13845 -0.03674,0.19527c-0.33601,0.14372 -0.62983,0.34974 -0.88149,0.61806c-0.1571,0.08104 -0.31777,0.11927 -0.48195,0.11466c-0.01915,0.07735 -0.01048,0.1526 0.02597,0.22575c-0.16775,0.06975 -0.33318,0.14442 -0.49629,0.22393c-0.03763,-0.10867 -0.07524,-0.2174 -0.11286,-0.32608c0.68389,-0.31166 1.34499,-0.66223 1.98335,-1.05159z" fill="#504f4f" fill-rule="evenodd"/><path d="M265.84436,174.10974c0.01563,0.05108 0.01623,0.10304 0.00179,0.15587c-0.44488,0.21126 -0.86026,0.46806 -1.24609,0.77035c-0.25819,0.14997 -0.52961,0.27 -0.81428,0.36008c-0.04777,-0.08779 -0.09555,-0.17557 -0.14331,-0.26337c0.32912,-0.10525 0.65253,-0.22583 0.97017,-0.36186c0.38833,-0.26335 0.79892,-0.4837 1.23176,-0.66105z" fill="#4f4f4f" fill-rule="evenodd"/><path d="M266.38897,175.38179c-0.02245,0.20103 -0.01231,0.40616 0.03043,0.61541c0.08871,0.28561 0.15439,0.57585 0.19704,0.87073c-0.07405,0.22603 -0.08957,0.45743 -0.0466,0.69423c0.01299,0.20325 -0.00553,0.40096 -0.05556,0.59302c-0.11433,0.14853 -0.24004,0.28771 -0.37715,0.41743c-0.44057,0.20423 -0.87742,0.39893 -1.31058,0.584c0.02383,0.27005 0.04774,0.54 0.07164,0.80981c-0.02197,0.28193 -0.04466,0.56802 -0.06812,0.85818c-0.03231,0.01802 -0.06606,0.02098 -0.10122,0.00894c0.0227,-0.06059 0.01938,-0.12031 -0.00985,-0.17916c-0.08004,0.01654 -0.14452,0.05628 -0.1935,0.11913c0.00221,0.26604 -0.039,0.52375 -0.12365,0.77307c-0.10164,-0.10483 -0.19122,-0.21289 -0.26873,-0.32429c-0.20315,-0.42643 -0.47244,-0.80269 -0.80797,-1.12874c-0.00208,0.04417 -0.00419,0.08841 -0.00628,0.13258c0.24941,0.39013 0.49036,0.78486 0.72286,1.18428c0.06147,0.07966 0.10923,0.16745 0.14332,0.26337c0.05121,-0.02915 0.10315,-0.02975 0.15587,-0.00179c-0.25759,0.12838 -0.25399,0.21409 0.01075,0.2571c0.0926,-0.11797 0.13685,-0.11585 0.13258,0.00628c-0.161,0.08571 -0.31686,0.08749 -0.46761,0.00535c-0.33201,-0.4631 -0.60791,-0.95883 -0.82766,-1.48707c-0.00944,0.00224 -0.01865,0.00471 -0.02764,0.00744c0.02004,-0.08709 0.01667,-0.18068 -0.01471,-0.27137c-0.01216,-0.03513 -0.02789,-0.06799 -0.04663,-0.09834c0.11766,-0.11523 0.19633,-0.25483 0.23593,-0.41886c0.10155,-0.28861 0.15532,-0.5854 0.16127,-0.89043c0.02382,-0.40453 0.02446,-0.80468 0.00184,-1.20037c0.07763,0.14876 0.13735,0.14547 0.17916,-0.00985c0.07751,0.00697 0.15277,-0.00171 0.22575,-0.02597c0.01994,0.08172 0.05454,0.1567 0.1039,0.22485c0.00169,-0.12411 0.00292,-0.24629 0.0036,-0.36638c0.11341,-0.06101 0.22511,-0.06486 0.33503,-0.01164c0.00266,-0.0487 0.01251,-0.09561 0.02956,-0.14064c-0.12358,-0.10386 -0.12206,-0.2 0.00448,-0.28845c0.02149,0.06209 0.04301,0.12424 0.0645,0.18633c0.34012,-0.24254 0.70411,-0.44677 1.09201,-0.61269c0.18515,-0.1684 0.37028,-0.3368 0.55542,-0.50521c0.01087,-0.08263 0.03594,-0.16089 0.07525,-0.23471c-0.20419,0.09232 -0.38456,0.22427 -0.54108,0.39592c-0.44937,0.17567 -0.8492,0.42709 -1.19951,0.75422c-0.0476,-0.03068 -0.09954,-0.03008 -0.15587,0.00179c-0.05646,-0.09945 -0.05229,-0.18785 0.01254,-0.26516c0.02149,0.06209 0.043,0.12424 0.0645,0.18633c0.60121,-0.41177 1.21246,-0.80591 1.83376,-1.18239c0.06192,-0.09523 0.06878,-0.17587 0.02062,-0.24187c-0.00537,-0.01552 -0.01075,-0.03108 -0.01611,-0.04658c0.01894,-0.04656 0.04701,-0.09106 0.0842,-0.13348c0.01662,-0.06495 -0.00729,-0.10885 -0.07168,-0.13168c-0.07524,0.07027 -0.16301,0.11807 -0.26337,0.1433c-0.00502,-0.32198 0.00694,-0.6391 0.03587,-0.95133c0.12869,0.20604 0.25321,0.41505 0.37353,0.62707c0.04965,0.14056 0.06427,0.28332 0.04387,0.4282z" fill="#131411" fill-rule="nonzero"/><path d="M264.25317,180.81565c0.05634,0.13793 0.09693,0.28036 0.12181,0.42729c-0.00957,0.07285 -0.04061,0.08359 -0.09316,0.03224c-0.18733,-0.32059 -0.38316,-0.63532 -0.58761,-0.94419c-0.08643,-0.11529 -0.18374,-0.22069 -0.29202,-0.31623c-0.00061,-0.05195 0.01971,-0.09378 0.06092,-0.12542c0.28912,0.29324 0.55248,0.60202 0.79006,0.92629z" fill="#4e4e4f" fill-rule="evenodd"/><path d="M264.31052,180.3785c0.06589,0.14589 0.08322,0.29637 0.05193,0.45149c-0.28259,-0.3823 -0.58296,-0.7478 -0.90113,-1.0965c-0.0009,-0.08319 0.03764,-0.12262 0.11556,-0.11824c0.05336,0.047 0.11095,0.08788 0.17289,0.12274c0.17932,0.22619 0.36625,0.43968 0.56075,0.64052z" fill="#4d4d4e" fill-rule="evenodd"/><path d="M264.35175,179.89476c0.06167,0.1643 0.0766,0.33299 0.04476,0.50612c-0.23127,-0.32609 -0.49702,-0.61662 -0.79723,-0.87163c0.00716,-0.05465 0.01433,-0.10929 0.02149,-0.16393c0.26309,0.15499 0.50674,0.33148 0.73096,0.52946z" fill="#4c4d4c" fill-rule="evenodd"/><path d="M264.31592,179.48986c0.05114,0.09967 0.0601,0.20089 0.02687,0.30368c-0.22832,-0.22821 -0.48005,-0.42799 -0.75514,-0.59933c0.25823,0.04093 0.50099,0.13947 0.72827,0.29564z" fill="#4a4a49" fill-rule="evenodd"/><path d="M264.16367,178.44714c0.03604,0.06462 0.04201,0.13209 0.01791,0.20246c-0.17793,-0.03049 -0.34993,-0.07528 -0.51598,-0.13439c-0.00061,-0.05195 0.01971,-0.09377 0.06093,-0.12541c0.14717,0.01933 0.29289,0.03842 0.43714,0.05734z" fill="#474646" fill-rule="evenodd"/><path d="M264.2801,179.08496c0.04071,0.09832 0.04966,0.19954 0.02686,0.30368c-0.19622,-0.13061 -0.40525,-0.2322 -0.62706,-0.3046c-0.05966,-0.05467 -0.07338,-0.11945 -0.04118,-0.19439c0.21503,0.06594 0.42886,0.13107 0.64139,0.19531z" fill="#49484a" fill-rule="evenodd"/><path d="M264.21382,178.74277c0.02149,0.06209 0.04301,0.12424 0.0645,0.18633c-0.23376,0.00615 -0.44757,-0.05895 -0.64139,-0.1953c0.00475,-0.03644 0.00958,-0.07285 0.01434,-0.10929c0.18898,0.03948 0.3765,0.07892 0.56257,0.11827z" fill="#454647" fill-rule="evenodd"/><path d="M264.71364,180.18681c0.08823,0.18213 0.04818,0.31768 -0.12006,0.40669c-0.02995,-0.11278 -0.05206,-0.22683 -0.06628,-0.34219c0.06209,-0.02149 0.12424,-0.043 0.18633,-0.0645z" fill="#504e4f" fill-rule="evenodd"/><path d="M264.05082,178.12107c0.03485,0.07656 0.05399,0.15689 0.05731,0.24097c-0.11479,-0.04049 -0.23455,-0.05991 -0.3592,-0.05823c-0.05529,-0.0336 -0.08961,-0.08259 -0.10301,-0.14692c0.135,-0.01192 0.26991,-0.0239 0.4049,-0.03581z" fill="#424541" fill-rule="evenodd"/><path d="M264.72439,179.7658c0.01421,0.11537 0.03632,0.22941 0.06628,0.34219c-0.06209,0.02149 -0.12424,0.04299 -0.18632,0.06449c-0.03763,-0.10867 -0.07524,-0.2174 -0.11286,-0.32607c0.07765,-0.02688 0.15526,-0.05373 0.23291,-0.08061z" fill="#544e50" fill-rule="evenodd"/><path d="M264.65276,178.95597c0.12163,0.18939 0.07623,0.30944 -0.13617,0.36012c-0.03224,-0.09316 -0.0645,-0.18633 -0.09674,-0.2795c0.07765,-0.02688 0.15527,-0.05375 0.23291,-0.08061z" fill="#4d4d4d" fill-rule="evenodd"/><path d="M264.73517,179.34476c0.07859,0.19741 0.01769,0.32282 -0.18277,0.37623c-0.03224,-0.09316 -0.0645,-0.18633 -0.09674,-0.27949c0.09316,-0.03224 0.18633,-0.0645 0.27949,-0.09674z" fill="#504b4b" fill-rule="evenodd"/><path d="M264.3572,177.64989c0.05736,0.27424 0.1332,0.54354 0.2275,0.80801c-0.07765,0.02688 -0.15526,0.05374 -0.23291,0.08062c-0.09138,-0.26397 -0.18271,-0.52793 -0.27409,-0.79191c0.09316,-0.03224 0.18631,-0.06449 0.27949,-0.09674z" fill="#353434" fill-rule="evenodd"/><path d="M264.57037,178.5672c0.03224,0.09316 0.0645,0.18633 0.09674,0.2795c-0.07765,0.02688 -0.15526,0.05373 -0.23291,0.08061c-0.03224,-0.09316 -0.0645,-0.18633 -0.09674,-0.27949c0.07765,-0.02688 0.15526,-0.05374 0.23291,-0.08062z" fill="#494b4a" fill-rule="evenodd"/><path d="M266.18818,178.26806c-0.0318,0.09635 -0.09062,0.17758 -0.17648,0.24365c-0.33085,0.1493 -0.67246,0.26755 -1.02482,0.35471c0.38469,-0.22845 0.78513,-0.42791 1.2013,-0.59835z" fill="#3e3638" fill-rule="evenodd"/><path d="M265.96254,176.25967c0.02005,0.04501 0.01794,0.08919 -0.00628,0.13257c-0.08683,0.1193 -0.18956,0.22438 -0.30816,0.3153c-0.37796,0.18069 -0.74196,0.38492 -1.09201,0.6127c-0.0209,-0.01013 -0.0418,-0.02032 -0.06271,-0.03046c0.35122,-0.32635 0.75104,-0.57776 1.19951,-0.75423c0.09192,-0.09404 0.18182,-0.18602 0.26965,-0.2759z" fill="#4b4b4b" fill-rule="evenodd"/><path d="M265.91952,176.58753c-0.03572,0.19154 -0.14054,0.34085 -0.31443,0.44788c-0.22755,0.09612 -0.45507,0.19229 -0.68262,0.28842c-0.11041,0.05778 -0.20568,0.13419 -0.28578,0.22932c-0.10979,-0.10901 -0.08738,-0.19499 0.0672,-0.25798c0.43807,-0.18354 0.84327,-0.41945 1.21563,-0.70763z" fill="#4e4e4e" fill-rule="evenodd"/><path d="M266.44443,177.50127c0.00548,0.06957 -0.01721,0.12959 -0.06809,0.18006c-0.16432,0.1732 -0.34438,0.33114 -0.54018,0.47386c0.0884,0.0042 0.16602,-0.02267 0.23291,-0.08062c0.09947,-0.13426 0.22308,-0.2292 0.37088,-0.28485c-0.09337,0.21749 -0.2421,0.39066 -0.44613,0.51956c-0.31419,0.12467 -0.62444,0.25811 -0.93076,0.40039c-0.05972,0.00329 -0.11944,0.00654 -0.17915,0.00984c0.09263,-0.10489 0.2034,-0.18672 0.33235,-0.24543c0.19648,-0.08537 0.39296,-0.1708 0.58944,-0.25617c-0.31706,0.06931 -0.61718,0.18185 -0.90029,0.33768c-0.10916,-0.04902 -0.10468,-0.11144 0.01344,-0.18722c0.30518,-0.123 0.61034,-0.24604 0.91552,-0.36902c0.19514,-0.20234 0.39848,-0.36837 0.61007,-0.49803z" fill="#49494a" fill-rule="evenodd"/><path d="M266.44086,177.18952c0.02396,0.07084 0.01173,0.13596 -0.03673,0.19528c-0.17458,0.10509 -0.31852,0.2418 -0.43179,0.41026c-0.3823,0.19512 -0.77259,0.37365 -1.17084,0.53565c-0.02149,-0.06209 -0.043,-0.12424 -0.0645,-0.18633c0.3305,-0.14756 0.66405,-0.28908 1.00063,-0.42458c0.2301,-0.17999 0.46451,-0.35675 0.70322,-0.53028z" fill="#4f4e4e" fill-rule="evenodd"/><path d="M266.46418,176.50334c-0.00174,0.08042 -0.0086,0.16103 -0.02062,0.24187c-0.27834,0.08934 -0.49992,0.25294 -0.6647,0.49087c-0.35611,0.21564 -0.72549,0.40436 -1.10813,0.5661c-0.05962,-0.13001 -0.02169,-0.22138 0.11378,-0.2741c0.27349,-0.15475 0.55777,-0.28788 0.85282,-0.39949c0.16298,-0.11535 0.28602,-0.26225 0.36909,-0.44072c0.14648,-0.07667 0.29905,-0.1382 0.45775,-0.18452z" fill="#4f4f4f" fill-rule="evenodd"/><path d="M264.38052,176.9637c0.01552,-0.00536 0.03106,-0.01075 0.04658,-0.01612c0.35031,-0.32713 0.75013,-0.57855 1.19951,-0.75422c0.15652,-0.17165 0.3369,-0.3036 0.54109,-0.39592c-0.03932,0.0738 -0.06438,0.15206 -0.07526,0.2347c-0.18515,0.1684 -0.37028,0.3368 -0.55541,0.50521c-0.38789,0.16592 -0.7519,0.37015 -1.09202,0.61269c-0.02149,-0.06209 -0.04301,-0.12424 -0.0645,-0.18633z" fill="#4f4f4e" fill-rule="evenodd"/><path d="M266.43729,176.87779c0.02922,0.05884 0.03252,0.11858 0.00985,0.17916c-0.48891,0.45648 -1.05417,0.78254 -1.69579,0.97815c-0.02922,-0.05884 -0.03252,-0.11858 -0.00985,-0.17916c0.32059,-0.13245 0.63592,-0.27639 0.94598,-0.43174c0.1499,-0.1113 0.27832,-0.2427 0.38522,-0.39414c0.11525,-0.06581 0.23676,-0.11659 0.3646,-0.15228z" fill="#505150" fill-rule="evenodd"/><path d="M266.38356,176.27043c0.02149,0.06209 0.04301,0.12424 0.0645,0.18633c-0.13798,0.06429 -0.2831,0.09714 -0.43536,0.09852c0.00643,-0.05324 0.02406,-0.10278 0.05285,-0.1487c0.09959,-0.06039 0.2056,-0.10575 0.31801,-0.13615z" fill="#454444" fill-rule="evenodd"/></g><path d="M264.02077,180.97392c0.01895,0.11289 0.21415,0.35926 0.1939,0.48631c-0.02013,0.03838 -0.08638,0.02572 -0.15753,-0.02849c-0.05347,-0.04076 -0.11475,-0.12003 -0.13336,-0.13544c-0.10889,-0.25154 -0.26405,-0.48462 -0.39655,-0.72235c-0.0611,-0.0868 -0.12268,-0.19331 -0.2155,-0.25815c0.01657,-0.0465 0.04616,-0.11096 0.1041,-0.14729c0.23513,0.20737 0.38176,0.46441 0.54725,0.70956z" data-paper-data="{&quot;index&quot;:null}" fill="#4e4e4f" fill-rule="evenodd" stroke="none" stroke-width="1" stroke-linecap="butt"/><g fill="#000000" fill-rule="nonzero" stroke="none" stroke-width="1" stroke-linecap="butt"><path d="M259.78237,172.4625c0.1217,0.02257 0.15242,0.05317 0.04665,0.04647c-0.10784,-0.00684 -0.22422,-0.0099 -0.23524,-0.0062c-0.01071,0.00359 -0.01049,0.00917 0.00957,0.23298c0.01489,0.16633 0.00519,0.25034 -0.0465,0.40241c-0.07301,0.21484 -0.11144,0.27344 -0.183,0.27897c-0.04451,0.00343 -0.33494,-0.16456 -0.35896,-0.20765c-0.04158,-0.07461 -0.02148,-0.10466 0.17906,-0.2676c0.14286,-0.11606 0.20806,-0.15126 0.25652,-0.13853l0.03313,0.0087l-0.00082,-0.15646c-0.00045,-0.08608 -0.00648,-0.1593 -0.01341,-0.16275c-0.01312,-0.00655 -0.32055,-0.02759 -0.49112,-0.03363l-0.09877,-0.00351l-0.06996,0.07506c-0.18828,0.202 -0.23835,0.25223 -0.25814,0.25885c-0.02911,0.00975 -0.2931,-0.02621 -0.36727,-0.05002c-0.07071,-0.02271 -0.10064,-0.05367 -0.09588,-0.09915c0.00413,-0.03946 0.02332,-0.05347 0.23803,-0.17379c0.28354,-0.15888 0.31544,-0.17373 0.37973,-0.17696c0.05736,-0.00288 0.69514,0.09763 0.7367,0.1161c0.03397,0.01512 0.04048,-0.01342 0.04044,-0.17765c-0.00001,-0.09619 0.00482,-0.19967 0.01075,-0.22997l0.01079,-0.05509l0.01614,0.06869c0.00887,0.03778 0.02316,0.13805 0.03174,0.22285c0.00858,0.0848 0.01868,0.16333 0.02242,0.17454c0.00415,0.01239 0.02605,0.02311 0.05577,0.02731zM259.29193,173.05824c-0.05813,0.04592 -0.10447,0.08712 -0.10297,0.09161c0.00511,0.01526 0.13177,0.08452 0.14592,0.07977c0.01567,-0.00525 0.09833,-0.24133 0.09157,-0.26152c-0.00235,-0.00703 -0.00981,-0.00839 -0.01657,-0.00306zM258.63856,172.44962c-0.03688,0.01228 -0.25443,0.15256 -0.25132,0.16204c0.00156,0.00471 0.02877,0.01191 0.06049,0.01603l0.05767,0.0075l0.07883,-0.07319c0.08238,-0.07648 0.10523,-0.10639 0.08794,-0.115z"/><path d="M259.28093,172.27579c0.08486,0.01983 0.14898,0.04007 0.14248,0.04497c-0.02004,0.01506 -0.96806,-0.074 -1.14552,-0.10761c-0.05923,-0.01123 -0.06106,-0.01082 -0.08435,0.01873l-0.02381,0.03021l0.06665,0.01324c0.03666,0.00727 0.0698,0.01216 0.07368,0.01086c0.01333,-0.00447 0.15211,0.02949 0.15493,0.0379c0.00421,0.0126 -0.10678,0.03694 -0.22725,0.04983c-0.18185,0.01944 -0.15239,-0.0025 -0.40046,0.29834c-0.20223,0.24522 -0.54046,0.63854 -0.61627,0.7166c-0.05229,0.05386 -0.04736,0.00616 0.00734,-0.07088c0.02671,-0.03763 0.0843,-0.12041 0.12799,-0.18396c0.04367,-0.06355 0.19405,-0.27433 0.33418,-0.46841c0.14014,-0.19409 0.28114,-0.39107 0.31337,-0.43776c0.12667,-0.18351 0.16584,-0.20008 0.36478,-0.15429c0.07038,0.0162 0.2697,0.0602 0.44297,0.09781z"/><path d="M259.32618,172.61026c0.07337,0.05162 0.03676,0.09979 -0.32421,0.42659c-0.08132,0.07363 -0.20487,0.18912 -0.27456,0.25666c-0.22301,0.21615 -0.2575,0.24775 -0.31634,0.28969c-0.03174,0.02264 -0.05804,0.04012 -0.05845,0.03888c-0.00394,-0.0118 0.1047,-0.14799 0.21891,-0.2744c0.07733,-0.08559 0.19081,-0.21439 0.25222,-0.28627c0.06141,-0.07187 0.13064,-0.14812 0.1539,-0.16945l0.04227,-0.03877l-0.04693,-0.00266c-0.05112,-0.00288 -0.07569,-0.02843 -0.083,-0.08625l-0.0043,-0.03391l-0.10295,0.07876c-0.08746,0.06693 -0.10788,0.07824 -0.13577,0.07533c-0.04766,-0.005 -0.05836,-0.04851 -0.02409,-0.09801c0.03256,-0.04704 0.30187,-0.28344 0.33586,-0.29482c0.03272,-0.01095 0.07527,0.00981 0.08604,0.04199c0.0049,0.01466 0.00547,0.04974 0.00125,0.07797c-0.00423,0.02822 -0.00593,0.05657 -0.00376,0.06301c0.00257,0.00766 0.04838,-0.00427 0.13229,-0.03447z"/></g><g fill="#000000" fill-rule="nonzero" stroke="none" stroke-width="1" stroke-linecap="butt"><path d="M256.38181,174.06373c0.00884,0.01688 0.03233,0.0804 0.05224,0.14117l0.03619,0.11049l-0.06021,0.02455c-0.05376,0.02193 -0.05978,0.02855 -0.05606,0.06204c0.00226,0.02062 0.00206,0.05333 -0.00047,0.07269c-0.01106,0.08466 -0.11609,0.16473 -0.20051,0.15287c-0.04203,-0.0059 -0.04582,-0.00361 -0.07321,0.04444c-0.0681,0.11933 -0.23908,0.09977 -0.3423,-0.03913c-0.02145,-0.02889 -0.03448,-0.03292 -0.0783,-0.02426c-0.06289,0.01243 -0.0761,-0.00496 -0.12808,-0.16868c-0.03583,-0.11283 -0.03327,-0.14739 0.01262,-0.17038c0.02331,-0.01168 0.02426,-0.0231 0.00711,-0.08587c-0.02114,-0.07746 -0.01497,-0.0957 0.03855,-0.11396c0.03691,-0.0126 0.06381,-0.00126 0.08419,0.03546c0.01766,0.03183 0.07679,0.02665 0.20121,-0.01757c0.16869,-0.05998 0.18531,-0.07112 0.17078,-0.11451c-0.00965,-0.02886 -0.0058,-0.04146 0.01725,-0.05619c0.07039,-0.04503 0.13267,-0.01303 0.1655,0.08504c0.01117,0.03335 0.01667,0.03553 0.05618,0.0223zM256.20066,174.09553c-0.03237,-0.07999 -0.05222,-0.10076 -0.04217,-0.04416c0.01093,0.06163 -0.00362,0.07073 -0.24625,0.15373c-0.20419,0.06987 -0.21647,0.07085 -0.24733,0.01936c-0.00842,-0.01402 -0.00954,0.00433 -0.00271,0.04417c0.00642,0.03753 0.00566,0.07747 -0.00169,0.08881c-0.01141,0.0176 -0.0097,0.02202 0.01168,0.03031c0.02996,0.01161 0.05244,0.07082 0.03793,0.09993c-0.00569,0.01142 -0.02794,0.02732 -0.04948,0.03534l-0.03911,0.01458l0.04678,-0.00428c0.05708,-0.00522 0.06603,-0.00059 0.10697,0.05528c0.04071,0.05554 0.15414,0.11699 0.19236,0.1042c0.03967,-0.01328 0.09022,-0.06808 0.09642,-0.10454c0.00658,-0.03873 0.02005,-0.04279 0.07866,-0.02378c0.04244,0.01377 0.05221,0.012 0.09313,-0.01686c0.05157,-0.03638 0.07271,-0.09435 0.06087,-0.16691c-0.00733,-0.04479 -0.00427,-0.04961 0.04777,-0.07513c0.03614,-0.01772 0.04259,-0.02366 0.01843,-0.017c-0.06325,0.01751 -0.09475,0.00491 -0.11128,-0.04445c-0.01557,-0.04652 -0.01317,-0.04972 0.06986,-0.09289c0.02294,-0.01193 0.01906,-0.0126 -0.01533,-0.00273z"/><path d="M255.94514,174.28496c0.02973,0.01483 0.08177,0.17826 0.07357,0.23106c-0.00983,0.06326 -0.06442,0.09803 -0.14121,0.09c-0.05205,-0.00546 -0.08189,-0.04396 -0.11827,-0.15265c-0.02507,-0.07491 -0.02809,-0.09842 -0.01402,-0.11001zM255.79994,174.38116l0.017,0.06406c0.01926,0.07262 0.06414,0.11791 0.1037,0.10466c0.0458,-0.01534 0.05356,-0.05747 0.02583,-0.14028l-0.02598,-0.07761z"/><path d="M256.18132,174.2035c0.02459,0.00418 0.03435,0.01926 0.05786,0.08946c0.02421,0.07234 0.02524,0.0905 0.00707,0.12691c-0.02608,0.05238 -0.09368,0.07853 -0.14919,0.05772c-0.03397,-0.01274 -0.04237,-0.02529 -0.06577,-0.09854c-0.03906,-0.12223 -0.03736,-0.12774 0.04785,-0.15628zM256.06718,174.30972c-0.0013,0.00638 0.01008,0.03664 0.02527,0.06726c0.0228,0.04591 0.03311,0.05465 0.05894,0.04989c0.04811,-0.00886 0.06063,-0.04269 0.03937,-0.10619l-0.019,-0.05677l-0.05111,0.0171z"/></g><g fill="#000000" fill-rule="nonzero" stroke="none" stroke-width="1" stroke-linecap="butt"><path d="M260.35127,180.50756c0.0926,-0.00856 0.12703,0.00761 0.07777,0.03653c-0.11124,0.06528 -0.2375,0.12432 -0.34559,0.16158c-0.06594,0.02274 -0.0839,0.03319 -0.0795,0.04632c0.00368,0.01099 0.02123,0.01317 0.0499,0.00622c0.05215,-0.01267 0.08712,0.00838 0.0778,0.04682c-0.00456,0.01878 -0.02443,0.03194 -0.08039,0.05322c-0.04089,0.01556 -0.08117,0.02608 -0.08951,0.02342c-0.00834,-0.00267 -0.04234,-0.02699 -0.07557,-0.05405l-0.06039,-0.0492l-0.01923,0.03575c-0.01882,0.035 -0.02157,0.03619 -0.13101,0.05638c-0.06148,0.01135 -0.1136,0.02428 -0.11584,0.02873c-0.00221,0.00447 0.01636,0.02363 0.04127,0.04261c0.05008,0.03813 0.04989,0.06114 -0.00049,0.0591c-0.04009,-0.00161 -0.13366,-0.05432 -0.14471,-0.08152c-0.00442,-0.01088 -0.026,-0.06979 -0.04795,-0.13092c-0.02196,-0.06111 -0.04816,-0.12164 -0.05825,-0.13448c-0.01367,-0.0174 -0.01392,-0.02482 -0.00101,-0.02913c0.02837,-0.0095 0.09817,0.02884 0.11917,0.06545l0.01954,0.03409l0.11375,-0.04728c0.10185,-0.04233 0.11707,-0.04583 0.14557,-0.03335c0.03134,0.01372 0.03207,0.01327 0.04826,-0.03082c0.00903,-0.02461 0.01888,-0.06475 0.02188,-0.08917c0.00579,-0.04736 0.01309,-0.05249 0.11614,-0.0819c0.05457,-0.01558 0.1085,-0.00864 0.1164,0.01498c0.00779,0.02325 -0.02552,0.05985 -0.06717,0.07381c-0.02509,0.0084 -0.04681,0.02038 -0.04827,0.02662c-0.00662,0.02821 0.02972,0.02889 0.13023,0.00242zM259.72775,180.69723c-0.01671,-0.00303 -0.05084,0.00225 -0.07589,0.01174c-0.02503,0.00948 -0.05303,0.01548 -0.0622,0.01333c-0.027,-0.00634 -0.13782,0.06371 -0.13135,0.08304c0.00449,0.01343 0.02867,0.00914 0.11955,-0.0213c0.06264,-0.02096 0.11123,-0.03281 0.10795,-0.02631c-0.00328,0.0065 -0.02521,0.01877 -0.04875,0.0273c-0.15205,0.05493 -0.16508,0.06119 -0.15987,0.07676c0.00969,0.02897 0.25009,-0.04421 0.27948,-0.08507c0.01597,-0.0222 0.05733,-0.04337 0.06776,-0.03468c0.00559,0.00466 0.01581,0.00658 0.0227,0.00426c0.00885,-0.00296 0.00735,-0.00741 -0.00507,-0.01513c-0.01118,-0.00691 -0.01574,-0.01857 -0.01248,-0.03185c0.00768,-0.03121 0.00023,-0.04424 -0.01303,-0.02284zM260.23983,180.568c0.00322,0.00243 0.00603,0.00637 0.00764,0.01117c0.00444,0.01325 0.01434,0.0126 0.04167,-0.00273c0.04997,-0.02802 0.04899,-0.03016 -0.01219,-0.02648zM260.22292,180.57622l-0.0248,0.01206c0.00211,0.00629 0.01023,0.01295 0.01805,0.0148c0.00783,0.00184 0.01146,-0.00494 0.00808,-0.01503c-0.00138,-0.00413 -0.00177,-0.00824 -0.00132,-0.01182zM260.22987,180.56574c-0.00384,0.00128 -0.00629,0.00533 -0.00695,0.01051l0.01692,-0.00824c-0.00317,-0.0024 -0.00674,-0.00334 -0.00995,-0.00227z"/><path d="M259.40604,180.99356c0.05098,0.03848 0.05748,0.04678 0.04669,0.05975c-0.02528,0.03038 -0.15951,-0.02555 -0.1888,-0.07865c-0.01257,-0.02281 -0.03355,-0.02181 -0.18175,0.00873c-0.10291,0.02119 -0.10126,-0.00584 0.00364,-0.05923c0.04643,-0.02362 0.09482,-0.04644 0.10752,-0.0507c0.031,-0.01037 0.0241,-0.02505 -0.01339,-0.02859c-0.01674,-0.00158 -0.03279,-0.01234 -0.03567,-0.02393c-0.00323,-0.01299 -0.01354,-0.01826 -0.02693,-0.01377c-0.01194,0.004 -0.03757,0.00561 -0.05696,0.00357c-0.02675,-0.0028 -0.03685,-0.01128 -0.04187,-0.03513c-0.00636,-0.03026 -0.00353,-0.03251 0.07544,-0.06033c0.04842,-0.01706 0.09426,-0.0261 0.11188,-0.02205c0.05414,0.01244 0.09533,0.06859 0.12566,0.17132z"/></g></g></g></g></svg>