<svg version="1.1" xmlns="http://www.w3.org/2000/svg" xmlns:xlink="http://www.w3.org/1999/xlink" width="16.76605" height="50.58953" viewBox="0,0,16.76605,50.58953"><g transform="translate(-220.84605,-122.20523)"><g data-paper-data="{&quot;isPaintingLayer&quot;:true}" fill-rule="nonzero" stroke="none" stroke-width="0.5" stroke-linecap="butt" stroke-linejoin="miter" stroke-miterlimit="10" stroke-dasharray="" stroke-dashoffset="0" style="mix-blend-mode: normal"><g><g><path d="M225.17938,169.50462c-0.11859,0 -0.21533,-0.02187 -0.29422,-0.05754c-0.42453,0.0973 -0.84729,0.20297 -1.26608,0.32229c-0.53725,0.15306 -2.38622,0.8157 -0.96823,1.4033c0.1723,0.0714 0.35699,0.11017 0.53967,0.14774c0.90425,0.18598 1.93605,0.17946 2.85735,0.17886c0.43293,-0.00028 0.87486,0.14112 1.29786,0.04896c0.26858,-0.05852 0.26579,-1.19613 0.28415,-1.32465c0.50332,-4.02655 0.46209,-8.08495 0.18892,-12.12448c-0.08049,-1.19034 -0.04505,-2.3895 -0.19337,-3.57611c-0.0016,-1.04723 0.06455,-2.1355 -0.0952,-3.17103c-0.01594,-0.10332 -0.20686,0.05487 -0.29104,0.11687c-0.14223,0.10473 -0.32151,0.16024 -0.44703,0.2845c-0.41122,0.40709 -0.58631,1.1589 -0.69211,1.69534c-0.47346,2.40058 -0.27366,4.91924 -0.27912,7.35242c-0.36612,2.56287 -0.00414,5.11023 0.00162,7.67437v0.386c0,0 0,0.64317 -0.64317,0.64317zM224.53557,168.20573c-0.01785,-2.50306 -0.3555,-4.99156 0.00226,-7.49583c-0.00693,-2.69903 -0.35911,-5.76395 0.51454,-8.3622c0.44068,-1.3106 2.20575,-3.40576 3.56613,-1.68158c0.19544,0.2477 0.13433,0.61674 0.18908,0.92746c0.16552,0.93938 0.10333,1.89937 0.10172,2.84948c0.14785,1.18276 0.11472,2.3783 0.19263,3.56485c0.27111,4.12923 0.31744,8.27034 -0.19707,12.38641c-0.13252,0.92785 -0.04504,1.84829 -1.06684,2.34233c-0.1328,0.06421 -1.62833,0.04906 -1.79012,0.04896c-1.36426,-0.00085 -3.73353,0.17634 -4.72815,-0.98951c-1.12537,-1.31911 -0.05594,-2.58136 1.23171,-3.05815c0.63335,-0.23451 1.31917,-0.3862 1.98414,-0.53221z" fill="#9966ff"/><path d="M225.82125,168.84865l-0.00007,-0.38599c-0.00576,-2.56415 -0.3761,-5.09029 -0.00998,-7.65316c0.00546,-2.43318 -0.18625,-4.9475 0.28721,-7.34808c0.1058,-0.53644 0.28478,-1.31367 0.696,-1.72076c0.12552,-0.12427 0.30528,-0.17968 0.44751,-0.28441c0.08418,-0.06199 0.27542,-0.22012 0.29136,-0.11679c0.15975,1.03553 0.095,2.12423 0.09661,3.17146c0.14833,1.18661 0.11659,2.38789 0.19708,3.57823c0.27316,4.03952 0.30984,8.12022 -0.19348,12.14677c-0.01836,0.12852 -0.01635,1.26633 -0.28492,1.32485c-0.423,0.09216 -0.86651,-0.04899 -1.29945,-0.04871c-0.92129,0.0006 -1.95675,0.00696 -2.861,-0.17902c-0.18269,-0.03757 -0.36807,-0.0765 -0.54038,-0.1479c-1.418,-0.5876 0.4363,-1.27538 0.97355,-1.42845c0.4188,-0.11932 0.83964,-0.22518 1.26417,-0.32248c0.07889,0.03567 0.17515,0.05754 0.29374,0.05754c0.64317,0 0.64205,-0.64311 0.64205,-0.64311z" data-paper-data="{&quot;noHover&quot;:false,&quot;origItem&quot;:[&quot;Path&quot;,{&quot;applyMatrix&quot;:true,&quot;segments&quot;:[[[332.33308,697.80477],[5,0],[-0.92196,0]],[[330.04585,697.35745],[0.6133,0.27731],[-3.30032,0.75641]],[[320.20331,699.86295],[3.25577,-0.9276],[-4.17659,1.18995]],[[312.67631,710.77216],[-11.02351,-4.56796],[1.33949,0.55506]],[[316.87174,711.92072],[-1.42021,-0.2921],[7.02964,1.44582]],[[339.08477,713.31114],[-7.16214,0.00467],[3.36559,-0.0022]],[[349.17435,713.69175],[-3.28844,0.71647],[2.08791,-0.45491]],[[351.38333,703.39392],[-0.14277,0.99913],[3.9128,-31.30241]],[[352.85204,609.13821],[2.12356,31.40327],[-0.62575,-9.2537]],[[351.34875,581.33751],[1.15309,9.22469],[-0.01246,-8.14114]],[[350.60867,556.68593],[1.24187,8.05023],[-0.12391,-0.80322]],[[348.34609,557.59443],[0.65445,-0.48189],[-1.10571,0.81416]],[[344.87087,559.80617],[0.97581,-0.96604],[-3.19679,3.16476]],[[339.49039,572.98574],[0.82249,-4.17029],[-3.68067,18.66211]],[[337.3205,630.14346],[0.04245,-18.91557],[-2.84625,19.92377]],[[337.33308,689.80402],[-0.04473,-19.93365],[0,0]],[337.33308,692.80477]],&quot;closed&quot;:true}]}" fill="#ffffff"/></g><g><path d="M232.14069,168.37895v-0.386c0.00576,-2.56415 0.36774,-5.11149 0.00161,-7.67437c-0.00546,-2.43318 0.19434,-4.95184 -0.27912,-7.35242c-0.1058,-0.53644 -0.28089,-1.28825 -0.69211,-1.69534c-0.12552,-0.12427 -0.3048,-0.17978 -0.44703,-0.2845c-0.08418,-0.06199 -0.27511,-0.22019 -0.29104,-0.11687c-0.15975,1.03553 -0.09359,2.1238 -0.0952,3.17103c-0.14833,1.18661 -0.11288,2.38577 -0.19337,3.57611c-0.27316,4.03952 -0.31439,8.09792 0.18892,12.12448c0.01836,0.12852 0.01557,1.26613 0.28415,1.32465c0.423,0.09216 0.86494,-0.04924 1.29786,-0.04896c0.92129,0.0006 1.9531,0.00713 2.85735,-0.17886c0.18269,-0.03757 0.36737,-0.07635 0.53967,-0.14774c1.418,-0.5876 -0.43098,-1.25022 -0.96823,-1.40329c-0.4188,-0.11932 -0.84155,-0.225 -1.26608,-0.32229c-0.07889,0.03567 -0.17562,0.05754 -0.29422,0.05754c-0.64317,0 -0.64317,-0.64317 -0.64317,-0.64317zM235.4118,168.25544c1.28765,0.47679 2.35708,1.73904 1.23171,3.05815c-0.99462,1.16585 -3.3639,0.98866 -4.72815,0.98952c-0.16179,0.0001 -1.65732,0.01525 -1.79012,-0.04896c-1.0218,-0.49404 -0.93433,-1.41448 -1.06684,-2.34233c-0.51451,-4.11606 -0.46819,-8.25717 -0.19707,-12.38641c0.0779,-1.18655 0.04478,-2.38209 0.19263,-3.56485c-0.00161,-0.95011 -0.06379,-1.91009 0.10172,-2.84948c0.05475,-0.31072 -0.00635,-0.67976 0.18908,-0.92746c1.36038,-1.72417 3.12545,0.37098 3.56613,1.68158c0.87365,2.59824 0.52147,5.66316 0.51454,8.3622c0.35775,2.50428 0.0201,4.99278 0.00226,7.49583c0.66497,0.14601 1.35079,0.2977 1.98414,0.53221z" data-paper-data="{&quot;index&quot;:null}" fill="#9966ff"/><path d="M232.78403,169.00926c0.11859,0 0.21485,-0.02187 0.29374,-0.05754c0.42453,0.0973 0.84537,0.20316 1.26417,0.32248c0.53725,0.15306 2.39154,0.84085 0.97355,1.42845c-0.1723,0.0714 -0.35769,0.11032 -0.54037,0.1479c-0.90425,0.18598 -1.93971,0.17962 -2.861,0.17903c-0.43293,-0.00028 -0.87644,0.14087 -1.29945,0.0487c-0.26858,-0.05852 -0.26656,-1.19633 -0.28492,-1.32485c-0.50332,-4.02655 -0.46664,-8.10725 -0.19348,-12.14677c0.08049,-1.19034 0.04876,-2.39163 0.19708,-3.57823c0.0016,-1.04723 -0.06314,-2.13593 0.09661,-3.17146c0.01594,-0.10332 0.20717,0.0548 0.29136,0.11679c0.14223,0.10473 0.32199,0.16015 0.44751,0.28441c0.41122,0.40709 0.5902,1.18432 0.696,1.72076c0.47346,2.40058 0.28175,4.91489 0.28721,7.34808c0.36612,2.56287 -0.00423,5.08902 -0.00998,7.65316l-0.00007,0.38599c0,0 -0.00112,0.64311 0.64205,0.64311z" data-paper-data="{&quot;noHover&quot;:false,&quot;origItem&quot;:[&quot;Path&quot;,{&quot;applyMatrix&quot;:true,&quot;segments&quot;:[[386.45029,689.05383],[[386.45029,686.05308],[0,0],[0.04473,-19.93365]],[[386.46286,626.39253],[2.84625,19.92377],[-0.04245,-18.91557]],[[384.29298,569.23481],[3.68067,18.66211],[-0.82249,-4.17029]],[[378.9125,556.05523],[3.19679,3.16476],[-0.97581,-0.96604]],[[375.43728,553.8435],[1.10571,0.81416],[-0.65445,-0.48189]],[[373.17469,552.935],[0.12391,-0.80322],[-1.24187,8.05023]],[[372.43462,577.58658],[0.01246,-8.14114],[-1.15309,9.22469]],[[370.93133,605.38727],[0.62575,-9.2537],[-2.12356,31.40327]],[[372.40004,699.64298],[-3.9128,-31.30241],[0.14277,0.99913]],[[374.60901,709.94081],[-2.08791,-0.45491],[3.28844,0.71647]],[[384.6986,709.56021],[-3.36559,-0.0022],[7.16214,0.00467]],[[406.91163,708.16978],[-7.02964,1.44582],[1.42021,-0.2921]],[[411.10706,707.02122],[-1.33949,0.55506],[11.02351,-4.56796]],[[403.58006,696.11202],[4.17659,1.18995],[-3.25577,-0.9276]],[[393.73752,693.60652],[3.30032,0.75641],[-0.6133,0.27731]],[[391.45029,694.05383],[0.92196,0],[-5,0]]],&quot;closed&quot;:true}]}" fill="#ffffff"/></g><g><path d="M237.36905,149.91416c0.17986,0.30652 0.21118,0.68494 0.23771,1.03934c0.04574,0.61091 -0.20507,1.70936 -0.67158,2.10543c-0.9895,0.8401 -3.65661,0.53103 -4.26087,-0.68892c-0.24869,-0.50209 -0.08141,-1.43146 0.14862,-1.91874c0.04437,-0.09398 0.10657,-0.19443 0.17958,-0.2973c-0.48862,-0.17618 -1.23453,-0.63288 -1.40083,-0.93902c-0.08626,-0.15879 -0.1314,-1.45425 -0.14447,-1.73433c-0.04701,-1.00739 -0.09401,-2.01477 -0.14102,-3.02216c-0.25214,-5.40364 0.01938,-10.77598 -0.23265,-16.17726c-0.02458,-0.5485 -0.09777,-1.21781 0.05156,-1.76098c0.32988,-1.19988 1.74299,-2.4123 3.06495,-2.00804c0.38984,0.11921 0.77784,0.61783 1.06941,1.01973c0.3228,0.15429 0.34144,0.55369 0.34144,0.55369c0.06431,1.44163 0.58165,2.77867 0.71814,4.21644c0.38188,4.02268 0.1242,8.07935 0.87525,12.06056c0.07186,1.53996 0.25786,3.07657 0.32191,4.62596c0.02664,0.64434 0.12863,1.13776 -0.24353,1.73735c-0.16179,0.26066 -0.37029,0.46531 -0.60858,0.62845c0.23405,0.18454 0.54442,0.30324 0.69496,0.5598zM234.7664,150.07916c-0.33695,0.36889 -1.18002,1.1114 -0.9279,1.74372c0.17493,0.43872 1.95109,0.51833 2.25866,0.26014c0.51066,-0.42867 0.25933,-1.43707 -0.18957,-1.6963l-0.17051,0.02538c0,0 -0.45195,-0.09084 -0.51369,-0.50133c-0.13008,0.0276 -0.26015,0.05203 -0.38867,0.07458c-0.03674,0.05913 -0.06831,0.0938 -0.06831,0.0938zM234.34521,126.43005c-0.16162,-0.27588 -0.298,-0.59128 -0.58148,-0.70781c-0.33737,-0.13868 -0.62043,0.21826 -0.81794,0.38081c-0.72529,0.59693 -0.6209,1.22299 -0.57729,2.11818c0.25204,5.40157 -0.01948,10.7738 0.23264,16.17726c0.04701,1.00739 0.09401,2.01477 0.14102,3.02216c0.01839,0.39412 -0.16283,0.82059 -0.00832,1.18363c0.10096,0.23723 0.43591,0.32686 0.69322,0.34302c0.21613,0.01358 0.4227,-0.09454 0.63493,-0.13761c0.64476,-0.13087 1.71023,-0.13184 2.13239,-0.76956c0.25462,-0.38463 0.03193,-1.3122 0.01285,-1.72111c-0.05956,-1.27646 -0.22118,-2.5366 -0.28039,-3.80553c-0.77012,-3.98583 -0.49929,-8.05782 -0.87815,-12.08757c-0.12834,-1.36513 -0.58634,-2.63616 -0.70348,-3.99587z" fill="#9966ff"/><path d="M234.83204,149.97278c0.12852,-0.02255 0.26296,-0.04715 0.39305,-0.07475c0.06175,0.41049 0.5211,0.50499 0.5211,0.50499l0.17133,-0.02449c0.44889,0.25923 0.69953,1.2848 0.18887,1.71347c-0.30756,0.25818 -2.10395,0.17626 -2.27889,-0.26247c-0.25213,-0.63232 0.59825,-1.39379 0.93521,-1.76268c0,0 0.0326,-0.03493 0.06934,-0.09406z" data-paper-data="{&quot;noHover&quot;:false,&quot;origItem&quot;:[&quot;Path&quot;,{&quot;applyMatrix&quot;:true,&quot;segments&quot;:[[[475.794,535.00135],[0,0],[-2.75029,2.74259]],[[467.95653,548.20608],[-1.72879,-5.00165],[1.19951,3.47034]],[[485.402,551.04465],[-2.48197,1.89348],[4.12088,-3.1438]],[[484.54456,537.80325],[3.39197,2.17571],[0,0]],[483.21123,537.93858],[[479.40376,533.85935],[0.33076,3.21005],[-1.02019,0.16718]],[[476.35846,534.29769],[1.00624,-0.12859],[-0.30672,0.4459]]],&quot;closed&quot;:true}]}" fill="#ffffff"/><path d="M235.05062,130.4132c0.37886,4.02974 0.11055,8.12652 0.88067,12.11235c0.05921,1.26894 0.21943,2.5295 0.27899,3.80596c0.01908,0.40891 0.24129,1.33659 -0.01334,1.72122c-0.42217,0.63771 -1.49013,0.63894 -2.1349,0.76981c-0.21223,0.04308 -0.4195,0.15117 -0.63563,0.1376c-0.25731,-0.01616 -0.59306,-0.10586 -0.69402,-0.34309c-0.15451,-0.36304 0.02655,-0.78952 0.00816,-1.18364c-0.04701,-1.00739 -0.09491,-2.01492 -0.14192,-3.02231c-0.25213,-5.40346 0.01961,-10.80097 -0.23244,-16.20254c-0.04361,-0.89519 -0.14693,-1.5214 0.57837,-2.11833c0.19751,-0.16255 0.48151,-0.51954 0.81888,-0.38086c0.28348,0.11653 0.42054,0.43192 0.58215,0.70781c0.11714,1.35971 0.57666,2.63088 0.70501,3.99601z" data-paper-data="{&quot;noHover&quot;:false,&quot;origItem&quot;:[&quot;Path&quot;,{&quot;applyMatrix&quot;:true,&quot;segments&quot;:[[[481.09232,351.20035],[0.41699,10.60131],[-1.15507,-2.20096]],[[476.83329,345.49316],[2.15917,1.00762],[-2.56962,-1.19916]],[[470.34355,348.15397],[1.59265,-1.19073],[-5.84861,4.37267]],[[465.09302,364.39363],[-0.01429,-6.96741],[0,42.03747]],[[461.03787,490.10328],[0,-42.05218],[0,7.83996]],[[461.03787,513.62315],[0,-7.83996],[0,3.06724]],[[460.54438,522.81163],[-1.0683,-2.87518],[0.69807,1.87877]],[[465.80336,525.72656],[-1.99229,-0.21876],[1.67344,0.18375]],[[470.78377,524.88799],[-1.66368,0.25762],[5.05436,-0.78266]],[[487.62181,519.68464],[-3.50945,4.79923],[2.11667,-2.89459]],[[488.34525,506.32388],[0,3.18234],[0,-9.93399]],[[487.54679,476.67022],[0,9.87543],[-4.53614,-31.23126]],[[485.10733,382.48536],[1.48188,31.43047],[-0.50201,-10.64746]]],&quot;closed&quot;:true}]}" fill="#ffffff"/></g><g><path d="M228.65258,122.93939c0.93567,0.13367 2.18171,0.11107 3.05971,0.45319c1.15141,0.44866 1.87925,1.47889 2.25848,2.58827l0.19565,0.48615c0,0 0.005,0.01251 0.01175,0.03462c0.21488,0.42248 0.37079,0.85325 0.44124,1.23707c0.11143,0.60713 0.03684,1.23583 0.1134,1.84833c0.00043,1.21546 0.34829,2.34385 0.41731,3.54708c0.08234,1.43544 0.1934,2.91524 0.10433,4.35729c-0.18905,3.06086 -0.54164,6.1409 -0.1047,9.19945c0.00298,1.43085 0.44314,3.5818 -0.60407,4.67342c-1.62498,1.6939 -4.91426,1.23164 -7.02732,1.23164c-0.96743,0 -1.80249,0.21187 -2.49403,-0.67099c-0.61061,-0.77956 -0.54734,-1.86989 -0.54864,-2.78897c0,-3.26218 0.10876,-6.49491 0.31422,-9.74228c0.12926,-2.04307 -0.10823,-4.07821 -0.18627,-6.11785c-0.51514,-0.06005 -1.26745,-0.12759 -1.68881,-0.38202c-1.85369,-1.11932 -1.48218,-3.76504 -1.13862,-5.48193c0.15145,-0.75685 0.20657,-1.56475 0.58683,-2.26526c0.50026,-0.92157 1.41839,-2.01258 2.38153,-2.46726c0.49391,-0.23316 1.04669,-0.31256 1.56844,-0.47411c0.92135,0.13046 1.35145,0.46068 2.16487,0.73481c0.10092,-0.01121 0.17469,-0.00067 0.17469,-0.00067zM227.45153,150.00803c-0.45479,0.45479 -0.90958,0 -0.90958,0l-0.25997,-0.26554c-0.00134,-0.00114 -0.00268,-0.00228 -0.00402,-0.00342c-0.09482,0.08388 -0.23157,0.14436 -0.42881,0.14436c-0.03685,0 -0.07158,-0.00211 -0.10433,-0.00609c0.00329,0.61855 0.08355,1.3707 0.52587,1.46848c0.55704,0.12315 1.40109,-0.03626 1.97795,-0.03626c1.60835,0 4.09355,0.33274 5.38746,-0.85488c0.42925,-0.39398 0.22893,-0.97407 0.22893,-1.5274c0,-0.71509 -0.00007,-1.43017 0.00162,-2.14525c-0.44466,-3.1126 -0.09314,-6.25553 0.10395,-9.37056c0.08788,-1.38905 -0.03015,-2.81452 -0.10433,-4.19743c-0.0644,-1.20068 -0.41774,-2.33143 -0.41731,-3.54708c-0.16783,-1.34264 -0.12708,-3.17014 -1.55283,-3.96629c-0.0606,-0.03384 -0.12328,-0.06246 -0.18753,-0.08716c0,1.40738 0,2.81476 0,4.22214v0.10433c0,0 0,0.64317 -0.64317,0.64317c-0.64317,0 -0.64317,-0.64317 -0.64317,-0.64317c0,-1.49534 0,-3.095 0,-4.59034c0,0 0,-0.02139 0.0039,-0.05638c-0.13764,-0.04479 -0.27533,-0.08724 -0.41243,-0.12597c0.03363,0.1347 0.02247,0.24634 0.02247,0.24634c-0.14478,1.43643 -0.10114,2.8748 -0.10114,4.31769v0.20865c0,0 0,0.64317 -0.64317,0.64317c-0.64317,0 -0.64317,-0.64317 -0.64317,-0.64317v-0.20865c0,-1.48633 -0.03938,-2.96563 0.10752,-4.44569c0,0 0.01703,-0.17029 0.12136,-0.32641c-0.83165,-0.04246 -1.56592,0.23333 -2.03589,1.19967c-0.29436,0.60525 -0.53593,0.76652 -0.27808,1.38684c0,0 0.19585,0.58756 -0.37339,0.80172c-0.1722,1.25116 -0.32614,2.53242 -0.32388,3.78335c0,2.45114 0.35898,4.88886 0.20741,7.34278c-0.13593,2.20068 -0.23163,4.39385 -0.27862,6.59445c0.02514,-0.00457 0.05054,-0.00821 0.07617,-0.01099l-0.00881,-0.06164l0.71933,-0.10276c0.03319,-0.00528 0.06723,-0.00803 0.10191,-0.00803c0.08516,0 0.16645,0.01655 0.24083,0.04661c0.10407,-0.05756 0.21024,-0.09502 0.3247,-0.12271c0.16057,-0.3412 0.58205,-0.3412 0.58205,-0.3412c1.56335,0 4.26955,-0.17247 4.59925,1.89638c0.05522,0.34652 0.10109,0.72681 -0.03011,1.05226c-0.60305,1.49593 -2.43274,1.36333 -3.73453,1.36315c-0.23567,-0.00004 -0.64883,0.01275 -1.05145,-0.00855c-0.03114,0.07751 -0.08299,0.15749 -0.16297,0.23748zM229.05596,146.75295c-0.18998,0.20937 -0.49433,0.20936 -0.49433,0.20936l-0.32635,-0.00646c-0.85235,0.08724 -0.98112,0.34449 -0.92149,1.21617c0.00802,0.11728 -0.03211,0.2869 0.06969,0.34569c0.37026,0.21384 0.8549,-0.02487 1.28247,-0.02494c0.52877,-0.00008 2.27968,0.22242 2.52502,-0.51472c0.16968,-0.50981 -0.17796,-0.81217 -0.58388,-0.96187c-0.50829,-0.18746 -1.0268,-0.24697 -1.55114,-0.26324zM226.42854,123.48638c-0.37502,0.13866 -0.77901,0.19735 -1.14404,0.3605c-1.74257,0.77888 -2.10495,2.94669 -2.45774,4.55801c-0.18832,0.86011 -0.20321,2.86758 0.7404,3.38025c0.16815,0.09136 0.67225,0.15756 1.01375,0.19595c0.01489,-1.45364 0.20952,-2.94628 0.41803,-4.38189l-0.00162,-0.68469c0,0 0,-0.32456 0.23056,-0.51257c0.33229,-1.05384 1.26496,-2.21702 2.13089,-2.57802c-0.29453,-0.14973 -0.58724,-0.28756 -0.93024,-0.33755z" fill="#9966ff"/><path d="M230.61861,147.01047c0.40592,0.14971 0.75475,0.45975 0.58507,0.96956c-0.24534,0.73714 -2.01663,0.523 -2.54539,0.52308c-0.42757,0.00007 -0.91632,0.23367 -1.28657,0.01983c-0.10179,-0.05879 -0.06238,-0.23051 -0.0704,-0.34778c-0.05964,-0.87168 0.07108,-1.13946 0.92343,-1.22669l0.32786,0.00468c0,0 0.31051,-0.00337 0.50048,-0.21274c0.52433,0.01626 1.05724,0.0826 1.56553,0.27007z" data-paper-data="{&quot;noHover&quot;:false,&quot;origItem&quot;:[&quot;Path&quot;,{&quot;applyMatrix&quot;:true,&quot;segments&quot;:[[[358.86813,523.3342],[4.07617,0.12642],[-1.47688,1.62759]],[355.02522,524.96179],[[352.48821,524.91154],[0,0],[-6.62617,0.67818]],[[345.32457,534.36604],[-0.4636,-6.77645],[0.06237,0.9117]],[[345.86628,537.05347],[-0.79133,-0.45704],[2.87836,1.66243]],[[355.83625,536.85961],[-3.32395,0.00051],[4.11062,-0.00063]],[[375.46579,532.85821],[-1.90729,5.73051],[1.31908,-3.96322]],[[370.92667,525.38061],[3.15563,1.16381],[-3.95145,-1.45731]]],&quot;closed&quot;:true}]}" fill="#ffffff"/><path d="M227.35222,123.835c-0.86593,0.361 -1.79382,1.52585 -2.12611,2.57969c-0.23056,0.188 -0.22808,0.51267 -0.22808,0.51267l0.00483,0.6841c-0.20851,1.43561 -0.40844,2.92879 -0.42333,4.38242c-0.34149,-0.0384 -0.84861,-0.1053 -1.01675,-0.19666c-0.94361,-0.51266 -0.93663,-2.5285 -0.74831,-3.38861c0.35279,-1.61131 0.72828,-3.7957 2.47084,-4.57458c0.36503,-0.16316 0.77221,-0.22123 1.14723,-0.3599c0.343,0.04999 0.62516,0.21112 0.91969,0.36085z" data-paper-data="{&quot;noHover&quot;:false,&quot;origItem&quot;:[&quot;Path&quot;,{&quot;applyMatrix&quot;:true,&quot;segments&quot;:[[[338.44262,342.45984],[2.66651,0.38866],[-2.91538,1.07796]],[[329.54887,345.2624],[2.83772,-1.26839],[-13.54673,6.05504]],[[310.44244,380.69638],[2.74258,-12.52637],[-1.46397,6.68648]],[[316.19833,406.97442],[-7.33565,-3.98544],[1.30721,0.71021]],[[324.07919,408.49777],[-2.65476,-0.29848],[0.11576,-11.30057]],[[327.32896,374.43298],[-1.62098,11.16043],[0,0]],[327.31638,369.11021],[[329.10876,365.12552],[-1.79238,1.46154],[2.58323,-8.19254]],[[345.6743,345.084],[-6.73172,2.80644],[-2.28966,-1.16404]]],&quot;closed&quot;:true}]}" fill="#ffffff"/><path d="M227.61696,149.75793c0.40263,0.0213 0.81465,0.00835 1.05033,0.00839c1.30179,0.00018 3.12707,0.13309 3.73012,-1.36285c0.13119,-0.32545 0.09187,-0.68085 0.03664,-1.02738c-0.32971,-2.06885 -3.04282,-1.89639 -4.60617,-1.89639c0,0 -0.4222,-0.00022 -0.58277,0.34098c-0.11446,0.02769 -0.22103,0.06501 -0.32509,0.12256c-0.07439,-0.03005 -0.15602,-0.04675 -0.24118,-0.04675c-0.03468,0 -0.06885,0.00269 -0.10204,0.00797l-0.72015,0.10237l0.00885,0.06166c-0.02563,0.00279 -0.05111,0.00638 -0.07625,0.01095c0.047,-2.2006 0.13642,-4.40103 0.27235,-6.60172c0.15157,-2.45392 -0.20235,-4.90652 -0.20235,-7.35766c-0.00225,-1.25094 0.15428,-2.53352 0.32648,-3.78468c0.56925,-0.21417 0.37409,-0.80196 0.37409,-0.80196c-0.25785,-0.62032 -0.01561,-0.78178 0.27876,-1.38703c0.46998,-0.96633 1.20643,-1.24248 2.03808,-1.20002c-0.10433,0.15611 -0.11929,0.35205 -0.11929,0.35205c-0.1469,1.48005 -0.10678,2.95927 -0.10678,4.4456l-0.00374,0.1832c0,0 0.00091,0.64307 0.64408,0.64307c0.64317,0 0.64425,-0.64321 0.64425,-0.64321l-0.00019,-0.18293c0,-1.44289 -0.04339,-2.90699 0.10139,-4.34342c0,0 0.01114,-0.11165 -0.02249,-0.24634c0.13711,0.03873 0.2752,0.0812 0.41285,0.12598c-0.0039,0.03498 -0.0039,0.05638 -0.0039,0.05638c0,1.49534 0.00031,3.09502 0.00031,4.59036c0,0 0.00114,0.6433 0.64431,0.6433c0.64317,0 0.64397,-0.64301 0.64397,-0.64301l-0.00556,-0.07921c0,-1.40738 0.00091,-2.81459 0.00091,-4.22197c0.06425,0.02469 0.13084,0.02789 0.19145,0.06173c1.42575,0.79615 1.38792,2.62449 1.55575,3.96713c-0.00043,1.21565 0.35599,2.34825 0.42039,3.54892c0.07417,1.38292 0.19679,2.81604 0.10891,4.2051c-0.19709,3.11504 -0.55584,6.27199 -0.11118,9.38459c-0.00169,0.71508 -0.00256,1.43056 -0.00256,2.14565c0,0.55333 0.19962,1.13366 -0.22963,1.52764c-1.29392,1.18762 -3.78446,0.85535 -5.39281,0.85535c-0.57686,0 -1.42272,0.15905 -1.97977,0.0359c-0.44232,-0.09778 -0.52347,-0.85021 -0.52676,-1.46876c0.03275,0.00398 0.07594,-0.0182 0.11279,-0.0182c0.19724,0 0.33363,-0.0606 0.42845,-0.14448c0.00134,0.00114 0.00267,0.00228 0.00401,0.00342l0.25964,0.26544c0,0 0.45389,0.45457 0.90867,-0.00022c0.07998,-0.07998 0.13172,-0.15999 0.16285,-0.2375z" data-paper-data="{&quot;noHover&quot;:false,&quot;origItem&quot;:[&quot;Path&quot;,{&quot;applyMatrix&quot;:true,&quot;segments&quot;:[[[346.39531,548.63926],[0.62179,-0.62179],[-3.53553,3.53553]],[339.32424,548.63926],[[337.30321,546.57498],[0,0],[-0.01041,-0.00887]],[[337.27199,546.54836],[0.0104,0.00888],[-0.73709,0.65205]],[[333.93844,547.67064],[1.53334,0],[-0.28644,0]],[[333.12741,547.62329],[0.25456,0.03094],[0.02559,4.80858]],[[337.21554,559.03927],[-3.43859,-0.76019],[4.33046,0.95736]],[[352.59213,558.75742],[-4.48449,0],[12.50333,0]],[[394.47428,552.11158],[-10.05894,9.23254],[3.33699,-3.06283]],[[396.25393,540.23755],[0,4.3016],[0,-5.5591]],[[396.26651,523.56036],[-0.01314,5.55908],[-3.45677,-24.19739]],[[397.07462,450.71356],[-1.53217,24.21631],[0.68322,-10.79851]],[[396.26359,418.0827],[0.57662,10.7508],[-0.50063,-9.33407]],[[393.01947,390.50768],[-0.00337,9.4505],[-1.30472,-10.43773]],[[380.94778,359.6737],[11.08375,6.18927],[-0.47114,-0.26309]],[[379.48994,358.99615],[0.49945,0.19197],[0,10.94097]],[[379.48994,391.81905],[0,-10.94097],[0,0]],[379.48994,392.63008],[[374.48994,397.63008],[5,0],[-5,0]],[[369.48994,392.63008],[0,0],[0,-11.62476]],[[369.48994,356.94476],[0,11.62476],[0,0]],[[369.52027,356.5065],[-0.03033,0.27196],[-1.07005,-0.34818]],[[366.314,355.5272],[1.06586,0.3011],[0.26145,1.04712]],[[366.48865,357.44228],[0,0],[-1.12554,11.16678]],[[365.70243,391.00802],[0,-11.21704],[0,0]],[365.70243,392.63008],[[360.70243,397.63008],[5,0],[-5,0]],[355.70243,392.63008],[[355.70243,391.00802],[0,0],[0,-11.55476]],[[356.53828,356.44724],[-1.14201,11.50594],[0,0]],[[357.48175,353.90977],[-0.81108,1.21362],[-6.46521,-0.33011]],[[341.6547,363.23598],[3.65359,-7.5123],[-2.28839,4.70525]],[[339.49289,374.01731],[-2.0045,-4.82238],[0,0]],[[336.59012,380.24991],[4.42532,-1.66491],[-1.33864,9.72654]],[[334.07226,409.66171],[-0.01751,-9.72475],[0,19.05517]],[[335.68466,466.7445],[1.17829,-19.07679],[-1.0567,17.10812]],[[333.51866,518.00978],[0.36534,-17.10746],[0.19544,-0.03554]],[[334.11082,517.9243],[-0.19927,0.02168],[0,0]],[334.04237,517.44514],[[339.63443,516.64627],[0,0],[0.25804,-0.04108]],[[340.42668,516.58385],[-0.2696,0],[0.66201,0]],[[342.29891,516.94618],[-0.57827,-0.23367],[0.80901,-0.44746]],[[344.82312,515.99226],[-0.88983,0.21525],[1.24824,-2.65253]],[[349.34801,513.33973],[0,0],[12.15349,0]],[[385.10259,528.08221],[-2.56313,-16.08322],[0.42931,2.69387]],[[384.86851,536.26246],[1.01992,-2.53002],[-4.68809,11.62938]],[[355.83625,546.85961],[10.12013,0.00142],[-1.83212,-0.00026]],[[347.66225,546.79312],[3.13001,0.16559],[-0.24207,0.60256]]],&quot;closed&quot;:true}]}" fill="#ffffff"/></g><g><path d="M227.99514,150.82345c0.1577,0.31848 0.16216,0.69817 0.16353,1.05356c0.00238,0.61261 -0.32558,1.69055 -0.81896,2.0526c-1.0465,0.76793 -3.68502,0.27082 -4.2014,-0.98886c-0.21253,-0.51844 0.02014,-1.43363 0.28409,-1.9034c0.05091,-0.0906 0.12006,-0.18639 0.20018,-0.28383c-0.47492,-0.21033 -1.18662,-0.7187 -1.33084,-1.03584c-0.0748,-0.1645 -0.02812,-1.4599 -0.02132,-1.74021c0.02443,-1.00819 0.04887,-2.01637 0.0733,-3.02457c0.13106,-5.40793 0.78226,-10.74757 0.91326,-16.15313c0.01431,-0.54886 -0.01131,-1.22167 0.1761,-1.75291c0.414,-1.17351 1.90941,-2.28285 3.19943,-1.78601c0.38042,0.14651 0.73215,0.67136 0.99453,1.09289c0.31106,0.17675 0.30138,0.57647 0.30138,0.57647c-0.03792,1.44256 0.38346,2.81288 0.41782,4.25669c0.09612,4.03962 -0.44812,8.06787 0.01919,12.09227c-0.03735,1.54118 0.03939,3.0871 -0.00641,4.63714c-0.01905,0.64461 0.04775,1.14401 -0.36592,1.71575c-0.17984,0.24855 -0.4023,0.43793 -0.65155,0.58379c0.2204,0.20064 0.52159,0.34102 0.65359,0.6076zM225.38734,150.80378c-0.36222,0.34411 -1.25575,1.02507 -1.04902,1.67365c0.14344,0.45001 1.9095,0.65516 2.23457,0.4194c0.53973,-0.39144 0.36042,-1.41511 -0.069,-1.70547l-0.17188,0.01325c0,0 -0.44438,-0.12261 -0.47691,-0.53644c-0.13172,0.01832 -0.26318,0.03348 -0.39298,0.04688c-0.04083,0.05638 -0.07478,0.08873 -0.07478,0.08873zM226.64151,127.1842c-0.14168,-0.28664 -0.25539,-0.61089 -0.52991,-0.7472c-0.3267,-0.16222 -0.63433,0.17379 -0.84285,0.32195c-0.76573,0.54408 -0.70593,1.17597 -0.72581,2.072c-0.13102,5.40585 -0.7822,10.74538 -0.91326,16.15313c-0.02443,1.00819 -0.04887,2.01637 -0.0733,3.02457c-0.00956,0.39444 -0.22052,0.807 -0.0921,1.18006c0.08391,0.24378 0.41168,0.3569 0.6672,0.39124c0.21463,0.02885 0.42833,-0.06437 0.64307,-0.09231c0.65241,-0.08489 1.71527,-0.01043 2.18152,-0.61665c0.28122,-0.36564 0.12475,-1.30665 0.13467,-1.71589c0.03096,-1.27747 -0.04104,-2.54589 -0.01026,-3.81583c-0.48599,-4.03036 0.07244,-8.07295 -0.02017,-12.11941c-0.03137,-1.37079 -0.39823,-2.67106 -0.41882,-4.03564z" fill="#9966ff"/><path d="M225.46034,150.70231c0.1298,-0.0134 0.26564,-0.02842 0.39735,-0.04674c0.03253,0.41383 0.48404,0.54061 0.48404,0.54061l0.17263,-0.0123c0.42942,0.29036 0.60681,1.3311 0.06709,1.72254c-0.32507,0.23576 -2.11115,0.02686 -2.25459,-0.42315c-0.20673,-0.64858 0.69543,-1.34793 1.05766,-1.69205c0,0 0.035,-0.03253 0.07583,-0.08892z" data-paper-data="{&quot;noHover&quot;:false,&quot;origItem&quot;:[&quot;Path&quot;,{&quot;applyMatrix&quot;:true,&quot;segments&quot;:[[[475.794,535.00135],[0,0],[-2.75029,2.74259]],[[467.95653,548.20608],[-1.72879,-5.00165],[1.19951,3.47034]],[[485.402,551.04465],[-2.48197,1.89348],[4.12088,-3.1438]],[[484.54456,537.80325],[3.39197,2.17571],[0,0]],[483.21123,537.93858],[[479.40376,533.85935],[0.33076,3.21005],[-1.02019,0.16718]],[[476.35846,534.29769],[1.00624,-0.12859],[-0.30672,0.4459]]],&quot;closed&quot;:true}]}" fill="#ffffff"/><path d="M227.06316,131.20729c0.09261,4.04646 -0.46507,8.11395 0.02092,12.14431c-0.03078,1.26994 0.0398,2.53869 0.00884,3.81616c-0.00992,0.40923 0.14606,1.35032 -0.13516,1.71596c-0.46626,0.60623 -1.53163,0.53184 -2.18404,0.61674c-0.21474,0.02794 -0.42915,0.1211 -0.64378,0.09225c-0.25552,-0.03434 -0.58408,-0.14758 -0.66799,-0.39136c-0.12842,-0.37307 0.08238,-0.78566 0.09194,-1.18009c0.02443,-1.00819 0.04798,-2.01658 0.07242,-3.02477c0.13106,-5.40775 0.78424,-10.77248 0.91526,-16.17834c0.01988,-0.89603 -0.03885,-1.52798 0.72689,-2.07206c0.20852,-0.14816 0.51709,-0.48415 0.84379,-0.32193c0.27452,0.13631 0.3889,0.46061 0.53058,0.74725c0.02058,1.36459 0.38895,2.66511 0.42033,4.03589z" data-paper-data="{&quot;noHover&quot;:false,&quot;origItem&quot;:[&quot;Path&quot;,{&quot;applyMatrix&quot;:true,&quot;segments&quot;:[[[481.09232,351.20035],[0.41699,10.60131],[-1.15507,-2.20096]],[[476.83329,345.49316],[2.15917,1.00762],[-2.56962,-1.19916]],[[470.34355,348.15397],[1.59265,-1.19073],[-5.84861,4.37267]],[[465.09302,364.39363],[-0.01429,-6.96741],[0,42.03747]],[[461.03787,490.10328],[0,-42.05218],[0,7.83996]],[[461.03787,513.62315],[0,-7.83996],[0,3.06724]],[[460.54438,522.81163],[-1.0683,-2.87518],[0.69807,1.87877]],[[465.80336,525.72656],[-1.99229,-0.21876],[1.67344,0.18375]],[[470.78377,524.88799],[-1.66368,0.25762],[5.05436,-0.78266]],[[487.62181,519.68464],[-3.50945,4.79923],[2.11667,-2.89459]],[[488.34525,506.32388],[0,3.18234],[0,-9.93399]],[[487.54679,476.67022],[0,9.87543],[-4.53614,-31.23126]],[[485.10733,382.48536],[1.48188,31.43047],[-0.50201,-10.64746]]],&quot;closed&quot;:true}]}" fill="#ffffff"/></g></g></g></g></svg>