<svg version="1.1" xmlns="http://www.w3.org/2000/svg" xmlns:xlink="http://www.w3.org/1999/xlink" width="26.01671" height="26.63793" viewBox="0,0,26.01671,26.63793"><g transform="translate(-189.37237,-125.07392)"><g data-paper-data="{&quot;isPaintingLayer&quot;:true}" stroke-width="1" stroke-linejoin="miter" stroke-miterlimit="10" stroke-dasharray="" stroke-dashoffset="0" style="mix-blend-mode: normal"><g><path d="M199.6602,128.45571c5.06832,-0.25958 8.91278,1.76136 11.53332,6.06283c2.23928,4.60978 1.82115,8.95369 -1.25438,13.03161c-3.28376,3.59471 -7.31401,4.86065 -12.09082,3.79798c-4.52873,-1.46247 -7.30463,-4.51709 -8.32768,-9.16394c-0.66431,-4.79333 0.90366,-8.66098 4.70392,-11.60301c1.65146,-1.116 3.46334,-1.82449 5.43564,-2.12547z" fill="#0c0608" fill-rule="evenodd" stroke="none" stroke-linecap="butt"/><path d="M211.36775,143.57796c0.49687,-4.84685 -1.19884,-8.71452 -5.08721,-11.60301c-2.29991,-1.54483 -4.83194,-2.41592 -7.59596,-2.61329c4.15123,-0.73098 7.67046,0.43048 10.5577,3.48439c2.59559,3.19476 3.30404,6.77205 2.12548,10.73191z" fill="#feffb1" fill-rule="evenodd" stroke="none" stroke-linecap="butt"/><path d="M198.68457,129.36165c2.76402,0.19737 5.29606,1.06847 7.59596,2.61329c3.88837,2.88849 5.58408,6.75616 5.08721,11.60301c-1.20908,3.35783 -3.4855,5.6691 -6.8294,6.93393c-0.56747,0.19317 -1.14824,0.32091 -1.74219,0.38328c-4.30196,-0.12997 -7.6237,-1.99997 -9.96535,-5.60986c-1.24409,-2.35949 -1.7203,-4.87982 -1.4286,-7.56112c0.28242,-1.89822 0.87476,-3.68688 1.77704,-5.36596c1.52344,-1.56326 3.35853,-2.56212 5.50533,-2.99657z" fill="#ffeb6e" fill-rule="evenodd" stroke="none" stroke-linecap="butt"/><path d="M193.17924,132.35823c-0.90227,1.67908 -1.49462,3.46773 -1.77704,5.36596c-0.2917,2.68131 0.18451,5.20163 1.4286,7.56112c2.34165,3.60989 5.66338,5.4799 9.96535,5.60986c-4.29374,0.60921 -7.81297,-0.76134 -10.5577,-4.11157c-2.69529,-3.86913 -2.97404,-7.91102 -0.83625,-12.12567c0.47565,-0.85866 1.06797,-1.62523 1.77704,-2.2997z" fill="#fec900" fill-rule="evenodd" stroke="none" stroke-linecap="butt"/><path d="M199.93895,139.18763c0.18056,0.05254 0.3083,0.16871 0.38328,0.34844c0.13241,0.28795 0.19046,0.58998 0.17422,0.90594c-0.05589,-0.10119 -0.09073,-0.21729 -0.10453,-0.34844c-0.01331,0.15387 -0.04815,0.29325 -0.10453,0.41813c0.06732,-0.49416 -0.04885,-0.93549 -0.34844,-1.32407z" fill="#79527e" fill-rule="evenodd" stroke="none" stroke-linecap="butt"/><path d="M197.01207,139.95419c-0.06314,0.56942 0.07624,1.08044 0.41813,1.53313c-0.28969,-0.13485 -0.46391,-0.36718 -0.52266,-0.69688c-0.01164,-0.13938 -0.02321,-0.27875 -0.03485,-0.41813c0.00272,-0.17088 0.0492,-0.31025 0.13938,-0.41813z" fill="#916796" fill-rule="evenodd" stroke="none" stroke-linecap="butt"/><path d="M200.49646,140.44201c-0.08307,0.28495 -0.1876,0.5637 -0.3136,0.83625c-0.12383,0.15958 -0.27485,0.27575 -0.45297,0.34844c0.33144,-0.29645 0.51722,-0.66809 0.5575,-1.115c0.05638,-0.12488 0.09122,-0.26425 0.10453,-0.41813c0.0138,0.13115 0.04864,0.24725 0.10453,0.34844z" fill="#a87fae" fill-rule="evenodd" stroke="none" stroke-linecap="butt"/><path d="M205.23522,139.327c-0.46461,0.67367 -0.46461,1.34727 0,2.02094c-0.07491,0.07401 -0.1446,0.07401 -0.20906,0c-0.37136,-0.65165 -0.37136,-1.30205 0,-1.95126c0.05749,-0.06174 0.12718,-0.08495 0.20906,-0.06969z" fill="#976e9d" fill-rule="evenodd" stroke="none" stroke-linecap="butt"/><g fill-rule="evenodd" stroke="none" stroke-linecap="butt"><path d="M200.08394,136.93496c-0.4757,0.17657 -0.97868,0.28437 -1.50915,0.32339c-0.47797,0.04409 -0.94516,0.15188 -1.40135,0.32339c-0.0719,-0.0359 -0.14369,-0.0719 -0.21559,-0.1078c0.49705,-0.44617 1.07193,-0.75166 1.72474,-0.91627c0.55278,-0.14358 1.01986,-0.01779 1.40135,0.37729z" fill="#191409"/><path d="M205.25814,136.50378c1.0039,-0.03061 1.90227,0.27477 2.6949,0.91626c-0.96132,-0.10359 -1.93149,-0.15749 -2.91049,-0.16169c-0.03601,-0.28975 0.03579,-0.54125 0.21559,-0.75457z" fill="#1b160c"/><path d="M200.08394,136.93496c0.18541,0.13485 0.2213,0.29655 0.10779,0.48508c-0.52874,-0.0871 -1.06772,-0.141 -1.61694,-0.1617c0.53046,-0.03902 1.03344,-0.14682 1.50915,-0.32339z" fill="#8f843d"/><path d="M207.41407,139.09088c-0.78853,-0.46288 -1.5431,-0.42687 -2.26372,0.1078c-0.01833,-0.14251 0.01757,-0.2683 0.1078,-0.37729c0.68774,-0.3401 1.37041,-0.3401 2.04812,0c0.08106,0.07233 0.11706,0.16213 0.10779,0.26949z" fill="#9c8d50"/><path d="M207.41407,139.09088c0.76126,0.91357 0.68935,1.77594 -0.21559,2.5871c-0.57067,0.23834 -1.14566,0.25634 -1.72473,0.0539c-0.16612,-0.14779 -0.30991,-0.30948 -0.43118,-0.48508c-0.42968,-0.67674 -0.42968,-1.35942 0,-2.04812c0.0359,0 0.0719,0 0.10779,0c0.72062,-0.53467 1.47519,-0.57067 2.26372,-0.1078z" fill="#0c0907"/><path d="M199.97614,139.41427c0.18886,0.40175 0.26076,0.83294 0.21559,1.29355c-0.1245,0.32069 -0.3042,0.60819 -0.53898,0.86237c-0.68461,0.41566 -1.3674,0.41566 -2.04812,0c-0.0359,-0.10779 -0.10779,-0.17969 -0.21559,-0.21559c-0.26496,-0.46169 -0.37276,-0.96467 -0.32339,-1.50915c0.38149,-0.91238 1.06427,-1.28967 2.04812,-1.13186c0.36791,0.13431 0.65529,0.36791 0.86237,0.70067z" fill="#0a0807"/><path d="M198.89818,139.52207c0.14369,0 0.28749,0 0.43118,0c0,0.1797 0,0.35928 0,0.53898c-0.14369,0 -0.28749,0 -0.43118,0c0,-0.1797 0,-0.35928 0,-0.53898z" fill="#d9d8d7"/><path d="M206.65949,139.62986c0.14369,0 0.28749,0 0.43118,0c0.04139,0.23338 -0.03051,0.41308 -0.21559,0.53898c-0.18508,-0.12591 -0.25699,-0.3056 -0.21559,-0.53898z" fill="#e8e8e8"/><path d="M199.97614,139.41427c0.28588,0.08893 0.42957,0.28652 0.43118,0.59288c-0.03256,0.25871 -0.10434,0.49219 -0.21559,0.70067c0.04517,-0.46061 -0.02673,-0.8918 -0.21559,-1.29355z" fill="#766b30"/><path d="M205.04256,139.19868c-0.42968,0.68871 -0.42968,1.37138 0,2.04812c-0.206,-0.00798 -0.3318,-0.11577 -0.37729,-0.32339c-0.0719,-0.39529 -0.0719,-0.79047 0,-1.18576c0.05918,-0.24362 0.18498,-0.42321 0.37729,-0.53898z" fill="#958949"/><path d="M197.06565,139.84546c-0.04937,0.54448 0.05842,1.04746 0.32339,1.50915c-0.18034,-0.09087 -0.30614,-0.23456 -0.37729,-0.43118c-0.0871,-0.3802 -0.0691,-0.73948 0.0539,-1.07796z" fill="#7a7245"/><path d="M197.60463,141.57019c0.68073,0.41566 1.36351,0.41566 2.04812,0c-0.22821,0.37384 -0.56959,0.51763 -1.02406,0.43118c-0.39356,-0.02867 -0.77085,-0.11847 -1.13186,-0.26949c0.05994,-0.04128 0.09583,-0.09518 0.10779,-0.16169z" fill="#c7b964"/></g><path d="M199.69366,145.88438c0,0 1.99865,-0.59827 2.92486,-0.59827c1.06949,0 3.12428,0.59827 3.12428,0.59827" fill="none" fill-rule="nonzero" stroke="#000000" stroke-linecap="round"/><g stroke="none" stroke-linecap="butt"><path d="M203.45242,125.6894c0.00175,0.17308 0.0035,0.34615 0.00526,0.51923c-0.15144,0.00853 -0.29022,-0.02468 -0.41643,-0.09964c0.0167,-0.21738 -0.02008,-0.42471 -0.11015,-0.62202c0.08869,-0.11335 0.19236,-0.1317 0.31101,-0.05508c0.05982,0.1027 0.12996,0.18853 0.21032,0.25751z" fill="#4a4b4b" fill-rule="evenodd"/><path d="M204.74586,130.34982c-0.29054,-0.83634 -0.45506,-1.70014 -0.49358,-2.5914c-0.26543,-0.68533 -0.49747,-1.37535 -0.69601,-2.07007c0.16408,-0.05207 0.32055,0.01558 0.4694,0.20296c0.33654,1.49302 0.71507,2.97779 1.13557,4.45431c-0.13843,0.0014 -0.27695,0.0028 -0.41538,0.0042z" fill="#4c4c4c" fill-rule="evenodd"/><path d="M213.38287,132.02795c0.23115,0.12987 0.47447,0.23126 0.73007,0.30418c0.28858,0.16117 0.56747,0.34872 0.83654,0.56274c0.20548,0.14861 0.34583,0.33757 0.42116,0.56695c-0.24113,-0.0902 -0.27494,-0.00324 -0.10122,0.26066c-0.26299,0.50013 -0.43662,0.44996 -0.5208,-0.15051c-0.09114,0.08661 -0.12467,0.1908 -0.10069,0.31258c-0.21442,0.00394 -0.42176,0.04062 -0.62202,0.11015c0.04603,-0.09996 0.11432,-0.18727 0.20506,-0.26171c-0.1702,-0.04958 -0.34349,-0.06507 -0.51975,-0.04666c0.2744,-0.08036 0.5502,-0.18701 0.82761,-0.31994c-0.44146,-0.33587 -0.92874,-0.59057 -1.46171,-0.76413c-0.09281,-0.13989 -0.12907,-0.2953 -0.10858,-0.46625c0.13711,-0.01904 0.25864,0.01431 0.36451,0.10016c0.04756,-0.06217 0.0642,-0.13161 0.04982,-0.20821z" fill="#292f2a" fill-rule="evenodd"/><path d="M201.16468,125.40099c0.60444,0.26664 1.22996,0.50264 1.87657,0.708c0.12622,0.07496 0.26499,0.10817 0.41643,0.09964c-0.00175,-0.17308 -0.0035,-0.34615 -0.00526,-0.51923c0.03458,-0.00035 0.06927,-0.0007 0.10384,-0.00105c0.19854,0.69472 0.43058,1.38474 0.69601,2.07007c0.03852,0.89127 0.20304,1.75506 0.49358,2.5914c0.11109,0.18125 0.2849,0.24873 0.52133,0.20243c-0.02597,-0.13381 0.00756,-0.23801 0.10069,-0.31258c0.00035,0.03461 0.0007,0.06924 0.00105,0.10384c0.09206,0.312 0.28311,0.37932 0.57325,0.20191c0.07854,0.0642 0.16568,0.11525 0.26119,0.15314c-0.17989,0.18398 -0.24687,0.40972 -0.20086,0.6771c0.23949,0.0817 0.48274,0.16586 0.72954,0.25226c-0.16917,0.05301 -0.3421,0.07201 -0.5187,0.05718c-0.00033,0.16202 -0.03334,0.31814 -0.09911,0.46835c0.28231,0.18741 0.24895,0.30895 -0.10016,0.36451c-0.00105,-0.10384 -0.0021,-0.20769 -0.00315,-0.31153c-0.02395,-0.1705 0.00916,-0.32661 0.09912,-0.46836c-0.20541,-0.04933 -0.41327,-0.06457 -0.62359,-0.04561c-0.00105,-0.10384 -0.0021,-0.20769 -0.00315,-0.31153c0.13843,-0.0014 0.27695,-0.0028 0.41538,-0.0042c-0.00175,-0.17311 -0.0035,-0.34612 -0.00526,-0.51923c-0.20769,0.0021 -0.41538,0.0042 -0.62307,0.00631c-0.02757,0.69268 -0.06226,0.69304 -0.10385,0.00105c-0.17311,0.00175 -0.34612,0.0035 -0.51923,0.00526c-0.02898,0.55416 -0.06366,0.5545 -0.10384,0.00105c-0.17311,0.00175 -0.34612,0.0035 -0.51923,0.00526c0.00908,0.45615 -0.04249,0.49125 -0.15472,0.10542c-0.09335,-0.0594 -0.19754,-0.09303 -0.31258,-0.10069c-0.30707,0.08516 -0.61755,0.19215 -0.93145,0.32099c-0.35519,-0.11293 -0.71882,-0.12659 -1.0909,-0.04089c-0.09596,0.04126 -0.16453,0.11124 -0.20559,0.20979c0.10023,0.134 0.10145,0.25518 0.00368,0.36345c-0.10049,-0.15944 -0.13682,-0.3322 -0.1091,-0.51818c-0.14858,-0.0067 -0.28676,0.02928 -0.41433,0.10805c-0.11448,-0.12627 -0.25388,-0.21137 -0.41801,-0.25541c0.53848,-0.05229 1.05666,-0.16139 1.55452,-0.3273c-0.2753,-0.04887 -0.55243,-0.06338 -0.83129,-0.04351c0.02753,-0.5742 -0.01266,-1.12769 -0.12066,-1.66047c-0.25244,-1.19691 -0.40313,-2.40704 -0.45217,-3.63038c-0.13843,0.0014 -0.27695,0.0028 -0.41538,0.0042c-0.01127,0.58964 0.01203,1.17793 0.06979,1.76484c0.3009,1.16262 0.36474,2.33902 0.1915,3.52916c0.17311,-0.00175 0.34611,-0.0035 0.51922,-0.00525c-0.29626,0.20884 -0.60745,0.24657 -0.93356,0.1133c0.19533,-0.5977 0.29269,-1.23911 0.29209,-1.92429c-0.13195,-0.77506 -0.24368,-1.55285 -0.33518,-2.33337c0.01606,-0.38341 0.04678,-0.76453 0.09228,-1.14335c-0.17311,0.00175 -0.34612,0.0035 -0.51923,0.00526c-0.04657,0.39607 -0.07722,0.79449 -0.09176,1.19527c0.15082,0.75069 0.26237,1.51117 0.33466,2.28144c-0.01453,0.40078 -0.04519,0.7992 -0.09176,1.19527c-0.09462,-0.07268 -0.13026,-0.17617 -0.107,-0.31048c-0.1379,-1.41385 -0.22153,-2.83236 -0.25078,-4.25555c-0.13746,-0.01626 -0.2583,0.01958 -0.36241,0.10753c-0.08558,0.35899 -0.13382,0.72298 -0.14473,1.09195c0.25494,1.39347 0.30382,2.79502 0.14641,4.20468c0.45821,0.04085 0.62922,-0.16859 0.51292,-0.62833c0.10165,0.18224 0.13844,0.38957 0.11015,0.62202c0.10909,-0.01658 0.21311,-0.00039 0.31206,0.04877c-0.23301,0.06581 -0.40472,0.20599 -0.51502,0.42064c0.03493,0.03423 0.06996,0.06856 0.1049,0.10279c-0.45505,0.00491 -0.62588,0.2316 -0.5124,0.68025c0.54986,-0.09737 1.10297,-0.17224 1.65942,-0.22451c-0.01658,-0.10909 -0.00039,-0.21311 0.04877,-0.31206c0.18665,0.20779 0.41326,0.36129 0.67972,0.46048c1.03959,-0.06193 2.07787,-0.08979 3.11483,-0.08345c0.36892,0.02264 0.71573,0.08841 1.04055,0.19718c-1.23039,-0.02161 -2.4416,0.02523 -3.63353,0.14063c-3.27851,0.35981 -6.4555,1.1363 -9.53116,2.32936c-0.36858,0.20542 -0.71242,0.43385 -1.03162,0.6855c-0.28075,0.07329 -0.49061,0.22245 -0.62963,0.44745c-0.31852,0.0657 -0.5832,0.27705 -0.72221,0.56075c-0.01924,-0.00087 -0.03862,-0.00121 -0.05812,-0.00101c-0.03502,0.00035 -0.06963,0.00244 -0.10372,0.00617c0.00589,-0.02106 0.01169,-0.04223 0.01738,-0.06352c0.01275,-1.4241 0.08492,-2.84423 0.21652,-4.26028c0.1881,-0.67115 0.44106,-1.3315 0.75887,-1.98094c0.55602,-0.75165 1.13715,-1.48452 1.7433,-2.19862c0.11504,-0.32138 0.25031,-0.63432 0.40592,-0.93881c0.50337,-0.37171 1.0366,-0.70598 1.59962,-1.00282c1.10135,-0.13665 2.20837,-0.21709 3.32094,-0.24132c0.50477,-0.11965 0.98757,-0.29763 1.44858,-0.53394c0.6523,-0.10415 1.27625,-0.02391 1.87184,0.2407z" fill="#0e0d0c" fill-rule="nonzero"/><path d="M195.5686,126.60004c-0.05512,0.96737 -0.06266,1.93678 -0.02249,2.90819c-0.277,0.6034 -0.58258,1.19501 -0.91674,1.77483c-0.12112,0.33627 -0.16954,0.68291 -0.14526,1.04002c0.17094,0.02049 0.32636,-0.01577 0.46625,-0.10858c0.04918,-0.2404 0.06397,-0.48285 0.04456,-0.72744c0.07625,0.24775 0.14814,0.50667 0.21558,0.77674c-0.03423,0.03493 -0.06856,0.06996 -0.10279,0.1049c0.18538,0.07124 0.37635,0.12123 0.57272,0.14999c0.2625,-0.11711 0.52212,-0.11973 0.77884,-0.00788c0.0913,-0.24571 0.26283,-0.40323 0.5145,-0.47256c-0.16077,-0.11365 -0.23152,-0.26872 -0.21242,-0.4652c0.11242,-0.00519 0.21592,-0.04092 0.31048,-0.107c0.06769,-0.18669 0.13521,-0.3605 0.20244,-0.52133c-0.02748,0.19916 0.00885,0.37182 0.1091,0.51818c0.16735,-0.05757 0.34011,-0.0939 0.51818,-0.1091c0.10319,0.01682 0.172,-0.01857 0.20663,-0.10595c0.13843,-0.0014 0.27695,-0.0028 0.41538,-0.0042c0.09083,-0.01452 0.16045,0.01935 0.20874,0.10174c-0.53737,0.19269 -0.53597,0.33112 0.0042,0.41538c-0.12681,0.60541 -0.48851,0.7822 -1.08512,0.53026c-0.13927,0.24651 -0.34521,0.42172 -0.61782,0.52553c-0.04347,-0.04702 -0.09575,-0.08118 -0.15682,-0.10227c-0.70523,0.26221 -1.43004,0.47725 -2.17444,0.64514c-0.09772,-0.1225 -0.1337,-0.26057 -0.10805,-0.41433c-0.2006,-0.02591 -0.37308,0.02777 -0.51765,0.16102c0.10945,0.04999 0.21312,0.0317 0.31101,-0.05508c0.14509,0.36971 0.00831,0.54412 -0.41013,0.52343c-0.00105,-0.10384 -0.0021,-0.20769 -0.00315,-0.31153c-0.36951,-0.01963 -0.40332,0.06723 -0.10122,0.26066c-0.48205,0.28124 -0.999,0.51153 -1.55084,0.69076c-0.11504,-0.14091 -0.08159,-0.26245 0.10016,-0.36451c-0.20591,-0.04787 -0.34556,-0.16755 -0.41906,-0.35926c-0.1417,-0.47661 -0.25046,-0.96021 -0.32625,-1.45068c0.03773,-0.57169 0.29279,-1.02438 0.76518,-1.35787c0.04881,0.06124 0.06685,0.1303 0.05403,0.20717c-0.45864,0.82957 -0.51905,1.69572 -0.18141,2.59823c-0.27217,-1.44312 0.16624,-2.58997 1.31531,-3.44056c-0.3737,0.46992 -0.73225,0.95821 -1.07566,1.46487c-0.07038,0.62987 -0.02948,1.25259 0.12277,1.86816c0.10273,-0.05982 0.18853,-0.12996 0.25751,-0.21032c0.06892,-0.03528 0.13773,-0.07067 0.20664,-0.10595c0.10352,0.00788 0.18967,-0.02768 0.25856,-0.10647c0.02968,-0.485 0.05945,-0.96989 0.08913,-1.45488c0.44623,-0.68101 0.90688,-1.34343 1.38194,-1.98724c0.00284,0.18778 -0.04734,0.36139 -0.15051,0.5208c-0.34156,0.45349 -0.68322,0.90704 -1.02479,1.3605c-0.03642,0.22864 -0.08607,0.4542 -0.14894,0.67657c0.06735,0.22105 0.12155,0.44555 0.1626,0.67341c0.14884,-0.08044 0.30391,-0.15117 0.4652,-0.21242c0.06579,-0.49803 0.18197,-0.9838 0.34874,-1.45751c0.54929,-0.6674 0.83588,-1.43191 0.85956,-2.29353c-0.20922,-0.76459 -0.14731,-1.49221 0.18562,-2.18285z" fill="#1a1a1b" fill-rule="evenodd"/><path d="M193.63023,130.0469c-1.14907,0.85058 -1.58747,1.99742 -1.31531,3.44056c-0.33763,-0.90252 -0.27723,-1.76866 0.18141,-2.59823c0.41902,-0.32233 0.76128,-0.70659 1.02689,-1.15281c0.19679,-0.15514 0.31577,-0.36406 0.35715,-0.62675c0.01582,-0.69372 0.00882,-1.38603 -0.02102,-2.0769c0.05533,-0.29032 0.1913,-0.53403 0.40802,-0.73112c-0.02934,0.24154 -0.09605,0.48456 -0.20034,0.72902c0.19134,1.06038 0.04573,2.06579 -0.43682,3.01624z" fill="#323232" fill-rule="evenodd"/><path d="M201.85816,132.3523c1.19193,-0.1154 2.40314,-0.16224 3.63353,-0.14063c0.17311,-0.00175 0.34612,-0.0035 0.51923,-0.00526c0.00105,0.10384 0.0021,0.20769 0.00315,0.31153c-1.38054,-0.15199 -2.7658,-0.20724 -4.15591,-0.16565z" fill="#241e09" fill-rule="evenodd"/><path d="M200.99377,129.03767c0.108,0.53278 0.14819,1.08627 0.12066,1.66047c0.27886,-0.01987 0.55599,-0.00536 0.83129,0.04351c-0.49787,0.16591 -1.01604,0.27501 -1.55452,0.3273c0.16412,0.04404 0.30352,0.12913 0.41801,0.25541c0.12757,-0.07877 0.26575,-0.11475 0.41433,-0.10805c-0.02772,0.18597 0.00862,0.35873 0.1091,0.51818c0.09777,-0.10827 0.09655,-0.22946 -0.00368,-0.36345c0.04106,-0.09856 0.10963,-0.16853 0.20559,-0.20979c0.37208,-0.08571 0.73571,-0.07204 1.0909,0.04089c0.3139,-0.12884 0.62438,-0.23584 0.93145,-0.32099c0.11504,0.00766 0.21924,0.0413 0.31258,0.10069c0.11222,0.38583 0.1638,0.35073 0.15472,-0.10542c0.17311,-0.00175 0.34612,-0.0035 0.51923,-0.00526c0.04019,0.55345 0.07487,0.5531 0.10384,-0.00105c0.17311,-0.00175 0.34612,-0.0035 0.51923,-0.00526c0.04159,0.69198 0.07627,0.69163 0.10385,-0.00105c0.20769,-0.0021 0.41538,-0.0042 0.62307,-0.00631c0.00175,0.17311 0.0035,0.34612 0.00526,0.51923c-0.13843,0.0014 -0.27695,0.0028 -0.41538,0.0042c0.00105,0.10384 0.0021,0.20769 0.00315,0.31153c0.21032,-0.01896 0.41819,-0.00372 0.62359,0.04561c-0.08996,0.14174 -0.12307,0.29786 -0.09912,0.46836c-0.17311,0.00175 -0.34612,0.0035 -0.51923,0.00526c-0.32482,-0.10877 -0.67163,-0.17454 -1.04055,-0.19718c-1.03696,-0.00633 -2.07524,0.02152 -3.11483,0.08345c-0.26646,-0.09919 -0.49307,-0.25268 -0.67972,-0.46048c-0.04916,0.09895 -0.06535,0.20298 -0.04877,0.31206c-0.55645,0.05227 -1.10955,0.12713 -1.65942,0.22451c-0.11348,-0.44865 0.05735,-0.67533 0.5124,-0.68025c-0.03493,-0.03423 -0.06996,-0.06856 -0.1049,-0.10279c0.1103,-0.21464 0.28201,-0.35482 0.51502,-0.42064c-0.09895,-0.04916 -0.20297,-0.06535 -0.31206,-0.04877c0.02828,-0.23245 -0.0085,-0.43979 -0.11015,-0.62202c-0.03151,-0.19853 0.00132,-0.37195 0.09859,-0.52028c-0.02326,0.13431 0.01238,0.2378 0.107,0.31048c0.00245,0.2423 0.00491,0.48462 0.00736,0.72692c0.10384,-0.00105 0.20769,-0.0021 0.31153,-0.00315c0.3261,0.13327 0.63729,0.09554 0.93356,-0.1133c0.09304,-0.54516 0.12202,-1.09936 0.08703,-1.66257z" fill="#272726" fill-rule="evenodd"/><path d="M196.28921,125.96961c0.1129,0.01132 0.18287,0.07985 0.20979,0.20559c-0.16567,0.47005 -0.26461,0.95571 -0.29682,1.45699c0.10754,0.62016 0.13119,1.24305 0.07084,1.86869c-0.24732,0.81681 -0.39468,1.64917 -0.44208,2.49701c-0.20734,0.03668 -0.41468,0.07347 -0.62202,0.11015c-0.01986,-0.27886 -0.00531,-0.55599 0.04352,-0.83128c0.31726,-0.55585 0.55358,-1.14676 0.70905,-1.77272c0.02512,-0.93496 0.05035,-1.86991 0.07546,-2.80487c0.11561,-0.23412 0.19976,-0.4773 0.25226,-0.72954z" fill="#515151" fill-rule="evenodd"/><path d="M195.5686,126.60004c-0.33293,0.69065 -0.39484,1.41827 -0.18562,2.18285c-0.02368,0.86162 -0.31027,1.62612 -0.85956,2.29353c-0.16677,0.47371 -0.28296,0.95948 -0.34874,1.45751c-0.16129,0.06125 -0.31636,0.13198 -0.4652,0.21242c-0.04104,-0.22786 -0.09525,-0.45237 -0.1626,-0.67341c0.06286,-0.22237 0.11251,-0.44793 0.14894,-0.67657c0.34156,-0.45346 0.68322,-0.907 1.02479,-1.3605c0.10318,-0.15941 0.15335,-0.33302 0.15051,-0.5208c-0.47506,0.64382 -0.93571,1.30623 -1.38194,1.98724c-0.02968,0.485 -0.05945,0.96989 -0.08913,1.45488c-0.06889,0.0788 -0.15504,0.11436 -0.25856,0.10647c-0.08922,-0.58609 -0.11252,-1.1743 -0.06979,-1.76484c0.20419,-0.34822 0.47834,-0.62798 0.82235,-0.83917c0.23047,-0.29604 0.43501,-0.60967 0.61361,-0.94091c0.02617,-0.83111 0.05245,-1.66223 0.07862,-2.49334c0.13562,-0.27832 0.27135,-0.55664 0.40697,-0.83497c0.07356,-0.09947 0.15989,-0.11764 0.25909,-0.05455c-0.37506,0.59152 -0.48976,1.23312 -0.34401,1.92482c-0.00747,-0.7274 0.19357,-1.3872 0.6031,-1.97936c0.05302,0.16917 0.072,0.34208 0.05718,0.5187z" fill="#4f4f4f" fill-rule="evenodd"/><path d="M203.79969,129.21699c0.09734,0.36218 0.17046,0.74223 0.21925,1.14019c-0.13843,0.0014 -0.27695,0.0028 -0.41538,0.0042c-0.02055,-0.245 -0.05758,-0.48696 -0.1112,-0.72586c0.029,-0.20336 0.13144,-0.34287 0.30733,-0.41853z" fill="#4f4e4f" fill-rule="evenodd"/><path d="M202.86824,129.53798c0.03458,-0.00035 0.06927,-0.0007 0.10384,-0.00105c0.08299,0.09276 0.18753,0.16094 0.31364,0.20454c0.10165,0.18224 0.13844,0.38958 0.11015,0.62202c-0.15321,0.02876 -0.29198,-0.00445 -0.41643,-0.09964c-0.09312,-0.23238 -0.13026,-0.47433 -0.1112,-0.72586z" fill="#4d4c49" fill-rule="evenodd"/><path d="M203.79759,129.00929c0.0007,0.06924 0.0014,0.13846 0.0021,0.20769c-0.17589,0.07566 -0.27833,0.21517 -0.30733,0.41853c-0.10319,-0.01678 -0.17201,0.01854 -0.20664,0.10595c-0.12611,-0.0436 -0.23065,-0.11177 -0.31364,-0.20454c-0.0014,-0.13846 -0.0028,-0.27692 -0.0042,-0.41538c0.10384,-0.00105 0.20769,-0.0021 0.31153,-0.00315c0.04019,0.55349 0.07487,0.55314 0.10385,-0.00105c0.15158,0.00546 0.28966,-0.03055 0.41433,-0.10805z" fill="#412b1b" fill-rule="evenodd"/><path d="M193.19172,127.76651c0.24419,0.39263 0.26574,0.80783 0.06454,1.24562c-0.22959,0.50666 -0.53657,0.95981 -0.92094,1.35945c-0.03481,-0.18667 -0.10443,-0.22058 -0.20874,-0.10174c-0.35897,0.43688 -0.63102,0.92426 -0.81605,1.46224c-0.11217,0.86127 -0.17268,1.72742 -0.18141,2.59823c-0.07732,-0.79548 -0.08538,-1.59155 -0.02417,-2.38844c0.08738,-0.3247 0.20531,-0.63746 0.354,-0.93828c-0.03719,-0.12384 -0.08911,-0.12331 -0.15577,0.00158c-0.12158,0.27011 -0.22262,0.54812 -0.30313,0.83391c-0.09476,0.97087 -0.17155,1.94103 -0.23018,2.91029c-0.10279,0.1049 -0.20558,0.20979 -0.30838,0.31469c-0.07615,-0.79362 -0.10152,-1.58963 -0.0761,-2.38791c-0.1037,0.89732 -0.16382,1.79805 -0.18036,2.70207c-0.18645,-1.61089 0.00547,-3.17067 0.57578,-4.67934c0.6425,-0.97046 1.32537,-1.91208 2.04852,-2.82484c0.00695,0.23461 -0.07746,0.44318 -0.25331,0.6257c0.03283,0.08359 0.08545,0.15229 0.15787,0.20611c0.06786,-0.13916 0.13562,-0.27832 0.20348,-0.41748c0.03528,0.06889 0.07067,0.13775 0.10595,0.20664c0.06631,-0.24086 0.11578,-0.48369 0.14841,-0.72849z" fill="#222222" fill-rule="evenodd"/><path d="M198.52356,131.24365c-0.13843,0.0014 -0.27695,0.0028 -0.41538,0.0042c0.1085,-0.86441 0.20359,-1.73084 0.28526,-2.59928c-0.11893,-0.93471 -0.12838,-1.86931 -0.02838,-2.80382c0.06891,-0.03531 0.13773,-0.07063 0.20664,-0.10595c-0.00034,1.00316 0.07909,2.0063 0.23817,3.00941c-0.03092,0.76281 -0.07513,1.52486 -0.13265,2.28617c-0.07388,0.05724 -0.1251,0.12704 -0.15366,0.20927z" fill="#4f4f4f" fill-rule="evenodd"/><path d="M197.27427,130.94472c-0.06723,0.16083 -0.13474,0.33463 -0.20244,0.52133c-0.09457,0.06607 -0.19806,0.10181 -0.31048,0.107c0.04556,-0.80298 0.1587,-1.60034 0.33928,-2.39212c-0.00497,-1.01424 0.05414,-2.01877 0.17721,-3.01361c0.15311,-0.13048 0.24014,-0.07943 0.26119,0.15314c-0.03534,1.54652 -0.1236,3.08795 -0.26477,4.62426z" fill="#505050" fill-rule="evenodd"/><path d="M200.99377,129.03767c0.03499,0.56322 0.00601,1.11742 -0.08703,1.66257c-0.17311,0.00175 -0.34611,0.0035 -0.51922,0.00525c0.17323,-1.19014 0.1094,-2.36654 -0.1915,-3.52916c-0.05777,-0.58692 -0.08106,-1.1752 -0.06979,-1.76484c0.13843,-0.0014 0.27695,-0.0028 0.41538,-0.0042c0.04904,1.22334 0.19973,2.43347 0.45217,3.63038z" fill="#525252" fill-rule="evenodd"/><path d="M199.5473,129.7793c-0.09727,0.14833 -0.1301,0.32174 -0.09859,0.52028c0.1163,0.45974 -0.05471,0.66918 -0.51292,0.62833c0.15741,-1.40965 0.10853,-2.81121 -0.14641,-4.20468c0.01091,-0.36897 0.05916,-0.73296 0.14473,-1.09195c0.10411,-0.08794 0.22495,-0.12379 0.36241,-0.10753c0.02926,1.42319 0.11289,2.8417 0.25078,4.25555z" fill="#515151" fill-rule="evenodd"/><path d="M196.70459,125.96541c0.15321,-0.02876 0.29198,0.00445 0.41643,0.09964c-0.18521,0.39648 -0.28485,0.8129 -0.29892,1.24929c0.09816,0.58617 0.12145,1.17444 0.06979,1.76484c-0.14651,0.86486 -0.27628,1.73168 -0.3891,2.60033c-0.13989,0.09281 -0.2953,0.12907 -0.46625,0.10858c0.06369,-0.87968 0.2107,-1.74668 0.44103,-2.60086c0.04613,-0.57272 0.02301,-1.14369 -0.06927,-1.71292c0.04506,-0.51436 0.14382,-1.01732 0.2963,-1.50891z" fill="#4e4e4e" fill-rule="evenodd"/><path d="M194.87112,129.51506c0.03875,-0.45057 0.08612,-0.90108 0.14211,-1.35157c0.10238,0.48039 0.05502,0.93091 -0.14211,1.35157z" fill="#0b0b0b" fill-rule="evenodd"/><path d="M193.52323,129.73641c-0.23665,0.18872 -0.45948,0.39869 -0.66869,0.6299c-0.01769,-0.03444 -0.03528,-0.06888 -0.05297,-0.10332c0.33393,-0.36639 0.58934,-0.7844 0.76623,-1.25403c0.02793,-0.65803 0.05595,-1.31608 0.08388,-1.97411c0.25008,0.92291 0.20727,1.82343 -0.12844,2.70155z" fill="#333333" fill-rule="evenodd"/><path d="M203.2605,127.24918c0.10439,0.19707 0.27845,0.29916 0.52238,0.30628c0.02689,0.20403 -0.00577,0.39476 -0.09807,0.5722c0.31665,0.23541 0.38879,0.52894 0.21662,0.88058c-0.03458,0.00035 -0.06927,0.0007 -0.10384,0.00105c-0.12468,0.07751 -0.26275,0.11351 -0.41433,0.10805c-0.02898,0.55419 -0.06366,0.55454 -0.10385,0.00105c-0.10384,0.00105 -0.20769,0.0021 -0.31153,0.00315c0.0014,0.13846 0.0028,0.27692 0.0042,0.41538c-0.03458,0.00035 -0.06927,0.0007 -0.10384,0.00105c-0.10258,-0.23325 -0.27745,-0.40457 -0.52448,-0.51397c0.20464,-0.42702 0.252,-0.87754 0.14211,-1.35157c-0.07047,-0.07743 -0.15732,-0.11117 -0.26066,-0.10122c0.22443,-0.15401 0.46635,-0.19107 0.72586,-0.1112c0.07827,-0.11627 0.18142,-0.18655 0.30943,-0.21085z" fill="#cfa55b" fill-rule="evenodd"/><path d="M202.85668,128.39568c0.24459,-0.01944 0.48704,-0.00458 0.72744,0.04457c0.12909,0.16355 0.09591,0.30236 -0.09964,0.41643c-0.20436,0.05353 -0.41188,0.07293 -0.62254,0.05823c-0.00175,-0.17308 -0.0035,-0.34615 -0.00526,-0.51923z" fill="#322018" fill-rule="evenodd"/><path d="M194.99493,131.48707c0.0194,0.24459 0.00462,0.48704 -0.04456,0.72744c-0.13989,0.09281 -0.2953,0.12907 -0.46625,0.10858c-0.02428,-0.35712 0.02414,-0.70377 0.14526,-1.04002c0.33416,-0.57981 0.63974,-1.17142 0.91674,-1.77483c-0.04016,-0.97141 -0.03263,-1.94082 0.02249,-2.90819c0.09496,-0.15011 0.21464,-0.2898 0.35925,-0.41906c-0.1077,1.09764 -0.16575,2.20602 -0.17406,3.32515c-0.2231,0.67534 -0.47606,1.33562 -0.75887,1.98094z" fill="#555555" fill-rule="evenodd"/><path d="M202.84932,127.66877c0.20769,-0.0021 0.41538,-0.0042 0.62307,-0.00631c0.05012,0.45732 -0.15582,0.63249 -0.61782,0.52553c-0.00175,-0.17308 -0.0035,-0.34615 -0.00526,-0.51923z" fill="#402515" fill-rule="evenodd"/><path d="M197.90154,131.35379c-0.17806,0.0152 -0.35082,0.05153 -0.51818,0.1091c-0.00416,-0.66817 0.07568,-1.32674 0.23964,-1.97568c0.01214,-1.18053 0.05216,-2.35796 0.12003,-3.53231c0.10384,-0.00105 0.20769,-0.0021 0.31153,-0.00315c0.00958,0.93572 0.05361,1.86998 0.13222,2.80277c-0.10457,0.86341 -0.19966,1.72983 -0.28526,2.59928z" fill="#4f4f4f" fill-rule="evenodd"/><path d="M203.2605,127.24918c-0.12802,0.02429 -0.23116,0.09457 -0.30943,0.21085c-0.25952,-0.07987 -0.50143,-0.0428 -0.72586,0.1112c-0.24681,-0.47671 -0.39059,-0.99454 -0.43114,-1.55347c0.14841,-0.00973 0.28729,0.02349 0.41643,0.09964c0.11512,0.29233 0.22195,0.58551 0.32047,0.87953c0.10454,0.06818 0.20839,0.06714 0.31153,-0.00315c-0.21461,-0.1677 -0.32072,-0.39164 -0.31837,-0.67184c0.13843,-0.0014 0.27695,-0.0028 0.41538,-0.0042c0.12588,0.29799 0.23288,0.60847 0.32099,0.93145z" fill="#52443b" fill-rule="evenodd"/><path d="M192.93484,133.1696c-0.06898,0.08036 -0.15478,0.1505 -0.25751,0.21032c-0.15225,-0.61557 -0.19314,-1.23829 -0.12277,-1.86816c0.34341,-0.50665 0.70197,-0.99495 1.07566,-1.46487c0.33357,-0.29869 0.52007,-0.68138 0.55959,-1.14807c0.02757,-0.69265 0.05525,-1.3853 0.08282,-2.07795c0.08446,-0.24431 0.22088,-0.4534 0.40908,-0.62727c-0.00112,0.21789 -0.06829,0.42628 -0.20139,0.62517c-0.02687,0.76188 -0.05385,1.52377 -0.08072,2.28564c-0.04246,0.29912 -0.1435,0.57709 -0.30313,0.83391c-0.48887,0.42846 -0.89935,0.91732 -1.23143,1.46645c-0.01917,0.58874 0.00412,1.17695 0.06979,1.76484z" fill="#383838" fill-rule="evenodd"/><path d="M203.90143,129.00824c0.17216,-0.35164 0.10002,-0.64517 -0.21662,-0.88058c0.0923,-0.17744 0.12495,-0.36816 0.09807,-0.5722c-0.26701,-0.29781 -0.47821,-0.64187 -0.63358,-1.03215c0.13703,-0.13986 0.27556,-0.14126 0.41538,-0.0042c0.20922,0.35426 0.36884,0.73346 0.47886,1.13757c0.04599,0.8084 0.17513,1.60332 0.38763,2.38476c-0.03353,0.10419 -0.06717,0.20839 -0.10069,0.31258c-0.03493,-0.03426 -0.06997,-0.06853 -0.1049,-0.10279c-0.05804,-0.43969 -0.16609,-0.85402 -0.32415,-1.24299z" fill="#4e4948" fill-rule="evenodd"/><path d="M199.97319,130.81354c-0.10384,0.00105 -0.20769,0.0021 -0.31153,0.00315c-0.00245,-0.2423 -0.00491,-0.48462 -0.00736,-0.72692c0.04657,-0.39607 0.07722,-0.79449 0.09176,-1.19527c-0.07229,-0.77027 -0.18384,-1.53075 -0.33466,-2.28144c0.01453,-0.40078 0.04519,-0.7992 0.09176,-1.19527c0.17311,-0.00175 0.34612,-0.0035 0.51923,-0.00526c-0.0455,0.37882 -0.07622,0.75993 -0.09228,1.14335c0.0915,0.78052 0.20323,1.55831 0.33518,2.33337c0.0006,0.68517 -0.09676,1.32659 -0.29209,1.92429z" fill="#4f4f4f" fill-rule="evenodd"/><path d="M201.27272,125.81532c0.1685,-0.01623 0.29028,0.05176 0.36556,0.20401c0.0624,0.7674 0.27744,1.49221 0.64514,2.17444c0.0568,0.36808 0.02572,0.71459 -0.09333,1.0395c0.14174,0.08998 0.29786,0.12302 0.46835,0.09912c0.02713,0.38179 0.06566,0.76221 0.11541,1.14125c-0.24227,0.00245 -0.48465,0.00491 -0.72691,0.00736c-0.16518,-1.57472 -0.42332,-3.12995 -0.77421,-4.66567z" fill="#504f4f" fill-rule="evenodd"/><path d="M200.6465,125.51009c0.1125,0.00295 0.2167,0.03652 0.31258,0.10069c0.12446,1.0301 0.35965,2.03166 0.70547,3.00468c0.12692,0.61613 0.18514,1.23867 0.17469,1.86763c-0.20734,0.03671 -0.41468,0.07344 -0.62202,0.11015c0.00987,-0.72791 -0.01472,-1.45465 -0.07399,-2.18022c-0.26637,-0.95194 -0.43194,-1.91958 -0.49673,-2.90294z" fill="#4f4f4f" fill-rule="evenodd"/><path d="M203.55206,125.27297c0.3866,0.17933 0.80321,0.29627 1.24982,0.35084c0.62992,0.01383 1.2537,0.07676 1.87132,0.18877c0.40204,0.2991 0.85393,0.48492 1.35576,0.55748c0.41477,0.11001 0.79732,0.27924 1.14755,0.50767c0.22027,0.32776 0.41423,0.67199 0.58166,1.03267c0.11331,1.01676 0.21008,2.01973 0.29009,3.00888c0.55542,0.13303 1.11073,0.26584 1.66572,0.39857c0.54853,0.23249 1.10489,0.46915 1.66888,0.7101c0.01438,0.0766 -0.00226,0.14604 -0.04982,0.20821c-0.10587,-0.08586 -0.2274,-0.11921 -0.36451,-0.10016c-0.02049,0.17094 0.01576,0.32636 0.10858,0.46625c0.53298,0.17355 1.02025,0.42826 1.46171,0.76413c-0.2774,0.13294 -0.5532,0.23959 -0.82761,0.31994c-0.9878,0.1206 -1.9196,0.40691 -2.79541,0.85914c0.08686,0.03371 0.17381,0.06751 0.26066,0.10122c0.94621,-0.23733 1.89596,-0.45466 2.84944,-0.65197c0.20025,-0.06953 0.4076,-0.10621 0.62202,-0.11015c-0.02398,-0.12179 0.00955,-0.22599 0.10069,-0.31258c0.08418,0.60047 0.25781,0.65064 0.5208,0.15051c-0.17372,-0.26391 -0.13991,-0.35086 0.10122,-0.26066c0.06355,0.37895 -0.03714,0.69154 -0.30208,0.93776c-1.14725,0.3535 -2.32213,0.57311 -3.52443,0.6588c-0.00184,0.02034 -0.00305,0.0404 -0.00364,0.06018c-0.16057,-0.09831 -0.34983,-0.15416 -0.55198,-0.15212c-0.0783,0.00079 -0.15448,0.01023 -0.22765,0.02739c-0.15147,-0.31214 -0.37779,-0.56268 -0.67897,-0.7515c-0.50864,-0.39594 -1.0656,-0.70187 -1.67098,-0.91779c-0.79221,-0.31819 -1.5912,-0.58709 -2.39685,-0.80659c0.34912,-0.05557 0.38247,-0.1771 0.10016,-0.36451c0.06578,-0.15022 0.09878,-0.30634 0.09911,-0.46835c0.1766,0.01483 0.34954,-0.00416 0.5187,-0.05718c-0.24681,-0.0864 -0.49006,-0.17056 -0.72954,-0.25226c-0.04602,-0.26738 0.02097,-0.49311 0.20086,-0.6771c-0.09551,-0.0379 -0.18265,-0.08894 -0.26119,-0.15314c-0.29014,0.17741 -0.48119,0.11008 -0.57325,-0.20191c0.13843,-0.0014 0.27695,-0.0028 0.41538,-0.0042c-0.25705,-0.84172 -0.42157,-1.70551 -0.49358,-2.5914c-0.21259,-0.48251 -0.42519,-0.96502 -0.63778,-1.44752c-0.15781,-0.07699 -0.29739,-0.17943 -0.41853,-0.30733c0.04785,0.46969 0.19083,0.91828 0.42904,1.34578c0.05036,1.01524 0.2852,1.98218 0.70442,2.90083c-0.09313,0.07457 -0.12666,0.17877 -0.10069,0.31258c-0.23643,0.04629 -0.41024,-0.02119 -0.52133,-0.20244c0.13843,-0.0014 0.27695,-0.0028 0.41538,-0.0042c-0.4205,-1.47652 -0.79902,-2.96129 -1.13557,-4.45431c-0.14885,-0.18739 -0.30532,-0.25503 -0.4694,-0.20296c-0.03458,0.00035 -0.06927,0.0007 -0.10384,0.00105c-0.08036,-0.06898 -0.1505,-0.15481 -0.21032,-0.25751c-0.11865,-0.07663 -0.22232,-0.05827 -0.31101,0.05508c0.09007,0.19731 0.12685,0.40464 0.11015,0.62202c-0.64661,-0.20535 -1.27213,-0.44136 -1.87657,-0.708c0.49772,-0.11929 0.99855,-0.22822 1.5026,-0.32677c0.31401,-0.00517 0.609,0.06108 0.88478,0.19876z" fill="#131411" fill-rule="nonzero"/><path d="M212.97905,133.17446c0.31324,-0.02031 0.62494,-0.00612 0.93513,0.04247c0.13913,0.06787 0.13983,0.13702 0.0021,0.20769c-0.76577,0.1598 -1.52552,0.34051 -2.27934,0.54235c-0.28817,0.09556 -0.56379,0.21944 -0.82708,0.37187c-0.10419,-0.03353 -0.17416,-0.10209 -0.20979,-0.20558c0.77921,-0.38146 1.57224,-0.70105 2.37898,-0.95878z" fill="#4e4e4f" fill-rule="evenodd"/><path d="M212.14409,132.76748c0.33552,-0.03403 0.64776,0.03197 0.93671,0.19823c-0.95276,0.30885 -1.88386,0.66443 -2.79331,1.06683c-0.16682,-0.05387 -0.21979,-0.15719 -0.15892,-0.30996c0.12958,-0.07515 0.24979,-0.16288 0.36083,-0.26329c0.57181,-0.20695 1.12334,-0.43759 1.65469,-0.69181z" fill="#4d4d4e" fill-rule="evenodd"/><path d="M211.20528,132.36156c0.36949,-0.01329 0.71648,0.0697 1.04107,0.2491c-0.80615,0.24391 -1.56432,0.5805 -2.27461,1.00965c-0.10437,-0.05087 -0.20874,-0.10175 -0.31311,-0.15261c0.48562,-0.42189 1.00117,-0.79061 1.54664,-1.10614z" fill="#4c4d4c" fill-rule="evenodd"/><path d="M210.37242,132.16228c0.23331,-0.03549 0.44153,0.01433 0.62465,0.14946c-0.60864,0.3035 -1.17611,0.67273 -1.70241,1.10772c0.25449,-0.48852 0.61374,-0.90757 1.07776,-1.25718z" fill="#4a4a49" fill-rule="evenodd"/><path d="M208.18746,131.76897c0.15321,-0.02876 0.29198,0.00442 0.41643,0.09964c-0.17992,0.33509 -0.38445,0.64873 -0.61361,0.94091c-0.10419,-0.03353 -0.17416,-0.10209 -0.20979,-0.20559c0.13705,-0.28107 0.27267,-0.55943 0.40697,-0.83496z" fill="#474646" fill-rule="evenodd"/><path d="M209.53955,131.963c0.22365,-0.01556 0.43187,0.03426 0.62465,0.14946c-0.39219,0.30463 -0.73491,0.65425 -1.02794,1.04896c-0.14913,0.08262 -0.28773,0.06668 -0.41591,-0.04772c0.27558,-0.3855 0.54867,-0.7691 0.8192,-1.1507z" fill="#49484a" fill-rule="evenodd"/><path d="M208.81159,131.86651c0.13843,-0.0014 0.27695,-0.0028 0.41538,-0.0042c-0.14406,0.47109 -0.41716,0.85469 -0.8192,1.1507c-0.06962,-0.03388 -0.13913,-0.06787 -0.20874,-0.10174c0.2053,-0.35114 0.40949,-0.69935 0.61256,-1.04476z" fill="#454647" fill-rule="evenodd"/><path d="M212.03078,131.83393c0.42287,-0.05444 0.6669,0.11622 0.73217,0.51187c-0.24536,-0.01559 -0.48798,-0.04772 -0.72796,-0.09649c-0.0014,-0.13843 -0.0028,-0.27695 -0.0042,-0.41538z" fill="#504e4f" fill-rule="evenodd"/><path d="M207.46055,131.77633c0.17626,-0.0184 0.34955,-0.00292 0.51975,0.04666c-0.15768,0.20224 -0.27659,0.42851 -0.35662,0.67867c-0.10411,0.08798 -0.22495,0.12378 -0.36241,0.10752c0.06646,-0.27766 0.13282,-0.55521 0.19928,-0.83286z" fill="#424541" fill-rule="evenodd"/><path d="M211.19687,131.5308c0.23998,0.04877 0.48261,0.0809 0.72797,0.09649c0.0014,0.13843 0.0028,0.27695 0.0042,0.41538c-0.24227,0.00245 -0.48465,0.00491 -0.72692,0.00736c-0.00175,-0.17311 -0.0035,-0.34612 -0.00526,-0.51923z" fill="#544e50" fill-rule="evenodd"/><path d="M209.53114,131.13223c0.45974,-0.1163 0.66918,0.05471 0.62833,0.51292c-0.20769,0.0021 -0.41538,0.0042 -0.62307,0.00631c-0.00175,-0.17311 -0.0035,-0.34612 -0.00526,-0.51923z" fill="#4d4d4d" fill-rule="evenodd"/><path d="M210.36296,131.22767c0.44695,-0.02498 0.65674,0.18061 0.62938,0.61676c-0.20769,0.0021 -0.41538,0.0042 -0.62307,0.00631c-0.0021,-0.20769 -0.0042,-0.41538 -0.00631,-0.62307z" fill="#504b4b" fill-rule="evenodd"/><path d="M206.72417,130.84908c0.58624,0.06884 1.17497,0.09747 1.76641,0.08597c0.00175,0.17311 0.0035,0.34612 0.00526,0.51923c-0.58849,0.00596 -1.17687,0.01191 -1.76536,0.01787c-0.0021,-0.20769 -0.0042,-0.41538 -0.00631,-0.62307z" fill="#353434" fill-rule="evenodd"/><path d="M208.69933,131.0368c0.20769,-0.0021 0.41538,-0.0042 0.62307,-0.00631c0.00175,0.17311 0.0035,0.34611 0.00525,0.51922c-0.20769,0.0021 -0.41538,0.0042 -0.62307,0.00631c-0.00175,-0.17311 -0.0035,-0.34611 -0.00525,-0.51922z" fill="#494b4a" fill-rule="evenodd"/><path d="M209.18387,127.60466c0.1712,0.12797 0.29414,0.29982 0.36872,0.51555c0.07697,0.76083 0.08468,1.52236 0.02312,2.28459c-0.19907,-0.92133 -0.32972,-1.85471 -0.39184,-2.80014z" fill="#3e3638" fill-rule="evenodd"/><path d="M205.02061,126.71208c0.10334,-0.00996 0.19019,0.02379 0.26066,0.10122c0.18026,0.25327 0.32149,0.52879 0.42379,0.82656c0.10815,0.87595 0.27268,1.73974 0.49358,2.5914c-0.03423,0.03496 -0.06857,0.06993 -0.10279,0.1049c-0.41705,-0.91993 -0.65189,-1.88688 -0.70442,-2.90083c-0.12639,-0.24657 -0.25004,-0.48765 -0.37082,-0.72324z" fill="#4b4b4b" fill-rule="evenodd"/><path d="M205.64684,127.01732c0.35877,0.19951 0.58695,0.50877 0.68445,0.92777c0.03983,0.51887 0.07978,1.03775 0.11961,1.55662c0.04157,0.25923 0.13053,0.50066 0.26697,0.72429c-0.29118,0.14643 -0.448,0.04415 -0.47046,-0.30681c-0.07366,-0.99794 -0.27392,-1.96523 -0.60057,-2.90188z" fill="#4e4e4e" fill-rule="evenodd"/><path d="M207.82338,126.57987c0.14264,0.03558 0.24736,0.12106 0.31416,0.25646c0.2361,0.44414 0.43117,0.90952 0.58534,1.39613c0.06751,-0.17378 0.06576,-0.34685 -0.00526,-0.51923c-0.2017,-0.2885 -0.3087,-0.59898 -0.32099,-0.93145c0.37205,0.33202 0.61852,0.74495 0.73953,1.23878c0.03887,0.71105 0.09798,1.42013 0.17731,2.12725c-0.03336,0.1215 -0.06682,0.243 -0.10017,0.36451c-0.14757,-0.2552 -0.23697,-0.53124 -0.26802,-0.82813c-0.03913,-0.44964 -0.07838,-0.8993 -0.11751,-1.34894c-0.07361,0.67979 -0.04954,1.35461 0.07242,2.02445c-0.17094,0.18528 -0.29265,0.13459 -0.36503,-0.15209c-0.04159,-0.69195 -0.08328,-1.3839 -0.12487,-2.07585c-0.27368,-0.52517 -0.46938,-1.04247 -0.58691,-1.5519z" fill="#49494a" fill-rule="evenodd"/><path d="M207.1982,126.37848c0.15754,-0.0005 0.27943,0.0675 0.36556,0.20401c0.09314,0.41907 0.27,0.79808 0.53079,1.13704c0.13409,0.89427 0.2297,1.79338 0.28694,2.69735c-0.13843,0.0014 -0.27695,0.0028 -0.41538,0.0042c-0.07373,-0.75897 -0.13336,-1.51997 -0.17889,-2.28302c-0.20569,-0.58009 -0.402,-1.16662 -0.58902,-1.75959z" fill="#4f4e4e" fill-rule="evenodd"/><path d="M205.84296,125.87292c0.15948,0.05725 0.31595,0.12489 0.4694,0.20296c-0.00768,0.61583 0.17092,1.16791 0.53604,1.65626c0.19259,0.85567 0.32253,1.71982 0.38973,2.59245c-0.29961,0.03215 -0.45678,-0.10473 -0.47151,-0.41065c-0.12622,-0.64987 -0.20203,-1.30686 -0.22766,-1.97095c-0.12143,-0.40276 -0.33263,-0.74681 -0.63358,-1.03214c-0.0552,-0.34391 -0.07604,-0.68988 -0.06243,-1.03793z" fill="#4f4f4f" fill-rule="evenodd"/><path d="M205.36893,130.34352c-0.00035,-0.03461 -0.0007,-0.06924 -0.00105,-0.10384c-0.41922,-0.91865 -0.65406,-1.88559 -0.70442,-2.90083c-0.23821,-0.4275 -0.38119,-0.87609 -0.42904,-1.34578c0.12114,0.1279 0.26072,0.23034 0.41853,0.30733c0.21259,0.48251 0.42519,0.96502 0.63778,1.44752c0.072,0.88589 0.23653,1.74969 0.49358,2.5914c-0.13843,0.0014 -0.27695,0.0028 -0.41538,0.0042z" fill="#4f4f4e" fill-rule="evenodd"/><path d="M206.57303,126.1771c0.1371,-0.01904 0.25864,0.01435 0.36451,0.10017c0.58491,1.28205 0.85819,2.62941 0.81983,4.04208c-0.1371,0.01904 -0.25864,-0.01435 -0.36451,-0.10016c-0.05017,-0.72908 -0.12679,-1.4553 -0.22976,-2.17864c-0.12208,-0.37391 -0.29869,-0.71832 -0.52974,-1.03319c-0.05439,-0.27425 -0.07454,-0.551 -0.06033,-0.83024z" fill="#505150" fill-rule="evenodd"/><path d="M205.32373,125.87818c0.13843,-0.0014 0.27695,-0.0028 0.41538,-0.0042c0.03615,0.31867 0.00472,0.63056 -0.09439,0.93566c-0.10206,-0.04848 -0.18926,-0.11682 -0.26172,-0.20506c-0.05404,-0.23934 -0.07373,-0.48148 -0.05928,-0.72639z" fill="#454444" fill-rule="evenodd"/></g><path d="M213.13981,133.74459c0.23821,0.03765 0.86096,-0.18753 1.10122,-0.06209c0.0632,0.06588 -0.00638,0.18979 -0.1623,0.29566c-0.11719,0.07957 -0.31653,0.14895 -0.35978,0.17583c-0.57536,0.0493 -1.14477,0.20336 -1.70832,0.30904c-0.21426,0.06401 -0.46826,0.11579 -0.65988,0.25784c-0.0818,-0.06423 -0.19079,-0.16644 -0.22462,-0.3065c0.57153,-0.33102 1.18313,-0.45201 1.78358,-0.61865z" data-paper-data="{&quot;index&quot;:null}" fill="#4e4e4f" fill-rule="evenodd" stroke="none" stroke-linecap="butt"/><g fill="#000000" fill-rule="nonzero" stroke="none" stroke-linecap="butt"><path d="M193.3009,136.51873c0.1265,-0.22805 0.20816,-0.26893 0.12402,-0.06208c-0.08578,0.21087 -0.16974,0.4413 -0.16974,0.46581c0,0.02379 0.0113,0.02707 0.47185,0.13673c0.34224,0.08151 0.50361,0.1571 0.77284,0.36206c0.38038,0.28957 0.47173,0.40552 0.43492,0.55221c-0.02292,0.09124 -0.55278,0.55904 -0.65495,0.57821c-0.17687,0.03318 -0.22346,-0.02709 -0.41483,-0.53669c-0.13631,-0.36303 -0.16304,-0.51682 -0.10515,-0.60516l0.03954,-0.06037l-0.31314,-0.10301c-0.17225,-0.05667 -0.32257,-0.0936 -0.3341,-0.08208c-0.02185,0.02185 -0.26955,0.62192 -0.39571,0.95865l-0.07306,0.19498l0.10316,0.18996c0.27762,0.51126 0.34445,0.64489 0.34445,0.68885c0,0.06467 -0.24842,0.56805 -0.34559,0.7003c-0.09265,0.12608 -0.17453,0.16517 -0.26222,0.12521c-0.07607,-0.03464 -0.09122,-0.08235 -0.18797,-0.59177c-0.12775,-0.67273 -0.13609,-0.74639 -0.09953,-0.87699c0.03263,-0.11655 0.66004,-1.32344 0.72471,-1.39409c0.05292,-0.05779 0.00028,-0.08985 -0.32783,-0.19962c-0.19217,-0.06432 -0.39568,-0.14319 -0.45223,-0.1753l-0.10282,-0.05841l0.14803,0.01371c0.08141,0.00755 0.29131,0.04609 0.46643,0.08568c0.17513,0.03956 0.33881,0.07194 0.3637,0.07194c0.02752,0 0.0636,-0.03658 0.09186,-0.09313zM194.16302,137.89703c0.05285,0.14684 0.1042,0.26697 0.11414,0.26697c0.0339,0 0.25699,-0.20672 0.25699,-0.23816c0,-0.03482 -0.41634,-0.35786 -0.46122,-0.35786c-0.0156,0 -0.02332,0.01398 -0.01718,0.03104zM192.51009,138.79521c-0.00013,0.0819 0.1346,0.61037 0.15561,0.61045c0.01043,0.00003 0.04304,-0.04952 0.07247,-0.11011l0.05354,-0.11019l-0.09347,-0.20645c-0.09767,-0.21574 -0.14213,-0.28139 -0.17093,-0.25259z"/><path d="M192.59251,137.39563c0.09638,-0.15626 0.1797,-0.27081 0.18511,-0.25457c0.01669,0.05009 -0.79534,1.88446 -0.9812,2.2165c-0.06204,0.11081 -0.06246,0.11476 -0.019,0.18107l0.0444,0.06777l0.071,-0.12429c0.03904,-0.06837 0.07098,-0.13132 0.07098,-0.13992c0,-0.02963 0.16065,-0.28415 0.17935,-0.28415c0.02799,0 0.00236,0.23801 -0.05247,0.48732c-0.0828,0.37629 -0.10691,0.30278 0.32816,0.9996c0.35463,0.56805 0.91414,1.50684 1.01939,1.71048c0.07261,0.14049 -0.01934,0.09872 -0.13669,-0.06208c-0.05732,-0.07853 -0.18417,-0.24896 -0.28189,-0.37872c-0.09775,-0.12976 -0.41823,-0.57119 -0.71224,-0.98095c-0.29399,-0.40976 -0.59321,-0.82325 -0.66493,-0.91886c-0.28189,-0.37579 -0.2888,-0.46512 -0.06425,-0.83194c0.07944,-0.12976 0.30069,-0.49855 0.49172,-0.81952z"/><path d="M193.29098,137.52896c0.15218,-0.11205 0.22393,-0.0067 0.63536,0.93304c0.09268,0.21171 0.24079,0.53579 0.3291,0.72019c0.28266,0.59011 0.3227,0.68013 0.36715,0.82574c0.02399,0.07855 0.04132,0.14279 0.03857,0.14279c-0.0262,0 -0.22562,-0.30817 -0.40177,-0.62086c-0.11925,-0.21171 -0.30069,-0.52462 -0.40318,-0.69536c-0.10249,-0.17074 -0.20851,-0.3601 -0.23557,-0.42082l-0.04919,-0.11038l-0.0367,0.09196c-0.03993,0.10018 -0.10741,0.13219 -0.22783,0.1081l-0.07063,-0.01411l0.08849,0.25835c0.0752,0.21948 0.08416,0.26786 0.05968,0.32163c-0.04187,0.09186 -0.13594,0.08414 -0.21191,-0.01744c-0.07219,-0.0965 -0.36434,-0.79268 -0.36434,-0.86818c0,-0.07269 0.06996,-0.14381 0.14143,-0.14381c0.03256,0 0.10304,0.02235 0.15658,0.04967c0.05354,0.02732 0.10907,0.04967 0.12338,0.04967c0.01701,0 0.02382,-0.09951 0.01962,-0.28736z"/></g><g fill="#000000" fill-rule="nonzero" stroke="none" stroke-linecap="butt"><path d="M194.22523,144.38334c0.03962,-0.00637 0.18225,-0.01083 0.31695,-0.00994l0.24492,0.00161l0.00879,0.13672c0.00784,0.12208 0.01706,0.13851 0.08644,0.15349c0.0427,0.00925 0.10791,0.03155 0.1449,0.04956c0.16173,0.07872 0.25146,0.3421 0.17127,0.50283c-0.03991,0.08002 -0.03786,0.08912 0.03979,0.17599c0.19285,0.21584 0.03942,0.54438 -0.30713,0.65767c-0.07206,0.02354 -0.08883,0.04685 -0.10085,0.14021c-0.01723,0.13396 -0.06083,0.14871 -0.42267,0.14306c-0.24938,-0.00389 -0.31672,-0.0321 -0.33196,-0.13917c-0.00775,-0.05437 -0.02991,-0.06391 -0.16677,-0.07166c-0.16888,-0.00956 -0.20121,-0.03409 -0.2019,-0.15323c-0.00046,-0.08218 0.04014,-0.12833 0.12715,-0.14447c0.07538,-0.014 0.10462,-0.13557 0.09949,-0.41371c-0.00697,-0.37711 -0.01812,-0.4178 -0.11453,-0.4178c-0.06411,0 -0.0867,-0.01613 -0.1007,-0.07204c-0.04287,-0.17075 0.0627,-0.27373 0.28059,-0.27373c0.07411,0 0.08215,-0.00954 0.08215,-0.09733zM194.16758,144.76654c-0.18147,0.01115 -0.23624,0.03688 -0.11644,0.05469c0.13044,0.01939 0.13885,0.05454 0.1424,0.59477c0.003,0.45465 -0.00328,0.47983 -0.12678,0.50703c-0.03365,0.00743 0.00227,0.02199 0.08644,0.03498c0.07924,0.01227 0.15856,0.04051 0.17628,0.06278c0.02755,0.03458 0.03749,0.03411 0.06837,-0.00308c0.04322,-0.05207 0.17657,-0.0574 0.22501,-0.00896c0.01902,0.01902 0.0359,0.07411 0.03751,0.12246l0.00297,0.08788l0.02276,-0.09632c0.02777,-0.11753 0.04299,-0.13231 0.18196,-0.17674c0.13819,-0.04417 0.33683,-0.2297 0.33683,-0.31459c0,-0.08814 -0.07567,-0.22576 -0.14436,-0.26252c-0.07296,-0.03904 -0.07209,-0.06866 0.0051,-0.17305c0.0559,-0.07558 0.05889,-0.0963 0.02861,-0.19735c-0.03818,-0.12736 -0.13986,-0.20838 -0.29275,-0.23325c-0.09439,-0.01533 -0.10194,-0.02464 -0.11814,-0.14568c-0.01124,-0.08405 -0.01878,-0.1009 -0.02161,-0.04818c-0.00735,0.13808 -0.05359,0.19259 -0.16326,0.19259c-0.10335,0 -0.10814,-0.00695 -0.13883,-0.2017c-0.00847,-0.05379 -0.01245,-0.0465 -0.0157,0.02881z"/><path d="M194.37506,145.40367c0.0495,-0.0495 0.41082,-0.04414 0.51081,0.00758c0.11981,0.06195 0.15277,0.19426 0.08535,0.34231c-0.04573,0.10033 -0.1426,0.13419 -0.38409,0.13419c-0.16643,0 -0.21541,-0.00974 -0.22915,-0.04558zM194.47015,145.75808l0.13937,0.00888c0.15796,0.01008 0.27843,-0.04927 0.27843,-0.13715c0,-0.10177 -0.07898,-0.14545 -0.26295,-0.14545h-0.17242z"/><path d="M194.37031,144.87736c0.02481,-0.04633 0.06146,-0.05572 0.21743,-0.05572c0.16072,0 0.19769,0.01012 0.25829,0.07074c0.08719,0.08716 0.09422,0.2397 0.01553,0.33666c-0.04818,0.05936 -0.07886,0.06771 -0.24086,0.06547c-0.2703,-0.00372 -0.28021,-0.0108 -0.28021,-0.20011zM194.50617,145.17644c0.0119,0.00686 0.07996,0.00438 0.15127,-0.0055c0.10696,-0.01481 0.13131,-0.02959 0.13908,-0.08437c0.01447,-0.10203 -0.04472,-0.14969 -0.18582,-0.14969h-0.12615v0.11356z"/></g><g fill="#000000" fill-rule="nonzero" stroke="none" stroke-linecap="butt"><path d="M209.75361,140.76348c0.04482,-0.19072 0.10016,-0.24868 0.12498,-0.1309c0.05602,0.26588 0.08951,0.55763 0.09163,0.79849c0.00131,0.14695 0.01018,0.1898 0.03937,0.1898c0.02443,0 0.04053,-0.03362 0.04581,-0.09553c0.00958,-0.11265 0.07501,-0.16844 0.14556,-0.12412c0.03448,0.02165 0.04749,0.07019 0.05257,0.1962c0.00372,0.0921 -0.00217,0.17962 -0.01309,0.19449c-0.01092,0.01487 -0.08226,0.06652 -0.15854,0.1148l-0.13868,0.08776l0.05854,0.06233c0.05733,0.061 0.05786,0.06731 0.025,0.29945c-0.01846,0.13043 -0.02749,0.24321 -0.02008,0.25065c0.00743,0.00741 0.05814,-0.01686 0.11273,-0.05396c0.10967,-0.07453 0.15551,-0.05877 0.11776,0.0405c-0.03003,0.07901 -0.1979,0.23068 -0.25965,0.23455c-0.02469,0.00155 -0.15682,0.00526 -0.29361,0.00822c-0.13679,0.00298 -0.27523,0.01487 -0.30762,0.02641c-0.0439,0.01566 -0.05891,0.01121 -0.05891,-0.01749c0,-0.06304 0.12331,-0.17684 0.21049,-0.19428l0.08118,-0.01623l-0.01835,-0.25887c-0.01644,-0.2318 -0.01322,-0.26452 0.03073,-0.31311c0.04835,-0.05344 0.04793,-0.05519 -0.0293,-0.11702c-0.04312,-0.03453 -0.11671,-0.08106 -0.16349,-0.10336c-0.09071,-0.04325 -0.09611,-0.06126 -0.08595,-0.28683c0.00539,-0.11943 0.05532,-0.22253 0.10778,-0.22253c0.05168,0 0.10252,0.09103 0.10252,0.18357c0,0.05574 0.0094,0.10713 0.02089,0.11422c0.05194,0.0321 0.0776,-0.04006 0.09194,-0.25853zM209.71547,142.13599c-0.01722,0.03134 -0.0295,0.10309 -0.02731,0.15946c0.0022,0.05634 -0.00453,0.11629 -0.01498,0.1332c-0.03073,0.04972 0.03508,0.31796 0.07804,0.31796c0.02985,0 0.03741,-0.05116 0.03741,-0.25308c0,-0.13917 0.00885,-0.24415 0.01963,-0.23326c0.01079,0.01089 0.02066,0.06293 0.02191,0.11564c0.00804,0.3405 0.01184,0.37071 0.04642,0.37071c0.06432,0 0.07893,-0.52918 0.01699,-0.61523c-0.03367,-0.04676 -0.0483,-0.14357 -0.02396,-0.1586c0.01304,-0.00806 0.02372,-0.0272 0.02372,-0.04249c0,-0.01966 -0.00989,-0.01963 -0.03362,0.00003c-0.02129,0.0177 -0.04765,0.01901 -0.072,0.00361c-0.05723,-0.03621 -0.0882,-0.03006 -0.05432,0.01076zM209.79984,141.02652c0.00701,-0.00481 0.01672,-0.00779 0.02741,-0.00779c0.02943,0 0.03477,-0.02024 0.02241,-0.08509c-0.02257,-0.11859 -0.02746,-0.11804 -0.06105,0.00665zM209.80496,141.06582l0.00751,0.05764c0.01398,0 0.03273,-0.01178 0.04163,-0.02618c0.0089,-0.0144 -0.0022,-0.02618 -0.02464,-0.02618c-0.00917,0 -0.01766,-0.00197 -0.0245,-0.00528zM209.78864,141.04491c0,0.00852 0.00642,0.01612 0.01632,0.0209l-0.00512,-0.0393c-0.00691,0.00474 -0.0112,0.01124 -0.0112,0.01839z"/><path d="M210.0923,142.97689c0.11095,-0.07611 0.13192,-0.08354 0.15061,-0.0533c0.04378,0.07084 -0.15774,0.30159 -0.28343,0.32455c-0.05396,0.00984 -0.066,0.05244 -0.10412,0.36895c-0.02649,0.21978 -0.07943,0.19837 -0.1159,-0.04689c-0.01615,-0.10857 -0.02937,-0.22049 -0.02937,-0.24871c0,-0.06886 -0.0339,-0.06492 -0.06608,0.00762c-0.01435,0.03238 -0.0466,0.05728 -0.07166,0.05526c-0.02809,-0.00225 -0.04553,0.01484 -0.04553,0.04458c0,0.02652 -0.01393,0.0788 -0.03097,0.11619c-0.02348,0.05157 -0.04718,0.06608 -0.09818,0.06014c-0.06469,-0.00754 -0.06731,-0.01468 -0.07006,-0.19109c-0.00168,-0.10815 0.01092,-0.2058 0.03076,-0.23826c0.06105,-0.09985 0.2008,-0.14457 0.42632,-0.13642z"/></g></g></g></g></svg>