<svg version="1.1" xmlns="http://www.w3.org/2000/svg" xmlns:xlink="http://www.w3.org/1999/xlink" width="1871.513" height="1870.001" viewBox="0,0,1871.513,1870.001"><g transform="translate(933.56606,863.39339)"><g data-paper-data="{&quot;isPaintingLayer&quot;:true}" fill="#3e3e3e" fill-rule="nonzero" stroke="none" stroke-width="1" stroke-linecap="butt" stroke-linejoin="miter" stroke-miterlimit="10" stroke-dasharray="" stroke-dashoffset="0" style="mix-blend-mode: normal"><path d="M-933.06606,-863.39339h905l0.231,24.25l0.232,24.25l0.286,-24.25l0.287,-24.25h171.964l0.468,56.5l0.281,-28.25l0.282,-28.25h565.969l0.468,56.5l0.281,-28.25l0.282,-28.25h165.969l0.468,56.5l0.281,-28.25l0.282,-28.25h57.964l-0.248,168.25l-0.247,168.25l-55,1.08l27.75,-0.04l27.749,-0.04l-0.249,370l-0.25,370l-55,1.08l27.756,-0.04l27.757,-0.04l-0.257,82.955l-0.256,82.955l-2.5,0.776c-2.44,0.758 -2.434,0.769 0.252,0.434l2.752,-0.343l-0.504,451.223l-55,1.08l27.745,-0.04l27.746,-0.04l-0.246,86l-0.245,86l-935.25,0.251l-935.25,0.25v-111.001l24.25,-0.231l24.25,-0.232l-24.25,-0.286l-24.25,-0.287v-59.964l24.25,-0.231l24.25,-0.232l-24.25,-0.286l-24.25,-0.287v-450.964l50.5,-0.464l-50.5,-0.57v-165.966l56.5,-0.468l-28.25,-0.281l-28.25,-0.282v-451.969l24.25,-0.231l24.25,-0.232l-24.25,-0.286l-24.25,-0.287v-286.964l24.25,-0.231l24.25,-0.232l-24.25,-0.286l-24.25,-0.287v-161.964l4.25,-0.175l4.25,-0.174l-9,-1.022l4.5,-0.664l4.5,-0.665l-8.5,-0.3zM-279.56606,-169.39439c-49.496,16.714 -65.155,24.355 -98,47.822c-19.932,14.241 -19.924,14.235 -21.396,16.985c-2.848,5.321 -11.74,38.368 -17.004,63.194c-0.48173,2.27208 -0.93525,4.48953 -1.36189,6.66796c-2.28862,2.10599 -5.10577,3.6253 -7.30103,5.83408c-1.40116,1.40979 -2.07156,3.41362 -3.36544,4.92247c-1.84303,2.14925 -4.24903,3.78586 -6.00601,6.00601c-3.20482,4.04967 -5.42973,8.7884 -8.28059,13.09459c-1.51103,2.28239 -3.51056,4.23837 -4.85579,6.62225c-0.92426,1.6379 -1.13754,3.59189 -1.88251,5.31874c-2.00815,4.65494 -5.38898,10.01206 -6.4997,15.04282c-0.32372,1.46619 0.41249,3.06077 0,4.5045c-0.61491,2.15219 -2.002,4.00401 -3.00301,6.00601c-0.36696,7.27112 -0.26751,14.5382 -0.26751,21.81705c0,3.11288 -0.06825,15.01934 0.26751,17.31255c0.20141,1.37565 1.38129,2.45054 1.72417,3.79791c0.78193,3.0727 0.5392,6.39357 1.62718,9.37169c1.09007,2.98381 3.39031,5.38592 4.80352,8.23096c0.64744,1.3034 0.7858,2.81034 1.34784,4.15277c0.22983,0.54895 0.9194,0.88518 1.0078,1.47369c0.34043,2.26629 -0.54749,4.72067 0.24566,6.87076c0.86611,2.34785 3.49372,3.71672 4.5045,6.00601c0.49115,1.11241 -0.63061,2.48629 -0.24566,3.63976c1.19038,3.56682 3.48312,6.68114 4.85814,10.18094c0.75462,1.92069 0.73541,4.08986 1.5015,6.00601c1.78982,4.47664 4.40195,8.62315 5.89802,13.20633l1.42858,4.28575c1.22359,3.9786 4.86268,6.89923 9.20574,7.05033c-0.41174,1.0948 -0.63698,2.28092 -0.63698,3.51966v3.00301h0.45874c0.18039,0.57371 0.4111,1.12512 0.68695,1.64907l0.28735,0.5747l-0.67184,1.60307c4.26048,5.2105 8.20702,10.67351 12.11911,16.15042c2.30501,2.06338 4.49481,4.49248 6.80815,6.5108c1.27217,3.96988 2.46777,7.25876 3.79645,10.56736c1.877,4.675 4.219,10.975 5.204,14c1.789,5.496 4.947,12.55 15.126,33.782c4.752,9.912 7.456,15.013 17.341,32.718c1.228,2.2 2.791,4.675 3.473,5.5c0.682,0.825 2.982,4.425 5.11,8c2.129,3.575 5.238,8.379 6.909,10.676c1.671,2.297 5.054,7.022 7.519,10.5c3.844,5.426 14.307,18.693 26.263,33.302c1.791,2.188 11.356,12.109 21.256,22.045c20.775,20.853 30.687,29.315 58.5,49.943c19.99,14.827 58.645,36.675 82.5,46.631c26.245,10.952 60.509,22.401 79.5,26.563c22.437,4.918 63.544,10.845 79.953,11.529l7.454,0.311l2.325,-7.5c8.565,-27.622 14.728,-53.236 18.77,-78c3.762,-23.053 8.322,-53.465 8.06,-53.751c-0.126,-0.137 -5.817,-1.198 -12.646,-2.356c-6.829,-1.158 -12.866,-2.574 -13.416,-3.146c-0.687,-0.716 -0.374,-0.81 1,-0.302c3.342,1.236 26.891,1.997 26.18,0.847c-0.344,-0.557 -2.756,-1.305 -5.36,-1.662c-9.98,-1.368 -39.32,-8.68 -39.32,-9.799c0,-0.382 1.237,-1.571 2.75,-2.642c3.334,-2.361 37.873,-13.813 44.454,-14.74l4.704,-0.662l2.076,-6.238c1.141,-3.43 4.12,-9.57 6.618,-13.643c11.289,-18.404 27.384,-26.967 44.898,-23.887c18.98,3.337 33.289,17.455 40.017,39.481l2.138,7l7.789,0.713c4.285,0.392 10.1,1.372 12.923,2.177c2.823,0.805 9.183,2.239 14.133,3.187c8.836,1.693 16.5,4.629 16.5,6.321c0,2.034 -3.539,3.39 -12.223,4.685c-12.704,1.895 -31.781,5.51 -34.587,6.554c-1.271,0.472 -2.027,1.317 -1.681,1.877c0.346,0.56 0.997,0.792 1.445,0.514c1.216,-0.751 36.25,-5.658 36.759,-5.148c0.62,0.62 -2.049,1.356 -11.213,3.091c-4.4,0.833 -12.162,2.473 -17.25,3.645l-9.25,2.131l-0.021,20.126c-0.027,26.84 -3.327,66.719 -6.652,80.389l-0.55,2.262l4.541,-1.946c14.362,-6.156 33.313,-10.072 48.682,-10.059c7.872,0.007 23.176,2.511 28.977,4.741c2.03,0.78 4.017,0.2 11,-3.215c12.587,-6.153 26.235,-13.821 37.523,-21.079c5.5,-3.537 11.285,-7.226 12.856,-8.198c4.326,-2.678 13.952,-9.823 25.961,-19.268c5.944,-4.675 13.016,-10.194 15.716,-12.264c6.829,-5.235 44.002,-42.494 52.335,-52.455c3.778,-4.516 11.299,-14.189 16.714,-21.496c5.416,-7.307 10.689,-14.41 11.718,-15.785c2.021,-2.699 12.675,-19.769 18.412,-29.5c21.721,-36.844 40.07,-82.699 49.22,-123c1.998,-8.8 4.263,-18.7 5.034,-22c1.973,-8.446 4.305,-23.657 4.983,-32.5c0.316,-4.125 1.015,-12.675 1.554,-19c1.587,-18.623 1.162,-53.253 -0.958,-78c-2.062,-24.084 -2.965,-29.661 -9.221,-56.935c-2.216,-9.661 -4.385,-19.14 -4.821,-21.065c-2.599,-11.501 -17.77,-53.234 -24.141,-66.409c-4.749,-9.82 -5.456,-10.582 -20.862,-22.5c-17.12,-13.244 -29.354,-20.934 -50.5,-31.742c-50.925,-26.028 -114.058,-44.629 -172.5,-50.823c-14.706,-1.559 -58.697,-3.622 -71.5,-3.353c-3.85,0.081 -17.575,0.482 -30.5,0.892zM76.70394,321.72561c-3.731,7.463 -8.349,36.192 -12.278,76.381c-4.136,42.311 -8.585,72.841 -13.481,92.5c-4.123,16.558 -8.392,31.381 -11.519,40c-1.496,4.125 -4.382,12.575 -6.412,18.778c-2.03,6.203 -3.959,11.01 -4.286,10.683c-0.326,-0.327 -0.532,-0.002 -0.456,0.722c0.076,0.725 -0.926,6.717 -2.225,13.317c-2.306,11.709 -2.528,23.573 -0.678,36.277c1.572,10.8 8.547,27.625 14.643,35.322c2.817,3.556 2.943,4.402 0.598,3.995c-0.454,-0.079 -0.552,0.298 -0.218,0.838c0.333,0.539 1.245,0.735 2.027,0.436c0.835,-0.321 2.708,0.921 4.544,3.012c3.789,4.315 16.473,13.975 23.131,17.616c2.67,1.461 4.514,3.031 4.098,3.49c-0.417,0.459 -0.299,0.575 0.262,0.258c0.561,-0.318 6.186,1.169 12.5,3.303c9.423,3.185 13.003,3.908 19.98,4.033c4.675,0.083 7.713,0.358 6.75,0.609c-4.193,1.096 -1.148,2.311 5.792,2.311c9.282,0 19.732,-2.065 33.36,-6.591c15.428,-5.125 24.747,-9.9 43.452,-22.266c12.651,-8.364 17.638,-11.135 20,-11.111c4.077,0.041 6.49,1.94 7.242,5.699c0.731,3.653 -2.263,7.371 -10.517,13.059c-2.981,2.055 -5.577,4.205 -5.768,4.778c-0.192,0.574 1.479,2.07 3.712,3.325c3.282,1.844 5.065,2.183 9.308,1.766c7.7,-0.756 10.911,-1.688 13.311,-3.863c1.479,-1.341 2.268,-1.566 2.548,-0.726c1.502,4.505 17.599,-14.712 23.824,-28.44c5.724,-12.625 7.472,-26.172 4.157,-32.218c-0.577,-1.052 -2.187,-4.523 -3.579,-7.714c-1.391,-3.192 -3.437,-6.957 -4.547,-8.368c-1.11,-1.411 -1.727,-3.075 -1.371,-3.698c0.356,-0.622 0.292,-0.812 -0.142,-0.42c-0.434,0.391 -3.768,-1.91 -7.41,-5.113c-7.591,-6.677 -18.828,-13.68 -23.459,-14.621c-5.059,-1.027 -9.663,-2.808 -9.663,-3.738c0,-0.472 -0.379,-0.624 -0.843,-0.337c-0.464,0.287 -5.301,-0.412 -10.75,-1.552c-6.069,-1.27 -14.309,-2.144 -21.269,-2.255c-9.879,-0.158 -11.543,-0.429 -12.75,-2.08c-3.121,-4.268 -0.7,-9.542 5.365,-11.689c2.598,-0.92 8.806,-1.289 20.247,-1.204c18.071,0.134 28.395,1.299 40.272,4.544c4.274,1.168 7.994,1.9 8.266,1.628c0.743,-0.742 4.223,-23.219 4.923,-31.795c0.706,-8.645 -0.579,-21.374 -2.584,-25.598c-2.09,-4.405 -16.565,-13.609 -26.769,-17.023c-7.403,-2.476 -10.148,-2.879 -19.608,-2.879c-6.05,0 -12.98,0.388 -15.4,0.863c-3.828,0.751 -4.321,0.656 -3.787,-0.735c0.481,-1.256 0.246,-1.405 -1.1,-0.695c-2.531,1.336 -22.429,7.394 -24.463,7.449c-0.963,0.025 -1.75,0.4 -1.75,0.832c0,0.432 -0.463,0.786 -1.028,0.786c-2.522,0 -16.622,7.573 -22.741,12.215c-7.296,5.533 -10.839,6.355 -14.218,3.297c-5.005,-4.529 -0.673,-11.166 13.571,-20.794c3.934,-2.659 4.145,-3.08 5.748,-11.489c3.491,-18.318 4.843,-35.743 5.383,-69.404c0.702,-43.69 -0.89,-60.014 -7.264,-74.503c-6.967,-15.838 -24.934,-24.361 -38.451,-18.24zM118.93394,-468.94939c0,3.007 -0.641,6.026 -1.557,7.333c-1.412,2.018 -2.389,2.223 -10.566,2.223h-9.01l0.317,2.75c0.258,2.245 0.866,2.798 3.316,3.014c12.659,1.114 12.656,1.106 12.557,32.487c-0.042,13.293 -0.41,24.497 -0.817,24.897c-0.777,0.765 -5.174,1.63 -8.99,1.77c-1.945,0.071 -2.25,0.625 -2.25,4.082v4l9.25,0.015c5.088,0.009 9.784,0.355 10.437,0.771c1.916,1.218 3.313,5.975 3.313,11.279c0,4.802 0.08,4.935 2.96,4.935h2.959l0.291,-8.25l0.29,-8.25l5.089,-0.297c6.596,-0.384 7.766,1.032 8.411,10.187c0.399,5.654 0.847,7.157 2.212,7.416c1.5,0.286 1.747,-0.825 2,-8.99l0.288,-9.316l4,-0.878c7.606,-1.671 14.436,-4.972 18.146,-8.771c3.257,-3.336 3.776,-4.54 4.143,-9.615c0.587,-8.109 -1.425,-12.479 -7.355,-15.978c-7.187,-4.24 -7.834,-5.068 -5.956,-7.624c6.331,-8.616 6.851,-11.58 3.272,-18.664c-2.745,-5.433 -7.36,-8.663 -13.573,-9.498c-9.517,-1.28 -9.61,-1.361 -10.26,-8.834c-0.973,-11.194 -4.238,-11.81 -5.248,-0.991c-0.345,3.691 -1.024,7.108 -1.509,7.593c-0.484,0.484 -3.081,0.741 -5.77,0.57l-4.89,-0.31l-0.5,-7.491c-0.381,-5.7 -0.87,-7.56 -2.049,-7.784c-0.852,-0.162 -1.864,0.021 -2.25,0.407zM245.93294,874.51361c-1.787,5.217 -3.195,7.701 -4.76,8.399c-1.222,0.546 -3.622,3.175 -5.335,5.843c-2.688,4.189 -4.904,6.133 -4.904,4.301c0,-2.571 6.894,-12.45 8.688,-12.45c1.36,0 1.417,-0.114 1.797,-3.614c0.126,-1.163 0.586,-2.738 1.022,-3.5c0.436,-0.762 -0.876,0.189 -2.915,2.114c-4.55,4.294 -9.732,14.525 -10.21,20.157c-0.195,2.299 -0.616,5.004 -0.936,6.012c-0.476,1.501 -0.032,1.831 2.468,1.831c3.45,0 4.27,1.745 3.994,8.5c-0.237,5.834 -0.115,6.213 2.196,6.817c2.261,0.591 2.255,0.9 0.13,-7.317c-1.688,-6.525 0.704,-7.81 6.422,-3.449c3.833,2.923 4.177,2.327 1.34,-2.325c-2.517,-4.129 -2.522,-7.275 -0.019,-12.182c2.896,-5.675 6.758,-8.044 13.115,-8.044c6.137,0 10.867,2.659 13.535,7.609c2.122,3.936 1.453,13.306 -1.354,18.963c-1.072,2.161 -1.871,5.278 -1.777,6.928c0.166,2.91 0.335,3.009 5.679,3.295c9.33,0.5 22.564,-5.847 30.806,-14.774c3.361,-3.641 4.125,-4.035 5.938,-3.064c2.317,1.24 2.603,3.854 1.131,10.35c-0.523,2.306 -1.226,6.331 -1.562,8.943c-0.336,2.612 -1.083,4.75 -1.661,4.75c-0.693,0 -0.858,-2.757 -0.486,-8.12l0.564,-8.12l-3.203,4.303c-12.514,16.817 -23.571,21.838 -38.392,17.436c-2.779,-0.825 -6.236,-1.598 -7.681,-1.718c-1.446,-0.119 -2.629,-0.742 -2.629,-1.384c0,-0.642 -1.237,-1.976 -2.75,-2.965c-1.513,-0.99 -3.366,-2.413 -4.119,-3.163c-1.77,-1.764 -2.07,-1.371 -1.443,1.89c0.294,1.534 1.347,2.878 2.485,3.176c1.087,0.284 2.22,1.45 2.518,2.591c0.298,1.141 0.97,2.074 1.493,2.074c0.523,0 0.665,0.9 0.316,2c-0.474,1.494 -0.175,2.008 1.183,2.033c3.979,0.073 9.029,6.948 7.682,10.458c-1.011,2.636 0.928,1.642 5.601,-2.868c5.469,-5.279 8.856,-6.327 12.163,-3.763c1.304,1.011 4.274,2.135 6.6,2.498c3.93,0.612 4.274,0.48 4.863,-1.869c0.349,-1.39 0.09,-3.842 -0.575,-5.448c-1.869,-4.512 -0.131,-5.725 2.138,-1.491c1.671,3.118 1.815,4.363 0.964,8.331c-0.952,4.44 -0.205,19.366 1.031,20.603c2.658,2.657 5.931,-5.97 6.191,-16.32c0.134,-5.342 0.529,-6.635 2.52,-8.25c1.298,-1.053 3.195,-1.914 4.215,-1.914c3.577,0 4.264,-3.692 4.556,-24.5c0.339,-24.076 -0.441,-27.337 -7.475,-31.247l-4.343,-2.415l0.658,6.331c0.362,3.482 0.742,9.34 0.843,13.017c0.17,6.145 -0.051,6.932 -2.73,9.727c-5.08,5.3 -11.579,6.149 -18.806,2.456c-3.47,-1.773 -7.784,-8.08 -7.764,-11.351c0.025,-4.134 2.602,-10.292 5.266,-12.583c2.545,-2.19 3.081,-4.381 4.353,-17.817c0.383,-4.043 0.18,-6.115 -0.649,-6.627c-2.368,-1.464 -5.026,0.313 -6.939,4.639c-1.069,2.416 -2.622,4.654 -3.451,4.972c-1.337,0.513 -1.331,1.018 0.057,4.486c1.536,3.839 1.308,6.912 -0.512,6.912c-0.508,0 -1.185,-1.042 -1.505,-2.317c-0.319,-1.274 -1.757,-2.945 -3.193,-3.714c-3.463,-1.853 -5.456,-5.935 -5.723,-11.718c-0.272,-5.881 -1.447,-6.221 -8.715,-2.529zM261.74294,480.61261c2.839,0.009 9.419,2.099 8.742,2.776c-0.35,0.35 -2.48,0.503 -4.733,0.341c-3.88,-0.28 -4.059,-0.172 -3.382,2.04c2.297,7.511 2.805,13.523 2.813,33.337c0.008,19.534 -0.262,23.261 -2.413,33.25l-2.421,11.249l3.774,3.686c2.076,2.027 3.961,3.489 4.189,3.25c1.404,-1.474 14.942,-25.707 17.84,-31.935c6.424,-13.806 7.275,-17.376 7.273,-30.5c-0.001,-10.377 -0.293,-12.541 -2.155,-16c-2.895,-5.379 -6.836,-8.951 -12.775,-11.577c-4.757,-2.103 -15.722,-3.492 -18.317,-2.32zM289.92794,871.29061c-0.004,1.549 -0.636,4.023 -1.406,5.499c-0.77,1.475 -1.703,4.063 -2.073,5.75c-0.651,2.963 -0.556,3.067 2.799,3.067c2.164,0 3.689,-0.565 4.048,-1.5c0.316,-0.825 1.516,-1.5 2.666,-1.5c1.149,0 1.812,-0.45 1.472,-1c-0.34,-0.55 0.069,-1 0.91,-1c1.014,0 1.313,-0.56 0.889,-1.664c-0.398,-1.036 -0.241,-1.418 0.417,-1.011c1.442,0.891 2.345,-3.034 1.319,-5.733c-0.459,-1.206 -2.665,-3.405 -4.903,-4.886c-3.927,-2.599 -4.105,-2.625 -5.1,-0.765zM241.79694,922.56761c-2.48,2.077 -3.872,13.039 -1.656,13.039c0.816,0 2.228,-0.823 3.138,-1.829c2.182,-2.411 2.286,-12.973 0.155,-15.73c-1.428,-1.847 -1.459,-1.821 -0.65,0.52zM-932.31606,101.85661c0.142,-62.287 0.142,-164.212 0,-226.5c-0.142,-62.287 -0.259,-11.325 -0.259,113.25zM-932.31606,720.77661c0.142,-62.332 0.142,-164.032 0,-226c-0.142,-61.969 -0.259,-10.97 -0.259,113.33zM-423.81506,352.92661l0.286,24.18l0.232,-24.75l0.231,-24.75l-2.25,0.116c-1.665,0.086 -1.8,0.234 -0.518,0.57zM265.41094,921.46261c0.238,-0.238 -0.109,-1.99 -0.772,-3.894c-1.089,-3.129 -1.526,-3.431 -4.536,-3.143c-1.833,0.176 -4.645,-0.138 -6.25,-0.698c-1.606,-0.559 -2.919,-0.623 -2.919,-0.142zM-27.81607,-581.39239c0.413,-0.001 0.75,-11.251 0.75,-25.001c0,-13.75 -0.21,-25 -0.467,-25c-0.256,0 -0.594,11.25 -0.75,25.001zM708.18394,-413.39239c0.412,-0.001 0.75,-11.251 0.75,-25.001c0,-13.75 -0.21,-25 -0.467,-25c-0.256,0 -0.594,11.25 -0.75,25.001zM-932.31606,-310.22139c0.145,-39.781 0.145,-104.581 0,-144c-0.145,-39.42 -0.263,-6.872 -0.263,72.328zM879.18394,976.65461l0.287,24.452l0.232,-25.25c0.215,-23.474 0.108,-25.249 -1.519,-25.235c-1.227,0.011 -1.382,0.249 -0.518,0.798zM-648.56607,778.15461l27.191,0.226c17.296,0.144 27.416,-0.138 27.809,-0.774c0.34,-0.55 0.479,-0.898 0.309,-0.774c-0.17,0.124 -12.684,0.472 -27.809,0.774zM132.17594,783.99861c1.791,2.01 3.114,2.685 4.341,2.215c1.511,-0.58 1.135,-1.319 -2.618,-5.142c-2.41,-2.456 -5.266,-4.465 -6.348,-4.465c-1.942,0 -1.942,0.027 0.042,2.25zM769.43394,-525.84239l25.691,0.224c16.295,0.143 25.917,-0.141 26.309,-0.775c0.34,-0.55 0.479,-0.899 0.309,-0.775c-0.17,0.123 -12.009,0.472 -26.309,0.775zM712.50194,-581.62839c0.675,-0.675 0.577,-48.954 -0.101,-49.631c-0.257,-0.257 -0.467,10.933 -0.467,24.866zM154.82294,819.06461c2.234,7.158 4.759,8.995 3.758,2.734c-0.957,-5.981 -2.397,-9.192 -4.122,-9.192c-0.839,0 -1.518,0.112 -1.51,0.25zM-701.56606,-525.84039l24.691,0.223c15.628,0.142 24.918,-0.143 25.309,-0.776c0.34,-0.55 0.479,-0.899 0.309,-0.776c-0.17,0.123 -11.559,0.472 -25.309,0.776zM-869.56606,-466.83939l24.191,0.223c15.294,0.141 24.418,-0.145 24.809,-0.777c0.34,-0.55 0.479,-0.9 0.309,-0.777c-0.17,0.123 -11.334,0.472 -24.809,0.777zM141.18394,793.57561c0.412,0.017 0.75,0.658 0.75,1.424c0,1.669 2.24,2.695 3.792,1.735c0.722,-0.446 -0.123,-2.251 -2.415,-5.157c-3.87,-4.907 -4.871,-5.599 -5.839,-4.033zM672.68294,215.84961c31.723,-0.488 34.687,-0.828 9.001,-1.035c-14.162,-0.115 -25.751,0.13 -25.751,0.542zM708.43094,43.10661l0.27,-24.932c0.148,-13.713 -0.077,-25.278 -0.499,-25.702c-0.422,-0.423 -0.544,10.797 -0.269,24.933zM-733.81606,778.39761c27.195,-0.209 24.074,-0.549 -9.501,-1.034c-9.763,-0.141 -17.751,0.081 -17.75,0.493zM-517.22206,-181.15039c31.487,-0.487 34.61,-0.828 9.465,-1.035c-13.855,-0.115 -25.4,0.129 -25.656,0.542zM878.35794,889.27461c-0.522,1.663 -0.474,1.675 0.518,0.139c0.737,-1.14 1,-9.785 0.807,-26.5l-0.286,-24.807l-0.231,24.668zM708.43094,-69.89339l0.27,-24.432c0.148,-13.437 -0.076,-24.778 -0.499,-25.201c-0.422,-0.424 -0.544,10.571 -0.269,24.432zM879.43094,-357.89339l0.27,-24.432c0.148,-13.437 -0.076,-24.778 -0.499,-25.201c-0.422,-0.424 -0.544,10.571 -0.269,24.432zM708.43094,-526.89339l0.27,-23.931c0.149,-13.163 -0.076,-24.278 -0.498,-24.702c-0.423,-0.424 -0.545,10.346 -0.27,23.931zM5.93393,792.18661c0,1.405 1.039,0.817 4.419,-2.501c2.501,-2.454 4.191,-4.932 3.893,-5.708c-0.761,-1.984 -1.437,-1.639 -5.062,2.585zM156.94094,840.11061c1.186,0.733 1.713,-0.593 2.348,-5.905c0.64,-5.36 -0.576,-8.044 -2.688,-5.932zM794.18394,834.40061c25.408,-0.207 22.496,-0.562 -8.501,-1.037c-9.214,-0.141 -16.751,0.081 -16.75,0.493zM712.68394,320.95361c0.412,0.256 0.634,-7.03 0.493,-16.191c-0.474,-30.753 -0.83,-33.832 -1.037,-8.965zM850.68394,-466.59939c24.792,-0.206 21.931,-0.555 -8.501,-1.037c-8.939,-0.141 -16.251,0.08 -16.25,0.493zM26.92494,795.63961c-0.634,2.211 -0.518,2.967 0.456,2.967c1.752,0 3.244,-1.922 4.081,-5.256c0.529,-2.108 0.33,-2.744 -0.861,-2.744c-0.852,0 -1.836,0.465 -2.187,1.033zM-19.43006,851.60661c1.19,0 1.376,-0.712 0.85,-3.25c-1.041,-5.028 -5.486,-7.841 -5.486,-3.473zM19.43893,818.60661c1.57,0 5.495,-2.556 5.495,-3.579c0,-0.691 0.273,-1.969 0.607,-2.839c0.638,-1.664 -1.234,-2.142 -3.193,-0.817zM-932.31606,-734.21839c0.149,-23.829 0.149,-62.529 0,-86c-0.15,-23.471 -0.272,-3.975 -0.272,43.325zM-23.58306,837.23361c-0.516,1.623 1.075,4.373 2.53,4.373c1.397,0 1.658,-7.028 0.303,-8.153c-0.956,-0.793 -1.426,-0.652 -1.804,0.54zM60.35894,809.60661c0.999,0 1.113,-0.999 0.484,-4.25c-0.452,-2.338 -0.841,-4.539 -0.865,-4.893c-0.024,-0.354 -0.771,-0.922 -1.659,-1.263c-1.405,-0.539 -1.523,0.002 -0.903,4.143zM-800.22306,895.84761c25.203,-0.479 27.806,-0.842 7.466,-1.042c-11.105,-0.11 -20.401,0.139 -20.657,0.551zM503.77694,498.8476c25.203,-0.479 27.806,-0.842 7.466,-1.042c-11.105,-0.11 -20.401,0.139 -20.657,0.551zM153.58294,810.60661c2.006,0 1.696,-1.031 -2.059,-6.861c-4.152,-6.444 -3.896,-6.186 -5.285,-5.328zM-932.31606,340.35661c0.149,-22.962 0.149,-60.537 0,-83.5c-0.15,-22.962 -0.273,-4.175 -0.273,41.75zM73.43893,745.03561c2.447,1.849 3.499,1.884 5.728,0.192c1.601,-1.217 1.541,-1.403 -0.798,-2.468c-3.033,-1.383 -3.499,-1.398 -5.43,-0.177zM879.20294,320.73961c0.422,-0.424 0.647,-11.539 0.498,-24.702l-0.27,-23.931l-0.498,24.702zM-423.79707,-751.26039c0.422,-0.424 0.647,-11.539 0.498,-24.702l-0.27,-23.931l-0.498,24.702zM712.14394,-42.56139l0.21,19.668l0.54,-21c0.297,-11.55 0.483,-21.132 0.414,-21.293c-0.07,-0.161 -0.408,0.438 -0.75,1.332zM-932.31606,-566.64339c0.15,-22.412 0.15,-59.087 0,-81.5c-0.15,-22.412 -0.273,-4.075 -0.273,40.75zM23.38093,805.96161c-0.6,2.39 -0.429,2.787 1.07,2.494c2.24,-0.438 5.122,-7.849 3.053,-7.849c-0.729,0 -1.794,0.565 -2.367,1.256zM17.65493,824.35661c-0.789,3.325 3.026,3.046 4.304,-0.315c1.717,-4.518 0.913,-5.679 -2.206,-3.185zM61.57594,824.02261c1.444,0.554 1.572,-0.056 1.058,-5.035c-0.847,-8.206 -2.7,-9.364 -2.7,-1.688zM34.48894,777.35661c-1.054,3.438 2.068,2.881 3.919,-0.7c0.839,-1.623 1.526,-3.198 1.526,-3.5c0,-1.055 -2.763,-0.54 -3.755,0.7zM57.95494,842.56761c-0.699,1.306 -0.589,2.152 0.385,2.961c1.083,0.898 1.5,0.559 2.026,-1.645c0.365,-1.527 0.88,-3.511 1.145,-4.409c0.266,-0.897 -0.206,-1.895 -1.047,-2.218c-1.064,-0.409 -1.53,0.032 -1.53,1.447zM99.98994,752.14061c1.403,0.868 1.822,0.378 2.905,-3.398c0.815,-2.842 0.692,-3.136 -1.318,-3.136c-1.735,0 -2.266,0.638 -2.441,2.934zM-9.86306,811.42061c0.506,2.627 6.027,-5.177 5.624,-7.95c-0.29,-1.993 -0.643,-1.766 -3.137,2.015zM-423.27406,240.85661c0.115,-14.437 -0.129,-26.251 -0.542,-26.251c-0.413,-0.001 -0.634,7.762 -0.493,17.25zM-27.27406,-721.1434c0.115,-14.437 -0.129,-26.251 -0.542,-26.251c-0.413,-0.001 -0.634,7.762 -0.493,17.25zM15.92794,782.09161c0.005,1.637 0.729,1.263 4.127,-2.136c5.102,-5.101 4.796,-7.598 -0.38,-3.106zM823.28094,-237.6434c-0.256,-0.413 -12.476,-0.656 -27.156,-0.541c-14.68,0.115 -22.416,0.337 -17.191,0.494zM30.30794,788.31461c0.98,0.98 3.614,-1.235 4.504,-3.788c0.869,-2.493 0.765,-2.92 -0.711,-2.92c-1.025,0 -2.218,1.297 -2.93,3.184zM132.46594,867.60661c2.461,0 8.468,-2.801 8.468,-3.949c0,-1.421 -1.775,-1.249 -6.25,0.607zM43.78694,756.01561c-0.723,-0.446 -0.892,-0.281 -0.448,0.436c0.392,0.635 0.236,1.155 -0.346,1.155c-0.582,0 -1.059,0.675 -1.059,1.5c0,2.059 0.744,1.893 4.071,-0.906c2.323,-1.955 2.607,-2.617 1.511,-3.526c-1.025,-0.851 -1.495,-0.738 -1.958,0.47zM-461.31606,382.41761c16.97,-0.192 14.977,-0.571 -5.502,-1.049c-6.189,-0.144 -11.251,0.076 -11.25,0.488zM122.50694,801.60661h2.623l-2.051,-3.25c-1.992,-3.156 -5.145,-4.926 -5.145,-2.888zM125.68394,775.58361c2.278,0.042 1.299,-1.77 -2.644,-4.893c-4.167,-3.3 -4.435,-3.422 -5.403,-2.454zM15.45394,834.45961c0.936,0.936 3.722,-1.274 4.601,-3.651c0.668,-1.805 0.455,-2.202 -1.178,-2.202c-1.233,0 -2.375,1.006 -2.996,2.639zM-13.00306,859.56761c1.115,-0.689 0.918,-1.352 -1.014,-3.408c-1.318,-1.404 -3.177,-2.553 -4.129,-2.553c-1.476,0 -1.565,0.354 -0.599,2.401zM126.09494,809.60661c2.076,0 2.32,-1.233 0.804,-4.066c-0.876,-1.636 -4.965,-2.856 -4.965,-1.481zM52.48193,856.60661c1.198,0 5.391,-5.608 5.42,-7.25c0.049,-2.683 -1.24,-2.077 -3.718,1.748zM595.28094,215.35661c-0.256,-0.412 -11.351,-0.657 -24.656,-0.544c-13.305,0.113 -20.366,0.334 -15.691,0.492zM-5.81607,865.59961c2.484,0.01 2.167,-1.49 -0.715,-3.378c-2.61,-1.71 -4.762,-2.054 -5.876,-0.94zM95.42894,846.45761c1.412,0.277 1.627,-0.045 1.003,-1.5c-0.436,-1.018 -1.287,-3.314 -1.89,-5.101c-1.106,-3.275 -2.03,-3.995 -3.037,-2.365zM25.68393,774.57961c1.897,-0.068 7.171,-5.558 6.44,-6.704c-0.57,-0.895 -1.661,-0.431 -3.988,1.693zM-932.31706,979.42761c0.155,-15.223 0.156,-40.423 0,-56c-0.155,-15.577 -0.282,-3.121 -0.282,27.679zM88.97094,828.63261c0.513,0.811 0.939,2.487 0.948,3.724c0.008,1.269 0.634,2.25 1.434,2.25c1.399,0 1.368,-0.341 -0.728,-8.218c-0.105,-0.395 -0.73,-0.383 -1.388,0.026zM121.12494,867.73461c0.72,0.07 2.434,0.244 3.809,0.387c3.162,0.329 4.626,-0.504 2.857,-1.625c-1.864,-1.181 -6.603,-1.11 -7.357,0.11zM116.30494,767.60661c0.346,0 0.629,-0.49 0.629,-1.09c0,-1.897 -7.204,-7.372 -8.282,-6.294zM101.34394,743.60661c2.139,0 2.012,-2.308 -0.239,-4.345c-2.066,-1.87 -2.226,-1.907 -3.83,-0.887zM154.02194,850.70161c2.358,-3.876 3.344,-7.71 2.17,-8.435c-0.497,-0.308 -1.871,1.731 -3.054,4.53zM147.04894,859.99461c3.56,-3.477 4.99,-6.389 3.135,-6.387c-0.412,0 -2.476,1.78 -4.586,3.956zM66.90993,742.10161c3.144,0.69 5.773,-0.201 4.361,-1.479c-1.257,-1.138 -5.948,-2.072 -6.689,-1.331zM-15.31607,822.24861c0.413,-0.262 1.615,-2.101 2.672,-4.087c2.429,-4.562 0.854,-6.843 -1.679,-2.431zM108.98594,862.60661c1.609,0 1.055,-1.551 -1.366,-3.826c-2.211,-2.076 -4.686,-2.889 -4.686,-1.539zM58.37494,739.60661c1.893,0 3.69,-0.403 3.994,-0.895c1.003,-1.622 -5.255,-2.952 -6.768,-1.438zM-19.73407,831.60661c1.559,0 3.733,-6.277 2.734,-7.893c-0.392,-0.634 -1.402,0.528 -2.374,2.73zM59.15694,797.04961c0.801,-0.8 -1.322,-8.443 -2.345,-8.443c-0.483,0 -0.878,1.52 -0.878,3.378zM4.39894,726.60661c1.324,0 0.33,-2.35 -1.715,-4.056c-2.705,-2.257 -3.75,-2.413 -3.75,-0.559zM44.71594,862.82461c3.641,-1.467 6.646,-4.19 5.677,-5.147c-0.606,-0.599 -2.158,0.041 -4.218,1.741zM118.58894,793.60661c1.284,0 1.2,-0.539 -0.506,-3.233c-2.234,-3.53 -4.149,-4.717 -4.149,-2.573zM35.68393,766.65861c3.942,-2.293 5.623,-4.079 4.696,-4.989c-0.585,-0.575 -1.994,-0.16 -3.696,1.087zM1.44994,799.21961c1.888,-2.138 3.193,-4.275 2.899,-4.75c-0.923,-1.494 -1.847,-0.949 -4.165,2.456zM101.68394,855.58961c1.51,0.021 1.585,-0.662 0.25,-2.275c-0.551,-0.664 -1.829,-2.294 -2.841,-3.62c-1.015,-1.331 -2.115,-1.968 -2.453,-1.421zM400.81194,500.6066c0.617,0 1.122,-0.432 1.122,-0.961c0,-0.529 3.938,-1.111 8.75,-1.294l8.75,-0.334l-8.628,-0.205c-6.636,-0.159 -8.914,0.14 -9.872,1.294zM62.73494,830.98361c0.224,-3.057 -0.114,-4.283 -1.304,-4.74c-1.359,-0.521 -1.559,0.113 -1.301,4.124zM712.93447,-367.11083c-0.10654,-3.87723 -0.18685,-8.7623 -0.25053,-14.83156l-0.284,-26.951l-0.233,27.75zM-932.31806,879.85661c0.167,-8.388 0.167,-22.112 0,-30.5c-0.167,-8.388 -0.304,-1.525 -0.304,15.25zM634.79093,778.38261l17.643,-0.224l-16.928,-0.301c-10.555,-0.188 -17.434,-0.721 -18.273,-1.417c-1.054,-0.876 -1.209,-0.762 -0.715,0.525zM-493.25506,98.35361c7.529,-0.169 1.089,-0.308 -14.311,-0.307c-15.4,0 -21.56,0.139 -13.689,0.308zM866.68394,98.35461c7.563,-0.17 1.375,-0.309 -13.75,-0.309c-15.125,0 -21.312,0.139 -13.75,0.309zM-607.31606,498.35461c7.563,-0.17 1.375,-0.309 -13.75,-0.309c-15.125,0 -21.312,0.139 -13.75,0.309zM696.24393,834.35361c7.254,-0.171 1.04,-0.31 -13.81,-0.309c-14.85,0 -20.786,0.14 -13.19,0.31zM640.24393,98.35361c7.254,-0.171 1.04,-0.31 -13.81,-0.309c-14.85,0 -20.786,0.14 -13.19,0.31zM879.68094,-594.1434c0.171,-7.288 0.171,-19.213 0,-26.5c-0.17,-7.287 -0.31,-1.325 -0.31,13.25zM-607.81606,-181.64639c7.288,-0.17 1.325,-0.31 -13.25,-0.31c-14.575,0 -20.538,0.14 -13.25,0.31zM-777.81606,834.35361c7.287,-0.17 1.325,-0.31 -13.25,-0.31c-14.575,0 -20.537,0.14 -13.25,0.31zM865.18394,778.35361c7.287,-0.17 1.325,-0.31 -13.25,-0.31c-14.575,0 -20.537,0.14 -13.25,0.31zM639.18394,-466.64639c7.287,-0.17 1.325,-0.31 -13.25,-0.31c-14.575,0 -20.537,0.14 -13.25,0.31zM640.18394,498.35361c7.287,-0.17 1.325,-0.31 -13.25,-0.31c-14.575,0 -20.537,0.14 -13.25,0.31zM865.18394,498.35361c7.287,-0.17 1.325,-0.31 -13.25,-0.31c-14.575,0 -20.537,0.14 -13.25,0.31zM-720.87506,-466.64539c7.32,-0.171 1.609,-0.312 -12.691,-0.312c-14.3,-0.001 -20.289,0.139 -13.309,0.311zM-606.87506,-466.64539c7.32,-0.171 1.609,-0.312 -12.691,-0.312c-14.3,-0.001 -20.289,0.139 -13.309,0.311zM-663.87506,-237.64539c7.32,-0.171 1.609,-0.312 -12.691,-0.312c-14.3,-0.001 -20.289,0.139 -13.309,0.311zM-438.87506,-237.64539c7.32,-0.171 1.609,-0.312 -12.691,-0.312c-14.3,-0.001 -20.289,0.139 -13.309,0.311zM-607.87506,98.35461c7.32,-0.171 1.609,-0.312 -12.691,-0.312c-14.3,-0.001 -20.289,0.139 -13.309,0.311zM-776.87506,-237.64539c7.32,-0.171 1.609,-0.312 -12.691,-0.312c-14.3,-0.001 -20.289,0.139 -13.309,0.311zM-720.87506,498.35461c7.32,-0.171 1.609,-0.312 -12.691,-0.312c-14.3,-0.001 -20.289,0.139 -13.309,0.311zM696.12494,-237.64539c7.32,-0.171 1.609,-0.312 -12.691,-0.312c-14.3,-0.001 -20.289,0.139 -13.309,0.311zM583.12494,382.35461c7.32,-0.171 1.609,-0.312 -12.691,-0.312c-14.3,-0.001 -20.289,0.139 -13.309,0.311zM-832.87506,778.35461c7.32,-0.171 1.609,-0.312 -12.691,-0.312c-14.3,-0.001 -20.289,0.139 -13.309,0.311zM752.12494,98.35461c7.32,-0.171 1.609,-0.312 -12.691,-0.312c-14.3,-0.001 -20.289,0.139 -13.309,0.311zM752.12494,778.35461c7.32,-0.171 1.609,-0.312 -12.691,-0.312c-14.3,-0.001 -20.289,0.139 -13.309,0.311zM712.68194,-257.20239c0.171,-7.32 0.17,-19.02 -0.001,-26c-0.172,-6.98 -0.312,-0.991 -0.311,13.309zM879.68194,196.79761c0.171,-7.32 0.17,-19.02 -0.001,-26c-0.172,-6.98 -0.312,-0.991 -0.311,13.309zM879.68194,422.79761c0.171,-7.32 0.17,-19.02 -0.001,-26c-0.172,-6.98 -0.312,-0.991 -0.311,13.309zM712.68094,988.35661c0.172,-7.013 0.172,-18.487 0,-25.5c-0.172,-7.013 -0.312,-1.275 -0.312,12.75zM712.68094,878.35661c0.172,-7.013 0.172,-18.487 0,-25.5c-0.172,-7.013 -0.312,-1.275 -0.312,12.75zM712.68094,86.3566c0.172,-7.013 0.172,-18.487 0,-25.5c-0.172,-7.013 -0.312,-1.275 -0.312,12.75zM708.68094,-313.64339c0.172,-7.013 0.172,-18.487 0,-25.5c-0.172,-7.013 -0.312,-1.275 -0.312,12.75zM708.68094,709.35661c0.172,-7.013 0.172,-18.487 0,-25.5c-0.172,-7.013 -0.312,-1.275 -0.312,12.75zM712.68094,766.35661c0.172,-7.013 0.172,-18.487 0,-25.5c-0.172,-7.013 -0.312,-1.275 -0.312,12.75zM879.68094,766.35661c0.172,-7.013 0.172,-18.487 0,-25.5c-0.172,-7.013 -0.312,-1.275 -0.312,12.75zM145.68094,-593.6434c0.172,-7.012 0.172,-18.488 0,-25.5c-0.172,-7.012 -0.312,-1.275 -0.312,12.75zM712.68094,-483.64339c0.172,-7.012 0.172,-18.488 0,-25.5c-0.172,-7.012 -0.312,-1.275 -0.312,12.75zM695.68394,-525.64639c7.013,-0.172 1.275,-0.312 -12.75,-0.312c-14.025,0 -19.763,0.14 -12.75,0.312zM752.68394,-181.64639c7.013,-0.172 1.275,-0.312 -12.75,-0.312c-14.025,0 -19.763,0.14 -12.75,0.312zM864.68394,-181.64639c7.013,-0.172 1.275,-0.312 -12.75,-0.312c-14.025,0 -19.763,0.14 -12.75,0.312zM920.68394,-237.64639c7.013,-0.172 1.275,-0.312 -12.75,-0.312c-14.025,0 -19.763,0.14 -12.75,0.312zM752.68394,498.35361c7.013,-0.172 1.275,-0.312 -12.75,-0.312c-14.025,0 -19.763,0.14 -12.75,0.312zM806.68394,895.35361c7.013,-0.172 1.275,-0.312 -12.75,-0.312c-14.025,0 -19.763,0.14 -12.75,0.312zM751.68394,-466.64639c7.013,-0.172 1.275,-0.312 -12.75,-0.312c-14.025,0 -19.763,0.14 -12.75,0.312zM-720.31606,98.35361c7.013,-0.172 1.275,-0.312 -12.75,-0.312c-14.025,0 -19.762,0.14 -12.75,0.312zM-777.31606,-525.64639c7.013,-0.172 1.275,-0.312 -12.75,-0.312c-14.025,0 -19.762,0.14 -12.75,0.312zM-665.31607,215.3536c7.012,-0.172 1.275,-0.312 -12.75,-0.312c-14.025,0 -19.762,0.14 -12.75,0.312zM864.24194,212.3536c6.706,-0.173 0.942,-0.314 -12.808,-0.313c-13.75,0 -19.236,0.142 -12.192,0.314zM640.24194,212.3536c6.706,-0.173 0.942,-0.314 -12.808,-0.313c-13.75,0 -19.236,0.142 -12.192,0.314zM807.24194,215.3536c6.706,-0.173 0.942,-0.314 -12.808,-0.313c-13.75,0 -19.236,0.142 -12.192,0.314zM-440.75806,-525.64639c6.706,-0.173 0.942,-0.314 -12.808,-0.313c-13.75,0 -19.236,0.142 -12.192,0.314zM-831.75806,498.35361c6.706,-0.173 0.942,-0.314 -12.808,-0.313c-13.75,0 -19.236,0.142 -12.192,0.314zM-831.75806,98.35361c6.706,-0.173 0.942,-0.314 -12.808,-0.313c-13.75,0 -19.236,0.142 -12.192,0.314zM-495.75806,-466.64639c6.706,-0.173 0.942,-0.314 -12.808,-0.313c-13.75,0 -19.236,0.142 -12.192,0.314zM-831.75806,212.3536c6.706,-0.173 0.942,-0.314 -12.808,-0.313c-13.75,0 -19.236,0.142 -12.192,0.314zM-552.75806,215.3536c6.706,-0.173 0.942,-0.314 -12.808,-0.313c-13.75,0 -19.236,0.142 -12.192,0.314zM-552.75806,-237.64639c6.706,-0.173 0.942,-0.314 -12.808,-0.313c-13.75,0 -19.236,0.142 -12.192,0.314zM-720.75806,212.3536c6.706,-0.173 0.942,-0.314 -12.808,-0.313c-13.75,0 -19.236,0.142 -12.192,0.314zM-495.75806,212.3536c6.706,-0.173 0.942,-0.314 -12.808,-0.313c-13.75,0 -19.236,0.142 -12.192,0.314zM-719.75806,-181.64639c6.706,-0.173 0.942,-0.314 -12.808,-0.313c-13.75,0 -19.236,0.142 -12.192,0.314zM584.24194,-525.64639c6.706,-0.173 0.942,-0.314 -12.808,-0.313c-13.75,0 -19.236,0.142 -12.192,0.314zM807.24194,382.35361c6.706,-0.173 0.942,-0.314 -12.808,-0.313c-13.75,0 -19.236,0.142 -12.192,0.314zM919.24194,895.35361c6.706,-0.173 0.942,-0.314 -12.808,-0.313c-13.75,0 -19.236,0.142 -12.192,0.314zM752.24194,212.3536c6.706,-0.173 0.942,-0.314 -12.808,-0.313c-13.75,0 -19.236,0.142 -12.192,0.314zM-776.75806,215.3536c6.706,-0.173 0.942,-0.314 -12.808,-0.313c-13.75,0 -19.236,0.142 -12.192,0.314zM-439.75806,215.3536c6.706,-0.173 0.942,-0.314 -12.808,-0.313c-13.75,0 -19.236,0.142 -12.192,0.314zM-664.75806,895.35361c6.706,-0.173 0.942,-0.314 -12.808,-0.313c-13.75,0 -19.236,0.142 -12.192,0.314zM-664.75806,834.35361c6.706,-0.173 0.942,-0.314 -12.808,-0.313c-13.75,0 -19.236,0.142 -12.192,0.314zM708.68094,820.91461c0.172,-6.705 0.173,-17.955 0.001,-25c-0.172,-7.044 -0.314,-1.558 -0.314,12.192zM879.68094,-483.08539c0.172,-6.705 0.173,-17.955 0.001,-25c-0.172,-7.044 -0.314,-1.558 -0.314,12.192zM-423.31906,-650.0854c0.172,-6.705 0.173,-17.955 0.001,-25c-0.172,-7.044 -0.314,-1.558 -0.314,12.192zM879.68094,-27.08539c0.172,-6.705 0.173,-17.955 0.001,-25c-0.172,-7.044 -0.314,-1.558 -0.314,12.192zM708.68094,596.91461c0.172,-6.705 0.173,-17.955 0.001,-25c-0.172,-7.044 -0.314,-1.558 -0.314,12.192zM708.68094,-762.08539c0.172,-6.705 0.173,-17.955 0.001,-25c-0.172,-7.044 -0.314,-1.558 -0.314,12.192zM-423.31906,-539.08539c0.172,-6.705 0.173,-17.955 0.001,-25c-0.172,-7.044 -0.314,-1.558 -0.314,12.192zM-423.31906,-427.08539c0.172,-6.705 0.173,-17.955 0.001,-25c-0.172,-7.044 -0.314,-1.558 -0.314,12.192zM-423.31906,-314.08539c0.172,-6.705 0.173,-17.955 0.001,-25c-0.172,-7.044 -0.314,-1.558 -0.314,12.192zM712.68094,196.91461c0.172,-6.705 0.173,-17.955 0.001,-25c-0.172,-7.044 -0.314,-1.558 -0.314,12.192zM-552.81606,382.35361c6.738,-0.173 1.225,-0.315 -12.25,-0.315c-13.475,0 -18.988,0.142 -12.25,0.315zM-608.81606,212.3536c6.738,-0.173 1.225,-0.315 -12.25,-0.315c-13.475,0 -18.988,0.142 -12.25,0.315zM-552.81606,-525.64639c6.738,-0.173 1.225,-0.315 -12.25,-0.315c-13.475,0 -18.988,0.142 -12.25,0.315zM-664.81607,382.35361c6.738,-0.173 1.225,-0.315 -12.25,-0.315c-13.475,0 -18.988,0.142 -12.25,0.315zM-328.81606,-525.64639c6.737,-0.173 1.225,-0.315 -12.25,-0.315c-13.475,0 -18.987,0.142 -12.25,0.315zM-832.81606,-181.64639c6.737,-0.173 1.225,-0.315 -12.25,-0.315c-13.475,0 -18.987,0.142 -12.25,0.315zM527.18394,-466.64639c6.737,-0.173 1.225,-0.315 -12.25,-0.315c-13.475,0 -18.987,0.142 -12.25,0.315zM695.18394,382.35361c6.737,-0.173 1.225,-0.315 -12.25,-0.315c-13.475,0 -18.987,0.142 -12.25,0.315zM708.68094,-651.1434c0.173,-6.738 0.173,-17.762 0,-24.5c-0.173,-6.738 -0.315,-1.225 -0.315,12.25zM708.68094,932.85661c0.173,-6.737 0.173,-17.763 0,-24.5c-0.173,-6.737 -0.315,-1.225 -0.315,12.25zM712.68094,420.85661c0.173,-6.737 0.173,-17.763 0,-24.5c-0.173,-6.737 -0.315,-1.225 -0.315,12.25zM708.68094,476.8566c0.173,-6.737 0.173,-17.763 0,-24.5c-0.173,-6.737 -0.315,-1.225 -0.315,12.25zM879.68094,84.8566c0.173,-6.737 0.173,-17.763 0,-24.5c-0.173,-6.737 -0.315,-1.225 -0.315,12.25zM708.68094,140.85661c0.173,-6.737 0.173,-17.763 0,-24.5c-0.173,-6.737 -0.315,-1.225 -0.315,12.25zM708.68094,252.85661c0.173,-6.737 0.173,-17.763 0,-24.5c-0.173,-6.737 -0.315,-1.225 -0.315,12.25zM879.68094,652.85661c0.173,-6.737 0.173,-17.763 0,-24.5c-0.173,-6.737 -0.315,-1.225 -0.315,12.25zM879.68094,-707.1434c0.173,-6.738 0.173,-17.762 0,-24.5c-0.173,-6.737 -0.315,-1.225 -0.315,12.25zM145.68094,-707.1434c0.173,-6.738 0.173,-17.762 0,-24.5c-0.173,-6.737 -0.315,-1.225 -0.315,12.25zM712.68094,-707.1434c0.173,-6.738 0.173,-17.762 0,-24.5c-0.173,-6.737 -0.315,-1.225 -0.315,12.25zM708.68094,365.79961c0.174,-6.769 0.173,-17.569 -0.001,-24c-0.174,-6.431 -0.315,-0.893 -0.315,12.307zM6.31094,868.53261c0.836,-0.908 0.821,-1.05 -0.058,-0.556c-0.649,0.364 -1.436,0.25 -1.748,-0.255c-0.312,-0.505 -1.884,-1.377 -3.492,-1.938c-2.283,-0.796 -3.043,-0.713 -3.46,0.375zM696.18394,895.35361c6.188,-0.176 1.125,-0.319 -11.25,-0.319c-12.375,0 -17.437,0.143 -11.25,0.319zM466.12893,382.35361c6.218,-0.176 1.405,-0.32 -10.695,-0.321c-12.1,-0.001 -17.187,0.143 -11.305,0.32zM879.68094,-255.19839c0.176,-6.218 0.175,-16.118 -0.001,-22c-0.177,-5.882 -0.321,-0.795 -0.32,11.305zM708.68094,-202.19839c0.176,-6.218 0.175,-16.118 -0.001,-22c-0.177,-5.882 -0.321,-0.795 -0.32,11.305zM465.23794,-525.64839c5.608,-0.178 0.746,-0.323 -10.804,-0.322c-11.55,0.001 -16.138,0.147 -10.196,0.324zM712.68094,647.30261c0.177,-5.943 0.176,-15.393 -0.002,-21c-0.178,-5.608 -0.323,-0.746 -0.322,10.804zM879.68094,-145.69739c0.177,-5.943 0.176,-15.393 -0.002,-21c-0.178,-5.608 -0.323,-0.746 -0.322,10.804zM353.18394,-525.64739c5.638,-0.178 1.025,-0.324 -10.25,-0.324c-11.275,0 -15.888,0.146 -10.25,0.324zM-382.81606,-466.64739c5.638,-0.178 1.025,-0.324 -10.25,-0.324c-11.275,0 -15.888,0.146 -10.25,0.324zM921.18394,382.35261c5.638,-0.178 1.025,-0.324 -10.25,-0.324c-11.275,0 -15.888,0.146 -10.25,0.324zM529.18394,212.35261c5.638,-0.178 1.025,-0.324 -10.25,-0.324c-11.275,0 -15.888,0.146 -10.25,0.324zM-782.81606,382.35261c5.637,-0.178 1.025,-0.324 -10.25,-0.324c-11.275,0 -15.888,0.146 -10.25,0.324zM712.67994,-145.14339c0.178,-5.638 0.178,-14.862 0,-20.5c-0.178,-5.638 -0.324,-1.025 -0.324,10.25zM879.67994,534.8566c0.178,-5.638 0.178,-14.862 0,-20.5c-0.178,-5.638 -0.324,-1.025 -0.324,10.25zM712.67994,534.8566c0.178,-5.638 0.178,-14.862 0,-20.5c-0.178,-5.638 -0.324,-1.025 -0.324,10.25zM522.67693,65.81261c0.191,-4.011 0.189,-10.311 -0.002,-14c-0.192,-3.688 -0.348,-0.406 -0.346,7.294zM713.50263,-356.72328l0.18131,3.31488c1.229,-0.011 1.383,-0.249 0.517,-0.799c-0.27788,-0.17656 -0.50745,-0.9563 -0.69831,-2.51588zM712.93447,-367.11083c0.13825,5.03092 0.32065,8.36501 0.56816,10.38756z"/><path d="M-79.45906,65.18061c19.176,-4.298 43.433,2.481 58.595,16.374c14.403,13.198 22.131,30.992 21.993,50.64c-0.15,21.491 -12.193,43.361 -30.407,55.222c-27.784,18.092 -65.208,12.948 -87.2,-11.987c-5.986,-6.787 -13.21,-21.301 -15.093,-30.323c-4.993,-23.931 4.234,-50.481 22.753,-65.465zM-57.64706,109.18461c-1.264,6.741 4.618,13.43 11.799,13.418c9.717,-0.016 14.195,-14.578 6.246,-20.313c-2.71,-1.956 -8.03,-2.985 -10.464,-2.025z"/><path d="M236.26394,66.1606c13.727,-3.011 29.947,-0.593 43.833,6.533c10.882,5.584 23.806,18.25 28.483,27.913c9.073,18.748 10.299,35.746 3.9,54.06c-7.225,20.682 -24.785,36.86 -46.006,42.388c-23.628,6.154 -47.885,-0.657 -65.333,-18.344c-4.77269,-4.83805 -8.68995,-10.36829 -11.689,-16.33616l-0.2436,-59.65038c1.02888,-1.93194 2.35219,-4.08304 4.2796,-7.11746zM260.93394,114.14061c0,3.973 0.505,5.171 3.4,8.066c5.261,5.261 11.968,4.456 16.368,-1.967c4.208,-6.141 2.499,-13.892 -3.779,-17.139c-3.875,-2.003 -6.85,-1.876 -10.675,0.456z"/><path d="M-298.22506,-40.64339c5.094,-9.183 8.382,-10.829 4.994,-2.5c-3.454,8.491 -6.835,17.77 -6.835,18.757c0,0.958 0.455,1.09 19,5.506c13.781,3.282 20.279,6.326 31.12,14.579c15.317,11.66 18.995,16.329 17.513,22.236c-0.923,3.674 -22.259,22.511 -26.373,23.283c-7.122,1.336 -8.998,-1.091 -16.704,-21.611c-5.489,-14.618 -6.565,-20.811 -4.234,-24.368l1.592,-2.431l-12.609,-4.148c-6.936,-2.282 -12.989,-3.769 -13.453,-3.305c-0.88,0.88 -10.854,25.043 -15.934,38.602l-2.942,7.851l4.154,7.649c11.179,20.587 13.87,25.968 13.87,27.738c0,2.604 -10.003,22.874 -13.916,28.199c-3.731,5.077 -7.028,6.651 -10.559,5.042c-3.063,-1.395 -3.673,-3.316 -7.569,-23.829c-5.144,-27.089 -5.48,-30.055 -4.008,-35.314c1.314,-4.693 26.578,-53.291 29.182,-56.136c2.131,-2.327 0.011,-3.618 -13.201,-8.038c-7.738,-2.59 -15.933,-5.766 -18.21,-7.059l-4.14,-2.352l5.961,0.552c3.278,0.304 11.73,1.856 18.782,3.45c7.052,1.593 13.643,2.897 14.645,2.897c1.108,0 2.561,-1.473 3.699,-3.75zM-263.51006,14.85661c2.128,5.913 4.196,10.75 4.596,10.75c1.365,0 10.348,-8.324 10.348,-9.59c0,-1.402 -16.765,-14.41 -18.572,-14.41c-0.628,0 -0.939,0.563 -0.692,1.25zM-330.06906,51.02361c-0.005,3.298 5.42,24.578 6.266,24.581c0.42,0.001 1.733,-1.994 2.918,-4.434l2.156,-4.437l-3.764,-8.313c-3.933,-8.687 -5.723,-11.331 -6.883,-10.171z"/><path d="M216.93394,-22.82539c11.464,-2.994 28.493,-1.648 43.95,3.474c17.129,5.676 48.062,21.541 56.236,28.843c5.76,5.146 5.896,7.324 0.514,8.199c-4.666,0.758 -12.781,-0.643 -37.2,-6.422c-32.877,-7.781 -48.025,-9.214 -65,-6.147c-11.465,2.072 -15.598,1.897 -19.602,-0.826c-3.071,-2.088 -3.392,-2.76 -3.336,-6.983c0.048,-3.649 0.725,-5.499 3.088,-8.44z"/><path d="M-243.06606,243.39561c1.375,-0.221 6.325,-0.376 11,-0.345l8.5,0.056l0.305,4.745c0.272,4.237 0.592,4.807 3,5.327c1.482,0.321 3.745,1.095 5.029,1.72c5.613,2.732 8.727,11.873 5.944,17.451c-1.385,2.777 -1.314,3.093 1.381,6.108c6.693,7.491 1.368,18.893 -10.659,22.825c-2.501,0.817 -3.083,1.626 -3.5,4.866c-0.598,4.649 -2.111,5.161 -14.669,4.965c-8.655,-0.135 -10.992,-1.114 -11.521,-4.83c-0.269,-1.887 -1.038,-2.218 -5.788,-2.487c-5.861,-0.332 -6.983,-1.183 -7.007,-5.318c-0.016,-2.852 1.393,-4.454 4.413,-5.014c2.616,-0.486 3.631,-4.705 3.453,-14.358c-0.242,-13.088 -0.629,-14.5 -3.975,-14.5c-2.225,0 -3.009,-0.56 -3.495,-2.5c-1.488,-5.926 2.176,-9.5 9.738,-9.5c2.572,0 2.851,-0.331 2.851,-3.378zM-245.06706,256.69461c-6.298,0.387 -8.199,1.28 -4.041,1.898c4.527,0.673 4.819,1.893 4.942,20.642c0.104,15.779 -0.114,16.653 -4.4,17.597c-1.168,0.258 0.079,0.763 3,1.214c2.75,0.426 5.503,1.406 6.118,2.179c0.956,1.2 1.301,1.184 2.373,-0.107c1.5,-1.807 6.128,-1.992 7.809,-0.311c0.66,0.66 1.246,2.572 1.302,4.25l0.103,3.05l0.79,-3.343c0.964,-4.079 1.492,-4.592 6.315,-6.134c4.796,-1.533 11.69,-7.972 11.69,-10.918c0,-3.059 -2.626,-7.835 -5.01,-9.111c-2.532,-1.355 -2.502,-2.383 0.177,-6.006c1.94,-2.623 2.044,-3.342 0.993,-6.849c-1.325,-4.42 -4.854,-7.232 -10.16,-8.095c-3.276,-0.532 -3.538,-0.855 -4.1,-5.056c-0.39,-2.917 -0.652,-3.502 -0.75,-1.672c-0.255,4.792 -1.86,6.684 -5.666,6.684c-3.587,0 -3.753,-0.241 -4.818,-7c-0.294,-1.867 -0.432,-1.614 -0.545,1z"/><path d="M-57.98907,-23.32339c8.813,-1.567 27.481,-0.597 34.156,1.774c11.262,4.001 18.734,10.687 19.496,17.447c1.124,9.965 -3.649,11.857 -23.261,9.223c-21.743,-2.92 -30.874,-1.942 -70.468,7.548c-18.162,4.353 -33.24,6.098 -35.257,4.081c-1.727,-1.727 3.882,-7.939 11.22,-12.427z"/><path d="M-326.75006,-5.33339c3.881,-6.292 7.236,-10.905 7.454,-10.251c0.672,2.017 -32.026,75.882 -39.51,89.252c-2.498,4.462 -2.515,4.621 -0.765,7.291l1.788,2.729l2.859,-5.005c1.572,-2.753 2.858,-5.288 2.858,-5.634c0,-1.193 6.469,-11.442 7.222,-11.442c1.127,0 0.095,9.584 -2.113,19.623c-3.334,15.152 -4.305,12.192 13.214,40.251c14.28,22.874 36.81,60.676 41.048,68.876c2.924,5.657 -0.779,3.975 -5.504,-2.5c-2.308,-3.162 -7.416,-10.025 -11.351,-15.25c-3.936,-5.225 -16.841,-23 -28.68,-39.5c-11.838,-16.5 -23.887,-33.15 -26.775,-37c-11.351,-15.132 -11.629,-18.729 -2.587,-33.5c3.199,-5.225 12.108,-20.075 19.8,-33z"/><path d="M-298.62506,0.03561c6.128,-4.512 9.017,-0.27 25.584,37.571c3.732,8.525 9.696,21.575 13.252,29c11.382,23.762 12.994,27.387 14.784,33.25c0.966,3.163 1.664,5.75 1.553,5.75c-1.055,0 -9.085,-12.409 -16.178,-25c-4.802,-8.525 -12.108,-21.125 -16.235,-28c-4.127,-6.875 -8.396,-14.5 -9.486,-16.945l-1.981,-4.445l-1.478,3.703c-1.608,4.034 -4.325,5.323 -9.174,4.353l-2.844,-0.568l3.563,10.403c3.028,8.838 3.389,10.786 2.403,12.951c-1.686,3.699 -5.474,3.388 -8.533,-0.702c-2.907,-3.886 -14.671,-31.919 -14.671,-34.959c0,-2.927 2.817,-5.791 5.695,-5.791c1.311,0 4.149,0.9 6.305,2c2.156,1.1 4.392,2 4.968,2c0.685,0 0.959,-4.007 0.79,-11.571z"/><path d="M90.10594,357.75061c11.173,-5.531 25.876,-0.743 32.517,10.588c2.262,3.859 2.74,5.881 2.772,11.716c0.033,5.922 -0.398,7.796 -2.691,11.697c-3.227,5.488 -7.676,9.463 -13.479,12.042c-2.314,1.028 -4.448,2.258 -4.741,2.733c-0.293,0.474 -1.061,5.506 -1.707,11.182c-0.964,8.479 -1.582,10.728 -3.463,12.609c-2.955,2.955 -5.858,2.902 -8.925,-0.166c-1.86,-1.859 -2.447,-3.495 -2.422,-6.75c0.053,-7.035 2.591,-25.224 3.847,-27.57c1.57,-2.934 4.881,-4.584 10.335,-5.151c0.394,-0.041 2.306,-1.471 4.25,-3.178c2.768,-2.43 3.535,-3.854 3.535,-6.565c0,-4.558 -1.388,-6.963 -5.137,-8.902c-4.098,-2.119 -7.245,-1.166 -9.801,2.97c-3.356,5.43 -8.504,6.25 -12.726,2.028c-2.062,-2.062 -2.467,-3.234 -2.035,-5.893z"/><path d="M409.59594,108.85661c1.712,-7.285 3.826,-9.499 4.774,-5c2.14,10.156 3.419,21.3 3.5,30.5c0.05,5.613 0.389,7.25 1.504,7.25c0.933,0 1.548,-1.284 1.75,-3.649c0.366,-4.303 2.865,-6.434 5.56,-4.741c1.317,0.827 1.814,2.681 2.008,7.494c0.142,3.518 -0.083,6.861 -0.5,7.429c-0.417,0.568 -3.142,2.541 -6.056,4.385l-5.297,3.352l2.236,2.381c2.19,2.33 2.21,2.571 0.955,11.438c-0.705,4.982 -1.05,9.29 -0.767,9.574c0.284,0.283 2.221,-0.644 4.306,-2.061c4.189,-2.847 5.94,-2.245 4.498,1.547c-1.147,3.018 -7.559,8.811 -9.918,8.959c-0.943,0.059 -5.99,0.201 -11.215,0.314c-5.225,0.114 -10.513,0.568 -11.75,1.009c-1.677,0.598 -2.25,0.428 -2.25,-0.668c0,-2.408 4.71,-6.755 8.04,-7.421l3.101,-0.62l-0.701,-9.888c-0.628,-8.854 -0.505,-10.104 1.174,-11.96c1.847,-2.041 1.831,-2.108 -1.119,-4.47c-1.647,-1.319 -4.458,-3.096 -6.245,-3.948c-3.465,-1.652 -3.671,-2.34 -3.283,-10.956c0.206,-4.562 2.113,-8.5 4.117,-8.5c1.974,0 3.916,3.477 3.916,7.012c0,2.129 0.359,4.092 0.798,4.363c1.984,1.226 2.964,-1.53 3.512,-9.875zM408.13894,161.28261c-0.658,1.197 -1.127,3.938 -1.043,6.091c0.084,2.152 -0.173,4.442 -0.572,5.088c-1.174,1.899 1.34,12.145 2.981,12.145c1.14,0 1.429,-1.954 1.429,-9.667c0,-5.316 0.338,-9.326 0.75,-8.91c0.412,0.416 0.789,2.404 0.837,4.417c0.307,13.006 0.452,14.16 1.773,14.16c2.457,0 3.015,-20.213 0.649,-23.5c-1.286,-1.786 -1.845,-5.484 -0.915,-6.058c0.498,-0.308 0.906,-1.039 0.906,-1.623c0,-0.751 -0.378,-0.75 -1.284,0.001c-0.813,0.676 -1.82,0.726 -2.75,0.138c-2.186,-1.383 -3.369,-1.148 -2.075,0.411zM411.36181,118.90411c0.2678,-0.18345 0.63884,-0.2975 1.04713,-0.2975c1.124,0 1.328,-0.773 0.856,-3.25c-0.862,-4.53 -1.049,-4.509 -2.332,0.254zM411.55726,120.40504l0.28668,2.20157c0.534,0 1.25,-0.45 1.59,-1c0.34,-0.55 -0.084,-1 -0.941,-1c-0.35023,0 -0.67456,-0.07515 -0.93568,-0.20157zM410.93394,119.60661c0,0.32523 0.24548,0.61551 0.62332,0.79843l-0.19545,-1.50093c-0.26414,0.18094 -0.42787,0.42939 -0.42787,0.7025z"/><path d="M128.46794,-420.04239c2.533,-1.852 21.366,-1.844 25.748,0.011c10.425,4.412 10.588,16.618 0.289,21.604c-3.559,1.723 -7.087,2.378 -14.97,2.78c-6.203,0.317 -10.554,0.139 -10.916,-0.446c-0.33,-0.535 -0.915,-5.838 -1.3,-11.785z"/><path d="M127.49794,-451.06439c2.46,-1.798 14.764,-1.552 19.667,0.393c9.261,3.674 10.185,15.1 1.669,20.625c-2.979,1.932 -19.401,2.552 -21.155,0.798c-0.559,-0.559 -1.246,-5.392 -1.526,-10.739z"/><path d="M422.53294,193.40261c4.238,-2.907 5.039,-3.191 5.753,-2.036c1.672,2.706 -6.025,11.52 -10.826,12.397c-2.061,0.376 -2.521,2.003 -3.977,14.093c-1.012,8.395 -3.034,7.577 -4.427,-1.791c-0.617,-4.147 -1.122,-8.422 -1.122,-9.5c0,-2.63 -1.295,-2.48 -2.524,0.291c-0.548,1.237 -1.78,2.188 -2.737,2.111c-1.073,-0.086 -1.739,0.567 -1.739,1.703c0,1.013 -0.532,3.01 -1.183,4.438c-0.897,1.97 -1.802,2.524 -3.75,2.297c-2.471,-0.288 -2.571,-0.561 -2.676,-7.299c-0.064,-4.131 0.417,-7.861 1.175,-9.101c2.332,-3.814 7.67,-5.522 16.284,-5.211z"/><path d="M-237.86606,278.80661c1.718,-1.718 14.258,-1.532 17.728,0.263c4.158,2.15 5.302,6.742 2.962,11.88c-1.587,3.482 -4.949,4.657 -13.33,4.657c-5.776,0 -7.476,-0.338 -7.953,-1.582zM-234.56606,291.10661l4.837,0.308c5.482,0.35 9.663,-1.71 9.663,-4.76c0,-3.532 -2.741,-5.048 -9.126,-5.048h-5.984z"/><path d="M-238.03106,260.54061c0.861,-1.608 2.133,-1.934 7.546,-1.934c5.578,0 6.861,0.351 8.964,2.455c3.026,3.025 3.27,8.319 0.539,11.684c-1.672,2.06 -2.737,2.35 -8.359,2.272c-9.381,-0.129 -9.725,-0.375 -9.725,-6.945zM-233.31606,270.92061c0.413,0.238 2.775,0.152 5.25,-0.191c3.712,-0.514 4.557,-1.027 4.827,-2.928c0.502,-3.541 -1.552,-5.195 -6.449,-5.195h-4.378v3.941z"/><path d="M-12.06306,87.6066c-1.078,-2.149 -0.736,-2.009 2.436,1c5.11,4.846 8.965,10.929 12.259,19.343c2.61,6.666 2.798,8.117 2.743,21.157c-0.053,12.799 -0.298,14.643 -2.857,21.5c-3.614,9.682 -7.959,17.882 -11.725,22.125c-3.331,3.753 -2.9,2.426 1.177,-3.625c11.553,-17.146 15.044,-37.647 9.434,-55.405c-2.331,-7.379 -7.829,-18.502 -10.922,-22.095z"/><path d="M189.45194,162.37444l0.02446,5.99022c-7.36758,-13.29174 -9.9762,-24.9168 -9.26546,-40.22306c0.627,-13.531 2.483,-20.53 7.733,-29.172c0.45435,-0.74773 0.86845,-1.45182 1.24047,-2.10542l0.02393,5.85988c-1.71387,3.21812 -2.61084,5.82809 -4.1224,10.89955c-4.87327,16.34599 -3.09554,33.90292 4.366,48.75083z"/><path d="M250.93394,60.54561c0,-2.449 15.984,0.164 25.669,4.196c3.998,1.664 9.156,4.293 11.461,5.841c6.218,4.176 16.202,14.451 18.737,19.284c1.365,2.601 1.534,3.274 0.438,1.74c-11.711,-16.383 -29.656,-26.652 -51.555,-29.504z"/><path d="M-1.65606,4.56361c3.078,-4.652 3.59,-4.845 3.59,-1.357c0,4.267 -5.548,8.961 -11.5,9.731c-5.295,0.684 -14.895,-1.256 -16.899,-3.416c-0.837,-0.902 -0.502,-1.033 1.399,-0.543c1.375,0.354 5.02,0.922 8.101,1.262z"/><path d="M88.68694,441.9966c4.292,-3.258 10.58,0.012 10.58,5.502c0,4.139 -2.37,6.44 -6.515,6.322z"/><path d="M-121.26706,173.10661l3.556,5l-3.754,-3.5c-4.849,-4.519 -10.229,-14.159 -13.3,-23.83l-0.66006,-14.72187c1.31022,12.23782 6.49956,26.28355 14.15806,37.05187z"/><path d="M186.93394,3.47061c0,-3.651 0.562,-3.611 2.523,0.18c3.213,6.214 11.344,8.509 20.821,5.878c4.938,-1.372 5.993,-0.377 1.56,1.47c-5.353,2.23 -12.35,2.946 -16.241,1.662z"/><path d="M192.37194,173.28761c3.863,6.228 1.249,6.324 -2.875,0.106l-0.02054,-5.02894c0.89422,1.61324 1.85854,3.25104 2.89554,4.92294z"/><path d="M-136.11106,120.75561c1.648,-6.094 2.253,-4.643 0.967,2.318c-0.34852,1.88529 -0.54327,3.90127 -0.59339,6.01493z"/><path d="M189.17394,94.29861c3.2671,-4.63594 2.96851,-2.63128 0.01048,2.56557z"/><path d="M-135.42512,136.05474c-0.25746,-2.40473 -0.36514,-4.73967 -0.31233,-6.96621z"/></g></g></svg>