<svg version="1.1" xmlns="http://www.w3.org/2000/svg" xmlns:xlink="http://www.w3.org/1999/xlink" width="17.67209" height="57.50107" viewBox="0,0,17.67209,57.50107"><g transform="translate(-404.62256,-30.16223)"><g data-paper-data="{&quot;isPaintingLayer&quot;:true}" fill-rule="nonzero" stroke="none" stroke-width="0.5" stroke-linecap="butt" stroke-linejoin="miter" stroke-miterlimit="10" stroke-dasharray="" stroke-dashoffset="0" style="mix-blend-mode: normal"><g data-paper-data="{&quot;index&quot;:null}"><g data-paper-data="{&quot;index&quot;:null}"><path d="M416.58113,82.4383v-0.44317c0.00661,-2.94389 0.4222,-5.8685 0.00185,-8.81093c-0.00627,-2.79353 0.22312,-5.6852 -0.32046,-8.4413c-0.12147,-0.61589 -0.32249,-1.47903 -0.79461,-1.94642c-0.14411,-0.14267 -0.34994,-0.2064 -0.51324,-0.32664c-0.09665,-0.07117 -0.31585,-0.2528 -0.33414,-0.13417c-0.18341,1.1889 -0.10746,2.43833 -0.1093,3.64066c-0.1703,1.36234 -0.1296,2.7391 -0.22201,4.10573c-0.31362,4.63777 -0.36095,9.29722 0.2169,13.92009c0.02108,0.14756 0.01788,1.45364 0.32623,1.52083c0.48565,0.10581 0.99303,-0.05653 1.49007,-0.05621c1.05773,0.00069 2.24235,0.00818 3.28052,-0.20534c0.20974,-0.04314 0.42178,-0.08766 0.6196,-0.16962c1.628,-0.67462 -0.4948,-1.43538 -1.11162,-1.61112c-0.48083,-0.13699 -0.96618,-0.25832 -1.45359,-0.37002c-0.09058,0.04096 -0.20163,0.06606 -0.33779,0.06606c-0.73842,0 -0.73842,-0.73842 -0.73842,-0.73842zM420.33668,82.29649c1.47835,0.5474 2.70616,1.99659 1.41412,3.51106c-1.14192,1.33851 -3.86208,1.13508 -5.42838,1.13606c-0.18575,0.00012 -1.90277,0.01751 -2.05524,-0.05621c-1.17313,-0.56721 -1.0727,-1.62396 -1.22484,-2.68923c-0.59071,-4.72565 -0.53753,-9.48005 -0.22626,-14.22082c0.08944,-1.36228 0.05142,-2.73488 0.22115,-4.0928c-0.00185,-1.09082 -0.07324,-2.19298 0.11678,-3.27149c0.06285,-0.35674 -0.0073,-0.78043 0.21708,-1.06481c1.56185,-1.97952 3.58832,0.42592 4.09427,1.93062c1.00303,2.98304 0.5987,6.50187 0.59074,9.60063c0.41073,2.87516 0.02308,5.7322 0.00259,8.60595c0.76345,0.16763 1.55084,0.34178 2.27799,0.61103z" data-paper-data="{&quot;index&quot;:null}" fill="#4e4e4e"/><path d="M417.31974,83.16195c0.13616,0 0.24667,-0.0251 0.33725,-0.06606c0.4874,0.11171 0.97056,0.23325 1.4514,0.37024c0.61682,0.17573 2.74573,0.96538 1.11773,1.64c-0.19782,0.08197 -0.41066,0.12666 -0.6204,0.1698c-1.03817,0.21352 -2.22697,0.20622 -3.28471,0.20554c-0.49704,-0.00033 -1.00624,0.16173 -1.49189,0.05592c-0.30835,-0.06719 -0.30603,-1.3735 -0.32712,-1.52106c-0.57786,-4.62288 -0.53575,-9.30792 -0.22214,-13.94569c0.09241,-1.36663 0.05598,-2.74582 0.22627,-4.10816c0.00184,-1.20232 -0.07249,-2.45225 0.11091,-3.64115c0.0183,-0.11862 0.23785,0.06292 0.33451,0.13409c0.1633,0.12024 0.36968,0.18387 0.51379,0.32653c0.47212,0.46738 0.6776,1.35972 0.79907,1.97561c0.54358,2.7561 0.32348,5.64278 0.32975,8.43632c0.42035,2.94243 -0.00485,5.8427 -0.01146,8.78658l-0.00008,0.44315c0,0 -0.00129,0.73835 0.73713,0.73835z" data-paper-data="{&quot;noHover&quot;:false,&quot;origItem&quot;:[&quot;Path&quot;,{&quot;applyMatrix&quot;:true,&quot;segments&quot;:[[386.45029,689.05383],[[386.45029,686.05308],[0,0],[0.04473,-19.93365]],[[386.46286,626.39253],[2.84625,19.92377],[-0.04245,-18.91557]],[[384.29298,569.23481],[3.68067,18.66211],[-0.82249,-4.17029]],[[378.9125,556.05523],[3.19679,3.16476],[-0.97581,-0.96604]],[[375.43728,553.8435],[1.10571,0.81416],[-0.65445,-0.48189]],[[373.17469,552.935],[0.12391,-0.80322],[-1.24187,8.05023]],[[372.43462,577.58658],[0.01246,-8.14114],[-1.15309,9.22469]],[[370.93133,605.38727],[0.62575,-9.2537],[-2.12356,31.40327]],[[372.40004,699.64298],[-3.9128,-31.30241],[0.14277,0.99913]],[[374.60901,709.94081],[-2.08791,-0.45491],[3.28844,0.71647]],[[384.6986,709.56021],[-3.36559,-0.0022],[7.16214,0.00467]],[[406.91163,708.16978],[-7.02964,1.44582],[1.42021,-0.2921]],[[411.10706,707.02122],[-1.33949,0.55506],[11.02351,-4.56796]],[[403.58006,696.11202],[4.17659,1.18995],[-3.25577,-0.9276]],[[393.73752,693.60652],[3.30032,0.75641],[-0.6133,0.27731]],[[391.45029,694.05383],[0.92196,0],[-5,0]]],&quot;closed&quot;:true}]}" fill="#000000"/></g><g data-paper-data="{&quot;index&quot;:null}"><path d="M413.21258,83.14748v-0.44317c0.00661,-2.94389 0.4222,-5.8685 0.00185,-8.81093c-0.00627,-2.79353 0.22312,-5.6852 -0.32046,-8.4413c-0.12147,-0.61589 -0.32249,-1.47903 -0.79461,-1.94642c-0.14411,-0.14267 -0.34994,-0.2064 -0.51324,-0.32664c-0.09665,-0.07117 -0.31585,-0.2528 -0.33414,-0.13417c-0.18341,1.1889 -0.10746,2.43833 -0.1093,3.64066c-0.1703,1.36234 -0.1296,2.7391 -0.22201,4.10573c-0.31362,4.63777 -0.36095,9.29722 0.2169,13.92009c0.02108,0.14756 0.01788,1.45364 0.32623,1.52083c0.48565,0.10581 0.99303,-0.05653 1.49007,-0.05621c1.05773,0.00069 2.24235,0.00818 3.28052,-0.20534c0.20974,-0.04314 0.42178,-0.08766 0.6196,-0.16962c1.628,-0.67462 -0.4948,-1.43538 -1.11162,-1.61112c-0.48083,-0.13699 -0.96618,-0.25832 -1.45359,-0.37002c-0.09058,0.04096 -0.20163,0.06606 -0.33779,0.06606c-0.73842,0 -0.73842,-0.73842 -0.73842,-0.73842zM416.96813,83.00567c1.47835,0.5474 2.70616,1.99659 1.41412,3.51106c-1.14192,1.33851 -3.86208,1.13508 -5.42838,1.13606c-0.18575,0.00012 -1.90277,0.01751 -2.05524,-0.05621c-1.17313,-0.56721 -1.0727,-1.62396 -1.22484,-2.68923c-0.59071,-4.72565 -0.53753,-9.48005 -0.22626,-14.22082c0.08944,-1.36228 0.05142,-2.73488 0.22115,-4.0928c-0.00185,-1.09082 -0.07324,-2.19298 0.11678,-3.27149c0.06285,-0.35674 -0.0073,-0.78043 0.21708,-1.06481c1.56185,-1.97952 3.58832,0.42592 4.09427,1.93062c1.00303,2.98304 0.5987,6.50187 0.59074,9.60063c0.41073,2.87516 0.02308,5.7322 0.00259,8.60595c0.76345,0.16763 1.55084,0.34178 2.27799,0.61103z" data-paper-data="{&quot;index&quot;:null}" fill="#4e4e4e"/><path d="M413.95119,83.87112c0.13616,0 0.24667,-0.0251 0.33725,-0.06606c0.4874,0.11171 0.97056,0.23325 1.4514,0.37024c0.61682,0.17573 2.74573,0.96538 1.11773,1.64c-0.19782,0.08197 -0.41066,0.12666 -0.6204,0.1698c-1.03817,0.21352 -2.22697,0.20622 -3.28471,0.20554c-0.49704,-0.00033 -1.00624,0.16173 -1.49189,0.05592c-0.30835,-0.06719 -0.30603,-1.3735 -0.32712,-1.52106c-0.57786,-4.62288 -0.53575,-9.30792 -0.22214,-13.94569c0.09241,-1.36663 0.05598,-2.74582 0.22627,-4.10816c0.00184,-1.20232 -0.07249,-2.45225 0.11091,-3.64115c0.0183,-0.11862 0.23785,0.06292 0.33451,0.13409c0.1633,0.12024 0.36968,0.18387 0.51379,0.32653c0.47212,0.46738 0.6776,1.35972 0.79907,1.97561c0.54358,2.7561 0.32348,5.64278 0.32975,8.43632c0.42035,2.94243 -0.00485,5.8427 -0.01146,8.78658l-0.00008,0.44315c0,0 -0.00129,0.73835 0.73713,0.73835z" data-paper-data="{&quot;noHover&quot;:false,&quot;origItem&quot;:[&quot;Path&quot;,{&quot;applyMatrix&quot;:true,&quot;segments&quot;:[[386.45029,689.05383],[[386.45029,686.05308],[0,0],[0.04473,-19.93365]],[[386.46286,626.39253],[2.84625,19.92377],[-0.04245,-18.91557]],[[384.29298,569.23481],[3.68067,18.66211],[-0.82249,-4.17029]],[[378.9125,556.05523],[3.19679,3.16476],[-0.97581,-0.96604]],[[375.43728,553.8435],[1.10571,0.81416],[-0.65445,-0.48189]],[[373.17469,552.935],[0.12391,-0.80322],[-1.24187,8.05023]],[[372.43462,577.58658],[0.01246,-8.14114],[-1.15309,9.22469]],[[370.93133,605.38727],[0.62575,-9.2537],[-2.12356,31.40327]],[[372.40004,699.64298],[-3.9128,-31.30241],[0.14277,0.99913]],[[374.60901,709.94081],[-2.08791,-0.45491],[3.28844,0.71647]],[[384.6986,709.56021],[-3.36559,-0.0022],[7.16214,0.00467]],[[406.91163,708.16978],[-7.02964,1.44582],[1.42021,-0.2921]],[[411.10706,707.02122],[-1.33949,0.55506],[11.02351,-4.56796]],[[403.58006,696.11202],[4.17659,1.18995],[-3.25577,-0.9276]],[[393.73752,693.60652],[3.30032,0.75641],[-0.6133,0.27731]],[[391.45029,694.05383],[0.92196,0],[-5,0]]],&quot;closed&quot;:true}]}" fill="#000000"/></g><g data-paper-data="{&quot;index&quot;:null}"><g><g><g><path d="M418.22041,34.70204c0.07521,0.21818 0.13278,0.43115 0.16979,0.63283c0.12793,0.69704 0.0423,1.41886 0.1302,2.12207c0.00049,1.39547 0.39987,2.69097 0.47911,4.0724c0.09453,1.64802 0.22204,3.34698 0.11978,5.0026c-0.21705,3.51416 -0.62185,7.05035 -0.1202,10.56188c0.00343,1.64276 0.50876,4.11226 -0.69353,5.36555c-1.86563,1.94476 -5.64205,1.41405 -8.06806,1.41405c-1.1107,0 -2.06944,0.24325 -2.86339,-0.77037c-0.70104,-0.89501 -0.6284,-2.14682 -0.62989,-3.20202c0,-3.74531 0.12486,-7.4568 0.36075,-11.18509c0.14841,-2.34565 -0.12425,-4.68218 -0.21386,-7.02389c-0.0159,-0.00185 -0.03199,-0.00371 -0.04826,-0.00558c0.06361,-0.28642 0.09734,-0.60492 0.09734,-0.96232c0,-2.59728 0.1133,-5.67781 1.54037,-7.98878c0.3454,-0.55933 1.20681,-0.78764 1.74298,-1.09724c0.57669,-0.333 1.65029,-0.9542 2.35828,-0.9999c0.8454,-0.05457 1.75393,0.80986 2.4186,1.26052c1.18096,0.80071 2.24491,1.74863 3.22001,2.80331zM410.16075,60.90227c-0.52214,0.52214 -1.04429,0 -1.04429,0l-0.29847,-0.30486c-0.00154,-0.00131 -0.00308,-0.00262 -0.00461,-0.00393c-0.10886,0.0963 -0.26587,0.16574 -0.49231,0.16574c-0.0423,0 -0.08218,-0.00243 -0.11978,-0.007c0.00378,0.71015 0.09593,1.5737 0.60375,1.68596c0.63954,0.14139 1.60859,-0.04163 2.27088,-0.04163c1.84655,0 4.69979,0.38201 6.18534,-0.98149c0.49282,-0.45233 0.26283,-1.11833 0.26283,-1.7536c0,-0.82099 -0.00008,-1.64197 0.00186,-2.46296c-0.51051,-3.57357 -0.10693,-7.18196 0.11935,-10.75833c0.1009,-1.59477 -0.03462,-3.23134 -0.11978,-4.81907c-0.07394,-1.3785 -0.47961,-2.67671 -0.47911,-4.0724c-0.19269,-1.54149 -0.1459,-3.63964 -1.7828,-4.5537c-0.06958,-0.03885 -0.14154,-0.07171 -0.2153,-0.10006c0,0.10633 0,0.21266 0,0.31899c-0.21979,-0.37986 -0.44019,-0.75737 -0.83518,-0.82565c-0.42883,-0.07413 -0.76951,-0.05021 -1.09205,-0.00036c-0.00622,-0.00177 -0.01244,-0.00353 -0.01865,-0.00529c0.00066,0.00264 0.0013,0.00527 0.00193,0.0079c-0.16189,0.02552 -0.31951,0.05727 -0.48174,0.08611c-0.29214,0.05192 -0.64128,-0.06214 -0.94253,-0.06588c0.01919,-0.07259 0.05452,-0.17207 0.11796,-0.26699c-0.95481,-0.04875 -1.79783,0.26789 -2.3374,1.37734c-0.33796,0.69489 -0.6153,0.88004 -0.31927,1.59223c0,0 0.22486,0.67457 -0.42869,0.92046c-0.1977,1.43646 -0.37443,2.90747 -0.37185,4.34366c0,2.81415 0.41214,5.61289 0.23813,8.43023c-0.15605,2.5266 -0.26593,5.04458 -0.31988,7.57108c0.02886,-0.00525 0.05802,-0.00942 0.08745,-0.01262l-0.01011,-0.07077l0.82586,-0.11798c0.03811,-0.00607 0.07718,-0.00922 0.117,-0.00922c0.09777,0 0.1911,0.019 0.2765,0.05351c0.11948,-0.06608 0.24137,-0.10909 0.37279,-0.14088c0.18435,-0.39174 0.66825,-0.39174 0.66825,-0.39174c1.79488,0 4.90186,-0.19801 5.28039,2.17723c0.0634,0.39784 0.11606,0.83445 -0.03457,1.2081c-0.69236,1.71748 -2.79303,1.56524 -4.28761,1.56503c-0.27058,-0.00004 -0.74492,0.01464 -1.20717,-0.00982c-0.03575,0.08899 -0.09528,0.18082 -0.18711,0.27265zM412.00279,57.1651c-0.21811,0.24037 -0.56754,0.24037 -0.56754,0.24037l-0.37468,-0.00742c-0.97858,0.10016 -1.12643,0.39551 -1.05796,1.39628c0.00921,0.13465 -0.03687,0.32939 0.08,0.39689c0.42509,0.24551 0.98151,-0.02856 1.47241,-0.02863c0.60708,-0.0001 2.6173,0.25536 2.89898,-0.59095c0.19481,-0.58531 -0.20432,-0.93245 -0.67036,-1.10433c-0.58357,-0.21522 -1.17887,-0.28355 -1.78086,-0.30222z" fill="#4e4e4e"/><path d="M411.99949,57.1507c0.60199,0.01867 1.21382,0.09484 1.79739,0.31006c0.46604,0.17188 0.86653,0.52784 0.67172,1.11315c-0.28168,0.84631 -2.31529,0.60046 -2.92236,0.60055c-0.49089,0.00008 -1.05202,0.26828 -1.47711,0.02276c-0.11687,-0.0675 -0.07162,-0.26464 -0.08083,-0.39928c-0.06847,-1.00077 0.0816,-1.30821 1.06018,-1.40836l0.37641,0.00537c0,0 0.35649,-0.00387 0.57461,-0.24424z" data-paper-data="{&quot;noHover&quot;:false,&quot;origItem&quot;:[&quot;Path&quot;,{&quot;applyMatrix&quot;:true,&quot;segments&quot;:[[[358.86813,523.3342],[4.07617,0.12642],[-1.47688,1.62759]],[355.02522,524.96179],[[352.48821,524.91154],[0,0],[-6.62617,0.67818]],[[345.32457,534.36604],[-0.4636,-6.77645],[0.06237,0.9117]],[[345.86628,537.05347],[-0.79133,-0.45704],[2.87836,1.66243]],[[355.83625,536.85961],[-3.32395,0.00051],[4.11062,-0.00063]],[[375.46579,532.85821],[-1.90729,5.73051],[1.31908,-3.96322]],[[370.92667,525.38061],[3.15563,1.16381],[-3.95145,-1.45731]]],&quot;closed&quot;:true}]}" fill="#ffffff"/><path d="" data-paper-data="{&quot;noHover&quot;:false,&quot;origItem&quot;:[&quot;Path&quot;,{&quot;applyMatrix&quot;:true,&quot;segments&quot;:[[[338.44262,342.45984],[2.66651,0.38866],[-2.91538,1.07796]],[[329.54887,345.2624],[2.83772,-1.26839],[-13.54673,6.05504]],[[310.44244,380.69638],[2.74258,-12.52637],[-1.46397,6.68648]],[[316.19833,406.97442],[-7.33565,-3.98544],[1.30721,0.71021]],[[324.07919,408.49777],[-2.65476,-0.29848],[0.11576,-11.30057]],[[327.32896,374.43298],[-1.62098,11.16043],[0,0]],[327.31638,369.11021],[[329.10876,365.12552],[-1.79238,1.46154],[2.58323,-8.19254]],[[345.6743,345.084],[-6.73172,2.80644],[-2.28966,-1.16404]]],&quot;closed&quot;:true}]}" fill="#ffffff"/><path d="M410.35067,60.61512c0.46226,0.02446 0.9353,0.00959 1.20587,0.00963c1.49459,0.00021 3.59019,0.15279 4.28255,-1.56468c0.15063,-0.37364 0.10547,-0.78169 0.04207,-1.17953c-0.37854,-2.37524 -3.49345,-2.17724 -5.28833,-2.17724c0,0 -0.48473,-0.00026 -0.66908,0.39148c-0.13141,0.03178 -0.25376,0.07463 -0.37323,0.14071c-0.0854,-0.03451 -0.17912,-0.05367 -0.2769,-0.05367c-0.03982,0 -0.07905,0.00309 -0.11715,0.00916l-0.82681,0.11754l0.01016,0.07079c-0.02943,0.0032 -0.05868,0.00733 -0.08754,0.01258c0.05396,-2.52651 0.15663,-5.05282 0.31269,-7.57942c0.17402,-2.81735 -0.23231,-5.63317 -0.23231,-8.44732c-0.00259,-1.4362 0.17713,-2.90873 0.37483,-4.34519c0.65355,-0.24588 0.42949,-0.92073 0.42949,-0.92073c-0.29603,-0.71219 -0.01792,-0.89756 0.32004,-1.59245c0.53958,-1.10944 1.3851,-1.42649 2.33991,-1.37774c-0.0631,0.09442 -0.09772,0.20151 -0.11636,0.28173c-0.16722,-0.00214 -0.31971,0.02966 -0.43953,0.14263c-2.15634,2.03307 -1.05282,2.86122 -0.99485,5.10979c0.01879,0.72872 -0.15565,1.50415 -0.21147,2.26656c-0.02282,0.14798 -0.03467,0.29957 -0.03467,0.45395c0,0.24866 0.03073,0.49014 0.08859,0.72086c0.05397,0.25837 0.14295,0.51124 0.28062,0.75598c0.06437,0.11443 0.14188,0.21582 0.22991,0.30676c0.57723,0.59626 1.60707,0.74295 2.35457,1.17009l2.54553,-1.45459c0.32291,-0.18452 0.48525,-1.80993 0.59276,-2.29905c0.13039,-0.59323 -0.03215,-5.09071 -0.67867,-5.82049c-0.13848,-0.15632 -0.25268,-0.35513 -0.3672,-0.55303c0,-0.10022 0.00001,-0.20045 0.00001,-0.30067c0.07376,0.02835 0.15022,0.03202 0.2198,0.07088c1.6369,0.91406 1.59347,3.01317 1.78616,4.55466c-0.0005,1.39569 0.40871,2.69602 0.48264,4.07451c0.08516,1.58772 0.22594,3.2331 0.12504,4.82787c-0.22628,3.57637 -0.63816,7.20085 -0.12765,10.77443c-0.00194,0.82099 -0.00293,1.64242 -0.00293,2.46341c0,0.63528 0.22918,1.30155 -0.26364,1.75388c-1.48555,1.3635 -4.34493,0.98202 -6.19148,0.98202c-0.66229,0 -1.63343,0.1826 -2.27297,0.04121c-0.50783,-0.11226 -0.601,-0.97613 -0.60477,-1.68628c0.0376,0.00457 0.08719,-0.0209 0.12949,-0.0209c0.22645,0 0.38304,-0.06958 0.4919,-0.16588c0.00154,0.00131 0.00307,0.00262 0.0046,0.00393l0.2981,0.30475c0,0 0.52111,0.52189 1.04325,-0.00026c0.09183,-0.09183 0.15122,-0.18368 0.18697,-0.27267z" data-paper-data="{&quot;noHover&quot;:false,&quot;origItem&quot;:[&quot;Path&quot;,{&quot;applyMatrix&quot;:true,&quot;segments&quot;:[[[346.39531,548.63926],[0.62179,-0.62179],[-3.53553,3.53553]],[339.32424,548.63926],[[337.30321,546.57498],[0,0],[-0.01041,-0.00887]],[[337.27199,546.54836],[0.0104,0.00888],[-0.73709,0.65205]],[[333.93844,547.67064],[1.53334,0],[-0.28644,0]],[[333.12741,547.62329],[0.25456,0.03094],[0.02559,4.80858]],[[337.21554,559.03927],[-3.43859,-0.76019],[4.33046,0.95736]],[[352.59213,558.75742],[-4.48449,0],[12.50333,0]],[[394.47428,552.11158],[-10.05894,9.23254],[3.33699,-3.06283]],[[396.25393,540.23755],[0,4.3016],[0,-5.5591]],[[396.26651,523.56036],[-0.01314,5.55908],[-3.45677,-24.19739]],[[397.07462,450.71356],[-1.53217,24.21631],[0.68322,-10.79851]],[[396.26359,418.0827],[0.57662,10.7508],[-0.50063,-9.33407]],[[393.01947,390.50768],[-0.00337,9.4505],[-1.30472,-10.43773]],[[380.94778,359.6737],[11.08375,6.18927],[-0.47114,-0.26309]],[[379.48994,358.99615],[0.49945,0.19197],[0,10.94097]],[[379.48994,391.81905],[0,-10.94097],[0,0]],[379.48994,392.63008],[[374.48994,397.63008],[5,0],[-5,0]],[[369.48994,392.63008],[0,0],[0,-11.62476]],[[369.48994,356.94476],[0,11.62476],[0,0]],[[369.52027,356.5065],[-0.03033,0.27196],[-1.07005,-0.34818]],[[366.314,355.5272],[1.06586,0.3011],[0.26145,1.04712]],[[366.48865,357.44228],[0,0],[-1.12554,11.16678]],[[365.70243,391.00802],[0,-11.21704],[0,0]],[365.70243,392.63008],[[360.70243,397.63008],[5,0],[-5,0]],[355.70243,392.63008],[[355.70243,391.00802],[0,0],[0,-11.55476]],[[356.53828,356.44724],[-1.14201,11.50594],[0,0]],[[357.48175,353.90977],[-0.81108,1.21362],[-6.46521,-0.33011]],[[341.6547,363.23598],[3.65359,-7.5123],[-2.28839,4.70525]],[[339.49289,374.01731],[-2.0045,-4.82238],[0,0]],[[336.59012,380.24991],[4.42532,-1.66491],[-1.33864,9.72654]],[[334.07226,409.66171],[-0.01751,-9.72475],[0,19.05517]],[[335.68466,466.7445],[1.17829,-19.07679],[-1.0567,17.10812]],[[333.51866,518.00978],[0.36534,-17.10746],[0.19544,-0.03554]],[[334.11082,517.9243],[-0.19927,0.02168],[0,0]],[334.04237,517.44514],[[339.63443,516.64627],[0,0],[0.25804,-0.04108]],[[340.42668,516.58385],[-0.2696,0],[0.66201,0]],[[342.29891,516.94618],[-0.57827,-0.23367],[0.80901,-0.44746]],[[344.82312,515.99226],[-0.88983,0.21525],[1.24824,-2.65253]],[[349.34801,513.33973],[0,0],[12.15349,0]],[[385.10259,528.08221],[-2.56313,-16.08322],[0.42931,2.69387]],[[384.86851,536.26246],[1.01992,-2.53002],[-4.68809,11.62938]],[[355.83625,546.85961],[10.12013,0.00142],[-1.83212,-0.00026]],[[347.66225,546.79312],[3.13001,0.16559],[-0.24207,0.60256]]],&quot;closed&quot;:true}]}" fill="#000000"/><path d="M413.10258,32.36785c0.01745,0.00493 0.0349,0.00991 0.05237,0.01494c-0.01576,0.00233 -0.03147,0.00473 -0.04714,0.00719c-0.00163,-0.00731 -0.00337,-0.01469 -0.00523,-0.02213z" data-paper-data="{&quot;noHover&quot;:false,&quot;origItem&quot;:[&quot;Path&quot;,{&quot;applyMatrix&quot;:true,&quot;segments&quot;:[[[346.39531,548.63926],[0.62179,-0.62179],[-3.53553,3.53553]],[339.32424,548.63926],[[337.30321,546.57498],[0,0],[-0.01041,-0.00887]],[[337.27199,546.54836],[0.0104,0.00888],[-0.73709,0.65205]],[[333.93844,547.67064],[1.53334,0],[-0.28644,0]],[[333.12741,547.62329],[0.25456,0.03094],[0.02559,4.80858]],[[337.21554,559.03927],[-3.43859,-0.76019],[4.33046,0.95736]],[[352.59213,558.75742],[-4.48449,0],[12.50333,0]],[[394.47428,552.11158],[-10.05894,9.23254],[3.33699,-3.06283]],[[396.25393,540.23755],[0,4.3016],[0,-5.5591]],[[396.26651,523.56036],[-0.01314,5.55908],[-3.45677,-24.19739]],[[397.07462,450.71356],[-1.53217,24.21631],[0.68322,-10.79851]],[[396.26359,418.0827],[0.57662,10.7508],[-0.50063,-9.33407]],[[393.01947,390.50768],[-0.00337,9.4505],[-1.30472,-10.43773]],[[380.94778,359.6737],[11.08375,6.18927],[-0.47114,-0.26309]],[[379.48994,358.99615],[0.49945,0.19197],[0,10.94097]],[[379.48994,391.81905],[0,-10.94097],[0,0]],[379.48994,392.63008],[[374.48994,397.63008],[5,0],[-5,0]],[[369.48994,392.63008],[0,0],[0,-11.62476]],[[369.48994,356.94476],[0,11.62476],[0,0]],[[369.52027,356.5065],[-0.03033,0.27196],[-1.07005,-0.34818]],[[366.314,355.5272],[1.06586,0.3011],[0.26145,1.04712]],[[366.48865,357.44228],[0,0],[-1.12554,11.16678]],[[365.70243,391.00802],[0,-11.21704],[0,0]],[365.70243,392.63008],[[360.70243,397.63008],[5,0],[-5,0]],[355.70243,392.63008],[[355.70243,391.00802],[0,0],[0,-11.55476]],[[356.53828,356.44724],[-1.14201,11.50594],[0,0]],[[357.48175,353.90977],[-0.81108,1.21362],[-6.46521,-0.33011]],[[341.6547,363.23598],[3.65359,-7.5123],[-2.28839,4.70525]],[[339.49289,374.01731],[-2.0045,-4.82238],[0,0]],[[336.59012,380.24991],[4.42532,-1.66491],[-1.33864,9.72654]],[[334.07226,409.66171],[-0.01751,-9.72475],[0,19.05517]],[[335.68466,466.7445],[1.17829,-19.07679],[-1.0567,17.10812]],[[333.51866,518.00978],[0.36534,-17.10746],[0.19544,-0.03554]],[[334.11082,517.9243],[-0.19927,0.02168],[0,0]],[334.04237,517.44514],[[339.63443,516.64627],[0,0],[0.25804,-0.04108]],[[340.42668,516.58385],[-0.2696,0],[0.66201,0]],[[342.29891,516.94618],[-0.57827,-0.23367],[0.80901,-0.44746]],[[344.82312,515.99226],[-0.88983,0.21525],[1.24824,-2.65253]],[[349.34801,513.33973],[0,0],[12.15349,0]],[[385.10259,528.08221],[-2.56313,-16.08322],[0.42931,2.69387]],[[384.86851,536.26246],[1.01992,-2.53002],[-4.68809,11.62938]],[[355.83625,546.85961],[10.12013,0.00142],[-1.83212,-0.00026]],[[347.66225,546.79312],[3.13001,0.16559],[-0.24207,0.60256]]],&quot;closed&quot;:true}]}" fill="#ffffff"/><path d="M410.35068,60.61512c0.00001,0 0.00001,0 0.00001,0v0z" data-paper-data="{&quot;noHover&quot;:false,&quot;origItem&quot;:[&quot;Path&quot;,{&quot;applyMatrix&quot;:true,&quot;segments&quot;:[[[346.39531,548.63926],[0.62179,-0.62179],[-3.53553,3.53553]],[339.32424,548.63926],[[337.30321,546.57498],[0,0],[-0.01041,-0.00887]],[[337.27199,546.54836],[0.0104,0.00888],[-0.73709,0.65205]],[[333.93844,547.67064],[1.53334,0],[-0.28644,0]],[[333.12741,547.62329],[0.25456,0.03094],[0.02559,4.80858]],[[337.21554,559.03927],[-3.43859,-0.76019],[4.33046,0.95736]],[[352.59213,558.75742],[-4.48449,0],[12.50333,0]],[[394.47428,552.11158],[-10.05894,9.23254],[3.33699,-3.06283]],[[396.25393,540.23755],[0,4.3016],[0,-5.5591]],[[396.26651,523.56036],[-0.01314,5.55908],[-3.45677,-24.19739]],[[397.07462,450.71356],[-1.53217,24.21631],[0.68322,-10.79851]],[[396.26359,418.0827],[0.57662,10.7508],[-0.50063,-9.33407]],[[393.01947,390.50768],[-0.00337,9.4505],[-1.30472,-10.43773]],[[380.94778,359.6737],[11.08375,6.18927],[-0.47114,-0.26309]],[[379.48994,358.99615],[0.49945,0.19197],[0,10.94097]],[[379.48994,391.81905],[0,-10.94097],[0,0]],[379.48994,392.63008],[[374.48994,397.63008],[5,0],[-5,0]],[[369.48994,392.63008],[0,0],[0,-11.62476]],[[369.48994,356.94476],[0,11.62476],[0,0]],[[369.52027,356.5065],[-0.03033,0.27196],[-1.07005,-0.34818]],[[366.314,355.5272],[1.06586,0.3011],[0.26145,1.04712]],[[366.48865,357.44228],[0,0],[-1.12554,11.16678]],[[365.70243,391.00802],[0,-11.21704],[0,0]],[365.70243,392.63008],[[360.70243,397.63008],[5,0],[-5,0]],[355.70243,392.63008],[[355.70243,391.00802],[0,0],[0,-11.55476]],[[356.53828,356.44724],[-1.14201,11.50594],[0,0]],[[357.48175,353.90977],[-0.81108,1.21362],[-6.46521,-0.33011]],[[341.6547,363.23598],[3.65359,-7.5123],[-2.28839,4.70525]],[[339.49289,374.01731],[-2.0045,-4.82238],[0,0]],[[336.59012,380.24991],[4.42532,-1.66491],[-1.33864,9.72654]],[[334.07226,409.66171],[-0.01751,-9.72475],[0,19.05517]],[[335.68466,466.7445],[1.17829,-19.07679],[-1.0567,17.10812]],[[333.51866,518.00978],[0.36534,-17.10746],[0.19544,-0.03554]],[[334.11082,517.9243],[-0.19927,0.02168],[0,0]],[334.04237,517.44514],[[339.63443,516.64627],[0,0],[0.25804,-0.04108]],[[340.42668,516.58385],[-0.2696,0],[0.66201,0]],[[342.29891,516.94618],[-0.57827,-0.23367],[0.80901,-0.44746]],[[344.82312,515.99226],[-0.88983,0.21525],[1.24824,-2.65253]],[[349.34801,513.33973],[0,0],[12.15349,0]],[[385.10259,528.08221],[-2.56313,-16.08322],[0.42931,2.69387]],[[384.86851,536.26246],[1.01992,-2.53002],[-4.68809,11.62938]],[[355.83625,546.85961],[10.12013,0.00142],[-1.83212,-0.00026]],[[347.66225,546.79312],[3.13001,0.16559],[-0.24207,0.60256]]],&quot;closed&quot;:true}]}" fill="#ffffff"/></g><path d="M414.03344,42.97046c0.07396,0.17894 0.10804,0.40106 0.07361,0.67646c-0.15571,1.24562 -1.40132,1.08992 -1.40132,1.08992c-0.68148,-0.10227 -1.38886,-0.28377 -1.95196,-0.68102c-2.60505,-1.8378 -1.65894,-4.86415 -1.09783,-7.46954c-0.32747,-0.22654 -0.542,-0.60476 -0.542,-1.0331c0,-0.05951 0.00414,-0.11805 0.01215,-0.17535l0.08985,-0.71878l0.04491,0.00561l-0.03326,-0.08041c0.01456,-0.04058 0.02778,-0.08198 0.04002,-0.12398c-0.07519,-0.12953 0.02463,-0.33483 0.12724,-0.53376c0.05216,-0.21634 0.11752,-0.42465 0.24198,-0.59707c0.29823,-0.84554 0.63455,-1.49192 1.71659,-1.76227c0.52011,-0.12995 1.09611,-0.00683 1.59802,0.18156c0.33983,0.12755 0.53217,0.49454 0.8137,0.72366c0.63319,0.51531 1.51491,0.89096 2.05832,1.50072c1.45544,1.63315 1.62022,4.78946 0.76844,6.7076c-0.40085,0.90267 -1.33539,2.09584 -2.39293,2.27003c-0.05507,0.00907 -0.11024,0.01552 -0.16552,0.01974z" fill="#000000"/><path d="M412.48646,60.7794c-0.31443,0.41825 -0.84699,0.66383 -1.69184,0.57217c-0.10696,0.17226 -0.27788,0.33537 -0.54198,0.46742c-1.12279,0.56139 -1.68419,-0.56139 -1.68419,-0.56139l-0.40352,-0.90594c-0.21781,-1.12994 -0.44918,-2.92018 -0.16595,-4.06199c0.35845,-1.44507 0.69808,-2.59601 2.67217,-1.70895c0.0342,-0.04385 0.06747,-0.0882 0.09926,-0.13333c1.07495,-0.5889 1.71266,-1.30655 2.97291,-0.43532c0.12511,-0.23852 0.3567,-0.45926 0.77202,-0.57792c1.20702,-0.34486 1.55188,0.86216 1.55188,0.86216c0.48037,1.68713 0.75352,3.31006 0.63904,5.07076c-0.07926,1.21901 0.06127,1.86169 -1.44909,2.37237c-1.26306,0.42707 -2.2192,-0.07953 -2.77069,-0.96001z" fill="#000000"/><path d="M416.18935,40.75881c-0.73842,0 -0.73842,-0.73842 -0.73842,-0.73842v-0.29537c0,-0.62598 0.14221,-1.46459 0.01333,-2.07562c-0.05471,-0.2594 -0.24564,-0.47803 -0.29537,-0.73842c-0.1915,-1.00279 -0.01333,-2.21627 -0.01333,-3.24101c0,0 0,-0.00335 0.00023,-0.0096c-1.32931,-0.84423 -3.30758,-1.13201 -4.50677,-1.80428c0,0 -0.17926,-0.10243 -0.29404,-0.29377c0.39804,-0.22878 0.9625,-0.54412 1.4893,-0.74165c1.1487,0.55982 2.441,0.83901 3.57689,1.37306c0.76559,0.55466 1.4811,1.17206 2.15477,1.84035c0.02778,0.04571 0.05502,0.09235 0.08169,0.13996c0.15622,0.27875 0.17227,0.61543 0.25841,0.92315l0.03639,0.03347c0,0 0.33023,0.66046 -0.33023,0.99069c-0.66046,0.33023 -0.9907,-0.33023 -0.9907,-0.33023l-0.09111,-0.20639c-0.006,0.36843 0.01092,0.72565 0.07869,1.04697c0.05471,0.2594 0.24564,0.47803 0.29537,0.73842c0.13674,0.71608 0.01333,1.62309 0.01333,2.35491v0.29537c0,0 0,0.73842 -0.73842,0.73842z" fill="#4e4e4e"/></g><path d="M418.0459,58.12143c0.73842,0 0.73842,0.73842 0.73842,0.73842l-0.15555,0.76426c-0.581,0.72073 -0.72272,1.12889 -1.73461,1.35352c-1.45429,0.32284 -2.46622,-0.526 -2.54038,-1.96233c-0.10715,-2.07528 1.10238,-3.50757 2.76809,-4.51962c0,0 0.63319,-0.37992 1.01311,0.25328c0.37992,0.63319 -0.25328,1.01311 -0.25328,1.01311c-0.63945,0.3778 -1.66882,1.00109 -1.84167,1.8068c-0.1177,0.54861 -0.64324,2.29392 0.51481,1.97142c0.17213,-0.04794 0.34638,-0.12105 0.47879,-0.24102c0.17862,-0.16185 0.28625,-0.3879 0.42938,-0.58185l-0.15555,0.14243c0,0 0,-0.73842 0.73842,-0.73842z" fill="#4e4e4e"/></g><path d="M406.28573,38.07971c0.42791,0.98362 1.99206,1.33674 2.89272,1.68347c1.0388,0.10812 2.4706,0.42137 3.36039,-0.29059c0.81864,-0.65504 0.63396,-1.67425 0.68236,-2.59388c0.08679,-1.64904 0.24601,-3.94503 -1.46993,-4.81086l-0.37047,-0.03463c-1.70506,0.8486 -2.4932,3.27326 -2.68265,5.11513l0.00452,0.52657c0,0 0,0.73842 -0.73842,0.73842c-0.73842,0 -0.73842,-0.73842 -0.73842,-0.73842l0.00452,-0.68966c0.13656,-1.16066 0.46732,-2.50095 1.04743,-3.69008c-1.20768,1.20322 -2.73465,3.07751 -1.99204,4.78451zM414.04824,32.17583c0.81037,1.40729 0.728,3.25624 0.64756,4.78456c-0.07406,1.40711 -0.01335,2.6649 -1.22885,3.66099c-1.29766,1.06341 -3.10208,0.7558 -4.63194,0.57815c-1.38004,-0.50683 -3.22109,-1.01319 -3.88339,-2.48644c-1.14413,-2.54505 0.92548,-5.21767 2.6798,-6.84819c0.76316,-0.70931 1.65653,-1.36439 2.71251,-1.57782c0.05628,-0.01137 0.76893,-0.01345 1.28337,-0.0136c0.03694,-0.0046 0.07388,-0.0085 0.11086,-0.01181c0.22519,-0.12478 0.47754,-0.09674 0.47754,-0.09674c0.18144,0.02103 0.36896,0.04899 0.56037,0.08395c0.04306,0.00319 0.12288,0.01279 0.21377,0.04164c1.47574,0.30544 3.13006,1.01807 4.00013,2.17463c0.6237,0.82906 1.1177,1.89703 1.48234,2.86555l0.04702,0.43302c0,0 0,0.73842 -0.73842,0.73842c-0.73842,0 -0.73842,-0.73842 -0.73842,-0.73842l0.04702,0.08553c-0.63382,-1.69764 -1.59219,-2.97844 -3.04128,-3.67343z" fill="#5b4f73"/><path d="M407.50244,34.09236l0.56164,-0.76292c0.67408,-0.57691 1.70159,-1.70677 2.72493,-1.4936c0.04329,0.00902 0.08625,0.01904 0.12892,0.02999v-0.03705h0.86873c0.65251,0 1.18147,0.52896 1.18147,1.18147c0,0.11029 -0.01511,0.21704 -0.04338,0.31832c0.45517,1.06344 0.36855,2.45573 0.31075,3.55377c-0.0484,0.91962 0.13133,1.94664 -0.68731,2.60167c-0.88979,0.71196 -2.33288,0.40192 -3.37168,0.2938c-0.90066,-0.34674 -2.47543,-0.70673 -2.90334,-1.69034c-0.58183,-1.33741 0.23305,-2.79033 1.19402,-3.93546c0.02106,-0.03837 0.03524,-0.05965 0.03524,-0.05965z" fill="#000000"/></g><path d="" fill="#9966ff"/><g data-paper-data="{&quot;index&quot;:null}"><path d="M415.66769,63.19531c0.18106,0.36565 0.18617,0.80157 0.18775,1.20959c0.00273,0.70334 -0.3738,1.94092 -0.94024,2.35659c-1.20148,0.88166 -4.23077,0.31093 -4.82363,-1.1353c-0.244,-0.59521 0.02312,-1.64595 0.32616,-2.18529c0.05845,-0.10402 0.13785,-0.214 0.22982,-0.32587c-0.54526,-0.24148 -1.36236,-0.82514 -1.52793,-1.18924c-0.08588,-0.18886 -0.03228,-1.67611 -0.02448,-1.99793c0.02805,-1.1575 0.0561,-2.31499 0.08416,-3.4725c0.15047,-6.20884 0.89811,-12.33927 1.04851,-18.54539c0.01643,-0.63014 -0.01299,-1.4026 0.20218,-2.01251c0.47531,-1.3473 2.19219,-2.62093 3.67326,-2.05051c0.43676,0.16821 0.84058,0.77078 1.14182,1.25474c0.35713,0.20293 0.34602,0.66185 0.34602,0.66185c-0.04354,1.6562 0.44026,3.22946 0.4797,4.8871c0.11036,4.63789 -0.51449,9.2627 0.02203,13.88312c-0.04288,1.76943 0.04523,3.5443 -0.00736,5.32389c-0.02187,0.74008 0.05482,1.31344 -0.42012,1.96985c-0.20647,0.28537 -0.46188,0.50279 -0.74804,0.67025c0.25304,0.23036 0.59884,0.39153 0.75038,0.69758zM412.75953,63.07086c-0.04688,0.06474 -0.08586,0.10187 -0.08586,0.10187c-0.41587,0.39508 -1.44173,1.17688 -1.20438,1.92151c0.16468,0.51666 2.19229,0.75219 2.56551,0.48152c0.61966,-0.44941 0.41379,-1.62468 -0.07922,-1.95805l-0.19734,0.01521c0,0 -0.5102,-0.14077 -0.54754,-0.61588c-0.15122,0.02103 -0.30216,0.03844 -0.45118,0.05382zM414.11359,36.05512c-0.16266,-0.32908 -0.29321,-0.70136 -0.60839,-0.85786c-0.37509,-0.18624 -0.72827,0.19953 -0.96767,0.36963c-0.87914,0.62466 -0.81047,1.35012 -0.8333,2.37885c-0.15042,6.20645 -0.89804,12.33676 -1.04851,18.54539c-0.02805,1.1575 -0.0561,2.31499 -0.08416,3.4725c-0.01097,0.45285 -0.25318,0.92651 -0.10574,1.35483c0.09634,0.27988 0.47265,0.40976 0.76601,0.44918c0.24641,0.03312 0.49177,-0.07391 0.73831,-0.10598c0.74903,-0.09747 1.96929,-0.01197 2.5046,-0.70798c0.32287,-0.41979 0.14323,-1.50017 0.15462,-1.97001c0.03554,-1.46666 -0.04712,-2.92294 -0.01178,-4.38095c-0.55797,-4.62725 0.08316,-9.26854 -0.02316,-13.91428c-0.03602,-1.5738 -0.45721,-3.06664 -0.48084,-4.63331z" fill="#4e4e4e"/><path d="M412.67043,63.15831c0,0 0.04018,-0.03735 0.08705,-0.10208c0.14902,-0.01538 0.30498,-0.03263 0.4562,-0.05366c0.03734,0.47512 0.55572,0.62068 0.55572,0.62068l0.1982,-0.01412c0.49301,0.33336 0.69668,1.52824 0.07703,1.97765c-0.37321,0.27068 -2.42381,0.03084 -2.58849,-0.48581c-0.23734,-0.74464 0.79843,-1.54756 1.2143,-1.94264z" data-paper-data="{&quot;noHover&quot;:false,&quot;origItem&quot;:[&quot;Path&quot;,{&quot;applyMatrix&quot;:true,&quot;segments&quot;:[[[475.794,535.00135],[0,0],[-2.75029,2.74259]],[[467.95653,548.20608],[-1.72879,-5.00165],[1.19951,3.47034]],[[485.402,551.04465],[-2.48197,1.89348],[4.12088,-3.1438]],[[484.54456,537.80325],[3.39197,2.17571],[0,0]],[483.21123,537.93858],[[479.40376,533.85935],[0.33076,3.21005],[-1.02019,0.16718]],[[476.35846,534.29769],[1.00624,-0.12859],[-0.30672,0.4459]]],&quot;closed&quot;:true}]}" fill="#ffffff"/><path d="M414.59768,40.67403c0.10632,4.64573 -0.53395,9.31562 0.02402,13.94286c-0.03534,1.45801 0.04569,2.91467 0.01014,4.38133c-0.01139,0.46984 0.16769,1.55031 -0.15518,1.97009c-0.53531,0.69601 -1.75846,0.6106 -2.50749,0.70807c-0.24655,0.03208 -0.4927,0.13903 -0.73912,0.10591c-0.29336,-0.03942 -0.67058,-0.16944 -0.76692,-0.44932c-0.14744,-0.42832 0.09458,-0.90201 0.10556,-1.35486c0.02805,-1.1575 0.05509,-2.31524 0.08314,-3.47274c0.15047,-6.20863 0.90039,-12.36787 1.05081,-18.57433c0.02282,-1.02873 -0.0446,-1.75428 0.83454,-2.37893c0.2394,-0.1701 0.59367,-0.55585 0.96876,-0.36961c0.31518,0.15649 0.44649,0.52883 0.60915,0.85792c0.02363,1.56668 0.44656,3.0598 0.48258,4.6336z" data-paper-data="{&quot;noHover&quot;:false,&quot;origItem&quot;:[&quot;Path&quot;,{&quot;applyMatrix&quot;:true,&quot;segments&quot;:[[[481.09232,351.20035],[0.41699,10.60131],[-1.15507,-2.20096]],[[476.83329,345.49316],[2.15917,1.00762],[-2.56962,-1.19916]],[[470.34355,348.15397],[1.59265,-1.19073],[-5.84861,4.37267]],[[465.09302,364.39363],[-0.01429,-6.96741],[0,42.03747]],[[461.03787,490.10328],[0,-42.05218],[0,7.83996]],[[461.03787,513.62315],[0,-7.83996],[0,3.06724]],[[460.54438,522.81163],[-1.0683,-2.87518],[0.69807,1.87877]],[[465.80336,525.72656],[-1.99229,-0.21876],[1.67344,0.18375]],[[470.78377,524.88799],[-1.66368,0.25762],[5.05436,-0.78266]],[[487.62181,519.68464],[-3.50945,4.79923],[2.11667,-2.89459]],[[488.34525,506.32388],[0,3.18234],[0,-9.93399]],[[487.54679,476.67022],[0,9.87543],[-4.53614,-31.23126]],[[485.10733,382.48536],[1.48188,31.43047],[-0.50201,-10.64746]]],&quot;closed&quot;:true}]}" fill="#000000"/></g></g></g></g></svg>