<svg version="1.1" xmlns="http://www.w3.org/2000/svg" xmlns:xlink="http://www.w3.org/1999/xlink" width="32.15785" height="22.32538" viewBox="0,0,32.15785,22.32538"><g transform="translate(-224.09846,-167.27767)"><g data-paper-data="{&quot;isPaintingLayer&quot;:true}" stroke-linejoin="miter" stroke-miterlimit="10" stroke-dasharray="" stroke-dashoffset="0" style="mix-blend-mode: normal"><g data-paper-data="{&quot;index&quot;:null}" fill-rule="nonzero" stroke="none" stroke-width="0.5" stroke-linecap="butt"><path d="M238.33397,168.71658c0.02653,0.40346 0.13267,0.66576 0.30578,0.99615c0.03278,0.06257 0.03177,0.17905 0.08939,0.1945c0.05739,0.01539 0.08063,-0.11217 0.13573,-0.13413c0.14252,-0.0568 0.37015,0.04546 0.43901,-0.12136c0.07011,-0.1698 -0.04407,-0.38561 -0.06951,-0.57785c-0.0798,-0.6027 -0.09099,-0.69521 -0.57433,-0.83503c0,0 -0.11676,-0.03661 -0.18527,-0.15653c-0.1259,0.18726 -0.15942,0.35114 -0.14081,0.63426zM239.21836,167.66132c0.45764,0.28136 0.52142,0.7481 0.59609,1.31203c0.0009,0.0068 0.00183,0.01372 0.0028,0.02073c0.25485,-0.34017 0.59136,-0.54719 0.98573,-0.44827c0.1371,0.03439 0.2348,0.19723 0.35219,0.29584l0.08251,0.07745c0,0 0.07392,0.06939 0.11039,0.18181c1.31431,1.22418 2.65049,2.27856 4.12865,3.17416c0.41395,0.30764 1.01302,0.66661 1.35168,1.10738c0.13582,0.17678 0.32958,0.33746 0.365,0.57722c0.02795,0.1892 -0.14656,0.33015 -0.20525,0.50433c-0.09201,0.27308 -0.14958,0.56411 -0.2363,0.84011c-0.21721,0.69133 -0.42835,1.39014 -0.6764,2.06411c-0.2787,0.75726 -0.61581,1.42188 -0.66508,2.28567c0,0 -0.02304,0.36945 -0.31627,0.32888c-0.03957,-0.00547 -0.07336,-0.01693 -0.10225,-0.03267c-0.36254,0.5527 -0.91542,0.9294 -1.47635,1.05034c-0.19826,0.04274 -0.41359,0.14285 -0.60401,0.04933c-0.16328,-0.08019 -0.25152,-0.31935 -0.3385,-0.51225c-0.24427,-0.54179 -0.25412,-1.0828 -0.12795,-1.63882l0.11495,-0.14596c0.10691,-0.64801 0.22332,-1.30197 0.42153,-1.903c0.13843,-0.41975 0.26613,-0.86129 0.41517,-1.27664c0.06963,-0.19405 0.23781,-0.34897 0.23603,-0.56457c-0.00152,-0.18389 -0.25865,-0.18076 -0.39491,-0.2507c-0.62283,-0.31965 -1.13547,-0.8047 -1.71903,-1.20839c-0.15328,-0.14386 -0.51231,-0.40117 -0.66558,-0.54505c-0.27087,-0.25426 -0.49586,-0.62217 -0.7663,-0.87632c-0.30971,-0.29107 -0.68587,-0.56669 -0.80805,-1.09437c-0.03753,-0.16208 0.00554,-0.33473 0.01292,-0.50165c0.00132,-0.02975 0.00323,-0.05994 0.00573,-0.09049c-0.08051,0.01275 -0.16786,0.02355 -0.26497,0.05024c-0.13738,0.03775 -0.26857,0.19339 -0.40559,0.14312c-0.67141,-0.24636 -1.01975,-1.74102 -0.85985,-2.4697c0.13002,-0.59258 0.27544,-0.58116 0.65912,-0.88755l0.44115,0.14681c0,0 0.10511,0.04476 0.16714,0.15994c0.06332,0.01817 0.12539,0.04096 0.18386,0.07692zM244.94966,178.71143c0.24575,-1.11793 0.76716,-2.14981 1.10205,-3.21496c0.13095,-0.41652 0.22757,-1.00357 0.40882,-1.38156c0.02936,-0.06121 0.15002,-0.0346 0.14732,-0.10718c-0.00252,-0.06787 -0.10664,-0.03246 -0.1538,-0.06677c-0.07674,-0.05582 -0.13845,-0.14105 -0.21356,-0.20045c-0.34277,-0.27109 -0.67797,-0.55226 -1.02747,-0.81157c-1.54238,-0.93276 -2.93502,-2.04266 -4.30472,-3.32827l-0.1966,-0.26243c-0.44153,-0.30313 -0.79403,0.84316 -0.83351,1.27497c-0.0074,0.0809 -0.05242,0.16139 -0.03334,0.24024c0.08148,0.33692 0.39223,0.50367 0.58329,0.68277c0.27094,0.25399 0.49579,0.62243 0.7663,0.87633c0.17631,0.16548 0.45445,0.34916 0.63076,0.51465c0.42942,0.29706 0.80865,0.67885 1.25266,0.94752c0.10244,0.06198 0.78233,0.40354 0.83588,0.46225c0.1366,0.14977 0.26309,0.34932 0.29912,0.57108c0.06794,0.41828 -0.31691,1.07176 -0.42304,1.44712c-0.24187,0.85548 -0.45609,1.68231 -0.63338,2.55084c0.00204,0.06692 -0.01356,0.12491 -0.03448,0.17183c-0.0377,0.19121 -0.07362,0.38467 -0.10763,0.58106c0,0 -0.00854,0.04935 -0.03386,0.10698c0.02606,0.13197 0.06805,0.27175 0.11408,0.44834c0.01352,0.05188 -0.00346,0.14739 0.03902,0.15622c0.08521,0.0177 0.16188,-0.06696 0.24358,-0.09751c0.56384,-0.21093 1.21573,-0.54148 1.38755,-1.3174c0,0 0.04701,-0.19207 0.185,-0.2441z" fill="#525252"/><path d="M238.65855,168.23161c0.48333,0.13983 0.5018,0.24111 0.5816,0.84381c0.02546,0.19225 0.13785,0.4121 0.06775,0.58191c-0.06886,0.16681 -0.3,0.06638 -0.44252,0.12319c-0.0551,0.02196 -0.07947,0.14946 -0.13685,0.13408c-0.05762,-0.01545 -0.05759,-0.13222 -0.09037,-0.19477c-0.17311,-0.3304 -0.28317,-0.60262 -0.3097,-1.00608c-0.01862,-0.28312 0.01784,-0.45093 0.14374,-0.6382c0.0685,0.11992 0.18635,0.15606 0.18635,0.15606z" data-paper-data="{&quot;noHover&quot;:false,&quot;origItem&quot;:[&quot;Path&quot;,{&quot;applyMatrix&quot;:true,&quot;segments&quot;:[[[428.29653,249.70232],[2.53963,2.48528],[-0.88695,1.97961]],[[425.52357,252.53569],[0,0],[-7.83313,3.35814]],[[417.70827,266.57322],[0,-9.26089],[0,2.95396]],[[417.82607,275.4341],[-1.56019,-2.36818],[1.5327,2.32645]],[[425.49513,276.11458],[-2.5285,-0.4825],[0.97762,0.18656]],[[428.08169,277.77625],[-0.93268,0.38046],[0.93648,-0.38202]],[[429.15412,274.62198],[-0.41283,1.02512],[2.18006,-5.41338]],[[432.08448,258.86309],[0.45298,6.12931],[-0.31787,-4.30112]]],&quot;closed&quot;:true}]}" fill="#ffeb6e"/><path d="M244.7667,178.96258c-0.17181,0.77591 -0.82588,1.10684 -1.38973,1.31775c-0.08172,0.03056 -0.15869,0.11518 -0.24389,0.09749c-0.04247,-0.00883 -0.02555,-0.10437 -0.03907,-0.15625c-0.04602,-0.17659 -0.08822,-0.31641 -0.11428,-0.44837c0.02533,-0.05763 0.03532,-0.12168 0.03532,-0.12168c0.03401,-0.19639 0.06984,-0.38985 0.10754,-0.58107c0.02092,-0.04692 0.03648,-0.10492 0.03445,-0.17184c0.17728,-0.86853 0.38977,-1.69531 0.63165,-2.55079c0.10613,-0.37536 0.48662,-1.02434 0.41868,-1.44261c-0.03602,-0.22177 -0.16242,-0.41573 -0.29902,-0.5655c-0.05355,-0.05871 -0.72429,-0.39714 -0.82672,-0.45913c-0.44401,-0.26866 -0.82224,-0.65176 -1.25166,-0.94882c-0.17631,-0.16548 -0.46402,-0.35818 -0.64033,-0.52367c-0.27051,-0.2539 -0.49527,-0.62253 -0.76621,-0.87651c-0.19106,-0.1791 -0.50175,-0.34594 -0.58323,-0.68286c-0.01906,-0.07885 0.02609,-0.15955 0.03349,-0.24045c0.03949,-0.4318 0.39317,-1.57943 0.83469,-1.27629l0.19665,0.26237c1.3697,1.28562 2.77027,2.39742 4.31266,3.33018c0.3495,0.25931 0.68575,0.54321 1.02851,0.81429c0.07509,0.05939 0.13691,0.14511 0.21365,0.20093c0.04717,0.03431 0.15129,-0.00092 0.15382,0.06695c0.0027,0.07258 -0.11794,0.04612 -0.1473,0.10733c-0.18127,0.37799 -0.278,0.96802 -0.40896,1.38455c-0.33489,1.06515 -0.85961,2.10179 -1.10536,3.21972c-0.13798,0.05202 -0.18536,0.24427 -0.18536,0.24427z" data-paper-data="{&quot;noHover&quot;:false,&quot;origItem&quot;:[&quot;Path&quot;,{&quot;applyMatrix&quot;:true,&quot;segments&quot;:[[[657.04642,381.49437],[0,0],[4.62661,9.90368]],[[683.36858,395.78934],[-9.97259,-1.50293],[1.44514,0.21779]],[[687.69104,396.5235],[-1.39648,0.43093],[0.69604,-0.21479]],[[687.99997,394.36016],[-0.11213,0.71975],[0.38164,-2.4498]],[[688.92201,388.14704],[-0.14482,1.81148],[-0.55534,-0.70664]],[[688.1125,386.80499],[0,0],[-1.0114,-2.52849]],[[685.00235,379.34017],[1.06204,2.45139],[-0.45725,-0.5747]],[[684.03792,377.13874],[0.11497,0.89292],[-4.92546,-11.1202]],[[667.67276,344.73829],[5.98483,10.79863],[-2.62594,-4.73807]],[[657.31503,326.50353],[-0.21166,5.70793],[0.11222,-3.02632]],[[661.08161,318.2359],[-1.96776,2.30198],[0.77141,-0.90243]],[[674.13622,310.17835],[-1.58787,1.05821],[6.8829,-4.587]],[[693.13166,294.7216],[-6.57368,4.93026],[2.60189,-2.60189]],[[702.61288,286.44017],[-2.60189,2.60189],[3.99202,-3.99202]],[[713.57123,273.04664],[-3.99918,3.99409],[2.82019,-2.8166]],[[721.87737,262.64306],[-0.6213,4.65927],[0.1454,-1.09041]],[[720.77921,259.53094],[0.30521,1.05687],[-1.6289,-5.64052]],[[703.88827,244.52507],[6.76412,-5.03876],[0,0]],[[701.16079,248.46027],[0,0],[-20.21351,20.21351]],[[636.04404,302.53496],[23.91098,-15.92721],[-5.31112,4.24538]],[[620.54007,315.66967],[5.17134,-4.38641],[-1.13297,0.961]],[[617.38854,318.82119],[1.16859,-0.91735],[-0.71824,0.56382]],[[614.94591,320.06111],[-0.10883,-0.9066],[0.11639,0.9695]],[[617.66749,321.14479],[-0.63125,-0.74498],[3.89793,4.60022]],[[627.63949,338.54218],[-3.13622,-5.22739],[8.01997,13.36755]],[[653.38438,378.67981],[-6.6356,-14.27295],[2.44136,0.3732]]],&quot;closed&quot;:true}]}" fill="#0e0d0c"/></g><g data-paper-data="{&quot;index&quot;:null}" fill-rule="nonzero" stroke="none" stroke-width="0.5" stroke-linecap="butt"><path d="M229.57267,176.63669c-0.00092,0.00912 -0.00202,0.01801 -0.00323,0.02666c0.10707,0.16471 0.24743,0.29199 0.3809,0.42316c0.04555,0.04477 0.05742,0.16381 0.11615,0.16187c0.15398,-0.00507 0.23292,-0.26263 0.35484,-0.38563c0.62793,-0.83561 1.39674,-1.3947 2.17222,-1.93879c0.18422,-0.12924 0.31106,-0.36816 0.49459,-0.49902c0.08294,-0.05912 0.19567,-0.03839 0.27018,-0.11355c0.0745,-0.07516 0.08325,-0.21945 0.14774,-0.30809c0.21833,-0.30014 0.58,-0.56263 0.85086,-0.78204c0.1516,-0.1228 0.29533,-0.36504 0.47064,-0.33432c0.35367,0.06197 0.45317,0.61128 0.54602,0.93143l0.02277,0.0812c0.21385,0.08729 0.18241,0.395 0.18241,0.395c-0.08139,0.79639 -0.14363,1.60135 -0.24475,2.3949c-0.0267,0.20959 -0.00029,0.44843 -0.096,0.62584c-0.23706,0.43939 -0.4501,0.30945 -0.73817,0.51533c-0.19225,0.13741 -0.37911,0.28829 -0.57739,0.41071c-0.97042,0.59908 -1.84376,1.32414 -2.84518,1.7966c-0.33338,0.25236 -0.75958,0.7302 -1.18417,0.55112c-0.13817,-0.05828 -0.19678,-0.26741 -0.29919,-0.3962c-0.24387,-0.3067 -0.50101,-0.62583 -0.76523,-0.90461c-0.67257,-0.70963 -1.39422,-1.35224 -2.14305,-1.96811c-0.00333,0.04814 -0.00646,0.09597 -0.00788,0.14282c-0.01907,0.63238 -0.08735,1.65916 -0.52465,2.10343c-0.32745,0.33267 -0.98083,0.41469 -1.29752,0.05555c-0.09934,-0.11266 -0.09051,-0.32028 -0.15646,-0.46703c-0.04615,-0.10268 -0.12567,-0.17569 -0.17681,-0.27445c-0.32989,-0.63715 -0.2156,-1.09501 -0.25496,-1.79523c-0.00929,-0.16527 -0.09288,-0.31282 -0.09897,-0.47844c-0.01633,-0.44406 0.03843,-0.91623 0.14351,-1.36214c-0.00432,-0.05342 -0.00041,-0.09172 -0.00041,-0.09172c0.04684,-0.40018 0.0327,-0.92145 0.4336,-1.13032c0.16577,-0.08637 0.34598,0.08738 0.52071,0.11997c0.23317,0.04349 0.46928,0.08771 0.68996,0.18734c0.07096,0.03203 0.14076,0.06739 0.20967,0.1053c0.04227,-0.00108 0.08452,-0.00285 0.1267,-0.00514c0.06949,0.07436 0.14491,0.14634 0.23316,0.21206c0.07305,0.05439 0.14634,0.10054 0.21985,0.14144c0.00124,0.00903 0.00254,0.01803 0.00393,0.02701c0.22759,0.15933 0.4535,0.3221 0.68843,0.45622c0.3533,0.20168 0.72844,0.34338 1.09391,0.5109c0.00716,-0.00537 0.01428,-0.01083 0.02135,-0.01637c0.21453,0.12471 0.43182,0.24375 0.65618,0.34968c0.0175,0.02553 0.03489,0.05111 0.05221,0.07673c0.03616,0.02611 0.07195,0.0532 0.10732,0.08136l-0.057,-0.04742c0,0 0.29985,0.03673 0.26119,0.41499zM227.16973,175.95852c-0.39166,-0.22096 -0.74381,-0.51842 -1.1255,-0.76483c-0.21685,-0.01423 -0.43006,-0.09197 -0.64796,-0.08737c-0.15734,0.00332 -0.3239,0.0264 -0.4721,-0.03057c-0.00442,0.0502 -0.00894,0.10041 -0.01299,0.15064c0,0 -0.00023,0.00228 -0.0008,0.00648c0.02693,0.42122 -0.15777,0.88676 -0.1385,1.303c0.00765,0.16546 0.08998,0.31315 0.09897,0.47845c0.01969,0.36216 -0.09128,0.75781 0.00927,1.1214c0.09049,0.32719 0.22177,0.32642 0.35071,0.63646c0.03848,0.09251 0.01613,0.21739 0.0603,0.30563c0.11406,0.22787 0.54209,-0.16926 0.58989,-0.31289c0.17876,-0.53709 0.19798,-1.1422 0.19334,-1.73295l-0.00065,0.00031l-0.10638,-0.3792c-0.01657,-0.05525 -0.02286,-0.11665 -0.01637,-0.18018c0.02135,-0.20891 0.17291,-0.3618 0.33851,-0.34153c0.05036,0.00617 0.09621,0.02765 0.13506,0.06043l0.2682,0.21592c0.5848,0.47083 1.11028,1.04486 1.68877,1.50927c0.08983,0.07212 0.21422,0.06366 0.30027,0.14258c0.09447,0.08665 0.13912,0.23832 0.22444,0.33868c0.36619,0.43073 0.81265,0.78216 1.13902,1.27122c0.03982,0.05965 0.03159,0.16559 0.08245,0.21014c0.02705,0.0237 0.0611,-0.03706 0.09023,-0.05893c0.20411,-0.15318 0.4054,-0.3124 0.60983,-0.46488c0.99907,-0.48186 1.87268,-1.19832 2.84518,-1.7966c0.18543,-0.11407 0.35912,-0.25728 0.53898,-0.38522c0.16418,-0.11678 0.42609,-0.06009 0.52428,-0.2627c0.04133,-0.08528 -0.00858,-0.19691 -0.00187,-0.29527c0.01469,-0.21562 0.04394,-0.42986 0.0659,-0.64479c0.04811,-0.4708 0.09622,-0.94158 0.14434,-1.41237c-0.02331,-0.04506 -0.03354,-0.08154 -0.03354,-0.08154l-0.10838,-0.38633c-0.02391,-0.08925 -0.05831,-0.17495 -0.07776,-0.26571c-0.13601,0.26944 -0.65722,0.51015 -0.77752,0.67994c-0.08479,0.11967 -0.12025,0.29275 -0.21964,0.39302c-0.09939,0.10027 -0.24098,0.10447 -0.35163,0.18336c-0.18354,0.13084 -0.31165,0.36679 -0.49459,0.49901c-0.09642,0.06968 -0.21381,0.08033 -0.3109,0.14845c-0.18422,0.12924 -0.31166,0.36679 -0.4946,0.49901c-0.47352,0.34222 -0.8641,0.66928 -1.25227,1.18583c-0.19025,0.19196 -0.53975,0.58605 -0.78038,0.59451c-0.33193,0.01165 -0.7819,-0.5936 -0.96509,-0.88167c-0.07777,-0.12229 -0.1576,-0.24082 -0.23924,-0.35625c-0.52205,-0.35198 -1.12927,-0.50733 -1.66926,-0.81196z" fill="#525252"/><path d="M228.84496,176.76897c0.08166,0.11543 0.16058,0.23114 0.23835,0.35342c0.18319,0.28809 0.62674,0.89035 0.95868,0.87869c0.24062,-0.00845 0.58654,-0.39937 0.77679,-0.59133c0.38817,-0.51655 0.77767,-0.83866 1.2512,-1.18088c0.18294,-0.13222 0.31046,-0.36885 0.49468,-0.4981c0.09709,-0.06813 0.21451,-0.07866 0.31092,-0.14834c0.18294,-0.13222 0.31116,-0.36764 0.4947,-0.49849c0.11065,-0.07889 0.25225,-0.08302 0.35164,-0.18329c0.09939,-0.10027 0.13495,-0.27299 0.21975,-0.39266c0.1203,-0.16979 0.64159,-0.4102 0.7776,-0.67964c0.01945,0.09074 0.06516,0.17064 0.08907,0.25988l0.1085,0.38678c0,0 0.01026,0.03657 0.03357,0.08164c-0.04811,0.4708 -0.09603,0.94313 -0.14414,1.41393c-0.02196,0.21492 -0.0512,0.42994 -0.06589,0.64556c-0.0067,0.09837 0.04318,0.21035 0.00185,0.29563c-0.0982,0.20261 -0.36013,0.14632 -0.52431,0.2631c-0.17987,0.12794 -0.35367,0.27184 -0.5391,0.3859c-0.9725,0.59829 -1.84945,1.31998 -2.84851,1.80185c-0.20443,0.15248 -0.40725,0.31235 -0.61137,0.46552c-0.02913,0.02186 -0.06339,0.08268 -0.09045,0.05899c-0.05087,-0.04454 -0.04277,-0.15045 -0.08259,-0.21012c-0.32637,-0.48906 -0.77657,-0.84134 -1.14275,-1.27208c-0.08532,-0.10038 -0.13098,-0.25295 -0.22545,-0.33959c-0.08605,-0.07892 -0.21115,-0.07141 -0.30098,-0.14352c-0.57848,-0.46442 -1.1052,-1.04349 -1.69,-1.51432l-0.26818,-0.2163c-0.03884,-0.03278 -0.07268,-0.05297 -0.12304,-0.05913c-0.16561,-0.02028 -0.3171,0.13202 -0.33846,0.34093c-0.0065,0.06353 -0.00019,0.12464 0.01638,0.17989l0.10637,0.37857l0.00065,-0.00031c0.00464,0.59076 -0.01506,1.19349 -0.19382,1.73057c-0.0478,0.14363 -0.48697,0.54713 -0.60102,0.31925c-0.04417,-0.08825 -0.02194,-0.21349 -0.06042,-0.306c-0.12894,-0.31006 -0.26043,-0.31015 -0.35092,-0.63734c-0.10055,-0.36359 0.01029,-0.76058 -0.00941,-1.12274c-0.00899,-0.1653 -0.09132,-0.31358 -0.09898,-0.47904c-0.01927,-0.41624 0.1656,-0.88335 0.13867,-1.30457c0.00056,-0.0042 0.0008,-0.00649 0.0008,-0.00649c0.00404,-0.05022 0.0086,-0.10061 0.01303,-0.1508c0.14819,0.05697 0.31479,0.03375 0.47213,0.03044c0.21791,-0.00459 0.44268,0.0771 0.65953,0.09132c0.38169,0.24641 0.734,0.5431 1.12566,0.76406c0.54,0.30463 1.14723,0.45714 1.6693,0.80913z" data-paper-data="{&quot;noHover&quot;:false,&quot;origItem&quot;:[&quot;Path&quot;,{&quot;applyMatrix&quot;:true,&quot;segments&quot;:[[[443.00711,690.71721],[3.11369,-6.18565],[-2.2584,4.48652]],[[434.82177,703.75356],[2.60664,-4.40676],[0.16107,2.36427]],[[434.71713,710.86786],[-0.4084,-2.35489],[0.29489,1.70038]],[[435.07295,716.01475],[0.5068,-1.66805],[0.66246,-0.00766]],[[437.06015,715.98872],[-0.6622,0.01179],[0,0]],[[437.14603,715.99026],[-0.05569,-0.00154],[5.45612,-0.75779]],[[454.37852,716.04805],[-5.40326,0.66938],[2.14787,-0.26609]],[[460.46649,714.4466],[-2.14367,0.28035],[4.69648,-0.61421]],[[475.09189,713.10498],[-4.58593,1.4915],[4.12686,-1.3422]],[[482.84036,708.60214],[-3.84168,1.73971],[1.1463,-0.51911]],[[486.73408,707.6107],[-1.08151,0.5761],[2.79248,-1.4875]],[[481.70604,701.56821],[1.95157,0.35876],[-7.29763,-1.34152]],[[458.7726,701.39231],[7.70509,-0.70404],[0,0]],[458.77772,701.39905],[[453.99731,702.97091],[0,0],[-0.69482,0.24057]],[[451.67128,703.34763],[0.83979,0],[-2.76142,0]],[[446.67128,700.05949],[0,1.81599],[0,-0.55227]],[[447.24413,698.52983],[-0.36581,0.45693],[0,0]],[[449.63433,695.3861],[0,0],[5.21183,-6.85488]],[[466.63809,675.42537],[-5.13805,6.77932],[0.79786,-1.05273]],[[468.01938,672.01556],[-0.89274,1.01925],[0.98017,-1.11906]],[[472.08213,669.20989],[-1.17395,1.03527],[5.03779,-4.44267]],[[486.85702,655.46676],[-5.86295,4.07605],[0.71521,-0.49723]],[[489.46849,654.34127],[-0.50014,0.60023],[0.26603,-0.31927]],[[488.55479,653.42924],[0.33201,0.29132],[-2.32609,-2.04099]],[[481.51066,647.33898],[2.3175,2.04521],[-7.88843,-10.287]],[[453.50599,618.51294],[9.36575,9.87034],[-1.78576,-1.88197]],[[447.61507,613.10181],[1.95784,1.80644],[-1.78711,-1.64891]],[[443.34724,607.71442],[2.80217,0.83921],[-1.17942,-0.35322]],[[439.49534,608.06155],[1.29479,-0.03632],[-2.83847,0.07962]],[[430.97218,608.06155],[2.84105,0],[-6.22326,0]],[[412.30241,608.06155],[6.22326,0],[-0.55103,0.30239]],[411.29156,608.51514],[[406.42118,610.11659],[0,0],[-1.12691,0.35775]],[[403.07668,611.25284],[1.15365,-0.31126],[3.73508,1.17475]],[[413.19664,618.92113],[-2.40909,-1.11502],[1.69781,0.78581]],[[418.67899,620.86499],[-1.46806,-0.96543],[1.46806,0.96543]],[[421.63486,624.47034],[-1.20673,-1.11101],[2.00171,1.84293]],[[428.94042,629.27468],[-2.01857,-1.83496],[1.06388,0.96711]],[[431.37561,632.47757],[-1.04459,-0.97616],[1.98197,1.85214]],[[438.68117,637.28191],[-2.01857,-1.83496],[5.22497,4.74971]],[[456.16488,649.53206],[-7.36442,-3.63228],[2.81011,1.84801]],[[465.17423,657.32586],[-0.4951,-2.59676],[0.68297,3.58211]],[[455.20681,668.75418],[3.46813,-2.30284],[-1.47217,0.97752]],[[450.93856,671.73959],[1.37628,-1.01203],[-3.76048,6.04374]]],&quot;closed&quot;:true}]}" fill="#0e0d0c"/></g><g data-paper-data="{&quot;index&quot;:null}" fill-rule="nonzero" stroke="none" stroke-width="0.5" stroke-linecap="butt"><path d="M229.64522,178.65328c-0.00102,0.01 -0.00219,0.01972 -0.00351,0.0292c0.10869,0.17936 0.25182,0.3175 0.38782,0.45994c0.04642,0.04862 0.05776,0.1788 0.11803,0.17618c0.15803,-0.00686 0.24086,-0.28942 0.36682,-0.42508c0.6502,-0.91994 1.44299,-1.53842 2.24255,-2.14052c0.18993,-0.14303 0.32178,-0.40561 0.51102,-0.55039c0.08552,-0.06543 0.20104,-0.04367 0.27802,-0.12658c0.07698,-0.0829 0.08698,-0.24089 0.15377,-0.33847c0.22615,-0.33037 0.5991,-0.62075 0.87857,-0.8632c0.15642,-0.13571 0.30562,-0.40205 0.48528,-0.36992c0.36245,0.06483 0.46063,0.66521 0.55364,1.01484l0.0228,0.08868c0.21881,0.09373 0.18436,0.4308 0.18436,0.4308c-0.08916,0.87237 -0.15872,1.75394 -0.2681,2.62337c-0.02889,0.22962 -0.00348,0.49082 -0.10295,0.68581c-0.24634,0.48294 -0.464,0.34253 -0.76104,0.57032c-0.19824,0.15202 -0.39104,0.31876 -0.59536,0.45442c-0.99995,0.66395 -1.90118,1.465 -2.93203,1.99062c-0.34385,0.27905 -0.78456,0.80568 -1.21893,0.61327c-0.14136,-0.06261 -0.20002,-0.29102 -0.30417,-0.43111c-0.24805,-0.33362 -0.50961,-0.68073 -0.77873,-0.98362c-0.68505,-0.77099 -1.42097,-1.46822 -2.18493,-2.13595c-0.00376,0.05273 -0.00731,0.10509 -0.00909,0.1564c-0.02406,0.69234 -0.10139,1.81674 -0.55323,2.30673c-0.33833,0.36689 -1.00931,0.46222 -1.33171,0.07181c-0.10115,-0.12248 -0.09059,-0.34979 -0.15723,-0.50984c-0.04663,-0.11201 -0.12771,-0.19124 -0.17947,-0.2989c-0.33397,-0.69457 -0.21347,-1.1967 -0.24888,-1.96277c-0.00835,-0.18081 -0.09309,-0.34159 -0.09816,-0.52282c-0.01362,-0.4859 0.04593,-1.00316 0.15691,-1.49212c-0.00406,-0.05842 0.00023,-0.10039 0.00023,-0.10039c0.05089,-0.43841 0.04007,-1.00882 0.4529,-1.24086c0.1707,-0.09593 0.35439,0.09269 0.53343,0.12688c0.23896,0.04563 0.48087,0.09203 0.7066,0.1992c0.07258,0.03446 0.14394,0.07257 0.21438,0.11347c0.04338,-0.00154 0.08674,-0.00385 0.13003,-0.0067c0.07078,0.08079 0.14764,0.15894 0.23773,0.23013c0.07457,0.05892 0.14944,0.10881 0.22458,0.15294c0.00122,0.00987 0.00249,0.01971 0.00384,0.02952c0.23238,0.17245 0.46302,0.3487 0.70313,0.4935c0.36107,0.21776 0.74499,0.36968 1.11878,0.54992c0.00739,-0.00593 0.01473,-0.01197 0.02203,-0.0181c0.21922,0.13466 0.44133,0.26313 0.67079,0.37716c0.01776,0.02779 0.03545,0.05562 0.05304,0.08352c0.03691,0.02828 0.07343,0.05763 0.10954,0.08816l-0.05814,-0.05141c0,0 0.3074,0.03764 0.26505,0.45199zM227.1845,177.93144c-0.40031,-0.23852 -0.75951,-0.5611 -1.14942,-0.82756c-0.22239,-0.01372 -0.44058,-0.097 -0.6642,-0.09013c-0.16145,0.00496 -0.33253,0.03164 -0.48418,-0.02945c-0.0049,0.05498 -0.0099,0.10996 -0.0144,0.16498c0,0 -0.00025,0.0025 -0.00087,0.0071c0.02463,0.46081 -0.16816,0.97192 -0.15134,1.42735c0.00669,0.18104 0.09009,0.34197 0.09815,0.52283c0.01765,0.39622 -0.09903,0.83023 0.00156,1.22733c0.09053,0.35736 0.22523,0.35538 0.35534,0.69365c0.03882,0.10094 0.01501,0.23781 0.05972,0.33402c0.11542,0.24844 0.5574,-0.18986 0.60747,-0.34748c0.18722,-0.58938 0.21123,-1.25186 0.21067,-1.89841l-0.00068,0.00035l-0.10647,-0.41413c-0.01661,-0.06034 -0.02263,-0.12748 -0.01552,-0.19708c0.02338,-0.22884 0.17997,-0.39748 0.34974,-0.37668c0.05164,0.00633 0.09853,0.02944 0.13816,0.06498l0.27365,0.23407c0.59671,0.51038 1.1318,1.13421 1.72206,1.63761c0.09166,0.07817 0.21935,0.06787 0.30707,0.15351c0.09631,0.09403 0.14104,0.25965 0.22789,0.36879c0.37267,0.46833 0.82828,0.8492 1.15968,1.38171c0.04043,0.06495 0.03122,0.18098 0.08311,0.22929c0.02759,0.0257 0.06296,-0.0411 0.093,-0.06527c0.21051,-0.1694 0.41819,-0.34537 0.62902,-0.514c1.02851,-0.53591 1.92996,-1.32751 2.93203,-1.9906c0.19106,-0.12643 0.37029,-0.28465 0.55576,-0.42622c0.16929,-0.12921 0.4376,-0.06938 0.53979,-0.29198c0.043,-0.09369 -0.0074,-0.21545 0.00018,-0.32317c0.01659,-0.23613 0.04812,-0.47087 0.07218,-0.70629c0.05271,-0.5157 0.10541,-1.03142 0.15812,-1.54712c-0.02361,-0.04913 -0.03385,-0.08895 -0.03385,-0.08895l-0.10846,-0.42193c-0.02391,-0.09748 -0.05857,-0.191 -0.0779,-0.29017c-0.14146,0.29606 -0.67795,0.56394 -0.80259,0.75081c-0.08784,0.1317 -0.12547,0.32146 -0.22815,0.43205c-0.1027,0.1106 -0.24801,0.11639 -0.36209,0.20366c-0.18924,0.14478 -0.32237,0.40412 -0.51101,0.55039c-0.09941,0.07709 -0.21994,0.08973 -0.32005,0.16512c-0.18993,0.14303 -0.32237,0.40412 -0.51101,0.55039c-0.48828,0.37859 -0.89135,0.73988 -1.2933,1.30856c-0.19656,0.2117 -0.55797,0.64605 -0.80492,0.65734c-0.34067,0.01558 -0.79807,-0.64307 -0.98398,-0.95683c-0.07892,-0.13319 -0.15998,-0.26225 -0.24294,-0.38789c-0.53316,-0.38082 -1.15508,-0.5457 -1.70699,-0.87454z" fill="#525252"/><path d="M228.89762,178.80424c0.08296,0.12564 0.16313,0.25162 0.24204,0.3848c0.18591,0.31376 0.63676,0.9692 0.97743,0.95362c0.24696,-0.0113 0.60464,-0.44211 0.80121,-0.65383c0.40194,-0.56868 0.80387,-0.92455 1.29216,-1.30315c0.18864,-0.14626 0.32118,-0.40635 0.51111,-0.54939c0.1001,-0.07538 0.22065,-0.08792 0.32006,-0.165c0.18864,-0.14626 0.32188,-0.40503 0.51112,-0.54981c0.11409,-0.08728 0.25942,-0.093 0.3621,-0.2036c0.10269,-0.1106 0.14041,-0.29995 0.22825,-0.43165c0.12464,-0.18687 0.66123,-0.45443 0.80268,-0.75048c0.01934,0.09916 0.06564,0.18621 0.08954,0.28369l0.10859,0.42242c0,0 0.01026,0.03994 0.03386,0.08907c-0.05271,0.5157 -0.10521,1.03311 -0.15792,1.54881c-0.02406,0.23542 -0.05559,0.47101 -0.07219,0.70714c-0.00757,0.10771 0.04282,0.22986 -0.00018,0.32356c-0.10218,0.2226 -0.37055,0.16322 -0.53984,0.29243c-0.18546,0.14156 -0.3648,0.30052 -0.55587,0.42695c-1.00206,0.6631 -1.90698,1.46047 -2.93549,1.99638c-0.21082,0.16863 -0.42008,0.34535 -0.63059,0.51472c-0.03005,0.02418 -0.06563,0.09104 -0.09322,0.06534c-0.05188,-0.04832 -0.04282,-0.1643 -0.08325,-0.22927c-0.3314,-0.53251 -0.79084,-0.91428 -1.16351,-1.38262c-0.08685,-0.10914 -0.1326,-0.27573 -0.22892,-0.36978c-0.08773,-0.08565 -0.21613,-0.07637 -0.30779,-0.15455c-0.59027,-0.5034 -1.1266,-1.13273 -1.7233,-1.64311l-0.27362,-0.23447c-0.03961,-0.03555 -0.07421,-0.05734 -0.12584,-0.06367c-0.16977,-0.02079 -0.32632,0.1472 -0.3497,0.37603c-0.00711,0.06958 -0.00108,0.13642 0.01553,0.19675l0.10645,0.41345l0.00068,-0.00035c0.00056,0.64656 -0.02392,1.30645 -0.21113,1.89583c-0.05006,0.15761 -0.50353,0.60297 -0.61895,0.35454c-0.0447,-0.09622 -0.02101,-0.23347 -0.05983,-0.33441c-0.1301,-0.33828 -0.26503,-0.33725 -0.35555,-0.69461c-0.1006,-0.3971 0.01594,-0.83257 -0.0017,-1.22879c-0.00806,-0.18086 -0.09147,-0.34245 -0.09816,-0.52348c-0.01681,-0.45541 0.17616,-0.96825 0.15152,-1.42907c0.00063,-0.00459 0.00088,-0.0071 0.00088,-0.0071c0.0045,-0.055 0.00953,-0.11019 0.01443,-0.16517c0.15165,0.06109 0.32274,0.03426 0.48422,0.0293c0.22361,-0.00688 0.45365,0.08064 0.67604,0.09436c0.38989,0.26646 0.74928,0.58819 1.14959,0.82672c0.55191,0.32885 1.17388,0.49062 1.70704,0.87144z" data-paper-data="{&quot;noHover&quot;:false,&quot;origItem&quot;:[&quot;Path&quot;,{&quot;applyMatrix&quot;:true,&quot;segments&quot;:[[[443.00711,690.71721],[3.11369,-6.18565],[-2.2584,4.48652]],[[434.82177,703.75356],[2.60664,-4.40676],[0.16107,2.36427]],[[434.71713,710.86786],[-0.4084,-2.35489],[0.29489,1.70038]],[[435.07295,716.01475],[0.5068,-1.66805],[0.66246,-0.00766]],[[437.06015,715.98872],[-0.6622,0.01179],[0,0]],[[437.14603,715.99026],[-0.05569,-0.00154],[5.45612,-0.75779]],[[454.37852,716.04805],[-5.40326,0.66938],[2.14787,-0.26609]],[[460.46649,714.4466],[-2.14367,0.28035],[4.69648,-0.61421]],[[475.09189,713.10498],[-4.58593,1.4915],[4.12686,-1.3422]],[[482.84036,708.60214],[-3.84168,1.73971],[1.1463,-0.51911]],[[486.73408,707.6107],[-1.08151,0.5761],[2.79248,-1.4875]],[[481.70604,701.56821],[1.95157,0.35876],[-7.29763,-1.34152]],[[458.7726,701.39231],[7.70509,-0.70404],[0,0]],[458.77772,701.39905],[[453.99731,702.97091],[0,0],[-0.69482,0.24057]],[[451.67128,703.34763],[0.83979,0],[-2.76142,0]],[[446.67128,700.05949],[0,1.81599],[0,-0.55227]],[[447.24413,698.52983],[-0.36581,0.45693],[0,0]],[[449.63433,695.3861],[0,0],[5.21183,-6.85488]],[[466.63809,675.42537],[-5.13805,6.77932],[0.79786,-1.05273]],[[468.01938,672.01556],[-0.89274,1.01925],[0.98017,-1.11906]],[[472.08213,669.20989],[-1.17395,1.03527],[5.03779,-4.44267]],[[486.85702,655.46676],[-5.86295,4.07605],[0.71521,-0.49723]],[[489.46849,654.34127],[-0.50014,0.60023],[0.26603,-0.31927]],[[488.55479,653.42924],[0.33201,0.29132],[-2.32609,-2.04099]],[[481.51066,647.33898],[2.3175,2.04521],[-7.88843,-10.287]],[[453.50599,618.51294],[9.36575,9.87034],[-1.78576,-1.88197]],[[447.61507,613.10181],[1.95784,1.80644],[-1.78711,-1.64891]],[[443.34724,607.71442],[2.80217,0.83921],[-1.17942,-0.35322]],[[439.49534,608.06155],[1.29479,-0.03632],[-2.83847,0.07962]],[[430.97218,608.06155],[2.84105,0],[-6.22326,0]],[[412.30241,608.06155],[6.22326,0],[-0.55103,0.30239]],[411.29156,608.51514],[[406.42118,610.11659],[0,0],[-1.12691,0.35775]],[[403.07668,611.25284],[1.15365,-0.31126],[3.73508,1.17475]],[[413.19664,618.92113],[-2.40909,-1.11502],[1.69781,0.78581]],[[418.67899,620.86499],[-1.46806,-0.96543],[1.46806,0.96543]],[[421.63486,624.47034],[-1.20673,-1.11101],[2.00171,1.84293]],[[428.94042,629.27468],[-2.01857,-1.83496],[1.06388,0.96711]],[[431.37561,632.47757],[-1.04459,-0.97616],[1.98197,1.85214]],[[438.68117,637.28191],[-2.01857,-1.83496],[5.22497,4.74971]],[[456.16488,649.53206],[-7.36442,-3.63228],[2.81011,1.84801]],[[465.17423,657.32586],[-0.4951,-2.59676],[0.68297,3.58211]],[[455.20681,668.75418],[3.46813,-2.30284],[-1.47217,0.97752]],[[450.93856,671.73959],[1.37628,-1.01203],[-3.76048,6.04374]]],&quot;closed&quot;:true}]}" fill="#0e0d0c"/></g><g data-paper-data="{&quot;index&quot;:null}" fill-rule="nonzero" stroke="none" stroke-width="0.5" stroke-linecap="butt"><g><path d="M236.25531,174.27721c0.10783,0.09727 0.1985,0.21553 0.29075,0.4202c0.07762,0.17221 0.09015,0.37299 0.14258,0.55694c0.25648,0.89993 1.01272,2.62179 -0.26128,3.02196c-0.18448,0.05795 -0.38403,-0.01132 -0.5717,-0.05157c-0.30809,-0.06607 -0.60725,-0.23094 -0.87305,-0.46075c0.40455,0.62964 0.9574,1.06583 1.68178,0.95265c0.54668,-0.22126 1.19299,-0.84016 1.60489,-1.30728c0.12962,-0.14699 0.18407,-0.40869 0.35938,-0.47143c0.10384,-0.03716 0.85242,0.22664 0.97687,0.32828c0.5303,0.43312 0.87026,1.28712 1.13534,1.91995c0.10506,0.25082 0.29513,0.44568 0.41948,0.68492c1.14965,-0.05035 2.36914,0.19939 3.323,0.88427c0,0 0.02749,0.01996 0.06018,0.05712c0.09629,-0.10301 0.18891,-0.21646 0.27773,-0.33976c0.193,-0.26791 0.05861,-0.71613 0.05955,-1.00575c0.00096,-0.29479 0.07678,-0.59655 0.02078,-0.88421c-0.04633,-0.23791 -0.12205,-0.48468 -0.21343,-0.72541c-0.32853,-0.05447 -0.28992,-0.43225 -0.28992,-0.43225l0.02961,-0.0423c-0.01802,-0.07459 -0.03526,-0.14946 -0.05206,-0.22448c-0.01439,-0.02812 -0.02881,-0.05589 -0.04323,-0.08324c0,0 -0.07771,-0.14872 -0.04229,-0.3076c-0.13681,-0.62539 -0.28741,-1.24273 -0.65967,-1.76678c-0.16706,-0.23519 -0.3927,-0.40928 -0.58784,-0.61538c-0.53406,-0.56534 -1.13104,-1.10697 -1.7566,-1.52453c-0.25068,-0.16733 -0.42891,-0.37525 -0.71392,-0.44241c-0.79528,-0.1874 -1.57049,-0.13112 -2.36633,-0.00857c-0.36628,0.0564 -0.97663,0.01568 -1.30787,0.18697c-0.11015,0.05695 -0.17301,0.20125 -0.2843,0.25532c-0.1156,0.05615 -0.25501,0.01487 -0.37309,0.06401c-0.24953,0.10384 -0.48653,0.26465 -0.74944,0.30894c-0.36137,0.15294 -0.67425,0.3422 -1.02254,0.51711c-0.08207,0.04121 -0.19082,0.00991 -0.26178,0.07204c-0.14505,0.12703 -0.05007,0.40845 -0.071,0.61321c-0.02144,0.20986 -0.03012,0.40454 -0.02282,0.59947c0.04227,-0.10549 0.09125,-0.21754 0.14279,-0.34972c0.33336,-0.16138 0.58191,-0.34401 0.95371,-0.319c0.04647,0.00313 0.08823,0.04059 0.12991,0.07173c-0.02303,-0.08582 -0.01894,-0.19294 0.05251,-0.31639c0.19197,-0.3317 0.48627,-0.11805 0.48627,-0.11805c0.03207,0.02381 0.06269,0.0459 0.09203,0.06681l0.00135,-0.00059c0,0 0.20657,0.02531 0.28366,0.21552zM236.27107,176.399c-0.1328,-0.47319 -0.18426,-0.93764 -0.39218,-1.30997c-0.0171,0.01952 -0.03631,0.03677 -0.05816,0.05119c-0.09018,0.05952 -0.84819,0.04292 -1.07043,0.09451c-0.11383,0.70222 0.15016,1.45803 0.66147,1.91246c0.11139,0.099 0.91069,0.59331 1.01824,0.28493c0.1076,-0.3085 -0.08152,-0.75737 -0.15893,-1.03313zM240.01865,181.9019c-0.12025,-0.36994 0.2099,-0.50711 0.2099,-0.50711l0.34014,-0.09699c0.2536,0.03303 0.40501,0.00448 0.55851,-0.03782c-0.12942,-0.17514 -0.24497,-0.3628 -0.35738,-0.56783c-0.07713,0.00886 -0.15346,0.01913 -0.2288,0.03073l-0.34089,-0.02989c0,0 -0.34909,-0.04275 -0.309,-0.43498c0.04009,-0.39223 0.38917,-0.34947 0.38917,-0.34947l0.0545,0.01049c-0.08506,-0.12561 -0.16911,-0.25176 -0.22998,-0.39317c-0.1087,-0.25248 -0.17782,-0.53009 -0.31891,-0.76134c-0.14505,-0.23773 -0.38844,-0.68897 -0.59412,-0.85778c-0.0696,-0.05712 -0.17206,-0.03931 -0.24696,-0.08727c-0.04441,-0.02844 -0.05462,-0.16532 -0.09727,-0.13309c-0.06401,0.04839 -0.01112,0.1829 -0.05876,0.25106c-0.01573,0.02251 -0.56567,0.51448 -0.60989,0.55418c-0.44442,0.39909 -0.81017,0.76371 -1.34747,0.99044c-0.37008,0.05648 -0.59527,0.13233 -0.97759,-0.00897c-0.57458,-0.21234 -1.34255,-0.94272 -1.67252,-1.49744c-0.0282,-0.04739 -0.26756,-0.79223 -0.29841,-0.8871c-0.19199,-0.5906 -0.37516,-1.15218 -0.44735,-1.78017c-0.06375,-0.55459 -0.1069,-1.60489 0.27687,-2.05173c0.11577,-0.13479 0.30876,-0.14194 0.45736,-0.22673c0.3886,-0.2217 0.74224,-0.40163 1.15436,-0.57024c0.24298,-0.03324 0.45893,-0.19324 0.68881,-0.2886c0.10295,-0.04271 0.2259,0.00554 0.32652,-0.04372c0.11116,-0.05442 0.1723,-0.20318 0.28431,-0.25531c0.41734,-0.19427 1.04201,-0.17491 1.49053,-0.24398c0.87221,-0.13432 1.75433,-0.20477 2.62277,0.02221c0.42965,0.1123 0.51028,0.26392 0.90819,0.52996c0.67067,0.4484 1.30745,1.02492 1.88049,1.62885c0.04371,0.04618 0.63501,0.66902 0.65517,0.69741c0.49633,0.69868 0.65989,1.51959 0.8502,2.34798c0.23501,0.47622 0.46176,1.03376 0.55683,1.55461c0.06232,0.34148 -0.00329,0.69795 -0.00443,1.04693c-0.00106,0.32198 0.05661,0.65303 -0.01264,0.9659c-0.06948,0.31388 -0.29792,0.55916 -0.49019,0.80064c-0.18878,0.23711 -0.33667,0.5361 -0.58155,0.69572c-0.7994,0.52106 -1.7479,0.46529 -2.57959,0.1212c-0.05288,-0.03826 -0.10365,-0.07683 -0.15247,-0.11581c-0.02124,0.00178 -0.04223,0.00401 -0.06292,0.00675c-0.11274,0.01496 -0.20691,0.1101 -0.31724,0.14052c-0.40183,0.11083 -0.48642,0.05919 -0.89845,0.01135l-0.01943,0.05241c0,0 -0.33016,0.13717 -0.45042,-0.23278zM243.59013,181.43866c0.11494,-0.03492 0.22666,-0.08164 0.3351,-0.13958c-0.6836,-0.43847 -1.52103,-0.62719 -2.33591,-0.64511c0.11594,0.17427 0.24661,0.3345 0.41041,0.48529c0.46451,0.02644 0.97333,0.1629 1.40354,0.21559c0,0 0.10004,0.01225 0.18686,0.08381z" fill="#525252"/><path d="M243.40976,181.35786c-0.43021,-0.05269 -0.95251,-0.19133 -1.41701,-0.21777c-0.16379,-0.15079 -0.2942,-0.31414 -0.41013,-0.48841c0.81488,0.01792 1.66593,0.21039 2.34954,0.64886c-0.10844,0.05794 -0.22058,0.10621 -0.33551,0.14112c-0.08683,-0.07155 -0.18687,-0.0838 -0.18687,-0.0838z" data-paper-data="{&quot;noHover&quot;:false,&quot;origItem&quot;:[&quot;Path&quot;,{&quot;applyMatrix&quot;:true,&quot;segments&quot;:[[[229.42361,238.13379],[0,3.08092],[0,0]],[[229.80713,236.75155],[-0.38352,0.66581],[-0.30843,-0.78763]],[[228.67013,234.48225],[0.44835,0.72509],[-2.23314,5.15208]],[[226.41012,251.47048],[-0.51539,-5.77655],[1.00762,-0.94598]],[[229.1486,248.21684],[-0.82294,1.26755],[-0.1917,-3.30457]]],&quot;closed&quot;:true}]}" fill="#0e0d0c"/><path d="M236.27796,176.4005c0.07739,0.27577 0.26398,0.72931 0.15638,1.03782c-0.10755,0.30838 -0.91284,-0.18444 -1.02423,-0.28343c-0.5113,-0.45442 -0.77845,-1.22366 -0.6646,-1.92588c0.22225,-0.05159 0.98654,-0.03698 1.07672,-0.09649c0.02185,-0.01442 0.04137,-0.03158 0.05847,-0.0511c0.20792,0.37233 0.26447,0.8459 0.39727,1.31909z" data-paper-data="{&quot;noHover&quot;:false,&quot;origItem&quot;:[&quot;Path&quot;,{&quot;applyMatrix&quot;:true,&quot;segments&quot;:[[[195.78166,295.88295],[2.18352,-1.73976],[0.13606,0.10686]],[[196.14871,296.25737],[-0.1076,-0.14412],[0.44415,0.59487]],[[197.56891,303.76015],[-0.49609,-1.53462],[4.50823,0.29752]],[[209.09788,297.69916],[-2.46644,3.94494],[0.53733,-0.85942]],[[210.10648,290.29121],[2.02423,0.53783],[-2.025,-0.53804]],[[203.72549,292.16214],[1.67631,-0.74678],[-2.87635,1.28139]]],&quot;closed&quot;:true}]}" fill="#0e0d0c"/><path d="M235.97782,174.06539l-0.01372,-0.00682c-0.02934,-0.02091 -0.0476,-0.03557 -0.07967,-0.05939c0,0 -0.29408,-0.21414 -0.48605,0.11756c-0.07145,0.12346 -0.07537,0.23012 -0.05234,0.31593c-0.04167,-0.03115 -0.08344,-0.06858 -0.12991,-0.07171c-0.37181,-0.02501 -0.62011,0.15679 -0.95347,0.31817c-0.05155,0.13219 -0.1142,0.24074 -0.15648,0.34623c-0.00731,-0.19492 0.00154,-0.39032 0.02299,-0.60019c0.02092,-0.20476 -0.07384,-0.48687 0.07121,-0.6139c0.07095,-0.06213 0.17978,-0.03104 0.26185,-0.07225c0.34829,-0.17491 0.66173,-0.36532 1.0231,-0.51826c0.2629,-0.0443 0.50052,-0.206 0.75005,-0.30983c0.11808,-0.04914 0.2578,-0.00826 0.3734,-0.06441c0.1113,-0.05407 0.17461,-0.19881 0.28476,-0.25577c0.33124,-0.17129 0.94341,-0.1318 1.30969,-0.18821c0.79584,-0.12256 1.57564,-0.17915 2.37092,0.00824c0.28501,0.06716 0.46475,0.27577 0.71543,0.4431c0.62556,0.41757 1.22546,0.96268 1.75952,1.52802c0.19514,0.20609 0.42123,0.38153 0.58829,0.61671c0.37228,0.52406 0.52306,1.14427 0.65986,1.76967c-0.03541,0.15888 0.04225,0.30804 0.04225,0.30804c0.01442,0.02736 0.02882,0.05523 0.04321,0.08335c0.01681,0.07501 0.034,0.15019 0.05201,0.22478l-0.02962,0.04237c0,0 -0.03872,0.37822 0.28981,0.4327c0.09138,0.24072 0.16688,0.48822 0.2132,0.72615c0.05601,0.28765 -0.02018,0.59029 -0.02115,0.88509c-0.00095,0.28963 0.13297,0.73869 -0.06003,1.0066c-0.08883,0.1233 -0.1817,0.23714 -0.27799,0.34015c-0.03269,-0.03717 -0.06017,-0.05712 -0.06017,-0.05712c-0.95387,-0.68488 -2.17574,-0.93253 -3.32539,-0.88218c-0.12435,-0.23924 -0.31466,-0.43397 -0.41973,-0.68479c-0.26507,-0.63283 -0.60784,-1.48617 -1.13815,-1.9193c-0.12446,-0.10164 -0.87896,-0.3691 -0.98281,-0.33194c-0.17531,0.06274 -0.21823,0.31536 -0.34785,0.46235c-0.4119,0.46712 -1.06941,1.0956 -1.61609,1.31687c-0.72438,0.11318 -1.27833,-0.32554 -1.68289,-0.95517c0.26581,0.22981 0.57808,0.3891 0.88617,0.45517c0.18767,0.04024 0.37473,0.1168 0.5592,0.05885c1.274,-0.40018 0.51716,-2.12821 0.26068,-3.02814c-0.05243,-0.18396 -0.06465,-0.38569 -0.14227,-0.55791c-0.09225,-0.20467 -0.18273,-0.32334 -0.29056,-0.4206c-0.07709,-0.19021 -0.27125,-0.20817 -0.27125,-0.20817z" data-paper-data="{&quot;noHover&quot;:false,&quot;origItem&quot;:[&quot;Path&quot;,{&quot;applyMatrix&quot;:true,&quot;segments&quot;:[[[190.38099,293.80742],[-1.13798,0.68273],[0.52916,-0.83304]],[[192.80197,291.44721],[-1.21727,0.80044],[1.02425,-0.67352]],[[196.19804,290.03612],[-1.11755,0.50378],[5.46726,-2.4646]],[[215.42261,289.69976],[-3.50135,-8.72173],[0.50699,1.26288]],[[215.53874,293.78066],[0.10863,-1.35651],[-0.17833,2.22686]],[[213.31142,300.28874],[1.2417,-2.04611],[3.65162,-3.31658]],[[218.01175,287.70492],[1.27098,5.04171],[-1.81432,-3.70677]],[[208.54514,277.29851],[3.25808,2.57572],[-1.02525,-0.81052]],[[205.30045,275.09746],[0.53011,1.1946],[-0.31398,-0.70756]],[[206.61382,267.95069],[-0.54391,0.95371],[2.31767,-4.06389]],[[217.82454,258.53265],[-3.77924,2.33236],[1.49792,-0.92444]],[[221.81269,255.0706],[-1.4101,1.05246],[-1.20333,-8.09506]],[[224.81717,230.92779],[-3.57588,7.24175],[0,0]],[[225.13039,230.46087],[-0.20881,0.2581],[-0.72267,-0.60656]],[[222.7775,228.74215],[0.84463,0.53911],[-1.83533,-1.17146]],[[216.40035,229.04792],[1.82394,-0.20266],[-1.85649,0.20628]],[[210.81826,229.54013],[1.76754,-0.60407],[-1.46196,0.49963]],[[206.41638,231.57401],[1.44491,-0.8203],[-0.08961,2.36301]],[203.91895,233.93703],[[203.62983,233.75822],[0,0],[-0.45565,0.18138]],[[202.25687,234.28877],[0.45926,-0.17313],[-0.16597,0.12209]],[[201.76617,234.65462],[0.1611,-0.12173],[0,0]],[[199.86246,235.17619],[1.02748,0.1356],[-3.8314,1.41973]],[[189.2492,241.11915],[3.01191,-3.01191],[-1.35163,1.35163]],[[185.82865,245.72176],[1.14689,-1.52919],[-3.14701,4.18607]],[[177.58609,259.24823],[2.14627,-4.72643],[-0.86006,1.89398]],[[175.35157,264.61752],[0.20301,-2.06444],[-0.56647,5.76048]],[[177.12205,281.36084],[-1.3851,-5.5404],[0.63748,2.54991]],[[179.30738,290.47618],[-1.33366,-2.21907],[0.44351,0.73795]],[[181.13377,292.30257],[-0.42613,-0.74812],[0.44263,0.77709]],[[181.82441,294.89508],[-0.40035,-0.79969],[0.84602,1.6899]],[[184.34697,299.97252],[-0.48149,-1.82748],[1.24137,2.44537]],[[188.39046,306.83112],[-1.36958,-2.33698],[0.32275,0.55073]],[[189.04575,308.63053],[-0.44581,-0.45687],[0.91147,0.93408]],[[192.9606,308.68943],[-1.3051,0],[1.33766,0]],[[196.75189,308.41752],[-1.22139,0.19258],[-0.69664,-0.22271]],[[194.44027,307.66036],[0.87184,0.26904],[-1.27289,-2.24123]],[[191.69693,301.14534],[0.1292,2.64786],[-0.01615,-0.33102]],[[192.04832,300.17464],[-0.1639,0.31733],[-0.5225,0.22494]],[[190.01618,300.03196],[0.83227,0.41613],[-2.23607,-1.11803]],[[188.89814,296.67786],[0,0],[0.12519,-0.24404]],[[189.24776,295.97865],[-0.10898,0.2226],[0,0]],[189.24301,295.9695]],&quot;closed&quot;:true}]}" fill="#0e0d0c"/></g><path d="M244.25303,176.31132c0.06931,0.34882 0.19066,0.62603 0.30201,0.93137c0.01372,0.00031 0.02799,0.00134 0.04282,0.00315c0.34909,0.04275 0.309,0.435 0.309,0.435l-0.02869,-0.08442c0.18489,0.57594 0.50674,1.05517 0.69391,1.63237c0.07322,0.22581 0.24541,0.67032 0.19815,0.92704c-0.00293,0.01586 -0.0061,0.03165 -0.0095,0.04736l0.00722,0.00088c0,0 -0.00196,0.01931 -0.00512,0.05017c0.04922,-0.09116 0.08397,-0.20736 0.12885,-0.29442c0.25015,-0.48504 0.4768,-1.10437 0.48596,-1.67289c0.00869,-0.53931 -0.22995,-1.0519 -0.46611,-1.50203c-0.35348,-0.67374 -0.68993,-1.29325 -1.28569,-1.56749c-0.05224,0.04446 -0.09952,0.06409 -0.09952,0.06409c-0.38834,0.09721 -0.35465,0.62023 -0.27328,1.02982zM244.86911,180.56825c-0.39107,-0.56296 -0.66025,-1.38014 -0.81575,-2.08048c-0.05432,-0.2446 -0.00359,-0.51535 -0.08304,-0.75098c-0.05041,-0.14947 -0.16752,-0.263 -0.21598,-0.41329c-0.04351,-0.13491 -0.02368,-0.28724 -0.05484,-0.42645c-0.12364,-0.55232 -0.33751,-1.37973 -0.02307,-1.94106c-0.07005,-0.06341 -0.12761,-0.16829 -0.10999,-0.34068c0.04009,-0.39223 0.38917,-0.34948 0.38917,-0.34948l0.25503,0.03123c1.16341,0.14989 1.74951,1.01381 2.30754,2.08559c0.30368,0.58326 0.56972,1.21809 0.56214,1.91209c-0.00764,0.69991 -0.26969,1.46889 -0.58458,2.06446c-0.16022,0.30305 -0.36569,0.68618 -0.69886,0.79561c-0.18037,0.05925 -0.37446,-0.02571 -0.56169,-0.03857c0,0 -0.34909,-0.04275 -0.30901,-0.43499c0.00098,-0.00952 0.00214,-0.01879 0.00346,-0.02781z" fill="#525252"/><path d="M244.2488,176.30508c-0.08137,-0.40958 -0.11294,-0.93385 0.27541,-1.03106c0,0 0.04759,-0.01974 0.09984,-0.0642c0.59575,0.27424 0.93846,0.89522 1.29193,1.56896c0.23616,0.45013 0.47681,0.97194 0.46813,1.51125c-0.00915,0.56852 -0.24003,1.19223 -0.49017,1.67728c-0.0449,0.08706 -0.08024,0.20345 -0.12946,0.29461c0.00316,-0.03085 0.00178,-0.06547 0.00178,-0.06547l-0.00719,-0.00089c0.0034,-0.01571 0.00652,-0.03148 0.00944,-0.04734c0.04727,-0.25672 -0.1214,-0.68599 -0.19462,-0.9118c-0.18716,-0.5772 -0.5174,-1.06678 -0.70228,-1.64272l0.02834,0.08586c0,0 0.04128,-0.39549 -0.30781,-0.43824c-0.01482,-0.00181 -0.0292,-0.00266 -0.04293,-0.00297c-0.11133,-0.30533 -0.23111,-0.58445 -0.30041,-0.93327z" data-paper-data="{&quot;noHover&quot;:false,&quot;origItem&quot;:[&quot;Path&quot;,{&quot;applyMatrix&quot;:true,&quot;segments&quot;:[[[202.64968,232.95977],[-1.83618,1.00821],[-0.00863,-0.09734]],[[202.63654,232.65462],[0,0.10616],[0,-2.5]],[205.13654,230.15462],[[204.6273,230.41855],[0,0],[3.48302,-1.72394]],[[214.36806,224.33058],[-3.48915,1.74103],[1.36499,-0.68111]],[[220.05101,222.25899],[-1.65251,-0.14875],[0.10214,0.00919]],[[220.35647,222.29193],[-0.10151,-0.01272],[0,0]],[220.35647,222.24026],[[220.67621,222.24026],[-0.19666,0],[-0.6118,-0.28223]],[[218.72353,221.54169],[0.58266,0.25463],[-3.24624,-1.41863]],[[207.81807,219.31373],[3.58586,-0.34619],[-3.40165,0.32841]],[[198.72218,223.69627],[2.65148,-1.99575],[-3.96864,2.98718]],[[189.84611,233.92301],[1.26696,-4.41198],[0.32012,0.33743]],[[190.32629,234.58057],[0,0],[0.91132,2.67651]],[[197.01964,235.76911],[-2.5156,0.87161],[2.14232,-0.74228]]],&quot;closed&quot;:true}]}" fill="#0e0d0c"/></g><g data-paper-data="{&quot;index&quot;:null}" fill-rule="nonzero" stroke="none" stroke-width="0.5" stroke-linecap="butt"><path d="M235.97313,170.58709c0.11016,0.38918 0.26928,0.61886 0.50853,0.89783c0.04531,0.05283 0.06858,0.16746 0.12852,0.16751c0.05971,0.00005 0.05602,-0.13131 0.10569,-0.16735c0.12849,-0.09321 0.37392,-0.05257 0.40698,-0.23445c0.03366,-0.18514 -0.1237,-0.36706 -0.18881,-0.54915c-0.2041,-0.57085 -0.23437,-0.65872 -0.73938,-0.66909c0,0 -0.12259,-0.00528 -0.21502,-0.10504c-0.08497,0.21694 -0.08383,0.38665 -0.00653,0.65975zM236.62413,169.31872c0.50918,0.15609 0.6692,0.59763 0.86016,1.13175c0.0023,0.00644 0.00465,0.01297 0.00706,0.0196c0.18007,-0.40093 0.46829,-0.69257 0.87718,-0.699c0.14214,-0.00224 0.27224,0.132 0.40838,0.19801l0.09736,0.05437c0,0 0.08723,0.04873 0.14656,0.14953c1.54902,0.85689 3.0842,1.54131 4.72611,2.03254c0.47164,0.19337 1.13623,0.38852 1.56148,0.73239c0.17054,0.13791 0.39479,0.24481 0.47959,0.47093c0.06692,0.17845 -0.07553,0.36267 -0.09704,0.54909c-0.03373,0.29229 -0.02981,0.59318 -0.05771,0.88696c-0.06988,0.73585 -0.13222,1.47745 -0.23607,2.20435c-0.11669,0.81674 -0.31019,1.55786 -0.1788,2.41896c0,0 0.05426,0.36882 -0.24288,0.40598c-0.04009,0.00502 -0.07576,0.00264 -0.10747,-0.00522c-0.24183,0.63789 -0.70775,1.15297 -1.23484,1.419c-0.18631,0.09403 -0.37745,0.24887 -0.58442,0.20705c-0.17746,-0.03587 -0.31415,-0.24751 -0.43997,-0.41408c-0.35335,-0.46784 -0.47572,-0.99647 -0.4673,-1.57556l0.08279,-0.17351c-0.02969,-0.66436 -0.05129,-1.33706 0.0187,-1.97925c0.04888,-0.44851 0.08265,-0.91557 0.14288,-1.36255c0.02813,-0.20883 0.16147,-0.4051 0.11481,-0.61634c-0.03979,-0.18016 -0.29232,-0.10958 -0.44104,-0.14246c-0.67979,-0.15032 -1.28559,-0.49196 -1.94423,-0.73511c-0.18088,-0.10101 -0.58796,-0.25938 -0.76884,-0.3604c-0.31965,-0.17852 -0.61781,-0.48069 -0.937,-0.65923c-0.36557,-0.20448 -0.79333,-0.37633 -1.02353,-0.86237c-0.07072,-0.1493 -0.06424,-0.33013 -0.09175,-0.49596c-0.00491,-0.02956 -0.00931,-0.0597 -0.01322,-0.09034c-0.07662,0.03366 -0.16036,0.06721 -0.25042,0.11891c-0.12741,0.07314 -0.22415,0.26042 -0.36953,0.24703c-0.71238,-0.06561 -1.36662,-1.44174 -1.36095,-2.19922c0.00461,-0.61601 0.15016,-0.64297 0.4641,-1.04457l0.46491,0.02832c0,0 0.11281,0.01635 0.19787,0.11316c0.06614,0.00121 0.13199,0.00729 0.19706,0.02723zM244.56849,178.66375c0.00913,-1.16222 0.30762,-2.31234 0.41549,-3.44615c0.04219,-0.44338 0.01504,-1.04517 0.11479,-1.46392c0.01614,-0.06781 0.14049,-0.07336 0.12271,-0.14391c-0.01661,-0.06597 -0.11173,-0.00388 -0.16532,-0.02518c-0.08718,-0.03466 -0.16571,-0.10214 -0.25202,-0.14074c-0.39394,-0.17618 -0.78254,-0.36425 -1.18066,-0.52708c-1.71288,-0.51086 -3.31522,-1.23496 -4.93157,-2.13763l-0.24823,-0.20605c-0.49785,-0.18171 -0.60618,1.03641 -0.55512,1.47077c0.00957,0.08139 -0.018,0.17225 0.01719,0.24466c0.15039,0.30943 0.49108,0.39155 0.71651,0.51725c0.31966,0.17823 0.6178,0.48096 0.93701,0.65924c0.20806,0.11619 0.52017,0.22352 0.72823,0.33971c0.48467,0.17892 0.93757,0.45422 1.43068,0.60143c0.11377,0.03396 0.85431,0.1908 0.91926,0.2344c0.16568,0.11118 0.33179,0.2739 0.41344,0.48219c0.15401,0.39286 -0.0888,1.13558 -0.11512,1.53202c-0.05998,0.90351 -0.0987,1.77161 -0.09237,2.67097c0.01594,0.06517 0.01267,0.12622 0.00184,0.17779c0.0027,0.19767 0.00765,0.39703 0.01505,0.5988c0,0 0.00185,0.0507 -0.01108,0.11394c0.05315,0.12273 0.12358,0.24896 0.20569,0.41027c0.02411,0.04739 0.02731,0.14564 0.07097,0.14316c0.08759,-0.00499 0.14544,-0.10825 0.21953,-0.15972c0.51123,-0.35516 1.08423,-0.85091 1.09179,-1.6579c0,0 0.00627,-0.20094 0.13129,-0.28826z" fill="#525252"/><path d="M235.97571,169.92135c0.09242,0.09976 0.21599,0.10431 0.21599,0.10431c0.50501,0.01038 0.54428,0.10497 0.74838,0.67581c0.0651,0.18208 0.22155,0.36845 0.18789,0.55359c-0.03306,0.18187 -0.28154,0.14396 -0.41003,0.23717c-0.04968,0.03603 -0.04711,0.16762 -0.10682,0.16759c-0.05994,-0.00005 -0.08423,-0.1147 -0.12954,-0.16753c-0.23925,-0.27896 -0.4043,-0.51736 -0.51446,-0.90654c-0.0773,-0.2731 -0.07637,-0.44745 0.0086,-0.66439z" data-paper-data="{&quot;noHover&quot;:false,&quot;origItem&quot;:[&quot;Path&quot;,{&quot;applyMatrix&quot;:true,&quot;segments&quot;:[[[428.29653,249.70232],[2.53963,2.48528],[-0.88695,1.97961]],[[425.52357,252.53569],[0,0],[-7.83313,3.35814]],[[417.70827,266.57322],[0,-9.26089],[0,2.95396]],[[417.82607,275.4341],[-1.56019,-2.36818],[1.5327,2.32645]],[[425.49513,276.11458],[-2.5285,-0.4825],[0.97762,0.18656]],[[428.08169,277.77625],[-0.93268,0.38046],[0.93648,-0.38202]],[[429.15412,274.62198],[-0.41283,1.02512],[2.18006,-5.41338]],[[432.08448,258.86309],[0.45298,6.12931],[-0.31787,-4.30112]]],&quot;closed&quot;:true}]}" fill="#ffeb6e"/><path d="M244.44065,178.95842c-0.00756,0.807 -0.58262,1.30367 -1.09386,1.65884c-0.07408,0.05147 -0.13224,0.15478 -0.21982,0.15976c-0.04364,0.00249 -0.0469,-0.09575 -0.07102,-0.14315c-0.0821,-0.16131 -0.15275,-0.28752 -0.2059,-0.41025c0.01293,-0.06322 0.00943,-0.12875 0.00943,-0.12875c-0.00742,-0.20177 -0.01242,-0.40114 -0.01513,-0.59879c0.01083,-0.05157 0.01406,-0.11259 -0.00188,-0.17777c-0.00634,-0.89935 0.03069,-1.76696 0.09066,-2.67048c0.02632,-0.39643 0.26578,-1.13359 0.11177,-1.52645c-0.08166,-0.20829 -0.2465,-0.36556 -0.41219,-0.47673c-0.06494,-0.04359 -0.79584,-0.19977 -0.9096,-0.23373c-0.49312,-0.14721 -0.94531,-0.42405 -1.42997,-0.60296c-0.20806,-0.11619 -0.53148,-0.22986 -0.73953,-0.34605c-0.31922,-0.17827 -0.61728,-0.48119 -0.93694,-0.65942c-0.22543,-0.1257 -0.56607,-0.20791 -0.71647,-0.51734c-0.03519,-0.07242 -0.00753,-0.16352 -0.0171,-0.2449c-0.05105,-0.43436 0.05816,-1.65409 0.55601,-1.47237l0.24826,0.206c1.61634,0.90267 3.2269,1.62654 4.93979,2.1374c0.39811,0.16283 0.78832,0.3533 1.18225,0.52947c0.08631,0.03859 0.16501,0.10653 0.25219,0.1412c0.05359,0.0213 0.14878,-0.04062 0.1654,0.02536c0.01777,0.07056 -0.10653,0.07624 -0.12267,0.14405c-0.09975,0.41875 -0.07211,1.0235 -0.1143,1.46688c-0.10789,1.1338 -0.40862,2.28948 -0.41775,3.4517c-0.12502,0.08731 -0.13163,0.28853 -0.13163,0.28853z" data-paper-data="{&quot;noHover&quot;:false,&quot;origItem&quot;:[&quot;Path&quot;,{&quot;applyMatrix&quot;:true,&quot;segments&quot;:[[[657.04642,381.49437],[0,0],[4.62661,9.90368]],[[683.36858,395.78934],[-9.97259,-1.50293],[1.44514,0.21779]],[[687.69104,396.5235],[-1.39648,0.43093],[0.69604,-0.21479]],[[687.99997,394.36016],[-0.11213,0.71975],[0.38164,-2.4498]],[[688.92201,388.14704],[-0.14482,1.81148],[-0.55534,-0.70664]],[[688.1125,386.80499],[0,0],[-1.0114,-2.52849]],[[685.00235,379.34017],[1.06204,2.45139],[-0.45725,-0.5747]],[[684.03792,377.13874],[0.11497,0.89292],[-4.92546,-11.1202]],[[667.67276,344.73829],[5.98483,10.79863],[-2.62594,-4.73807]],[[657.31503,326.50353],[-0.21166,5.70793],[0.11222,-3.02632]],[[661.08161,318.2359],[-1.96776,2.30198],[0.77141,-0.90243]],[[674.13622,310.17835],[-1.58787,1.05821],[6.8829,-4.587]],[[693.13166,294.7216],[-6.57368,4.93026],[2.60189,-2.60189]],[[702.61288,286.44017],[-2.60189,2.60189],[3.99202,-3.99202]],[[713.57123,273.04664],[-3.99918,3.99409],[2.82019,-2.8166]],[[721.87737,262.64306],[-0.6213,4.65927],[0.1454,-1.09041]],[[720.77921,259.53094],[0.30521,1.05687],[-1.6289,-5.64052]],[[703.88827,244.52507],[6.76412,-5.03876],[0,0]],[[701.16079,248.46027],[0,0],[-20.21351,20.21351]],[[636.04404,302.53496],[23.91098,-15.92721],[-5.31112,4.24538]],[[620.54007,315.66967],[5.17134,-4.38641],[-1.13297,0.961]],[[617.38854,318.82119],[1.16859,-0.91735],[-0.71824,0.56382]],[[614.94591,320.06111],[-0.10883,-0.9066],[0.11639,0.9695]],[[617.66749,321.14479],[-0.63125,-0.74498],[3.89793,4.60022]],[[627.63949,338.54218],[-3.13622,-5.22739],[8.01997,13.36755]],[[653.38438,378.67981],[-6.6356,-14.27295],[2.44136,0.3732]]],&quot;closed&quot;:true}]}" fill="#0e0d0c"/></g><g><path d="M254.38825,183.19185c-0.59876,2.33327 -2.0579,3.78965 -4.3774,4.3691c-2.40531,0.36311 -4.31456,-0.44035 -5.72766,-2.41035c-1.16471,-1.99605 -1.16869,-4.00119 -0.01199,-6.01548c1.30279,-1.84537 3.07929,-2.67145 5.32949,-2.47821c2.26589,0.3765 3.79678,1.63366 4.59275,3.77149c0.27226,0.90606 0.3372,1.82721 0.19481,2.76346z" fill="#0c0608" fill-rule="evenodd" stroke="none" stroke-width="1" stroke-linecap="butt"/><path d="M245.88117,186.35937c2.126,0.91023 4.11823,0.68853 5.97668,-0.66511c1.02507,-0.82379 1.77769,-1.84799 2.2578,-3.07255c-0.25553,1.98435 -1.27925,3.41484 -3.07114,4.29146c-1.8145,0.72456 -3.5356,0.53994 -5.16333,-0.55379z" fill="#feffb1" fill-rule="evenodd" stroke="none" stroke-width="1" stroke-linecap="butt"/><path d="M254.11564,182.62171c-0.48011,1.22455 -1.23273,2.24875 -2.2578,3.07255c-1.85845,1.35365 -3.85066,1.57535 -5.97668,0.66512c-1.35062,-1.02248 -2.07615,-2.38067 -2.17664,-4.07465c-0.00733,-0.28444 0.01689,-0.56566 0.07258,-0.84361c0.66695,-1.93096 1.98381,-3.1718 3.95053,-3.72262c1.24498,-0.23023 2.45433,-0.08977 3.62807,0.42138c0.82022,0.39627 1.54698,0.91751 2.18028,1.56368c0.49302,0.91127 0.68625,1.88397 0.57967,2.91815z" fill="#ffeb6e" fill-rule="evenodd" stroke="none" stroke-width="1" stroke-linecap="butt"/><path d="M253.53597,179.70355c-0.6333,-0.64617 -1.36006,-1.1674 -2.18028,-1.56367c-1.17373,-0.51116 -2.38307,-0.65163 -3.62807,-0.42138c-1.96672,0.55082 -3.28358,1.79166 -3.95053,3.72262c0.33085,-2.03171 1.44931,-3.43265 3.35534,-4.20282c2.13416,-0.67443 4.00505,-0.22943 5.61265,1.33498c0.32185,0.3369 0.58548,0.71364 0.79088,1.13027z" fill="#fec900" fill-rule="evenodd" stroke="none" stroke-width="1" stroke-linecap="butt"/><path d="M249.48594,181.80124c-0.04933,0.07439 -0.12003,0.11584 -0.21206,0.12442c-0.14919,0.01929 -0.29425,0.00292 -0.43514,-0.0491c0.05375,-0.01102 0.11128,-0.01041 0.17267,0.00188c-0.06784,-0.02778 -0.12607,-0.06327 -0.17469,-0.10646c0.2144,0.10035 0.4308,0.1101 0.64923,0.02926z" fill="#79527e" fill-rule="evenodd" stroke="none" stroke-width="1" stroke-linecap="butt"/><path d="M249.55229,180.36664c-0.24909,-0.10909 -0.50035,-0.11818 -0.7538,-0.02724c0.10205,-0.1122 0.23196,-0.15831 0.38966,-0.13833c0.0648,0.01443 0.12959,0.02889 0.19439,0.04332c0.07705,0.02538 0.13363,0.06616 0.16977,0.12227z" fill="#916796" fill-rule="evenodd" stroke="none" stroke-width="1" stroke-linecap="butt"/><path d="M248.83875,181.87657c-0.11737,-0.07792 -0.22891,-0.16468 -0.3346,-0.2603c-0.05481,-0.07867 -0.0861,-0.16352 -0.09386,-0.25451c0.08748,0.19208 0.22962,0.3288 0.42643,0.41021c0.04862,0.0432 0.10684,0.07869 0.1747,0.10647c-0.06138,-0.01229 -0.11891,-0.0129 -0.17267,-0.00188z" fill="#a87fae" fill-rule="evenodd" stroke="none" stroke-width="1" stroke-linecap="butt"/><path d="M248.67418,184.18143c-0.23958,-0.30575 -0.54482,-0.40095 -0.91574,-0.28565c-0.02295,-0.0444 -0.01308,-0.07599 0.02956,-0.09473c0.34777,-0.07617 0.64249,0.01576 0.88416,0.2758c0.01985,0.03477 0.02052,0.06965 0.00203,0.10458z" fill="#976e9d" fill-rule="evenodd" stroke="none" stroke-width="1" stroke-linecap="butt"/><g fill-rule="evenodd" stroke="none" stroke-width="1" stroke-linecap="butt"><path d="M250.48619,182.18535c-0.01277,-0.24051 0.00948,-0.48366 0.06678,-0.72954c0.04758,-0.22281 0.06477,-0.44974 0.05154,-0.6807c0.02642,-0.02751 0.05289,-0.05495 0.07932,-0.08245c0.13192,0.28828 0.18908,0.59195 0.1714,0.91103c-0.01307,0.27078 -0.1361,0.46463 -0.36903,0.58165z" fill="#191409"/><path d="M249.95022,184.59086c-0.12802,0.45922 -0.39338,0.82313 -0.7961,1.09162c0.18282,-0.42095 0.34437,-0.85294 0.48465,-1.29597c0.13638,0.02464 0.2402,0.09271 0.31144,0.20435z" fill="#1b160c"/><path d="M250.48619,182.18535c-0.08731,0.06495 -0.16566,0.05837 -0.23504,-0.01972c0.1142,-0.22727 0.2148,-0.46388 0.30182,-0.70983c-0.0573,0.24588 -0.07956,0.48903 -0.06678,0.72954z" fill="#8f843d"/><path d="M248.47321,185.20208c0.32119,-0.29188 0.41153,-0.63888 0.27112,-1.04099c0.06717,0.01183 0.11909,0.04589 0.15572,0.10217c0.0569,0.35971 -0.03959,0.66903 -0.28948,0.92806c-0.04424,0.02651 -0.09001,0.03013 -0.13735,0.01076z" fill="#9c8d50"/><path d="M248.47321,185.20208c-0.52156,0.21582 -0.90216,0.06135 -1.14181,-0.46336c-0.02733,-0.29227 0.04579,-0.55535 0.21937,-0.78914c0.09044,-0.05439 0.18404,-0.09669 0.28075,-0.12682c0.36739,-0.09905 0.67672,-0.00255 0.92805,0.28949c-0.00507,0.01627 -0.01016,0.03258 -0.01523,0.04884c0.14042,0.40211 0.05007,0.74911 -0.27112,1.04099z" fill="#0c0907"/><path d="M249.37799,181.78606c-0.20874,0.02879 -0.41428,0.00042 -0.61662,-0.08515c-0.12772,-0.10174 -0.23258,-0.22381 -0.31458,-0.36612c-0.09158,-0.36897 0.00492,-0.67835 0.28948,-0.92806c0.05392,-0.00103 0.09667,-0.02345 0.12817,-0.06721c0.24665,-0.0548 0.4898,-0.03256 0.72954,0.06677c0.35951,0.30182 0.43396,0.66454 0.22339,1.08804c-0.11286,0.14772 -0.25933,0.24492 -0.43938,0.29172z" fill="#0a0807"/><path d="M249.48151,181.28238c-0.02032,0.06511 -0.04063,0.13027 -0.06095,0.19538c-0.08142,-0.0254 -0.1628,-0.05079 -0.24423,-0.07618c0.02032,-0.06511 0.04063,-0.13027 0.06095,-0.19538c0.08142,0.0254 0.1628,0.05079 0.24423,0.07618z" fill="#d9d8d7"/><path d="M248.33563,184.78399c-0.02032,0.06511 -0.04063,0.13027 -0.06095,0.19537c-0.1116,-0.01423 -0.18287,-0.07222 -0.21375,-0.17388c0.08321,-0.06607 0.1748,-0.07324 0.2747,-0.0215z" fill="#e8e8e8"/><path d="M249.37799,181.78606c-0.08071,0.11697 -0.19055,0.15415 -0.3296,0.11158c-0.11262,-0.05132 -0.20828,-0.11685 -0.28702,-0.19673c0.20234,0.08557 0.40788,0.11394 0.61662,0.08515z" fill="#766b30"/><path d="M248.75956,184.11226c-0.25133,-0.29204 -0.56068,-0.38854 -0.92805,-0.28949c0.03273,-0.09221 0.09936,-0.13398 0.19986,-0.12525c0.18928,0.02329 0.36834,0.07915 0.5373,0.1676c0.10202,0.06125 0.16563,0.14363 0.1909,0.24714z" fill="#958949"/><path d="M249.59398,180.4063c-0.23974,-0.09933 -0.48289,-0.12157 -0.72954,-0.06677c0.06667,-0.06888 0.14956,-0.10557 0.2487,-0.11002c0.18459,0.01428 0.34485,0.07322 0.48084,0.17679z" fill="#7a7245"/><path d="M248.73628,180.40674c-0.28457,0.2497 -0.38107,0.55909 -0.28948,0.92806c-0.13714,-0.15625 -0.15404,-0.33126 -0.05064,-0.52498c0.06862,-0.17428 0.16264,-0.33254 0.2821,-0.47478c0.01023,0.03299 0.02958,0.05688 0.05803,0.0717z" fill="#c7b964"/></g><path d="M246.48615,180.74354c0,0 -0.73363,0.93464 -0.86454,1.35433c-0.15117,0.48462 0.00952,1.3867 0.00952,1.3867" fill="none" fill-rule="nonzero" stroke="#000000" stroke-width="0.5" stroke-linecap="round"/><g stroke="none" stroke-width="1" stroke-linecap="butt"><path d="M255.10572,185.30119c-0.07868,-0.02367 -0.15734,-0.04733 -0.23602,-0.071c0.01754,-0.06983 0.05221,-0.12802 0.10401,-0.17462c0.09613,0.0383 0.19529,0.05093 0.29741,0.03801c0.03883,0.05621 0.03249,0.10578 -0.019,0.14871c-0.05499,0.01259 -0.10381,0.03224 -0.14641,0.05891z" fill="#4a4b4b" fill-rule="evenodd"/><path d="M252.81116,185.22856c0.42003,-0.01344 0.8347,0.0341 1.244,0.14263c0.34806,-0.0234 0.69352,-0.03102 1.03638,-0.02278c0.0004,0.08171 -0.05237,0.14305 -0.15832,0.18401c-0.72409,-0.05853 -1.45039,-0.09688 -2.17887,-0.11504c0.01893,-0.06292 0.03788,-0.12589 0.05681,-0.18881z" fill="#4c4c4c" fill-rule="evenodd"/><path d="M250.82993,188.90501c-0.09152,0.08638 -0.17185,0.18231 -0.24102,0.28782c-0.11382,0.10799 -0.23822,0.20784 -0.37323,0.29952c-0.09638,0.0721 -0.20184,0.10899 -0.31644,0.1107c0.07495,-0.09651 0.04033,-0.12413 -0.10381,-0.08271c-0.18945,-0.18986 -0.14218,-0.26144 0.14181,-0.21471c-0.02636,-0.05354 -0.06884,-0.08346 -0.12741,-0.0898c0.02853,-0.09772 0.04121,-0.19685 0.03801,-0.29741c0.03879,0.03498 0.0687,0.07827 0.0896,0.12991c0.04652,-0.07012 0.07803,-0.14645 0.09462,-0.22892c-0.00238,0.13569 0.00697,0.27574 0.028,0.42023c0.21459,-0.15256 0.39888,-0.33736 0.55285,-0.55434c0.0765,-0.02228 0.15205,-0.01675 0.22662,0.01671c-0.01075,0.06481 -0.04304,0.11518 -0.09691,0.15101c0.02145,0.03034 0.05056,0.04769 0.0873,0.05201z" fill="#292f2a" fill-rule="evenodd"/><path d="M255.55978,184.30532c-0.20626,0.2362 -0.40161,0.48629 -0.58606,0.75025c-0.05181,0.04659 -0.08647,0.1048 -0.10401,0.17462c0.07868,0.02367 0.15734,0.04733 0.23602,0.071c-0.00473,0.01573 -0.00948,0.03149 -0.01421,0.0472c-0.34285,-0.00823 -0.68831,-0.00061 -1.03638,0.02279c-0.40929,-0.10852 -0.82396,-0.15606 -1.244,-0.14263c-0.09783,0.02472 -0.15298,0.09394 -0.16542,0.20761c0.06431,0.00715 0.10678,0.03707 0.12741,0.0898c-0.01573,-0.00473 -0.03148,-0.00947 -0.0472,-0.0142c-0.15439,-0.00239 -0.2119,0.07467 -0.17251,0.23122c-0.0402,0.02651 -0.07564,0.05878 -0.10631,0.09671c-0.05794,-0.10751 -0.15076,-0.16977 -0.27842,-0.18671c-0.07088,0.09697 -0.14339,0.19531 -0.21742,0.29491c-0.00012,-0.08414 0.01572,-0.16519 0.0474,-0.24311c-0.07336,-0.02305 -0.13943,-0.06008 -0.19821,-0.11111c-0.12483,0.10143 -0.17518,0.06913 -0.15101,-0.09691c0.0472,0.0142 0.0944,0.02841 0.14161,0.04261c0.08063,0.01325 0.14671,0.05032 0.19822,0.11111c0.05138,-0.0861 0.08768,-0.17815 0.10881,-0.27612c0.0472,0.0142 0.09441,0.02841 0.14161,0.04261c-0.01893,0.06292 -0.03788,0.1259 -0.0568,0.18882c0.07869,0.02367 0.15733,0.04734 0.23602,0.07101c0.02841,-0.09441 0.0568,-0.18882 0.0852,-0.28323c-0.30998,-0.1104 -0.30523,-0.12616 0.01421,-0.0472c0.02367,-0.07869 0.04734,-0.15733 0.071,-0.23602c-0.24701,-0.09146 -0.24226,-0.10723 0.01421,-0.0472c0.02367,-0.07869 0.04734,-0.15732 0.071,-0.23602c-0.20797,-0.06035 -0.21659,-0.08869 -0.0259,-0.08501c0.04011,-0.0339 0.07007,-0.07636 0.0898,-0.12741c0.00481,-0.15118 0.00022,-0.30699 -0.01379,-0.46744c0.10138,-0.14498 0.15897,-0.30782 0.17272,-0.48853c-0.00513,-0.04932 -0.02715,-0.09027 -0.066,-0.12282c-0.07488,0.02647 -0.12997,0.00991 -0.16522,-0.0497c0.08645,-0.023 0.16987,-0.01504 0.25022,0.0238c0.02403,-0.06637 0.02727,-0.13407 0.00961,-0.20301c0.0734,-0.03403 0.13166,-0.08516 0.17482,-0.15331c-0.05242,0.25139 -0.07623,0.50161 -0.07141,0.75066c0.06106,-0.11783 0.10681,-0.24136 0.13722,-0.37053c0.2563,0.09363 0.51277,0.15366 0.76946,0.18003c0.57804,0.0548 1.14767,0.15755 1.70893,0.30825c0.01893,-0.06292 0.03788,-0.1259 0.0568,-0.18882c-0.26559,-0.08845 -0.53544,-0.16104 -0.80956,-0.21782c-0.56935,-0.02798 -1.11142,-0.16533 -1.62622,-0.41205c-0.02367,0.07869 -0.04733,0.15733 -0.071,0.23602c-0.05275,-0.16377 -0.02586,-0.31009 0.08061,-0.43903c0.24323,0.17299 0.5201,0.30776 0.83066,0.40434c0.36985,0.04976 0.73808,0.10907 1.10468,0.17793c0.17147,0.06148 0.33982,0.12926 0.50504,0.20342c0.02367,-0.07869 0.04734,-0.15733 0.071,-0.23602c-0.17289,-0.07708 -0.34908,-0.14729 -0.52864,-0.21052c-0.36148,-0.03777 -0.72183,-0.0947 -1.08108,-0.17082c-0.17955,-0.06323 -0.35575,-0.13344 -0.52864,-0.21052c0.04631,-0.0326 0.09824,-0.03413 0.15581,-0.00459c0.66014,0.13736 1.31472,0.29996 1.96374,0.48786c0.0268,-0.05999 0.02763,-0.11982 0.0025,-0.17942c-0.15058,-0.08952 -0.30868,-0.16283 -0.47433,-0.21992c-0.66746,-0.08144 -1.30944,-0.25739 -1.92593,-0.52797c-0.08328,0.20185 -0.01255,0.30894 0.21221,0.32122c-0.09694,0.02031 -0.19609,0.00767 -0.29742,-0.03801c-0.00791,0.05178 -0.02994,0.09662 -0.0662,0.13451c0.00311,-0.11488 -0.03614,-0.2125 -0.11781,-0.29282c-0.02045,0.01099 -0.04096,0.02201 -0.06141,0.033c0.06209,-0.20688 -0.01648,-0.31634 -0.23581,-0.32833c-0.03359,0.26292 -0.07785,0.52412 -0.13282,0.78365c0.05178,0.00791 0.09662,0.02995 0.13451,0.06621c-0.12054,0.05521 -0.22213,0.13619 -0.30473,0.2429c-0.11888,0.47981 -0.25301,0.95423 -0.40245,1.42321c-0.0624,0.16397 -0.14123,0.31183 -0.23643,0.44363c0.1837,-0.55446 0.33368,-1.10992 0.44986,-1.66632c0.30036,-1.53643 0.39757,-3.08576 0.29169,-4.64806c-0.04098,-0.19605 -0.09589,-0.38414 -0.1648,-0.56435c0.00647,-0.13758 -0.03145,-0.25375 -0.11375,-0.34854c0.01525,-0.15362 -0.04311,-0.30343 -0.15201,-0.40651c0.00311,-0.0086 0.006,-0.01733 0.00868,-0.0262c0.00478,-0.01592 0.00873,-0.03189 0.01186,-0.04787c0.00871,0.00564 0.01748,0.01126 0.02633,0.01685c0.64349,0.20706 1.27679,0.4405 1.89984,0.70028c0.27752,0.1801 0.54099,0.38805 0.79035,0.62387c0.26201,0.35818 0.51194,0.72511 0.74984,1.10069c0.12937,0.09755 0.25205,0.20308 0.36803,0.31663c0.09728,0.28063 0.17339,0.56949 0.22831,0.86657c-0.09375,0.51836 -0.21377,1.03136 -0.36005,1.53892c-0.01713,0.24564 -0.00472,0.48956 0.0372,0.73186c-0.04501,0.3103 -0.16956,0.58168 -0.37364,0.81416z" fill="#0e0d0c" fill-rule="nonzero"/><path d="M255.80743,181.60012c-0.43054,-0.16171 -0.86874,-0.30214 -1.3146,-0.42124c-0.23427,-0.21081 -0.45915,-0.4329 -0.67463,-0.66627c-0.13524,-0.10241 -0.28548,-0.17334 -0.45073,-0.21282c-0.03345,0.07456 -0.03899,0.15011 -0.01671,0.22662c0.10199,0.05626 0.20975,0.09723 0.32332,0.12301c-0.12303,-0.00047 -0.25053,-0.00449 -0.38244,-0.01211c-0.01099,-0.02045 -0.02201,-0.04096 -0.033,-0.0614c-0.05848,0.07393 -0.10814,0.1534 -0.14892,0.23831c0.01596,0.1355 -0.01954,0.25351 -0.10651,0.35403c0.09843,0.0761 0.14557,0.17608 0.1414,0.29992c0.07423,-0.05679 0.15449,-0.06692 0.24081,-0.0305c-0.01353,0.05168 -0.01197,0.10363 0.00459,0.15581c0.07503,0.05706 0.14423,0.11222 0.20761,0.16541c-0.08636,-0.04061 -0.16973,-0.04855 -0.25022,-0.02381c0.00244,0.08397 -0.00553,0.16739 -0.02381,0.25022c-0.02221,0.04438 -0.01591,0.08056 0.0188,0.10861c-0.01893,0.06292 -0.03788,0.1259 -0.0568,0.18882c-0.00626,0.04322 -0.03145,0.06997 -0.07561,0.08021c-0.01136,-0.27074 -0.07428,-0.28966 -0.18882,-0.0568c-0.25641,-0.14304 -0.28539,-0.33192 -0.08689,-0.56665c-0.09202,-0.09795 -0.14229,-0.21603 -0.15081,-0.35424c0.02745,-0.01306 0.05032,-0.03191 0.0685,-0.0566c-0.01913,-0.35662 -0.01413,-0.71545 0.01502,-1.07648c0.06932,-0.02696 0.13697,-0.02375 0.20302,0.00961c0.04009,-0.08724 0.04015,-0.17298 0.0002,-0.25733c-0.03812,0.04253 -0.04449,0.0921 -0.019,0.14872c-0.18804,0.01349 -0.24773,-0.07315 -0.17921,-0.25983c0.0472,0.0142 0.09441,0.02841 0.14161,0.04261c0.06112,-0.16465 0.02654,-0.19226 -0.10381,-0.08271c-0.05931,-0.25819 -0.09059,-0.52497 -0.0938,-0.80037c0.08011,-0.03221 0.13045,0.00012 0.15101,0.09691c0.05079,-0.08653 0.12476,-0.1329 0.22202,-0.13911c0.23599,0.00316 0.47049,0.02223 0.70346,0.05721c0.25372,0.0979 0.4228,0.27746 0.50713,0.53865c-0.03465,0.01346 -0.06849,0.01187 -0.10151,-0.0048c-0.31107,-0.32508 -0.69501,-0.47488 -1.15169,-0.44945c0.69238,0.08066 1.15008,0.44141 1.37309,1.08231c-0.16012,-0.23575 -0.33069,-0.46725 -0.51173,-0.69446c-0.27546,-0.12092 -0.56341,-0.19041 -0.86386,-0.20843c0.01259,0.055 0.03224,0.10381 0.0589,0.14641c0.00624,0.03621 0.01256,0.07239 0.0188,0.10861c-0.0182,0.04579 -0.01427,0.08985 0.0117,0.1322c0.21557,0.08199 0.43108,0.16402 0.64664,0.24603c0.24551,0.29846 0.48056,0.60082 0.70515,0.90708c-0.08549,-0.02526 -0.15707,-0.07253 -0.21471,-0.14181c-0.15721,-0.21886 -0.31442,-0.43779 -0.47163,-0.65665c-0.09846,-0.04882 -0.19365,-0.1032 -0.28552,-0.16312c-0.10968,-0.00073 -0.21907,-0.00789 -0.32812,-0.02151c0.0154,0.07881 0.02555,0.15908 0.0305,0.24081c0.21637,0.10021 0.42006,0.22151 0.61114,0.36403c0.22478,0.34323 0.53069,0.58115 0.91776,0.71367c0.37603,0.01326 0.69698,0.14416 0.96286,0.39264z" fill="#1a1a1b" fill-rule="evenodd"/><path d="M254.51956,180.23459c-0.223,-0.6409 -0.6807,-1.00165 -1.37309,-1.08231c0.45667,-0.02543 0.84061,0.12438 1.15169,0.44945c0.08683,0.23543 0.21256,0.44483 0.37722,0.62825c0.04249,0.1111 0.12033,0.19455 0.23352,0.25042c0.31211,0.10522 0.6268,0.19991 0.94408,0.28403c0.12373,0.06609 0.21495,0.16217 0.27363,0.28823c-0.10531,-0.04743 -0.206,-0.11201 -0.30202,-0.19382c-0.50752,-0.06318 -0.94253,-0.27128 -1.30499,-0.62427z" fill="#323232" fill-rule="evenodd"/><path d="M252.31194,183.63703c-0.11618,0.5564 -0.26616,1.11186 -0.44986,1.66632c-0.02367,0.07869 -0.04733,0.15733 -0.07101,0.23602c-0.0472,-0.0142 -0.09441,-0.02841 -0.14161,-0.04261c0.264,-0.60407 0.48484,-1.22397 0.66248,-1.85973z" fill="#241e09" fill-rule="evenodd"/><path d="M253.93606,183.71385c-0.25668,-0.02638 -0.51316,-0.08638 -0.76945,-0.18002c-0.03041,0.12917 -0.07615,0.25269 -0.13722,0.37053c-0.00481,-0.24905 0.019,-0.49926 0.07141,-0.75066c-0.04316,0.06814 -0.10141,0.11929 -0.17482,0.15331c0.01765,0.06893 0.01443,0.13664 -0.00961,0.20301c-0.08035,-0.03885 -0.16377,-0.0468 -0.25022,-0.02381c0.03525,0.05961 0.09033,0.07619 0.16521,0.04971c0.03886,0.03255 0.06087,0.07349 0.06601,0.12281c-0.01375,0.18072 -0.07134,0.34356 -0.17272,0.48854c0.01401,0.16045 0.01862,0.31626 0.01379,0.46743c-0.01974,0.05104 -0.0497,0.0935 -0.0898,0.12741c-0.1907,-0.00369 -0.18207,0.02465 0.0259,0.08501c-0.02367,0.07869 -0.04733,0.15733 -0.071,0.23602c-0.25647,-0.06002 -0.26121,-0.04426 -0.01421,0.0472c-0.02367,0.07869 -0.04734,0.15733 -0.071,0.23602c-0.31942,-0.07897 -0.32419,-0.0632 -0.01421,0.0472c-0.02841,0.09441 -0.05679,0.18881 -0.0852,0.28323c-0.07869,-0.02367 -0.15733,-0.04733 -0.23602,-0.07101c0.01893,-0.06292 0.03788,-0.1259 0.0568,-0.18882c-0.0472,-0.0142 -0.09441,-0.02841 -0.14161,-0.04261c-0.02113,0.09799 -0.05742,0.19002 -0.10881,0.27612c-0.05152,-0.0608 -0.11757,-0.09786 -0.19821,-0.11111c0.02367,-0.07869 0.04733,-0.15733 0.07101,-0.23602c0.09519,-0.13181 0.17402,-0.27966 0.23643,-0.44363c0.14943,-0.46898 0.28357,-0.94338 0.40244,-1.4232c0.08261,-0.10672 0.18418,-0.18771 0.30473,-0.24291c-0.03789,-0.03626 -0.08274,-0.0583 -0.13451,-0.0662c0.05497,-0.25953 0.09922,-0.52073 0.13283,-0.78365c0.21933,0.01199 0.2979,0.12144 0.23581,0.32833c0.02045,-0.01099 0.04096,-0.02201 0.06141,-0.033c0.08167,0.08032 0.12092,0.17794 0.1178,0.29282c0.03626,-0.03789 0.05831,-0.08274 0.06621,-0.13451c0.10132,0.04567 0.20048,0.05831 0.29742,0.038c0.09441,0.01379 0.16835,0.05317 0.22181,0.11821c-0.05757,-0.02953 -0.1095,-0.028 -0.15581,0.00459c-0.11014,-0.03313 -0.22029,-0.06628 -0.33043,-0.09941c-0.0142,0.0472 -0.0284,0.09441 -0.0426,0.14161c-0.10648,0.12893 -0.13336,0.27527 -0.08061,0.43903c0.23388,0.11921 0.4809,0.21068 0.74105,0.27443z" fill="#272726" fill-rule="evenodd"/><path d="M255.99123,182.01575c-0.02109,0.04956 -0.06204,0.07158 -0.12282,0.066c-0.18957,-0.14151 -0.39566,-0.25498 -0.61824,-0.34043c-0.29621,-0.03893 -0.5818,-0.11626 -0.85677,-0.23202c-0.33516,-0.22752 -0.69149,-0.41194 -1.06897,-0.55326c0.01269,-0.09914 0.02532,-0.19829 0.03801,-0.29742c0.12917,0.03042 0.25268,0.07618 0.37053,0.13722c0.20703,0.22233 0.44138,0.41293 0.70304,0.57186c0.4201,0.14354 0.84018,0.28712 1.2603,0.43065c0.08975,0.08548 0.18803,0.15798 0.29491,0.21742z" fill="#515151" fill-rule="evenodd"/><path d="M255.80743,181.60012c-0.26589,-0.24848 -0.58684,-0.37938 -0.96287,-0.39264c-0.38707,-0.13252 -0.69298,-0.37043 -0.91776,-0.71366c-0.19107,-0.14252 -0.39477,-0.26383 -0.61114,-0.36404c-0.00495,-0.08174 -0.01509,-0.162 -0.0305,-0.24081c0.10905,0.01361 0.21845,0.02078 0.32813,0.0215c0.09187,0.05992 0.18706,0.1143 0.28552,0.16312c0.15721,0.21886 0.31441,0.43779 0.47163,0.65666c0.05765,0.06929 0.12923,0.11656 0.21471,0.14181c-0.22459,-0.30627 -0.45962,-0.60863 -0.70515,-0.90708c-0.21557,-0.08199 -0.43108,-0.16402 -0.64664,-0.24602c-0.02596,-0.04234 -0.0299,-0.08642 -0.0117,-0.13221c0.27819,0.04241 0.54801,0.11499 0.80956,0.21783c0.12894,0.14174 0.21695,0.30551 0.26402,0.49125c0.10156,0.14628 0.21477,0.28328 0.33961,0.41104c0.3729,0.12933 0.74579,0.25871 1.11869,0.38804c0.10695,0.1008 0.21387,0.20163 0.32082,0.30243c0.03467,0.04739 0.0307,0.08908 -0.0119,0.12511c-0.21502,-0.25356 -0.48953,-0.39622 -0.82355,-0.42794c0.33066,0.09943 0.60122,0.28378 0.81165,0.55306c-0.08415,0.00012 -0.16518,-0.01572 -0.24311,-0.0474z" fill="#4f4f4f" fill-rule="evenodd"/><path d="M253.4582,184.95995c-0.17788,-0.00709 -0.36042,-0.02766 -0.54764,-0.06181c0.01893,-0.06292 0.03788,-0.12589 0.0568,-0.18881c0.11392,0.02532 0.22879,0.04273 0.34462,0.05221c0.08806,0.04188 0.13679,0.10802 0.14622,0.19841z" fill="#4f4e4f" fill-rule="evenodd"/><path d="M253.44441,184.49252c-0.00473,0.01573 -0.00947,0.03149 -0.0142,0.0472c-0.05377,0.02449 -0.09943,0.06222 -0.13702,0.1132c-0.09694,0.02031 -0.19609,0.00767 -0.29742,-0.038c0.00863,-0.07348 0.04329,-0.13167 0.104,-0.17461c0.11846,-0.00936 0.23335,0.00802 0.34463,0.05221z" fill="#4d4c49" fill-rule="evenodd"/><path d="M253.55261,184.98835c-0.03147,-0.00947 -0.06292,-0.01894 -0.09439,-0.02841c-0.00942,-0.0904 -0.05815,-0.15653 -0.14622,-0.19841c0.0222,-0.04439 0.0159,-0.08056 -0.01881,-0.10861c0.03758,-0.05098 0.08325,-0.08871 0.13702,-0.1132c0.06294,0.01894 0.12588,0.03787 0.18881,0.0568c-0.0142,0.0472 -0.02841,0.0944 -0.04261,0.14161c-0.25648,-0.06002 -0.26122,-0.04425 -0.0142,0.0472c-0.02389,0.06791 -0.0271,0.13557 -0.00961,0.20302z" fill="#412b1b" fill-rule="evenodd"/><path d="M255.61483,180.35822c-0.21243,0.05516 -0.40361,0.00623 -0.57354,-0.14682c-0.19712,-0.17564 -0.35908,-0.37879 -0.48583,-0.60945c0.0895,0.01062 0.11472,-0.01614 0.0756,-0.08021c-0.14723,-0.22441 -0.32962,-0.41657 -0.54723,-0.57646c-0.3744,-0.17256 -0.75833,-0.32241 -1.15169,-0.44946c0.37138,0.0774 0.73325,0.18627 1.08568,0.32664c0.13479,0.0855 0.25984,0.18313 0.37513,0.29303c0.06138,0.00065 0.06847,-0.02294 0.0213,-0.0708c-0.1052,-0.09327 -0.2169,-0.17835 -0.33502,-0.25523c-0.42653,-0.18017 -0.85529,-0.35209 -1.28619,-0.51566c-0.033,-0.06141 -0.066,-0.12282 -0.099,-0.18421c0.37038,0.07767 0.73465,0.17868 1.09277,0.30303c-0.39195,-0.17382 -0.79158,-0.32838 -1.19888,-0.46365c0.75629,0.1432 1.43593,0.45064 2.03895,0.9223c0.34893,0.42831 0.67907,0.87082 0.99045,1.32752c-0.10729,-0.03001 -0.18987,-0.09774 -0.24772,-0.20322c-0.04252,0.00306 -0.08108,0.0172 -0.1157,0.0424c0.05347,0.05042 0.10694,0.10079 0.16041,0.15122c-0.03621,0.00625 -0.0724,0.01255 -0.10861,0.0188c0.09977,0.06409 0.20279,0.12083 0.30911,0.17021z" fill="#222222" fill-rule="evenodd"/><path d="M253.28563,182.28273c0.01893,-0.06292 0.03788,-0.1259 0.0568,-0.18882c0.37635,0.17134 0.75552,0.33689 1.13749,0.49665c0.44035,0.07823 0.86518,0.20604 1.27449,0.38345c0.00626,0.03622 0.01254,0.07239 0.0188,0.10861c-0.45452,-0.14195 -0.92027,-0.24775 -1.3973,-0.31745c-0.34128,-0.12182 -0.68033,-0.24958 -1.01718,-0.38324c-0.01549,-0.04157 -0.03987,-0.07464 -0.0731,-0.09921z" fill="#4f4f4f" fill-rule="evenodd"/><path d="M253.59766,181.7589c-0.06338,-0.0532 -0.13258,-0.10835 -0.20761,-0.16541c-0.01658,-0.05219 -0.01813,-0.10414 -0.00459,-0.15581c0.35741,0.13415 0.70272,0.29811 1.03597,0.49185c0.46028,0.14111 0.9071,0.30986 1.3405,0.50625c0.03748,0.08782 0.00204,0.12005 -0.10631,0.09671c-0.69577,-0.23461 -1.38176,-0.49247 -2.05795,-0.77359z" fill="#505050" fill-rule="evenodd"/><path d="M253.93606,183.71385c-0.26015,-0.06376 -0.50718,-0.15521 -0.74104,-0.27443c0.02367,-0.07869 0.04733,-0.15733 0.071,-0.23602c0.5148,0.24672 1.05688,0.38406 1.62622,0.41206c0.27411,0.05678 0.54398,0.12938 0.80956,0.21783c-0.01893,0.06292 -0.03788,0.1259 -0.0568,0.18882c-0.56126,-0.1507 -1.13091,-0.25345 -1.70894,-0.30825z" fill="#525252" fill-rule="evenodd"/><path d="M253.80445,182.9536c-0.05346,-0.06505 -0.12741,-0.10442 -0.22182,-0.11821c-0.22476,-0.01228 -0.29549,-0.11937 -0.21221,-0.32123c0.6165,0.27057 1.25849,0.44654 1.92593,0.52797c0.16565,0.0571 0.32376,0.1304 0.47433,0.21992c0.02513,0.0596 0.0243,0.11943 -0.0025,0.17942c-0.64902,-0.1879 -1.3036,-0.3505 -1.96374,-0.48786z" fill="#515151" fill-rule="evenodd"/><path d="M255.93443,182.20457c-0.00863,0.07348 -0.04329,0.13167 -0.10401,0.17461c-0.15348,-0.13997 -0.32809,-0.24398 -0.52383,-0.31203c-0.27948,-0.03838 -0.54934,-0.11097 -0.80956,-0.21782c-0.37119,-0.18863 -0.74562,-0.36996 -1.12328,-0.54386c-0.02228,-0.0765 -0.01675,-0.15205 0.01671,-0.22662c0.38961,0.1532 0.76169,0.34236 1.11618,0.56746c0.25301,0.10185 0.51498,0.17208 0.78596,0.21072c0.2267,0.09312 0.44065,0.20897 0.64185,0.34754z" fill="#4e4e4e" fill-rule="evenodd"/><path d="M254.58515,180.87205c0.19868,0.08124 0.39613,0.16638 0.59235,0.25542c-0.23214,-0.0215 -0.4296,-0.10665 -0.59235,-0.25542z" fill="#0b0b0b" fill-rule="evenodd"/><path d="M254.67536,180.23c-0.05207,-0.13391 -0.11571,-0.26455 -0.19091,-0.39203c0.01811,-0.00315 0.03619,-0.00625 0.0543,-0.0094c0.11882,0.20309 0.27213,0.37791 0.45993,0.52445c0.29422,0.10566 0.58844,0.21137 0.88266,0.31704c-0.45354,-0.01712 -0.85554,-0.16381 -1.20599,-0.44004z" fill="#333333" fill-rule="evenodd"/><path d="M254.42607,184.99375c-0.10405,0.01945 -0.17492,0.0839 -0.21261,0.19341c-0.09625,-0.01666 -0.17806,-0.05842 -0.24541,-0.12531c-0.15143,0.11022 -0.29463,0.10142 -0.42963,-0.02631c0.00473,-0.01573 0.00947,-0.03149 0.0142,-0.0472c-0.0175,-0.06745 -0.0143,-0.13511 0.00961,-0.20302c-0.24702,-0.09146 -0.24227,-0.10723 0.0142,-0.0472c0.0142,-0.0472 0.02841,-0.09441 0.04261,-0.14161c-0.06294,-0.01894 -0.12588,-0.03787 -0.18881,-0.0568c0.00473,-0.01573 0.00948,-0.03149 0.01421,-0.0472c0.1202,-0.01351 0.22254,-0.06853 0.30702,-0.16501c0.16457,0.15308 0.36202,0.23822 0.59235,0.25542c0.04504,-0.02099 0.07262,-0.05557 0.08271,-0.10381c0.03806,0.12346 0.02065,0.23832 -0.05221,0.34463c0.04162,0.05191 0.05888,0.10857 0.05181,0.17002z" fill="#cfa55b" fill-rule="evenodd"/><path d="M253.96365,184.64874c-0.02577,0.11359 -0.06677,0.22133 -0.12301,0.32332c-0.09236,0.03538 -0.15056,0.00072 -0.17462,-0.10401c0.00463,-0.10016 0.02517,-0.19694 0.06161,-0.29032c0.07868,0.02367 0.15735,0.04733 0.23602,0.071z" fill="#322018" fill-rule="evenodd"/><path d="M253.67408,180.64942c-0.11357,-0.02578 -0.22134,-0.06675 -0.32332,-0.12301c-0.02228,-0.0765 -0.01675,-0.15206 0.01671,-0.22662c0.16525,0.03947 0.31548,0.11041 0.45073,0.21282c0.2155,0.23337 0.44038,0.45546 0.67463,0.66627c0.44585,0.11911 0.88404,0.25954 1.31459,0.42124c0.0546,0.06425 0.10098,0.13823 0.13911,0.22202c-0.48215,-0.20395 -0.97618,-0.38692 -1.48212,-0.54887c-0.27449,-0.19655 -0.53792,-0.40449 -0.79035,-0.62386z" fill="#555555" fill-rule="evenodd"/><path d="M254.29406,184.74815c-0.02841,0.09441 -0.0568,0.18882 -0.08521,0.28322c-0.21431,-0.04194 -0.26457,-0.16 -0.1508,-0.35424c0.07868,0.02367 0.15733,0.04734 0.23602,0.07101z" fill="#402515" fill-rule="evenodd"/><path d="M253.32363,181.98532c0.01828,-0.08284 0.02624,-0.16625 0.02381,-0.25022c0.30336,0.09255 0.59048,0.22183 0.86136,0.38785c0.53322,0.17237 1.06108,0.35691 1.58362,0.55366c-0.0142,0.0472 -0.02841,0.09441 -0.04261,0.14161c-0.42536,-0.12792 -0.85492,-0.24002 -1.2887,-0.33625c-0.37645,-0.16942 -0.75561,-0.33497 -1.13749,-0.49665z" fill="#4f4f4f" fill-rule="evenodd"/><path d="M254.42607,184.99375c0.00708,-0.06144 -0.01018,-0.11811 -0.05181,-0.17002c0.07287,-0.1063 0.09027,-0.22115 0.05221,-0.34462c0.2509,-0.04445 0.50586,-0.03641 0.76486,0.02422c-0.01657,0.06862 -0.05125,0.12686 -0.10401,0.17462c-0.14873,0.01085 -0.29668,0.0178 -0.44383,0.0209c-0.04567,0.03773 -0.05988,0.08494 -0.04261,0.14161c0.10632,-0.07354 0.22279,-0.08997 0.34942,-0.04931c-0.01893,0.06292 -0.03788,0.1259 -0.0568,0.18882c-0.15281,0.01492 -0.30863,0.01951 -0.46744,0.01379z" fill="#52443b" fill-rule="evenodd"/><path d="M253.20286,179.47812c-0.02666,-0.04261 -0.04632,-0.09141 -0.05891,-0.14641c0.30045,0.01802 0.5884,0.08751 0.86386,0.20843c0.18104,0.22723 0.35162,0.45871 0.51174,0.69446c0.0882,0.19337 0.23524,0.33196 0.44113,0.41584c0.30996,0.1104 0.6199,0.22085 0.92987,0.33124c0.09876,0.0728 0.17423,0.16418 0.22641,0.27402c-0.09857,-0.0313 -0.1835,-0.0912 -0.25482,-0.17962c-0.34144,-0.11986 -0.68285,-0.23977 -1.02428,-0.35964c-0.12953,-0.06151 -0.24121,-0.1466 -0.33502,-0.25523c-0.12504,-0.28208 -0.28854,-0.53718 -0.49042,-0.76526c-0.26406,-0.09191 -0.5339,-0.16449 -0.80956,-0.21783z" fill="#383838" fill-rule="evenodd"/><path d="M253.5384,185.03555c0.135,0.12771 0.2782,0.13652 0.42964,0.02632c0.06735,0.0669 0.14916,0.10866 0.2454,0.12531c0.17269,-0.0789 0.35845,-0.12596 0.55725,-0.1412c0.044,0.08186 0.02506,0.14483 -0.05681,0.18882c-0.1901,0.04473 -0.38449,0.06346 -0.58315,0.05619c-0.3728,-0.09342 -0.75126,-0.14727 -1.13539,-0.16144c-0.04248,-0.02992 -0.08493,-0.05989 -0.12741,-0.0898c0.02046,-0.01099 0.04095,-0.02202 0.06141,-0.03301c0.20743,0.03585 0.41045,0.04545 0.60904,0.02881z" fill="#4e4948" fill-rule="evenodd"/><path d="M253.27561,183.00039c0.0142,-0.0472 0.02841,-0.09441 0.04261,-0.14161c0.11014,0.03313 0.22029,0.06628 0.33043,0.09941c0.17289,0.07708 0.34908,0.14729 0.52864,0.21052c0.35925,0.07612 0.71961,0.13307 1.08108,0.17083c0.17955,0.06323 0.35575,0.13344 0.52864,0.21052c-0.02367,0.07869 -0.04734,0.15732 -0.07101,0.23602c-0.16521,-0.07416 -0.33357,-0.14195 -0.50504,-0.20343c-0.36661,-0.06886 -0.73483,-0.12816 -1.10468,-0.17793c-0.31055,-0.09658 -0.58744,-0.23135 -0.83066,-0.40434z" fill="#4f4f4f" fill-rule="evenodd"/><path d="M255.35676,184.29572c-0.01646,0.07865 -0.06449,0.12421 -0.14412,0.13681c-0.35654,-0.0802 -0.71537,-0.08521 -1.07647,-0.01502c-0.17481,-0.02628 -0.32744,-0.08935 -0.45784,-0.18921c-0.0608,0.05151 -0.09784,0.11757 -0.11111,0.19821c-0.17683,-0.04167 -0.35466,-0.07798 -0.53344,-0.10902c0.03313,-0.11013 0.06628,-0.2203 0.09941,-0.33042c0.7369,0.14773 1.47809,0.25058 2.22357,0.30865z" fill="#504f4f" fill-rule="evenodd"/><path d="M255.58357,184.05511c-0.01723,0.05056 -0.04717,0.09303 -0.0898,0.12741c-0.48435,-0.0892 -0.97144,-0.1242 -1.46122,-0.10502c-0.29712,-0.02958 -0.58743,-0.09119 -0.87095,-0.18483c0.01267,-0.09914 0.02533,-0.19829 0.03801,-0.29742c0.32844,0.10736 0.66122,0.19895 0.99837,0.27464c0.469,0.01385 0.93086,0.0756 1.38561,0.18524z" fill="#4f4f4f" fill-rule="evenodd"/><path d="M255.28034,185.4052c-0.1359,0.14983 -0.24777,0.32207 -0.33563,0.51673c-0.0953,0.28347 -0.21198,0.55723 -0.35004,0.82126c-0.19235,0.1399 -0.34043,0.3184 -0.44424,0.53553c-0.10848,0.17239 -0.23923,0.32182 -0.39223,0.44823c-0.17965,0.05348 -0.36304,0.09271 -0.55015,0.1176c-0.47674,-0.09237 -0.94489,-0.19028 -1.4044,-0.29385c-0.13878,0.23288 -0.27745,0.46573 -0.41604,0.69845c-0.18287,0.21569 -0.36876,0.43435 -0.55765,0.65584c-0.03674,-0.00431 -0.06585,-0.02167 -0.0873,-0.05201c0.05387,-0.03583 0.08615,-0.08619 0.09691,-0.15101c-0.07456,-0.03345 -0.15011,-0.03899 -0.22662,-0.01671c-0.15397,0.21697 -0.33826,0.40177 -0.55285,0.55433c-0.02103,-0.14449 -0.03037,-0.28454 -0.028,-0.42023c0.08497,-0.46465 0.08694,-0.92734 0.00582,-1.38811c-0.02754,0.03459 -0.05516,0.06921 -0.08271,0.10381c-0.0262,0.4623 -0.06197,0.92338 -0.10733,1.3833c0.0032,0.10057 -0.00948,0.1997 -0.038,0.29742c0.05858,0.00635 0.10105,0.03627 0.12741,0.0898c-0.28399,-0.04673 -0.33126,0.02486 -0.14181,0.21472c0.14415,-0.04142 0.17877,-0.01381 0.10381,0.08271c-0.1807,-0.02477 -0.3081,-0.11457 -0.38222,-0.26943c0.00197,-0.56981 0.06853,-1.13323 0.19965,-1.69013c-0.00896,-0.00371 -0.01788,-0.0071 -0.02676,-0.01015c0.06724,-0.05887 0.11931,-0.13673 0.14695,-0.22862c0.01071,-0.0356 0.0172,-0.07145 0.01976,-0.10703c0.16285,-0.02452 0.30836,-0.09165 0.43649,-0.20144c0.2513,-0.17452 0.46865,-0.38365 0.65206,-0.62745c0.25615,-0.314 0.49093,-0.63803 0.70427,-0.97206c-0.02416,0.16605 0.02618,0.19833 0.15101,0.09691c0.05876,0.05103 0.12485,0.08806 0.19821,0.11111c-0.03168,0.07793 -0.04752,0.15897 -0.0474,0.24312c0.07403,-0.09963 0.14656,-0.19796 0.21742,-0.29492c0.12766,0.01694 0.22047,0.07921 0.27842,0.18671c0.03067,-0.03792 0.06612,-0.07019 0.10631,-0.09671c-0.03939,-0.15655 0.01814,-0.2336 0.17251,-0.23122c-0.01893,0.06292 -0.03788,0.1259 -0.0568,0.18882c0.41773,0.0025 0.83239,0.05005 1.244,0.14263c0.24869,-0.02813 0.49737,-0.05627 0.74606,-0.08439c0.05719,-0.06062 0.12333,-0.10939 0.19841,-0.14622c-0.21959,-0.0447 -0.44306,-0.04333 -0.67045,0.00419c-0.46715,-0.12068 -0.93849,-0.15094 -1.41401,-0.09083c-0.02063,-0.05274 -0.06309,-0.08266 -0.12741,-0.0898c0.01245,-0.11367 0.06759,-0.18289 0.16541,-0.20761c-0.01893,0.06292 -0.03788,0.1259 -0.0568,0.18882c0.72848,0.01816 1.45477,0.0565 2.17887,0.11504c0.10596,-0.04095 0.15873,-0.10231 0.15832,-0.18401c0.00473,-0.01573 0.00947,-0.03149 0.0142,-0.0472c0.04261,-0.02666 0.09142,-0.0463 0.14641,-0.05891c0.0515,-0.04294 0.05782,-0.09251 0.019,-0.14872c-0.10214,0.01293 -0.20129,0.00028 -0.29741,-0.03801c0.18444,-0.26397 0.3798,-0.51406 0.58605,-0.75025c-0.01629,0.24238 -0.03773,0.48474 -0.06431,0.72706c-0.04204,0.14302 -0.11376,0.26732 -0.21513,0.37282z" fill="#131411" fill-rule="nonzero"/><path d="M250.36752,188.55998c-0.03508,0.1448 -0.08557,0.28404 -0.15142,0.41772c-0.05041,0.05345 -0.08186,0.04399 -0.0944,-0.0284c0.03583,-0.36958 0.06133,-0.73939 0.07642,-1.10949c-0.00257,-0.14407 -0.01975,-0.28649 -0.0516,-0.42734c0.02992,-0.04248 0.07088,-0.06449 0.12281,-0.06601c0.06271,0.407 0.09543,0.81152 0.09819,1.2135z" fill="#4e4e4f" fill-rule="evenodd"/><path d="M250.66994,188.23916c-0.032,0.15685 -0.10605,0.28899 -0.22223,0.39643c-0.00527,-0.47538 -0.0348,-0.94754 -0.08859,-1.41651c0.04798,-0.06798 0.10229,-0.07737 0.16291,-0.0282c0.01573,0.06934 0.0385,0.13621 0.0683,0.20072c0.01296,0.28836 0.0395,0.57087 0.0796,0.84756z" fill="#4d4d4e" fill-rule="evenodd"/><path d="M250.98658,187.87113c-0.0462,0.1693 -0.13286,0.3148 -0.26003,0.43652c0.00342,-0.39976 -0.04193,-0.79088 -0.136,-1.17339c0.03781,-0.04011 0.07561,-0.08021 0.1134,-0.12031c0.12254,0.27968 0.21674,0.56541 0.28261,0.85717z" fill="#4c4d4c" fill-rule="evenodd"/><path d="M251.19459,187.52191c-0.01689,0.11074 -0.06889,0.19805 -0.15601,0.26192c-0.05149,-0.31868 -0.1386,-0.62802 -0.26131,-0.92798c0.18539,0.18436 0.3245,0.40638 0.41732,0.66605z" fill="#4a4a49" fill-rule="evenodd"/><path d="M251.68165,186.58745c-0.00863,0.07348 -0.04328,0.13168 -0.10401,0.17461c-0.12641,-0.12889 -0.23961,-0.2659 -0.33961,-0.41104c0.02992,-0.04248 0.07088,-0.06448 0.12281,-0.066c0.10799,0.10183 0.21495,0.20262 0.32082,0.30243z" fill="#474646" fill-rule="evenodd"/><path d="M251.40261,187.17268c-0.02456,0.10354 -0.07657,0.19084 -0.15601,0.26192c-0.08261,-0.22077 -0.19259,-0.42549 -0.33002,-0.61405c-0.01636,-0.07925 0.01045,-0.13981 0.08041,-0.18171c0.13573,0.17936 0.27094,0.35733 0.40563,0.53384z" fill="#49484a" fill-rule="evenodd"/><path d="M251.54922,186.85647c-0.01893,0.06292 -0.03788,0.12589 -0.0568,0.18881c-0.1931,-0.13187 -0.32832,-0.30983 -0.40563,-0.53384c0.02519,-0.02675 0.05042,-0.05345 0.07561,-0.08021c0.13009,0.14266 0.25902,0.28441 0.38683,0.42525z" fill="#454647" fill-rule="evenodd"/><path d="M251.10898,188.31978c-0.0351,0.19931 -0.14693,0.28576 -0.33543,0.25941c0.04175,-0.10897 0.09059,-0.21437 0.14661,-0.31622c0.06292,0.01893 0.1259,0.03788 0.18882,0.0568z" fill="#504e4f" fill-rule="evenodd"/><path d="M251.78106,186.25703c-0.01657,0.08247 -0.04809,0.1588 -0.09462,0.22891c-0.06935,-0.10004 -0.15507,-0.1859 -0.25711,-0.25752c-0.02516,-0.05961 -0.02429,-0.11942 0.0025,-0.17941c0.11642,0.06936 0.23281,0.13866 0.34922,0.20802z" fill="#424541" fill-rule="evenodd"/><path d="M251.3642,187.98475c-0.05602,0.10185 -0.10487,0.20725 -0.14661,0.31622c-0.06292,-0.01893 -0.1259,-0.03788 -0.18882,-0.0568c0.03313,-0.11013 0.06628,-0.2203 0.09941,-0.33042c0.07869,0.02367 0.15733,0.04734 0.23602,0.071z" fill="#544e50" fill-rule="evenodd"/><path d="M251.78024,187.2863c-0.01228,0.22476 -0.11937,0.29549 -0.32123,0.21222c0.02841,-0.09441 0.0568,-0.18882 0.08521,-0.28322c0.07869,0.02367 0.15733,0.04733 0.23602,0.071z" fill="#4d4d4d" fill-rule="evenodd"/><path d="M251.61943,187.64974c-0.05186,0.20606 -0.17466,0.27206 -0.36844,0.198c0.02841,-0.09441 0.0568,-0.18881 0.08521,-0.28322c0.09441,0.02841 0.18881,0.0568 0.28322,0.08521z" fill="#504b4b" fill-rule="evenodd"/><path d="M252.30529,186.05441c-0.11406,0.25591 -0.21024,0.51863 -0.28863,0.78825c-0.07869,-0.02367 -0.15733,-0.04733 -0.23602,-0.071c0.08048,-0.2675 0.16096,-0.53496 0.24143,-0.80246c0.09441,0.02841 0.1888,0.0568 0.28322,0.08521z" fill="#353434" fill-rule="evenodd"/><path d="M251.94106,186.92288c-0.02841,0.09441 -0.0568,0.18882 -0.08521,0.28322c-0.07869,-0.02367 -0.15733,-0.04733 -0.23602,-0.07101c0.02841,-0.09441 0.0568,-0.18881 0.08521,-0.28322c0.07869,0.02367 0.15733,0.04733 0.23602,0.071z" fill="#494b4a" fill-rule="evenodd"/><path d="M253.42775,187.62755c-0.08219,0.05949 -0.17744,0.09091 -0.28572,0.09421c-0.35563,-0.07266 -0.70179,-0.1768 -1.03848,-0.31244c0.44561,0.04002 0.88703,0.11276 1.3242,0.21824z" fill="#3e3638" fill-rule="evenodd"/><path d="M254.42067,185.86724c-0.0101,0.04823 -0.03767,0.08282 -0.08271,0.10381c-0.14024,0.04589 -0.28504,0.07092 -0.43443,0.0752c-0.4122,-0.07481 -0.82687,-0.12235 -1.24401,-0.14263c-0.01101,-0.02045 -0.02199,-0.04095 -0.033,-0.0614c0.47579,-0.05895 0.94713,-0.02868 1.41401,0.09083c0.12958,-0.02242 0.25631,-0.04436 0.38014,-0.0658z" fill="#4b4b4b" fill-rule="evenodd"/><path d="M254.19384,186.10784c-0.14111,0.13437 -0.3135,0.19405 -0.51714,0.17901c-0.24075,-0.0553 -0.4815,-0.11054 -0.72226,-0.16582c-0.12334,-0.0178 -0.24531,-0.01162 -0.36594,0.01859c-0.0252,-0.15265 0.04332,-0.20924 0.20552,-0.16981c0.4626,0.10768 0.92921,0.15365 1.3998,0.13803z" fill="#4e4e4e" fill-rule="evenodd"/><path d="M254.08442,187.15593c-0.03629,0.05961 -0.08982,0.09497 -0.16062,0.10611c-0.23462,0.0442 -0.47306,0.06682 -0.71535,0.0679c0.06921,0.05516 0.14787,0.07883 0.23602,0.071c0.15923,-0.05061 0.31504,-0.05521 0.46745,-0.01379c-0.20303,0.12165 -0.42499,0.17497 -0.66586,0.16001c-0.32769,-0.08288 -0.65734,-0.15634 -0.98898,-0.22033c-0.05034,-0.03229 -0.10066,-0.06462 -0.15101,-0.09691c0.1365,-0.0308 0.27422,-0.03229 0.41312,-0.0044c0.20928,0.04581 0.41857,0.0916 0.62784,0.13742c-0.29763,-0.12944 -0.6068,-0.21391 -0.92756,-0.25333c-0.05979,-0.10365 -0.01962,-0.15163 0.12051,-0.1439c0.31942,0.07896 0.63885,0.15787 0.95827,0.23684c0.27665,-0.04978 0.53871,-0.06534 0.78616,-0.04659z" fill="#49494a" fill-rule="evenodd"/><path d="M254.26404,186.90111c-0.02205,0.07146 -0.07008,0.11708 -0.14411,0.13681c-0.20306,-0.01702 -0.3998,0.00954 -0.59025,0.0798c-0.42417,-0.06565 -0.8451,-0.14941 -1.2628,-0.25124c0.01893,-0.06292 0.03788,-0.12589 0.05681,-0.18882c0.35433,0.07387 0.70759,0.15441 1.05978,0.24163c0.29192,-0.01121 0.58544,-0.01726 0.88056,-0.01819z" fill="#4f4e4e" fill-rule="evenodd"/><path d="M254.68467,186.35847c-0.04849,0.06418 -0.10125,0.12551 -0.15832,0.18401c-0.27795,-0.09053 -0.55337,-0.08763 -0.82627,0.00879c-0.41495,-0.03367 -0.82488,-0.09694 -1.22979,-0.18983c0.02778,-0.1403 0.11202,-0.19218 0.25272,-0.1556c0.31232,0.03467 0.62072,0.09317 0.92526,0.17543c0.19966,0.0019 0.38542,-0.04516 0.55724,-0.1412c0.16364,0.0236 0.32335,0.06305 0.47913,0.11842z" fill="#4f4f4f" fill-rule="evenodd"/><path d="M252.72594,185.51178c0.01573,0.00473 0.03147,0.00947 0.0472,0.0142c0.47552,-0.06011 0.94685,-0.02985 1.41401,0.09083c0.22739,-0.04751 0.45087,-0.0489 0.67045,-0.00419c-0.07508,0.03681 -0.14122,0.08558 -0.19842,0.14622c-0.24869,0.02813 -0.49737,0.05627 -0.74605,0.0844c-0.4116,-0.09258 -0.82627,-0.14013 -1.24401,-0.14263c0.01893,-0.06292 0.03788,-0.1259 0.0568,-0.18882z" fill="#4f4f4e" fill-rule="evenodd"/><path d="M254.44366,186.64629c-0.01075,0.06481 -0.04306,0.11517 -0.09691,0.15101c-0.6636,0.08383 -1.31275,0.01722 -1.94744,-0.19983c0.01075,-0.06481 0.04306,-0.11517 0.09691,-0.15101c0.33746,0.08031 0.67735,0.14825 1.01967,0.20383c0.18668,-0.00247 0.36771,-0.03381 0.54304,-0.094c0.13196,0.01412 0.26021,0.0441 0.38473,0.09001z" fill="#505150" fill-rule="evenodd"/><path d="M254.75568,186.12246c-0.01893,0.06292 -0.03788,0.1259 -0.0568,0.18882c-0.1495,-0.02867 -0.28638,-0.08699 -0.41063,-0.17502c0.03639,-0.0394 0.07969,-0.06924 0.12991,-0.0896c0.11609,0.00935 0.22859,0.03464 0.33752,0.07581z" fill="#454444" fill-rule="evenodd"/></g><path d="M250.08644,188.55224c-0.05074,0.10262 -0.03671,0.41663 -0.12752,0.50776c-0.03879,0.01932 -0.0851,-0.02972 -0.11103,-0.11533c-0.01949,-0.06435 -0.02275,-0.16449 -0.02881,-0.18788c0.05898,-0.26767 0.06966,-0.54747 0.10142,-0.81777c0.00127,-0.10614 0.01372,-0.22854 -0.02357,-0.33545c0.04066,-0.028 0.10238,-0.06292 0.17063,-0.05845c0.06921,0.30576 0.03759,0.6 0.02823,0.89563z" data-paper-data="{&quot;index&quot;:null}" fill="#4e4e4f" fill-rule="evenodd" stroke="none" stroke-width="1" stroke-linecap="butt"/><g fill="#000000" fill-rule="nonzero" stroke="none" stroke-width="1" stroke-linecap="butt"><path d="M251.63353,179.17061c0.08545,0.08955 0.09243,0.13234 0.0106,0.06497c-0.08342,-0.06867 -0.17598,-0.1393 -0.18708,-0.14275c-0.01077,-0.00336 -0.01387,0.00129 -0.12865,0.19448c-0.08531,0.14356 -0.14236,0.20599 -0.2733,0.29901c-0.18497,0.13143 -0.25043,0.15643 -0.31169,0.11902c-0.0381,-0.02328 -0.17519,-0.3295 -0.16943,-0.3785c0.00997,-0.08483 0.04386,-0.09743 0.30183,-0.11212c0.18377,-0.01045 0.25723,-0.00083 0.28907,0.03788l0.02176,0.02645l0.09094,-0.12732c0.05003,-0.07005 0.08801,-0.13293 0.08441,-0.13978c-0.00681,-0.01299 -0.24371,-0.21005 -0.37846,-0.3148l-0.07802,-0.06067l-0.10066,0.0199c-0.2709,0.05353 -0.34091,0.06493 -0.36082,0.05871c-0.02931,-0.00914 -0.22228,-0.19285 -0.26847,-0.25558c-0.04403,-0.0598 -0.05017,-0.10243 -0.01968,-0.13652c0.02645,-0.02958 0.05021,-0.02969 0.29472,-0.00153c0.32288,0.0372 0.35744,0.04383 0.41145,0.07885c0.04819,0.03126 0.50639,0.48614 0.52927,0.52544c0.0187,0.03216 0.04068,0.01282 0.13679,-0.12034c0.05631,-0.07798 0.12081,-0.15906 0.14335,-0.18014l0.041,-0.03834l-0.02713,0.06514c-0.01493,0.03582 -0.06206,0.12548 -0.10474,0.19924c-0.04268,0.07377 -0.08048,0.14335 -0.08401,0.15463c-0.00389,0.01247 0.00758,0.03399 0.02922,0.05479zM250.88714,179.36644c-0.07401,0.0032 -0.1357,0.00948 -0.13711,0.01399c-0.00479,0.01536 0.05735,0.14567 0.07159,0.1501c0.01578,0.00492 0.22101,-0.13808 0.22735,-0.15841c0.0022,-0.00707 -0.00304,-0.01254 -0.01164,-0.01218zM250.71379,178.4905c-0.03709,-0.01164 -0.29559,-0.02528 -0.2986,-0.01577c-0.00149,0.00472 0.01636,0.0265 0.03965,0.0484l0.04236,0.03984l0.10676,-0.01318c0.11156,-0.01376 0.14759,-0.02463 0.13861,-0.04175z"/><path d="M251.33633,178.72567c0.05718,0.06576 0.09732,0.11971 0.08919,0.11987c-0.02506,0.00048 -0.74148,-0.62675 -0.86566,-0.7579c-0.04144,-0.04378 -0.04317,-0.04452 -0.07936,-0.0342l-0.03698,0.01054l0.04628,0.04974c0.02546,0.02735 0.04947,0.05072 0.05337,0.05194c0.01342,0.00418 0.10605,0.11296 0.10341,0.12143c-0.00395,0.01268 -0.10819,-0.03257 -0.21341,-0.09265c-0.15881,-0.09071 -0.12208,-0.09124 -0.49932,0.00742c-0.30752,0.0804 -0.81199,0.20124 -0.91915,0.22014c-0.07392,0.01304 -0.042,-0.02273 0.04745,-0.05316c0.04368,-0.01487 0.13884,-0.04826 0.21146,-0.07421c0.07261,-0.02595 0.31794,-0.10878 0.54516,-0.18409c0.22723,-0.0753 0.45688,-0.15244 0.51034,-0.17142c0.21013,-0.07461 0.25158,-0.06512 0.38606,0.08848c0.04757,0.05434 0.18341,0.20672 0.30185,0.33864z"/><path d="M251.17719,179.02332c0.02926,0.0848 -0.02862,0.10242 -0.51259,0.15602c-0.10903,0.01208 -0.27681,0.03338 -0.37285,0.04733c-0.30735,0.04467 -0.3538,0.05009 -0.42606,0.04965c-0.03899,-0.00023 -0.07054,-0.00146 -0.07016,-0.0027c0.0037,-0.01187 0.17152,-0.05868 0.33812,-0.09429c0.11279,-0.02412 0.28022,-0.0621 0.37207,-0.08441c0.09185,-0.02231 0.19264,-0.04359 0.22398,-0.04727l0.05697,-0.00668l-0.03649,-0.02963c-0.03975,-0.03227 -0.04472,-0.06736 -0.01679,-0.11851l0.01637,-0.03001l-0.12958,0.00358c-0.11008,0.00305 -0.13327,0.00027 -0.15417,-0.01842c-0.03571,-0.03196 -0.01891,-0.07349 0.03785,-0.09356c0.05393,-0.01907 0.41067,-0.05305 0.44489,-0.04238c0.03294,0.01027 0.05528,0.05202 0.04517,0.08441c-0.00461,0.01474 -0.0247,0.04353 -0.04464,0.06394c-0.01995,0.0204 -0.03793,0.0424 -0.03994,0.04889c-0.0024,0.00771 0.04172,0.02486 0.12743,0.0495z"/></g><g fill="#000000" fill-rule="nonzero" stroke="none" stroke-width="1" stroke-linecap="butt"><path d="M247.93924,178.47781c-0.00272,0.01885 -0.02085,0.08411 -0.04029,0.14503l-0.03535,0.11075l-0.06319,-0.01535c-0.05643,-0.0137 -0.06517,-0.01185 -0.08177,0.01747c-0.01023,0.01804 -0.02955,0.04444 -0.04294,0.05865c-0.05853,0.06216 -0.19056,0.06558 -0.25205,0.00654c-0.03062,-0.0294 -0.03503,-0.02975 -0.08537,-0.00684c-0.12506,0.05688 -0.25223,-0.05908 -0.25459,-0.23213c-0.00048,-0.03598 -0.00868,-0.04687 -0.04928,-0.06551c-0.05826,-0.02674 -0.05879,-0.04858 -0.00508,-0.21174c0.03701,-0.11245 0.05932,-0.13897 0.10998,-0.13074c0.02574,0.00418 0.03319,-0.00452 0.05604,-0.06545c0.0282,-0.07517 0.04388,-0.08635 0.09797,-0.06982c0.0373,0.01141 0.05247,0.03633 0.04749,0.07804c-0.00431,0.03613 0.04664,0.06657 0.1734,0.10356c0.17186,0.05015 0.19186,0.05084 0.20549,0.00715c0.00906,-0.02906 0.01957,-0.037 0.04688,-0.03544c0.08343,0.0047 0.11517,0.0671 0.08438,0.16583c-0.01047,0.03357 -0.00729,0.03856 0.03249,0.05097zM247.77376,178.39753c0.02059,-0.0838 0.01667,-0.11226 -0.00833,-0.06049c-0.02722,0.05637 -0.04434,0.05522 -0.28964,-0.01955c-0.20644,-0.0629 -0.21696,-0.06931 -0.21183,-0.12911c0.00138,-0.0163 -0.01028,-0.00207 -0.02807,0.03423c-0.01677,0.03418 -0.04077,0.06613 -0.05337,0.07101c-0.01956,0.00759 -0.02076,0.01217 -0.00827,0.03141c0.01749,0.02695 0.00105,0.08812 -0.02775,0.10322c-0.0113,0.00592 -0.03865,0.00579 -0.06079,-0.00031l-0.04024,-0.01107l0.04043,0.02392c0.04933,0.02919 0.05388,0.03818 0.05436,0.10744c0.00049,0.06886 0.05647,0.18509 0.09494,0.19709c0.03995,0.01246 0.11299,-0.00237 0.13937,-0.0283c0.02801,-0.02753 0.0413,-0.02295 0.07769,0.02677c0.02634,0.03601 0.0353,0.0403 0.08538,0.04085c0.06311,0.0007 0.11419,-0.03392 0.14707,-0.09968c0.02028,-0.0406 0.02558,-0.04271 0.08271,-0.03294c0.03967,0.00679 0.04838,0.00575 0.02489,-0.00299c-0.06152,-0.02284 -0.07969,-0.0515 -0.06419,-0.1012c0.01461,-0.04683 0.01843,-0.04802 0.11101,-0.0344c0.02558,0.00376 0.02283,0.00094 -0.01084,-0.01119z"/><path d="M247.45572,178.40151c0.01543,0.02943 -0.03807,0.19239 -0.07563,0.23039c-0.045,0.04553 -0.10962,0.04176 -0.16717,-0.00971c-0.039,-0.0349 -0.04065,-0.08358 -0.00651,-0.19301c0.02352,-0.07541 0.03485,-0.09623 0.05305,-0.09739zM247.28168,178.39449l-0.02372,0.06189c-0.02689,0.07015 -0.01703,0.13314 0.02279,0.14556c0.04612,0.01438 0.07708,-0.01523 0.10308,-0.0986l0.02437,-0.07813z"/><path d="M247.69487,178.47374c0.01749,0.01779 0.01657,0.03573 -0.00548,0.1064c-0.02272,0.07282 -0.03252,0.08815 -0.06857,0.10703c-0.05181,0.0272 -0.12193,0.00882 -0.15474,-0.04055c-0.02008,-0.03022 -0.01954,-0.04531 0.00438,-0.11839c0.03989,-0.12196 0.0445,-0.12544 0.13028,-0.09869zM247.54015,178.49302c-0.00478,0.00442 -0.01328,0.03561 -0.01889,0.06933c-0.00841,0.05056 -0.00515,0.06369 0.01857,0.07494c0.04419,0.02098 0.07415,0.00089 0.09409,-0.06304l0.01783,-0.05715l-0.05145,-0.01606z"/></g><g fill="#000000" fill-rule="nonzero" stroke="none" stroke-width="1" stroke-linecap="butt"><path d="M247.38463,186.02578c0.08008,0.04726 0.09853,0.08054 0.04166,0.07515c-0.12839,-0.0122 -0.26533,-0.03826 -0.37477,-0.07134c-0.06677,-0.02018 -0.08745,-0.02221 -0.09157,-0.00899c-0.00345,0.01107 0.0095,0.02311 0.03681,0.03426c0.04969,0.02026 0.06572,0.0578 0.03566,0.0835c-0.01469,0.01256 -0.03852,0.01159 -0.09634,-0.00391c-0.04226,-0.01133 -0.08108,-0.02637 -0.08628,-0.03342c-0.00519,-0.00705 -0.01852,-0.04668 -0.02962,-0.08806l-0.02016,-0.07524l-0.03652,0.01772c-0.03575,0.01736 -0.03868,0.01671 -0.13922,-0.031c-0.05648,-0.0268 -0.10631,-0.04683 -0.11073,-0.04452c-0.00441,0.00232 -0.00058,0.02873 0.0085,0.05871c0.01828,0.06023 0.00466,0.07878 -0.035,0.04763c-0.03156,-0.02478 -0.07655,-0.12229 -0.06958,-0.15081c0.0028,-0.01141 0.01978,-0.07181 0.03777,-0.13421c0.01798,-0.06239 0.03217,-0.12681 0.03151,-0.14312c-0.0009,-0.02211 0.00325,-0.02827 0.01625,-0.02422c0.02856,0.00891 0.0627,0.08087 0.05829,0.12284l-0.00412,0.03908l0.1199,0.02827c0.10735,0.02531 0.12173,0.03139 0.13754,0.05819c0.01738,0.02947 0.01823,0.02953 0.05717,0.00327c0.02174,-0.01466 0.05323,-0.04144 0.06995,-0.05948c0.03241,-0.03499 0.04134,-0.03489 0.14211,0.0016c0.05336,0.01932 0.09301,0.05652 0.08559,0.08029c-0.0073,0.02341 -0.05574,0.03358 -0.09767,0.02051c-0.02526,-0.00788 -0.04987,-0.01088 -0.05471,-0.00668c-0.02188,0.01899 0.00718,0.04082 0.10415,0.07821zM246.7681,185.8145c-0.01176,-0.01224 -0.04254,-0.02794 -0.0684,-0.03491c-0.02584,-0.00696 -0.05206,-0.0185 -0.05823,-0.02561c-0.01818,-0.02095 -0.14903,-0.02904 -0.15511,-0.00957c-0.00422,0.01352 0.0179,0.02419 0.10939,0.05273c0.06306,0.01968 0.10938,0.03852 0.10292,0.04186c-0.00646,0.00335 -0.03143,0.00046 -0.0555,-0.00641c-0.15541,-0.04449 -0.16965,-0.04704 -0.17454,-0.03137c-0.00909,0.02915 0.22863,0.11057 0.27637,0.09466c0.02595,-0.00865 0.07188,-0.00159 0.07525,0.01156c0.0018,0.00705 0.00897,0.01459 0.01591,0.01675c0.00891,0.00278 0.01029,-0.00171 0.00474,-0.01523c-0.00502,-0.01215 -0.00188,-0.02428 0.00853,-0.03313c0.02449,-0.02082 0.02609,-0.03572 0.00281,-0.02614zM247.2589,186.00955c0.00119,0.00387 0.00116,0.00868 -0.00035,0.01352c-0.00416,0.01333 0.00425,0.01861 0.03538,0.02218c0.05693,0.00654 0.05737,0.00423 0.00562,-0.02861zM247.24038,186.00631l-0.02717,-0.00474c-0.00197,0.00633 0.00071,0.01649 0.00597,0.02256c0.00527,0.00607 0.01219,0.0027 0.01535,-0.00746c0.0013,-0.00415 0.00339,-0.00772 0.00584,-0.01035zM247.25215,186.00187c-0.00386,-0.00121 -0.00822,0.00064 -0.01178,0.00445l0.01854,0.00323c-0.00117,-0.00381 -0.00351,-0.00666 -0.00674,-0.00767z"/><path d="M246.3338,185.86639c0.0188,0.06104 0.01921,0.07158 0.00287,0.07578c-0.03829,0.00982 -0.11436,-0.1141 -0.10701,-0.1743c0.00316,-0.02585 -0.01443,-0.03732 -0.15246,-0.09933c-0.09585,-0.04307 -0.07867,-0.06402 0.03763,-0.04589c0.05147,0.00803 0.10407,0.01786 0.11686,0.02185c0.0312,0.00973 0.03421,-0.00619 0.00589,-0.03102c-0.01264,-0.01108 -0.01937,-0.02921 -0.01492,-0.04028c0.00499,-0.01241 -0.00029,-0.02273 -0.01377,-0.02693c-0.01202,-0.00375 -0.03374,-0.01744 -0.04827,-0.03045c-0.02005,-0.01793 -0.02327,-0.03072 -0.01338,-0.05299c0.01256,-0.02825 0.01617,-0.02842 0.09648,-0.00474c0.04924,0.01452 0.0917,0.03403 0.10361,0.04762c0.03662,0.04177 0.03713,0.11142 0.00157,0.21246z"/></g></g></g></g></svg>