<svg version="1.1" xmlns="http://www.w3.org/2000/svg" xmlns:xlink="http://www.w3.org/1999/xlink" width="48.85631" height="108.03185" viewBox="0,0,48.85631,108.03185"><g transform="translate(-215.29507,-125.98412)"><g data-paper-data="{&quot;isPaintingLayer&quot;:true}" fill-rule="nonzero" stroke-linecap="butt" stroke-linejoin="miter" stroke-miterlimit="10" stroke-dasharray="" stroke-dashoffset="0" style="mix-blend-mode: normal"><path d="M219.47161,229.51597c0,0 5.716,-19.2809 8.21536,-37.39432c1.57611,-11.42243 -2.33451,-35.13061 -1.34189,-40.49669c0.31896,-1.7243 36.71753,-2.18683 34.82389,0.67023c-3.09268,4.66613 -10.34704,30.75224 -16.13771,40.49173c-10.37011,17.44179 -24.65847,36.72904 -24.65847,36.72904z" fill="#ff5d5d" stroke="none" stroke-width="0"/><path d="M218.47161,231.51597c0,0 9.35393,-38.6849 9.35393,-56.62111c0,-16.23868 -3.35393,-46.41074 -3.35393,-46.41074h37.05681c0,0 -1.48975,31.0169 -6.98628,46.26977c-6.65628,18.47118 -35.14232,56.76208 -35.14232,56.76208z" fill="none" stroke="#000000" stroke-width="5"/></g></g></svg>