<svg version="1.1" xmlns="http://www.w3.org/2000/svg" xmlns:xlink="http://www.w3.org/1999/xlink" width="42.50631" height="12.44932" viewBox="0,0,42.50631,12.44932"><g transform="translate(-223.76526,-174.3455)"><g data-paper-data="{&quot;isPaintingLayer&quot;:true}" stroke-linejoin="miter" stroke-miterlimit="10" stroke-dasharray="" stroke-dashoffset="0" style="mix-blend-mode: normal"><path d="M264.68923,179.41676c0.04176,2.40851 -0.97868,4.19983 -3.06131,5.37392c-2.22277,0.98827 -4.27676,0.72017 -6.16189,-0.80431c-1.65256,-1.61549 -2.1884,-3.54772 -1.60758,-5.79671c0.76649,-2.12489 2.26014,-3.3927 4.48097,-3.80341c2.28457,-0.23818 4.09415,0.56775 5.4288,2.41778c0.5029,0.80135 0.80991,1.67226 0.92103,2.61273z" fill="#0c0608" fill-rule="evenodd" stroke="none" stroke-width="1" stroke-linecap="butt"/><path d="M257.32745,184.72785c2.29131,0.31354 4.15331,-0.42879 5.58601,-2.227c0.76977,-1.06624 1.22367,-2.25342 1.36168,-3.56147c0.28012,1.98103 -0.32738,3.63186 -1.82247,4.95249c-1.55723,1.18002 -3.26563,1.45866 -5.12521,0.83599z" fill="#feffb1" fill-rule="evenodd" stroke="none" stroke-width="1" stroke-linecap="butt"/><path d="M264.27513,178.93938c-0.13801,1.30805 -0.59191,2.49522 -1.36168,3.56147c-1.4327,1.79822 -3.29469,2.54054 -5.58601,2.22701c-1.5735,-0.62749 -2.63338,-1.7445 -3.17971,-3.35111c-0.08253,-0.2723 -0.1338,-0.54987 -0.15385,-0.83263c0.13073,-2.03871 1.07117,-3.58447 2.82126,-4.63736c1.13928,-0.5523 2.34255,-0.73773 3.60984,-0.55631c0.89596,0.16445 1.73497,0.47418 2.51701,0.92917c0.71713,0.7478 1.16151,1.63438 1.33314,2.65977z" fill="#ffeb6e" fill-rule="evenodd" stroke="none" stroke-width="1" stroke-linecap="butt"/><path d="M262.94199,176.2796c-0.78204,-0.45499 -1.62105,-0.76471 -2.51701,-0.92916c-1.26729,-0.18143 -2.47055,0.004 -3.60984,0.55631c-1.75009,1.05289 -2.69053,2.59865 -2.82126,4.63736c-0.22006,-2.04668 0.48662,-3.69415 2.12,-4.94243c1.87874,-1.21649 3.80064,-1.28382 5.76569,-0.20201c0.3997,0.23943 0.75384,0.53273 1.06242,0.87993z" fill="#fec900" fill-rule="evenodd" stroke="none" stroke-width="1" stroke-linecap="butt"/><path d="M259.59367,179.37667c-0.02782,0.08481 -0.08499,0.14354 -0.17145,0.17623c-0.13873,0.05818 -0.28294,0.08088 -0.43257,0.06811c0.0489,-0.02489 0.10454,-0.03956 0.16698,-0.044c-0.07278,-0.00878 -0.13834,-0.02755 -0.19668,-0.0563c0.23334,0.03987 0.44457,-0.00815 0.63372,-0.14404z" fill="#79527e" fill-rule="evenodd" stroke="none" stroke-width="1" stroke-linecap="butt"/><path d="M259.27701,177.97588c-0.26911,-0.03909 -0.51377,0.01881 -0.73401,0.17373c0.06862,-0.13526 0.18164,-0.21418 0.33899,-0.23676c0.0663,-0.00328 0.13261,-0.00653 0.19892,-0.00981c0.08102,0.00403 0.14639,0.02833 0.19612,0.07284z" fill="#916796" fill-rule="evenodd" stroke="none" stroke-width="1" stroke-linecap="butt"/><path d="M258.98966,179.621c-0.13384,-0.04398 -0.2644,-0.09804 -0.39167,-0.16219c-0.07372,-0.06131 -0.1264,-0.13481 -0.15802,-0.22048c0.13531,0.16199 0.30863,0.25609 0.51999,0.28237c0.05834,0.02875 0.12389,0.04752 0.19668,0.0563c-0.06244,0.00444 -0.11807,0.01911 -0.16698,0.044z" fill="#a87fae" fill-rule="evenodd" stroke="none" stroke-width="1" stroke-linecap="butt"/><path d="M259.44251,181.88692c-0.31212,-0.23122 -0.63167,-0.24203 -0.95871,-0.03245c-0.03391,-0.03672 -0.03278,-0.06979 0.00336,-0.09918c0.3151,-0.16571 0.62364,-0.15527 0.92565,0.03133c0.02836,0.02826 0.03826,0.0617 0.0297,0.10029z" fill="#976e9d" fill-rule="evenodd" stroke="none" stroke-width="1" stroke-linecap="butt"/><path d="M260.65998,179.48162c-0.07612,-0.2285 -0.11919,-0.46884 -0.12918,-0.72111c-0.01324,-0.22745 -0.05688,-0.45081 -0.13091,-0.66998c0.01818,-0.03353 0.03642,-0.06701 0.0546,-0.10054c0.20368,0.24295 0.33936,0.52057 0.40697,0.8329c0.05924,0.26454 -0.00794,0.48409 -0.20148,0.65872z" fill="#191409" fill-rule="evenodd" stroke="none" stroke-width="1" stroke-linecap="butt"/><path d="M260.78145,181.94312c-0.00159,0.47673 -0.16089,0.898 -0.47794,1.26372c0.06458,-0.45437 0.10573,-0.91374 0.12344,-1.37811c0.13803,-0.01243 0.25619,0.02566 0.3545,0.11439z" fill="#1b160c" fill-rule="evenodd" stroke="none" stroke-width="1" stroke-linecap="butt"/><path d="M260.65998,179.48162c-0.06695,0.08579 -0.14423,0.10023 -0.23185,0.04335c0.04981,-0.24943 0.08403,-0.50424 0.10267,-0.76446c0.00999,0.25227 0.05305,0.49261 0.12918,0.72111z" fill="#8f843d" fill-rule="evenodd" stroke="none" stroke-width="1" stroke-linecap="butt"/><path d="M259.51954,182.92432c0.23224,-0.36664 0.22727,-0.72517 -0.01479,-1.07561c0.0679,-0.00641 0.127,0.01265 0.17725,0.05719c0.1503,0.33172 0.13933,0.65556 -0.03288,0.9716c-0.03562,0.0373 -0.07879,0.05293 -0.12957,0.04681z" fill="#9c8d50" fill-rule="evenodd" stroke="none" stroke-width="1" stroke-linecap="butt"/><path d="M259.51954,182.92432c-0.44561,0.34646 -0.85355,0.29851 -1.22383,-0.14381c-0.1039,-0.27455 -0.1032,-0.5476 0.00213,-0.81906c0.07277,-0.07643 0.15179,-0.14205 0.23704,-0.19676c0.32794,-0.19297 0.65179,-0.18201 0.9716,0.03288c-0.00057,0.01703 -0.00115,0.03411 -0.00173,0.05113c0.24207,0.35044 0.24703,0.70897 0.01479,1.07561z" fill="#0c0907" fill-rule="evenodd" stroke="none" stroke-width="1" stroke-linecap="butt"/><path d="M259.48556,179.39067c-0.19362,0.08314 -0.39932,0.11032 -0.61711,0.0815c-0.15014,-0.06421 -0.28363,-0.15408 -0.40044,-0.26953c-0.18619,-0.33145 -0.17523,-0.65535 0.03288,-0.9716c0.05171,-0.0153 0.08698,-0.04825 0.10574,-0.09881c0.22327,-0.11828 0.46361,-0.16134 0.72111,-0.12918c0.4267,0.19562 0.59472,0.52559 0.50406,0.98978c-0.06962,0.17237 -0.18506,0.30495 -0.34624,0.39784z" fill="#0a0807" fill-rule="evenodd" stroke="none" stroke-width="1" stroke-linecap="butt"/><path d="M259.45173,178.87757c-0.00231,0.06817 -0.00461,0.13638 -0.00693,0.20455c-0.08524,-0.00289 -0.17044,-0.00577 -0.25569,-0.00865c0.00231,-0.06817 0.00461,-0.13638 0.00693,-0.20455c0.08524,0.00289 0.17044,0.00577 0.25569,0.00865z" fill="#d9d8d7" fill-rule="evenodd" stroke="none" stroke-width="1" stroke-linecap="butt"/><path d="M259.27596,182.55772c-0.00231,0.06817 -0.00461,0.13638 -0.00693,0.20454c-0.11138,0.01589 -0.19547,-0.02111 -0.25222,-0.11093c0.0627,-0.08578 0.1491,-0.117 0.25915,-0.09362z" fill="#e8e8e8" fill-rule="evenodd" stroke="none" stroke-width="1" stroke-linecap="butt"/><path d="M259.48556,179.39067c-0.04678,0.13419 -0.14282,0.19918 -0.28818,0.19503c-0.1222,-0.0196 -0.23182,-0.0574 -0.32893,-0.11353c0.21779,0.02882 0.42349,0.00164 0.61711,-0.0815z" fill="#766b30" fill-rule="evenodd" stroke="none" stroke-width="1" stroke-linecap="butt"/><path d="M259.50648,181.79758c-0.31981,-0.21489 -0.64367,-0.22585 -0.9716,-0.03288c0.00709,-0.09759 0.06025,-0.15554 0.15947,-0.17379c0.18868,-0.02776 0.37614,-0.02141 0.56251,0.01904c0.11462,0.03199 0.1978,0.09454 0.24963,0.18763z" fill="#958949" fill-rule="evenodd" stroke="none" stroke-width="1" stroke-linecap="butt"/><path d="M259.32773,178.00305c-0.2575,-0.03216 -0.49784,0.0109 -0.72111,0.12918c0.046,-0.0841 0.11619,-0.14147 0.2106,-0.17206c0.18176,-0.03521 0.35191,-0.0209 0.51051,0.04288z" fill="#7a7245" fill-rule="evenodd" stroke="none" stroke-width="1" stroke-linecap="butt"/><path d="M258.50089,178.23104c-0.20812,0.31625 -0.21908,0.64016 -0.03288,0.9716c-0.17368,-0.11426 -0.23641,-0.27852 -0.18811,-0.49273c0.01992,-0.18624 0.06858,-0.36377 0.14602,-0.53261c0.01862,0.02909 0.04361,0.04699 0.07497,0.05373z" fill="#c7b964" fill-rule="evenodd" stroke="none" stroke-width="1" stroke-linecap="butt"/><path d="M256.42076,179.15278c0,0 -0.41495,0.95774 -0.42982,1.39712c-0.01717,0.50736 0.33269,1.47252 0.33269,1.47252" fill="none" fill-rule="nonzero" stroke="#000000" stroke-width="0.5" stroke-linecap="round"/><path d="M265.94064,181.26015c-0.08214,-0.00195 -0.16427,-0.00389 -0.2464,-0.00584c-0.00162,-0.07198 0.01637,-0.13728 0.05395,-0.19595c0.10285,0.01142 0.2018,-0.00271 0.29684,-0.04226c0.05235,0.04389 0.05939,0.09337 0.02114,0.14842c-0.04968,0.02673 -0.09153,0.05863 -0.12553,0.09564z" fill="#4a4b4b" fill-rule="evenodd" stroke="none" stroke-width="1" stroke-linecap="butt"/><path d="M263.70904,181.79891c0.40141,-0.1244 0.81383,-0.18858 1.23726,-0.19254c0.32937,-0.11491 0.66043,-0.21391 0.99319,-0.29694c0.02207,0.07868 -0.01254,0.15182 -0.10382,0.21942c-0.71367,0.13568 -1.42411,0.29141 -2.1313,0.46718c0.00156,-0.06569 0.00312,-0.13143 0.00467,-0.19712z" fill="#4c4c4c" fill-rule="evenodd" stroke="none" stroke-width="1" stroke-linecap="butt"/><path d="M262.77426,185.86926c-0.06532,0.10757 -0.11732,0.22137 -0.15602,0.34145c-0.08109,0.13432 -0.17454,0.2636 -0.28039,0.38781c-0.0738,0.09509 -0.16569,0.15863 -0.27572,0.19069c0.04666,-0.11294 0.00595,-0.13038 -0.12203,-0.0522c-0.23303,-0.13279 -0.20645,-0.21435 0.07976,-0.24464c-0.03962,-0.04463 -0.08852,-0.0622 -0.14667,-0.05278c0.00158,-0.10178 -0.01249,-0.20073 -0.04226,-0.29684c0.04668,0.02344 0.087,0.05724 0.12086,0.10148c0.02625,-0.07995 0.03638,-0.1619 0.03049,-0.24582c0.03371,0.13146 0.07988,0.26401 0.13849,0.39774c0.16642,-0.20403 0.29507,-0.4311 0.38596,-0.68115c0.06785,-0.04178 0.14216,-0.05649 0.22293,-0.04402c0.00683,0.06534 -0.01094,0.12247 -0.05337,0.17131c0.02873,0.02356 0.0614,0.03257 0.09797,0.02698z" fill="#292f2a" fill-rule="evenodd" stroke="none" stroke-width="1" stroke-linecap="butt"/><path d="M266.1142,180.1795c-0.1362,0.28246 -0.25819,0.57541 -0.366,0.87885c-0.03759,0.05867 -0.05557,0.12398 -0.05395,0.19595c0.08214,0.00195 0.16426,0.00389 0.2464,0.00584c-0.00039,0.01642 -0.00078,0.03287 -0.00117,0.04928c-0.33275,0.08303 -0.66381,0.18203 -0.99319,0.29694c-0.42342,0.00396 -0.83584,0.06815 -1.23726,0.19254c-0.08776,0.04979 -0.12257,0.13116 -0.1044,0.24406c0.0639,-0.01017 0.11279,0.00741 0.14667,0.05278c-0.01642,-0.00039 -0.03286,-0.00078 -0.04928,-0.00117c-0.14949,0.03866 -0.18449,0.12821 -0.10498,0.2687c-0.03172,0.03623 -0.05733,0.07674 -0.07684,0.12145c-0.08439,-0.08829 -0.1904,-0.12369 -0.31798,-0.10615c-0.04261,0.1123 -0.08643,0.22635 -0.13138,0.34203c-0.02244,-0.0811 -0.02867,-0.16344 -0.0188,-0.24698c-0.07685,-0.00276 -0.15038,-0.02093 -0.22059,-0.05454c-0.09344,0.13091 -0.15056,0.11313 -0.17131,-0.05337c0.04928,0.00117 0.09856,0.00234 0.14784,0.00351c0.08126,-0.00862 0.1548,0.00959 0.2206,0.05454c0.0267,-0.09665 0.03727,-0.19502 0.03165,-0.29509c0.04928,0.00117 0.09856,0.00234 0.14784,0.00351c-0.00156,0.06569 -0.00312,0.13143 -0.00467,0.19712c0.08215,0.00195 0.16425,0.0039 0.2464,0.00584c0.00234,-0.09856 0.00467,-0.19712 0.00701,-0.29568c-0.32816,-0.0242 -0.32777,-0.04066 0.00117,-0.04928c0.00195,-0.08215 0.0039,-0.16425 0.00584,-0.2464c-0.26242,-0.02265 -0.26203,-0.03911 0.00117,-0.04928c0.00195,-0.08215 0.0039,-0.16425 0.00584,-0.2464c-0.21653,-0.00301 -0.23236,-0.02805 -0.04753,-0.07509c0.02968,-0.04333 0.0473,-0.09221 0.05278,-0.14667c-0.03547,-0.14704 -0.08124,-0.29605 -0.13732,-0.44703c0.05928,-0.16668 0.0716,-0.33897 0.03691,-0.51685c-0.01803,-0.04619 -0.05013,-0.07983 -0.09622,-0.1009c-0.06517,0.04539 -0.12268,0.04403 -0.17248,-0.00409c0.07725,-0.04511 0.15979,-0.05957 0.24757,-0.04344c0.00556,-0.07037 -0.00929,-0.1365 -0.0446,-0.19828c0.06174,-0.05228 0.10435,-0.11704 0.12788,-0.1942c0.01616,0.25629 0.05959,0.50386 0.13031,0.7427c0.02761,-0.12981 0.03894,-0.26105 0.03399,-0.39366c0.27195,0.02227 0.53516,0.0121 0.78965,-0.03058c0.57186,-0.10053 1.14834,-0.15259 1.72947,-0.15621c0.00156,-0.06569 0.00312,-0.13143 0.00467,-0.19712c-0.27954,-0.01481 -0.55898,-0.0132 -0.83834,0.00478c-0.55637,0.12408 -1.11545,0.13547 -1.67726,0.03418c-0.00195,0.08215 -0.00389,0.16425 -0.00584,0.2464c-0.09431,-0.1439 -0.10721,-0.29212 -0.03876,-0.44469c0.28041,0.10226 0.58312,0.15874 0.90817,0.16946c0.3698,-0.05015 0.74057,-0.09067 1.1123,-0.12154c0.18163,0.01378 0.36193,0.03447 0.54091,0.06213c0.00195,-0.08215 0.0039,-0.16425 0.00584,-0.2464c-0.18715,-0.02845 -0.37565,-0.04939 -0.56555,-0.06272c-0.35854,0.05949 -0.72109,0.1002 -1.08766,0.12213c-0.18989,-0.01333 -0.3784,-0.03427 -0.56555,-0.06272c0.036,-0.04372 0.08566,-0.05897 0.14901,-0.04577c0.67292,-0.04271 1.34719,-0.05961 2.0228,-0.05064c0.00992,-0.06495 -0.00515,-0.12285 -0.04519,-0.17365c-0.16893,-0.04636 -0.34082,-0.0751 -0.51568,-0.08619c-0.66514,0.09857 -1.3308,0.09925 -1.99699,0.00194c-0.02674,0.21671 0.06987,0.3012 0.28983,0.25341c-0.08808,0.0453 -0.18703,0.05942 -0.29684,0.04226c0.00611,0.05202 -0.00324,0.1011 -0.02814,0.14726c-0.02748,-0.11159 -0.09122,-0.1953 -0.19128,-0.25107c-0.0168,0.01602 -0.03365,0.03209 -0.05045,0.04811c0.00498,-0.21594 -0.09982,-0.30063 -0.31447,-0.254c0.03737,0.26241 0.064,0.526 0.07986,0.79081c0.05202,-0.00611 0.1011,0.00324 0.14726,0.02815c-0.10157,0.08521 -0.17803,0.19024 -0.22936,0.31505c0.01268,0.49416 0.00923,0.98716 -0.01042,1.47898c-0.01666,0.17465 -0.05343,0.33812 -0.11025,0.49046c0.03001,-0.58333 0.02723,-1.15867 -0.00837,-1.72596c-0.11805,-1.56106 -0.43539,-3.08065 -0.95198,-4.55886c-0.09153,-0.17815 -0.19437,-0.34493 -0.30863,-0.5004c-0.03026,-0.13436 -0.09765,-0.23631 -0.20215,-0.30587c-0.02605,-0.15216 -0.12207,-0.28111 -0.25442,-0.35161c0.00072,-0.00912 0.00119,-0.0183 0.00142,-0.02756c0.00039,-0.01662 -0.00004,-0.03306 -0.00126,-0.0493c0.00989,0.00313 0.01984,0.00622 0.02985,0.00926c0.67537,0.02891 1.34791,0.08595 2.01755,0.17112c0.31536,0.10001 0.62456,0.23061 0.92755,0.39181c0.34765,0.27583 0.68598,0.56329 1.015,0.8623c0.15062,0.05973 0.2969,0.12893 0.43885,0.20764c0.16825,0.24476 0.31827,0.50308 0.45004,0.77494c0.04714,0.52466 0.06753,1.05111 0.06116,1.57929c0.04866,0.24138 0.12534,0.47327 0.23004,0.69576c0.03893,0.31112 -0.00915,0.60582 -0.14424,0.88412z" fill="#0e0d0c" fill-rule="nonzero" stroke="none" stroke-width="1" stroke-linecap="butt"/><path d="M265.63524,177.50554c-0.45802,-0.04168 -0.91777,-0.06082 -1.37925,-0.05736c-0.2818,-0.1411 -0.55755,-0.29556 -0.82723,-0.46339c-0.15757,-0.06286 -0.32124,-0.09139 -0.49104,-0.08561c-0.01247,0.08077 0.00224,0.15507 0.04402,0.22293c0.11326,0.02719 0.22803,0.0381 0.34437,0.03282c-0.11875,0.03219 -0.24274,0.06214 -0.37194,0.08979c-0.01602,-0.0168 -0.03209,-0.03365 -0.04811,-0.05045c-0.03677,0.0868 -0.06356,0.17659 -0.08035,0.26928c0.05134,0.12641 0.04842,0.24961 -0.00876,0.3696c0.11509,0.04726 0.18707,0.13115 0.21591,0.25165c0.0565,-0.07445 0.1312,-0.10551 0.22409,-0.0933c0.00066,0.05342 0.01595,0.10309 0.04577,0.14901c0.08748,0.03511 0.16884,0.06993 0.24406,0.1044c-0.09404,-0.01624 -0.17653,-0.00177 -0.24757,0.04343c0.02463,0.08031 0.03908,0.16285 0.04343,0.24757c-0.00964,0.04868 0.00604,0.08189 0.04694,0.09973c-0.00156,0.06569 -0.00312,0.13143 -0.00467,0.19712c0.00543,0.04333 -0.01176,0.07581 -0.05162,0.09739c-0.08278,-0.25802 -0.14847,-0.25957 -0.19712,-0.00467c-0.28517,-0.06988 -0.36322,-0.2443 -0.23412,-0.52328c-0.11471,-0.07003 -0.19451,-0.17054 -0.23939,-0.30153c0.023,-0.01987 0.04005,-0.04412 0.05103,-0.07275c-0.11306,-0.33876 -0.20345,-0.68606 -0.27113,-1.04188c0.05968,-0.04439 0.12576,-0.05924 0.19829,-0.0446c0.01551,-0.09475 -0.00718,-0.17743 -0.06808,-0.24816c-0.02547,0.05112 -0.01846,0.1006 0.02114,0.14843c-0.17772,0.06289 -0.25826,-0.00479 -0.24172,-0.20297c0.04928,0.00117 0.09856,0.00234 0.14784,0.00351c0.01525,-0.17497 -0.02542,-0.19241 -0.12203,-0.0522c-0.12568,-0.2332 -0.22662,-0.48213 -0.30279,-0.7468c0.06869,-0.05231 0.12581,-0.03449 0.17131,0.05337c0.02601,-0.09691 0.08503,-0.16124 0.17715,-0.19303c0.22837,-0.05957 0.45953,-0.1034 0.69343,-0.13148c0.2706,0.02708 0.48126,0.15534 0.63187,0.38479c-0.02984,0.02217 -0.06288,0.02962 -0.09914,0.0223c-0.38617,-0.2309 -0.7961,-0.27346 -1.22966,-0.12778c0.68897,-0.10594 1.22598,0.12045 1.61104,0.67921c-0.21693,-0.18482 -0.44281,-0.36276 -0.67765,-0.5338c-0.29767,-0.0435 -0.59374,-0.0341 -0.8882,0.02824c0.02673,0.04969 0.05863,0.09153 0.09564,0.12553c0.01563,0.03326 0.03131,0.06647 0.04694,0.09973c-0.0054,0.04898 0.01008,0.09042 0.04636,0.12436c0.2296,0.02186 0.45915,0.04377 0.68875,0.06565c0.3159,0.22262 0.62274,0.45178 0.92054,0.68748c-0.08913,-0.00167 -0.17068,-0.02826 -0.24464,-0.07976c-0.20964,-0.16931 -0.41931,-0.33868 -0.62895,-0.50799c-0.10788,-0.02095 -0.21409,-0.04812 -0.31857,-0.08152c-0.10594,0.0284 -0.21331,0.05051 -0.32207,0.06632c0.03576,0.0719 0.06684,0.1466 0.0933,0.22409c0.2352,0.03921 0.46378,0.10212 0.68583,0.18884c0.30779,0.27129 0.66586,0.41952 1.07422,0.44459c0.36607,-0.08698 0.71025,-0.04593 1.03253,0.1231z" fill="#1a1a1b" fill-rule="evenodd" stroke="none" stroke-width="1" stroke-linecap="butt"/><path d="M264.03122,176.53065c-0.38505,-0.55876 -0.92206,-0.78515 -1.61104,-0.67921c0.43356,-0.14568 0.84348,-0.10311 1.22966,0.12778c0.14618,0.20395 0.32297,0.37249 0.53039,0.50565c0.07044,0.09584 0.16764,0.15565 0.29159,0.17949c0.32884,0.01864 0.65737,0.02644 0.9856,0.02337c0.13683,0.0309 0.25027,0.09933 0.34029,0.2053c-0.11412,-0.01779 -0.22833,-0.05334 -0.34262,-0.10674c-0.5061,0.07374 -0.98072,-0.01148 -1.42385,-0.25566z" fill="#323232" fill-rule="evenodd" stroke="none" stroke-width="1" stroke-linecap="butt"/><path d="M262.80545,180.39687c0.03561,0.56729 0.03838,1.14263 0.00837,1.72596c-0.00195,0.08215 -0.00389,0.16425 -0.00584,0.2464c-0.04928,-0.00117 -0.09856,-0.00234 -0.14784,-0.00351c0.09427,-0.65247 0.14272,-1.30874 0.14531,-1.96885z" fill="#241e09" fill-rule="evenodd" stroke="none" stroke-width="1" stroke-linecap="butt"/><path d="M264.39175,180.04003c-0.25448,0.04267 -0.51769,0.05286 -0.78964,0.03058c0.00495,0.13261 -0.00638,0.26384 -0.03399,0.39366c-0.07071,-0.23885 -0.11415,-0.48641 -0.13031,-0.7427c-0.02353,0.07715 -0.06613,0.14192 -0.12788,0.1942c0.03531,0.06178 0.05017,0.12791 0.0446,0.19828c-0.08778,-0.01614 -0.17032,-0.00167 -0.24757,0.04343c0.0498,0.04812 0.10731,0.04949 0.17248,0.00409c0.0461,0.02107 0.07818,0.05471 0.09622,0.1009c0.03469,0.17789 0.02237,0.35017 -0.03691,0.51685c0.05608,0.15098 0.10186,0.29999 0.13732,0.44702c-0.00549,0.05445 -0.02311,0.10334 -0.05278,0.14667c-0.18484,0.04704 -0.16901,0.07208 0.04753,0.07509c-0.00195,0.08215 -0.00389,0.16425 -0.00584,0.2464c-0.2632,0.01018 -0.26359,0.02663 -0.00117,0.04928c-0.00195,0.08215 -0.0039,0.16425 -0.00584,0.2464c-0.32893,0.00861 -0.32933,0.02508 -0.00117,0.04928c-0.00234,0.09856 -0.00467,0.19711 -0.00701,0.29568c-0.08215,-0.00195 -0.16425,-0.00389 -0.2464,-0.00584c0.00156,-0.06569 0.00312,-0.13143 0.00467,-0.19712c-0.04928,-0.00117 -0.09856,-0.00234 -0.14784,-0.00351c0.00562,0.10008 -0.00495,0.19845 -0.03165,0.29509c-0.0658,-0.04495 -0.13932,-0.06317 -0.22059,-0.05454c0.00195,-0.08215 0.00389,-0.16425 0.00584,-0.2464c0.05681,-0.15234 0.09358,-0.31581 0.11025,-0.49046c0.01965,-0.49182 0.02311,-0.98481 0.01042,-1.47897c0.05133,-0.12481 0.12778,-0.22985 0.22936,-0.31506c-0.04615,-0.02491 -0.09524,-0.03425 -0.14726,-0.02814c-0.01586,-0.26481 -0.0425,-0.5284 -0.07985,-0.79081c0.21465,-0.04663 0.31945,0.03805 0.31447,0.254c0.0168,-0.01602 0.03365,-0.03209 0.05045,-0.04811c0.10005,0.05577 0.1638,0.13948 0.19127,0.25107c0.02491,-0.04615 0.03426,-0.09524 0.02815,-0.14726c0.10981,0.01715 0.20877,0.00303 0.29684,-0.04227c0.09469,-0.01176 0.17643,0.0066 0.24523,0.05512c-0.06334,-0.01319 -0.11301,0.00205 -0.14901,0.04577c-0.11498,-0.00272 -0.22998,-0.00546 -0.34496,-0.00818c-0.00117,0.04928 -0.00234,0.09856 -0.00351,0.14784c-0.06845,0.15256 -0.05555,0.30079 0.03876,0.44469c0.25713,0.05289 0.51956,0.07554 0.7873,0.06798z" fill="#272726" fill-rule="evenodd" stroke="none" stroke-width="1" stroke-linecap="butt"/><path d="M265.92273,177.85751c-0.00718,0.05338 -0.04082,0.08547 -0.1009,0.09622c-0.22032,-0.08614 -0.44913,-0.14087 -0.68641,-0.1642c-0.29592,0.04106 -0.59179,0.04227 -0.88762,0.00361c-0.38351,-0.13044 -0.77601,-0.21371 -1.17745,-0.24981c-0.01407,-0.09895 -0.02819,-0.1979 -0.04226,-0.29684c0.13261,-0.00494 0.26384,0.00641 0.39366,0.03399c0.2586,0.15943 0.53512,0.28102 0.82957,0.36483c0.44313,0.02693 0.88625,0.05391 1.32939,0.08084c0.10921,0.0586 0.22321,0.10243 0.34203,0.13138z" fill="#515151" fill-rule="evenodd" stroke="none" stroke-width="1" stroke-linecap="butt"/><path d="M265.63524,177.50554c-0.32229,-0.16903 -0.66647,-0.21008 -1.03254,-0.1231c-0.40836,-0.02507 -0.76643,-0.1733 -1.07422,-0.44459c-0.22204,-0.08672 -0.45062,-0.14963 -0.68583,-0.18884c-0.02646,-0.0775 -0.05753,-0.15219 -0.0933,-0.22409c0.10875,-0.01581 0.21613,-0.03792 0.32207,-0.06633c0.10448,0.0334 0.21068,0.06057 0.31857,0.08152c0.20964,0.16931 0.4193,0.33868 0.62895,0.50799c0.07397,0.05151 0.15552,0.0781 0.24464,0.07976c-0.2978,-0.2357 -0.60463,-0.46487 -0.92054,-0.68748c-0.2296,-0.02186 -0.45915,-0.04377 -0.68874,-0.06564c-0.03627,-0.03394 -0.05176,-0.07539 -0.04636,-0.12437c0.27947,-0.03292 0.55888,-0.03453 0.83834,-0.00477c0.16192,0.10245 0.29023,0.237 0.38489,0.40359c0.13673,0.11409 0.28224,0.21615 0.4365,0.3062c0.39385,0.02576 0.7877,0.05157 1.18155,0.07732c0.12986,0.06881 0.2597,0.13766 0.38956,0.20647c0.046,0.03649 0.05324,0.07774 0.02172,0.12378c-0.27459,-0.18742 -0.57711,-0.25214 -0.90758,-0.1941c0.34519,0.00814 0.65496,0.1141 0.9293,0.31789c-0.08111,0.02244 -0.16343,0.02867 -0.24698,0.0188z" fill="#4f4f4f" fill-rule="evenodd" stroke="none" stroke-width="1" stroke-linecap="butt"/><path d="M264.26163,181.36825c-0.17338,0.04036 -0.35484,0.06895 -0.54441,0.0857c0.00156,-0.06569 0.00312,-0.13143 0.00467,-0.19711c0.11656,-0.00581 0.23193,-0.0195 0.34612,-0.0411c0.09601,0.01702 0.16055,0.06786 0.19362,0.15251z" fill="#4f4e4f" fill-rule="evenodd" stroke="none" stroke-width="1" stroke-linecap="butt"/><path d="M264.12432,180.92123c-0.00039,0.01642 -0.00078,0.03287 -0.00117,0.04928c-0.04534,0.03788 -0.07936,0.08637 -0.10207,0.1455c-0.08808,0.0453 -0.18703,0.05942 -0.29684,0.04227c-0.01118,-0.07314 0.0068,-0.13844 0.05395,-0.19595c0.11173,-0.04045 0.22711,-0.05418 0.34613,-0.0411z" fill="#4d4c49" fill-rule="evenodd" stroke="none" stroke-width="1" stroke-linecap="butt"/><path d="M264.36019,181.37059c-0.03285,-0.00078 -0.0657,-0.00156 -0.09855,-0.00234c-0.03307,-0.08466 -0.0976,-0.13549 -0.19362,-0.15251c0.00962,-0.04869 -0.00604,-0.08189 -0.04695,-0.09973c0.02271,-0.05912 0.05673,-0.10762 0.10207,-0.1455c0.06571,0.00156 0.13141,0.00312 0.19711,0.00467c-0.00117,0.04928 -0.00234,0.09856 -0.00351,0.14784c-0.26321,0.01018 -0.2636,0.02664 -0.00117,0.04928c-0.00502,0.07182 0.00984,0.1379 0.0446,0.19829z" fill="#412b1b" fill-rule="evenodd" stroke="none" stroke-width="1" stroke-linecap="butt"/><path d="M265.12004,176.35925c-0.19018,0.10954 -0.38749,0.11309 -0.59194,0.01061c-0.23666,-0.11705 -0.44671,-0.26995 -0.63012,-0.45871c0.08911,-0.01351 0.10632,-0.046 0.05161,-0.09739c-0.20149,-0.17731 -0.42833,-0.31419 -0.68056,-0.41061c-0.40677,-0.06704 -0.81669,-0.10965 -1.22966,-0.12778c0.37861,-0.02391 0.75639,-0.01495 1.13343,0.02688c0.15264,0.04667 0.29911,0.10763 0.43943,0.183c0.05935,-0.01566 0.05993,-0.04029 0.00175,-0.07392c-0.12618,-0.06202 -0.25644,-0.11441 -0.39073,-0.15719c-0.45905,-0.06055 -0.91805,-0.11255 -1.37691,-0.15593c-0.04811,-0.05045 -0.09622,-0.1009 -0.14433,-0.15134c0.37771,-0.02338 0.75573,-0.02264 1.13401,0.00224c-0.42402,-0.0636 -0.85034,-0.10659 -1.27893,-0.12895c0.76718,-0.06259 1.50404,0.05351 2.21058,0.34827c0.45006,0.32038 0.88578,0.65944 1.30717,1.01715c-0.11141,-0.00047 -0.20899,-0.04386 -0.29276,-0.13021c-0.04018,0.01423 -0.07362,0.03809 -0.10031,0.07158c0.06493,0.03443 0.12985,0.06881 0.19478,0.10324c-0.03325,0.01563 -0.06648,0.03131 -0.09973,0.04694c0.1132,0.03532 0.22759,0.0627 0.3432,0.0821z" fill="#222222" fill-rule="evenodd" stroke="none" stroke-width="1" stroke-linecap="butt"/><path d="M263.38493,178.83277c0.00156,-0.06569 0.00312,-0.13143 0.00467,-0.19712c0.40832,0.06535 0.81782,0.12437 1.22849,0.17706c0.44532,-0.04141 0.88884,-0.03089 1.33055,0.03156c0.01565,0.03326 0.0313,0.06647 0.04694,0.09973c-0.47589,-0.01627 -0.95303,0.0053 -1.43145,0.06466c-0.36137,-0.02691 -0.72217,-0.06013 -1.0824,-0.09963c-0.02597,-0.03597 -0.05825,-0.06139 -0.0968,-0.07626z" fill="#4f4f4f" fill-rule="evenodd" stroke="none" stroke-width="1" stroke-linecap="butt"/><path d="M263.54679,178.24493c-0.07522,-0.03448 -0.15658,-0.06929 -0.24406,-0.1044c-0.02983,-0.04592 -0.04511,-0.0956 -0.04577,-0.14901c0.38019,0.03451 0.75663,0.10098 1.12934,0.19936c0.48122,0.01393 0.9568,0.05809 1.42677,0.13245c0.05944,0.07473 0.03382,0.1152 -0.07684,0.12145c-0.73308,-0.0416 -1.4629,-0.10821 -2.18944,-0.19985z" fill="#505050" fill-rule="evenodd" stroke="none" stroke-width="1" stroke-linecap="butt"/><path d="M264.39175,180.04003c-0.26774,0.00755 -0.53019,-0.01509 -0.7873,-0.06798c0.00195,-0.08215 0.00389,-0.16425 0.00584,-0.2464c0.56181,0.10129 1.1209,0.08989 1.67726,-0.03418c0.27935,-0.01798 0.55881,-0.01958 0.83834,-0.00477c-0.00156,0.06569 -0.00312,0.13143 -0.00467,0.19712c-0.58113,0.00362 -1.15762,0.05568 -1.72947,0.15621z" fill="#525252" fill-rule="evenodd" stroke="none" stroke-width="1" stroke-linecap="butt"/><path d="M264.06315,179.34194c-0.0688,-0.04853 -0.15054,-0.06688 -0.24523,-0.05512c-0.21996,0.04779 -0.31657,-0.03669 -0.28983,-0.25341c0.66619,0.09731 1.33186,0.09663 1.99699,-0.00194c0.17486,0.0111 0.34676,0.03983 0.51568,0.08619c0.04004,0.0508 0.05511,0.1087 0.04519,0.17365c-0.67561,-0.00897 -1.34988,0.00793 -2.0228,0.05064z" fill="#515151" fill-rule="evenodd" stroke="none" stroke-width="1" stroke-linecap="butt"/><path d="M265.91806,178.05463c0.01118,0.07314 -0.0068,0.13844 -0.05396,0.19595c-0.18511,-0.09423 -0.38106,-0.14819 -0.58784,-0.16187c-0.27965,0.03715 -0.55909,0.03876 -0.83834,0.00478c-0.40793,-0.08339 -0.81705,-0.15887 -1.22732,-0.22634c-0.04178,-0.06785 -0.05649,-0.14216 -0.04402,-0.22293c0.41629,0.04434 0.82522,0.128 1.22673,0.25098c0.27096,0.03107 0.54218,0.02928 0.8137,-0.00536c0.24328,0.02963 0.4803,0.08456 0.71105,0.16479z" fill="#4e4e4e" fill-rule="evenodd" stroke="none" stroke-width="1" stroke-linecap="butt"/><path d="M264.26359,177.12786c0.21312,0.02562 0.42608,0.05532 0.63889,0.08911c-0.22953,0.04086 -0.4425,0.01115 -0.63889,-0.08911z" fill="#0b0b0b" fill-rule="evenodd" stroke="none" stroke-width="1" stroke-linecap="butt"/><path d="M264.18022,176.48488c-0.08573,-0.11529 -0.18175,-0.22437 -0.28808,-0.32733c0.01662,-0.00784 0.03324,-0.01563 0.04986,-0.02347c0.16845,0.16429 0.36264,0.29217 0.58259,0.38363c0.31171,0.02381 0.62343,0.04767 0.93515,0.07149c-0.44183,0.10382 -0.86834,0.06905 -1.27952,-0.1043z" fill="#333333" fill-rule="evenodd" stroke="none" stroke-width="1" stroke-linecap="butt"/><path d="M265.20378,181.14405c-0.09516,0.04636 -0.14639,0.1273 -0.15368,0.24289c-0.09722,0.00948 -0.18718,-0.00908 -0.26986,-0.05571c-0.11676,0.14644 -0.25716,0.17595 -0.42122,0.08862c0.00039,-0.01642 0.00078,-0.03287 0.00117,-0.04928c-0.03477,-0.06039 -0.04963,-0.12647 -0.0446,-0.19829c-0.26243,-0.02265 -0.26204,-0.03911 0.00117,-0.04928c0.00117,-0.04928 0.00234,-0.09856 0.00351,-0.14784c-0.06571,-0.00156 -0.13141,-0.00312 -0.19711,-0.00467c0.00039,-0.01642 0.00078,-0.03287 0.00117,-0.04928c0.1123,-0.04492 0.19638,-0.12512 0.25224,-0.24056c0.19928,0.10393 0.41225,0.13364 0.63889,0.08911c0.03786,-0.03219 0.05527,-0.07285 0.0522,-0.12203c0.06945,0.10894 0.08315,0.2243 0.0411,0.34613c0.0539,0.039 0.08558,0.08906 0.09506,0.15018z" fill="#cfa55b" fill-rule="evenodd" stroke="none" stroke-width="1" stroke-linecap="butt"/><path d="M264.66639,180.93409c0.00529,0.11635 -0.00565,0.23111 -0.03282,0.34437c-0.07966,0.05861 -0.14497,0.04064 -0.19595,-0.05395c-0.02211,-0.0978 -0.02799,-0.19656 -0.01763,-0.29626c0.08214,0.00195 0.16427,0.00389 0.2464,0.00584z" fill="#322018" fill-rule="evenodd" stroke="none" stroke-width="1" stroke-linecap="butt"/><path d="M263.32611,177.15493c-0.11634,0.00528 -0.23112,-0.00563 -0.34437,-0.03282c-0.04178,-0.06785 -0.05649,-0.14216 -0.04402,-0.22293c0.1698,-0.00579 0.33347,0.02275 0.49104,0.08561c0.26969,0.16783 0.54544,0.32229 0.82723,0.46339c0.46147,-0.00345 0.92122,0.01569 1.37924,0.05736c0.06969,0.04746 0.13403,0.10648 0.19303,0.17715c-0.51898,-0.06872 -1.04385,-0.11405 -1.57462,-0.13596c-0.3168,-0.11668 -0.62596,-0.24728 -0.92755,-0.39181z" fill="#555555" fill-rule="evenodd" stroke="none" stroke-width="1" stroke-linecap="butt"/><path d="M265.01134,180.94227c-0.00234,0.09856 -0.00467,0.19712 -0.00701,0.29568c-0.21776,0.01643 -0.29754,-0.08407 -0.23939,-0.30153c0.08214,0.00195 0.16426,0.0039 0.2464,0.00584z" fill="#402515" fill-rule="evenodd" stroke="none" stroke-width="1" stroke-linecap="butt"/><path d="M263.34266,178.53593c-0.00435,-0.08472 -0.01881,-0.16726 -0.04343,-0.24757c0.31704,0.00875 0.62817,0.05721 0.93339,0.14541c0.55984,0.02472 1.11775,0.0626 1.67376,0.11366c-0.00117,0.04928 -0.00234,0.09856 -0.00351,0.14784c-0.44405,-0.01048 -0.88796,-0.00459 -1.33172,0.01772c-0.40791,-0.06347 -0.8174,-0.12249 -1.22849,-0.17706z" fill="#4f4f4f" fill-rule="evenodd" stroke="none" stroke-width="1" stroke-linecap="butt"/><path d="M265.20378,181.14405c-0.00947,-0.06112 -0.04115,-0.11118 -0.09506,-0.15018c0.04206,-0.12183 0.02836,-0.23718 -0.0411,-0.34612c0.23011,-0.10943 0.47807,-0.16932 0.74387,-0.17958c0.00223,0.07056 -0.01576,0.13591 -0.05395,0.19595c-0.14052,0.04992 -0.28132,0.09588 -0.42238,0.13791c-0.03402,0.0485 -0.0352,0.09778 -0.00351,0.14784c0.083,-0.09911 0.19094,-0.14586 0.32382,-0.14025c-0.00156,0.06569 -0.00312,0.13143 -0.00467,0.19712c-0.14338,0.05493 -0.29239,0.1007 -0.44703,0.13732z" fill="#52443b" fill-rule="evenodd" stroke="none" stroke-width="1" stroke-linecap="butt"/><path d="M262.56101,176.15063c-0.03701,-0.03401 -0.06891,-0.07585 -0.09564,-0.12553c0.29446,-0.06234 0.59053,-0.07174 0.8882,-0.02824c0.23484,0.17105 0.46072,0.34898 0.67765,0.5338c0.13634,0.16304 0.31489,0.25765 0.53565,0.2839c0.32814,0.0242 0.65628,0.04846 0.98443,0.07266c0.11454,0.04399 0.21154,0.11207 0.291,0.20413c-0.10334,-0.00403 -0.20112,-0.03924 -0.29334,-0.10557c-0.361,-0.02498 -0.72199,-0.05001 -1.08299,-0.07499c-0.14121,-0.02494 -0.27146,-0.07734 -0.39073,-0.15719c-0.1954,-0.2388 -0.42073,-0.44137 -0.67589,-0.60772c-0.27898,-0.01855 -0.5584,-0.01694 -0.83834,0.00477z" fill="#383838" fill-rule="evenodd" stroke="none" stroke-width="1" stroke-linecap="butt"/><path d="M264.35901,181.41987c0.16405,0.08732 0.30445,0.05781 0.42122,-0.08862c0.08269,0.04663 0.17265,0.06519 0.26986,0.05571c0.14557,-0.12189 0.31218,-0.21655 0.49981,-0.28399c0.06414,0.06725 0.06259,0.13299 -0.00467,0.19712c-0.17142,0.09356 -0.35387,0.1632 -0.54734,0.2089c-0.38423,0.00884 -0.76341,0.05733 -1.13753,0.14559c-0.04889,-0.01758 -0.09778,-0.03521 -0.14667,-0.05278c0.01681,-0.01602 0.03364,-0.0321 0.05045,-0.04812c0.20951,-0.02047 0.4078,-0.06507 0.59486,-0.13381z" fill="#4e4948" fill-rule="evenodd" stroke="none" stroke-width="1" stroke-linecap="butt"/><path d="M263.56568,179.52737c0.00117,-0.04928 0.00234,-0.09856 0.00351,-0.14784c0.11498,0.00272 0.22998,0.00546 0.34496,0.00818c0.18715,0.02845 0.37565,0.04939 0.56555,0.06272c0.36657,-0.02193 0.72912,-0.06263 1.08766,-0.12213c0.18989,0.01333 0.3784,0.03427 0.56555,0.06272c-0.00195,0.08215 -0.0039,0.16425 -0.00584,0.2464c-0.17897,-0.02767 -0.35928,-0.04836 -0.54091,-0.06214c-0.37174,0.03088 -0.7425,0.07139 -1.1123,0.12154c-0.32505,-0.01072 -0.62776,-0.0672 -0.90817,-0.16946z" fill="#4f4f4f" fill-rule="evenodd" stroke="none" stroke-width="1" stroke-linecap="butt"/><path d="M265.91591,180.22411c0.005,0.0802 -0.02922,0.13687 -0.10265,0.17014c-0.36504,0.01727 -0.71234,0.10765 -1.04188,0.27113c-0.17552,0.02104 -0.33941,0.00073 -0.49163,-0.06096c-0.04496,0.06579 -0.06314,0.13932 -0.05454,0.22059c-0.18155,0.00674 -0.36264,0.01891 -0.54325,0.03642c0.00272,-0.11497 0.00546,-0.22999 0.00818,-0.34496c0.74968,-0.05308 1.4916,-0.15056 2.22577,-0.29236z" fill="#504f4f" fill-rule="evenodd" stroke="none" stroke-width="1" stroke-linecap="butt"/><path d="M266.07076,179.93194c-0.0032,0.05332 -0.0208,0.10221 -0.05278,0.14667c-0.49066,0.0425 -0.96957,0.13799 -1.43671,0.28643c-0.29432,0.05031 -0.59058,0.06794 -0.88878,0.05288c-0.01409,-0.09895 -0.02818,-0.1979 -0.04226,-0.29684c0.34515,0.01637 0.69031,0.01638 1.03546,-0.00009c0.45587,-0.11108 0.91756,-0.17408 1.38509,-0.18903z" fill="#4f4f4f" fill-rule="evenodd" stroke="none" stroke-width="1" stroke-linecap="butt"/><path d="M266.1366,181.3141c-0.09128,0.18052 -0.15344,0.37627 -0.1865,0.58726c-0.01668,0.2986 -0.05654,0.5935 -0.1196,0.8847c-0.14834,0.18592 -0.24375,0.39731 -0.28623,0.6342c-0.05885,0.19499 -0.14527,0.37376 -0.25925,0.53623c-0.15902,0.09923 -0.32543,0.18571 -0.49923,0.25935c-0.48416,0.03743 -0.96151,0.06723 -1.43203,0.0893c-0.07202,0.26135 -0.14394,0.52265 -0.21582,0.7838c-0.11909,0.25648 -0.2403,0.51662 -0.36366,0.78029c-0.03657,0.00559 -0.06924,-0.00342 -0.09797,-0.02698c0.04243,-0.04884 0.0602,-0.10596 0.05337,-0.17131c-0.08077,-0.01247 -0.15507,0.00224 -0.22293,0.04402c-0.09088,0.25005 -0.21954,0.47712 -0.38596,0.68115c-0.05861,-0.13373 -0.10478,-0.26628 -0.13849,-0.39774c-0.04135,-0.47054 -0.16221,-0.91717 -0.36268,-1.3399c-0.01738,0.04066 -0.03482,0.08137 -0.0522,0.12203c0.09739,0.45268 0.18524,0.90672 0.26353,1.3622c0.02977,0.09612 0.04384,0.19506 0.04227,0.29684c0.05816,-0.00942 0.10705,0.00816 0.14667,0.05278c-0.28621,0.03029 -0.31279,0.11186 -0.07976,0.24465c0.12799,-0.07818 0.1687,-0.06074 0.12203,0.0522c-0.18079,0.02406 -0.32746,-0.02872 -0.44001,-0.15836c-0.14928,-0.54991 -0.23459,-1.1108 -0.25593,-1.68253c-0.00962,-0.0012 -0.01912,-0.0021 -0.02849,-0.00269c0.04921,-0.0746 0.07875,-0.16348 0.08102,-0.25941c0.00088,-0.03716 -0.00237,-0.07345 -0.00934,-0.10844c0.15051,-0.06685 0.27299,-0.17018 0.3674,-0.31003c0.19599,-0.23494 0.35007,-0.49424 0.46222,-0.77796c0.16366,-0.37071 0.30406,-0.74542 0.42112,-1.12408c0.02076,0.16651 0.07787,0.18428 0.17131,0.05337c0.0702,0.03361 0.14374,0.05178 0.22059,0.05454c-0.00987,0.08354 -0.00364,0.16588 0.0188,0.24698c0.04495,-0.1157 0.08878,-0.22974 0.13138,-0.34203c0.12758,-0.01754 0.23359,0.01787 0.31798,0.10615c0.01951,-0.0447 0.04513,-0.08522 0.07684,-0.12145c-0.07951,-0.14049 -0.04449,-0.23004 0.10498,-0.2687c-0.00156,0.06569 -0.00312,0.13143 -0.00467,0.19712c0.40342,-0.10842 0.81584,-0.1726 1.23726,-0.19254c0.23231,-0.0931 0.46462,-0.18621 0.69693,-0.27931c0.03906,-0.07362 0.08989,-0.13819 0.15251,-0.19362c-0.22358,0.01516 -0.43868,0.07578 -0.64531,0.18192c-0.48243,0.00759 -0.9449,0.10347 -1.38743,0.28759c-0.03388,-0.04538 -0.08277,-0.06296 -0.14667,-0.05278c-0.01816,-0.1129 0.01664,-0.19427 0.1044,-0.24406c-0.00156,0.06569 -0.00312,0.13143 -0.00467,0.19712c0.70719,-0.17577 1.41762,-0.3315 2.1313,-0.46718c0.09129,-0.0676 0.12589,-0.14075 0.10382,-0.21942c0.00039,-0.01642 0.00078,-0.03287 0.00117,-0.04928c0.03401,-0.03701 0.07586,-0.0689 0.12553,-0.09564c0.03826,-0.05506 0.03121,-0.10454 -0.02114,-0.14843c-0.09505,0.03956 -0.194,0.05368 -0.29684,0.04226c0.10779,-0.30345 0.2298,-0.5964 0.366,-0.87885c0.0486,0.23802 0.09223,0.47737 0.13089,0.71806c-0.00259,0.14905 -0.03876,0.28792 -0.1085,0.41654z" fill="#131411" fill-rule="nonzero" stroke="none" stroke-width="1" stroke-linecap="butt"/><path d="M262.23687,185.65928c0.0046,0.14892 -0.00714,0.29657 -0.03516,0.44293c-0.03442,0.06491 -0.06725,0.06413 -0.09855,-0.00234c-0.06351,-0.36584 -0.13704,-0.72916 -0.22069,-1.09c-0.0407,-0.13823 -0.09505,-0.27098 -0.16313,-0.39833c0.01758,-0.04889 0.05123,-0.08098 0.1009,-0.09622c0.16845,0.37578 0.30732,0.75711 0.41663,1.14395z" fill="#4e4e4f" fill-rule="evenodd" stroke="none" stroke-width="1" stroke-linecap="butt"/><path d="M262.44334,185.26972c0.01076,0.15972 -0.02557,0.30677 -0.10908,0.44118c-0.13121,-0.45694 -0.28495,-0.90435 -0.46124,-1.34224c0.02823,-0.07827 0.0781,-0.10174 0.14959,-0.07041c0.03357,0.06268 0.07326,0.12111 0.11911,0.1754c0.089,0.27459 0.18955,0.53993 0.30162,0.79607z" fill="#4d4d4e" fill-rule="evenodd" stroke="none" stroke-width="1" stroke-linecap="butt"/><path d="M262.65098,184.83087c0.00037,0.17549 -0.04457,0.33877 -0.13489,0.48987c-0.10276,-0.38634 -0.25026,-0.75141 -0.44245,-1.09525c0.02581,-0.0487 0.05162,-0.09739 0.07742,-0.14609c0.19235,0.23714 0.35898,0.48764 0.4999,0.75147z" fill="#4c4d4c" fill-rule="evenodd" stroke="none" stroke-width="1" stroke-linecap="butt"/><path d="M262.75888,184.43897c0.0131,0.11125 -0.01388,0.20923 -0.08093,0.29393c-0.1342,-0.2936 -0.30025,-0.56874 -0.49815,-0.82539c0.22766,0.12857 0.42069,0.30572 0.57908,0.53146z" fill="#4a4a49" fill-rule="evenodd" stroke="none" stroke-width="1" stroke-linecap="butt"/><path d="M262.98055,183.40878c0.01118,0.07314 -0.00679,0.13844 -0.05395,0.19595c-0.15607,-0.09073 -0.30157,-0.1928 -0.4365,-0.3062c0.01758,-0.04889 0.05123,-0.08098 0.1009,-0.09622c0.13114,0.06953 0.261,0.13833 0.38956,0.20647z" fill="#474646" fill-rule="evenodd" stroke="none" stroke-width="1" stroke-linecap="butt"/><path d="M262.86679,184.04707c0.00379,0.10635 -0.02319,0.20432 -0.08093,0.29393c-0.13822,-0.19094 -0.29857,-0.35914 -0.48111,-0.50448c-0.0368,-0.07207 -0.02702,-0.13757 0.02932,-0.19653c0.17845,0.13692 0.35604,0.27264 0.53273,0.40709z" fill="#49484a" fill-rule="evenodd" stroke="none" stroke-width="1" stroke-linecap="butt"/><path d="M262.92425,183.70329c-0.00156,0.06569 -0.00312,0.13143 -0.00467,0.19712c-0.22117,-0.07591 -0.39876,-0.21162 -0.53273,-0.40709c0.01719,-0.03248 0.03443,-0.06491 0.05162,-0.09739c0.16328,0.10303 0.32519,0.20549 0.48579,0.30737z" fill="#454647" fill-rule="evenodd" stroke="none" stroke-width="1" stroke-linecap="butt"/><path d="M262.88803,185.23096c0.01904,0.20148 -0.06584,0.3145 -0.25458,0.33911c0.01134,-0.11614 0.03047,-0.23073 0.05746,-0.34379c0.06569,0.00156 0.13143,0.00312 0.19712,0.00467z" fill="#504e4f" fill-rule="evenodd" stroke="none" stroke-width="1" stroke-linecap="butt"/><path d="M262.98873,183.06382c0.0059,0.08391 -0.00423,0.16587 -0.03049,0.24581c-0.09341,-0.07805 -0.19883,-0.13809 -0.31622,-0.18007c-0.04007,-0.0508 -0.05511,-0.1087 -0.04519,-0.17365c0.13065,0.03599 0.26125,0.07192 0.3919,0.10791z" fill="#424541" fill-rule="evenodd" stroke="none" stroke-width="1" stroke-linecap="butt"/><path d="M263.04521,184.84023c-0.02699,0.11306 -0.04613,0.22765 -0.05746,0.34379c-0.06569,-0.00156 -0.13143,-0.00312 -0.19712,-0.00467c0.00272,-0.11497 0.00546,-0.22999 0.00818,-0.34496c0.08215,0.00195 0.16425,0.0039 0.2464,0.00584z" fill="#544e50" fill-rule="evenodd" stroke="none" stroke-width="1" stroke-linecap="butt"/><path d="M263.26103,184.05642c0.04779,0.21996 -0.03669,0.31657 -0.25341,0.28984c0.00234,-0.09856 0.00467,-0.19712 0.00701,-0.29568c0.08215,0.00195 0.16425,0.00389 0.2464,0.00584z" fill="#4d4d4d" fill-rule="evenodd" stroke="none" stroke-width="1" stroke-linecap="butt"/><path d="M263.20241,184.4495c0.00467,0.21243 -0.09622,0.30865 -0.3027,0.28866c0.00234,-0.09856 0.00467,-0.19712 0.00701,-0.29568c0.09856,0.00234 0.19712,0.00467 0.29568,0.00701z" fill="#504b4b" fill-rule="evenodd" stroke="none" stroke-width="1" stroke-linecap="butt"/><path d="M263.44042,182.72938c-0.04207,0.277 -0.0651,0.55583 -0.06915,0.83658c-0.08215,-0.00195 -0.16425,-0.00389 -0.2464,-0.00584c0.00662,-0.27927 0.01325,-0.55849 0.01987,-0.83776c0.09856,0.00234 0.19711,0.00467 0.29568,0.00701z" fill="#353434" fill-rule="evenodd" stroke="none" stroke-width="1" stroke-linecap="butt"/><path d="M263.31966,183.66336c-0.00234,0.09856 -0.00467,0.19712 -0.00701,0.29568c-0.08215,-0.00195 -0.16425,-0.00389 -0.2464,-0.00584c0.00234,-0.09856 0.00467,-0.19712 0.00701,-0.29568c0.08215,0.00195 0.16425,0.00389 0.2464,0.00584z" fill="#494b4a" fill-rule="evenodd" stroke="none" stroke-width="1" stroke-linecap="butt"/><path d="M264.94004,183.94833c-0.06346,0.07917 -0.14696,0.13473 -0.25049,0.16664c-0.36216,0.0243 -0.72355,0.01573 -1.08416,-0.02571c0.44026,-0.07965 0.88515,-0.12663 1.33464,-0.14092z" fill="#3e3638" fill-rule="evenodd" stroke="none" stroke-width="1" stroke-linecap="butt"/><path d="M265.43032,181.98766c0.00306,0.04918 -0.01434,0.08984 -0.0522,0.12203c-0.12304,0.08145 -0.25601,0.14401 -0.39891,0.18777c-0.41728,0.03724 -0.82969,0.10142 -1.23726,0.19254c-0.01604,-0.0168 -0.03207,-0.03365 -0.04811,-0.05045c0.4431,-0.18307 0.90558,-0.27895 1.38743,-0.28759c0.11899,-0.056 0.23535,-0.11078 0.34905,-0.1643z" fill="#4b4b4b" fill-rule="evenodd" stroke="none" stroke-width="1" stroke-linecap="butt"/><path d="M265.27546,182.27983c-0.1004,0.16699 -0.25078,0.27027 -0.45111,0.3098c-0.24679,0.01056 -0.49357,0.02118 -0.74037,0.03175c-0.12364,0.01556 -0.2396,0.05388 -0.34789,0.11501c-0.06479,-0.14049 -0.01375,-0.21324 0.1531,-0.21825c0.47459,-0.01892 0.93668,-0.09839 1.38626,-0.23831z" fill="#4e4e4e" fill-rule="evenodd" stroke="none" stroke-width="1" stroke-linecap="butt"/><path d="M265.44804,183.31938c-0.01917,0.0671 -0.0614,0.1154 -0.12671,0.14492c-0.21448,0.10487 -0.43838,0.18994 -0.6717,0.25526c0.08136,0.03482 0.16349,0.03677 0.2464,0.00584c0.1401,-0.09105 0.2891,-0.13682 0.44703,-0.13732c-0.16348,0.17116 -0.36333,0.28146 -0.59954,0.33094c-0.33794,0.00703 -0.67526,0.02367 -1.01199,0.04996c-0.0571,-0.01778 -0.1142,-0.0356 -0.17131,-0.05337c0.12344,-0.06591 0.25582,-0.10389 0.39715,-0.11385c0.21393,-0.01135 0.42787,-0.02274 0.6418,-0.03408c-0.3213,-0.04583 -0.64181,-0.04525 -0.96153,0.00185c-0.08515,-0.08407 -0.05915,-0.14099 0.07801,-0.17072c0.32892,-0.00862 0.65784,-0.01729 0.98676,-0.0259c0.25353,-0.1214 0.50207,-0.20593 0.74562,-0.2535z" fill="#49494a" fill-rule="evenodd" stroke="none" stroke-width="1" stroke-linecap="butt"/><path d="M265.55362,183.02604c-0.0023,0.07475 -0.03651,0.13148 -0.10265,0.17014c-0.2003,0.03746 -0.38294,0.11527 -0.54792,0.23354c-0.42639,0.04925 -0.85445,0.08017 -1.2842,0.09281c0.00156,-0.06569 0.00312,-0.13143 0.00467,-0.19712c0.36123,-0.02279 0.7232,-0.03886 1.08591,-0.04821c0.27849,-0.08826 0.55988,-0.17197 0.84418,-0.25117z" fill="#4f4e4e" fill-rule="evenodd" stroke="none" stroke-width="1" stroke-linecap="butt"/><path d="M265.8152,182.39125c-0.02972,0.07474 -0.06432,0.14788 -0.10382,0.21942c-0.29201,-0.01354 -0.55679,0.06233 -0.79432,0.2277c-0.40901,0.07763 -0.82104,0.12539 -1.23608,0.14326c-0.01044,-0.14264 0.05702,-0.21501 0.20238,-0.21708c0.31032,-0.04944 0.6232,-0.07486 0.93865,-0.07635c0.19301,-0.05114 0.35962,-0.1458 0.49981,-0.28399c0.16404,-0.02066 0.32849,-0.025 0.49338,-0.01295z" fill="#4f4f4f" fill-rule="evenodd" stroke="none" stroke-width="1" stroke-linecap="butt"/><path d="M263.70202,182.09459c0.01642,0.00039 0.03285,0.00078 0.04928,0.00117c0.44253,-0.18412 0.905,-0.28 1.38743,-0.28759c0.20663,-0.10614 0.42173,-0.16677 0.64531,-0.18192c-0.06262,0.05541 -0.11345,0.11998 -0.15251,0.19362c-0.23231,0.0931 -0.46462,0.18621 -0.69692,0.27931c-0.42141,0.01994 -0.83383,0.08411 -1.23726,0.19254c0.00156,-0.06569 0.00312,-0.13143 0.00467,-0.19712z" fill="#4f4f4e" fill-rule="evenodd" stroke="none" stroke-width="1" stroke-linecap="butt"/><path d="M265.65919,182.7327c0.00683,0.06534 -0.01096,0.12247 -0.05337,0.17131c-0.61758,0.25689 -1.26114,0.3649 -1.93067,0.32402c-0.00683,-0.06534 0.01096,-0.12247 0.05337,-0.17131c0.34667,-0.0121 0.69241,-0.03678 1.03721,-0.07401c0.17934,-0.05191 0.34556,-0.13016 0.49864,-0.23471c0.13097,-0.0214 0.26258,-0.02652 0.39482,-0.01529z" fill="#505150" fill-rule="evenodd" stroke="none" stroke-width="1" stroke-linecap="butt"/><path d="M265.82105,182.14485c-0.00156,0.06569 -0.00312,0.13143 -0.00467,0.19712c-0.15175,0.01203 -0.2992,-0.00789 -0.44235,-0.0598c0.02463,-0.04764 0.05846,-0.0879 0.10148,-0.12086c0.11441,-0.02179 0.22959,-0.02725 0.34554,-0.01646z" fill="#454444" fill-rule="evenodd" stroke="none" stroke-width="1" stroke-linecap="butt"/><path d="M261.96382,185.72639c-0.02169,0.1124 0.07514,0.41144 0.01177,0.5234c-0.03227,0.02892 -0.08993,-0.00608 -0.13765,-0.08174c-0.03586,-0.05687 -0.06558,-0.15255 -0.07763,-0.1735c-0.01415,-0.27373 -0.07809,-0.54633 -0.11918,-0.81537c-0.02693,-0.10267 -0.04741,-0.22399 -0.11173,-0.31718c0.03178,-0.03778 0.08202,-0.08783 0.14901,-0.10163c0.14786,0.27644 0.19543,0.56852 0.26484,0.85604z" data-paper-data="{&quot;index&quot;:null}" fill="#4e4e4f" fill-rule="evenodd" stroke="none" stroke-width="1" stroke-linecap="butt"/><path d="M260.96634,176.27052c0.10615,0.06367 0.12423,0.10307 0.02746,0.05983c-0.09865,-0.04408 -0.20663,-0.08761 -0.21825,-0.088c-0.01128,-0.00038 -0.01303,0.00492 -0.07244,0.22164c-0.04416,0.16105 -0.08261,0.23638 -0.18417,0.36081c-0.14347,0.1758 -0.19995,0.21727 -0.26894,0.19745c-0.04291,-0.01234 -0.25633,-0.27121 -0.26378,-0.31998c-0.0129,-0.08444 0.01644,-0.10557 0.26126,-0.18818c0.17441,-0.05883 0.24779,-0.06904 0.28876,-0.04017l0.028,0.01973l0.0539,-0.14689c0.02965,-0.08081 0.04959,-0.15152 0.0443,-0.15717c-0.01001,-0.01072 -0.29071,-0.13786 -0.44842,-0.20311l-0.09132,-0.03779l-0.09177,0.04589c-0.24699,0.12349 -0.31146,0.15305 -0.33231,0.15234c-0.03068,-0.00104 -0.26548,-0.12696 -0.32666,-0.17519c-0.05832,-0.04598 -0.07555,-0.08545 -0.05519,-0.12641c0.01765,-0.03553 0.04053,-0.04195 0.28375,-0.07967c0.32118,-0.0498 0.35626,-0.05257 0.41763,-0.03314c0.05476,0.01735 0.61722,0.33436 0.64971,0.36618c0.02656,0.02604 0.04262,0.00157 0.09996,-0.15232c0.0336,-0.09013 0.07428,-0.18541 0.09042,-0.21172l0.02936,-0.04784l-0.00888,0.07c-0.00489,0.0385 -0.02654,0.13745 -0.04813,0.21989c-0.02158,0.08245 -0.03956,0.15957 -0.03997,0.17138c-0.00044,0.01306 0.01633,0.03076 0.04271,0.04507zM260.29865,176.65736c-0.07051,0.02272 -0.12832,0.04514 -0.12848,0.04986c-0.00054,0.01608 0.09394,0.12523 0.10885,0.12573c0.01652,0.00056 0.17645,-0.19177 0.17717,-0.21305c0.00025,-0.0074 -0.00626,-0.01128 -0.01445,-0.00865zM259.89911,175.85881c-0.03885,-0.00138 -0.29171,0.05405 -0.29209,0.06402c-0.00018,0.00495 0.0228,0.02121 0.05107,0.03615l0.05141,0.02717l0.09944,-0.04103c0.10391,-0.04287 0.13577,-0.06291 0.12257,-0.07703z" fill="#000000" fill-rule="nonzero" stroke="none" stroke-width="1" stroke-linecap="butt"/><path d="M260.56173,175.92038c0.07258,0.04823 0.12559,0.0896 0.11779,0.09191c-0.02403,0.00711 -0.88119,-0.40756 -1.03572,-0.50106c-0.05157,-0.03121 -0.05344,-0.03147 -0.08559,-0.01192l-0.03286,0.01998l0.05782,0.03568c0.03181,0.01962 0.06116,0.03578 0.06524,0.03592c0.01405,0.00047 0.13222,0.08078 0.13192,0.08965c-0.00045,0.01327 -0.11295,-0.0027 -0.23034,-0.03271c-0.17718,-0.04532 -0.14192,-0.05558 -0.47946,0.13963c-0.27517,0.15911 -0.7295,0.40946 -0.8278,0.45612c-0.06781,0.03219 -0.04652,-0.01077 0.03165,-0.06385c0.03817,-0.02593 0.12106,-0.08337 0.18419,-0.12765c0.06312,-0.04428 0.27768,-0.18924 0.47678,-0.32213c0.19911,-0.13289 0.40006,-0.26819 0.44657,-0.30068c0.1828,-0.12769 0.22529,-0.12953 0.3957,-0.01712c0.06028,0.03977 0.23168,0.15065 0.38088,0.24642z" fill="#000000" fill-rule="nonzero" stroke="none" stroke-width="1" stroke-linecap="butt"/><path d="M260.48727,176.24958c0.05071,0.074 -0.00042,0.10634 -0.45282,0.28643c-0.10192,0.04057 -0.25804,0.10563 -0.34693,0.14456c-0.28448,0.12461 -0.32783,0.14216 -0.39761,0.16091c-0.03765,0.01012 -0.0684,0.01731 -0.06836,0.01601c0.00042,-0.01243 0.14981,-0.10208 0.30098,-0.18062c0.10235,-0.05318 0.2537,-0.13422 0.33634,-0.1801c0.08264,-0.04588 0.17417,-0.09313 0.20341,-0.105l0.05315,-0.02156l-0.04304,-0.01889c-0.04689,-0.02056 -0.06099,-0.05308 -0.04763,-0.10981l0.00782,-0.03328l-0.12398,0.03783c-0.10533,0.03215 -0.12842,0.03562 -0.15353,0.02315c-0.04291,-0.02134 -0.03773,-0.06584 0.01167,-0.10025c0.04694,-0.0327 0.38188,-0.16011 0.4177,-0.1589c0.03448,0.00117 0.0671,0.03549 0.06595,0.0694c-0.00053,0.01544 -0.01226,0.04852 -0.02607,0.07349c-0.01382,0.02496 -0.02532,0.05094 -0.02554,0.05773c-0.00027,0.00807 0.04682,0.0129 0.136,0.01392z" fill="#000000" fill-rule="nonzero" stroke="none" stroke-width="1" stroke-linecap="butt"/><path d="M257.22063,176.58272c0.00238,0.0189 0.00221,0.08663 -0.00037,0.15052l-0.0047,0.11616l-0.065,0.00197c-0.05804,0.00176 -0.06598,0.00587 -0.07421,0.03854c-0.00508,0.02011 -0.0167,0.05069 -0.02584,0.06794c-0.03994,0.07546 -0.16633,0.11379 -0.24128,0.07318c-0.03732,-0.02022 -0.04167,-0.01939 -0.08413,0.01605c-0.10549,0.08802 -0.25887,0.00996 -0.30706,-0.15626c-0.01001,-0.03456 -0.0208,-0.04289 -0.06489,-0.05009c-0.06327,-0.01032 -0.06957,-0.03124 -0.06108,-0.2028c0.00585,-0.11824 0.02032,-0.14973 0.07135,-0.15524c0.02592,-0.0028 0.0308,-0.01316 0.03667,-0.07797c0.00725,-0.07996 0.0194,-0.0949 0.07593,-0.09331c0.03899,0.0011 0.06024,0.02111 0.0665,0.06264c0.00543,0.03598 0.06263,0.05181 0.19466,0.05384c0.17901,0.00275 0.19848,-0.00189 0.20003,-0.04763c0.00103,-0.03042 0.00905,-0.04087 0.03579,-0.04661c0.08169,-0.0176 0.12885,0.03414 0.12535,0.1375c-0.00119,0.03515 0.0032,0.03912 0.04485,0.04053zM257.03978,176.54922c-0.00238,-0.08626 -0.01371,-0.11266 -0.02408,-0.05611c-0.01129,0.06157 -0.0281,0.065 -0.28444,0.058c-0.21573,-0.00587 -0.22758,-0.00926 -0.2385,-0.06828c-0.00299,-0.01608 -0.01046,0.00073 -0.01798,0.04045c-0.0071,0.0374 -0.02176,0.07457 -0.03261,0.08262c-0.01684,0.01251 -0.01679,0.01724 0.00036,0.03248c0.02401,0.02134 0.02439,0.08468 0.00063,0.10688c-0.00933,0.00871 -0.03573,0.01584 -0.0587,0.01583h-0.04174l0.04533,0.01234c0.05531,0.01506 0.06208,0.02252 0.08092,0.08916c0.01874,0.06626 0.10356,0.16348 0.14383,0.16484c0.04182,0.00142 0.10831,-0.03227 0.12686,-0.06427c0.0197,-0.03398 0.03373,-0.03309 0.08201,0.0052c0.03495,0.02773 0.04473,0.02949 0.09316,0.01674c0.06103,-0.01607 0.1011,-0.063 0.11535,-0.13513c0.00878,-0.04453 0.01333,-0.04797 0.07101,-0.0537c0.04005,-0.00398 0.04817,-0.00729 0.0232,-0.00948c-0.06538,-0.0057 -0.0905,-0.02851 -0.08874,-0.08054c0.00166,-0.04903 0.00503,-0.05119 0.09791,-0.06262c0.02566,-0.00316 0.02226,-0.00515 -0.01342,-0.00791z" fill="#000000" fill-rule="nonzero" stroke="none" stroke-width="1" stroke-linecap="butt"/><path d="M256.73419,176.63743c0.02268,0.02428 0.01434,0.1956 -0.01179,0.2422c-0.03131,0.05584 -0.09461,0.06935 -0.16376,0.03499c-0.04686,-0.0233 -0.06137,-0.0698 -0.05749,-0.18436c0.00267,-0.07895 0.00808,-0.10203 0.02531,-0.10797zM256.56453,176.67684l-0.00645,0.06597c-0.00732,0.07477 0.0189,0.13288 0.06059,0.13429c0.04828,0.00163 0.07027,-0.03513 0.07322,-0.12241l0.00277,-0.0818z" fill="#000000" fill-rule="nonzero" stroke="none" stroke-width="1" stroke-linecap="butt"/><path d="M256.98394,176.64362c0.02158,0.01251 0.02545,0.03005 0.02295,0.10404c-0.00258,0.07624 -0.00797,0.09362 -0.03771,0.12139c-0.04274,0.03997 -0.11522,0.04085 -0.15996,0.00196c-0.02738,-0.02381 -0.03086,-0.0385 -0.02719,-0.11531c0.0061,-0.12817 0.00962,-0.13275 0.09943,-0.12972zM256.83988,176.70327c-0.00344,0.00553 -0.00336,0.03786 0.00018,0.07185c0.00531,0.05098 0.01193,0.06277 0.03779,0.06733c0.04817,0.0085 0.07173,-0.01881 0.07399,-0.08574l0.00203,-0.05984l-0.05387,-0.00183z" fill="#000000" fill-rule="nonzero" stroke="none" stroke-width="1" stroke-linecap="butt"/><path d="M258.68852,184.00732c0.08975,0.02432 0.11636,0.05151 0.0601,0.0614c-0.12703,0.0223 -0.26597,0.03351 -0.38027,0.03065c-0.06973,-0.00174 -0.0902,0.00179 -0.09067,0.01563c-0.00039,0.01159 0.01529,0.01976 0.04458,0.02326c0.05329,0.00635 0.0787,0.03829 0.05654,0.07105c-0.01083,0.01601 -0.03406,0.0214 -0.09392,0.02179c-0.04375,0.00029 -0.08517,-0.00392 -0.09205,-0.00933c-0.00688,-0.00542 -0.03024,-0.04009 -0.05192,-0.07705l-0.0394,-0.06719l-0.03051,0.02677c-0.02986,0.02622 -0.03286,0.02637 -0.14245,0.00705c-0.06157,-0.01085 -0.11493,-0.01695 -0.11858,-0.01355c-0.00364,0.00341 0.00707,0.02785 0.02378,0.05435c0.0336,0.05322 0.02539,0.07472 -0.02111,0.05521c-0.037,-0.01552 -0.10625,-0.09759 -0.1071,-0.12694c-0.00033,-0.01174 0.00002,-0.07448 0.00081,-0.13942c0.00078,-0.06493 -0.00263,-0.1308 -0.00759,-0.14635c-0.00673,-0.02108 -0.00437,-0.02812 0.00924,-0.02766c0.0299,0.00101 0.08191,0.06133 0.08879,0.10297l0.0064,0.03877l0.1231,-0.00455c0.11022,-0.00408 0.1257,-0.00203 0.14805,0.01961c0.02457,0.0238 0.02541,0.02363 0.05599,-0.01202c0.01707,-0.0199 0.04033,-0.05407 0.05166,-0.0759c0.02197,-0.04234 0.0306,-0.04461 0.13744,-0.03617c0.05657,0.00447 0.10468,0.02982 0.10383,0.0547c-0.00083,0.02451 -0.04483,0.04717 -0.08873,0.04569c-0.02645,-0.0009 -0.05097,0.00274 -0.05452,0.00808c-0.01606,0.02412 0.01775,0.03745 0.12117,0.04777zM258.03803,183.96719c-0.01459,-0.00868 -0.04843,-0.01565 -0.07521,-0.01551c-0.02676,0.00014 -0.0551,-0.00402 -0.06294,-0.00924c-0.02309,-0.01538 -0.1514,0.01154 -0.15209,0.03192c-0.00048,0.01416 0.02367,0.01857 0.11946,0.02181c0.06602,0.00224 0.11568,0.00812 0.11034,0.01306c-0.00534,0.00495 -0.03018,0.00878 -0.05521,0.00854c-0.16165,-0.00166 -0.17605,-0.00034 -0.17661,0.01607c-0.00103,0.03052 0.24977,0.04595 0.29158,0.01794c0.02272,-0.01522 0.06888,-0.02061 0.07562,-0.00882c0.00361,0.00632 0.01252,0.01169 0.01978,0.01193c0.00933,0.00032 0.00947,-0.00438 0.00053,-0.01595c-0.00806,-0.01038 -0.00825,-0.02291 -0.00056,-0.03421c0.01809,-0.02657 0.01567,-0.04136 -0.00423,-0.02594zM258.56299,184.02503c0.00217,0.00341 0.00342,0.00806 0.00325,0.01313c-0.00047,0.01396 0.00904,0.01682 0.04,0.012c0.05662,-0.0088 0.05644,-0.01114 -0.00217,-0.02907zM258.54427,184.02682l-0.02746,0.00264c-0.00022,0.00663 0.00506,0.01571 0.01175,0.02017c0.00669,0.00445 0.01246,-0.00063 0.01282,-0.01127c0.00015,-0.00435 0.00122,-0.00834 0.00289,-0.01153zM258.55444,184.01942c-0.00404,-0.00014 -0.00775,0.00279 -0.01018,0.00741l0.01873,-0.0018c-0.00214,-0.00336 -0.00515,-0.00549 -0.00854,-0.00561z" fill="#000000" fill-rule="nonzero" stroke="none" stroke-width="1" stroke-linecap="butt"/><path d="M257.63306,184.13245c0.03432,0.05386 0.03751,0.06392 0.02287,0.0723c-0.03431,0.01963 -0.14054,-0.07967 -0.14942,-0.13966c-0.00381,-0.02576 -0.02381,-0.03215 -0.17335,-0.05532c-0.10384,-0.0161 -0.09283,-0.04086 0.02411,-0.05423c0.05176,-0.00592 0.10507,-0.01039 0.11846,-0.00994c0.03266,0.00111 0.03134,-0.01505 -0.00255,-0.03147c-0.01513,-0.00733 -0.02642,-0.02302 -0.02507,-0.03488c0.00152,-0.01329 -0.00631,-0.02184 -0.02042,-0.02231c-0.01258,-0.00043 -0.03716,-0.00787 -0.05462,-0.01655c-0.02409,-0.01197 -0.03059,-0.02344 -0.02696,-0.04754c0.00461,-0.03057 0.00805,-0.03169 0.09177,-0.03017c0.05133,0.00094 0.09745,0.00848 0.11253,0.01842c0.04639,0.03056 0.06536,0.09758 0.05788,0.20443z" fill="#000000" fill-rule="nonzero" stroke="none" stroke-width="1" stroke-linecap="butt"/><g fill-rule="nonzero" stroke="none" stroke-width="0.5" stroke-linecap="butt"><g><path d="M225.70261,177.52167c0.00063,-0.06969 0.01399,-0.12643 0.03538,-0.17259c-0.05492,-0.24999 -0.11477,-0.49899 -0.18266,-0.74574c-0.08709,-0.31653 -0.46665,-1.40663 -0.81951,-0.57645c-0.04288,0.10087 -0.06664,0.2092 -0.0897,0.31635c-0.1141,0.5304 -0.11577,1.13678 -0.12031,1.67819c-0.00214,0.25442 -0.08758,0.51337 -0.03567,0.76244c0.03296,0.15814 0.7015,0.16256 0.77693,0.17404c2.36356,0.31721 4.74873,0.31458 7.12404,0.17555c0.69994,-0.04097 1.40445,-0.01376 2.10256,-0.0946c0.61542,0.00464 1.2546,0.0493 1.86399,-0.03907c0.0608,-0.00881 -0.03114,-0.12185 -0.06713,-0.17165c-0.06079,-0.08414 -0.09246,-0.1898 -0.16481,-0.26421c-0.23705,-0.24382 -0.67792,-0.35072 -0.9926,-0.41575c-1.4082,-0.29101 -2.88937,-0.187 -4.31922,-0.20316c-1.50414,-0.2288 -3.00305,-0.02963 -4.50992,-0.0399l-0.22683,-0.00206c0,0 -0.37797,-0.00342 -0.37454,-0.38139zM226.46934,177.15025c1.47104,0.00283 2.93522,-0.18235 4.40497,0.04122c1.58615,0.01029 3.38915,-0.18035 4.91138,0.34688c0.76784,0.26595 1.98968,1.31435 0.96922,2.10461c-0.1466,0.11353 -0.36315,0.07566 -0.54604,0.10618c-0.55292,0.09226 -1.11673,0.05062 -1.67506,0.04461c-0.69584,0.08059 -1.39824,0.05475 -2.09594,0.09423c-2.42802,0.13734 -4.86182,0.14253 -7.27793,-0.18174c-0.54456,-0.08281 -1.08592,-0.03631 -1.37081,-0.63941c-0.03702,-0.07838 -0.02016,-0.95716 -0.01924,-1.05224c0.00777,-0.80171 -0.08376,-2.19498 0.60666,-2.77327c0.78117,-0.65431 1.51726,-0.01913 1.79059,0.7401c0.13445,0.37345 0.21994,0.77728 0.3022,1.16882z" fill="#525252"/><path d="M226.08469,177.90237l0.22683,0.00201c1.50687,0.01026 2.99336,-0.19393 4.4975,0.03487c1.42986,0.01616 2.90843,-0.08312 4.31663,0.20789c0.31468,0.06503 0.77047,0.17434 1.00752,0.41817c0.07236,0.07443 0.10396,0.18036 0.16476,0.2645c0.03598,0.0498 0.12789,0.16302 0.06708,0.17185c-0.60939,0.08837 -1.24883,0.04452 -1.86425,0.03989c-0.69811,0.08085 -1.40388,0.05581 -2.10383,0.09677c-2.37531,0.13903 -4.77356,0.13886 -7.13712,-0.17834c-0.07543,-0.01148 -0.74408,-0.01635 -0.77704,-0.17449c-0.05191,-0.24907 0.0334,-0.50895 0.03554,-0.76337c0.00455,-0.54141 0.00632,-1.14994 0.12044,-1.68034c0.02305,-0.10715 0.04691,-0.21589 0.08979,-0.31677c0.17486,-0.41141 0.35992,-0.35041 0.5127,-0.14567c0.15552,0.2084 0.27762,0.56571 0.32155,0.72539c0.06789,0.24675 0.12786,0.49462 0.18278,0.74461c-0.02138,0.04617 -0.03474,0.10263 -0.03538,0.17231c-0.00342,0.37797 0.37451,0.38073 0.37451,0.38073z" data-paper-data="{&quot;noHover&quot;:false,&quot;origItem&quot;:[&quot;Path&quot;,{&quot;applyMatrix&quot;:true,&quot;segments&quot;:[[[332.33308,697.80477],[5,0],[-0.92196,0]],[[330.04585,697.35745],[0.6133,0.27731],[-3.30032,0.75641]],[[320.20331,699.86295],[3.25577,-0.9276],[-4.17659,1.18995]],[[312.67631,710.77216],[-11.02351,-4.56796],[1.33949,0.55506]],[[316.87174,711.92072],[-1.42021,-0.2921],[7.02964,1.44582]],[[339.08477,713.31114],[-7.16214,0.00467],[3.36559,-0.0022]],[[349.17435,713.69175],[-3.28844,0.71647],[2.08791,-0.45491]],[[351.38333,703.39392],[-0.14277,0.99913],[3.9128,-31.30241]],[[352.85204,609.13821],[2.12356,31.40327],[-0.62575,-9.2537]],[[351.34875,581.33751],[1.15309,9.22469],[-0.01246,-8.14114]],[[350.60867,556.68593],[1.24187,8.05023],[-0.12391,-0.80322]],[[348.34609,557.59443],[0.65445,-0.48189],[-1.10571,0.81416]],[[344.87087,559.80617],[0.97581,-0.96604],[-3.19679,3.16476]],[[339.49039,572.98574],[0.82249,-4.17029],[-3.68067,18.66211]],[[337.3205,630.14346],[0.04245,-18.91557],[-2.84625,19.92377]],[[337.33308,689.80402],[-0.04473,-19.93365],[0,0]],[337.33308,692.80477]],&quot;closed&quot;:true}]}" fill="#0e0d0c"/></g><g><path d="M226.32708,181.61853l0.22683,0.00206c1.50681,0.01703 3.00185,0.24331 4.5099,0.0418c1.42991,0.00975 2.90896,0.14056 4.3222,-0.1249c0.31581,-0.05932 0.75854,-0.15821 0.99996,-0.3977c0.0737,-0.0731 0.10727,-0.17816 0.16957,-0.26119c0.03687,-0.04914 0.13086,-0.1605 0.07023,-0.17041c-0.60769,-0.09939 -1.24757,-0.06631 -1.86298,-0.07283c-0.69653,-0.09349 -1.40142,-0.07904 -2.10051,-0.13267c-2.37241,-0.18202 -4.75714,-0.22785 -7.12606,0.04649c-0.07562,0.01011 -0.74414,0.00241 -0.77995,0.15994c-0.05641,0.24809 0.02434,0.50855 0.02187,0.76296c-0.00526,0.5414 -0.01458,1.14772 0.0899,1.68009c0.02111,0.10756 0.04291,0.2163 0.08395,0.31793c0.33776,0.83643 0.737,-0.24662 0.8298,-0.56152c0.07235,-0.24548 0.1367,-0.49334 0.19614,-0.74231c-0.02055,-0.04655 -0.03288,-0.10351 -0.03224,-0.17321c0.00342,-0.37797 0.38139,-0.37454 0.38139,-0.37454zM226.38224,183.54149c-0.28704,0.75416 -1.03451,1.3759 -1.8037,0.70755c-0.67983,-0.5907 -0.56309,-1.98208 -0.55633,-2.7838c0.0008,-0.09508 -0.00014,-0.97402 0.0383,-1.05172c0.29576,-0.59784 0.83621,-0.54153 1.38217,-0.61448c2.42157,-0.28045 4.85489,-0.23119 7.28002,-0.04989c0.69687,0.0521 1.39962,0.03899 2.09389,0.13217c0.55835,0.00411 1.12282,-0.02732 1.67398,0.07495c0.18231,0.03383 0.3995,-0.00011 0.54402,0.11605c1.00599,0.80862 -0.23464,1.83472 -1.00717,2.08672c-1.53153,0.49958 -3.33078,0.27631 -4.91686,0.25786c-1.47356,0.1969 -2.93415,-0.01476 -4.405,-0.03857c-0.08934,0.39 -0.18213,0.79222 -0.32332,1.16316z" data-paper-data="{&quot;index&quot;:null}" fill="#525252"/><path d="M225.95325,181.99324c-0.00063,0.06969 0.01171,0.12637 0.03225,0.17293c-0.05944,0.24896 -0.12388,0.49571 -0.19623,0.74119c-0.09281,0.3149 -0.50686,1.40094 -0.84462,0.56451c-0.04104,-0.10164 -0.06292,-0.21078 -0.08404,-0.31834c-0.10448,-0.53238 -0.09524,-1.14084 -0.08998,-1.68224c0.00247,-0.25441 -0.07812,-0.5158 -0.02171,-0.76389c0.03581,-0.15753 0.70445,-0.15028 0.78008,-0.16038c2.36892,-0.27435 4.76677,-0.23108 7.13918,-0.04905c0.69909,0.05363 1.4052,0.04138 2.10173,0.13486c0.61541,0.00652 1.25553,-0.02574 1.86322,0.07365c0.06064,0.00992 -0.03331,0.12146 -0.07019,0.1706c-0.06231,0.08303 -0.09583,0.18837 -0.16951,0.26147c-0.24143,0.23949 -0.69912,0.34053 -1.01492,0.39985c-1.41324,0.26545 -2.88977,0.13942 -4.31968,0.12967c-1.50804,0.20151 -2.99059,-0.02957 -4.49739,-0.0466l-0.22683,-0.00209c0,0 -0.37792,-0.00408 -0.38134,0.37388z" data-paper-data="{&quot;noHover&quot;:false,&quot;origItem&quot;:[&quot;Path&quot;,{&quot;applyMatrix&quot;:true,&quot;segments&quot;:[[386.45029,689.05383],[[386.45029,686.05308],[0,0],[0.04473,-19.93365]],[[386.46286,626.39253],[2.84625,19.92377],[-0.04245,-18.91557]],[[384.29298,569.23481],[3.68067,18.66211],[-0.82249,-4.17029]],[[378.9125,556.05523],[3.19679,3.16476],[-0.97581,-0.96604]],[[375.43728,553.8435],[1.10571,0.81416],[-0.65445,-0.48189]],[[373.17469,552.935],[0.12391,-0.80322],[-1.24187,8.05023]],[[372.43462,577.58658],[0.01246,-8.14114],[-1.15309,9.22469]],[[370.93133,605.38727],[0.62575,-9.2537],[-2.12356,31.40327]],[[372.40004,699.64298],[-3.9128,-31.30241],[0.14277,0.99913]],[[374.60901,709.94081],[-2.08791,-0.45491],[3.28844,0.71647]],[[384.6986,709.56021],[-3.36559,-0.0022],[7.16214,0.00467]],[[406.91163,708.16978],[-7.02964,1.44582],[1.42021,-0.2921]],[[411.10706,707.02122],[-1.33949,0.55506],[11.02351,-4.56796]],[[403.58006,696.11202],[4.17659,1.18995],[-3.25577,-0.9276]],[[393.73752,693.60652],[3.30032,0.75641],[-0.6133,0.27731]],[[391.45029,694.05383],[0.92196,0],[-5,0]]],&quot;closed&quot;:true}]}" fill="#0e0d0c"/></g><g><path d="M237.15024,184.7893c-0.18109,0.10407 -0.40363,0.12045 -0.61204,0.13417c-0.35925,0.02362 -1.00343,-0.12961 -1.2337,-0.40587c-0.48843,-0.58596 -0.29261,-2.15166 0.42753,-2.50027c0.29638,-0.14347 0.84164,-0.04023 1.12677,0.09755c0.05499,0.02657 0.11369,0.06366 0.17375,0.10711c0.10613,-0.2862 0.37848,-0.72211 0.55927,-0.81821c0.09378,-0.04984 0.8553,-0.06948 1.01996,-0.07567c0.59225,-0.02226 1.18451,-0.04452 1.77675,-0.06678c3.17684,-0.11942 6.33249,0.06875 9.50794,-0.05062c0.32246,-0.01153 0.71618,-0.05098 1.03458,0.03967c0.70336,0.20024 1.40833,1.03712 1.16372,1.81183c-0.07213,0.22845 -0.36721,0.45382 -0.60494,0.62302c-0.09239,0.18887 -0.3272,0.1977 -0.3272,0.1977c-0.84753,0.03012 -1.63601,0.32702 -2.48165,0.39958c-2.366,0.203 -4.74856,0.02998 -7.09215,0.45016c-0.90535,0.03403 -1.80934,0.13516 -2.7202,0.16455c-0.37879,0.01223 -0.66931,0.06953 -1.01967,-0.15236c-0.15232,-0.09647 -0.27147,-0.22008 -0.36607,-0.36098c-0.10969,0.13656 -0.1811,0.31832 -0.33267,0.40543zM237.06712,183.25896c-0.21499,-0.19997 -0.64684,-0.69937 -1.01978,-0.55457c-0.25875,0.10047 -0.31498,1.14382 -0.1649,1.32594c0.24919,0.30238 0.84313,0.16004 0.99785,-0.10237l-0.01401,-0.10034c0,0 0.05579,-0.26511 0.29735,-0.29921c-0.01552,-0.07659 -0.02919,-0.15315 -0.04176,-0.2288c-0.03456,-0.02191 -0.05476,-0.04064 -0.05476,-0.04064zM250.96695,183.1373c0.16298,-0.0935 0.34906,-0.17197 0.41904,-0.33794c0.08329,-0.19752 -0.12496,-0.36577 -0.21943,-0.48269c-0.34693,-0.4294 -0.7154,-0.37139 -1.24169,-0.35052c-3.17562,0.11936 -6.3312,-0.06879 -9.50794,0.05061c-0.59225,0.02226 -1.18451,0.04452 -1.77675,0.06678c-0.23171,0.00871 -0.48136,-0.10006 -0.69552,-0.01119c-0.13994,0.05807 -0.1944,0.25443 -0.20527,0.40556c-0.00913,0.12694 0.0533,0.2489 0.07749,0.37385c0.07348,0.37959 0.06838,1.00573 0.44089,1.25722c0.22468,0.15168 0.77095,0.02575 1.01136,0.01671c0.75043,-0.02821 1.49183,-0.11649 2.23785,-0.14453c2.3464,-0.43135 4.7379,-0.25053 7.10803,-0.45172c0.80291,-0.06816 1.55228,-0.33054 2.35195,-0.39214z" fill="#757575"/><path d="M237.12929,183.29809c0.01257,0.07565 0.02631,0.15478 0.04184,0.23137c-0.24156,0.0341 -0.29953,0.30354 -0.29953,0.30354l0.01347,0.10081c-0.15473,0.26241 -0.75875,0.40425 -1.00794,0.10188c-0.15009,-0.18212 -0.09238,-1.23734 0.16637,-1.33781c0.37293,-0.1448 0.81589,0.35899 1.03088,0.55897c0,0 0.02035,0.01934 0.05491,0.04125z" data-paper-data="{&quot;noHover&quot;:false,&quot;origItem&quot;:[&quot;Path&quot;,{&quot;applyMatrix&quot;:true,&quot;segments&quot;:[[[475.794,535.00135],[0,0],[-2.75029,2.74259]],[[467.95653,548.20608],[-1.72879,-5.00165],[1.19951,3.47034]],[[485.402,551.04465],[-2.48197,1.89348],[4.12088,-3.1438]],[[484.54456,537.80325],[3.39197,2.17571],[0,0]],[483.21123,537.93858],[[479.40376,533.85935],[0.33076,3.21005],[-1.02019,0.16718]],[[476.35846,534.29769],[1.00624,-0.12859],[-0.30672,0.4459]]],&quot;closed&quot;:true}]}" fill="#ffeb6e"/><path d="M248.62247,183.53065c-2.37013,0.20119 -4.77621,0.02172 -7.12261,0.45307c-0.74602,0.02804 -1.48765,0.11548 -2.23808,0.14369c-0.2404,0.00903 -0.78674,0.13468 -1.01142,-0.017c-0.37251,-0.25149 -0.36755,-0.87909 -0.44103,-1.25869c-0.02419,-0.12495 -0.0866,-0.24733 -0.07748,-0.37426c0.01087,-0.15112 0.06536,-0.34796 0.20531,-0.40602c0.21417,-0.08887 0.46383,0.01981 0.69553,0.0111c0.59225,-0.02226 1.18459,-0.04505 1.77683,-0.06731c3.17672,-0.11941 6.34718,0.06901 9.52279,-0.05035c0.5263,-0.02086 0.89485,-0.07824 1.24177,0.35116c0.09447,0.11693 0.30276,0.28573 0.21945,0.48325c-0.06999,0.16597 -0.25606,0.24483 -0.41905,0.33833c-0.79967,0.0616 -1.54913,0.32488 -2.35204,0.39304z" data-paper-data="{&quot;noHover&quot;:false,&quot;origItem&quot;:[&quot;Path&quot;,{&quot;applyMatrix&quot;:true,&quot;segments&quot;:[[[481.09232,351.20035],[0.41699,10.60131],[-1.15507,-2.20096]],[[476.83329,345.49316],[2.15917,1.00762],[-2.56962,-1.19916]],[[470.34355,348.15397],[1.59265,-1.19073],[-5.84861,4.37267]],[[465.09302,364.39363],[-0.01429,-6.96741],[0,42.03747]],[[461.03787,490.10328],[0,-42.05218],[0,7.83996]],[[461.03787,513.62315],[0,-7.83996],[0,3.06724]],[[460.54438,522.81163],[-1.0683,-2.87518],[0.69807,1.87877]],[[465.80336,525.72656],[-1.99229,-0.21876],[1.67344,0.18375]],[[470.78377,524.88799],[-1.66368,0.25762],[5.05436,-0.78266]],[[487.62181,519.68464],[-3.50945,4.79923],[2.11667,-2.89459]],[[488.34525,506.32388],[0,3.18234],[0,-9.93399]],[[487.54679,476.67022],[0,9.87543],[-4.53614,-31.23126]],[[485.10733,382.48536],[1.48188,31.43047],[-0.50201,-10.64746]]],&quot;closed&quot;:true}]}" fill="#0e0d0c"/></g><g><path d="M253.04857,179.81056c-0.08353,0.54914 -0.07688,1.28151 -0.28261,1.79566c-0.26979,0.67425 -0.87909,1.09648 -1.53303,1.31344l-0.28673,0.11239c0,0 -0.00738,0.00288 -0.02041,0.00672c-0.24942,0.12402 -0.5034,0.21336 -0.72933,0.25271c-0.35738,0.06225 -0.72644,0.01508 -1.08679,0.05681c-0.71428,-0.00622 -1.37924,0.1922 -2.08669,0.22635c-0.84398,0.04075 -1.71419,0.09813 -2.56115,0.03812c-1.79773,-0.12739 -3.60586,-0.35098 -5.40557,-0.11049c-0.84087,-0.00586 -2.10724,0.24135 -2.74316,-0.37986c-0.98679,-0.96394 -0.69763,-2.89446 -0.68638,-4.13622c0.00515,-0.56852 -0.11491,-1.06038 0.40759,-1.46206c0.46136,-0.35468 1.10177,-0.31169 1.64188,-0.30757c1.91704,0.01736 3.81621,0.09848 5.72346,0.2365c1.19994,0.08684 2.39717,-0.04189 3.5962,-0.07691c0.03803,-0.3024 0.08172,-0.74415 0.23348,-0.99041c0.66764,-1.08338 2.22044,-0.85098 3.22756,-0.63994c0.44396,0.09303 0.91844,0.12972 1.32807,0.35692c0.5389,0.29889 1.17516,0.84424 1.43723,1.41266c0.13439,0.29149 0.17811,0.61676 0.27027,0.92422c-0.08157,0.54074 -0.27792,0.79174 -0.44334,1.26829c0.00605,0.05936 -0.00054,0.10266 -0.00054,0.10266zM237.14785,178.96069c-0.26484,-0.26968 0.00484,-0.53452 0.00484,-0.53452l0.15743,-0.15136c0.00068,-0.00078 0.00135,-0.00156 0.00203,-0.00234c-0.04879,-0.05617 -0.0836,-0.13685 -0.08255,-0.25276c0.00019,-0.02165 0.00162,-0.04205 0.00413,-0.06128c-0.36352,-0.00135 -0.80594,0.0418 -0.86576,0.30122c-0.07533,0.3267 0.01385,0.82355 0.01077,1.16254c-0.00856,0.94517 -0.21732,2.40383 0.4737,3.17054c0.22924,0.25435 0.5712,0.13972 0.89637,0.14266c0.42023,0.00381 0.84045,0.00757 1.26067,0.01237c1.83151,-0.24474 3.67661,-0.02144 5.50614,0.11096c0.81582,0.05904 1.65414,-0.00274 2.46721,-0.03896c0.70593,-0.03145 1.37231,-0.23308 2.08669,-0.22635c0.78991,-0.09148 1.86364,-0.05781 2.33909,-0.89143c0.02021,-0.03544 0.03736,-0.07211 0.05222,-0.10974c-0.82706,-0.00749 -1.65411,-0.01498 -2.48117,-0.02247l-0.0613,-0.00055c0,0 -0.37797,-0.00342 -0.37454,-0.38139c0.00342,-0.37797 0.38139,-0.37454 0.38139,-0.37454c0.87874,0.00796 1.81881,0.01647 2.69755,0.02443c0,0 0.01257,0.00011 0.03311,0.00259c0.02705,-0.08065 0.05273,-0.16133 0.07622,-0.2417c-0.07933,0.01905 -0.14489,0.01189 -0.14489,0.01189c-0.84336,-0.09273 -1.68886,-0.07473 -2.5368,-0.08241l-0.12262,-0.00111c0,0 -0.37797,-0.00343 -0.37454,-0.38139c0.00342,-0.37797 0.38139,-0.37454 0.38139,-0.37454l0.12262,0.00111c0.87346,0.00791 1.74299,-0.00736 2.61198,0.08685c0,0 0.09998,0.01092 0.19117,0.07305c0.02938,-0.4885 -0.12878,-0.92146 -0.69416,-1.20279c-0.35411,-0.17621 -0.4476,-0.31902 -0.81351,-0.1708c0,0 -0.34633,0.11197 -0.46916,-0.22369c-0.73434,-0.10785 -1.48646,-0.20514 -2.22159,-0.21047c-1.44044,-0.01304 -2.87488,0.18494 -4.31615,0.08281c-1.29252,-0.09159 -2.58085,-0.15951 -3.87381,-0.19883c0.00255,0.01479 0.00456,0.02974 0.00606,0.04482l0.03626,-0.00485l0.05656,0.42327c0.00293,0.01953 0.00436,0.03955 0.00418,0.05993c-0.00046,0.05005 -0.01061,0.09773 -0.02867,0.14128c0.03327,0.06146 0.05472,0.12405 0.07038,0.19146c0.19966,0.09617 0.19741,0.34387 0.19741,0.34387c-0.00832,0.91872 0.07863,2.50995 -1.1389,2.69269c-0.20393,0.03061 -0.42765,0.05553 -0.6182,-0.0233c-0.87588,-0.36235 -0.78823,-1.43687 -0.78119,-2.20188c0.00128,-0.13849 -0.00404,-0.38136 0.01062,-0.61784c-0.04538,-0.01871 -0.09211,-0.04961 -0.13869,-0.09704zM239.05219,179.92087c-0.12203,-0.11276 -0.1204,-0.29161 -0.1204,-0.29161l0.00553,-0.19175c-0.04673,-0.50136 -0.19722,-0.5784 -0.70978,-0.54799c-0.06896,0.00409 -0.16843,-0.0204 -0.20352,0.03911c-0.12764,0.21645 0.01007,0.50252 0.00783,0.75379c-0.00276,0.31073 -0.14285,1.33849 0.28904,1.48659c0.29868,0.10243 0.47823,-0.10026 0.56836,-0.33801c0.11287,-0.2977 0.1506,-0.6021 0.16294,-0.91014zM252.73897,178.50068c-0.07949,-0.22113 -0.11183,-0.45884 -0.20577,-0.67422c-0.44844,-1.02818 -1.72045,-1.25267 -2.66547,-1.46856c-0.50444,-0.11525 -1.68408,-0.13468 -1.99037,0.41711c-0.05458,0.09832 -0.09617,0.39421 -0.12055,0.59469c0.85416,0.01648 1.73029,0.1388 2.57283,0.26898l0.40237,0.00269c0,0 0.19073,0.00173 0.29999,0.13822c0.61753,0.20089 1.29611,0.75517 1.50366,1.26595c0.08956,-0.17228 0.17211,-0.34357 0.20332,-0.54487z" fill="#525252"/><path d="M238.89254,180.83781c-0.09014,0.23775 -0.2742,0.44109 -0.57288,0.33866c-0.43188,-0.1481 -0.29661,-1.18787 -0.29385,-1.4986c0.00223,-0.25127 -0.13244,-0.53972 -0.0048,-0.75617c0.03509,-0.0595 0.13579,-0.03544 0.20475,-0.03953c0.51257,-0.03041 0.66924,0.04783 0.71597,0.54919l-0.00449,0.19264c0,0 0.00033,0.18249 0.12235,0.29524c-0.01235,0.30804 -0.05417,0.62086 -0.16703,0.91856z" data-paper-data="{&quot;noHover&quot;:false,&quot;origItem&quot;:[&quot;Path&quot;,{&quot;applyMatrix&quot;:true,&quot;segments&quot;:[[[358.86813,523.3342],[4.07617,0.12642],[-1.47688,1.62759]],[355.02522,524.96179],[[352.48821,524.91154],[0,0],[-6.62617,0.67818]],[[345.32457,534.36604],[-0.4636,-6.77645],[0.06237,0.9117]],[[345.86628,537.05347],[-0.79133,-0.45704],[2.87836,1.66243]],[[355.83625,536.85961],[-3.32395,0.00051],[4.11062,-0.00063]],[[375.46579,532.85821],[-1.90729,5.73051],[1.31908,-3.96322]],[[370.92667,525.38061],[3.15563,1.16381],[-3.95145,-1.45731]]],&quot;closed&quot;:true}]}" fill="#0e0d0c"/><path d="M252.52917,179.04163c-0.20754,-0.51079 -0.88713,-1.06227 -1.50466,-1.26316c-0.10926,-0.13649 -0.30006,-0.13677 -0.30006,-0.13677l-0.40204,-0.00081c-0.84254,-0.13017 -1.71895,-0.2556 -2.57311,-0.2721c0.02438,-0.20047 0.0664,-0.49813 0.12098,-0.59646c0.30629,-0.55179 1.49088,-0.53696 1.99532,-0.42171c0.94502,0.21589 2.22669,0.44818 2.67514,1.47636c0.09394,0.21538 0.1259,0.45498 0.20539,0.6761c-0.03121,0.2013 -0.12739,0.36626 -0.21695,0.53854z" data-paper-data="{&quot;noHover&quot;:false,&quot;origItem&quot;:[&quot;Path&quot;,{&quot;applyMatrix&quot;:true,&quot;segments&quot;:[[[338.44262,342.45984],[2.66651,0.38866],[-2.91538,1.07796]],[[329.54887,345.2624],[2.83772,-1.26839],[-13.54673,6.05504]],[[310.44244,380.69638],[2.74258,-12.52637],[-1.46397,6.68648]],[[316.19833,406.97442],[-7.33565,-3.98544],[1.30721,0.71021]],[[324.07919,408.49777],[-2.65476,-0.29848],[0.11576,-11.30057]],[[327.32896,374.43298],[-1.62098,11.16043],[0,0]],[327.31638,369.11021],[[329.10876,365.12552],[-1.79238,1.46154],[2.58323,-8.19254]],[[345.6743,345.084],[-6.73172,2.80644],[-2.28966,-1.16404]]],&quot;closed&quot;:true}]}" fill="#0e0d0c"/><path d="M237.29395,179.05924c-0.01466,0.23649 -0.00924,0.47869 -0.01052,0.61718c-0.00704,0.76501 -0.09485,1.83694 0.78103,2.19929c0.19055,0.07883 0.39962,0.05761 0.60355,0.027c1.21753,-0.18274 1.13062,-1.77804 1.13894,-2.69676c0,0 0.00238,-0.24811 -0.19728,-0.34429c-0.01566,-0.06742 -0.03703,-0.13023 -0.07029,-0.1917c0.01806,-0.04355 0.0283,-0.09144 0.02876,-0.14148c0.00018,-0.02038 -0.00121,-0.04047 -0.00414,-0.06001l-0.05633,-0.42375l-0.03628,0.00487c-0.0015,-0.01508 -0.00347,-0.03007 -0.00603,-0.04487c1.29295,0.03933 2.58557,0.10359 3.87811,0.19519c1.44126,0.10213 2.88443,-0.09279 4.32487,-0.07975c0.73513,0.00533 1.48802,0.10415 2.22237,0.212c0.12283,0.33566 0.46929,0.22411 0.46929,0.22411c0.36591,-0.14822 0.4595,-0.00501 0.81361,0.17119c0.56537,0.28133 0.72373,0.71558 0.69436,1.20408c-0.09118,-0.06214 -0.20625,-0.07197 -0.20625,-0.07197c-0.86899,-0.09421 -1.73847,-0.0785 -2.61193,-0.08642l-0.10764,-0.00318c0,0 -0.3779,-0.00288 -0.38133,0.37507c-0.00342,0.37797 0.37455,0.38202 0.37455,0.38202l0.1075,0.00086c0.84792,0.00768 1.70855,-0.01003 2.55191,0.0827c0,0 0.06555,0.00714 0.14489,-0.01191c-0.02349,0.08036 -0.04918,0.16129 -0.07623,0.24194c-0.02054,-0.00248 -0.03311,-0.00259 -0.03311,-0.00259c-0.87874,-0.00796 -1.81882,-0.01629 -2.69756,-0.02425c0,0 -0.37805,-0.00275 -0.38147,0.37521c-0.00342,0.37797 0.37445,0.38186 0.37445,0.38186l0.04658,-0.00285c0.82706,0.00749 1.65401,0.01552 2.48107,0.023c-0.01486,0.03763 -0.01708,0.07674 -0.03729,0.11218c-0.47545,0.83361 -1.54968,0.80166 -2.3396,0.89313c-0.71439,-0.00673 -1.38186,0.1967 -2.08779,0.22815c-0.81308,0.03623 -1.65592,0.10065 -2.47174,0.04162c-1.82953,-0.1324 -3.68282,-0.36003 -5.51434,-0.11529c-0.42022,-0.0048 -0.84067,-0.00911 -1.2609,-0.01292c-0.32517,-0.00295 -0.66727,0.11127 -0.89651,-0.14308c-0.69103,-0.76671 -0.48251,-2.22852 -0.47395,-3.17368c0.00307,-0.33899 -0.0859,-0.83692 -0.01055,-1.16362c0.05982,-0.25941 0.50242,-0.3031 0.86594,-0.30174c-0.00252,0.01922 0.01029,0.04472 0.0101,0.06638c-0.00105,0.11591 0.03384,0.19638 0.08262,0.25255c-0.00068,0.00078 -0.00135,0.00156 -0.00203,0.00234l-0.15737,0.15117c0,0 -0.26954,0.26431 -0.00471,0.53399c0.04658,0.04743 0.09332,0.07826 0.1387,0.09697z" data-paper-data="{&quot;noHover&quot;:false,&quot;origItem&quot;:[&quot;Path&quot;,{&quot;applyMatrix&quot;:true,&quot;segments&quot;:[[[346.39531,548.63926],[0.62179,-0.62179],[-3.53553,3.53553]],[339.32424,548.63926],[[337.30321,546.57498],[0,0],[-0.01041,-0.00887]],[[337.27199,546.54836],[0.0104,0.00888],[-0.73709,0.65205]],[[333.93844,547.67064],[1.53334,0],[-0.28644,0]],[[333.12741,547.62329],[0.25456,0.03094],[0.02559,4.80858]],[[337.21554,559.03927],[-3.43859,-0.76019],[4.33046,0.95736]],[[352.59213,558.75742],[-4.48449,0],[12.50333,0]],[[394.47428,552.11158],[-10.05894,9.23254],[3.33699,-3.06283]],[[396.25393,540.23755],[0,4.3016],[0,-5.5591]],[[396.26651,523.56036],[-0.01314,5.55908],[-3.45677,-24.19739]],[[397.07462,450.71356],[-1.53217,24.21631],[0.68322,-10.79851]],[[396.26359,418.0827],[0.57662,10.7508],[-0.50063,-9.33407]],[[393.01947,390.50768],[-0.00337,9.4505],[-1.30472,-10.43773]],[[380.94778,359.6737],[11.08375,6.18927],[-0.47114,-0.26309]],[[379.48994,358.99615],[0.49945,0.19197],[0,10.94097]],[[379.48994,391.81905],[0,-10.94097],[0,0]],[379.48994,392.63008],[[374.48994,397.63008],[5,0],[-5,0]],[[369.48994,392.63008],[0,0],[0,-11.62476]],[[369.48994,356.94476],[0,11.62476],[0,0]],[[369.52027,356.5065],[-0.03033,0.27196],[-1.07005,-0.34818]],[[366.314,355.5272],[1.06586,0.3011],[0.26145,1.04712]],[[366.48865,357.44228],[0,0],[-1.12554,11.16678]],[[365.70243,391.00802],[0,-11.21704],[0,0]],[365.70243,392.63008],[[360.70243,397.63008],[5,0],[-5,0]],[355.70243,392.63008],[[355.70243,391.00802],[0,0],[0,-11.55476]],[[356.53828,356.44724],[-1.14201,11.50594],[0,0]],[[357.48175,353.90977],[-0.81108,1.21362],[-6.46521,-0.33011]],[[341.6547,363.23598],[3.65359,-7.5123],[-2.28839,4.70525]],[[339.49289,374.01731],[-2.0045,-4.82238],[0,0]],[[336.59012,380.24991],[4.42532,-1.66491],[-1.33864,9.72654]],[[334.07226,409.66171],[-0.01751,-9.72475],[0,19.05517]],[[335.68466,466.7445],[1.17829,-19.07679],[-1.0567,17.10812]],[[333.51866,518.00978],[0.36534,-17.10746],[0.19544,-0.03554]],[[334.11082,517.9243],[-0.19927,0.02168],[0,0]],[334.04237,517.44514],[[339.63443,516.64627],[0,0],[0.25804,-0.04108]],[[340.42668,516.58385],[-0.2696,0],[0.66201,0]],[[342.29891,516.94618],[-0.57827,-0.23367],[0.80901,-0.44746]],[[344.82312,515.99226],[-0.88983,0.21525],[1.24824,-2.65253]],[[349.34801,513.33973],[0,0],[12.15349,0]],[[385.10259,528.08221],[-2.56313,-16.08322],[0.42931,2.69387]],[[384.86851,536.26246],[1.01992,-2.53002],[-4.68809,11.62938]],[[355.83625,546.85961],[10.12013,0.00142],[-1.83212,-0.00026]],[[347.66225,546.79312],[3.13001,0.16559],[-0.24207,0.60256]]],&quot;closed&quot;:true}]}" fill="#0e0d0c"/></g><g><path d="M236.66577,179.27581c-0.188,0.09098 -0.41115,0.09157 -0.62001,0.0905c-0.36001,-0.00186 -0.99174,-0.20032 -1.20187,-0.49219c-0.44571,-0.61907 -0.13953,-2.16697 0.60347,-2.46372c0.30579,-0.12213 0.84237,0.01946 1.11704,0.17708c0.05297,0.0304 0.1089,0.07155 0.16573,0.11915c0.12614,-0.27797 0.42866,-0.6935 0.6158,-0.77657c0.09707,-0.04308 0.85807,-0.00875 1.02276,-0.00326c0.59234,0.01973 1.18467,0.03945 1.77702,0.05918c3.17732,0.1058 6.31173,0.5169 9.48766,0.62265c0.32247,0.01133 0.71799,-0.00014 1.02917,0.11282c0.68742,0.24954 1.33137,1.13422 1.03254,1.88967c-0.08812,0.22278 -0.39842,0.42668 -0.64754,0.57862c-0.10553,0.18185 -0.34037,0.17404 -0.34037,0.17404c-0.84753,-0.02997 -1.65505,0.21038 -2.50371,0.22288c-2.37443,0.03499 -4.73877,-0.30628 -7.10622,-0.05308c-0.90549,-0.03015 -1.81437,0.00672 -2.72502,-0.02844c-0.3787,-0.01463 -0.67254,0.02197 -1.00632,-0.22417c-0.14511,-0.10701 -0.25521,-0.23874 -0.3396,-0.386c-0.11908,0.12845 -0.20318,0.3047 -0.36054,0.38085zM236.69121,177.74342c-0.2003,-0.2147 -0.59571,-0.74341 -0.97795,-0.62537c-0.26522,0.08189 -0.39517,1.11865 -0.25836,1.31093c0.22716,0.31926 0.82968,0.21933 1.0026,-0.03147l-0.00687,-0.10108c0,0 0.07442,-0.26049 0.31778,-0.27741c-0.01006,-0.0775 -0.01828,-0.15483 -0.02545,-0.23119c-0.03292,-0.02429 -0.05174,-0.04442 -0.05174,-0.04442zM250.56477,178.60615c0.1692,-0.08173 0.36036,-0.14683 0.44192,-0.30743c0.09707,-0.19112 -0.09875,-0.37369 -0.1847,-0.49702c-0.31566,-0.45289 -0.68731,-0.42111 -1.21376,-0.43755c-3.1761,-0.10577 -6.31045,-0.51685 -9.48766,-0.62265c-0.59234,-0.01973 -1.18467,-0.03945 -1.77702,-0.05918c-0.23174,-0.00771 -0.47306,-0.13388 -0.69298,-0.06041c-0.1437,0.04801 -0.21193,0.24003 -0.23347,0.39001c-0.01809,0.12598 0.03555,0.25205 0.05082,0.3784c0.04641,0.38385 -0.003,1.00804 0.35077,1.28527c0.21338,0.1672 0.7672,0.08027 1.00764,0.08828c0.75055,0.025 1.49633,-0.01056 2.24246,0.01428c2.37105,-0.26414 4.74375,0.08554 7.12218,0.05265c0.80572,-0.01114 1.57179,-0.21981 2.37381,-0.22464z" fill="#525252"/><path d="M236.75045,177.78686c0.00718,0.07635 0.01529,0.15626 0.02535,0.23376c-0.24336,0.01691 -0.32028,0.28157 -0.32028,0.28157l0.00631,0.10152c-0.17292,0.2508 -0.78546,0.34951 -1.01262,0.03026c-0.13681,-0.19229 -0.00455,-1.24078 0.26066,-1.32268c0.38224,-0.11803 0.78842,0.41585 0.98872,0.63054c0,0 0.01893,0.02074 0.05185,0.04503z" data-paper-data="{&quot;noHover&quot;:false,&quot;origItem&quot;:[&quot;Path&quot;,{&quot;applyMatrix&quot;:true,&quot;segments&quot;:[[[475.794,535.00135],[0,0],[-2.75029,2.74259]],[[467.95653,548.20608],[-1.72879,-5.00165],[1.19951,3.47034]],[[485.402,551.04465],[-2.48197,1.89348],[4.12088,-3.1438]],[[484.54456,537.80325],[3.39197,2.17571],[0,0]],[483.21123,537.93858],[[479.40376,533.85935],[0.33076,3.21005],[-1.02019,0.16718]],[[476.35846,534.29769],[1.00624,-0.12859],[-0.30672,0.4459]]],&quot;closed&quot;:true}]}" fill="#ffeb6e"/><path d="M248.19833,178.83252c-2.37842,0.03289 -4.76575,-0.31649 -7.13681,-0.05234c-0.74612,-0.02485 -1.49209,0.00988 -2.24264,-0.01512c-0.24044,-0.008 -0.79431,0.07864 -1.00767,-0.08856c-0.35378,-0.27723 -0.30438,-0.9029 -0.35081,-1.28674c-0.01528,-0.12635 -0.06888,-0.25284 -0.05078,-0.37881c0.02154,-0.14998 0.08984,-0.34245 0.23355,-0.39046c0.21992,-0.07349 0.46126,0.0526 0.693,0.06031c0.59234,0.01973 1.18481,0.03893 1.77714,0.05866c3.17721,0.1058 6.32636,0.5182 9.50246,0.62397c0.52645,0.01645 0.89814,-0.0147 1.2138,0.43819c0.08596,0.12333 0.28175,0.30645 0.1847,0.49757c-0.08156,0.1606 -0.27276,0.22609 -0.44195,0.30782c-0.80202,0.00484 -1.56824,0.21439 -2.37397,0.22553z" data-paper-data="{&quot;noHover&quot;:false,&quot;origItem&quot;:[&quot;Path&quot;,{&quot;applyMatrix&quot;:true,&quot;segments&quot;:[[[481.09232,351.20035],[0.41699,10.60131],[-1.15507,-2.20096]],[[476.83329,345.49316],[2.15917,1.00762],[-2.56962,-1.19916]],[[470.34355,348.15397],[1.59265,-1.19073],[-5.84861,4.37267]],[[465.09302,364.39363],[-0.01429,-6.96741],[0,42.03747]],[[461.03787,490.10328],[0,-42.05218],[0,7.83996]],[[461.03787,513.62315],[0,-7.83996],[0,3.06724]],[[460.54438,522.81163],[-1.0683,-2.87518],[0.69807,1.87877]],[[465.80336,525.72656],[-1.99229,-0.21876],[1.67344,0.18375]],[[470.78377,524.88799],[-1.66368,0.25762],[5.05436,-0.78266]],[[487.62181,519.68464],[-3.50945,4.79923],[2.11667,-2.89459]],[[488.34525,506.32388],[0,3.18234],[0,-9.93399]],[[487.54679,476.67022],[0,9.87543],[-4.53614,-31.23126]],[[485.10733,382.48536],[1.48188,31.43047],[-0.50201,-10.64746]]],&quot;closed&quot;:true}]}" fill="#0e0d0c"/></g></g></g></g></svg>