<svg version="1.1" xmlns="http://www.w3.org/2000/svg" xmlns:xlink="http://www.w3.org/1999/xlink" width="25.59259" height="19.26621" viewBox="0,0,25.59259,19.26621"><g transform="translate(-226.7409,-167.3669)"><g data-paper-data="{&quot;isPaintingLayer&quot;:true}" fill-rule="nonzero" stroke="none" stroke-width="0.5" stroke-linecap="butt" stroke-linejoin="miter" stroke-miterlimit="10" stroke-dasharray="" stroke-dashoffset="0" style="mix-blend-mode: normal"><g data-paper-data="{&quot;index&quot;:null}"><path d="M247.92903,181.70769c0.32699,-0.10817 0.49282,-0.22637 0.636,-0.47136c-0.17057,-0.03025 -0.27333,-0.15975 -0.27333,-0.15975c-0.41228,-0.54151 -0.52181,-0.51257 -1.23914,-0.33268c-0.22881,0.05738 -0.53094,0.0144 -0.68406,0.18125c-0.15043,0.16392 0.08452,0.40203 0.09627,0.60726c0.00454,0.07935 -0.12605,0.16778 -0.07847,0.23263c0.04778,0.06512 0.17773,0.00973 0.26516,0.0218c0.46167,0.0637 0.81162,0.07501 1.27759,-0.07914zM248.64329,180.10769c0.07121,0.05668 0.12956,0.12398 0.1834,0.19499c0.16183,0.02432 0.26756,0.13542 0.26756,0.13542l0.39779,0.48532c-0.14027,0.62378 -0.05055,0.80093 -0.64557,1.23941c-0.73167,0.53919 -2.59016,0.79655 -3.22126,0.06854c-0.12879,-0.14856 -0.02384,-0.3855 -0.05422,-0.57541c-0.02147,-0.13426 -0.05557,-0.24888 -0.08387,-0.35583c-0.03289,0.01732 -0.0657,0.03375 -0.09834,0.04922c-0.18308,0.08681 -0.35367,0.22107 -0.55509,0.24928c-0.6557,0.09186 -1.1634,-0.25207 -1.65326,-0.50546c-0.42775,-0.22125 -0.95888,-0.33262 -1.38695,-0.55438c-0.24223,-0.12548 -0.72036,-0.45644 -0.96259,-0.58192c-0.76085,-0.54467 -1.57535,-0.96259 -2.26283,-1.59558c-0.15041,-0.13849 -0.28293,-0.46258 -0.48971,-0.37905c-0.24245,0.09794 -0.32702,0.38094 -0.50757,0.55847c-0.38643,0.37998 -0.81348,0.74536 -1.21045,1.11408c-0.5684,0.52796 -1.23939,0.97787 -1.90871,1.41309l-0.1027,0.21205c-0.5561,0.41666 -1.16733,0.65566 -1.90342,0.60087c-0.26208,-0.01951 -0.57665,-0.01913 -0.75284,-0.18674c-0.20549,-0.19548 -0.20723,-0.51217 -0.26422,-0.78081c-0.16122,-0.76002 -0.03169,-1.62879 0.39567,-2.34047c-0.0329,-0.02893 -0.06362,-0.06602 -0.09067,-0.11312c-0.20053,-0.34907 0.20112,-0.54964 0.20112,-0.54964c0.94153,-0.46316 1.5077,-1.19495 2.20854,-1.89649c0.62375,-0.62438 1.29485,-1.21398 1.95436,-1.80773c0.26329,-0.23704 0.55885,-0.44451 0.81606,-0.68684c0.16406,-0.15456 0.22964,-0.43901 0.45636,-0.49185c0.28731,-0.06697 0.56979,0.10151 0.83964,0.1898c0.67287,0.22015 1.39183,0.80507 1.95539,1.18154c1.78506,1.43865 3.67287,2.62536 5.73933,3.70576c0.14521,-0.00646 0.26205,0.05406 0.26205,0.05406l0.13039,0.06755c0.17256,0.10149 0.40665,0.14841 0.51768,0.30446c0.3194,0.44889 0.26548,0.96732 0.01924,1.44515c0.00837,-0.00205 0.0166,-0.00409 0.02468,-0.00612c0.67119,-0.16832 1.22777,-0.30514 1.78499,0.13837zM233.23396,178.05022c0.01471,0.19731 -0.17559,0.34553 -0.17559,0.34553c-0.77828,0.57609 -0.80375,1.54763 -0.74178,2.35313c0.00898,0.11673 -0.04529,0.25226 0.01961,0.35095c0.03235,0.04919 0.13037,-0.01649 0.19564,-0.02363c0.22216,-0.02429 0.40094,-0.03656 0.56255,-0.06517c0.05115,-0.05855 0.10192,-0.0922 0.10192,-0.0922c0.202,-0.13392 0.39969,-0.26886 0.59395,-0.40501c0.0415,-0.04805 0.0982,-0.09456 0.17425,-0.1231c0.87912,-0.62598 1.69197,-1.27893 2.52232,-1.9799c0.36433,-0.30756 0.89279,-1.09407 1.39726,-1.20316c0.26746,-0.05784 0.55789,0.00818 0.79791,0.11c0.09409,0.03991 0.83631,0.73433 0.95992,0.83406c0.5358,0.4323 1.16405,0.73076 1.72393,1.13157c0.27862,0.14434 0.6315,0.40801 0.91013,0.55235c0.42749,0.22146 0.95914,0.33241 1.38695,0.55438c0.30169,0.15653 0.65283,0.46898 1.07333,0.41467c0.09841,-0.01271 0.16476,-0.1066 0.25147,-0.15348c0.46281,-0.25017 1.5604,-1.22506 0.9873,-1.63824l-0.39795,-0.12476c-2.16457,-1.12134 -4.14444,-2.35312 -6.0051,-3.85509c-0.47532,-0.31807 -0.96759,-0.60803 -1.45256,-0.91217c-0.10625,-0.06663 -0.23437,-0.10448 -0.33748,-0.17483c-0.06338,-0.04324 -0.07878,-0.19031 -0.15614,-0.16195c-0.08273,0.03033 0.01092,0.16936 -0.04213,0.23464c-0.32754,0.40306 -0.93403,0.79703 -1.33134,1.15488c-1.01601,0.91509 -1.89609,2.04878 -3.01836,2.87654z" fill="#9966ff"/><path d="M248.57398,181.23641c-0.14318,0.24499 -0.31189,0.3687 -0.63887,0.47687c-0.46597,0.15415 -0.82912,0.14254 -1.29078,0.07883c-0.08742,-0.01207 -0.2182,0.04223 -0.26598,-0.02289c-0.04759,-0.06485 0.08235,-0.15468 0.0778,-0.23403c-0.01174,-0.20522 -0.24649,-0.44857 -0.09606,-0.61249c0.15313,-0.16685 0.45886,-0.12798 0.68766,-0.18537c0.71734,-0.1799 0.84055,-0.20378 1.25283,0.33773c0,0 0.10282,0.13108 0.27339,0.16133z" data-paper-data="{&quot;noHover&quot;:false,&quot;origItem&quot;:[&quot;Path&quot;,{&quot;applyMatrix&quot;:true,&quot;segments&quot;:[[[428.29653,249.70232],[2.53963,2.48528],[-0.88695,1.97961]],[[425.52357,252.53569],[0,0],[-7.83313,3.35814]],[[417.70827,266.57322],[0,-9.26089],[0,2.95396]],[[417.82607,275.4341],[-1.56019,-2.36818],[1.5327,2.32645]],[[425.49513,276.11458],[-2.5285,-0.4825],[0.97762,0.18656]],[[428.08169,277.77625],[-0.93268,0.38046],[0.93648,-0.38202]],[[429.15412,274.62198],[-0.41283,1.02512],[2.18006,-5.41338]],[[432.08448,258.86309],[0.45298,6.12931],[-0.31787,-4.30112]]],&quot;closed&quot;:true}]}" fill="#ffffff"/><path d="M233.0494,178.39651c0,0 0.1903,-0.14877 0.17559,-0.34608c1.12227,-0.82776 2.00594,-1.9678 3.02194,-2.88289c0.39731,-0.35784 1.00706,-0.75337 1.3346,-1.15642c0.05304,-0.06527 -0.04041,-0.20435 0.04231,-0.23468c0.07736,-0.02836 0.09298,0.11866 0.15635,0.16189c0.10312,0.07035 0.23183,0.10808 0.33808,0.17471c0.48497,0.30414 0.98083,0.59416 1.45616,0.91222c1.86066,1.50197 3.84685,2.74283 6.01142,3.86417l0.39793,0.12483c0.57309,0.41317 -0.52535,1.39016 -0.98816,1.64033c-0.08671,0.04688 -0.15322,0.14103 -0.25164,0.15374c-0.4205,0.0543 -0.77171,-0.25803 -1.0734,-0.41456c-0.42781,-0.22197 -0.9596,-0.33272 -1.38708,-0.55417c-0.27862,-0.14434 -0.64666,-0.41583 -0.92528,-0.56017c-0.55988,-0.4008 -1.18906,-0.69741 -1.72486,-1.12971c-0.12361,-0.09973 -0.85749,-0.78412 -0.95158,-0.82403c-0.24002,-0.10182 -0.52413,-0.17029 -0.7916,-0.11246c-0.50447,0.10909 -1.03019,0.88804 -1.39452,1.19561c-0.83035,0.70097 -1.64408,1.35172 -2.5232,1.97771c-0.07604,0.02854 -0.13277,0.07501 -0.17427,0.12306c-0.19426,0.13615 -0.39201,0.27099 -0.59401,0.40491c0,0 -0.06646,0.04229 -0.11761,0.10085c-0.16161,0.0286 -0.34054,0.04063 -0.5627,0.06493c-0.06527,0.00713 -0.16333,0.07275 -0.19568,0.02355c-0.0649,-0.0987 -0.01082,-0.2346 -0.01981,-0.35132c-0.06197,-0.8055 -0.03725,-1.77995 0.74103,-2.35604z" data-paper-data="{&quot;noHover&quot;:false,&quot;origItem&quot;:[&quot;Path&quot;,{&quot;applyMatrix&quot;:true,&quot;segments&quot;:[[[657.04642,381.49437],[0,0],[4.62661,9.90368]],[[683.36858,395.78934],[-9.97259,-1.50293],[1.44514,0.21779]],[[687.69104,396.5235],[-1.39648,0.43093],[0.69604,-0.21479]],[[687.99997,394.36016],[-0.11213,0.71975],[0.38164,-2.4498]],[[688.92201,388.14704],[-0.14482,1.81148],[-0.55534,-0.70664]],[[688.1125,386.80499],[0,0],[-1.0114,-2.52849]],[[685.00235,379.34017],[1.06204,2.45139],[-0.45725,-0.5747]],[[684.03792,377.13874],[0.11497,0.89292],[-4.92546,-11.1202]],[[667.67276,344.73829],[5.98483,10.79863],[-2.62594,-4.73807]],[[657.31503,326.50353],[-0.21166,5.70793],[0.11222,-3.02632]],[[661.08161,318.2359],[-1.96776,2.30198],[0.77141,-0.90243]],[[674.13622,310.17835],[-1.58787,1.05821],[6.8829,-4.587]],[[693.13166,294.7216],[-6.57368,4.93026],[2.60189,-2.60189]],[[702.61288,286.44017],[-2.60189,2.60189],[3.99202,-3.99202]],[[713.57123,273.04664],[-3.99918,3.99409],[2.82019,-2.8166]],[[721.87737,262.64306],[-0.6213,4.65927],[0.1454,-1.09041]],[[720.77921,259.53094],[0.30521,1.05687],[-1.6289,-5.64052]],[[703.88827,244.52507],[6.76412,-5.03876],[0,0]],[[701.16079,248.46027],[0,0],[-20.21351,20.21351]],[[636.04404,302.53496],[23.91098,-15.92721],[-5.31112,4.24538]],[[620.54007,315.66967],[5.17134,-4.38641],[-1.13297,0.961]],[[617.38854,318.82119],[1.16859,-0.91735],[-0.71824,0.56382]],[[614.94591,320.06111],[-0.10883,-0.9066],[0.11639,0.9695]],[[617.66749,321.14479],[-0.63125,-0.74498],[3.89793,4.60022]],[[627.63949,338.54218],[-3.13622,-5.22739],[8.01997,13.36755]],[[653.38438,378.67981],[-6.6356,-14.27295],[2.44136,0.3732]]],&quot;closed&quot;:true}]}" fill="#ffffff"/></g><g data-paper-data="{&quot;index&quot;:null}"><path d="M243.30573,173.65055c0.06475,-0.45685 0.47166,-0.39918 0.47166,-0.39918l-0.08972,0.03648c0.05532,-0.02117 0.11084,-0.04092 0.16653,-0.05942c0.03069,-0.02425 0.06149,-0.04841 0.09239,-0.07248c0.3285,-0.04891 0.65167,-0.11559 0.97291,-0.18982c0.00764,0.00888 0.01536,0.01768 0.02317,0.02639c0.53351,-0.07376 1.07192,-0.11397 1.59985,-0.23192c0.35106,-0.07843 0.69897,-0.19351 1.04805,-0.304c0.00456,-0.01007 0.00905,-0.0202 0.01345,-0.03038c0.10952,-0.02329 0.22035,-0.0528 0.3334,-0.09209c0.13658,-0.04747 0.25814,-0.10658 0.37259,-0.17049c0.05497,0.01685 0.11015,0.03314 0.1656,0.0486c0.10253,-0.02133 0.20546,-0.03936 0.30889,-0.05311c0.32169,-0.04275 0.64678,-0.01529 0.96779,0.01203c0.24053,0.02047 0.53151,-0.12284 0.72383,0.03421c0.46509,0.37982 0.28691,0.98675 0.22625,1.47207c0,0 -0.00656,0.04627 -0.02861,0.10749c0.00219,0.55857 -0.07003,1.13103 -0.22748,1.64663c-0.05872,0.1923 -0.21419,0.33736 -0.27702,0.52817c-0.26621,0.80844 -0.25553,1.38413 -0.88584,2.02092c-0.0977,0.0987 -0.22498,0.15765 -0.31731,0.26263c-0.13195,0.15004 -0.18381,0.39664 -0.34939,0.49545c-0.52781,0.315 -1.36489,-0.0008 -1.69518,-0.50121c-0.4411,-0.66828 -0.21696,-1.89608 -0.0486,-2.64457c0.01247,-0.05546 0.02297,-0.11263 0.03331,-0.17024c-1.17661,0.47105 -2.32555,0.9826 -3.43022,1.5893c-0.43397,0.23834 -0.87095,0.52641 -1.28662,0.80435c-0.17454,0.11671 -0.31589,0.34243 -0.51605,0.36438c-0.61507,0.06746 -1.03125,-0.63649 -1.39395,-1.04465c-1.17686,-0.89093 -2.10741,-2.03524 -3.20463,-3.06434c-0.2242,-0.21028 -0.42461,-0.45013 -0.63625,-0.67597c-0.31712,-0.3384 -0.63799,-0.25751 -0.81635,-0.85277c-0.07201,-0.24035 0.03593,-0.51175 0.06483,-0.76665c0.10942,-0.96517 0.27362,-1.93065 0.40994,-2.89253c0,0 0.05267,-0.37166 0.36158,-0.40222l0.05491,-0.08762c0.2205,-0.34448 0.5199,-0.95562 1.00557,-0.9095c0.24073,0.02287 0.35627,0.35542 0.51874,0.55047c0.29027,0.34849 0.6872,0.77805 0.88345,1.20362c0.05797,0.1257 0.02535,0.29793 0.10067,0.41117c0.07531,0.11325 0.23042,0.12679 0.32177,0.22405c0.20214,0.21522 0.2964,0.53819 0.49994,0.75177c0.85682,0.89906 1.70022,1.81348 2.27309,3.00504c0.12323,0.1853 0.1486,0.51405 0.35023,0.57175c0.0769,0.02201 0.12899,-0.11368 0.2028,-0.15091c0.21626,-0.10907 0.44044,-0.21126 0.63214,-0.36856c0.00103,-0.01056 0.00231,-0.02135 0.00388,-0.03236zM246.68414,173.66226c-0.8058,0.17601 -1.6546,0.15426 -2.45121,0.39185c-0.14306,0.108 -0.28469,0.22026 -0.42472,0.33763c-0.32989,0.27649 -1.1089,0.83551 -1.54334,0.71028c-0.31494,-0.09078 -0.65552,-0.6707 -0.84783,-0.95987c-0.35414,-0.73659 -0.76944,-1.25162 -1.28957,-1.81233c-0.20094,-0.21662 -0.2964,-0.53819 -0.49994,-0.75177c-0.10728,-0.11257 -0.25892,-0.16451 -0.36483,-0.27867c-0.20094,-0.21662 -0.2978,-0.53655 -0.49994,-0.75177c-0.12186,-0.12975 -0.30743,-0.18224 -0.40789,-0.33331c-0.10046,-0.15107 -0.09431,-0.3661 -0.16956,-0.53501c-0.10679,-0.23967 -0.7209,-0.69727 -0.81792,-1.05915c-0.05346,0.09995 -0.12506,0.18896 -0.18392,0.28565l-0.26125,0.41692c0,0 -0.02467,0.03936 -0.06922,0.08441c-0.08059,0.56862 -0.16117,1.13723 -0.24176,1.70585c-0.03679,0.25959 -0.06376,0.5208 -0.11037,0.77876c-0.02126,0.11767 -0.12127,0.2319 -0.09283,0.34586c0.06756,0.27075 0.43051,0.29223 0.61143,0.48444c0.19819,0.21057 0.38358,0.43699 0.59335,0.63315c1.10019,1.02886 2.03374,2.16316 3.20463,3.06434c0.22308,0.24762 0.44001,0.50211 0.66246,0.75044c0.03175,0.03544 0.05808,0.11819 0.10103,0.09948c0.08076,-0.03517 0.1023,-0.16224 0.1731,-0.21887c0.58034,-0.4642 1.27703,-0.72656 1.89205,-1.10894c0.14332,-0.08911 0.24864,-0.25207 0.39982,-0.32201c0.1377,-0.0637 0.29925,-0.01197 0.43986,-0.0664c0.90548,-0.35056 1.77456,-0.84757 2.69036,-1.20354l0.41999,-0.16326c0.06129,-0.02541 0.12837,-0.0352 0.19672,-0.02551c0.22473,0.03185 0.37793,0.26221 0.34217,0.51452c-0.01088,0.07673 -0.03797,0.14666 -0.07674,0.20592l-0.25642,0.40921l-0.00077,-0.00059c-0.1869,0.69167 -0.34672,1.40819 -0.2752,2.0985c0.01912,0.18461 0.46242,0.79445 0.68266,0.56539c0.0853,-0.08871 0.09403,-0.24274 0.17311,-0.33838c0.26504,-0.3205 0.43803,-0.27547 0.65757,-0.629c0.24396,-0.39285 0.21859,-0.89444 0.35542,-1.31279c0.06245,-0.19095 0.21628,-0.33659 0.27702,-0.52817c0.15281,-0.48195 0.05157,-1.0903 0.216,-1.57554c0.00053,-0.00512 0.00092,-0.00787 0.00092,-0.00787c0.01004,-0.0603 0.01943,-0.12072 0.02896,-0.18111c-0.21299,0.01705 -0.42573,-0.06601 -0.63233,-0.12278c-0.28613,-0.07861 -0.59126,-0.05903 -0.88176,-0.11521c-0.5791,0.16088 -1.1348,0.39159 -1.71926,0.51925z" fill="#9966ff"/><path d="M244.22554,174.0503c0.79661,-0.2376 1.64459,-0.2125 2.45039,-0.3885c0.58446,-0.12766 1.14014,-0.35742 1.71923,-0.5183c0.2905,0.05619 0.61211,0.03584 0.89824,0.11446c0.20661,0.05676 0.41934,0.14 0.63232,0.12295c-0.00952,0.06039 -0.01892,0.12104 -0.02896,0.18133c0,0 -0.00039,0.00276 -0.00092,0.00788c-0.16443,0.48523 -0.06345,1.09549 -0.21626,1.57744c-0.06074,0.19159 -0.21475,0.33791 -0.2772,0.52886c-0.13683,0.41834 -0.11206,0.92145 -0.35602,1.3143c-0.21954,0.35353 -0.39307,0.30945 -0.65811,0.62995c-0.07908,0.09564 -0.08808,0.25005 -0.17337,0.33877c-0.22024,0.22906 -0.67627,-0.392 -0.69541,-0.5766c-0.07152,-0.69031 0.08696,-1.40421 0.27386,-2.09587l0.00077,0.00059l0.25621,-0.40849c0.03877,-0.05927 0.06579,-0.12886 0.07666,-0.20558c0.03576,-0.25231 -0.11756,-0.48195 -0.3423,-0.51381c-0.06834,-0.00968 -0.11919,0.00262 -0.18047,0.02803l-0.42007,0.1637c-0.91579,0.35597 -1.78804,0.85848 -2.69352,1.20905c-0.14061,0.05444 -0.30339,0.00359 -0.44108,0.06729c-0.15118,0.06993 -0.25811,0.23362 -0.40143,0.32273c-0.61502,0.38238 -1.31691,0.64449 -1.89726,1.1087c-0.07079,0.05663 -0.09252,0.18362 -0.17327,0.21879c-0.04295,0.01871 -0.06955,-0.06417 -0.1013,-0.09961c-0.22245,-0.24833 -0.44119,-0.5041 -0.66428,-0.75172c-1.17088,-0.90118 -2.10723,-2.04276 -3.20742,-3.07162c-0.20977,-0.19617 -0.39509,-0.42343 -0.59328,-0.63399c-0.18091,-0.1922 -0.54379,-0.21418 -0.61136,-0.48493c-0.02844,-0.11396 0.07166,-0.22862 0.09292,-0.34628c0.04661,-0.25795 0.07382,-0.52008 0.11061,-0.77967c0.08059,-0.56862 0.16192,-1.13899 0.24251,-1.70761c0.04456,-0.04504 0.06928,-0.08451 0.06928,-0.08451l0.26153,-0.41739c0.05886,-0.09669 0.1436,-0.17507 0.19706,-0.27503c0.09701,0.36188 0.71133,0.81915 0.81813,1.05882c0.07526,0.16891 0.06935,0.38354 0.1698,0.53461c0.10046,0.15107 0.28606,0.20351 0.40792,0.33325c0.20214,0.21522 0.2993,0.53457 0.50025,0.75118c0.10591,0.11417 0.25761,0.16599 0.36489,0.27856c0.20354,0.21358 0.29941,0.53412 0.50035,0.75073c0.52012,0.56071 0.93553,1.06957 1.28967,1.80616c0.1923,0.28917 0.52911,0.86414 0.84405,0.95492c0.43445,0.12523 1.20408,-0.43244 1.53397,-0.70894c0.14003,-0.11737 0.27961,-0.22662 0.42267,-0.33462z" data-paper-data="{&quot;noHover&quot;:false,&quot;origItem&quot;:[&quot;Path&quot;,{&quot;applyMatrix&quot;:true,&quot;segments&quot;:[[[443.00711,690.71721],[3.11369,-6.18565],[-2.2584,4.48652]],[[434.82177,703.75356],[2.60664,-4.40676],[0.16107,2.36427]],[[434.71713,710.86786],[-0.4084,-2.35489],[0.29489,1.70038]],[[435.07295,716.01475],[0.5068,-1.66805],[0.66246,-0.00766]],[[437.06015,715.98872],[-0.6622,0.01179],[0,0]],[[437.14603,715.99026],[-0.05569,-0.00154],[5.45612,-0.75779]],[[454.37852,716.04805],[-5.40326,0.66938],[2.14787,-0.26609]],[[460.46649,714.4466],[-2.14367,0.28035],[4.69648,-0.61421]],[[475.09189,713.10498],[-4.58593,1.4915],[4.12686,-1.3422]],[[482.84036,708.60214],[-3.84168,1.73971],[1.1463,-0.51911]],[[486.73408,707.6107],[-1.08151,0.5761],[2.79248,-1.4875]],[[481.70604,701.56821],[1.95157,0.35876],[-7.29763,-1.34152]],[[458.7726,701.39231],[7.70509,-0.70404],[0,0]],[458.77772,701.39905],[[453.99731,702.97091],[0,0],[-0.69482,0.24057]],[[451.67128,703.34763],[0.83979,0],[-2.76142,0]],[[446.67128,700.05949],[0,1.81599],[0,-0.55227]],[[447.24413,698.52983],[-0.36581,0.45693],[0,0]],[[449.63433,695.3861],[0,0],[5.21183,-6.85488]],[[466.63809,675.42537],[-5.13805,6.77932],[0.79786,-1.05273]],[[468.01938,672.01556],[-0.89274,1.01925],[0.98017,-1.11906]],[[472.08213,669.20989],[-1.17395,1.03527],[5.03779,-4.44267]],[[486.85702,655.46676],[-5.86295,4.07605],[0.71521,-0.49723]],[[489.46849,654.34127],[-0.50014,0.60023],[0.26603,-0.31927]],[[488.55479,653.42924],[0.33201,0.29132],[-2.32609,-2.04099]],[[481.51066,647.33898],[2.3175,2.04521],[-7.88843,-10.287]],[[453.50599,618.51294],[9.36575,9.87034],[-1.78576,-1.88197]],[[447.61507,613.10181],[1.95784,1.80644],[-1.78711,-1.64891]],[[443.34724,607.71442],[2.80217,0.83921],[-1.17942,-0.35322]],[[439.49534,608.06155],[1.29479,-0.03632],[-2.83847,0.07962]],[[430.97218,608.06155],[2.84105,0],[-6.22326,0]],[[412.30241,608.06155],[6.22326,0],[-0.55103,0.30239]],[411.29156,608.51514],[[406.42118,610.11659],[0,0],[-1.12691,0.35775]],[[403.07668,611.25284],[1.15365,-0.31126],[3.73508,1.17475]],[[413.19664,618.92113],[-2.40909,-1.11502],[1.69781,0.78581]],[[418.67899,620.86499],[-1.46806,-0.96543],[1.46806,0.96543]],[[421.63486,624.47034],[-1.20673,-1.11101],[2.00171,1.84293]],[[428.94042,629.27468],[-2.01857,-1.83496],[1.06388,0.96711]],[[431.37561,632.47757],[-1.04459,-0.97616],[1.98197,1.85214]],[[438.68117,637.28191],[-2.01857,-1.83496],[5.22497,4.74971]],[[456.16488,649.53206],[-7.36442,-3.63228],[2.81011,1.84801]],[[465.17423,657.32586],[-0.4951,-2.59676],[0.68297,3.58211]],[[455.20681,668.75418],[3.46813,-2.30284],[-1.47217,0.97752]],[[450.93856,671.73959],[1.37628,-1.01203],[-3.76048,6.04374]]],&quot;closed&quot;:true}]}" fill="#ffffff"/></g><g data-paper-data="{&quot;index&quot;:null}"><path d="M245.3248,172.97595c-0.10205,-0.51623 0.27945,-0.53579 0.27945,-0.53579l-0.06693,0.05849c0.04174,-0.0346 0.08414,-0.06769 0.12713,-0.09942c0.01879,-0.03296 0.0377,-0.06585 0.05673,-0.09866c0.27465,-0.1209 0.53835,-0.26029 0.7977,-0.4076c0.00989,0.00823 0.01982,0.01633 0.02979,0.02432c0.44802,-0.19012 0.91212,-0.34429 1.33976,-0.58192c0.28436,-0.15802 0.55314,-0.35574 0.82456,-0.54865c0.00053,-0.01202 0.00098,-0.02409 0.00134,-0.03619c0.08912,-0.04799 0.17725,-0.10312 0.26391,-0.16944c0.10471,-0.08014 0.19201,-0.17005 0.27134,-0.26377c0.0547,0.00734 0.10939,0.014 0.16404,0.01971c0.08361,-0.04441 0.16871,-0.08528 0.25576,-0.12153c0.27075,-0.11273 0.56903,-0.14886 0.86366,-0.18431c0.22076,-0.02656 0.42911,-0.24375 0.65475,-0.11007c0.54568,0.32327 0.59939,1.02789 0.71502,1.57464c0,0 0.01034,0.05228 0.01213,0.1242c0.19702,0.61456 0.33281,1.25961 0.37305,1.85944c0.01501,0.22372 -0.07239,0.41517 -0.06155,0.63808c0.04592,0.94448 0.25647,1.57615 -0.08089,2.40595c-0.05229,0.12862 -0.14474,0.21951 -0.19007,0.35395c-0.06478,0.19213 -0.02471,0.47423 -0.13725,0.61684c-0.35871,0.45457 -1.21238,0.27772 -1.68045,-0.20583c-0.62511,-0.64577 -0.85485,-2.04338 -0.96675,-2.90187c-0.00829,-0.06361 -0.01893,-0.1287 -0.02987,-0.19424c-0.88039,0.75882 -1.72206,1.55659 -2.49119,2.45008c-0.30216,0.35101 -0.58961,0.75739 -0.86168,1.14826c-0.11424,0.16413 -0.16094,0.4415 -0.33102,0.50654c-0.52266,0.19983 -1.13809,-0.49029 -1.60273,-0.86566c-1.35627,-0.74073 -2.58229,-1.81072 -3.91607,-2.71984c-0.27253,-0.18576 -0.53427,-0.40894 -0.8011,-0.61439c-0.39981,-0.30786 -0.6565,-0.1533 -1.02278,-0.7723c-0.14789,-0.24993 -0.14681,-0.57079 -0.21017,-0.85735c-0.2399,-1.08503 -0.43126,-2.18159 -0.64613,-3.26848c0,0 -0.08302,-0.41997 0.18064,-0.51667l0.01816,-0.10768c0.07551,-0.42429 0.12796,-1.15831 0.57537,-1.20666c0.22176,-0.02396 0.44051,0.31861 0.65291,0.50021c0.37949,0.32445 0.882,0.71639 1.2049,1.1449c0.09538,0.12657 0.12657,0.32285 0.23299,0.43217c0.10643,0.10932 0.2489,0.09256 0.36399,0.181c0.25468,0.1957 0.45118,0.53207 0.70652,0.72567c1.07489,0.81501 2.14322,1.64967 3.0681,2.84469c0.17415,0.17887 0.31149,0.53567 0.51071,0.55803c0.07598,0.00853 0.07485,-0.1515 0.1274,-0.20756c0.15395,-0.16424 0.31736,-0.32251 0.43266,-0.53483c-0.00278,-0.01183 -0.0054,-0.02398 -0.00786,-0.03643zM248.3291,172.29922c-0.65413,0.35828 -1.4155,0.50759 -2.03997,0.9318c-0.08933,0.14812 -0.1759,0.30063 -0.25926,0.45844c-0.1964,0.37177 -0.69297,1.14629 -1.12252,1.09709c-0.31139,-0.03567 -0.81638,-0.60466 -1.08814,-0.8838c-0.57174,-0.73873 -1.12042,-1.22103 -1.77815,-1.73222c-0.25409,-0.19749 -0.45118,-0.53207 -0.70652,-0.72567c-0.13458,-0.10204 -0.28739,-0.12828 -0.42132,-0.23237c-0.25409,-0.19749 -0.45184,-0.52997 -0.70652,-0.72567c-0.15353,-0.11798 -0.33666,-0.13791 -0.47863,-0.28373c-0.14198,-0.14582 -0.2116,-0.38384 -0.33743,-0.55446c-0.17854,-0.24209 -0.88371,-0.62057 -1.09624,-0.99921c-0.01257,0.12097 -0.04506,0.23359 -0.06357,0.35207l-0.0864,0.51237c0,0 -0.00816,0.04837 -0.032,0.10706c0.12702,0.64252 0.25403,1.28505 0.38105,1.92757c0.05799,0.29332 0.12526,0.58644 0.17396,0.87998c0.02221,0.1339 -0.02671,0.28009 0.03834,0.39976c0.15456,0.28432 0.48438,0.23388 0.71217,0.40858c0.24955,0.19139 0.49325,0.40284 0.74805,0.57601c1.33635,0.90824 2.56153,1.9666 3.91607,2.71984c0.28459,0.2271 0.5661,0.46302 0.85038,0.69104c0.04058,0.03255 0.09285,0.11828 0.12447,0.08891c0.05944,-0.05521 0.03419,-0.19952 0.07728,-0.27632c0.35325,-0.62957 0.88033,-1.06065 1.29297,-1.60721c0.09616,-0.12736 0.13277,-0.3283 0.2426,-0.43615c0.10004,-0.09823 0.26157,-0.07426 0.36742,-0.1629c0.68169,-0.57082 1.27991,-1.29544 1.96887,-1.87433l0.31596,-0.26548c0.04555,-0.04049 0.10171,-0.06496 0.16579,-0.06824c0.2107,-0.0108 0.42719,0.21156 0.48355,0.49666c0.01714,0.08671 0.0175,0.16923 0.00377,0.24239l-0.08481,0.50291l-0.00089,-0.00049c0.07558,0.7997 0.18389,1.62126 0.48848,2.36673c0.08145,0.19935 0.6881,0.78033 0.80369,0.48317c0.04477,-0.11509 -0.00127,-0.28647 0.03556,-0.40791c0.12344,-0.40699 0.29279,-0.39272 0.36429,-0.82678c0.07945,-0.48235 -0.11825,-1.02944 -0.14284,-1.51799c-0.01123,-0.22299 0.07452,-0.41474 0.06155,-0.63808c-0.03261,-0.56184 -0.33498,-1.211 -0.35842,-1.77883c-0.00131,-0.00574 -0.00193,-0.00886 -0.00193,-0.00886c-0.01215,-0.06844 -0.02491,-0.13688 -0.03754,-0.20532c-0.18319,0.06225 -0.40112,0.01422 -0.60442,-0.00611c-0.28155,-0.02815 -0.54569,0.0557 -0.82329,0.05313c-0.45808,0.29534 -0.87101,0.6628 -1.34546,0.92266z" fill="#9966ff"/><path d="M246.28125,173.22833c0.62447,-0.42421 1.38627,-0.56967 2.0404,-0.92795c0.47445,-0.25987 0.88768,-0.62627 1.34577,-0.92161c0.2776,0.00257 0.55611,-0.08548 0.83766,-0.05733c0.2033,0.02033 0.42129,0.06855 0.60448,0.00631c0.01263,0.06844 0.02546,0.13713 0.03761,0.20557c0,0 0.00062,0.00312 0.00193,0.00886c0.02343,0.56783 0.32624,1.21914 0.35885,1.78098c0.01297,0.22334 -0.0727,0.41589 -0.06148,0.63888c0.02459,0.48854 0.22229,1.03743 0.14284,1.51979c-0.0715,0.43407 -0.241,0.42096 -0.36443,0.82795c-0.03683,0.12144 0.00911,0.2933 -0.03566,0.40839c-0.11559,0.29716 -0.73747,-0.29356 -0.81893,-0.49291c-0.30459,-0.74546 -0.41318,-1.56385 -0.48875,-2.36355l0.00089,0.00049l0.08487,-0.50206c0.01373,-0.07317 0.01342,-0.1553 -0.00372,-0.242c-0.05636,-0.2851 -0.27272,-0.50666 -0.48342,-0.49585c-0.06408,0.00329 -0.10493,0.02722 -0.15048,0.06771l-0.31588,0.26598c-0.68895,0.57888 -1.28806,1.31021 -1.96976,1.88103c-0.10586,0.08864 -0.26817,0.06588 -0.36821,0.16412c-0.10983,0.10786 -0.14763,0.30992 -0.24378,0.43728c-0.41263,0.54656 -0.94441,0.97843 -1.29767,1.60801c-0.04309,0.0768 -0.01803,0.22106 -0.07747,0.27627c-0.03161,0.02937 -0.08417,-0.05645 -0.12475,-0.089c-0.28428,-0.22802 -0.56785,-0.46498 -0.85244,-0.69208c-1.35454,-0.75324 -2.58474,-1.81903 -3.92109,-2.72727c-0.2548,-0.17318 -0.49873,-0.38556 -0.74828,-0.57695c-0.22779,-0.1747 -0.55772,-0.12481 -0.71227,-0.40913c-0.06505,-0.11967 -0.0162,-0.26635 -0.03841,-0.40024c-0.0487,-0.29353 -0.11608,-0.5877 -0.17406,-0.88103c-0.12702,-0.64252 -0.25399,-1.28713 -0.381,-1.92965c0.02384,-0.05869 0.03201,-0.1072 0.03201,-0.1072l0.08648,-0.51296c0.0185,-0.11848 0.06638,-0.22208 0.07895,-0.34304c0.21253,0.37864 0.91779,0.75672 1.09632,0.99882c0.12582,0.17061 0.19553,0.40814 0.3375,0.55396c0.14198,0.14582 0.32511,0.16568 0.47864,0.28366c0.25468,0.1957 0.45249,0.52748 0.70658,0.72498c0.13392,0.10409 0.28674,0.13018 0.42132,0.23222c0.25534,0.19361 0.45243,0.52697 0.70652,0.72446c0.65772,0.5112 1.20434,0.98668 1.77607,1.72541c0.27177,0.27914 0.77168,0.84346 1.08306,0.87912c0.42955,0.0492 0.91827,-0.72192 1.11466,-1.09369c0.08337,-0.15781 0.16916,-0.30659 0.25849,-0.45471z" data-paper-data="{&quot;noHover&quot;:false,&quot;origItem&quot;:[&quot;Path&quot;,{&quot;applyMatrix&quot;:true,&quot;segments&quot;:[[[443.00711,690.71721],[3.11369,-6.18565],[-2.2584,4.48652]],[[434.82177,703.75356],[2.60664,-4.40676],[0.16107,2.36427]],[[434.71713,710.86786],[-0.4084,-2.35489],[0.29489,1.70038]],[[435.07295,716.01475],[0.5068,-1.66805],[0.66246,-0.00766]],[[437.06015,715.98872],[-0.6622,0.01179],[0,0]],[[437.14603,715.99026],[-0.05569,-0.00154],[5.45612,-0.75779]],[[454.37852,716.04805],[-5.40326,0.66938],[2.14787,-0.26609]],[[460.46649,714.4466],[-2.14367,0.28035],[4.69648,-0.61421]],[[475.09189,713.10498],[-4.58593,1.4915],[4.12686,-1.3422]],[[482.84036,708.60214],[-3.84168,1.73971],[1.1463,-0.51911]],[[486.73408,707.6107],[-1.08151,0.5761],[2.79248,-1.4875]],[[481.70604,701.56821],[1.95157,0.35876],[-7.29763,-1.34152]],[[458.7726,701.39231],[7.70509,-0.70404],[0,0]],[458.77772,701.39905],[[453.99731,702.97091],[0,0],[-0.69482,0.24057]],[[451.67128,703.34763],[0.83979,0],[-2.76142,0]],[[446.67128,700.05949],[0,1.81599],[0,-0.55227]],[[447.24413,698.52983],[-0.36581,0.45693],[0,0]],[[449.63433,695.3861],[0,0],[5.21183,-6.85488]],[[466.63809,675.42537],[-5.13805,6.77932],[0.79786,-1.05273]],[[468.01938,672.01556],[-0.89274,1.01925],[0.98017,-1.11906]],[[472.08213,669.20989],[-1.17395,1.03527],[5.03779,-4.44267]],[[486.85702,655.46676],[-5.86295,4.07605],[0.71521,-0.49723]],[[489.46849,654.34127],[-0.50014,0.60023],[0.26603,-0.31927]],[[488.55479,653.42924],[0.33201,0.29132],[-2.32609,-2.04099]],[[481.51066,647.33898],[2.3175,2.04521],[-7.88843,-10.287]],[[453.50599,618.51294],[9.36575,9.87034],[-1.78576,-1.88197]],[[447.61507,613.10181],[1.95784,1.80644],[-1.78711,-1.64891]],[[443.34724,607.71442],[2.80217,0.83921],[-1.17942,-0.35322]],[[439.49534,608.06155],[1.29479,-0.03632],[-2.83847,0.07962]],[[430.97218,608.06155],[2.84105,0],[-6.22326,0]],[[412.30241,608.06155],[6.22326,0],[-0.55103,0.30239]],[411.29156,608.51514],[[406.42118,610.11659],[0,0],[-1.12691,0.35775]],[[403.07668,611.25284],[1.15365,-0.31126],[3.73508,1.17475]],[[413.19664,618.92113],[-2.40909,-1.11502],[1.69781,0.78581]],[[418.67899,620.86499],[-1.46806,-0.96543],[1.46806,0.96543]],[[421.63486,624.47034],[-1.20673,-1.11101],[2.00171,1.84293]],[[428.94042,629.27468],[-2.01857,-1.83496],[1.06388,0.96711]],[[431.37561,632.47757],[-1.04459,-0.97616],[1.98197,1.85214]],[[438.68117,637.28191],[-2.01857,-1.83496],[5.22497,4.74971]],[[456.16488,649.53206],[-7.36442,-3.63228],[2.81011,1.84801]],[[465.17423,657.32586],[-0.4951,-2.59676],[0.68297,3.58211]],[[455.20681,668.75418],[3.46813,-2.30284],[-1.47217,0.97752]],[[450.93856,671.73959],[1.37628,-1.01203],[-3.76048,6.04374]]],&quot;closed&quot;:true}]}" fill="#ffffff"/></g><g data-paper-data="{&quot;index&quot;:null}"><g><path d="M234.78743,171.26676c-0.09602,-0.23514 0.07369,-0.46177 0.07369,-0.46177l0.00177,-0.00086c0.00884,-0.0466 0.01783,-0.09548 0.02665,-0.14723c0,0 0.08524,-0.47082 0.55605,-0.38558c0.17524,0.03172 0.27344,0.11686 0.32768,0.21127c0.01129,-0.06741 0.01707,-0.14016 0.05752,-0.18902c0.32355,-0.39082 0.71554,-0.48605 1.16765,-0.68337c0.16442,0.0588 0.30872,0.10339 0.44099,0.14919c-0.16502,-0.16962 -0.3447,-0.32313 -0.54962,-0.47658c-0.19993,-0.14972 -0.35971,-0.47861 -0.6065,-0.44007c-0.12071,0.01885 -0.19419,0.15314 -0.30681,0.20049c-0.47791,0.2009 -0.93555,0.35464 -1.40624,0.58686c-0.28341,0.22473 -0.64545,0.32663 -0.96891,0.48847c-0.15307,0.07658 -0.24625,0.24966 -0.40321,0.31794c-0.1511,0.06573 -0.33671,0.00811 -0.48931,0.07028c-0.45887,0.18696 -0.99029,0.82824 -1.38046,1.14575c-0.84777,0.68988 -1.61792,1.41444 -2.19197,2.36192c-0.20572,0.33955 -0.18811,0.69008 -0.27362,1.07889c-0.2134,0.97029 -0.29088,2.01546 -0.28898,3.01776c0.00028,0.36584 -0.05599,0.73538 -0.00398,1.0975c0.1159,0.80693 0.52007,1.47093 0.94416,2.12796c0.17296,0.09709 0.23181,0.29829 0.23181,0.29829c0.01072,0.03713 0.02179,0.07459 0.0332,0.11234c0.0505,0.07921 0.10047,0.15872 0.14947,0.23878l0.0648,0.00578c0,0 0.36887,0.27622 0.11152,0.6485c0.12726,0.29142 0.27438,0.5723 0.44103,0.81655c0.20148,0.29531 0.53795,0.47119 0.79869,0.71576c0.25617,0.24028 0.52633,0.74733 0.94188,0.77841c0.19124,0.0143 0.37733,0.01664 0.55762,0.00661c-0.00238,-0.06349 0.00558,-0.10746 0.00558,-0.10746c0.28294,-1.51962 1.19632,-2.94117 2.3093,-4.04326c-0.09529,-0.32299 -0.09039,-0.67442 -0.21382,-0.98788c-0.3114,-0.79085 -0.74818,-1.84041 -0.63704,-2.72886c0.02608,-0.2085 0.48938,-1.17315 0.61865,-1.24552c0.21825,-0.1222 0.49953,0.04158 0.74957,0.03503c0.7946,-0.02084 1.94086,-0.14852 2.64404,-0.50825c0.77307,-0.62657 0.90245,-1.54002 0.7235,-2.467c-0.0445,0.4559 -0.17723,0.89092 -0.40537,1.25252c-0.13897,0.22028 -0.26339,0.47655 -0.48594,0.61185c-1.53692,0.93448 -2.35172,-1.25215 -2.90655,-2.2569c-0.11342,-0.20538 -0.27874,-0.38508 -0.35839,-0.60576c-0.09466,-0.26227 -0.11463,-0.45098 -0.10013,-0.6393zM236.64302,173.04965c0.17113,0.3067 0.39097,0.86875 0.76292,1.01862c0.3718,0.14982 0.67903,-1.05727 0.6953,-1.25058c0.0747,-0.88729 -0.34613,-1.7795 -1.0709,-2.25108c-0.25204,0.17819 -0.94198,0.9463 -1.07826,0.98648c-0.03302,0.00974 -0.06608,0.01449 -0.09918,0.01525c0.13493,0.51701 0.49648,0.95504 0.79013,1.4813zM238.01016,181.36214c0.2143,0.42779 -0.21349,0.64209 -0.21349,0.64209l-0.06425,-0.02431c-0.34081,0.44986 -0.37392,0.57705 -0.8451,0.88461c-0.12937,0.08444 -0.30074,0.09892 -0.41873,0.19864c-0.02165,0.0183 -0.04313,0.03731 -0.06444,0.05698c-0.01103,0.08104 -0.02421,0.16368 -0.03964,0.24817c-0.46977,1.11422 -1.30224,2.10454 -2.50457,2.46604c-0.36831,0.11074 -0.76931,0.00886 -1.15378,-0.00076c-0.39156,-0.00979 -0.8201,0.01325 -1.16134,-0.17904c-0.34017,-0.19168 -0.57836,-0.52478 -0.86314,-0.7919c-0.30866,-0.28952 -0.68388,-0.52112 -0.92694,-0.86755c-0.37074,-0.52841 -0.65141,-1.21839 -0.85273,-1.84889c-0.5533,-0.87935 -1.12484,-1.72583 -1.27936,-2.80163c-0.00628,-0.04371 -0.00568,-1.15086 -0.00574,-1.23282c0.00031,-1.07325 0.08403,-2.18709 0.31218,-3.22794c0.13536,-0.61754 0.07665,-0.82405 0.37703,-1.34513c0.60715,-1.05324 1.48917,-1.87237 2.41829,-2.62846c0.47779,-0.3888 1.04136,-1.02654 1.60051,-1.28004c0.15008,-0.06804 0.33802,-0.00498 0.48931,-0.07028c0.13694,-0.0591 0.20871,-0.22163 0.34203,-0.28851c0.29772,-0.14934 0.63949,-0.23096 0.89464,-0.44507c0.53168,-0.26967 1.019,-0.47173 1.57561,-0.67377c0.21285,-0.07726 0.39854,-0.26334 0.62497,-0.26628c0.75058,-0.00974 1.63626,0.90796 2.06584,1.43331c0.48643,0.59488 0.81119,1.24486 1.15332,1.92782c0.05496,0.10972 0.48899,0.96827 0.50456,1.03579c0.18225,0.79038 0.11219,2.16289 -0.2347,2.91152c-0.23082,0.49814 -0.50698,0.65904 -0.90075,0.98028c-0.69928,0.34584 -1.36064,0.40612 -2.12551,0.51598c-0.07609,0.01093 -1.0209,0.14843 -1.05537,0.14534c-0.10436,-0.00937 -0.17377,-0.17402 -0.27591,-0.15063c-0.06804,0.01558 0.04313,0.13977 0.02691,0.20765c-0.02736,0.11448 -0.13829,0.2016 -0.15262,0.31843c-0.04238,0.34528 0.12912,0.96331 0.20385,1.30565c0.0727,0.33301 0.25313,0.63299 0.37464,0.95145c0.06806,0.17836 0.10114,0.36705 0.13279,0.55632l0.0414,-0.06297c0,0 0.28679,-0.38299 0.66978,-0.0962c0.38299,0.28679 0.0962,0.66978 0.0962,0.66978l-0.29051,0.36412c-0.08025,0.0653 -0.16025,0.1327 -0.23975,0.20208c0.07624,0.28262 0.13425,0.55391 0.16832,0.82856c0.17997,-0.11751 0.34587,-0.2444 0.55247,-0.52427l0.40163,-0.25769c0,0 0.42779,-0.2143 0.64209,0.21349zM234.38195,184.27459c0.35343,-0.47198 0.7061,-1.09198 1.11456,-1.57624c0.01934,-0.28859 -0.00044,-0.55208 -0.04628,-0.81259c-0.74162,0.82583 -1.35369,1.81634 -1.6026,2.8618c0.15187,-0.05965 0.29691,-0.13194 0.43451,-0.21722c0.01763,-0.146 0.09981,-0.25575 0.09981,-0.25575z" fill="#9966ff"/><path d="M234.37857,184.28354c0,0 -0.08221,0.10975 -0.09983,0.25574c-0.1376,0.08528 -0.28438,0.1567 -0.43624,0.21635c0.24892,-1.04546 0.87033,-2.05264 1.61195,-2.87847c0.04584,0.26051 0.06863,0.52632 0.04929,0.81491c-0.40846,0.48426 -0.77172,1.11949 -1.12516,1.59147z" data-paper-data="{&quot;noHover&quot;:false,&quot;origItem&quot;:[&quot;Path&quot;,{&quot;applyMatrix&quot;:true,&quot;segments&quot;:[[[229.42361,238.13379],[0,3.08092],[0,0]],[[229.80713,236.75155],[-0.38352,0.66581],[-0.30843,-0.78763]],[[228.67013,234.48225],[0.44835,0.72509],[-2.23314,5.15208]],[[226.41012,251.47048],[-0.51539,-5.77655],[1.00762,-0.94598]],[[229.1486,248.21684],[-0.82294,1.26755],[-0.1917,-3.30457]]],&quot;closed&quot;:true}]}" fill="#ffffff"/><path d="M236.63793,173.05775c-0.29365,-0.52627 -0.65851,-0.97696 -0.79344,-1.49397c0.0331,-0.00076 0.06637,-0.00589 0.09939,-0.01562c0.13628,-0.04018 0.83382,-0.81291 1.08586,-0.99109c0.72477,0.47159 1.1545,1.37809 1.07981,2.26538c-0.01627,0.1933 -0.33039,1.40511 -0.70219,1.25529c-0.37194,-0.14988 -0.59829,-0.71328 -0.76943,-1.01999z" data-paper-data="{&quot;noHover&quot;:false,&quot;origItem&quot;:[&quot;Path&quot;,{&quot;applyMatrix&quot;:true,&quot;segments&quot;:[[[195.78166,295.88295],[2.18352,-1.73976],[0.13606,0.10686]],[[196.14871,296.25737],[-0.1076,-0.14412],[0.44415,0.59487]],[[197.56891,303.76015],[-0.49609,-1.53462],[4.50823,0.29752]],[[209.09788,297.69916],[-2.46644,3.94494],[0.53733,-0.85942]],[[210.10648,290.29121],[2.02423,0.53783],[-2.025,-0.53804]],[[203.72549,292.16214],[1.67631,-0.74678],[-2.87635,1.28139]]],&quot;closed&quot;:true}]}" fill="#ffffff"/><path d="M234.85864,170.81423c0,0 -0.16465,0.20817 -0.06864,0.44331c-0.0145,0.18832 0.00601,0.3772 0.10066,0.63947c0.07965,0.22068 0.24612,0.40086 0.35953,0.60623c0.55484,1.00475 1.37453,3.19712 2.91145,2.26265c0.22254,-0.13531 0.32893,-0.38521 0.46791,-0.60549c0.22814,-0.3616 0.378,-0.80503 0.4225,-1.26093c0.17895,0.92699 0.05077,1.84364 -0.72231,2.47021c-0.70317,0.35973 -1.86831,0.49058 -2.66291,0.51142c-0.25004,0.00656 -0.51261,-0.16113 -0.73086,-0.03894c-0.12927,0.07238 -0.59484,1.04597 -0.62092,1.25447c-0.11114,0.88845 0.32244,1.94027 0.63384,2.73112c0.12343,0.31346 0.11817,0.66503 0.21346,0.98802c-1.11298,1.10209 -2.03042,2.52425 -2.31335,4.04388c0,0 -0.00796,0.04397 -0.00558,0.10746c-0.18029,0.01002 -0.36698,0.00763 -0.55822,-0.00667c-0.41555,-0.03108 -0.6869,-0.53835 -0.94307,-0.77864c-0.26074,-0.24457 -0.59833,-0.42082 -0.79981,-0.71613c-0.16665,-0.24425 -0.31464,-0.52552 -0.44189,-0.81694c0.25735,-0.37229 -0.11202,-0.64878 -0.11202,-0.64878l-0.06488,-0.00582c-0.049,-0.08005 -0.09928,-0.15976 -0.14978,-0.23897c-0.01142,-0.03774 -0.0226,-0.07528 -0.03332,-0.11241c0,0 -0.05928,-0.20151 -0.23224,-0.2986c-0.42409,-0.65702 -0.83061,-1.32363 -0.94651,-2.13055c-0.05201,-0.36212 0.00348,-0.73322 0.00321,-1.09905c-0.0019,-1.00231 0.07522,-2.05329 0.28862,-3.02357c0.08551,-0.38881 0.0687,-0.74142 0.27442,-1.08097c0.57404,-0.94747 1.34874,-1.67633 2.19651,-2.36621c0.39018,-0.31751 0.92438,-0.95956 1.38326,-1.14652c0.1526,-0.06217 0.33902,-0.00462 0.49012,-0.07034c0.15696,-0.06827 0.25078,-0.24135 0.40385,-0.31794c0.32347,-0.16183 0.68686,-0.2636 0.97027,-0.48833c0.4707,-0.23222 0.9299,-0.38554 1.4078,-0.58645c0.11262,-0.04735 0.18635,-0.18155 0.30706,-0.2004c0.24679,-0.03854 0.40738,0.29072 0.60731,0.44044c0.20492,0.15345 0.38537,0.30739 0.55039,0.47701c-0.13227,-0.0458 -0.28619,-0.07386 -0.45062,-0.13266c-0.45211,0.19733 -0.84316,0.293 -1.16671,0.68382c-0.04045,0.04885 -0.04626,0.12159 -0.05755,0.18901c-0.05424,-0.0944 -0.1519,-0.17934 -0.32714,-0.21106c-0.47081,-0.08524 -0.55541,0.38578 -0.55541,0.38578c-0.00882,0.05175 -0.01286,0.08214 -0.0217,0.12874l-0.00675,0.01934z" data-paper-data="{&quot;noHover&quot;:false,&quot;origItem&quot;:[&quot;Path&quot;,{&quot;applyMatrix&quot;:true,&quot;segments&quot;:[[[190.38099,293.80742],[-1.13798,0.68273],[0.52916,-0.83304]],[[192.80197,291.44721],[-1.21727,0.80044],[1.02425,-0.67352]],[[196.19804,290.03612],[-1.11755,0.50378],[5.46726,-2.4646]],[[215.42261,289.69976],[-3.50135,-8.72173],[0.50699,1.26288]],[[215.53874,293.78066],[0.10863,-1.35651],[-0.17833,2.22686]],[[213.31142,300.28874],[1.2417,-2.04611],[3.65162,-3.31658]],[[218.01175,287.70492],[1.27098,5.04171],[-1.81432,-3.70677]],[[208.54514,277.29851],[3.25808,2.57572],[-1.02525,-0.81052]],[[205.30045,275.09746],[0.53011,1.1946],[-0.31398,-0.70756]],[[206.61382,267.95069],[-0.54391,0.95371],[2.31767,-4.06389]],[[217.82454,258.53265],[-3.77924,2.33236],[1.49792,-0.92444]],[[221.81269,255.0706],[-1.4101,1.05246],[-1.20333,-8.09506]],[[224.81717,230.92779],[-3.57588,7.24175],[0,0]],[[225.13039,230.46087],[-0.20881,0.2581],[-0.72267,-0.60656]],[[222.7775,228.74215],[0.84463,0.53911],[-1.83533,-1.17146]],[[216.40035,229.04792],[1.82394,-0.20266],[-1.85649,0.20628]],[[210.81826,229.54013],[1.76754,-0.60407],[-1.46196,0.49963]],[[206.41638,231.57401],[1.44491,-0.8203],[-0.08961,2.36301]],[203.91895,233.93703],[[203.62983,233.75822],[0,0],[-0.45565,0.18138]],[[202.25687,234.28877],[0.45926,-0.17313],[-0.16597,0.12209]],[[201.76617,234.65462],[0.1611,-0.12173],[0,0]],[[199.86246,235.17619],[1.02748,0.1356],[-3.8314,1.41973]],[[189.2492,241.11915],[3.01191,-3.01191],[-1.35163,1.35163]],[[185.82865,245.72176],[1.14689,-1.52919],[-3.14701,4.18607]],[[177.58609,259.24823],[2.14627,-4.72643],[-0.86006,1.89398]],[[175.35157,264.61752],[0.20301,-2.06444],[-0.56647,5.76048]],[[177.12205,281.36084],[-1.3851,-5.5404],[0.63748,2.54991]],[[179.30738,290.47618],[-1.33366,-2.21907],[0.44351,0.73795]],[[181.13377,292.30257],[-0.42613,-0.74812],[0.44263,0.77709]],[[181.82441,294.89508],[-0.40035,-0.79969],[0.84602,1.6899]],[[184.34697,299.97252],[-0.48149,-1.82748],[1.24137,2.44537]],[[188.39046,306.83112],[-1.36958,-2.33698],[0.32275,0.55073]],[[189.04575,308.63053],[-0.44581,-0.45687],[0.91147,0.93408]],[[192.9606,308.68943],[-1.3051,0],[1.33766,0]],[[196.75189,308.41752],[-1.22139,0.19258],[-0.69664,-0.22271]],[[194.44027,307.66036],[0.87184,0.26904],[-1.27289,-2.24123]],[[191.69693,301.14534],[0.1292,2.64786],[-0.01615,-0.33102]],[[192.04832,300.17464],[-0.1639,0.31733],[-0.5225,0.22494]],[[190.01618,300.03196],[0.83227,0.41613],[-2.23607,-1.11803]],[[188.89814,296.67786],[0,0],[0.12519,-0.24404]],[[189.24776,295.97865],[-0.10898,0.2226],[0,0]],[189.24301,295.9695]],&quot;closed&quot;:true}]}" fill="#ffffff"/></g><path d="M229.1465,180.91958c-0.28539,-0.42211 -0.71509,-0.89124 -1.16174,-0.58576c0,0 -0.06125,0.03068 -0.149,0.04565c-0.31203,0.82124 -0.0787,1.67204 0.18661,2.58493c0.17725,0.60991 0.40726,1.2743 0.89071,1.71484c0.50963,0.46439 1.26621,0.75466 1.92626,0.90972c0.11847,0.02783 0.25318,0.09004 0.37928,0.11699c-0.03013,-0.02256 -0.04898,-0.03668 -0.04898,-0.03668l0.00593,-0.00792c-0.01701,-0.0097 -0.03388,-0.01968 -0.05057,-0.02999c-0.27023,-0.16678 -0.50198,-0.70836 -0.63296,-0.96929c-0.3348,-0.66698 -0.45804,-1.38642 -0.79386,-2.05008l0.04773,0.09885c0,0 -0.38299,-0.28679 -0.0962,-0.66978c0.01218,-0.01626 0.02453,-0.03132 0.03702,-0.04524c-0.16564,-0.3651 -0.29718,-0.71677 -0.54022,-1.07624zM232.34493,185.20934c0.00918,0.00619 0.01842,0.01276 0.02772,0.01972c0.38299,0.28679 0.0962,0.66978 0.0962,0.66978c-0.1627,0.19702 -0.26822,0.46091 -0.4881,0.59106c-0.40614,0.24041 -0.93482,0.12575 -1.35087,0.0328c-0.81765,-0.18268 -1.73905,-0.56239 -2.36307,-1.13771c-0.61876,-0.57048 -0.93105,-1.36396 -1.1629,-2.15194c-0.42602,-1.44795 -0.64273,-2.7507 0.30654,-4.03328l0.20952,-0.2798c0,0 0.28679,-0.38299 0.66978,-0.0962c0.16832,0.12604 0.20727,0.27067 0.19806,0.39319c0.78706,0.15461 1.31758,1.05656 1.68949,1.63962c0.09374,0.14697 0.24645,0.25411 0.32492,0.40976c0.08742,0.1734 0.07865,0.38451 0.16355,0.55916c0.13383,0.27531 0.41963,0.45034 0.58475,0.7081c0.47275,0.73804 0.94284,1.6865 1.07557,2.54454z" fill="#9966ff"/><path d="M229.14493,180.91014c0.24305,0.35947 0.37775,0.71115 0.54339,1.07625c-0.01249,0.01392 -0.0251,0.02893 -0.03728,0.0452c-0.28679,0.38299 0.10017,0.6713 0.10017,0.6713l-0.04934,-0.09971c0.33582,0.66366 0.4604,1.40005 0.7952,2.06703c0.13098,0.26093 0.35257,0.7863 0.62279,0.95308c0.0167,0.01031 0.0335,0.02034 0.0505,0.03004l-0.00591,0.0079c0,0 0.02925,0.03019 0.05938,0.05275c-0.1261,-0.02695 -0.26155,-0.08872 -0.38002,-0.11655c-0.66005,-0.15507 -1.42442,-0.4448 -1.93405,-0.90919c-0.48345,-0.44053 -0.7197,-1.11461 -0.89695,-1.72452c-0.26531,-0.91289 -0.49414,-1.77112 -0.1821,-2.59237c0.08775,-0.01497 0.14939,-0.04588 0.14939,-0.04588c0.44665,-0.30549 0.87942,0.16258 1.16482,0.58469z" data-paper-data="{&quot;noHover&quot;:false,&quot;origItem&quot;:[&quot;Path&quot;,{&quot;applyMatrix&quot;:true,&quot;segments&quot;:[[[202.64968,232.95977],[-1.83618,1.00821],[-0.00863,-0.09734]],[[202.63654,232.65462],[0,0.10616],[0,-2.5]],[205.13654,230.15462],[[204.6273,230.41855],[0,0],[3.48302,-1.72394]],[[214.36806,224.33058],[-3.48915,1.74103],[1.36499,-0.68111]],[[220.05101,222.25899],[-1.65251,-0.14875],[0.10214,0.00919]],[[220.35647,222.29193],[-0.10151,-0.01272],[0,0]],[220.35647,222.24026],[[220.67621,222.24026],[-0.19666,0],[-0.6118,-0.28223]],[[218.72353,221.54169],[0.58266,0.25463],[-3.24624,-1.41863]],[[207.81807,219.31373],[3.58586,-0.34619],[-3.40165,0.32841]],[[198.72218,223.69627],[2.65148,-1.99575],[-3.96864,2.98718]],[[189.84611,233.92301],[1.26696,-4.41198],[0.32012,0.33743]],[[190.32629,234.58057],[0,0],[0.91132,2.67651]],[[197.01964,235.76911],[-2.5156,0.87161],[2.14232,-0.74228]]],&quot;closed&quot;:true}]}" fill="#ffffff"/></g><g data-paper-data="{&quot;index&quot;:null}"><path d="M248.60481,179.19476c0.29931,-0.17771 0.43737,-0.33036 0.52556,-0.60325c-0.17493,0.00714 -0.30447,-0.0984 -0.30447,-0.0984c-0.52443,-0.44511 -0.62627,-0.39278 -1.29534,-0.0596c-0.21341,0.10627 -0.52097,0.12939 -0.63594,0.3273c-0.11294,0.19443 0.17064,0.37852 0.22675,0.57855c0.02169,0.07734 -0.08804,0.19296 -0.027,0.24666c0.06129,0.05391 0.17756,-0.02894 0.26647,-0.036c0.46954,-0.03725 0.81744,-0.10201 1.24396,-0.35525zM248.96281,177.46044c0.08259,0.0405 0.15478,0.09428 0.22334,0.15269c0.16502,-0.0111 0.29349,0.07563 0.29349,0.07563l0.49794,0.39278c-0.00316,0.64617 0.12383,0.80157 -0.36841,1.36348c-0.60528,0.69095 -2.38401,1.34814 -3.1649,0.76641c-0.15936,-0.11871 -0.10715,-0.37536 -0.17833,-0.55623c-0.05032,-0.12787 -0.10884,-0.23362 -0.15998,-0.33305c-0.02871,0.02424 -0.05753,0.04757 -0.0864,0.06992c-0.16189,0.1254 -0.30117,0.29494 -0.49387,0.36648c-0.62733,0.23291 -1.2031,0.00353 -1.74161,-0.14033c-0.47023,-0.12562 -1.01868,-0.12034 -1.48934,-0.24639c-0.26632,-0.07132 -0.8101,-0.2943 -1.07642,-0.36562c-0.8692,-0.37261 -1.76386,-0.60848 -2.5798,-1.08418c-0.17851,-0.10407 -0.37962,-0.39524 -0.56562,-0.26793c-0.21808,0.14926 -0.24018,0.44697 -0.37989,0.66138c-0.29903,0.45891 -0.64132,0.91221 -0.95319,1.3623c-0.44656,0.64446 -1.01131,1.23411 -1.5776,1.80892l-0.05538,0.2316c-0.45855,0.53192 -1.01007,0.90043 -1.74857,1.00602c-0.26294,0.03759 -0.57337,0.1062 -0.78365,-0.02103c-0.24524,-0.14839 -0.31566,-0.46062 -0.43018,-0.71344c-0.32401,-0.71526 -0.3846,-1.60094 -0.11712,-2.39615c-0.03875,-0.02142 -0.07712,-0.05137 -0.11404,-0.09199c-0.27367,-0.30107 0.07931,-0.58618 0.07931,-0.58618c0.82894,-0.66142 1.22908,-1.50661 1.76872,-2.35114c0.48028,-0.75164 1.01484,-1.47923 1.53706,-2.20838c0.20849,-0.2911 0.45523,-0.56001 0.65657,-0.85501c0.12842,-0.18815 0.13145,-0.48317 0.3438,-0.58451c0.26909,-0.12842 0.58447,-0.02339 0.87,0.00522c0.71196,0.07135 1.54854,0.49278 2.1865,0.74217c2.07414,1.03291 4.19505,1.79484 6.46925,2.41307c0.14194,-0.03788 0.2704,-0.00348 0.2704,-0.00348l0.14336,0.03839c0.19235,0.06275 0.43361,0.05828 0.57706,0.18824c0.41265,0.37383 0.47189,0.89728 0.33246,1.42236c0.00781,-0.00384 0.0155,-0.00764 0.02304,-0.01139c0.62603,-0.31175 1.14576,-0.56753 1.79201,-0.2506zM233.30565,178.77201c0.05732,0.19158 -0.09838,0.37917 -0.09838,0.37917c-0.64329,0.7375 -0.45769,1.70204 -0.22179,2.48373c0.03419,0.11327 0.01001,0.25883 0.09549,0.34218c0.0426,0.04154 0.12511,-0.04456 0.188,-0.06576c0.21403,-0.07217 0.38785,-0.12306 0.54117,-0.18635c0.0378,-0.06889 0.0806,-0.11312 0.0806,-0.11312c0.17035,-0.17602 0.33623,-0.35209 0.49845,-0.52863c0.03054,-0.05643 0.07643,-0.11465 0.1453,-0.15931c0.73201,-0.80861 1.39276,-1.62948 2.06036,-2.50154c0.29292,-0.38263 0.64396,-1.27364 1.11827,-1.49075c0.25147,-0.11511 0.55248,-0.11293 0.81149,-0.0645c0.10154,0.01899 0.98482,0.54346 1.12847,0.61509c0.62267,0.31051 1.30757,0.46885 1.94718,0.74304c0.30635,0.08204 0.71187,0.26577 1.01822,0.34781c0.47002,0.12588 1.01889,0.12008 1.48934,0.24639c0.33176,0.08907 0.74615,0.32133 1.14945,0.17651c0.09439,-0.03389 0.13952,-0.14097 0.21495,-0.20605c0.40258,-0.34734 1.27456,-1.54776 0.61922,-1.8313l-0.41988,-0.03683c-2.37993,-0.63737 -4.60149,-1.42382 -6.76399,-2.50283c-0.53819,-0.21086 -1.08702,-0.39031 -1.63172,-0.58534c-0.11934,-0.04273 -0.25401,-0.0523 -0.37106,-0.09937c-0.07194,-0.02893 -0.11905,-0.17077 -0.18926,-0.12599c-0.07508,0.04788 0.04752,0.16481 0.00931,0.24075c-0.23589,0.46892 -0.74911,0.98937 -1.06368,1.42879c-0.80442,1.12369 -1.42726,2.43369 -2.35551,3.49422z" fill="#9966ff"/><path d="M249.13923,178.58965c-0.08819,0.27289 -0.22789,0.4316 -0.5272,0.60931c-0.42653,0.25324 -0.78752,0.32056 -1.25705,0.35781c-0.08891,0.00705 -0.20623,0.08901 -0.26752,0.0351c-0.06104,-0.0537 0.04773,-0.17054 0.02604,-0.24789c-0.05611,-0.20004 -0.34062,-0.38933 -0.22768,-0.58376c0.11496,-0.19792 0.42518,-0.22587 0.6386,-0.33215c0.66907,-0.33318 0.78552,-0.38349 1.30995,0.06161c0,0 0.12993,0.10709 0.30486,0.09995z" data-paper-data="{&quot;noHover&quot;:false,&quot;origItem&quot;:[&quot;Path&quot;,{&quot;applyMatrix&quot;:true,&quot;segments&quot;:[[[428.29653,249.70232],[2.53963,2.48528],[-0.88695,1.97961]],[[425.52357,252.53569],[0,0],[-7.83313,3.35814]],[[417.70827,266.57322],[0,-9.26089],[0,2.95396]],[[417.82607,275.4341],[-1.56019,-2.36818],[1.5327,2.32645]],[[425.49513,276.11458],[-2.5285,-0.4825],[0.97762,0.18656]],[[428.08169,277.77625],[-0.93268,0.38046],[0.93648,-0.38202]],[[429.15412,274.62198],[-0.41283,1.02512],[2.18006,-5.41338]],[[432.08448,258.86309],[0.45298,6.12931],[-0.31787,-4.30112]]],&quot;closed&quot;:true}]}" fill="#ffffff"/><path d="M233.19858,179.15387c0,0 0.15558,-0.18813 0.09825,-0.37971c0.92826,-1.06053 1.55325,-2.37758 2.35768,-3.50127c0.31457,-0.43942 0.83068,-0.96211 1.06656,-1.43103c0.0382,-0.07594 -0.08422,-0.19296 -0.00914,-0.24084c0.07021,-0.04478 0.11752,0.09696 0.18946,0.12589c0.11705,0.04708 0.25228,0.0564 0.37162,0.09913c0.54469,0.19502 1.09709,0.37375 1.63528,0.58461c2.1625,1.07902 4.39227,1.87306 6.77219,2.51042l0.41987,0.03691c0.65533,0.28354 -0.21704,1.48622 -0.61962,1.83356c-0.07543,0.06508 -0.12066,0.17246 -0.21505,0.20635c-0.4033,0.14481 -0.81775,-0.08731 -1.1495,-0.17639c-0.47044,-0.12631 -1.01941,-0.12028 -1.48943,-0.24616c-0.30634,-0.08204 -0.72853,-0.2702 -1.03488,-0.35224c-0.63961,-0.27419 -1.32503,-0.43049 -1.9477,-0.74101c-0.14365,-0.07163 -1.01653,-0.58801 -1.11807,-0.607c-0.25901,-0.04844 -0.55432,-0.0544 -0.8058,0.06071c-0.47431,0.21711 -0.82429,1.10007 -1.11721,1.4827c-0.6676,0.87206 -1.3297,1.69094 -2.0617,2.49955c-0.06887,0.04466 -0.11479,0.10284 -0.14533,0.15928c-0.16222,0.17654 -0.32818,0.35253 -0.49853,0.52855c0,0 -0.05642,0.05617 -0.09422,0.12506c-0.15332,0.06329 -0.32734,0.11398 -0.54137,0.18615c-0.06288,0.0212 -0.14545,0.10724 -0.18805,0.0657c-0.08547,-0.08334 -0.06157,-0.22922 -0.09576,-0.3425c-0.23591,-0.78169 -0.42288,-1.74894 0.22042,-2.48644z" data-paper-data="{&quot;noHover&quot;:false,&quot;origItem&quot;:[&quot;Path&quot;,{&quot;applyMatrix&quot;:true,&quot;segments&quot;:[[[657.04642,381.49437],[0,0],[4.62661,9.90368]],[[683.36858,395.78934],[-9.97259,-1.50293],[1.44514,0.21779]],[[687.69104,396.5235],[-1.39648,0.43093],[0.69604,-0.21479]],[[687.99997,394.36016],[-0.11213,0.71975],[0.38164,-2.4498]],[[688.92201,388.14704],[-0.14482,1.81148],[-0.55534,-0.70664]],[[688.1125,386.80499],[0,0],[-1.0114,-2.52849]],[[685.00235,379.34017],[1.06204,2.45139],[-0.45725,-0.5747]],[[684.03792,377.13874],[0.11497,0.89292],[-4.92546,-11.1202]],[[667.67276,344.73829],[5.98483,10.79863],[-2.62594,-4.73807]],[[657.31503,326.50353],[-0.21166,5.70793],[0.11222,-3.02632]],[[661.08161,318.2359],[-1.96776,2.30198],[0.77141,-0.90243]],[[674.13622,310.17835],[-1.58787,1.05821],[6.8829,-4.587]],[[693.13166,294.7216],[-6.57368,4.93026],[2.60189,-2.60189]],[[702.61288,286.44017],[-2.60189,2.60189],[3.99202,-3.99202]],[[713.57123,273.04664],[-3.99918,3.99409],[2.82019,-2.8166]],[[721.87737,262.64306],[-0.6213,4.65927],[0.1454,-1.09041]],[[720.77921,259.53094],[0.30521,1.05687],[-1.6289,-5.64052]],[[703.88827,244.52507],[6.76412,-5.03876],[0,0]],[[701.16079,248.46027],[0,0],[-20.21351,20.21351]],[[636.04404,302.53496],[23.91098,-15.92721],[-5.31112,4.24538]],[[620.54007,315.66967],[5.17134,-4.38641],[-1.13297,0.961]],[[617.38854,318.82119],[1.16859,-0.91735],[-0.71824,0.56382]],[[614.94591,320.06111],[-0.10883,-0.9066],[0.11639,0.9695]],[[617.66749,321.14479],[-0.63125,-0.74498],[3.89793,4.60022]],[[627.63949,338.54218],[-3.13622,-5.22739],[8.01997,13.36755]],[[653.38438,378.67981],[-6.6356,-14.27295],[2.44136,0.3732]]],&quot;closed&quot;:true}]}" fill="#ffffff"/></g></g></g></svg>