<svg version="1.1" xmlns="http://www.w3.org/2000/svg" xmlns:xlink="http://www.w3.org/1999/xlink" width="95.2296" height="153.63228" viewBox="0,0,95.2296,153.63228"><g transform="translate(-194.92499,-103.67486)"><g data-paper-data="{&quot;isPaintingLayer&quot;:true}" fill-rule="nonzero" stroke="none" stroke-width="0.5" stroke-linecap="butt" stroke-linejoin="miter" stroke-miterlimit="10" stroke-dasharray="" stroke-dashoffset="0" style="mix-blend-mode: normal"><g data-paper-data="{&quot;index&quot;:null}"><g data-paper-data="{&quot;index&quot;:null}"><path d="M199.19663,205.76201c0.03513,1.79923 0.36907,2.80953 1.37094,3.90248c0.41433,-0.80472 1.21945,-1.11776 1.21945,-1.11776c3.33959,-1.22188 3.36425,-1.81331 3.5738,-5.67178c0.06683,-1.23074 0.74787,-2.67249 0.15142,-3.69447c-0.58595,-1.00398 -2.13728,-0.1988 -3.17986,-0.45704c-0.40309,-0.09984 -0.64287,-0.88827 -1.04006,-0.75085c-0.39882,0.13797 -0.32299,0.87216 -0.5182,1.28991c-1.03079,2.20613 -1.62752,3.93555 -1.57749,6.49951zM206.08053,211.79771c-0.39286,0.26793 -0.81888,0.45528 -1.25647,0.61441c-0.37124,0.77027 -1.08905,1.12651 -1.08905,1.12651l-3.03671,1.23633c-2.89715,-1.66329 -3.91992,-1.48894 -5.19003,-5.13608c-1.56179,-4.48473 0.02298,-14.15911 4.63132,-16.18535c0.94043,-0.4135 1.96108,0.47619 2.95598,0.61778c0.70331,0.10008 1.32812,0.10685 1.90568,0.1307c-0.03568,-0.19094 -0.06702,-0.38004 -0.09387,-0.56685c-0.15064,-1.04792 -0.55745,-2.10675 -0.38731,-3.15574c0.55383,-3.41488 3.0545,-5.41813 5.07565,-7.47215c1.76486,-1.79357 3.14081,-4.27286 4.90868,-6.06727c1.00036,-1.01538 3.3906,-2.89112 4.39097,-3.90651c3.89354,-2.95699 7.23723,-6.37746 11.45834,-8.83185c0.92351,-0.53696 2.74586,-0.6981 2.64816,-1.85925c-0.11453,-1.36144 -1.39663,-2.22054 -2.00405,-3.39589c-1.3001,-2.51561 -2.46462,-5.21141 -3.69226,-7.76226c-1.75781,-3.65244 -2.96765,-7.69642 -4.10675,-11.70944l-0.89994,-0.84003c-1.22127,-3.41917 -1.47056,-6.83925 -0.06057,-10.42901c0.50202,-1.27812 0.98581,-2.84893 2.09453,-3.46964c1.29305,-0.7239 2.87657,-0.24367 4.30547,-0.11336c4.04271,0.36865 8.17936,2.35658 11.07202,5.58861c0.1952,-0.11955 0.42777,-0.21562 0.70463,-0.27794c2.05206,-0.46204 2.43311,1.85258 2.43311,1.85258c0.85826,5.41493 3.63699,9.37092 6.05681,13.95246c2.15364,4.0776 4.06066,8.33781 6.0062,12.54664c0.77673,1.68027 1.35603,3.4759 2.16854,5.13399c0.51822,1.05756 1.83685,1.82411 1.75056,3.03742c-0.10934,1.53757 -1.38644,2.68749 -2.24377,3.89821c-2.13778,3.01888 -6.16758,5.70461 -8.91692,7.93645c-9.93734,6.68927 -18.77576,14.28039 -27.35926,22.92743c-0.19194,0.73485 -0.67444,1.22459 -0.67444,1.22459l-0.53848,0.54656c-0.77301,0.70468 -1.36865,1.80074 -2.31903,2.11405c-2.73386,0.90126 -5.23847,-0.16829 -7.24342,-2.13521c-0.00267,0.04492 -0.00522,0.08916 -0.00757,0.13267c-0.19607,3.61026 -0.37248,6.59975 -3.44666,8.69646zM240.14208,138.05575c-1.00761,-0.23121 -1.45369,-1.40998 -1.45369,-1.40998c-1.67404,-4.7744 -6.48435,-6.40155 -10.60084,-7.33586c-0.59652,-0.13539 -1.18925,-0.61556 -1.78212,-0.44397c-0.2955,0.08553 -0.11895,0.67623 -0.18411,1.01306c-0.22175,1.14648 -0.43653,2.05784 -0.54327,2.90871c0.21327,0.34575 0.30289,0.65109 0.30289,0.65109c0.35664,1.2151 0.72494,2.41023 1.10466,3.59014c0.17579,0.28133 0.32041,0.6362 0.34544,1.05983c1.76739,5.35476 3.77171,10.42041 5.98871,15.64753c0.97275,2.29349 4.08286,6.14572 3.84852,8.8323c-0.12425,1.42441 -0.90222,2.77219 -1.78104,3.81307c-0.34451,0.40805 -4.95676,3.0408 -5.64542,3.50385c-2.98516,2.0071 -5.44497,4.68232 -8.31009,6.85825c-1.15067,1.16796 -3.01165,2.52231 -4.16233,3.69027c-1.76547,1.79197 -3.14017,4.2745 -4.90868,6.06727c-1.24714,1.26426 -3.34892,2.53463 -3.72709,4.71747c-0.0885,0.51087 0.27774,0.98703 0.37784,1.49226c0.53424,2.69645 3.70597,9.68045 6.6532,7.45768l1.23716,-1.79379c8.9394,-9.07355 18.14489,-17.05465 28.51502,-24.02349c2.32155,-1.88157 4.52902,-3.89115 6.79595,-5.84237c0.49664,-0.42748 0.88339,-1.00857 1.39375,-1.41466c0.31369,-0.24959 1.0716,-0.09943 1.04946,-0.52937c-0.02367,-0.45977 -0.86225,-0.20699 -1.10618,-0.57255c-1.50624,-2.25726 -2.53643,-5.89299 -3.70925,-8.42871c-2.99915,-6.48444 -7.2994,-12.62793 -9.69857,-19.50796z" fill="#9966ff"/><path d="M200.55334,209.70905c-1.00186,-1.09293 -1.3589,-2.1261 -1.39401,-3.92531c-0.05005,-2.56397 0.56859,-4.35877 1.59939,-6.56487c0.1952,-0.41777 0.12611,-1.15437 0.52492,-1.29234c0.3972,-0.13742 0.64496,0.64986 1.04807,0.74969c1.04254,0.25825 2.61971,-0.53785 3.20566,0.46613c0.59646,1.02199 -0.0696,2.48808 -0.13644,3.71881c-0.20954,3.85847 -0.28055,4.5104 -3.62013,5.73231c0,0 -0.81308,0.31085 -1.22742,1.11559z" data-paper-data="{&quot;noHover&quot;:false,&quot;origItem&quot;:[&quot;Path&quot;,{&quot;applyMatrix&quot;:true,&quot;segments&quot;:[[[428.29653,249.70232],[2.53963,2.48528],[-0.88695,1.97961]],[[425.52357,252.53569],[0,0],[-7.83313,3.35814]],[[417.70827,266.57322],[0,-9.26089],[0,2.95396]],[[417.82607,275.4341],[-1.56019,-2.36818],[1.5327,2.32645]],[[425.49513,276.11458],[-2.5285,-0.4825],[0.97762,0.18656]],[[428.08169,277.77625],[-0.93268,0.38046],[0.93648,-0.38202]],[[429.15412,274.62198],[-0.41283,1.02512],[2.18006,-5.41338]],[[432.08448,258.86309],[0.45298,6.12931],[-0.31787,-4.30112]]],&quot;closed&quot;:true}]}" fill="#ffffff"/><path d="M238.69849,136.59985c0,0 0.4488,1.17961 1.4564,1.41082c2.39918,6.88003 6.72558,13.05121 9.72475,19.53565c1.17281,2.53574 2.2057,6.19012 3.71195,8.44739c0.24393,0.36554 1.08246,0.1138 1.10613,0.57356c0.02211,0.42994 -0.73585,0.28091 -1.04953,0.53051c-0.51037,0.40611 -0.89742,0.99035 -1.39408,1.41783c-2.26692,1.95124 -4.48023,3.97867 -6.80177,5.86025c-10.37015,6.96885 -19.63072,14.96745 -28.5701,24.04102l-1.23752,1.79357c-2.94724,2.22278 -6.12814,-4.76876 -6.66237,-7.4652c-0.10012,-0.50524 -0.46742,-0.9826 -0.37893,-1.49346c0.37818,-2.18285 2.47952,-3.45376 3.72665,-4.71801c1.7685,-1.79276 3.14241,-4.27631 4.90786,-6.06827c1.15066,-1.16794 3.07408,-2.58591 4.22477,-3.75387c2.86512,-2.17593 5.3171,-4.85866 8.30225,-6.86574c0.68867,-0.46304 5.238,-3.06967 5.58251,-3.47772c0.8788,-1.04089 1.65929,-2.35339 1.78354,-3.77779c0.23432,-2.68659 -2.84227,-6.51349 -3.81502,-8.80698c-2.217,-5.22711 -4.20898,-10.29374 -5.97639,-15.64851c-0.02504,-0.42363 -0.16941,-0.77856 -0.34521,-1.0599c-0.37971,-1.17989 -0.74744,-2.37519 -1.10408,-3.59028c0,0 -0.10852,-0.39703 -0.3218,-0.74278c0.10673,-0.85086 0.32294,-1.7626 0.54468,-2.90907c0.06516,-0.33683 -0.11094,-0.92762 0.18456,-1.01315c0.59287,-0.17159 1.18773,0.30817 1.78425,0.44356c4.11651,0.93431 8.94248,2.56219 10.61651,7.3366z" data-paper-data="{&quot;noHover&quot;:false,&quot;origItem&quot;:[&quot;Path&quot;,{&quot;applyMatrix&quot;:true,&quot;segments&quot;:[[[657.04642,381.49437],[0,0],[4.62661,9.90368]],[[683.36858,395.78934],[-9.97259,-1.50293],[1.44514,0.21779]],[[687.69104,396.5235],[-1.39648,0.43093],[0.69604,-0.21479]],[[687.99997,394.36016],[-0.11213,0.71975],[0.38164,-2.4498]],[[688.92201,388.14704],[-0.14482,1.81148],[-0.55534,-0.70664]],[[688.1125,386.80499],[0,0],[-1.0114,-2.52849]],[[685.00235,379.34017],[1.06204,2.45139],[-0.45725,-0.5747]],[[684.03792,377.13874],[0.11497,0.89292],[-4.92546,-11.1202]],[[667.67276,344.73829],[5.98483,10.79863],[-2.62594,-4.73807]],[[657.31503,326.50353],[-0.21166,5.70793],[0.11222,-3.02632]],[[661.08161,318.2359],[-1.96776,2.30198],[0.77141,-0.90243]],[[674.13622,310.17835],[-1.58787,1.05821],[6.8829,-4.587]],[[693.13166,294.7216],[-6.57368,4.93026],[2.60189,-2.60189]],[[702.61288,286.44017],[-2.60189,2.60189],[3.99202,-3.99202]],[[713.57123,273.04664],[-3.99918,3.99409],[2.82019,-2.8166]],[[721.87737,262.64306],[-0.6213,4.65927],[0.1454,-1.09041]],[[720.77921,259.53094],[0.30521,1.05687],[-1.6289,-5.64052]],[[703.88827,244.52507],[6.76412,-5.03876],[0,0]],[[701.16079,248.46027],[0,0],[-20.21351,20.21351]],[[636.04404,302.53496],[23.91098,-15.92721],[-5.31112,4.24538]],[[620.54007,315.66967],[5.17134,-4.38641],[-1.13297,0.961]],[[617.38854,318.82119],[1.16859,-0.91735],[-0.71824,0.56382]],[[614.94591,320.06111],[-0.10883,-0.9066],[0.11639,0.9695]],[[617.66749,321.14479],[-0.63125,-0.74498],[3.89793,4.60022]],[[627.63949,338.54218],[-3.13622,-5.22739],[8.01997,13.36755]],[[653.38438,378.67981],[-6.6356,-14.27295],[2.44136,0.3732]]],&quot;closed&quot;:true}]}" fill="#ffffff"/></g><g data-paper-data="{&quot;index&quot;:null}"><path d="M250.22487,210.6969c2.18048,1.02854 1.26435,2.97069 1.26435,2.97069l-0.04359,-0.50419c0.02024,0.30883 0.03316,0.61645 0.03951,0.923c0.07365,0.19064 0.14671,0.38168 0.21916,0.57306c-0.26307,1.71528 -0.42918,3.4314 -0.55457,5.14952c-0.05614,0.02442 -0.11199,0.04938 -0.16749,0.07492c-0.45549,2.77699 -1.0861,5.52667 -1.31243,8.34401c-0.15049,1.87346 -0.11323,3.78783 -0.10066,5.7009c0.04323,0.03832 0.08686,0.07635 0.13086,0.11406c-0.05286,0.58262 -0.07665,1.18146 -0.05508,1.80638c0.02607,0.75505 0.1335,1.45309 0.27576,2.12308c-0.16898,0.24835 -0.33548,0.49867 -0.4983,0.75159c-0.05184,0.54474 -0.12073,1.08637 -0.21182,1.62387c-0.2833,1.67179 -0.92226,3.25211 -1.55426,4.81236c-0.47355,1.16906 -0.20747,2.84282 -1.28835,3.56029c-2.61405,1.73517 -5.3685,-0.09135 -7.69745,-1.14343c0,0 -0.22082,-0.10416 -0.49239,-0.30879c-2.79157,-0.85145 -5.53765,-2.09583 -7.86822,-3.67782c-0.86924,-0.59005 -1.3533,-1.59003 -2.20874,-2.19825c-3.62449,-2.57706 -6.51463,-3.41255 -8.72012,-7.54203c-0.34185,-0.64008 -0.43958,-1.36644 -0.82108,-1.9894c-0.5452,-0.8903 -1.69609,-1.52989 -1.93371,-2.50899c-0.75748,-3.12101 2.11135,-6.81188 5.11916,-7.68796c4.01691,-1.17001 9.79962,1.84448 13.27589,3.84047c0.25758,0.14788 0.52673,0.28857 0.79835,0.42914c-0.53469,-6.60056 -1.31427,-13.12553 -2.63715,-19.57641c-0.5197,-2.53427 -1.28297,-5.16029 -2.02861,-7.66427c-0.3131,-1.05145 -1.22156,-2.10549 -1.0221,-3.13852c0.61289,-3.1744 4.76935,-4.16499 7.36674,-5.34525c6.26429,-4.49898 13.41305,-7.37724 20.24404,-11.26529c1.39579,-0.79445 2.90246,-1.42452 4.35655,-2.1323c2.17881,-1.06051 2.27043,-2.78708 5.51717,-2.75832c1.31093,0.01161 2.49899,0.96947 3.72679,1.50729c4.64889,2.03636 9.21474,4.34666 13.80566,6.51223c0,0 1.77388,0.83674 1.44949,2.4259l0.35261,0.40938c1.37907,1.63252 3.96748,4.07062 2.98737,6.4237c-0.4858,1.16634 -2.32419,1.22963 -3.54868,1.73948c-2.18772,0.91091 -4.94477,2.22901 -7.37209,2.55159c-0.71695,0.09528 -1.52631,-0.33342 -2.20787,-0.13234c-0.68157,0.20109 -0.98863,0.95441 -1.61516,1.26025c-1.38639,0.67674 -3.14411,0.6486 -4.52448,1.33486c-5.81073,2.88886 -11.67739,5.68702 -18.50978,6.70692c-1.11523,0.32902 -2.79543,-0.05191 -3.39474,0.86552c-0.22859,0.3499 0.36833,0.8194 0.44018,1.24533c0.21056,1.24788 0.37451,2.52472 0.86373,3.72448c0.05111,0.02144 0.10298,0.04451 0.15557,0.06931zM244.95031,227.54277c0.36554,-4.29407 1.78461,-8.49741 1.82855,-12.84071c-0.31822,-0.88088 -0.65993,-1.76115 -1.02958,-2.64136c-0.87082,-2.0736 -2.45853,-6.82526 -1.16265,-8.80053c0.93941,-1.43193 4.36004,-2.23663 6.10041,-2.75009c4.22359,-0.63047 7.43569,-1.90838 11.03763,-3.63898c1.39153,-0.66857 3.14411,-0.6486 4.52448,-1.33486c0.72753,-0.3617 1.22095,-1.03847 1.95434,-1.39086c1.39153,-0.66857 3.13807,-0.6581 4.52448,-1.33486c0.83578,-0.40798 1.38435,-1.25321 2.29354,-1.52144c0.90919,-0.26824 1.97306,0.09451 2.93242,-0.02037c1.36124,-0.163 4.5936,-2.52196 6.54977,-2.44749c-0.4164,-0.42116 -0.75017,-0.916 -1.14194,-1.35912l-1.67776,-1.94778c0,0 -0.15841,-0.1839 -0.31446,-0.47585c-2.71393,-1.28018 -5.42787,-2.56037 -8.1418,-3.84054c-1.23897,-0.58442 -2.50125,-1.12236 -3.71691,-1.75329c-0.55454,-0.28778 -0.97033,-0.96339 -1.58309,-0.9974c-1.45583,-0.08077 -2.12342,1.6978 -3.36218,2.30411c-1.3571,0.66422 -2.77352,1.24001 -4.07661,1.98427c-6.83438,3.90329 -13.93782,6.812 -20.24404,11.26529c-1.58047,0.73126 -3.18571,1.42116 -4.76874,2.14817c-0.22596,0.10378 -0.67964,0.10743 -0.65256,0.35072c0.05088,0.45741 0.6519,0.76117 0.82528,1.20198c1.42116,3.61358 1.65507,7.49631 2.61425,11.15671c0.22352,0.85297 0.87439,1.63031 0.99005,2.49292c0.10536,0.78567 -0.40229,1.51224 -0.34765,2.29815c0.35187,5.06115 1.49094,10.16669 1.85393,15.28764l0.16648,2.34851c0.03221,0.34515 -0.02251,0.69513 -0.17637,1.02134c-0.50596,1.07263 -1.89235,1.48165 -3.0966,0.9136c-0.36623,-0.17276 -0.67343,-0.41596 -0.90942,-0.70101l-1.64676,-1.91179l0.00411,-0.00293c-3.164,-2.00086 -6.49394,-3.90491 -10.05018,-4.61372c-0.95101,-0.18956 -4.67957,1.08165 -3.87622,2.53468c0.31113,0.56274 1.06654,0.84416 1.4218,1.38657c1.19062,1.81782 0.69876,2.61183 2.12453,4.25353c1.58435,1.82431 4.12728,2.47213 6.00429,3.80101c0.85674,0.60656 1.34621,1.59926 2.20876,2.19825c2.16983,1.50689 5.36283,1.9408 7.53112,3.51075c0.02473,0.01055 0.03787,0.01675 0.03787,0.01675c0.28549,0.14319 0.57259,0.28338 0.85935,0.42417c0.24372,-1.08949 0.98682,-2.02316 1.58916,-2.96682c0.83421,-1.30691 1.20755,-2.86025 1.9365,-4.22358c0.09104,-3.13905 -0.20262,-6.26918 0.06251,-9.38371z" fill="#9966ff"/><path d="M246.80931,214.67107c-0.04393,4.3433 -1.47845,8.53735 -1.844,12.83142c-0.26513,3.11455 0.0238,6.24306 -0.06722,9.38213c-0.72897,1.36332 -1.124,3.00012 -1.9582,4.30703c-0.60235,0.94367 -1.34629,1.87704 -1.59,2.96651c-0.28675,-0.14078 -0.57496,-0.28133 -0.86045,-0.42451c0,0 -0.01319,-0.00623 -0.03793,-0.01677c-2.16826,-1.56997 -5.37037,-2.00813 -7.54023,-3.51499c-0.86255,-0.59901 -1.35517,-1.59369 -2.21192,-2.20024c-1.87699,-1.3289 -4.42657,-1.98205 -6.01093,-3.80637c-1.42576,-1.64171 -0.93781,-2.43988 -2.12845,-4.25771c-0.35528,-0.54241 -1.1122,-0.82572 -1.42333,-1.38847c-0.80335,-1.45302 3.00086,-2.77052 3.95188,-2.58099c3.55623,0.70882 6.87512,2.60211 10.03911,4.60295l-0.00411,0.00293l1.64348,1.90962c0.23598,0.28502 0.54163,0.52734 0.90785,0.70008c1.20425,0.56805 2.58727,0.15727 3.09325,-0.91535c0.15387,-0.3262 0.17092,-0.59899 0.1387,-0.94415l-0.16855,-2.3496c-0.36299,-5.12097 -1.52462,-10.25078 -1.8765,-15.31195c-0.05463,-0.78592 0.4505,-1.51997 0.34515,-2.30564c-0.11567,-0.86259 -0.76765,-1.64912 -0.99116,-2.50209c-0.95917,-3.66038 -1.18385,-7.56869 -2.60502,-11.18229c-0.17336,-0.44081 -0.77374,-0.74531 -0.82461,-1.20274c-0.02706,-0.2433 0.42767,-0.2481 0.65363,-0.35186c1.58304,-0.727 3.19749,-1.42399 4.77795,-2.15525c6.30621,-4.4533 13.45029,-7.36472 20.28467,-11.26802c1.30311,-0.74424 2.7236,-1.3184 4.08069,-1.98263c1.23875,-0.6063 1.90869,-2.38377 3.36451,-2.30302c0.61275,0.03399 1.03055,0.71067 1.58507,0.99847c1.21566,0.63092 2.48212,1.17146 3.72107,1.75589c2.71393,1.28018 5.43549,2.56679 8.14942,3.84697c0.15605,0.29196 0.31489,0.47633 0.31489,0.47633l1.67972,1.94993c0.39177,0.44311 0.6522,0.98715 1.06858,1.40831c-1.95617,-0.07449 -5.18722,2.28604 -6.54848,2.44904c-0.95934,0.1149 -2.02158,-0.24602 -2.93077,0.0222c-0.90919,0.26823 -1.45749,1.11373 -2.29329,1.5217c-1.38639,0.67674 -3.1305,0.66869 -4.52203,1.33728c-0.7334,0.35237 -1.2263,1.02962 -1.95382,1.39131c-1.38036,0.68626 -3.12843,0.66991 -4.51995,1.33849c-3.60194,1.73059 -6.78339,3.0185 -11.00698,3.64898c-1.74035,0.51345 -5.13045,1.30698 -6.06986,2.73891c-1.29587,1.9753 0.29957,6.67807 1.17041,8.75166c0.36966,0.8802 0.69952,1.7456 1.01774,2.62647z" data-paper-data="{&quot;noHover&quot;:false,&quot;origItem&quot;:[&quot;Path&quot;,{&quot;applyMatrix&quot;:true,&quot;segments&quot;:[[[443.00711,690.71721],[3.11369,-6.18565],[-2.2584,4.48652]],[[434.82177,703.75356],[2.60664,-4.40676],[0.16107,2.36427]],[[434.71713,710.86786],[-0.4084,-2.35489],[0.29489,1.70038]],[[435.07295,716.01475],[0.5068,-1.66805],[0.66246,-0.00766]],[[437.06015,715.98872],[-0.6622,0.01179],[0,0]],[[437.14603,715.99026],[-0.05569,-0.00154],[5.45612,-0.75779]],[[454.37852,716.04805],[-5.40326,0.66938],[2.14787,-0.26609]],[[460.46649,714.4466],[-2.14367,0.28035],[4.69648,-0.61421]],[[475.09189,713.10498],[-4.58593,1.4915],[4.12686,-1.3422]],[[482.84036,708.60214],[-3.84168,1.73971],[1.1463,-0.51911]],[[486.73408,707.6107],[-1.08151,0.5761],[2.79248,-1.4875]],[[481.70604,701.56821],[1.95157,0.35876],[-7.29763,-1.34152]],[[458.7726,701.39231],[7.70509,-0.70404],[0,0]],[458.77772,701.39905],[[453.99731,702.97091],[0,0],[-0.69482,0.24057]],[[451.67128,703.34763],[0.83979,0],[-2.76142,0]],[[446.67128,700.05949],[0,1.81599],[0,-0.55227]],[[447.24413,698.52983],[-0.36581,0.45693],[0,0]],[[449.63433,695.3861],[0,0],[5.21183,-6.85488]],[[466.63809,675.42537],[-5.13805,6.77932],[0.79786,-1.05273]],[[468.01938,672.01556],[-0.89274,1.01925],[0.98017,-1.11906]],[[472.08213,669.20989],[-1.17395,1.03527],[5.03779,-4.44267]],[[486.85702,655.46676],[-5.86295,4.07605],[0.71521,-0.49723]],[[489.46849,654.34127],[-0.50014,0.60023],[0.26603,-0.31927]],[[488.55479,653.42924],[0.33201,0.29132],[-2.32609,-2.04099]],[[481.51066,647.33898],[2.3175,2.04521],[-7.88843,-10.287]],[[453.50599,618.51294],[9.36575,9.87034],[-1.78576,-1.88197]],[[447.61507,613.10181],[1.95784,1.80644],[-1.78711,-1.64891]],[[443.34724,607.71442],[2.80217,0.83921],[-1.17942,-0.35322]],[[439.49534,608.06155],[1.29479,-0.03632],[-2.83847,0.07962]],[[430.97218,608.06155],[2.84105,0],[-6.22326,0]],[[412.30241,608.06155],[6.22326,0],[-0.55103,0.30239]],[411.29156,608.51514],[[406.42118,610.11659],[0,0],[-1.12691,0.35775]],[[403.07668,611.25284],[1.15365,-0.31126],[3.73508,1.17475]],[[413.19664,618.92113],[-2.40909,-1.11502],[1.69781,0.78581]],[[418.67899,620.86499],[-1.46806,-0.96543],[1.46806,0.96543]],[[421.63486,624.47034],[-1.20673,-1.11101],[2.00171,1.84293]],[[428.94042,629.27468],[-2.01857,-1.83496],[1.06388,0.96711]],[[431.37561,632.47757],[-1.04459,-0.97616],[1.98197,1.85214]],[[438.68117,637.28191],[-2.01857,-1.83496],[5.22497,4.74971]],[[456.16488,649.53206],[-7.36442,-3.63228],[2.81011,1.84801]],[[465.17423,657.32586],[-0.4951,-2.59676],[0.68297,3.58211]],[[455.20681,668.75418],[3.46813,-2.30284],[-1.47217,0.97752]],[[450.93856,671.73959],[1.37628,-1.01203],[-3.76048,6.04374]]],&quot;closed&quot;:true}]}" fill="#ffffff"/></g><g data-paper-data="{&quot;index&quot;:null}"><path d="M250.47495,221.81703c2.7344,0.28763 2.24304,2.22218 2.24304,2.22218l-0.1886,-0.42441c0.10826,0.26175 0.20796,0.5245 0.3,0.78812c0.13552,0.14467 0.27052,0.28985 0.4049,0.43551c0.17945,1.55762 0.46807,3.08916 0.803,4.61119c-0.05631,0.03666 -0.11212,0.07369 -0.16741,0.11116c0.25731,2.52992 0.31033,5.0846 0.83625,7.58612c0.34974,1.66342 0.92174,3.31038 1.46563,4.96302c0.05918,0.02123 0.11871,0.04207 0.17859,0.06256c0.10196,0.51898 0.24107,1.04396 0.43836,1.57898c0.23837,0.64643 0.55235,1.22102 0.89771,1.7617c-0.12106,0.26169 -0.23879,0.52444 -0.35166,0.78841c0.09262,0.4859 0.1652,0.97382 0.21174,1.46432c0.14469,1.52556 -0.13549,3.07027 -0.41343,4.59566c-0.20827,1.14295 0.55418,2.51833 -0.46145,3.43825c-2.45616,2.22475 -6.05633,1.40496 -8.96406,1.13802c0,0 -0.27693,-0.02912 -0.63868,-0.13119c-3.37188,0.03461 -6.80145,-0.2835 -9.85774,-1.00875c-1.13991,-0.2705 -1.96062,-1.00235 -3.09008,-1.29241c-4.78543,-1.22898 -8.26362,-1.1533 -11.88486,-4.11845c-0.5613,-0.4596 -0.87224,-1.0614 -1.47332,-1.49523c-0.85905,-0.62001 -2.32907,-0.85554 -2.86716,-1.63746c-1.71524,-2.49242 0.48555,-6.48063 3.62196,-8.07051c4.18865,-2.12329 11.5198,-1.11227 15.97782,-0.34534c0.33032,0.05682 0.67166,0.10419 1.0157,0.15081c-2.42853,-5.56623 -5.11123,-10.99931 -8.38377,-16.21807c-1.28563,-2.05022 -2.87031,-4.11253 -4.40138,-6.07409c-0.64291,-0.82367 -1.95536,-1.48501 -2.01738,-2.43444c-0.19052,-2.91747 4.20455,-4.92402 6.79566,-6.66379c5.7915,-5.62642 13.02547,-10.09431 19.62279,-15.34849c1.34804,-1.0736 2.86618,-2.03554 4.30372,-3.05023c2.15404,-1.52039 1.77882,-3.04038 5.43422,-3.91301c1.47594,-0.35236 3.07587,0.14844 4.60413,0.27462c5.78654,0.47772 11.55567,1.21553 17.31285,1.82113c0,0 2.22452,0.234 2.30015,1.69938l0.5095,0.25692c2.00135,1.03202 5.58438,2.42713 5.13493,4.7351c-0.22278,1.14398 -2.27051,1.70698 -3.50493,2.48684c-2.20546,1.39334 -4.93776,3.29656 -7.57531,4.24683c-0.77905,0.28069 -1.80702,0.1333 -2.51697,0.49577c-0.71,0.36249 -0.84635,1.09953 -1.4655,1.53748c-1.37011,0.96911 -3.35254,1.43065 -4.71319,2.40632c-5.72787,4.10718 -11.54366,8.15127 -18.93682,10.92295c-1.16174,0.59311 -3.15479,0.72782 -3.57402,1.68771c-0.15991,0.3661 0.64069,0.60753 0.83938,0.95639c0.58212,1.02207 1.11988,2.08211 2.00171,2.98548c0.06336,0.00442 0.12802,0.01006 0.19396,0.017zM249.21444,237.85841c-0.77845,-3.81839 -0.34826,-7.84943 -1.50165,-11.62154c-0.60143,-0.6746 -1.22908,-1.34218 -1.88812,-2.00197c-1.55253,-1.55436 -4.65199,-5.22892 -3.74322,-7.2971c0.6588,-1.49929 4.27875,-3.14152 6.0917,-4.06712c4.57024,-1.71338 7.82487,-3.70759 11.39209,-6.20148c1.37811,-0.96345 3.35254,-1.43065 4.71319,-2.40632c0.71715,-0.51424 1.08404,-1.23651 1.81039,-1.7443c1.37811,-0.96345 3.3431,-1.43721 4.71319,-2.40632c0.82595,-0.58422 1.20816,-1.46758 2.15528,-1.95112c0.94712,-0.48355 2.24274,-0.46363 3.28867,-0.82826c1.4841,-0.51743 4.46213,-3.45309 6.68031,-3.92938c-0.58441,-0.24949 -1.09641,-0.58559 -1.65925,-0.86089l-2.42421,-1.22237c0,0 -0.22888,-0.1154 -0.48503,-0.32501c-3.40338,-0.358 -6.80676,-0.71599 -10.21013,-1.074c-1.55372,-0.16344 -3.12075,-0.28017 -4.66116,-0.49032c-0.70266,-0.09586 -1.35687,-0.56577 -2.05466,-0.42581c-1.65786,0.33253 -1.91532,2.05677 -3.13906,2.92409c-1.34063,0.95016 -2.77241,1.84016 -4.03022,2.8447c-6.59691,5.26834 -13.77154,9.75005 -19.62279,15.34849c-1.57302,1.06994 -3.18531,2.11094 -4.7624,3.17792c-0.22511,0.15231 -0.73377,0.28088 -0.63598,0.48402c0.18381,0.38192 0.94313,0.47872 1.25997,0.81239c2.59722,2.73537 3.93523,6.03195 6.02641,8.93555c0.48729,0.67663 1.43378,1.16963 1.80258,1.8844c0.33591,0.65102 -0.03316,1.42033 0.24586,2.08557c1.79684,4.28412 4.49032,8.38903 6.31621,12.72184l0.83738,1.98706c0.13177,0.28988 0.16722,0.60799 0.0847,0.93292c-0.27136,1.06841 -1.71559,1.80576 -3.22575,1.64691c-0.45927,-0.04831 -0.87174,-0.17393 -1.21577,-0.35545l-2.37942,-1.19978l0.0038,-0.00366c-4.10855,-0.85745 -8.37673,-1.58525 -12.56816,-1.21578c-1.12089,0.09879 -4.95756,2.22998 -3.65269,3.26579c0.50536,0.40115 1.43193,0.43594 1.98125,0.80731c1.84097,1.24454 1.50827,2.06787 3.56461,3.09494c2.28508,1.14131 5.32122,0.99915 7.79786,1.63067c1.13043,0.28824 1.95522,1.01231 3.09009,1.29241c2.8549,0.70467 6.56215,0.19761 9.43275,0.95733c0.03069,0.0023 0.0472,0.00404 0.0472,0.00404c0.36038,0.04504 0.72174,0.08702 1.08288,0.12964c-0.02789,-1.01053 0.54835,-2.02421 0.96371,-3.00765c0.57524,-1.36197 0.5645,-2.8099 1.00589,-4.19165c-0.76701,-2.74259 -1.96369,-5.37114 -2.52832,-8.14065z" fill="#9966ff"/><path d="M247.73838,226.20165c1.1534,3.7721 0.70328,7.79938 1.48175,11.61777c0.56465,2.76952 1.75559,5.39797 2.52259,8.14059c-0.4414,1.38173 -0.43192,2.9079 -1.00716,4.26986c-0.41537,0.98343 -0.99263,1.99709 -0.96475,3.00763c-0.36114,-0.04261 -0.72382,-0.0846 -1.08419,-0.12964c0,0 -0.01655,-0.00174 -0.04724,-0.00404c-2.8706,-0.75972 -6.58926,-0.25382 -9.44415,-0.95847c-1.13488,-0.2801 -1.96376,-1.005 -3.0942,-1.29328c-2.47663,-0.63154 -5.52173,-0.49216 -7.80683,-1.63348c-2.05634,-1.02707 -1.72922,-1.85292 -3.5702,-3.09745c-0.54932,-0.37134 -1.47812,-0.40735 -1.9835,-0.80852c-1.30487,-1.03579 2.60397,-3.22797 3.72487,-3.32679c4.1914,-0.36946 8.44417,0.35206 12.55273,1.20952l-0.0038,0.00366l2.37512,1.1988c0.34404,0.18151 0.75448,0.30678 1.21375,0.35509c1.51017,0.15886 2.95013,-0.57907 3.2215,-1.6475c0.08252,-0.32491 0.02614,-0.5658 -0.10564,-0.85568l-0.84,-1.98743c-1.82589,-4.33281 -4.55144,-8.45252 -6.3483,-12.73663c-0.27902,-0.66526 0.08518,-1.44036 -0.25074,-2.09139c-0.36883,-0.71477 -1.31908,-1.21543 -1.80638,-1.89204c-2.09118,-2.9036 -3.4259,-6.22487 -6.02314,-8.96025c-0.31684,-0.33368 -1.07562,-0.43133 -1.25944,-0.81324c-0.09778,-0.20313 0.41176,-0.33301 0.63686,-0.48529c1.57709,-1.06699 3.19776,-2.11665 4.77077,-3.18659c5.85127,-5.59846 13.07077,-10.09374 19.66768,-15.36208c1.25783,-1.0045 2.69461,-1.89421 4.03526,-2.8444c1.22373,-0.86731 1.48413,-2.59124 3.14198,-2.92377c0.69778,-0.13996 1.35454,0.33034 2.05718,0.42619c1.54041,0.21013 3.11284,0.32797 4.66655,0.4914c3.40338,0.358 6.81709,0.71943 10.22047,1.07744c0.25615,0.20961 0.48566,0.3253 0.48566,0.3253l2.42699,1.2237c0.56284,0.2753 1.00605,0.67425 1.59046,0.92376c-2.21818,0.47628 -5.19435,3.41295 -6.67845,3.93038c-1.04591,0.36465 -2.33921,0.34587 -3.28631,0.82941c-0.94712,0.48355 -1.32898,1.36706 -2.15492,1.95129c-1.37011,0.96911 -3.33165,1.44427 -4.70978,2.40773c-0.72633,0.50779 -1.09252,1.23033 -1.80966,1.74455c-1.36067,0.97567 -3.32899,1.44475 -4.70711,2.4082c-3.56723,2.49387 -6.78465,4.48828 -11.35489,6.20165c-1.81296,0.9256 -5.40169,2.54971 -6.0605,4.049c-0.9088,2.06821 2.18585,5.69831 3.73838,7.25267c0.65902,0.6598 1.26923,1.31777 1.87066,1.99236z" data-paper-data="{&quot;noHover&quot;:false,&quot;origItem&quot;:[&quot;Path&quot;,{&quot;applyMatrix&quot;:true,&quot;segments&quot;:[[[443.00711,690.71721],[3.11369,-6.18565],[-2.2584,4.48652]],[[434.82177,703.75356],[2.60664,-4.40676],[0.16107,2.36427]],[[434.71713,710.86786],[-0.4084,-2.35489],[0.29489,1.70038]],[[435.07295,716.01475],[0.5068,-1.66805],[0.66246,-0.00766]],[[437.06015,715.98872],[-0.6622,0.01179],[0,0]],[[437.14603,715.99026],[-0.05569,-0.00154],[5.45612,-0.75779]],[[454.37852,716.04805],[-5.40326,0.66938],[2.14787,-0.26609]],[[460.46649,714.4466],[-2.14367,0.28035],[4.69648,-0.61421]],[[475.09189,713.10498],[-4.58593,1.4915],[4.12686,-1.3422]],[[482.84036,708.60214],[-3.84168,1.73971],[1.1463,-0.51911]],[[486.73408,707.6107],[-1.08151,0.5761],[2.79248,-1.4875]],[[481.70604,701.56821],[1.95157,0.35876],[-7.29763,-1.34152]],[[458.7726,701.39231],[7.70509,-0.70404],[0,0]],[458.77772,701.39905],[[453.99731,702.97091],[0,0],[-0.69482,0.24057]],[[451.67128,703.34763],[0.83979,0],[-2.76142,0]],[[446.67128,700.05949],[0,1.81599],[0,-0.55227]],[[447.24413,698.52983],[-0.36581,0.45693],[0,0]],[[449.63433,695.3861],[0,0],[5.21183,-6.85488]],[[466.63809,675.42537],[-5.13805,6.77932],[0.79786,-1.05273]],[[468.01938,672.01556],[-0.89274,1.01925],[0.98017,-1.11906]],[[472.08213,669.20989],[-1.17395,1.03527],[5.03779,-4.44267]],[[486.85702,655.46676],[-5.86295,4.07605],[0.71521,-0.49723]],[[489.46849,654.34127],[-0.50014,0.60023],[0.26603,-0.31927]],[[488.55479,653.42924],[0.33201,0.29132],[-2.32609,-2.04099]],[[481.51066,647.33898],[2.3175,2.04521],[-7.88843,-10.287]],[[453.50599,618.51294],[9.36575,9.87034],[-1.78576,-1.88197]],[[447.61507,613.10181],[1.95784,1.80644],[-1.78711,-1.64891]],[[443.34724,607.71442],[2.80217,0.83921],[-1.17942,-0.35322]],[[439.49534,608.06155],[1.29479,-0.03632],[-2.83847,0.07962]],[[430.97218,608.06155],[2.84105,0],[-6.22326,0]],[[412.30241,608.06155],[6.22326,0],[-0.55103,0.30239]],[411.29156,608.51514],[[406.42118,610.11659],[0,0],[-1.12691,0.35775]],[[403.07668,611.25284],[1.15365,-0.31126],[3.73508,1.17475]],[[413.19664,618.92113],[-2.40909,-1.11502],[1.69781,0.78581]],[[418.67899,620.86499],[-1.46806,-0.96543],[1.46806,0.96543]],[[421.63486,624.47034],[-1.20673,-1.11101],[2.00171,1.84293]],[[428.94042,629.27468],[-2.01857,-1.83496],[1.06388,0.96711]],[[431.37561,632.47757],[-1.04459,-0.97616],[1.98197,1.85214]],[[438.68117,637.28191],[-2.01857,-1.83496],[5.22497,4.74971]],[[456.16488,649.53206],[-7.36442,-3.63228],[2.81011,1.84801]],[[465.17423,657.32586],[-0.4951,-2.59676],[0.68297,3.58211]],[[455.20681,668.75418],[3.46813,-2.30284],[-1.47217,0.97752]],[[450.93856,671.73959],[1.37628,-1.01203],[-3.76048,6.04374]]],&quot;closed&quot;:true}]}" fill="#ffffff"/></g><g data-paper-data="{&quot;index&quot;:null}"><g><path d="M275.54171,169.06855c1.24502,-0.0739 2.11717,1.29593 2.11717,1.29593l0.00187,0.01142c0.21192,0.1385 0.43451,0.28222 0.67107,0.43052c0,0 2.14604,1.37682 1.14972,3.79953c-0.37083,0.90174 -0.90092,1.27712 -1.42038,1.39303c0.30843,0.19215 0.64925,0.36426 0.83245,0.68079c1.46542,2.53201 1.43104,4.86982 1.81001,7.73495c-0.48683,0.79008 -0.88055,1.49695 -1.265,2.13542c1.01779,-0.57953 1.97683,-1.27065 2.96717,-2.10064c0.96622,-0.80977 2.73951,-1.05315 2.86362,-2.48363c0.0607,-0.69967 -0.48998,-1.36258 -0.57573,-2.07282c-0.36384,-3.01378 -0.52735,-5.82522 -1.05001,-8.85982c-0.72095,-1.99096 -0.75596,-4.17705 -1.12592,-6.2668c-0.17507,-0.9889 -0.88669,-1.83492 -1.01714,-2.82912c-0.12559,-0.95715 0.3821,-1.86591 0.27538,-2.82442c-0.32092,-2.88231 -2.7248,-7.03983 -3.75618,-9.79654c-2.24097,-5.98971 -4.74494,-11.61988 -8.5605,-16.60247c-1.36741,-1.78566 -3.06649,-2.36523 -4.81985,-3.58537c-4.37551,-3.04484 -9.27921,-5.4873 -14.07705,-7.41084c-1.75065,-0.70436 -3.44837,-1.72661 -5.24592,-2.13952c-4.00557,-0.92012 -7.68763,0.01963 -11.36122,1.08229c-0.68074,0.76308 -1.71689,0.69826 -1.71689,0.69826c-0.19103,-0.01277 -0.38412,-0.02422 -0.57898,-0.03429c-0.44208,0.12465 -0.88497,0.24584 -1.32925,0.3606l-0.10863,0.34496c0,0 -1.78262,1.49401 -3.2421,-0.63848c-1.55334,0.13696 -3.08109,0.40349 -4.458,0.84796c-1.66473,0.53738 -2.9268,2.0469 -4.42285,3.0078c-1.46983,0.94407 -4.23344,1.45023 -4.90157,3.67378c-0.30749,1.02329 -0.55124,2.04136 -0.72866,3.05141c0.30676,0.10944 0.50716,0.23801 0.50716,0.23801c6.91686,4.48693 12.57642,12.24898 16.45809,20.49146c1.66444,0.09962 3.33971,0.80462 4.9937,0.73121c4.17301,-0.18524 9.74054,-0.56017 13.85232,1.76482c0.96493,0.54562 5.00112,4.95281 5.18582,5.80281c0.31185,1.43509 -0.82334,2.66474 -1.10453,4.05141c-0.89355,4.40663 -1.71547,10.95179 -0.8733,15.50995c2.03147,5.45712 6.24006,7.93054 10.89884,8.73585c-2.12559,-1.1242 -4.041,-2.69295 -5.48591,-4.64432c-0.88018,-1.1887 -1.95078,-2.3669 -2.31997,-3.85086c-2.54982,-10.24864 8.93041,-10.50685 14.4311,-11.61703c1.12439,-0.22694 2.19081,-0.78869 3.34619,-0.80056c1.37311,-0.01411 2.30097,0.24028 3.18385,0.68332zM264.69221,175.82506c-1.68131,0.3486 -4.64515,0.47217 -5.82715,2.22686c-1.18153,1.75402 4.20968,5.77137 5.11417,6.23378c4.15182,2.12255 8.94651,1.53159 12.10874,-1.54118c-0.53749,-1.72883 -3.35006,-7.00219 -3.37195,-7.82861c-0.00531,-0.20022 0.01327,-0.39109 0.05099,-0.57445c-2.64226,-0.25614 -5.18988,0.88544 -8.07484,1.48364zM223.21282,167.29837c-2.3146,0.35217 -2.80517,-2.4121 -2.80517,-2.4121l0.19662,-0.30615c-1.72632,-2.74079 -2.29348,-3.16819 -3.17601,-6.35084c-0.24231,-0.8738 -0.09736,-1.84346 -0.42699,-2.68426c-0.06048,-0.1543 -0.1246,-0.309 -0.19206,-0.46406c-0.37396,-0.217 -0.75287,-0.44888 -1.13782,-0.69669c-4.74369,-4.73134 -8.44122,-11.21672 -8.66795,-18.52118c-0.06944,-2.23756 0.91922,-4.24452 1.44581,-6.3387c0.53628,-2.13279 0.96174,-4.53209 2.30825,-6.03623c1.34228,-1.49941 3.23369,-2.16554 4.86769,-3.21506c1.77099,-1.13752 3.34807,-2.75247 5.30938,-3.41968c2.99154,-1.01767 6.64355,-1.22862 9.91177,-1.11834c4.89878,-1.34369 9.66312,-2.85109 15.00333,-1.6244c0.21697,0.04986 5.5133,2.18941 5.9055,2.34722c5.13449,2.07258 10.35894,4.6818 15.05363,7.9439c2.78536,1.93539 3.84678,2.01121 5.9644,4.6673c4.28023,5.3686 7.0968,11.79594 9.55284,18.36045c1.26298,3.37569 3.60975,7.70313 4.12367,11.26484c0.13794,0.95598 -0.39867,1.86708 -0.27538,2.82442c0.11159,0.86657 0.79951,1.57455 0.95283,2.43622c0.34237,1.92417 0.30567,3.95973 1.01112,5.7749c0.62563,3.442 0.98321,6.50969 1.25412,9.9582c0.1036,1.31872 0.76177,2.69814 0.49279,3.94804c-0.89161,4.1433 -6.38936,7.2395 -9.43978,8.58637c-3.45418,1.52513 -6.9699,2.05559 -10.66513,2.61779c-0.59363,0.0903 -5.24385,0.81874 -5.58637,0.77402c-4.0093,-0.52358 -10.48842,-3.55687 -13.63657,-6.90759c-2.09477,-2.22954 -2.51941,-4.05755 -3.56416,-6.84123c-0.78058,-4.50991 -0.24228,-8.26049 0.18818,-12.67546c0.04283,-0.43923 0.56593,-5.89638 0.62381,-6.0798c0.17527,-0.5554 1.04977,-0.6191 1.06553,-1.22551c0.0105,-0.40393 -0.72261,-0.0327 -1.02712,-0.2528c-0.51352,-0.37122 -0.79169,-1.14889 -1.33271,-1.4531c-1.59899,-0.89909 -4.7703,-1.14922 -6.50159,-1.3991c-1.68411,-0.24305 -3.34492,0.16959 -5.02043,0.22286c-0.93842,0.02984 -1.88257,-0.15244 -2.82764,-0.34373l0.24952,0.34901c0,0 1.47391,2.31494 -0.37696,3.86614c-1.85085,1.5512 -3.32477,-0.76374 -3.32477,-0.76374l-1.37899,-2.29898c-0.21213,-0.567 -0.43461,-1.13662 -0.66716,-1.70737c-1.44749,-0.12637 -2.81795,-0.33109 -4.17459,-0.67376c0.33725,1.21569 0.73699,2.37218 1.81776,4.0475l0.73088,2.70425c0,0 0.49058,2.76425 -1.82404,3.11642zM213.81361,141.74132c1.81641,2.85285 4.34187,5.98714 6.14821,9.16602c1.35656,0.66309 2.64194,1.06286 3.94563,1.31361c-3.02407,-5.66875 -6.99806,-10.94332 -11.68885,-14.32841c0.09557,0.94962 0.2601,1.88611 0.49611,2.80681c0.67647,0.37856 1.09886,1.04196 1.09886,1.04196z" fill="#9966ff"/><path d="M213.77497,141.70549c0,0 -0.42232,-0.66351 -1.09879,-1.04207c-0.23603,-0.92071 -0.39425,-1.86506 -0.48979,-2.81465c4.69078,3.38509 8.73283,8.74317 11.75691,14.41192c-1.3037,-0.25074 -2.60393,-0.63843 -3.96048,-1.30154c-1.80633,-3.17891 -4.39146,-6.40079 -6.20785,-9.25365z" data-paper-data="{&quot;noHover&quot;:false,&quot;origItem&quot;:[&quot;Path&quot;,{&quot;applyMatrix&quot;:true,&quot;segments&quot;:[[[229.42361,238.13379],[0,3.08092],[0,0]],[[229.80713,236.75155],[-0.38352,0.66581],[-0.30843,-0.78763]],[[228.67013,234.48225],[0.44835,0.72509],[-2.23314,5.15208]],[[226.41012,251.47048],[-0.51539,-5.77655],[1.00762,-0.94598]],[[229.1486,248.21684],[-0.82294,1.26755],[-0.1917,-3.30457]]],&quot;closed&quot;:true}]}" fill="#ffffff"/><path d="M264.65981,175.78142c2.88494,-0.5982 5.49733,-1.73351 8.13957,-1.47736c-0.03772,0.18336 -0.05482,0.37608 -0.04951,0.5763c0.0219,0.82644 2.84703,6.15047 3.38453,7.87929c-3.16223,3.07277 -8.03649,3.68505 -12.18829,1.56251c-0.90448,-0.4624 -6.30964,-4.52671 -5.1281,-6.28073c1.182,-1.75469 4.16051,-1.9114 5.84183,-2.26001z" data-paper-data="{&quot;noHover&quot;:false,&quot;origItem&quot;:[&quot;Path&quot;,{&quot;applyMatrix&quot;:true,&quot;segments&quot;:[[[195.78166,295.88295],[2.18352,-1.73976],[0.13606,0.10686]],[[196.14871,296.25737],[-0.1076,-0.14412],[0.44415,0.59487]],[[197.56891,303.76015],[-0.49609,-1.53462],[4.50823,0.29752]],[[209.09788,297.69916],[-2.46644,3.94494],[0.53733,-0.85942]],[[210.10648,290.29121],[2.02423,0.53783],[-2.025,-0.53804]],[[203.72549,292.16214],[1.67631,-0.74678],[-2.87635,1.28139]]],&quot;closed&quot;:true}]}" fill="#ffffff"/><path d="M277.61781,170.33304c0,0 -0.79017,-1.30646 -2.03519,-1.23255c-0.88289,-0.44305 -1.81219,-0.69482 -3.18531,-0.68072c-1.15538,0.01187 -2.2255,0.57897 -3.34989,0.8059c-5.50068,1.11019 -17.01452,1.3842 -14.4647,11.63286c0.3692,1.48398 1.43187,2.5508 2.31204,3.7395c1.4449,1.95137 3.37913,3.63047 5.50471,4.75467c-4.6588,-0.8053 -8.8842,-3.27839 -10.91565,-8.73553c-0.84216,-4.55812 -0.0118,-11.21314 0.88173,-15.61977c0.28118,-1.38668 1.41166,-2.50594 1.09983,-3.94104c-0.1847,-0.85001 -4.26082,-5.28692 -5.22577,-5.83254c-4.1118,-2.32502 -9.68609,-1.97198 -13.85909,-1.78673c-1.65398,0.07342 -3.3295,-0.63382 -4.99395,-0.73343c-3.88169,-8.24247 -9.53913,-16.02799 -16.45599,-20.5149c0,0 -0.20042,-0.12857 -0.50717,-0.238c0.17743,-1.01004 0.4222,-2.03135 0.72969,-3.05462c0.66815,-2.22353 3.43431,-2.7358 4.90413,-3.67986c1.49605,-0.96091 2.76126,-2.47588 4.42601,-3.01325c1.37692,-0.44449 2.9076,-0.71497 4.46095,-0.85193c1.4595,2.1325 3.24405,0.63628 3.24405,0.63628l0.10893,-0.34528c0.44426,-0.11477 0.88849,-0.23729 1.33056,-0.36194c0.19486,0.01006 0.38843,0.02108 0.57946,0.03383c0,0 1.03821,0.06307 1.71895,-0.70003c3.67358,-1.06269 7.37104,-2.01032 11.3766,-1.0902c1.79755,0.41292 3.50366,1.43391 5.2543,2.13829c4.79783,1.92355 9.72976,4.37525 14.10527,7.42009c1.75336,1.22012 3.46142,1.80808 4.82883,3.59374c3.81557,4.98259 6.33439,10.64601 8.57534,16.63571c1.03139,2.75669 3.43549,6.93109 3.75641,9.81342c0.10673,0.95851 -0.40168,1.87188 -0.27609,2.82901c0.13044,0.99421 0.84126,1.84379 1.01633,2.83267c0.36995,2.08975 0.4026,4.283 1.12356,6.27395c0.52266,3.03459 0.68225,5.8538 1.04609,8.86758c0.08575,0.7102 0.63566,1.37433 0.57497,2.074c-0.12411,1.43049 -1.90014,1.67764 -2.86636,2.48742c-0.99033,0.83 -1.95241,1.52452 -2.97019,2.10407c0.38445,-0.63847 0.7111,-1.43016 1.19793,-2.22023c-0.37897,-2.86513 -0.3479,-5.19861 -1.81332,-7.73063c-0.18318,-0.31654 -0.52392,-0.48878 -0.83237,-0.68093c0.51944,-0.11592 1.04788,-0.4887 1.41871,-1.39042c0.99631,-2.42271 -1.15145,-3.79641 -1.15145,-3.79641c-0.23657,-0.14829 -0.37689,-0.22914 -0.58881,-0.36765l-0.08409,-0.07439z" data-paper-data="{&quot;noHover&quot;:false,&quot;origItem&quot;:[&quot;Path&quot;,{&quot;applyMatrix&quot;:true,&quot;segments&quot;:[[[190.38099,293.80742],[-1.13798,0.68273],[0.52916,-0.83304]],[[192.80197,291.44721],[-1.21727,0.80044],[1.02425,-0.67352]],[[196.19804,290.03612],[-1.11755,0.50378],[5.46726,-2.4646]],[[215.42261,289.69976],[-3.50135,-8.72173],[0.50699,1.26288]],[[215.53874,293.78066],[0.10863,-1.35651],[-0.17833,2.22686]],[[213.31142,300.28874],[1.2417,-2.04611],[3.65162,-3.31658]],[[218.01175,287.70492],[1.27098,5.04171],[-1.81432,-3.70677]],[[208.54514,277.29851],[3.25808,2.57572],[-1.02525,-0.81052]],[[205.30045,275.09746],[0.53011,1.1946],[-0.31398,-0.70756]],[[206.61382,267.95069],[-0.54391,0.95371],[2.31767,-4.06389]],[[217.82454,258.53265],[-3.77924,2.33236],[1.49792,-0.92444]],[[221.81269,255.0706],[-1.4101,1.05246],[-1.20333,-8.09506]],[[224.81717,230.92779],[-3.57588,7.24175],[0,0]],[[225.13039,230.46087],[-0.20881,0.2581],[-0.72267,-0.60656]],[[222.7775,228.74215],[0.84463,0.53911],[-1.83533,-1.17146]],[[216.40035,229.04792],[1.82394,-0.20266],[-1.85649,0.20628]],[[210.81826,229.54013],[1.76754,-0.60407],[-1.46196,0.49963]],[[206.41638,231.57401],[1.44491,-0.8203],[-0.08961,2.36301]],[203.91895,233.93703],[[203.62983,233.75822],[0,0],[-0.45565,0.18138]],[[202.25687,234.28877],[0.45926,-0.17313],[-0.16597,0.12209]],[[201.76617,234.65462],[0.1611,-0.12173],[0,0]],[[199.86246,235.17619],[1.02748,0.1356],[-3.8314,1.41973]],[[189.2492,241.11915],[3.01191,-3.01191],[-1.35163,1.35163]],[[185.82865,245.72176],[1.14689,-1.52919],[-3.14701,4.18607]],[[177.58609,259.24823],[2.14627,-4.72643],[-0.86006,1.89398]],[[175.35157,264.61752],[0.20301,-2.06444],[-0.56647,5.76048]],[[177.12205,281.36084],[-1.3851,-5.5404],[0.63748,2.54991]],[[179.30738,290.47618],[-1.33366,-2.21907],[0.44351,0.73795]],[[181.13377,292.30257],[-0.42613,-0.74812],[0.44263,0.77709]],[[181.82441,294.89508],[-0.40035,-0.79969],[0.84602,1.6899]],[[184.34697,299.97252],[-0.48149,-1.82748],[1.24137,2.44537]],[[188.39046,306.83112],[-1.36958,-2.33698],[0.32275,0.55073]],[[189.04575,308.63053],[-0.44581,-0.45687],[0.91147,0.93408]],[[192.9606,308.68943],[-1.3051,0],[1.33766,0]],[[196.75189,308.41752],[-1.22139,0.19258],[-0.69664,-0.22271]],[[194.44027,307.66036],[0.87184,0.26904],[-1.27289,-2.24123]],[[191.69693,301.14534],[0.1292,2.64786],[-0.01615,-0.33102]],[[192.04832,300.17464],[-0.1639,0.31733],[-0.5225,0.22494]],[[190.01618,300.03196],[0.83227,0.41613],[-2.23607,-1.11803]],[[188.89814,296.67786],[0,0],[0.12519,-0.24404]],[[189.24776,295.97865],[-0.10898,0.2226],[0,0]],[189.24301,295.9695]],&quot;closed&quot;:true}]}" fill="#ffffff"/></g><path d="M236.40955,119.44559c2.37629,-0.75379 5.15793,-2.20981 4.25465,-5.25365c0,0 -0.07024,-0.39576 -0.03216,-0.90684c-3.53913,-3.29926 -7.90137,-3.65869 -12.60067,-3.96228c-3.13963,-0.20284 -6.60586,-0.22086 -9.31787,1.5857c-2.85887,1.90439 -5.19332,5.50181 -6.76028,8.82967c-0.28126,0.5973 -0.74726,1.21751 -1.03381,1.85846c0.1456,-0.12202 0.23671,-0.19841 0.23671,-0.19841l0.03047,0.04784c0.06765,-0.07476 0.13653,-0.14815 0.20673,-0.22004c1.13573,-1.1631 4.01656,-1.39166 5.42867,-1.60793c3.60962,-0.55281 7.20575,0.15819 10.80075,-0.40663l-0.53262,0.07157c0,0 1.85085,-1.5512 3.32477,0.76374c0.0626,0.0983 0.11919,0.19523 0.17018,0.29072c1.95381,-0.20574 3.80078,-0.25002 5.82445,-0.89195zM211.88759,128.74411c-0.0411,0.03852 -0.08405,0.07662 -0.129,0.11429c-1.85085,1.5512 -3.32477,-0.76374 -3.32477,-0.76374c-0.73925,-1.2742 -1.8699,-2.36322 -2.21778,-3.82262c-0.64255,-2.69568 0.56684,-5.37957 1.53164,-7.48646c1.89608,-4.14059 4.86446,-8.47112 8.3971,-10.79007c3.50286,-2.2994 7.68958,-2.48442 11.74937,-2.23799c7.46013,0.45283 13.96393,1.77569 18.91374,9.46679l1.07678,1.6912c0,0 1.47391,2.31494 -0.37696,3.86614c-0.81344,0.68174 -1.55406,0.61673 -2.12878,0.32966c-1.7235,4.02663 -6.70196,5.20157 -9.95644,6.12024c-0.82033,0.23155 -1.5238,0.86397 -2.3666,0.99483c-0.93891,0.14579 -1.93793,-0.30974 -2.87965,-0.18021c-1.48448,0.20418 -2.67916,1.43699 -4.11879,1.84693c-4.12204,1.17374 -9.24748,1.92686 -13.51858,1.00058z" fill="#9966ff"/><path d="M236.45667,119.45518c-2.02367,0.64195 -3.87461,0.70361 -5.82844,0.90936c-0.05099,-0.09548 -0.10706,-0.19377 -0.16965,-0.29206c-1.47391,-2.31494 -3.33697,-0.74481 -3.33697,-0.74481l0.53873,-0.07871c-3.595,0.56482 -7.27391,-0.17147 -10.88353,0.38133c-1.41211,0.21626 -4.20266,0.42021 -5.33841,1.5833c-0.0702,0.07189 -0.1392,0.14479 -0.20685,0.21957l-0.03041,-0.04768c0,0 -0.18101,0.10245 -0.32661,0.22448c0.28655,-0.64094 0.7514,-1.26603 1.03265,-1.86336c1.56697,-3.32784 3.90861,-6.96909 6.76749,-8.87349c2.71201,-1.80656 6.23236,-1.80413 9.372,-1.6013c4.69929,0.30358 9.09147,0.70211 12.6306,4.00137c-0.03805,0.5111 0.03278,0.90947 0.03278,0.90947c0.90328,3.04386 -1.87709,4.51881 -4.25337,5.2726z" data-paper-data="{&quot;noHover&quot;:false,&quot;origItem&quot;:[&quot;Path&quot;,{&quot;applyMatrix&quot;:true,&quot;segments&quot;:[[[202.64968,232.95977],[-1.83618,1.00821],[-0.00863,-0.09734]],[[202.63654,232.65462],[0,0.10616],[0,-2.5]],[205.13654,230.15462],[[204.6273,230.41855],[0,0],[3.48302,-1.72394]],[[214.36806,224.33058],[-3.48915,1.74103],[1.36499,-0.68111]],[[220.05101,222.25899],[-1.65251,-0.14875],[0.10214,0.00919]],[[220.35647,222.29193],[-0.10151,-0.01272],[0,0]],[220.35647,222.24026],[[220.67621,222.24026],[-0.19666,0],[-0.6118,-0.28223]],[[218.72353,221.54169],[0.58266,0.25463],[-3.24624,-1.41863]],[[207.81807,219.31373],[3.58586,-0.34619],[-3.40165,0.32841]],[[198.72218,223.69627],[2.65148,-1.99575],[-3.96864,2.98718]],[[189.84611,233.92301],[1.26696,-4.41198],[0.32012,0.33743]],[[190.32629,234.58057],[0,0],[0.91132,2.67651]],[[197.01964,235.76911],[-2.5156,0.87161],[2.14232,-0.74228]]],&quot;closed&quot;:true}]}" fill="#ffffff"/></g><g data-paper-data="{&quot;index&quot;:null}"><path d="M215.16018,205.79848c0.42495,1.76843 0.97375,2.69329 2.19978,3.55483c0.23443,-0.88422 0.96128,-1.36788 0.96128,-1.36788c3.03154,-1.93056 2.9276,-2.51971 2.29746,-6.37394c-0.201,-1.22938 0.15851,-2.80029 -0.65193,-3.67973c-0.79617,-0.86394 -2.15289,0.26736 -3.23803,0.23861c-0.41957,-0.01112 -0.82726,-0.73738 -1.18955,-0.51557c-0.36374,0.22272 -0.12966,0.93099 -0.23171,1.38572c-0.53897,2.40129 -0.7529,4.23789 -0.14732,6.75797zM223.26466,210.26321c-0.32969,0.34971 -0.70956,0.62705 -1.10702,0.87906c-0.19937,0.84087 -0.83064,1.34822 -0.83064,1.34822l-2.72942,1.87912c-3.22062,-1.01342 -4.19241,-0.61945 -6.23728,-3.94413c-2.5145,-4.08819 -3.04867,-13.98172 1.06079,-16.98149c0.83862,-0.61217 2.03912,0.04467 3.0519,-0.03139c0.71597,-0.05377 1.3342,-0.18261 1.90948,-0.28435c-0.07665,-0.18074 -0.1486,-0.36061 -0.21561,-0.5392c-0.37602,-1.00173 -1.00726,-1.95871 -1.06685,-3.03108c-0.19404,-3.49103 1.83989,-6.01094 3.38943,-8.4769c1.35306,-2.1533 2.1735,-4.89911 3.52936,-7.0539c0.76721,-1.2193 2.71982,-3.58937 3.48702,-4.80865c3.20197,-3.76349 5.76063,-7.86516 9.39497,-11.20362c0.79513,-0.73037 2.55905,-1.28472 2.21075,-2.40975c-0.40837,-1.31907 -1.86031,-1.88899 -2.71487,-2.91744c-1.82905,-2.20122 -3.56331,-4.60967 -5.32847,-6.86137c-2.52747,-3.22409 -4.5989,-6.95356 -6.59383,-10.6678l-1.07056,-0.63402c-1.9472,-3.11022 -2.93517,-6.43216 -2.32203,-10.28156c0.21831,-1.37057 0.35513,-3.02607 1.31493,-3.87928c1.11936,-0.99507 2.78665,-0.86451 4.22543,-1.04584c4.0706,-0.51301 8.58519,0.55198 12.14166,3.11492c0.16674,-0.16036 0.37549,-0.30562 0.63526,-0.42721c1.9254,-0.90122 2.80361,1.30094 2.80361,1.30094c2.0218,5.15901 5.62287,8.46131 9.00533,12.45893c3.01041,3.5579 5.81697,7.34961 8.65041,11.08218c1.13119,1.49013 2.09255,3.13698 3.25425,4.59747c0.74093,0.93152 2.20887,1.40216 2.38688,2.61859c0.2256,1.54148 -0.78562,2.9536 -1.3693,4.3347c-1.45538,3.44371 -4.85071,6.96899 -7.08053,9.76846c-8.35834,8.75868 -15.43626,18.16924 -22.03353,28.56681c-0.03008,0.76702 -0.40012,1.35511 -0.40012,1.35511l-0.41299,0.65633c-0.61019,0.86329 -0.96041,2.07444 -1.83059,2.58986c-2.50314,1.48266 -5.2075,0.97016 -7.61329,-0.5365c0.0071,0.04493 0.01421,0.08915 0.02131,0.13261c0.58958,3.60629 1.06393,6.59553 -1.51586,9.33209zM240.89161,130.08251c-1.04479,-0.00967 -1.74079,-1.07647 -1.74079,-1.07647c-2.68814,-4.34978 -7.78943,-4.91254 -12.05558,-4.94187c-0.61821,-0.00425 -1.30746,-0.34967 -1.85547,-0.05167c-0.27314,0.14853 0.02926,0.69332 0.03801,1.03995c0.02981,1.17982 0.01548,2.12603 0.09468,2.98908c0.28552,0.29504 0.44024,0.57701 0.44024,0.57701c0.61562,1.12208 1.23842,2.22196 1.8692,3.30429c0.23455,0.23957 0.45428,0.5585 0.57088,0.97124c2.90617,4.90242 5.98351,9.46806 9.30579,14.14694c1.4577,2.05292 5.36339,5.18092 5.71483,7.88372c0.18631,1.43301 -0.28927,2.93219 -0.93097,4.1503c-0.25157,0.47753 -4.23331,4.07685 -4.81266,4.68332c-2.51134,2.62878 -4.35918,5.80311 -6.71538,8.57252c-0.88252,1.40252 -2.42573,3.14311 -3.30824,4.54563c-1.35403,2.15185 -2.17251,4.9006 -3.52936,7.0539c-0.95682,1.5185 -2.75598,3.22843 -2.65578,5.46519c0.02344,0.52348 0.48826,0.91407 0.69666,1.39108c1.11226,2.54583 5.75809,8.75187 8.18521,5.91842l0.83211,-2.03905c6.85606,-10.89579 14.21174,-20.77091 22.93665,-29.89947c1.88348,-2.36092 3.62662,-4.82344 5.4411,-7.24129c0.39754,-0.52973 0.65323,-1.18722 1.06892,-1.69879c0.2555,-0.31444 1.03622,-0.33061 0.92112,-0.75019c-0.12309,-0.4487 -0.89605,-0.01728 -1.21611,-0.32523c-1.97649,-1.90144 -3.78205,-5.2669 -5.48981,-7.51557c-4.3671,-5.75036 -9.9446,-10.88192 -13.80526,-17.15291z" fill="#9966ff"/><path d="M217.35559,209.40041c-1.22604,-0.86152 -1.80258,-1.80395 -2.22752,-3.57236c-0.60557,-2.5201 -0.38423,-4.42597 0.15474,-6.82725c0.10206,-0.45472 -0.12593,-1.16685 0.23782,-1.38956c0.36229,-0.2218 0.77762,0.50156 1.19719,0.51269c1.08515,0.02877 2.4693,-1.09916 3.26548,-0.23522c0.81046,0.87944 0.47101,2.47112 0.67201,3.7005c0.63012,3.85423 0.70144,4.51318 -2.33007,6.44374c0,0 -0.73518,0.48322 -0.96961,1.36745z" data-paper-data="{&quot;noHover&quot;:false,&quot;origItem&quot;:[&quot;Path&quot;,{&quot;applyMatrix&quot;:true,&quot;segments&quot;:[[[428.29653,249.70232],[2.53963,2.48528],[-0.88695,1.97961]],[[425.52357,252.53569],[0,0],[-7.83313,3.35814]],[[417.70827,266.57322],[0,-9.26089],[0,2.95396]],[[417.82607,275.4341],[-1.56019,-2.36818],[1.5327,2.32645]],[[425.49513,276.11458],[-2.5285,-0.4825],[0.97762,0.18656]],[[428.08169,277.77625],[-0.93268,0.38046],[0.93648,-0.38202]],[[429.15412,274.62198],[-0.41283,1.02512],[2.18006,-5.41338]],[[432.08448,258.86309],[0.45298,6.12931],[-0.31787,-4.30112]]],&quot;closed&quot;:true}]}" fill="#ffffff"/><path d="M239.15078,128.95849c0,0 0.69889,1.06705 1.74369,1.07671c3.86066,6.27099 9.46999,11.42422 13.8371,17.17458c1.70775,2.24867 3.52005,5.63193 5.49652,7.5334c0.32008,0.30792 1.0932,-0.12247 1.21629,0.32623c0.1151,0.41959 -0.66542,0.43691 -0.92094,0.75134c-0.41571,0.51158 -0.67105,1.17225 -1.06857,1.70196c-1.81446,2.41784 -3.55946,4.89927 -5.44296,7.26019c-8.72492,9.12855 -16.13116,19.03293 -22.98721,29.92871l-0.83253,2.03889c-2.42713,2.83346 -7.08362,-3.37803 -8.19589,-5.92387c-0.20841,-0.477 -0.67456,-0.86856 -0.698,-1.39204c-0.10019,-2.23676 1.69839,-3.94713 2.65525,-5.4656c1.35685,-2.1533 2.17433,-4.90287 3.52835,-7.05471c0.88249,-1.4025 2.47356,-3.21942 3.35607,-4.62195c2.3562,-2.7694 4.19469,-5.94946 6.70602,-8.57823c0.57937,-0.60646 4.50465,-4.16634 4.75622,-4.64387c0.64168,-1.21811 1.12742,-2.68298 0.94109,-4.11601c-0.35144,-2.70281 -4.21856,-5.81307 -5.67628,-7.86601c-3.32228,-4.67887 -6.38766,-9.24817 -9.29382,-14.15059c-0.1166,-0.41275 -0.33611,-0.73178 -0.57068,-0.97136c-0.63075,-1.08234 -1.25303,-2.18247 -1.86865,-3.30456c0,0 -0.19325,-0.36839 -0.47879,-0.6634c-0.07922,-0.86305 -0.06354,-1.80995 -0.09336,-2.98978c-0.00875,-0.34662 -0.31074,-0.89162 -0.03759,-1.04015c0.54801,-0.29799 1.23928,0.04657 1.85749,0.0508c4.26616,0.02931 9.38306,0.58942 12.07119,4.9392z" data-paper-data="{&quot;noHover&quot;:false,&quot;origItem&quot;:[&quot;Path&quot;,{&quot;applyMatrix&quot;:true,&quot;segments&quot;:[[[657.04642,381.49437],[0,0],[4.62661,9.90368]],[[683.36858,395.78934],[-9.97259,-1.50293],[1.44514,0.21779]],[[687.69104,396.5235],[-1.39648,0.43093],[0.69604,-0.21479]],[[687.99997,394.36016],[-0.11213,0.71975],[0.38164,-2.4498]],[[688.92201,388.14704],[-0.14482,1.81148],[-0.55534,-0.70664]],[[688.1125,386.80499],[0,0],[-1.0114,-2.52849]],[[685.00235,379.34017],[1.06204,2.45139],[-0.45725,-0.5747]],[[684.03792,377.13874],[0.11497,0.89292],[-4.92546,-11.1202]],[[667.67276,344.73829],[5.98483,10.79863],[-2.62594,-4.73807]],[[657.31503,326.50353],[-0.21166,5.70793],[0.11222,-3.02632]],[[661.08161,318.2359],[-1.96776,2.30198],[0.77141,-0.90243]],[[674.13622,310.17835],[-1.58787,1.05821],[6.8829,-4.587]],[[693.13166,294.7216],[-6.57368,4.93026],[2.60189,-2.60189]],[[702.61288,286.44017],[-2.60189,2.60189],[3.99202,-3.99202]],[[713.57123,273.04664],[-3.99918,3.99409],[2.82019,-2.8166]],[[721.87737,262.64306],[-0.6213,4.65927],[0.1454,-1.09041]],[[720.77921,259.53094],[0.30521,1.05687],[-1.6289,-5.64052]],[[703.88827,244.52507],[6.76412,-5.03876],[0,0]],[[701.16079,248.46027],[0,0],[-20.21351,20.21351]],[[636.04404,302.53496],[23.91098,-15.92721],[-5.31112,4.24538]],[[620.54007,315.66967],[5.17134,-4.38641],[-1.13297,0.961]],[[617.38854,318.82119],[1.16859,-0.91735],[-0.71824,0.56382]],[[614.94591,320.06111],[-0.10883,-0.9066],[0.11639,0.9695]],[[617.66749,321.14479],[-0.63125,-0.74498],[3.89793,4.60022]],[[627.63949,338.54218],[-3.13622,-5.22739],[8.01997,13.36755]],[[653.38438,378.67981],[-6.6356,-14.27295],[2.44136,0.3732]]],&quot;closed&quot;:true}]}" fill="#ffffff"/></g></g></g></g></svg>