<svg version="1.1" xmlns="http://www.w3.org/2000/svg" xmlns:xlink="http://www.w3.org/1999/xlink" width="30.15549" height="21.82165" viewBox="0,0,30.15549,21.82165"><g transform="translate(-224.86822,-169.82874)"><g data-paper-data="{&quot;isPaintingLayer&quot;:true}" stroke-linejoin="miter" stroke-miterlimit="10" stroke-dasharray="" stroke-dashoffset="0" style="mix-blend-mode: normal"><g data-paper-data="{&quot;index&quot;:null}" fill-rule="nonzero" stroke="none" stroke-width="0.5" stroke-linecap="butt"><path d="M234.38026,184.88452c0.41,-0.05382 0.67136,-0.19065 0.99826,-0.40818c0.0619,-0.04119 0.18079,-0.04681 0.19317,-0.11372c0.01234,-0.06664 -0.11915,-0.08586 -0.14479,-0.14772c-0.0663,-0.16 0.02468,-0.42676 -0.14952,-0.49598c-0.17732,-0.07046 -0.39077,0.07288 -0.58539,0.1132c-0.61014,0.12642 -0.70385,0.1446 -0.81816,0.70652c0,0 -0.0305,0.13591 -0.14882,0.22137c0.19841,0.1334 0.36755,0.16228 0.65526,0.12451zM233.252,183.93243c0.2602,-0.54068 0.73259,-0.64088 1.30348,-0.75916c0.00688,-0.00143 0.01387,-0.00289 0.02097,-0.0044c-0.36193,-0.27226 -0.59284,-0.64581 -0.51504,-1.10342c0.02704,-0.15908 0.18744,-0.28047 0.28116,-0.4207l0.07416,-0.09903c0,0 0.06646,-0.08874 0.17899,-0.13705c1.17177,-1.57699 2.16905,-3.16916 2.99605,-4.91481c0.28957,-0.49215 0.62065,-1.1994 1.05044,-1.61301c0.17237,-0.16587 0.32493,-0.39721 0.56745,-0.45171c0.19137,-0.043 0.34537,0.14876 0.52648,0.20589c0.28395,0.08958 0.58421,0.13865 0.87083,0.22199c0.71795,0.20874 1.44316,0.41011 2.14521,0.65519c0.7888,0.27538 1.48653,0.62306 2.37057,0.62938c0,0 0.37823,0.00495 0.35402,0.34328c-0.00326,0.04565 -0.01297,0.08505 -0.02733,0.11904c0.58504,0.3833 1.00171,0.99492 1.15793,1.6306c0.05522,0.22468 0.16995,0.46559 0.08571,0.6892c-0.07224,0.19173 -0.31103,0.30674 -0.50271,0.41759c-0.53836,0.31134 -1.08966,0.35403 -1.66425,0.24173l-0.15563,-0.12324c-0.66729,-0.08489 -1.34122,-0.1803 -1.96593,-0.37252c-0.4363,-0.13424 -0.89418,-0.25494 -1.32661,-0.40159c-0.20204,-0.06851 -0.36993,-0.25222 -0.58975,-0.23766c-0.18749,0.01242 -0.16925,0.30685 -0.2326,0.46704c-0.28958,0.73218 -0.75434,1.34773 -1.13195,2.0398c-0.13778,0.18398 -0.37923,0.61028 -0.51701,0.79425c-0.24348,0.32513 -0.60562,0.60426 -0.84904,0.92889c-0.27877,0.37176 -0.53789,0.81875 -1.06901,0.98937c-0.16315,0.05241 -0.34177,0.01308 -0.51248,0.01432c-0.03044,0.00023 -0.06134,-0.00021 -0.09264,-0.0013c0.01773,0.09151 0.03387,0.19097 0.06678,0.30069c0.04656,0.15521 0.21301,0.2965 0.16975,0.45641c-0.21197,0.78359 -1.71625,1.26946 -2.46894,1.12856c-0.61211,-0.1146 -0.60897,-0.28186 -0.944,-0.70369l0.12392,-0.51398c0,0 0.0395,-0.12303 0.15336,-0.20079c0.01483,-0.0736 0.03442,-0.14604 0.06768,-0.21514zM244.18832,176.72417c-1.15478,-0.21668 -2.23795,-0.75422 -3.34412,-1.0761c-0.43257,-0.12587 -1.03708,-0.20248 -1.43328,-0.38823c-0.06417,-0.03008 -0.04407,-0.16987 -0.11795,-0.16257c-0.06909,0.00683 -0.02688,0.12405 -0.05911,0.18008c-0.05245,0.09116 -0.13577,0.16684 -0.19196,0.25632c-0.25646,0.40847 -0.52365,0.80887 -0.76769,1.22437c-0.86114,1.82139 -1.91175,3.48148 -3.14295,5.1255l-0.25618,0.2405c-0.28336,0.52348 0.90663,0.86083 1.34943,0.88101c0.08297,0.00378 0.16771,0.05069 0.24703,0.02427c0.33891,-0.11291 0.4908,-0.47864 0.66231,-0.70795c0.24321,-0.32519 0.60589,-0.60421 0.84904,-0.92889c0.15848,-0.21161 0.32956,-0.54098 0.48804,-0.7526c0.27787,-0.50926 0.64511,-0.96594 0.89316,-1.49027c0.05722,-0.12096 0.36581,-0.9198 0.42257,-0.98456c0.14478,-0.1652 0.34091,-0.32173 0.56502,-0.37588c0.4227,-0.10212 1.11187,0.30089 1.50099,0.4007c0.88685,0.22748 1.74282,0.42494 2.63918,0.57766c0.06815,-0.00622 0.12821,0.00828 0.1773,0.02953c0.19727,0.0321 0.39671,0.06202 0.59904,0.08958c0,0 0.05085,0.00693 0.11111,0.0326c0.13309,-0.03752 0.27322,-0.09374 0.45067,-0.15673c0.05213,-0.01851 0.15057,-0.00459 0.15708,-0.05377c0.01307,-0.09867 -0.07777,-0.1816 -0.11374,-0.27344c-0.24819,-0.63381 -0.62358,-1.36153 -1.42516,-1.51336c0,0 -0.19869,-0.04272 -0.25984,-0.1978z" fill="#525252"/><path d="M233.71825,184.76334c0.11832,-0.08546 0.14828,-0.22259 0.14828,-0.22259c0.11432,-0.56191 0.21655,-0.58895 0.8267,-0.71537c0.19461,-0.04032 0.41232,-0.18186 0.58964,-0.11139c0.17419,0.06922 0.08528,0.33987 0.15159,0.49987c0.02563,0.06187 0.15713,0.08239 0.14479,0.14903c-0.01238,0.06691 -0.13149,0.07365 -0.1934,0.11485c-0.32689,0.21752 -0.59814,0.35942 -1.00815,0.41324c-0.28771,0.03777 -0.46104,0.00575 -0.65945,-0.12764z" data-paper-data="{&quot;noHover&quot;:false,&quot;origItem&quot;:[&quot;Path&quot;,{&quot;applyMatrix&quot;:true,&quot;segments&quot;:[[[428.29653,249.70232],[2.53963,2.48528],[-0.88695,1.97961]],[[425.52357,252.53569],[0,0],[-7.83313,3.35814]],[[417.70827,266.57322],[0,-9.26089],[0,2.95396]],[[417.82607,275.4341],[-1.56019,-2.36818],[1.5327,2.32645]],[[425.49513,276.11458],[-2.5285,-0.4825],[0.97762,0.18656]],[[428.08169,277.77625],[-0.93268,0.38046],[0.93648,-0.38202]],[[429.15412,274.62198],[-0.41283,1.02512],[2.18006,-5.41338]],[[432.08448,258.86309],[0.45298,6.12931],[-0.31787,-4.30112]]],&quot;closed&quot;:true}]}" fill="#ffeb6e"/><path d="M244.45525,176.91923c0.80158,0.15182 1.17746,0.88204 1.42565,1.51585c0.03597,0.09185 0.1268,0.17512 0.11373,0.27378c-0.00651,0.04917 -0.10496,0.03534 -0.15709,0.05385c-0.17745,0.06299 -0.31759,0.11945 -0.45068,0.15697c-0.06026,-0.02567 -0.12619,-0.03341 -0.12619,-0.03341c-0.20233,-0.02757 -0.40177,-0.05739 -0.59904,-0.08949c-0.04909,-0.02125 -0.10917,-0.03571 -0.17732,-0.02949c-0.89637,-0.15272 -1.7522,-0.34819 -2.63904,-0.57567c-0.38912,-0.09981 -1.07344,-0.4981 -1.49614,-0.39597c-0.22411,0.05415 -0.41456,0.21022 -0.55934,0.37542c-0.05676,0.06476 -0.3627,0.85295 -0.41992,0.97391c-0.24805,0.52433 -0.61667,0.97994 -0.89454,1.4892c-0.15848,0.21161 -0.3382,0.55247 -0.49668,0.76408c-0.24316,0.32468 -0.606,0.6036 -0.84921,0.92878c-0.1715,0.22932 -0.3235,0.59499 -0.66241,0.7079c-0.07932,0.02642 -0.16428,-0.02063 -0.24724,-0.02442c-0.44279,-0.02018 -1.6342,-0.35882 -1.35084,-0.8823l0.25613,-0.24054c1.2312,-1.64401 2.28328,-3.3133 3.14442,-5.1347c0.24404,-0.4155 0.51394,-0.81726 0.7704,-1.22573c0.05618,-0.08949 0.14001,-0.16529 0.19245,-0.25645c0.03223,-0.05603 -0.0098,-0.17329 0.05928,-0.18012c0.07387,-0.00731 0.05395,0.13245 0.11811,0.16253c0.39621,0.18574 1.00376,0.26235 1.43633,0.38822c1.10617,0.32188 2.19439,0.86293 3.34916,1.07961c0.06115,0.15508 0.26004,0.1982 0.26004,0.1982z" data-paper-data="{&quot;noHover&quot;:false,&quot;origItem&quot;:[&quot;Path&quot;,{&quot;applyMatrix&quot;:true,&quot;segments&quot;:[[[657.04642,381.49437],[0,0],[4.62661,9.90368]],[[683.36858,395.78934],[-9.97259,-1.50293],[1.44514,0.21779]],[[687.69104,396.5235],[-1.39648,0.43093],[0.69604,-0.21479]],[[687.99997,394.36016],[-0.11213,0.71975],[0.38164,-2.4498]],[[688.92201,388.14704],[-0.14482,1.81148],[-0.55534,-0.70664]],[[688.1125,386.80499],[0,0],[-1.0114,-2.52849]],[[685.00235,379.34017],[1.06204,2.45139],[-0.45725,-0.5747]],[[684.03792,377.13874],[0.11497,0.89292],[-4.92546,-11.1202]],[[667.67276,344.73829],[5.98483,10.79863],[-2.62594,-4.73807]],[[657.31503,326.50353],[-0.21166,5.70793],[0.11222,-3.02632]],[[661.08161,318.2359],[-1.96776,2.30198],[0.77141,-0.90243]],[[674.13622,310.17835],[-1.58787,1.05821],[6.8829,-4.587]],[[693.13166,294.7216],[-6.57368,4.93026],[2.60189,-2.60189]],[[702.61288,286.44017],[-2.60189,2.60189],[3.99202,-3.99202]],[[713.57123,273.04664],[-3.99918,3.99409],[2.82019,-2.8166]],[[721.87737,262.64306],[-0.6213,4.65927],[0.1454,-1.09041]],[[720.77921,259.53094],[0.30521,1.05687],[-1.6289,-5.64052]],[[703.88827,244.52507],[6.76412,-5.03876],[0,0]],[[701.16079,248.46027],[0,0],[-20.21351,20.21351]],[[636.04404,302.53496],[23.91098,-15.92721],[-5.31112,4.24538]],[[620.54007,315.66967],[5.17134,-4.38641],[-1.13297,0.961]],[[617.38854,318.82119],[1.16859,-0.91735],[-0.71824,0.56382]],[[614.94591,320.06111],[-0.10883,-0.9066],[0.11639,0.9695]],[[617.66749,321.14479],[-0.63125,-0.74498],[3.89793,4.60022]],[[627.63949,338.54218],[-3.13622,-5.22739],[8.01997,13.36755]],[[653.38438,378.67981],[-6.6356,-14.27295],[2.44136,0.3732]]],&quot;closed&quot;:true}]}" fill="#0e0d0c"/></g><g data-paper-data="{&quot;index&quot;:null}" fill-rule="nonzero" stroke="none" stroke-width="0.5" stroke-linecap="butt"><path d="M232.36343,176.86756c0.00522,0.00779 0.01014,0.0155 0.0148,0.02313c0.20308,0.04908 0.41061,0.04444 0.61465,0.04793c0.06965,0.00119 0.1589,0.08505 0.20917,0.04017c0.13182,-0.11767 0.03059,-0.37637 0.05616,-0.56211c-0.00208,-1.11393 0.30264,-2.11677 0.62318,-3.11286c0.07614,-0.23663 0.02928,-0.5162 0.10376,-0.75356c0.03366,-0.10727 0.14637,-0.17437 0.16201,-0.28789c0.01564,-0.11352 -0.07223,-0.23223 -0.07432,-0.34884c-0.00708,-0.39479 0.13662,-0.86614 0.22912,-1.2369c0.05177,-0.20752 0.01755,-0.50216 0.1918,-0.60773c0.35155,-0.21299 0.80267,0.14094 1.0962,0.32146l0.07378,0.04636c0.24555,-0.09002 0.42173,0.17263 0.42173,0.17263c0.45594,0.67977 0.93435,1.35206 1.37108,2.04419c0.11534,0.18279 0.2967,0.34913 0.33015,0.55787c0.08284,0.51696 -0.19022,0.57319 -0.30679,0.94614c-0.0778,0.2489 -0.14194,0.50431 -0.23496,0.746c-0.45525,1.18284 -0.74184,2.39202 -1.30815,3.49925c-0.12557,0.44258 -0.18332,1.12915 -0.67467,1.30339c-0.1599,0.0567 -0.34985,-0.06274 -0.52504,-0.08731c-0.41721,-0.05853 -0.85429,-0.11692 -1.27088,-0.1387c-1.06041,-0.05542 -2.11954,-0.02244 -3.18482,0.05142c0.02896,0.03992 0.05788,0.07943 0.08767,0.11694c0.40204,0.50614 1.02205,1.35547 0.93233,2.02413c-0.06718,0.50068 -0.5865,1.04705 -1.10237,1.00151c-0.16183,-0.01429 -0.29155,-0.18236 -0.44664,-0.24783c-0.10852,-0.04581 -0.22669,-0.04389 -0.33698,-0.08296c-0.71156,-0.25211 -0.91444,-0.69277 -1.41269,-1.20853c-0.11759,-0.12173 -0.2887,-0.1748 -0.40373,-0.29917c-0.30841,-0.33345 -0.57301,-0.74129 -0.77605,-1.16585c-0.03917,-0.03836 -0.0611,-0.07107 -0.0611,-0.07107c-0.22388,-0.34597 -0.5815,-0.74111 -0.36785,-1.19971c0.08834,-0.18963 0.36161,-0.18755 0.53659,-0.29123c0.23353,-0.13837 0.4701,-0.27834 0.72982,-0.36381c0.08351,-0.02748 0.1682,-0.05152 0.2538,-0.07291c0.0364,-0.03206 0.0723,-0.06464 0.10782,-0.09757c0.11025,0.00653 0.22413,0.00684 0.34515,-0.0072c0.10016,-0.01163 0.19506,-0.02985 0.28668,-0.05232c0.00707,0.00611 0.01418,0.01215 0.02134,0.01811c0.30533,-0.04411 0.61145,-0.08432 0.90652,-0.15347c0.44374,-0.10399 0.86695,-0.27082 1.29873,-0.41038c0.00274,-0.00947 0.00537,-0.01897 0.00791,-0.02851c0.27092,-0.06141 0.54053,-0.12926 0.80767,-0.21255c0.03226,0.00694 0.06448,0.01398 0.09665,0.02113c0.04903,-0.00638 0.09838,-0.01174 0.14811,-0.01595l-0.08144,0.00521c0,0 0.28757,-0.19288 0.50412,0.12998zM229.80467,178.1146c-0.49019,0.11735 -0.99633,0.14597 -1.49463,0.23615c-0.19979,0.14909 -0.43846,0.24606 -0.62672,0.41056c-0.13593,0.11879 -0.26689,0.25977 -0.43472,0.32489c0.02936,0.04233 0.05863,0.08472 0.08835,0.12679c0,0 0.00131,0.00194 0.00358,0.00563c0.30258,0.30786 0.44873,0.80649 0.74129,1.11613c0.1163,0.12309 0.28637,0.17719 0.40373,0.29917c0.25712,0.26723 0.42171,0.65707 0.75077,0.8657c0.29612,0.18775 0.41085,0.09019 0.72939,0.23621c0.09504,0.04357 0.15812,0.15722 0.25535,0.19326c0.25104,0.09306 0.36384,-0.53206 0.3107,-0.67912c-0.19873,-0.54992 -0.58258,-1.03494 -0.97787,-1.49119l-0.00037,0.00073l-0.34451,-0.21648c-0.05114,-0.03075 -0.09732,-0.07387 -0.13369,-0.1281c-0.1196,-0.17831 -0.08781,-0.40922 0.07102,-0.51575c0.0483,-0.0324 0.10279,-0.04955 0.1586,-0.05273l0.37846,-0.03007c0.82523,-0.06556 1.66671,-0.00702 2.48214,-0.07291c0.12662,-0.01023 0.23024,-0.10869 0.35804,-0.11083c0.14032,-0.00235 0.27994,0.08268 0.42133,0.09777c0.60673,0.0647 1.23144,0.0084 1.84184,0.14788c0.07447,0.01702 0.13738,0.10552 0.21153,0.10261c0.03945,-0.00154 0.0291,-0.07397 0.0402,-0.1125c0.07775,-0.26992 0.14905,-0.54249 0.22755,-0.81211c0.55802,-1.11281 0.85056,-2.31548 1.30815,-3.49924c0.08725,-0.22571 0.14491,-0.46542 0.21811,-0.69781c0.06681,-0.21212 0.33429,-0.36144 0.28633,-0.5916c-0.02019,-0.09688 -0.13794,-0.14688 -0.19719,-0.22836c-0.1299,-0.17862 -0.24609,-0.36691 -0.36914,-0.55036c-0.26953,-0.40185 -0.53906,-0.8037 -0.80859,-1.20555c-0.05031,-0.01784 -0.08345,-0.03867 -0.08345,-0.03867l-0.351,-0.22055c-0.0801,-0.05178 -0.16703,-0.09306 -0.24422,-0.1493c0.05902,0.31009 -0.23917,0.88232 -0.23235,1.10328c0.00481,0.15573 0.08829,0.31661 0.06744,0.46803c-0.02085,0.15142 -0.14239,0.25926 -0.1873,0.40236c-0.07449,0.23736 -0.03072,0.51558 -0.10377,0.75356c-0.0385,0.12543 -0.13451,0.2204 -0.17465,0.34512c-0.07614,0.23663 -0.03072,0.51558 -0.10377,0.75356c-0.1891,0.61601 -0.31543,1.15894 -0.31414,1.84754c-0.03992,0.28986 -0.08577,0.85464 -0.29143,1.03894c-0.2837,0.25423 -1.07957,0.11563 -1.43117,0.02677c-0.14925,-0.03772 -0.29783,-0.07099 -0.44595,-0.10049c-0.69144,0.1117 -1.32741,0.43928 -2.00324,0.60107z" fill="#525252"/><path d="M231.81212,177.50794c0.14812,0.02951 0.29405,0.06124 0.4433,0.09896c0.35161,0.08886 1.13987,0.22987 1.42357,-0.02435c0.20566,-0.18429 0.25046,-0.74393 0.29038,-1.03379c-0.00128,-0.6886 0.12737,-1.2269 0.31647,-1.84291c0.07306,-0.23798 0.02831,-0.5163 0.10446,-0.75292c0.04013,-0.12472 0.13623,-0.21962 0.17473,-0.34505c0.07306,-0.23798 0.02974,-0.51587 0.10422,-0.75323c0.0449,-0.14309 0.16648,-0.2509 0.18733,-0.40232c0.02085,-0.15143 -0.0623,-0.31209 -0.0671,-0.46782c-0.00682,-0.22097 0.29166,-0.79303 0.23263,-1.10312c0.07719,0.05623 0.17021,0.08464 0.2503,0.13643l0.35138,0.22081c0,0 0.03323,0.02088 0.08354,0.03872c0.26953,0.40185 0.54027,0.80476 0.8098,1.20661c0.12304,0.18345 0.23976,0.37234 0.36965,0.55096c0.05926,0.08148 0.17721,0.13178 0.1974,0.22866c0.04797,0.23017 -0.21928,0.37983 -0.28609,0.59195c-0.07319,0.23238 -0.13049,0.4727 -0.21775,0.69841c-0.4576,1.18376 -0.74959,2.39298 -1.30761,3.50579c-0.0785,0.26961 -0.1507,0.54382 -0.22846,0.81375c-0.0111,0.03853 -0.0009,0.11114 -0.04035,0.1127c-0.07416,0.00292 -0.13718,-0.08546 -0.21164,-0.10248c-0.6104,-0.13949 -1.23896,-0.08111 -1.84569,-0.1458c-0.14139,-0.01508 -0.2825,-0.10007 -0.42282,-0.09771c-0.1278,0.00214 -0.23266,0.10037 -0.35928,0.1106c-0.81543,0.0659 -1.66133,0.00433 -2.48657,0.0699l-0.37867,0.02976c-0.05581,0.00318 -0.09889,0.01248 -0.1472,0.04488c-0.15882,0.10653 -0.19098,0.33694 -0.07138,0.51525c0.03637,0.05423 0.08238,0.09712 0.13351,0.12787l0.34408,0.216l0.00037,-0.00072c0.39528,0.45623 0.77715,0.93976 0.97588,1.48968c0.05315,0.14706 -0.06522,0.78536 -0.31626,0.6923c-0.09723,-0.03604 -0.16064,-0.1499 -0.25568,-0.19347c-0.31853,-0.14602 -0.43403,-0.04898 -0.73015,-0.23673c-0.32906,-0.20863 -0.49464,-0.59939 -0.75177,-0.86662c-0.11736,-0.12198 -0.28784,-0.17655 -0.40413,-0.29963c-0.29256,-0.30964 -0.43959,-0.80962 -0.74218,-1.11748c-0.00227,-0.00369 -0.00359,-0.00564 -0.00359,-0.00564c-0.02971,-0.04207 -0.05907,-0.08463 -0.08842,-0.12696c0.16783,-0.06512 0.29871,-0.20623 0.43465,-0.32502c0.18827,-0.1645 0.43972,-0.26694 0.63951,-0.41603c0.4983,-0.09018 1.00407,-0.11952 1.49426,-0.23687c0.67583,-0.16179 1.30995,-0.4916 2.00139,-0.60331z" data-paper-data="{&quot;noHover&quot;:false,&quot;origItem&quot;:[&quot;Path&quot;,{&quot;applyMatrix&quot;:true,&quot;segments&quot;:[[[443.00711,690.71721],[3.11369,-6.18565],[-2.2584,4.48652]],[[434.82177,703.75356],[2.60664,-4.40676],[0.16107,2.36427]],[[434.71713,710.86786],[-0.4084,-2.35489],[0.29489,1.70038]],[[435.07295,716.01475],[0.5068,-1.66805],[0.66246,-0.00766]],[[437.06015,715.98872],[-0.6622,0.01179],[0,0]],[[437.14603,715.99026],[-0.05569,-0.00154],[5.45612,-0.75779]],[[454.37852,716.04805],[-5.40326,0.66938],[2.14787,-0.26609]],[[460.46649,714.4466],[-2.14367,0.28035],[4.69648,-0.61421]],[[475.09189,713.10498],[-4.58593,1.4915],[4.12686,-1.3422]],[[482.84036,708.60214],[-3.84168,1.73971],[1.1463,-0.51911]],[[486.73408,707.6107],[-1.08151,0.5761],[2.79248,-1.4875]],[[481.70604,701.56821],[1.95157,0.35876],[-7.29763,-1.34152]],[[458.7726,701.39231],[7.70509,-0.70404],[0,0]],[458.77772,701.39905],[[453.99731,702.97091],[0,0],[-0.69482,0.24057]],[[451.67128,703.34763],[0.83979,0],[-2.76142,0]],[[446.67128,700.05949],[0,1.81599],[0,-0.55227]],[[447.24413,698.52983],[-0.36581,0.45693],[0,0]],[[449.63433,695.3861],[0,0],[5.21183,-6.85488]],[[466.63809,675.42537],[-5.13805,6.77932],[0.79786,-1.05273]],[[468.01938,672.01556],[-0.89274,1.01925],[0.98017,-1.11906]],[[472.08213,669.20989],[-1.17395,1.03527],[5.03779,-4.44267]],[[486.85702,655.46676],[-5.86295,4.07605],[0.71521,-0.49723]],[[489.46849,654.34127],[-0.50014,0.60023],[0.26603,-0.31927]],[[488.55479,653.42924],[0.33201,0.29132],[-2.32609,-2.04099]],[[481.51066,647.33898],[2.3175,2.04521],[-7.88843,-10.287]],[[453.50599,618.51294],[9.36575,9.87034],[-1.78576,-1.88197]],[[447.61507,613.10181],[1.95784,1.80644],[-1.78711,-1.64891]],[[443.34724,607.71442],[2.80217,0.83921],[-1.17942,-0.35322]],[[439.49534,608.06155],[1.29479,-0.03632],[-2.83847,0.07962]],[[430.97218,608.06155],[2.84105,0],[-6.22326,0]],[[412.30241,608.06155],[6.22326,0],[-0.55103,0.30239]],[411.29156,608.51514],[[406.42118,610.11659],[0,0],[-1.12691,0.35775]],[[403.07668,611.25284],[1.15365,-0.31126],[3.73508,1.17475]],[[413.19664,618.92113],[-2.40909,-1.11502],[1.69781,0.78581]],[[418.67899,620.86499],[-1.46806,-0.96543],[1.46806,0.96543]],[[421.63486,624.47034],[-1.20673,-1.11101],[2.00171,1.84293]],[[428.94042,629.27468],[-2.01857,-1.83496],[1.06388,0.96711]],[[431.37561,632.47757],[-1.04459,-0.97616],[1.98197,1.85214]],[[438.68117,637.28191],[-2.01857,-1.83496],[5.22497,4.74971]],[[456.16488,649.53206],[-7.36442,-3.63228],[2.81011,1.84801]],[[465.17423,657.32586],[-0.4951,-2.59676],[0.68297,3.58211]],[[455.20681,668.75418],[3.46813,-2.30284],[-1.47217,0.97752]],[[450.93856,671.73959],[1.37628,-1.01203],[-3.76048,6.04374]]],&quot;closed&quot;:true}]}" fill="#0e0d0c"/></g><g data-paper-data="{&quot;index&quot;:null}" fill-rule="nonzero" stroke="none" stroke-width="0.5" stroke-linecap="butt"><path d="M230.58441,177.09574c0.00269,0.01035 0.00516,0.02051 0.00738,0.03051c0.16529,0.11882 0.34727,0.17901 0.52426,0.24719c0.06041,0.02327 0.1182,0.14511 0.17271,0.11078c0.14293,-0.08998 0.11638,-0.411 0.18294,-0.61052c0.2637,-1.24557 0.7683,-2.27032 1.28508,-3.28257c0.12276,-0.24046 0.14856,-0.56767 0.27005,-0.80947c0.0549,-0.10927 0.16913,-0.14878 0.20981,-0.27072c0.04068,-0.12193 -0.0076,-0.28227 0.01837,-0.41325c0.08793,-0.44343 0.32552,-0.92496 0.49451,-1.31018c0.09458,-0.21562 0.13499,-0.55567 0.31202,-0.61877c0.35715,-0.12729 0.66595,0.41036 0.87874,0.70457l0.05324,0.07504c0.23547,-0.02327 0.3264,0.32577 0.3264,0.32577c0.23533,0.90332 0.49203,1.80536 0.70768,2.71645c0.05695,0.24062 0.17537,0.48364 0.15476,0.72745c-0.05102,0.60385 -0.30241,0.58066 -0.49289,0.96075c-0.12713,0.25366 -0.24391,0.5189 -0.38259,0.75971c-0.6787,1.17853 -1.21668,2.4396 -1.97415,3.49862c-0.21493,0.45506 -0.42892,1.20417 -0.89867,1.24412c-0.15287,0.01299 -0.28995,-0.18031 -0.43677,-0.26296c-0.34966,-0.19683 -0.71667,-0.39978 -1.07454,-0.55534c-0.91096,-0.39597 -1.84188,-0.69274 -2.78789,-0.94577c0.01573,0.05373 0.03151,0.10701 0.04853,0.15831c0.22974,0.6923 0.56765,1.8368 0.33008,2.55582c-0.17789,0.53839 -0.76071,0.98542 -1.19945,0.77202c-0.13764,-0.06695 -0.21063,-0.29565 -0.33019,-0.41767c-0.08366,-0.08538 -0.18711,-0.12046 -0.27391,-0.19887c-0.56005,-0.5059 -0.63183,-1.06227 -0.94313,-1.79564c-0.07347,-0.17309 -0.20994,-0.28629 -0.28054,-0.46152c-0.1893,-0.46981 -0.32269,-1.00895 -0.39845,-1.54739c-0.02499,-0.05522 -0.03632,-0.09867 -0.03632,-0.09867c-0.11265,-0.45717 -0.33014,-1.01142 -0.03463,-1.45666c0.12219,-0.1841 0.35985,-0.0957 0.53706,-0.15645c0.23651,-0.08108 0.47604,-0.16299 0.72277,-0.17669c0.07933,-0.0044 0.15887,-0.00458 0.23858,-0.00153c0.03937,-0.02436 0.07841,-0.04946 0.11722,-0.07507c0.09453,0.04203 0.19371,0.07824 0.30253,0.10066c0.09006,0.01856 0.17712,0.02808 0.26232,0.03183c0.00471,0.00905 0.00947,0.01805 0.01428,0.02697c0.27661,0.04688 0.55299,0.09838 0.82663,0.11405c0.41152,0.02355 0.82012,-0.02957 1.22969,-0.04953c0.00464,-0.00972 0.0092,-0.01951 0.01369,-0.02937c0.25074,0.01672 0.50189,0.02581 0.75456,0.01687c0.02647,0.01791 0.05286,0.03594 0.07919,0.05406c0.04425,0.00832 0.08855,0.01788 0.13289,0.02883l-0.07221,-0.01984c0,0 0.2966,-0.12498 0.40837,0.30406zM228.05716,177.68339c-0.45518,-0.02327 -0.90311,-0.15071 -1.35888,-0.20689c-0.20967,0.10369 -0.44079,0.13688 -0.64407,0.26142c-0.14679,0.08993 -0.29451,0.20624 -0.4563,0.22615c0.0155,0.05656 0.0309,0.11315 0.04677,0.16953c0,0 0.00068,0.00259 0.00178,0.00743c0.19032,0.43938 0.19884,1.04268 0.38001,1.48087c0.07201,0.17419 0.20734,0.28824 0.28055,0.46153c0.16039,0.37965 0.21091,0.86716 0.44796,1.20398c0.21332,0.3031 0.33657,0.23022 0.57938,0.49374c0.07245,0.07863 0.10033,0.22552 0.17647,0.29643c0.1966,0.18308 0.44391,-0.48001 0.43265,-0.6611c-0.04212,-0.67719 -0.26105,-1.34015 -0.49679,-1.97455l-0.00049,0.00069l-0.24865,-0.35045c-0.03724,-0.05048 -0.06721,-0.11321 -0.08598,-0.18527c-0.06173,-0.23695 0.02102,-0.48499 0.18482,-0.55401c0.04981,-0.02099 0.10139,-0.023 0.15079,-0.00898l0.337,0.08561c0.73484,0.18668 1.45424,0.51718 2.18061,0.7004c0.1128,0.02846 0.22655,-0.04894 0.33845,-0.01108c0.12285,0.04157 0.22427,0.1806 0.34389,0.24198c0.51335,0.26343 1.07122,0.3973 1.56995,0.74546c0.06083,0.04247 0.09457,0.1612 0.1599,0.18131c0.03474,0.01069 0.04298,-0.07351 0.06184,-0.11307c0.1321,-0.27717 0.25922,-0.55933 0.39189,-0.83591c0.75157,-1.06787 1.29319,-2.31982 1.97415,-3.49862c0.12984,-0.22476 0.23723,-0.4745 0.3564,-0.71115c0.10879,-0.21602 0.37749,-0.29863 0.39055,-0.57097c0.00549,-0.11463 -0.08519,-0.20761 -0.11741,-0.31733c-0.07064,-0.24053 -0.12702,-0.48757 -0.19053,-0.73135c-0.13912,-0.534 -0.27823,-1.068 -0.41735,-1.60201c-0.03959,-0.03579 -0.06351,-0.0695 -0.06351,-0.0695l-0.25333,-0.35704c-0.05746,-0.0831 -0.12339,-0.15664 -0.17726,-0.2438c-0.02247,0.36515 -0.41875,0.91072 -0.46547,1.15982c-0.03293,0.17556 0.00149,0.38164 -0.05279,0.54431c-0.05426,0.16267 -0.18589,0.24489 -0.25913,0.39067c-0.12149,0.2418 -0.14966,0.56652 -0.27005,0.80947c-0.06345,0.12805 -0.16977,0.20396 -0.23447,0.33069c-0.12276,0.24046 -0.14966,0.56652 -0.27005,0.80947c-0.31164,0.62887 -0.55113,1.19585 -0.71415,1.96583c-0.10387,0.31137 -0.27846,0.92811 -0.50163,1.06929c-0.30784,0.19475 -0.96842,-0.21085 -1.25367,-0.42092c-0.12108,-0.08918 -0.24265,-0.17315 -0.3647,-0.25278c-0.62922,-0.09297 -1.26156,0.07279 -1.88913,0.04071z" fill="#525252"/><path d="M229.9513,177.63775c0.12205,0.07963 0.24168,0.16106 0.36276,0.25023c0.28525,0.21007 0.93863,0.61597 1.24648,0.42122c0.22316,-0.14118 0.3956,-0.75251 0.49948,-1.06388c0.16302,-0.76998 0.40345,-1.33103 0.71508,-1.9599c0.1204,-0.24295 0.14774,-0.56809 0.2705,-0.80855c0.0647,-0.12673 0.17108,-0.20254 0.23453,-0.33058c0.1204,-0.24295 0.14888,-0.56715 0.27036,-0.80896c0.07324,-0.14577 0.20489,-0.22795 0.25916,-0.39061c0.05426,-0.16266 0.02009,-0.36841 0.05302,-0.54396c0.04673,-0.2491 0.44321,-0.7944 0.46568,-1.15955c0.05387,0.08716 0.12816,0.14821 0.18562,0.23131l0.25361,0.35746c0,0 0.02398,0.03381 0.06357,0.06959c0.13912,0.534 0.27903,1.06957 0.41815,1.60358c0.0635,0.24379 0.1202,0.49165 0.19083,0.73219c0.03222,0.10972 0.12303,0.20309 0.11754,0.31772c-0.01306,0.27234 -0.28164,0.35542 -0.39042,0.57144c-0.11918,0.23666 -0.22641,0.48718 -0.35625,0.71194c-0.68096,1.1788 -1.22367,2.43823 -1.97523,3.5061c-0.13268,0.27659 -0.26096,0.56029 -0.39307,0.83746c-0.01886,0.03956 -0.02728,0.12393 -0.06202,0.11323c-0.06533,-0.0201 -0.09919,-0.13872 -0.16003,-0.1812c-0.49873,-0.34816 -1.06044,-0.48091 -1.5738,-0.74434c-0.11963,-0.06139 -0.22236,-0.20082 -0.34521,-0.2424c-0.1119,-0.03787 -0.2267,0.03889 -0.33949,0.01044c-0.72637,-0.18322 -1.44891,-0.51848 -2.18374,-0.70516l-0.33713,-0.08602c-0.04939,-0.01403 -0.08916,-0.0172 -0.13897,0.00378c-0.1638,0.06902 -0.24675,0.3164 -0.18502,0.55335c0.01877,0.07206 0.04863,0.13448 0.08587,0.18496l0.24839,0.34979l0.0005,-0.0007c0.23575,0.6344 0.4533,1.29506 0.49542,1.97224c0.01126,0.1811 -0.24403,0.85717 -0.44063,0.67409c-0.07614,-0.07091 -0.10428,-0.21813 -0.17673,-0.29676c-0.2428,-0.26352 -0.36659,-0.19146 -0.57991,-0.49456c-0.23705,-0.33683 -0.28823,-0.82569 -0.44862,-1.20534c-0.07321,-0.17329 -0.20878,-0.28797 -0.28079,-0.46216c-0.18116,-0.4382 -0.19014,-1.04329 -0.38046,-1.48267c-0.0011,-0.00484 -0.00178,-0.00743 -0.00178,-0.00743c-0.01587,-0.05637 -0.03131,-0.11318 -0.04681,-0.16974c0.16179,-0.01991 0.30949,-0.13639 0.45628,-0.22632c0.20328,-0.12455 0.44684,-0.15982 0.65651,-0.26351c0.45577,0.05618 0.90356,0.1827 1.35874,0.20597c0.62757,0.03207 1.25882,-0.13676 1.88804,-0.04379z" data-paper-data="{&quot;noHover&quot;:false,&quot;origItem&quot;:[&quot;Path&quot;,{&quot;applyMatrix&quot;:true,&quot;segments&quot;:[[[443.00711,690.71721],[3.11369,-6.18565],[-2.2584,4.48652]],[[434.82177,703.75356],[2.60664,-4.40676],[0.16107,2.36427]],[[434.71713,710.86786],[-0.4084,-2.35489],[0.29489,1.70038]],[[435.07295,716.01475],[0.5068,-1.66805],[0.66246,-0.00766]],[[437.06015,715.98872],[-0.6622,0.01179],[0,0]],[[437.14603,715.99026],[-0.05569,-0.00154],[5.45612,-0.75779]],[[454.37852,716.04805],[-5.40326,0.66938],[2.14787,-0.26609]],[[460.46649,714.4466],[-2.14367,0.28035],[4.69648,-0.61421]],[[475.09189,713.10498],[-4.58593,1.4915],[4.12686,-1.3422]],[[482.84036,708.60214],[-3.84168,1.73971],[1.1463,-0.51911]],[[486.73408,707.6107],[-1.08151,0.5761],[2.79248,-1.4875]],[[481.70604,701.56821],[1.95157,0.35876],[-7.29763,-1.34152]],[[458.7726,701.39231],[7.70509,-0.70404],[0,0]],[458.77772,701.39905],[[453.99731,702.97091],[0,0],[-0.69482,0.24057]],[[451.67128,703.34763],[0.83979,0],[-2.76142,0]],[[446.67128,700.05949],[0,1.81599],[0,-0.55227]],[[447.24413,698.52983],[-0.36581,0.45693],[0,0]],[[449.63433,695.3861],[0,0],[5.21183,-6.85488]],[[466.63809,675.42537],[-5.13805,6.77932],[0.79786,-1.05273]],[[468.01938,672.01556],[-0.89274,1.01925],[0.98017,-1.11906]],[[472.08213,669.20989],[-1.17395,1.03527],[5.03779,-4.44267]],[[486.85702,655.46676],[-5.86295,4.07605],[0.71521,-0.49723]],[[489.46849,654.34127],[-0.50014,0.60023],[0.26603,-0.31927]],[[488.55479,653.42924],[0.33201,0.29132],[-2.32609,-2.04099]],[[481.51066,647.33898],[2.3175,2.04521],[-7.88843,-10.287]],[[453.50599,618.51294],[9.36575,9.87034],[-1.78576,-1.88197]],[[447.61507,613.10181],[1.95784,1.80644],[-1.78711,-1.64891]],[[443.34724,607.71442],[2.80217,0.83921],[-1.17942,-0.35322]],[[439.49534,608.06155],[1.29479,-0.03632],[-2.83847,0.07962]],[[430.97218,608.06155],[2.84105,0],[-6.22326,0]],[[412.30241,608.06155],[6.22326,0],[-0.55103,0.30239]],[411.29156,608.51514],[[406.42118,610.11659],[0,0],[-1.12691,0.35775]],[[403.07668,611.25284],[1.15365,-0.31126],[3.73508,1.17475]],[[413.19664,618.92113],[-2.40909,-1.11502],[1.69781,0.78581]],[[418.67899,620.86499],[-1.46806,-0.96543],[1.46806,0.96543]],[[421.63486,624.47034],[-1.20673,-1.11101],[2.00171,1.84293]],[[428.94042,629.27468],[-2.01857,-1.83496],[1.06388,0.96711]],[[431.37561,632.47757],[-1.04459,-0.97616],[1.98197,1.85214]],[[438.68117,637.28191],[-2.01857,-1.83496],[5.22497,4.74971]],[[456.16488,649.53206],[-7.36442,-3.63228],[2.81011,1.84801]],[[465.17423,657.32586],[-0.4951,-2.59676],[0.68297,3.58211]],[[455.20681,668.75418],[3.46813,-2.30284],[-1.47217,0.97752]],[[450.93856,671.73959],[1.37628,-1.01203],[-3.76048,6.04374]]],&quot;closed&quot;:true}]}" fill="#0e0d0c"/></g><g data-paper-data="{&quot;index&quot;:null}" fill-rule="nonzero" stroke="none" stroke-width="0.5" stroke-linecap="butt"><g><path d="M238.39038,171.82762c0.09192,0.13009 0.15484,0.27189 0.18569,0.49116c0.02596,0.1845 -0.0379,0.36807 -0.04698,0.55281c-0.04441,0.90378 0.19115,2.74042 -1.50436,2.58092c-0.2455,-0.0231 -0.45917,-0.16539 -0.6699,-0.27707c-0.34596,-0.18333 -0.64224,-0.45092 -0.87272,-0.76272c0.24069,0.72338 0.7365,1.33478 1.65555,1.52713c0.74705,0.02441 1.7708,-0.26442 2.45185,-0.5131c0.21431,-0.07826 0.38299,-0.28889 0.61933,-0.27376c0.13997,0.00896 0.93995,0.54626 1.05021,0.68695c0.46981,0.59954 0.54423,1.49625 0.61529,2.16606c0.02817,0.26548 0.18095,0.51559 0.23696,0.77857c1.40774,0.42021 2.78174,1.13547 3.66386,2.13013c0,0 0.02533,0.02885 0.05017,0.07512c0.15677,-0.05264 0.31321,-0.11604 0.46895,-0.18973c0.33841,-0.16012 0.35251,-0.61295 0.4676,-0.87005c0.11714,-0.26169 0.3274,-0.4993 0.37295,-0.77768c0.03768,-0.23025 0.04335,-0.48026 0.02774,-0.73123c-0.37518,-0.1813 -0.17995,-0.50152 -0.17995,-0.50152l0.05239,-0.02564c0.00759,-0.0736 0.01623,-0.14713 0.02545,-0.22062c-0.0063,-0.03082 -0.01279,-0.06134 -0.01943,-0.09149c0,0 -0.03531,-0.16364 0.06994,-0.29057c0.08088,-0.61133 0.14196,-1.22105 -0.1013,-1.83751c-0.10916,-0.27665 -0.31307,-0.52269 -0.46758,-0.78483c-0.42234,-0.7186 -0.92997,-1.44156 -1.5209,-2.0658c-0.23681,-0.25015 -0.37016,-0.50708 -0.68783,-0.68205c-0.88639,-0.48825 -1.84442,-0.75177 -2.85344,-0.96469c-0.46439,-0.09799 -1.1852,-0.38105 -1.65249,-0.36274c-0.15539,0.00609 -0.28805,0.10894 -0.44368,0.11199c-0.16166,0.00316 -0.3137,-0.0899 -0.47559,-0.09398c-0.34211,-0.00861 -0.6915,0.0385 -1.02632,-0.02846c-0.49643,-0.01019 -0.94863,0.03152 -1.43792,0.04615c-0.11531,0.00345 -0.23427,-0.06838 -0.34436,-0.04183c-0.22509,0.05427 -0.22115,0.34286 -0.32697,0.51644c-0.10846,0.17791 -0.19554,0.34748 -0.2634,0.52372c0.09253,-0.07668 0.19575,-0.1565 0.30998,-0.25317c0.46595,-0.00864 0.83785,-0.07048 1.27688,0.10214c0.05488,0.02158 0.09054,0.07178 0.12861,0.11632c0.00596,-0.08561 0.05303,-0.17918 0.18786,-0.26004c0.36226,-0.21725 0.63351,0.09172 0.63351,0.09172c0.02935,0.03414 0.05763,0.06616 0.08481,0.09661l0.00187,0.00003c0,0 0.23943,0.10604 0.25766,0.30632zM237.57464,173.72033c0.02584,-0.47439 0.14643,-0.9081 0.0419,-1.32321c-0.02832,0.01044 -0.0583,0.018 -0.09036,0.02198c-0.13229,0.01643 -1.04087,-0.30489 -1.32947,-0.34892c-0.41369,0.57825 -0.39234,1.35695 0.04615,1.96776c0.09553,0.13306 0.86601,0.8958 1.11719,0.66514c0.25127,-0.23075 0.19953,-0.70629 0.21459,-0.98276zM239.93398,180.12823c0.00036,-0.37753 0.45291,-0.36594 0.45291,-0.36594l0.44878,0.05134c0.29316,0.13193 0.48718,0.1678 0.68914,0.19226c-0.08733,-0.20804 -0.15301,-0.42161 -0.20804,-0.64935c-0.09661,-0.02332 -0.19279,-0.04507 -0.2883,-0.06522l-0.39979,-0.16445c0,0 -0.40463,-0.1792 -0.20192,-0.51169c0.20271,-0.33249 0.60733,-0.1533 0.60733,-0.1533l0.06166,0.03137c-0.05328,-0.14607 -0.1051,-0.29221 -0.12296,-0.44255c-0.03189,-0.26843 -0.00614,-0.54317 -0.08549,-0.80582c-0.08157,-0.27002 -0.19789,-0.76961 -0.37979,-1.00288c-0.06154,-0.07893 -0.19225,-0.10453 -0.26381,-0.17746c-0.04244,-0.04325 -0.00091,-0.16908 -0.06507,-0.15767c-0.09631,0.01713 -0.08539,0.1581 -0.16971,0.19942c-0.02785,0.01365 -0.88532,0.2286 -0.95432,0.24601c-0.69355,0.17505 -1.27855,0.35129 -2.01643,0.33554c-0.46901,-0.09948 -0.77071,-0.12312 -1.17668,-0.40337c-0.61012,-0.42117 -1.24992,-1.38108 -1.43005,-2.0077c-0.01539,-0.05353 -0.01134,-0.81252 -0.01125,-0.90934c0.00056,-0.60271 0.00039,-1.17605 0.1603,-1.76354c0.14121,-0.51882 0.50234,-1.47001 1.14146,-1.71204c0.1928,-0.07301 0.42861,-0.00133 0.64136,-0.01659c0.55635,-0.03993 1.05408,-0.05686 1.61795,-0.04008c0.30641,0.06873 0.63008,0.0138 0.94512,0.02201c0.14108,0.00368 0.27054,0.09629 0.41139,0.0932c0.15561,-0.00342 0.28795,-0.11093 0.44369,-0.11199c0.58026,-0.00392 1.3268,0.26594 1.89545,0.38594c1.10584,0.23335 2.19851,0.52749 3.15765,1.08052c0.47453,0.27361 0.5122,0.44101 0.88792,0.83846c0.63327,0.66988 1.17522,1.43998 1.62944,2.20865c0.03462,0.05873 0.5034,0.8516 0.51658,0.88499c0.32431,0.82187 0.19882,1.61783 0.10266,2.43127c0.09636,0.51843 0.15076,1.10579 0.06061,1.60729c-0.0591,0.3288 -0.27857,0.61917 -0.41725,0.92895c-0.12795,0.28582 -0.18856,0.60344 -0.39527,0.8536c-0.20737,0.25095 -0.57965,0.37661 -0.90678,0.51353c-0.3212,0.13444 -0.61736,0.34045 -0.97579,0.38332c-1.17008,0.13993 -2.29324,-0.29328 -3.16195,-0.93557c-0.04879,-0.05541 -0.0949,-0.11022 -0.13851,-0.16462c-0.02634,-0.00701 -0.05256,-0.01351 -0.07862,-0.01944c-0.14201,-0.03229 -0.29311,0.0142 -0.43827,-0.00337c-0.52871,-0.06399 -0.61053,-0.14413 -1.08913,-0.3533l-0.04407,0.03873c0,0 -0.45256,-0.01158 -0.4522,-0.38911zM244.23535,181.0108c0,0 0.11595,0.05136 0.19262,0.15009c0.15249,0.01544 0.30577,0.01909 0.45947,0.01144c-0.65278,-0.6663 -1.58955,-1.17277 -2.56627,-1.51828c0.0714,0.20182 0.16613,0.39712 0.30455,0.59743c0.55038,0.21138 1.11098,0.53848 1.60962,0.75932z" fill="#525252"/><path d="M244.24199,181.01609c-0.49864,-0.22083 -1.07465,-0.55534 -1.62503,-0.76672c-0.13843,-0.2003 -0.23158,-0.39827 -0.30299,-0.60009c0.97672,0.34552 1.92844,0.86083 2.58123,1.52713c-0.15371,0.00766 -0.30809,0.00519 -0.46057,-0.01025c-0.07666,-0.09873 -0.19263,-0.15007 -0.19263,-0.15007z" data-paper-data="{&quot;noHover&quot;:false,&quot;origItem&quot;:[&quot;Path&quot;,{&quot;applyMatrix&quot;:true,&quot;segments&quot;:[[[229.42361,238.13379],[0,3.08092],[0,0]],[[229.80713,236.75155],[-0.38352,0.66581],[-0.30843,-0.78763]],[[228.67013,234.48225],[0.44835,0.72509],[-2.23314,5.15208]],[[226.41012,251.47048],[-0.51539,-5.77655],[1.00762,-0.94598]],[[229.1486,248.21684],[-0.82294,1.26755],[-0.1917,-3.30457]]],&quot;closed&quot;:true}]}" fill="#0e0d0c"/><path d="M237.58238,173.72443c-0.01505,0.27647 0.03175,0.75514 -0.21952,0.98589c-0.25118,0.23066 -1.02948,-0.53316 -1.125,-0.66623c-0.43849,-0.6108 -0.45836,-1.40271 -0.04467,-1.98096c0.2886,0.04403 1.20556,0.36613 1.33785,0.3497c0.03205,-0.00398 0.06236,-0.01135 0.09069,-0.02179c0.10453,0.41511 -0.01351,0.85899 -0.03935,1.33338z" data-paper-data="{&quot;noHover&quot;:false,&quot;origItem&quot;:[&quot;Path&quot;,{&quot;applyMatrix&quot;:true,&quot;segments&quot;:[[[195.78166,295.88295],[2.18352,-1.73976],[0.13606,0.10686]],[[196.14871,296.25737],[-0.1076,-0.14412],[0.44415,0.59487]],[[197.56891,303.76015],[-0.49609,-1.53462],[4.50823,0.29752]],[[209.09788,297.69916],[-2.46644,3.94494],[0.53733,-0.85942]],[[210.10648,290.29121],[2.02423,0.53783],[-2.025,-0.53804]],[[203.72549,292.16214],[1.67631,-0.74678],[-2.87635,1.28139]]],&quot;closed&quot;:true}]}" fill="#0e0d0c"/><path d="M238.13872,171.52709l-0.01388,-0.01161c-0.0272,-0.03045 -0.04347,-0.05087 -0.07281,-0.08501c0,0 -0.27079,-0.30933 -0.63305,-0.09208c-0.13484,0.08086 -0.18153,0.1741 -0.18749,0.25971c-0.03807,-0.04454 -0.07375,-0.09472 -0.12863,-0.1163c-0.43903,-0.17262 -0.81033,-0.11141 -1.27627,-0.10277c-0.11424,0.09667 -0.23259,0.16783 -0.32512,0.24452c0.06787,-0.17624 0.15542,-0.34638 0.26388,-0.52429c0.10582,-0.17357 0.10242,-0.4627 0.32751,-0.51697c0.11009,-0.02654 0.22924,0.04513 0.34454,0.04168c0.48928,-0.01463 0.94262,-0.05715 1.43905,-0.04696c0.33481,0.06696 0.68529,0.01929 1.0274,0.02791c0.16189,0.00408 0.31447,0.09693 0.47613,0.09376c0.15563,-0.00305 0.28901,-0.10612 0.4444,-0.11221c0.4673,-0.01831 1.19081,0.26438 1.65519,0.36237c1.00901,0.21292 1.9727,0.478 2.85909,0.96625c0.31767,0.17497 0.45258,0.43313 0.68938,0.68328c0.59094,0.62423 1.10072,1.35147 1.52306,2.07007c0.15451,0.26215 0.35842,0.50956 0.46758,0.7862c0.24326,0.61647 0.18129,1.22883 0.1004,1.84016c-0.10526,0.12693 -0.07018,0.29094 -0.07018,0.29094c0.00663,0.03015 0.01306,0.06075 0.01936,0.09158c-0.00922,0.07349 -0.01805,0.14727 -0.02563,0.22087l-0.05242,0.02569c0,0 -0.19554,0.32059 0.17964,0.50189c0.0156,0.25097 0.00938,0.50154 -0.0283,0.73179c-0.04555,0.27838 -0.2566,0.51662 -0.37375,0.77831c-0.11509,0.2571 -0.13009,0.71049 -0.4685,0.87062c-0.15573,0.07369 -0.31268,0.13733 -0.46944,0.18997c-0.02484,-0.04627 -0.05017,-0.07512 -0.05017,-0.07512c-0.88212,-0.99466 -2.25981,-1.70902 -3.66755,-2.12923c-0.056,-0.26298 -0.20915,-0.51307 -0.23731,-0.77855c-0.07106,-0.6698 -0.14913,-1.56708 -0.61895,-2.16662c-0.11025,-0.1407 -0.91592,-0.68365 -1.0559,-0.6926c-0.23633,-0.01513 -0.38753,0.1921 -0.60184,0.27035c-0.68105,0.24868 -1.72211,0.5415 -2.46915,0.51709c-0.91905,-0.19235 -1.41522,-0.80643 -1.65591,-1.52982c0.23048,0.3118 0.54481,0.57972 0.89077,0.76306c0.21074,0.11168 0.40645,0.25539 0.65196,0.27849c1.6955,0.1595 1.46165,-1.68286 1.50606,-2.58665c0.00908,-0.18474 0.0737,-0.36903 0.04775,-0.55353c-0.03085,-0.21927 -0.09339,-0.36137 -0.18531,-0.49146c-0.01823,-0.20029 -0.24558,-0.29478 -0.24558,-0.29478z" data-paper-data="{&quot;noHover&quot;:false,&quot;origItem&quot;:[&quot;Path&quot;,{&quot;applyMatrix&quot;:true,&quot;segments&quot;:[[[190.38099,293.80742],[-1.13798,0.68273],[0.52916,-0.83304]],[[192.80197,291.44721],[-1.21727,0.80044],[1.02425,-0.67352]],[[196.19804,290.03612],[-1.11755,0.50378],[5.46726,-2.4646]],[[215.42261,289.69976],[-3.50135,-8.72173],[0.50699,1.26288]],[[215.53874,293.78066],[0.10863,-1.35651],[-0.17833,2.22686]],[[213.31142,300.28874],[1.2417,-2.04611],[3.65162,-3.31658]],[[218.01175,287.70492],[1.27098,5.04171],[-1.81432,-3.70677]],[[208.54514,277.29851],[3.25808,2.57572],[-1.02525,-0.81052]],[[205.30045,275.09746],[0.53011,1.1946],[-0.31398,-0.70756]],[[206.61382,267.95069],[-0.54391,0.95371],[2.31767,-4.06389]],[[217.82454,258.53265],[-3.77924,2.33236],[1.49792,-0.92444]],[[221.81269,255.0706],[-1.4101,1.05246],[-1.20333,-8.09506]],[[224.81717,230.92779],[-3.57588,7.24175],[0,0]],[[225.13039,230.46087],[-0.20881,0.2581],[-0.72267,-0.60656]],[[222.7775,228.74215],[0.84463,0.53911],[-1.83533,-1.17146]],[[216.40035,229.04792],[1.82394,-0.20266],[-1.85649,0.20628]],[[210.81826,229.54013],[1.76754,-0.60407],[-1.46196,0.49963]],[[206.41638,231.57401],[1.44491,-0.8203],[-0.08961,2.36301]],[203.91895,233.93703],[[203.62983,233.75822],[0,0],[-0.45565,0.18138]],[[202.25687,234.28877],[0.45926,-0.17313],[-0.16597,0.12209]],[[201.76617,234.65462],[0.1611,-0.12173],[0,0]],[[199.86246,235.17619],[1.02748,0.1356],[-3.8314,1.41973]],[[189.2492,241.11915],[3.01191,-3.01191],[-1.35163,1.35163]],[[185.82865,245.72176],[1.14689,-1.52919],[-3.14701,4.18607]],[[177.58609,259.24823],[2.14627,-4.72643],[-0.86006,1.89398]],[[175.35157,264.61752],[0.20301,-2.06444],[-0.56647,5.76048]],[[177.12205,281.36084],[-1.3851,-5.5404],[0.63748,2.54991]],[[179.30738,290.47618],[-1.33366,-2.21907],[0.44351,0.73795]],[[181.13377,292.30257],[-0.42613,-0.74812],[0.44263,0.77709]],[[181.82441,294.89508],[-0.40035,-0.79969],[0.84602,1.6899]],[[184.34697,299.97252],[-0.48149,-1.82748],[1.24137,2.44537]],[[188.39046,306.83112],[-1.36958,-2.33698],[0.32275,0.55073]],[[189.04575,308.63053],[-0.44581,-0.45687],[0.91147,0.93408]],[[192.9606,308.68943],[-1.3051,0],[1.33766,0]],[[196.75189,308.41752],[-1.22139,0.19258],[-0.69664,-0.22271]],[[194.44027,307.66036],[0.87184,0.26904],[-1.27289,-2.24123]],[[191.69693,301.14534],[0.1292,2.64786],[-0.01615,-0.33102]],[[192.04832,300.17464],[-0.1639,0.31733],[-0.5225,0.22494]],[[190.01618,300.03196],[0.83227,0.41613],[-2.23607,-1.11803]],[[188.89814,296.67786],[0,0],[0.12519,-0.24404]],[[189.24776,295.97865],[-0.10898,0.2226],[0,0]],[189.24301,295.9695]],&quot;closed&quot;:true}]}" fill="#0e0d0c"/></g><path d="M247.24549,176.87068c-0.05357,0.33812 -0.01611,0.63368 -0.00181,0.95015c0.01646,0.00582 0.03327,0.01252 0.05045,0.02013c0.40463,0.1792 0.20192,0.51169 0.20192,0.51169l-0.00143,-0.08665c-0.0034,0.5868 0.19665,1.14302 0.19552,1.73186c-0.00044,0.23036 0.03256,0.69519 -0.12551,0.90431c-0.00976,0.01292 -0.01982,0.02567 -0.03011,0.03826l0.00837,0.0037c0,0 -0.00998,0.01637 -0.02593,0.04253c0.09528,-0.06114 0.18293,-0.15039 0.27139,-0.20963c0.49283,-0.33005 1.01012,-0.78897 1.24484,-1.29069c0.22267,-0.47595 0.13624,-1.02817 0.02822,-1.52386c-0.16168,-0.74194 -0.32414,-1.42878 -0.93548,-1.91353c-0.08057,0.01839 -0.14536,0.01673 -0.14536,0.01673c-0.50708,-0.07065 -0.67218,0.40795 -0.73508,0.805zM246.31449,180.90435c-0.25064,-0.65865 -0.25411,-1.494 -0.16633,-2.17951c0.03066,-0.23942 0.19842,-0.45962 0.19519,-0.70122c-0.00205,-0.15327 -0.09876,-0.30157 -0.09814,-0.45479c0.00055,-0.13753 0.08443,-0.26494 0.10157,-0.40131c0.06803,-0.54103 0.13535,-1.36312 0.73581,-1.73497c-0.05962,-0.08471 -0.08784,-0.20123 0.00125,-0.34735c0.20271,-0.33249 0.60733,-0.1533 0.60733,-0.1533l0.2956,0.13092c1.34557,0.6038 1.71326,1.60887 1.96528,2.7874c0.13715,0.64135 0.20858,1.31333 -0.0736,1.92726c-0.28458,0.61914 -0.90348,1.19681 -1.51796,1.59892c-0.31267,0.20461 -0.71143,0.46213 -1.15672,0.42466c-0.24107,-0.02029 -0.44196,-0.17431 -0.66294,-0.26146c0,0 -0.40462,-0.17919 -0.20191,-0.51168c0.00492,-0.00807 0.00997,-0.01585 0.01512,-0.02332z" fill="#525252"/><path d="M247.24282,176.8634c0.06291,-0.39704 0.23104,-0.8759 0.73813,-0.80525c0,0 0.06522,0.0017 0.1458,-0.01669c0.61134,0.48475 0.78075,1.17543 0.94243,1.91736c0.10802,0.49569 0.19326,1.05692 -0.0294,1.53287c-0.23472,0.50172 -0.75884,0.96284 -1.25165,1.29289c-0.08846,0.05924 -0.17691,0.14843 -0.27219,0.20956c0.01594,-0.02615 0.02791,-0.05749 0.02791,-0.05749l-0.00833,-0.0037c0.01029,-0.01259 0.02026,-0.02535 0.03002,-0.03827c0.15806,-0.20911 0.12332,-0.65895 0.12376,-0.88931c0.00113,-0.58884 -0.20495,-1.15766 -0.20155,-1.74446l0.00044,0.08779c0,0 0.20543,-0.3349 -0.19918,-0.51409c-0.01718,-0.00761 -0.03421,-0.01418 -0.05066,-0.02001c-0.01429,-0.31648 -0.04908,-0.61308 0.00449,-0.95121z" data-paper-data="{&quot;noHover&quot;:false,&quot;origItem&quot;:[&quot;Path&quot;,{&quot;applyMatrix&quot;:true,&quot;segments&quot;:[[[202.64968,232.95977],[-1.83618,1.00821],[-0.00863,-0.09734]],[[202.63654,232.65462],[0,0.10616],[0,-2.5]],[205.13654,230.15462],[[204.6273,230.41855],[0,0],[3.48302,-1.72394]],[[214.36806,224.33058],[-3.48915,1.74103],[1.36499,-0.68111]],[[220.05101,222.25899],[-1.65251,-0.14875],[0.10214,0.00919]],[[220.35647,222.29193],[-0.10151,-0.01272],[0,0]],[220.35647,222.24026],[[220.67621,222.24026],[-0.19666,0],[-0.6118,-0.28223]],[[218.72353,221.54169],[0.58266,0.25463],[-3.24624,-1.41863]],[[207.81807,219.31373],[3.58586,-0.34619],[-3.40165,0.32841]],[[198.72218,223.69627],[2.65148,-1.99575],[-3.96864,2.98718]],[[189.84611,233.92301],[1.26696,-4.41198],[0.32012,0.33743]],[[190.32629,234.58057],[0,0],[0.91132,2.67651]],[[197.01964,235.76911],[-2.5156,0.87161],[2.14232,-0.74228]]],&quot;closed&quot;:true}]}" fill="#0e0d0c"/></g><g data-paper-data="{&quot;index&quot;:null}" fill-rule="nonzero" stroke="none" stroke-width="0.5" stroke-linecap="butt"><path d="M233.98965,182.34018c0.4164,0.03581 0.70407,-0.04257 1.07393,-0.18639c0.07004,-0.02723 0.18861,-0.00699 0.21536,-0.07035c0.02663,-0.06311 -0.09898,-0.11061 -0.11087,-0.17723c-0.03074,-0.17232 0.11693,-0.41591 -0.04001,-0.52203c-0.15975,-0.10801 -0.40156,-0.01282 -0.60241,-0.01524c-0.62971,-0.00756 -0.72614,-0.00994 -0.96087,0.51994c0,0 -0.05959,0.12755 -0.19492,0.18624c0.16691,0.17471 0.3276,0.23992 0.6198,0.26505zM233.08246,181.15563c0.37413,-0.47728 0.86217,-0.47371 1.45136,-0.46663c0.0071,0.00009 0.01432,0.00015 0.02166,0.0002c-0.29821,-0.34726 -0.44511,-0.76609 -0.26906,-1.20092c0.0612,-0.15116 0.24586,-0.23621 0.3688,-0.3543l0.0947,-0.08166c0,0 0.08485,-0.07317 0.20641,-0.09646c1.49876,-1.30249 2.82856,-2.65784 4.02356,-4.20161c0.3926,-0.423 0.87282,-1.04932 1.3868,-1.36438c0.20613,-0.12635 0.40691,-0.32162 0.65812,-0.32281c0.19824,-0.00094 0.30866,0.22177 0.47504,0.31744c0.26086,0.15001 0.5466,0.2636 0.81145,0.40804c0.66342,0.36179 1.33562,0.71786 1.97546,1.11208c0.71891,0.44294 1.33223,0.93749 2.20352,1.13548c0,0 0.37228,0.08694 0.275,0.41565c-0.01312,0.04435 -0.03125,0.08114 -0.0528,0.11159c0.49436,0.50527 0.77299,1.19939 0.78931,1.86077c0.00577,0.23377 0.06678,0.49645 -0.06489,0.69891c-0.1129,0.1736 -0.37356,0.23532 -0.58682,0.30317c-0.59897,0.19055 -1.15242,0.1131 -1.69526,-0.12239l-0.1269,-0.15541c-0.64029,-0.22854 -1.28483,-0.46891 -1.8598,-0.79417c-0.40156,-0.22716 -0.82737,-0.44561 -1.22242,-0.68418c-0.18457,-0.11146 -0.31044,-0.32922 -0.53059,-0.36254c-0.18777,-0.02841 -0.23364,0.26619 -0.33092,0.41057c-0.44467,0.65993 -1.03697,1.16675 -1.55983,1.76799c-0.17591,0.15171 -0.50673,0.52016 -0.68264,0.67188c-0.31088,0.26812 -0.72889,0.46512 -1.03959,0.73275c-0.35582,0.3065 -0.70856,0.69153 -1.26985,0.74474c-0.17242,0.01635 -0.34021,-0.06123 -0.50899,-0.09704c-0.03009,-0.00638 -0.0605,-0.01351 -0.09116,-0.02138c-0.00235,0.09418 -0.008,0.19585 0.00068,0.3113c0.01228,0.16331 0.14596,0.33889 0.06857,0.48735c-0.37922,0.72752 -1.96953,0.88083 -2.68195,0.57846c-0.57937,-0.24589 -0.53999,-0.41034 -0.7792,-0.8994l0.23382,-0.48046c0,0 0.06567,-0.11289 0.19494,-0.16494c0.0306,-0.06945 0.06566,-0.1367 0.11347,-0.19769zM245.4415,176.41247c-1.0929,-0.46438 -2.04552,-1.22996 -3.06762,-1.78763c-0.3997,-0.21808 -0.9798,-0.42484 -1.3306,-0.69414c-0.05681,-0.04361 -0.00667,-0.17724 -0.08117,-0.18605c-0.06967,-0.00824 -0.05343,0.11664 -0.0974,0.16495c-0.07154,0.07861 -0.17021,0.13522 -0.24509,0.21138c-0.34176,0.34758 -0.69236,0.68486 -1.02339,1.04207c-1.24514,1.61114 -2.64231,3.02196 -4.21427,4.37772l-0.30505,0.18183c-0.39326,0.45528 0.70821,1.04641 1.14093,1.16238c0.08107,0.02173 0.15455,0.08643 0.23859,0.07755c0.35905,-0.03794 0.58831,-0.36602 0.80735,-0.55517c0.31062,-0.26824 0.72914,-0.465 1.03959,-0.73275c0.20235,-0.17452 0.44266,-0.46252 0.645,-0.63703c0.38476,-0.44243 0.84633,-0.81356 1.20493,-1.27733c0.08273,-0.10699 0.56062,-0.8286 0.6307,-0.88022c0.17874,-0.13168 0.40631,-0.24364 0.63928,-0.24847c0.4394,-0.00912 1.03227,0.5382 1.39473,0.72113c0.82608,0.41692 1.62821,0.79752 2.47989,1.1427c0.06862,0.00864 0.12476,0.03599 0.16861,0.06761c0.18777,0.07449 0.37815,0.14727 0.57189,0.21837c0,0 0.04869,0.01788 0.10261,0.05629c0.13951,-0.00818 0.29003,-0.03327 0.47886,-0.05695c0.05548,-0.00696 0.14963,0.02812 0.16672,-0.01901c0.0343,-0.09456 -0.03739,-0.19612 -0.05297,-0.29459c-0.10751,-0.67948 -0.3202,-1.47926 -1.07852,-1.80301c0,0 -0.18687,-0.08526 -0.21359,-0.2516z" fill="#525252"/><path d="M233.36244,182.07696c0.13533,-0.05869 0.19466,-0.18756 0.19466,-0.18756c0.23474,-0.52988 0.34151,-0.53439 0.97122,-0.52683c0.20085,0.00242 0.44646,-0.09008 0.60621,0.01794c0.15694,0.10611 0.01046,0.35399 0.04121,0.52632c0.01189,0.06662 0.13723,0.11541 0.1106,0.17852c-0.02674,0.06337 -0.14578,0.04418 -0.21582,0.07142c-0.36987,0.14381 -0.6684,0.22505 -1.0848,0.18924c-0.2922,-0.02513 -0.45636,-0.09434 -0.62327,-0.26905z" data-paper-data="{&quot;noHover&quot;:false,&quot;origItem&quot;:[&quot;Path&quot;,{&quot;applyMatrix&quot;:true,&quot;segments&quot;:[[[428.29653,249.70232],[2.53963,2.48528],[-0.88695,1.97961]],[[425.52357,252.53569],[0,0],[-7.83313,3.35814]],[[417.70827,266.57322],[0,-9.26089],[0,2.95396]],[[417.82607,275.4341],[-1.56019,-2.36818],[1.5327,2.32645]],[[425.49513,276.11458],[-2.5285,-0.4825],[0.97762,0.18656]],[[428.08169,277.77625],[-0.93268,0.38046],[0.93648,-0.38202]],[[429.15412,274.62198],[-0.41283,1.02512],[2.18006,-5.41338]],[[432.08448,258.86309],[0.45298,6.12931],[-0.31787,-4.30112]]],&quot;closed&quot;:true}]}" fill="#ffeb6e"/><path d="M245.6627,176.66292c0.75832,0.32374 0.97097,1.12608 1.07847,1.80557c0.01558,0.09847 0.08718,0.20037 0.05288,0.29493c-0.0171,0.04713 -0.11127,0.01212 -0.16674,0.01908c-0.18883,0.02369 -0.33943,0.049 -0.47894,0.05718c-0.05392,-0.03841 -0.11732,-0.06034 -0.11732,-0.06034c-0.19375,-0.0711 -0.38415,-0.1438 -0.57192,-0.21828c-0.04385,-0.03162 -0.10001,-0.05893 -0.16863,-0.06758c-0.85169,-0.34518 -1.65411,-0.72378 -2.48019,-1.1407c-0.36246,-0.18293 -0.95157,-0.72454 -1.39098,-0.71542c-0.23297,0.00484 -0.45482,0.11759 -0.63356,0.24927c-0.07008,0.05162 -0.54304,0.76327 -0.62577,0.87026c-0.3586,0.46377 -0.8213,0.83355 -1.20606,1.27598c-0.20235,0.17452 -0.45369,0.47199 -0.65602,0.6465c-0.31045,0.26775 -0.72913,0.46437 -1.03975,0.73261c-0.21904,0.18917 -0.44838,0.51716 -0.80742,0.55509c-0.08403,0.00888 -0.15769,-0.056 -0.23877,-0.07773c-0.43272,-0.11597 -1.53531,-0.70868 -1.14205,-1.16396l0.305,-0.18188c1.57196,-1.35576 2.97258,-2.77534 4.21772,-4.38648c0.33102,-0.35721 0.6846,-0.69526 1.02636,-1.04283c0.07487,-0.07615 0.17406,-0.13279 0.2456,-0.2114c0.04397,-0.04832 0.02792,-0.17318 0.0976,-0.16494c0.0745,0.00881 0.02452,0.14245 0.08133,0.18606c0.35081,0.26929 0.93392,0.4767 1.33361,0.69477c1.0221,0.55768 1.97895,1.32781 3.07184,1.79219c0.02672,0.16635 0.21371,0.25206 0.21371,0.25206z" data-paper-data="{&quot;noHover&quot;:false,&quot;origItem&quot;:[&quot;Path&quot;,{&quot;applyMatrix&quot;:true,&quot;segments&quot;:[[[657.04642,381.49437],[0,0],[4.62661,9.90368]],[[683.36858,395.78934],[-9.97259,-1.50293],[1.44514,0.21779]],[[687.69104,396.5235],[-1.39648,0.43093],[0.69604,-0.21479]],[[687.99997,394.36016],[-0.11213,0.71975],[0.38164,-2.4498]],[[688.92201,388.14704],[-0.14482,1.81148],[-0.55534,-0.70664]],[[688.1125,386.80499],[0,0],[-1.0114,-2.52849]],[[685.00235,379.34017],[1.06204,2.45139],[-0.45725,-0.5747]],[[684.03792,377.13874],[0.11497,0.89292],[-4.92546,-11.1202]],[[667.67276,344.73829],[5.98483,10.79863],[-2.62594,-4.73807]],[[657.31503,326.50353],[-0.21166,5.70793],[0.11222,-3.02632]],[[661.08161,318.2359],[-1.96776,2.30198],[0.77141,-0.90243]],[[674.13622,310.17835],[-1.58787,1.05821],[6.8829,-4.587]],[[693.13166,294.7216],[-6.57368,4.93026],[2.60189,-2.60189]],[[702.61288,286.44017],[-2.60189,2.60189],[3.99202,-3.99202]],[[713.57123,273.04664],[-3.99918,3.99409],[2.82019,-2.8166]],[[721.87737,262.64306],[-0.6213,4.65927],[0.1454,-1.09041]],[[720.77921,259.53094],[0.30521,1.05687],[-1.6289,-5.64052]],[[703.88827,244.52507],[6.76412,-5.03876],[0,0]],[[701.16079,248.46027],[0,0],[-20.21351,20.21351]],[[636.04404,302.53496],[23.91098,-15.92721],[-5.31112,4.24538]],[[620.54007,315.66967],[5.17134,-4.38641],[-1.13297,0.961]],[[617.38854,318.82119],[1.16859,-0.91735],[-0.71824,0.56382]],[[614.94591,320.06111],[-0.10883,-0.9066],[0.11639,0.9695]],[[617.66749,321.14479],[-0.63125,-0.74498],[3.89793,4.60022]],[[627.63949,338.54218],[-3.13622,-5.22739],[8.01997,13.36755]],[[653.38438,378.67981],[-6.6356,-14.27295],[2.44136,0.3732]]],&quot;closed&quot;:true}]}" fill="#0e0d0c"/></g><g><path d="M252.39492,187.49847c-1.47308,1.90597 -3.38939,2.66617 -5.74887,2.2806c-2.3527,-0.61822 -3.78824,-2.11152 -4.30657,-4.47987c-0.27991,-2.294 0.50979,-4.13708 2.36908,-5.52934c1.92663,-1.17931 3.885,-1.2351 5.87513,-0.16731c1.93202,1.2423 2.84058,3.00258 2.72574,5.28089c-0.10845,0.93985 -0.41327,1.81153 -0.91447,2.61502z" fill="#0c0608" fill-rule="evenodd" stroke="none" stroke-width="1" stroke-linecap="butt"/><path d="M243.32878,187.0416c1.59238,1.67713 3.50975,2.26176 5.75212,1.7539c1.26737,-0.35098 2.36379,-0.99383 3.28924,-1.9285c-1.0198,1.72133 -2.52597,2.63004 -4.51849,2.72613c-1.95311,-0.05248 -3.46072,-0.90301 -4.52287,-2.55152z" fill="#feffb1" fill-rule="evenodd" stroke="none" stroke-width="1" stroke-linecap="butt"/><path d="M252.37015,186.867c-0.92545,0.93467 -2.02188,1.5775 -3.28925,1.9285c-2.24238,0.50787 -4.15973,-0.07676 -5.75213,-1.75389c-0.83586,-1.47344 -0.9648,-3.00784 -0.38684,-4.60335c0.10581,-0.26413 0.23932,-0.51282 0.40044,-0.74605c1.37653,-1.50951 3.07689,-2.12806 5.10105,-1.85578c1.23448,0.28115 2.28956,0.88863 3.16527,1.82247c0.5965,0.68846 1.05773,1.45472 1.38368,2.29873c0.09223,1.03198 -0.11516,2.00175 -0.62223,2.90937z" fill="#ffeb6e" fill-rule="evenodd" stroke="none" stroke-width="1" stroke-linecap="butt"/><path d="M252.99237,183.95762c-0.32595,-0.84401 -0.78718,-1.61026 -1.38367,-2.29871c-0.8757,-0.93386 -1.93078,-1.54134 -3.16529,-1.82247c-2.02416,-0.27228 -3.72452,0.34627 -5.10105,1.85578c1.10771,-1.73501 2.68921,-2.5791 4.74444,-2.53228c2.22685,0.225 3.76899,1.37394 4.62643,3.44674c0.1623,0.43674 0.25534,0.88706 0.27914,1.35096z" fill="#fec900" fill-rule="evenodd" stroke="none" stroke-width="1" stroke-linecap="butt"/><path d="M248.44287,184.2817c-0.07474,0.0488 -0.15607,0.05891 -0.24399,0.03037c-0.14465,-0.04133 -0.27141,-0.11375 -0.3802,-0.21726c0.05372,0.01114 0.10632,0.03448 0.15783,0.07005c-0.05131,-0.05235 -0.09074,-0.10799 -0.11831,-0.16689c0.15719,0.177 0.35208,0.27157 0.58467,0.28375z" fill="#79527e" fill-rule="evenodd" stroke="none" stroke-width="1" stroke-linecap="butt"/><path d="M249.07141,182.99041c-0.18561,-0.19874 -0.41276,-0.3065 -0.68151,-0.32326c0.13812,-0.06267 0.27567,-0.05362 0.4126,0.02713c0.0538,0.03889 0.10758,0.0778 0.16139,0.11669c0.06071,0.05379 0.09655,0.11364 0.10754,0.17947z" fill="#916796" fill-rule="evenodd" stroke="none" stroke-width="1" stroke-linecap="butt"/><path d="M247.81869,184.09481c-0.07696,-0.118 -0.14507,-0.24181 -0.20431,-0.37145c-0.01921,-0.09393 -0.01437,-0.18425 0.0145,-0.27087c0.00435,0.21102 0.0808,0.39281 0.22934,0.54546c0.02758,0.0589 0.06698,0.11455 0.11831,0.1669c-0.05151,-0.03556 -0.1041,-0.05889 -0.15784,-0.07004z" fill="#a87fae" fill-rule="evenodd" stroke="none" stroke-width="1" stroke-linecap="butt"/><path d="M246.7556,186.14647c-0.09905,-0.37559 -0.34172,-0.5838 -0.728,-0.62466c-0.00352,-0.04986 0.01806,-0.07496 0.06462,-0.0753c0.34953,0.06764 0.58383,0.26867 0.70289,0.60311c0.00447,0.03978 -0.00872,0.07209 -0.03951,0.09684z" fill="#976e9d" fill-rule="evenodd" stroke="none" stroke-width="1" stroke-linecap="butt"/><g fill-rule="evenodd" stroke="none" stroke-width="1" stroke-linecap="butt"><path d="M249.20951,185.03022c0.08343,-0.22593 0.20007,-0.44044 0.34998,-0.64358c0.13186,-0.1858 0.23742,-0.38742 0.31666,-0.60476c0.03516,-0.0148 0.07031,-0.02953 0.10547,-0.04434c0.00709,0.31696 -0.06056,0.61845 -0.20304,0.90449c-0.11913,0.2435 -0.30883,0.37287 -0.56906,0.38817z" fill="#191409"/><path d="M247.76551,187.02737c-0.29927,0.37111 -0.68695,0.60032 -1.16304,0.68756c0.33446,-0.31427 0.65374,-0.6471 0.95787,-0.99846c0.1155,0.07659 0.18392,0.18018 0.20517,0.3109z" fill="#1b160c"/><path d="M249.20951,185.03022c-0.10588,0.0251 -0.17524,-0.01193 -0.20806,-0.1111c0.19481,-0.16354 0.38082,-0.34103 0.55803,-0.53248c-0.14991,0.20314 -0.26656,0.41765 -0.34998,0.64358z" fill="#8f843d"/><path d="M246.16719,187.00433c0.41046,-0.14098 0.63072,-0.42392 0.66087,-0.84877c0.057,0.03743 0.0912,0.08927 0.10259,0.15545c-0.09006,0.35286 -0.30107,0.59877 -0.63306,0.7378c-0.05111,0.00685 -0.09458,-0.00793 -0.13039,-0.04446z" fill="#9c8d50"/><path d="M246.16719,187.00433c-0.56439,-0.00816 -0.85281,-0.3006 -0.8653,-0.87731c0.09054,-0.27923 0.26178,-0.49192 0.51369,-0.63795c0.10458,-0.01416 0.20728,-0.01597 0.30801,-0.00538c0.3766,0.0544 0.62251,0.2654 0.73778,0.63305c-0.01109,0.01294 -0.02221,0.02591 -0.03331,0.03882c-0.03014,0.42486 -0.25041,0.70779 -0.66087,0.84877z" fill="#0c0907"/><path d="M248.34972,184.22504c-0.20308,-0.05615 -0.38064,-0.16353 -0.53261,-0.32217c-0.07705,-0.14397 -0.12505,-0.29756 -0.14405,-0.46071c0.06188,-0.3751 0.27292,-0.62106 0.63306,-0.7378c0.04992,0.02039 0.09806,0.01671 0.1443,-0.01102c0.24821,0.04727 0.46272,0.16389 0.64359,0.34997c0.21076,0.41943 0.13561,0.78202 -0.22533,1.08764c-0.1621,0.09101 -0.33507,0.12232 -0.51895,0.09407z" fill="#0a0807"/><path d="M248.64408,183.80342c-0.04442,0.05176 -0.08886,0.10357 -0.13328,0.15533c-0.06471,-0.05555 -0.12943,-0.11105 -0.19416,-0.1666c0.04442,-0.05176 0.08885,-0.10357 0.13328,-0.15533c0.06471,0.05555 0.12943,0.11105 0.19417,0.1666z" fill="#d9d8d7"/><path d="M246.20627,186.56592c-0.04442,0.05176 -0.08886,0.10357 -0.13328,0.15531c-0.09686,-0.05723 -0.13937,-0.13867 -0.12751,-0.24427c0.10256,-0.02775 0.18951,0.0019 0.26079,0.08894z" fill="#e8e8e8"/><path d="M248.34972,184.22504c-0.1204,0.07549 -0.23599,0.06618 -0.34685,-0.02793c-0.08313,-0.09168 -0.14505,-0.18972 -0.18576,-0.29424c0.15197,0.15864 0.32952,0.26603 0.53261,0.32217z" fill="#766b30"/><path d="M246.86139,186.11673c-0.11527,-0.36765 -0.36119,-0.57866 -0.73777,-0.63306c0.06655,-0.07174 0.14426,-0.08373 0.23311,-0.03595c0.16462,0.09627 0.30696,0.21843 0.42714,0.36651c0.06947,0.09663 0.09529,0.19743 0.07755,0.3025z" fill="#958949"/><path d="M249.09401,183.04333c-0.18087,-0.18608 -0.39538,-0.30271 -0.64359,-0.34997c0.08848,-0.03688 0.17913,-0.03777 0.27194,-0.00263c0.16387,0.08615 0.28774,0.20369 0.37165,0.35261z" fill="#7a7245"/><path d="M248.30613,182.70438c-0.36015,0.11673 -0.57118,0.3627 -0.63306,0.7378c-0.06413,-0.19776 -0.0104,-0.36518 0.1612,-0.50217c0.13198,-0.1329 0.28094,-0.24105 0.44693,-0.32442c-0.00365,0.03435 0.00466,0.06394 0.02493,0.08881z" fill="#c7b964"/></g><path d="M246.10634,182.12341c0,0 -0.95783,0.57156 -1.24411,0.9052c-0.33057,0.38526 -0.62565,1.27385 -0.62565,1.27385" fill="none" fill-rule="nonzero" stroke="#000000" stroke-width="0.5" stroke-linecap="round"/><g stroke="none" stroke-width="1" stroke-linecap="butt"><path d="M252.21925,189.71957c-0.0629,-0.05286 -0.12578,-0.10574 -0.18866,-0.1586c0.04374,-0.05719 0.0986,-0.09692 0.16459,-0.11921c0.07314,0.07321 0.15921,0.12404 0.25811,0.1526c0.01341,0.06698 -0.01201,0.11 -0.07628,0.12905c-0.05548,-0.0102 -0.10809,-0.01146 -0.15777,-0.00382z" fill="#4a4b4b" fill-rule="evenodd"/><path d="M250.14068,188.74499c0.39107,0.15385 0.75308,0.36158 1.08605,0.62319c0.3289,0.11622 0.6492,0.24591 0.96082,0.38913c-0.03197,0.07521 -0.1047,0.11065 -0.21821,0.10635c-0.64185,-0.34025 -1.29369,-0.66282 -1.95554,-0.96774c0.04228,-0.05029 0.0846,-0.10064 0.12687,-0.15094z" fill="#4c4c4c" fill-rule="evenodd"/><path d="M246.86651,191.33755c-0.11824,0.04313 -0.22997,0.09945 -0.33524,0.16897c-0.14727,0.05414 -0.30101,0.09662 -0.46128,0.1274c-0.11704,0.02809 -0.22849,0.02024 -0.33442,-0.02354c0.10702,-0.05899 0.08615,-0.09803 -0.06261,-0.11702c-0.09886,-0.24932 -0.02713,-0.29636 0.21519,-0.14108c-0.00302,-0.05961 -0.03021,-0.10389 -0.08148,-0.13289c0.06486,-0.07845 0.11574,-0.16448 0.1526,-0.25811c0.02178,0.04748 0.03213,0.09906 0.03089,0.15476c0.07047,-0.04599 0.1296,-0.10362 0.17747,-0.1728c-0.05588,0.12368 -0.10271,0.256 -0.14056,0.39701c0.25744,-0.0552 0.49982,-0.15202 0.72708,-0.29035c0.07907,0.0098 0.14627,0.04479 0.20151,0.10501c-0.03552,0.05526 -0.08509,0.08876 -0.14874,0.10035c0.00769,0.03635 0.02757,0.0638 0.0596,0.0823z" fill="#292f2a" fill-rule="evenodd"/><path d="M253.03028,188.98461c-0.28288,0.13531 -0.56124,0.28771 -0.83508,0.45715c-0.06602,0.02228 -0.12088,0.06204 -0.16462,0.11922c0.0629,0.05286 0.12578,0.10572 0.18867,0.15859c-0.01057,0.01257 -0.02117,0.02517 -0.03172,0.03772c-0.31161,-0.14322 -0.6319,-0.2729 -0.96083,-0.38913c-0.33296,-0.26161 -0.69497,-0.46933 -1.08605,-0.62319c-0.09963,-0.016 -0.17766,0.02575 -0.23406,0.12523c0.05622,0.032 0.08341,0.07629 0.08148,0.13289c-0.01256,-0.01057 -0.02516,-0.02116 -0.03773,-0.03172c-0.14084,-0.06328 -0.22414,-0.01526 -0.24992,0.1441c-0.0474,0.00845 -0.09273,0.02405 -0.13589,0.04676c-0.01067,-0.12167 -0.07129,-0.21557 -0.18181,-0.28163c-0.10346,0.06101 -0.20897,0.12264 -0.31637,0.18482c0.03319,-0.07733 0.07979,-0.14549 0.13973,-0.20453c-0.05827,-0.0502 -0.10428,-0.11035 -0.13808,-0.18047c-0.15477,0.04377 -0.18824,-0.00582 -0.10035,-0.14875c0.03774,0.03172 0.07546,0.06344 0.11319,0.09516c0.0688,0.04407 0.11483,0.10426 0.13808,0.18048c0.08126,-0.05875 0.15101,-0.12892 0.20918,-0.21054c0.03774,0.03172 0.07546,0.06344 0.11319,0.09516c-0.04228,0.05029 -0.08459,0.10064 -0.12687,0.15094c0.0629,0.05287 0.12576,0.10573 0.18867,0.15859c0.06344,-0.07546 0.12686,-0.15094 0.19031,-0.2264c-0.241,-0.22404 -0.2304,-0.23663 0.03172,-0.03772c0.05289,-0.0629 0.10573,-0.12576 0.1586,-0.18866c-0.19067,-0.18173 -0.18006,-0.19434 0.03172,-0.03772c0.05289,-0.0629 0.10571,-0.12576 0.15859,-0.18867c-0.16712,-0.13771 -0.16381,-0.16715 0.00984,-0.08832c0.05026,-0.01526 0.09455,-0.04241 0.13289,-0.08148c0.06424,-0.13693 0.12167,-0.28186 0.17228,-0.43475c0.15047,-0.09304 0.26778,-0.21981 0.35191,-0.38033c0.0148,-0.04732 0.01079,-0.09365 -0.01202,-0.13891c-0.07925,-0.0053 -0.12328,-0.04232 -0.13206,-0.11101c0.0885,0.01308 0.16196,0.0534 0.22039,0.12086c0.04832,-0.05145 0.07808,-0.11234 0.08915,-0.18264c0.08087,-0.00221 0.15461,-0.02612 0.22121,-0.07163c-0.14761,0.21015 -0.26848,0.43052 -0.36259,0.66115c0.1027,-0.08406 0.19359,-0.17941 0.27263,-0.286c0.19834,0.1874 0.41013,0.344 0.63544,0.46978c0.50918,0.27903 0.99168,0.59878 1.44751,0.95925c0.04228,-0.05029 0.08459,-0.10064 0.12687,-0.15094c-0.20892,-0.18632 -0.42803,-0.35975 -0.65731,-0.52037c-0.51181,-0.25098 -0.95531,-0.59158 -1.33048,-1.02185c-0.05289,0.0629 -0.10572,0.12577 -0.15859,0.18867c0.01635,-0.17128 0.09894,-0.29502 0.24775,-0.37131c0.15492,0.25511 0.35589,0.48843 0.6029,0.7c0.31998,0.19205 0.6347,0.3922 0.94413,0.60049c0.13315,0.1243 0.26095,0.25317 0.38334,0.38665c0.05289,-0.0629 0.10571,-0.12576 0.15859,-0.18867c-0.12828,-0.13921 -0.26232,-0.27338 -0.4022,-0.40252c-0.31703,-0.17771 -0.62546,-0.37258 -0.92527,-0.58462c-0.13988,-0.12911 -0.27392,-0.26331 -0.40221,-0.4025c0.05543,-0.01161 0.10372,0.00752 0.14491,0.05744c0.55192,0.38734 1.08876,0.79567 1.61046,1.22502c0.04834,-0.04449 0.07278,-0.09911 0.07328,-0.16379c-0.10288,-0.14179 -0.21907,-0.27167 -0.34861,-0.38964c-0.58077,-0.33888 -1.10075,-0.75448 -1.55987,-1.2469c-0.15635,0.15243 -0.13376,0.27876 0.0678,0.37897c-0.09708,-0.01971 -0.18313,-0.07053 -0.25811,-0.15257c-0.02775,0.04442 -0.06573,0.07688 -0.11402,0.09734c0.0483,-0.10428 0.05088,-0.20946 0.00765,-0.31554c-0.02313,0.002 -0.04633,0.00402 -0.06945,0.00602c0.13888,-0.16543 0.11004,-0.29706 -0.08665,-0.39485c-0.13487,0.22817 -0.27887,0.45055 -0.43204,0.66716c0.04442,0.02775 0.07688,0.06573 0.09733,0.11403c-0.13255,0.00301 -0.25788,0.03719 -0.37598,0.10252c-0.29902,0.39362 -0.60992,0.77625 -0.93272,1.14783c-0.12218,0.1259 -0.25309,0.23049 -0.39266,0.31388c0.38809,-0.43653 0.7456,-0.88733 1.07245,-1.35234c0.88376,-1.29222 1.58604,-2.67665 2.10693,-4.15336c0.03993,-0.19626 0.06392,-0.39073 0.07193,-0.58351c0.06038,-0.12378 0.07151,-0.24549 0.03343,-0.3651c0.07479,-0.13505 0.08046,-0.29573 0.02124,-0.43348c0.00626,-0.00666 0.01236,-0.01353 0.01834,-0.02062c0.0107,-0.01273 0.02063,-0.02583 0.02985,-0.03927c0.00577,0.00862 0.0116,0.01725 0.0175,0.02589c0.50905,0.44478 0.99831,0.90973 1.46773,1.39483c0.18362,0.2752 0.34331,0.57043 0.47901,0.88567c0.0989,0.43261 0.18327,0.8685 0.25314,1.30756c0.08022,0.14077 0.15113,0.28623 0.21272,0.43641c-0.02169,0.29622 -0.06609,0.59162 -0.1332,0.88619c-0.29119,0.43897 -0.60439,0.86261 -0.93956,1.27088c-0.11292,0.21882 -0.19804,0.44774 -0.2554,0.68686c-0.16411,0.26717 -0.38587,0.46712 -0.66529,0.59989z" fill="#0e0d0c" fill-rule="nonzero"/><path d="M254.32807,186.59814c-0.33142,-0.31886 -0.67831,-0.6212 -1.04065,-0.907c-0.13174,-0.2863 -0.2504,-0.57924 -0.35597,-0.87883c-0.08368,-0.14757 -0.19359,-0.27215 -0.32973,-0.37379c-0.06023,0.05525 -0.0952,0.12244 -0.10501,0.20153c0.07141,0.09202 0.15417,0.17229 0.24827,0.24089c-0.11281,-0.04911 -0.22831,-0.10324 -0.34644,-0.16243c-0.002,-0.02313 -0.00401,-0.04632 -0.00602,-0.06946c-0.08297,0.04476 -0.16001,0.09809 -0.23105,0.15994c-0.03896,0.13076 -0.11825,0.22509 -0.2379,0.28299c0.06028,0.10884 0.06402,0.21931 0.0112,0.3314c0.09064,-0.02279 0.16836,-0.00033 0.23323,0.06727c-0.03287,0.04211 -0.05199,0.09043 -0.05744,0.14491c0.04633,0.08209 0.08807,0.16014 0.12523,0.23406c-0.06325,-0.07145 -0.13668,-0.11174 -0.22038,-0.12087c-0.03099,0.07809 -0.0713,0.15153 -0.12088,0.22037c-0.03795,0.03197 -0.04648,0.06769 -0.0257,0.10719c-0.04228,0.05029 -0.08459,0.10064 -0.12687,0.15094c-0.02285,0.03722 -0.05657,0.05182 -0.10117,0.04375c0.09669,-0.25314 0.04639,-0.29541 -0.15094,-0.12687c-0.1789,-0.23281 -0.13078,-0.41774 0.14439,-0.55478c-0.04575,-0.12637 -0.0452,-0.25471 0.00166,-0.38501c0.03038,-0.00113 0.05885,-0.00939 0.08532,-0.02488c0.12354,-0.33509 0.2701,-0.66266 0.43971,-0.98269c0.07433,0.00266 0.13519,0.03239 0.18264,0.08915c0.07134,-0.06426 0.10532,-0.14297 0.10199,-0.23625c-0.05184,0.02398 -0.0773,0.06698 -0.07629,0.12907c-0.17804,-0.06201 -0.19858,-0.1652 -0.06179,-0.30954c0.03774,0.03172 0.07546,0.06345 0.11321,0.09517c0.12129,-0.12703 0.10044,-0.16607 -0.06261,-0.11703c0.0477,-0.26059 0.12453,-0.51798 0.23053,-0.77217c0.08631,0.00212 0.11976,0.05173 0.10035,0.14875c0.08089,-0.05937 0.16716,-0.07269 0.25894,-0.03991c0.21549,0.09626 0.4233,0.20657 0.62342,0.33088c0.19427,0.1903 0.27852,0.42211 0.25263,0.69535c-0.03715,-0.00135 -0.06759,-0.01619 -0.09132,-0.04457c-0.15706,-0.42164 -0.45041,-0.71111 -0.87988,-0.86845c0.60397,0.34803 0.8816,0.86044 0.83283,1.53727c-0.05377,-0.27988 -0.11884,-0.55995 -0.1952,-0.84026c-0.20514,-0.22003 -0.4421,-0.39781 -0.71089,-0.53322c-0.0102,0.0555 -0.01146,0.10809 -0.00382,0.15777c-0.00859,0.03572 -0.01711,0.07146 -0.0257,0.10719c-0.03484,0.03485 -0.04865,0.07689 -0.04155,0.12604c0.16554,0.16059 0.331,0.32119 0.49653,0.4818c0.10739,0.37124 0.20363,0.74193 0.28871,1.11206c-0.06852,-0.05703 -0.11555,-0.12877 -0.14109,-0.2152c-0.05778,-0.2632 -0.11555,-0.52647 -0.17333,-0.78968c-0.07111,-0.08379 -0.13701,-0.1714 -0.19768,-0.26278c-0.10043,-0.04405 -0.19807,-0.09393 -0.29283,-0.14958c-0.01703,0.07847 -0.03948,0.1562 -0.06727,0.23323c0.15905,0.17764 0.29815,0.36964 0.41724,0.57614c0.07064,0.40416 0.25744,0.7437 0.5605,1.01855c0.3401,0.16096 0.58307,0.40815 0.72894,0.74155z" fill="#1a1a1b" fill-rule="evenodd"/><path d="M253.68558,184.83449c0.04878,-0.67683 -0.22884,-1.18924 -0.83282,-1.53726c0.42948,0.15733 0.7228,0.44681 0.87987,0.86845c-0.0134,0.25056 0.01922,0.49263 0.09787,0.72623c-0.00495,0.11884 0.03354,0.22628 0.11537,0.32238c0.24501,0.22012 0.49655,0.4316 0.75466,0.63439c0.08748,0.10965 0.13325,0.23398 0.13726,0.37296c-0.07795,-0.08523 -0.14486,-0.18437 -0.20068,-0.2975c-0.44111,-0.25882 -0.75828,-0.62206 -0.9515,-1.08966z" fill="#323232" fill-rule="evenodd"/><path d="M250.3119,187.08582c-0.32685,0.46504 -0.68436,0.91582 -1.07245,1.35236c-0.05289,0.0629 -0.10572,0.12578 -0.15859,0.18867c-0.03774,-0.03172 -0.07546,-0.06344 -0.11319,-0.09516c0.48146,-0.45032 0.92954,-0.93226 1.34424,-1.44587z" fill="#241e09" fill-rule="evenodd"/><path d="M251.77309,187.79896c-0.22529,-0.12578 -0.4371,-0.28238 -0.63543,-0.46978c-0.07903,0.1066 -0.16991,0.20194 -0.27262,0.28601c0.09413,-0.23062 0.21498,-0.451 0.36259,-0.66114c-0.0666,0.0455 -0.14033,0.06943 -0.22121,0.07163c-0.01107,0.0703 -0.04081,0.13119 -0.08915,0.18263c-0.05842,-0.06747 -0.13189,-0.10778 -0.22038,-0.12087c0.00879,0.0687 0.05282,0.10571 0.13206,0.11102c0.02281,0.04526 0.02682,0.09157 0.01203,0.13891c-0.08413,0.16053 -0.20146,0.2873 -0.35192,0.38034c-0.05061,0.1529 -0.10803,0.29782 -0.17227,0.43474c-0.03833,0.03907 -0.08263,0.06621 -0.13289,0.08148c-0.17368,-0.07884 -0.17698,-0.0494 -0.00985,0.08831c-0.05289,0.0629 -0.10572,0.12577 -0.15859,0.18867c-0.21178,-0.15659 -0.22238,-0.14399 -0.03172,0.03774c-0.05289,0.0629 -0.10572,0.12575 -0.1586,0.18866c-0.26212,-0.19892 -0.27272,-0.1863 -0.03172,0.03772c-0.06344,0.07546 -0.12687,0.15092 -0.19031,0.2264c-0.0629,-0.05287 -0.12576,-0.10573 -0.18866,-0.1586c0.04228,-0.05029 0.08459,-0.10063 0.12687,-0.15092c-0.03774,-0.03172 -0.07546,-0.06344 -0.11319,-0.09516c-0.05818,0.08162 -0.12793,0.15179 -0.20918,0.21053c-0.02326,-0.07622 -0.06926,-0.13639 -0.13808,-0.18045c0.05289,-0.0629 0.10572,-0.12577 0.1586,-0.18866c0.13958,-0.08339 0.27046,-0.188 0.39266,-0.31389c0.32279,-0.37159 0.63369,-0.7542 0.93272,-1.14783c0.11809,-0.06533 0.24342,-0.09952 0.37597,-0.10253c-0.02046,-0.04829 -0.05293,-0.08626 -0.09734,-0.11402c0.15317,-0.2166 0.29715,-0.43898 0.43205,-0.66714c0.19669,0.09779 0.22554,0.2294 0.08665,0.39483c0.02313,-0.002 0.04632,-0.00401 0.06946,-0.00602c0.04322,0.10608 0.04065,0.21126 -0.00767,0.31554c0.04829,-0.02046 0.08629,-0.05291 0.11403,-0.09733c0.07498,0.08204 0.16105,0.13286 0.25811,0.15258c0.08126,0.05002 0.13358,0.11545 0.15694,0.19633c-0.04119,-0.0499 -0.08949,-0.06905 -0.14492,-0.05744c-0.08804,-0.07401 -0.17609,-0.14803 -0.26412,-0.22203c-0.03172,0.03773 -0.06344,0.07547 -0.09515,0.11321c-0.1488,0.07628 -0.2314,0.20003 -0.24775,0.37131c0.16763,0.20202 0.35829,0.38378 0.57199,0.54525z" fill="#272726" fill-rule="evenodd"/><path d="M254.33244,187.05259c-0.03898,0.03718 -0.08529,0.04118 -0.13891,0.01202c-0.1181,-0.20497 -0.26248,-0.39072 -0.4331,-0.55726c-0.25664,-0.15295 -0.48832,-0.33696 -0.69504,-0.55208c-0.21778,-0.34156 -0.47208,-0.65191 -0.76284,-0.93105c0.05087,-0.08603 0.10171,-0.17209 0.15259,-0.25811c0.10659,0.07905 0.20193,0.16995 0.286,0.27263c0.10217,0.2861 0.24198,0.55387 0.41941,0.80335c0.32903,0.29804 0.65802,0.59611 0.98706,0.89417c0.04861,0.11402 0.11018,0.21949 0.18482,0.31636z" fill="#515151" fill-rule="evenodd"/><path d="M254.32807,186.59814c-0.14589,-0.33341 -0.38884,-0.58061 -0.72894,-0.74157c-0.30305,-0.27485 -0.48987,-0.61438 -0.5605,-1.01855c-0.11908,-0.20649 -0.25818,-0.39849 -0.41724,-0.57614c0.0278,-0.07703 0.05024,-0.15475 0.06726,-0.23323c0.09476,0.05564 0.1924,0.10551 0.29285,0.14957c0.06068,0.09138 0.12657,0.17898 0.19769,0.26278c0.05778,0.2632 0.11554,0.52646 0.17331,0.78968c0.02553,0.08645 0.07256,0.15818 0.14109,0.21519c-0.08509,-0.37013 -0.18132,-0.74082 -0.28871,-1.11205c-0.16554,-0.16059 -0.331,-0.32121 -0.49653,-0.4818c-0.00709,-0.04916 0.00673,-0.0912 0.04157,-0.12606c0.23871,0.14902 0.45778,0.32243 0.6573,0.52036c0.06234,0.18119 0.07837,0.36642 0.04811,0.55562c0.0354,0.17453 0.08516,0.34515 0.14926,0.51187c0.2913,0.26632 0.58257,0.53268 0.87387,0.79899c0.05834,0.13489 0.11664,0.2698 0.17498,0.40467c0.01309,0.05724 -0.00705,0.09395 -0.06043,0.11019c-0.09715,-0.31794 -0.29281,-0.55757 -0.58702,-0.71886c0.26433,0.22214 0.43987,0.4985 0.52659,0.82907c-0.07733,-0.0332 -0.14547,-0.0798 -0.20452,-0.13972z" fill="#4f4f4f" fill-rule="evenodd"/><path d="M250.84121,188.75431c-0.16055,-0.07689 -0.32007,-0.16801 -0.47849,-0.27345c0.04228,-0.05029 0.0846,-0.10063 0.12687,-0.15092c0.0946,0.06833 0.19322,0.12977 0.29584,0.18429c0.06429,0.07331 0.08289,0.15333 0.05578,0.24008z" fill="#4f4e4f" fill-rule="evenodd"/><path d="M251.01349,188.31957c-0.01057,0.01257 -0.02117,0.02517 -0.03172,0.03772c-0.05907,0.00123 -0.11593,0.0178 -0.17063,0.04975c-0.09708,-0.01971 -0.18312,-0.07054 -0.25811,-0.15258c0.03699,-0.06408 0.09184,-0.1038 0.16459,-0.11921c0.11249,0.03828 0.21114,0.09969 0.29585,0.18431z" fill="#4d4c49" fill-rule="evenodd"/><path d="M250.91666,188.81775c-0.02516,-0.02115 -0.05029,-0.04229 -0.07545,-0.06343c0.02712,-0.08675 0.00853,-0.16676 -0.05578,-0.24008c0.03795,-0.03199 0.04648,-0.06769 0.0257,-0.10719c0.05468,-0.03194 0.11156,-0.04854 0.17062,-0.04975c0.05031,0.04229 0.10062,0.0846 0.15092,0.12687c-0.03172,0.03773 -0.06344,0.07546 -0.09516,0.11319c-0.2118,-0.1566 -0.2224,-0.144 -0.03172,0.03773c-0.04881,0.05291 -0.07853,0.11377 -0.08915,0.18264z" fill="#412b1b" fill-rule="evenodd"/><path d="M254.64256,185.38138c-0.21692,-0.03339 -0.37314,-0.15397 -0.46865,-0.36177c-0.11154,-0.23931 -0.17991,-0.48996 -0.20506,-0.75195c0.078,0.04517 0.11173,0.03057 0.10116,-0.04375c-0.04642,-0.26435 -0.13789,-0.513 -0.27448,-0.74594c-0.27558,-0.30662 -0.56889,-0.59614 -0.87988,-0.86846c0.31046,0.21802 0.59971,0.46119 0.86784,0.72954c0.08996,0.13185 0.16618,0.271 0.22858,0.41754c0.05611,0.02487 0.07196,0.00601 0.04758,-0.05661c-0.05972,-0.1273 -0.12864,-0.24962 -0.2067,-0.36694c-0.32044,-0.33423 -0.64618,-0.66176 -0.97721,-0.98247c-0.00602,-0.06946 -0.01202,-0.13891 -0.01805,-0.20836c0.30943,0.21788 0.60401,0.45477 0.8837,0.71067c-0.29119,-0.31471 -0.59706,-0.61478 -0.91759,-0.90016c0.63792,0.43075 1.14045,0.98201 1.50766,1.65376c0.15099,0.53141 0.27911,1.06844 0.38438,1.61107c-0.08667,-0.07001 -0.13569,-0.16488 -0.1471,-0.28465c-0.04025,-0.01401 -0.08127,-0.01629 -0.12303,-0.00684c0.02916,0.06746 0.05833,0.13489 0.08749,0.20235c-0.03572,-0.00858 -0.07147,-0.01713 -0.10719,-0.0257c0.06627,0.09834 0.13845,0.19121 0.21654,0.27864z" fill="#222222" fill-rule="evenodd"/><path d="M251.74199,186.2273c0.04228,-0.05029 0.08459,-0.10064 0.12687,-0.15094c0.27784,0.30627 0.56057,0.60833 0.84816,0.90619c0.37345,0.24607 0.71305,0.53155 1.01877,0.85642c-0.00858,0.03574 -0.01713,0.07145 -0.0257,0.10719c-0.36127,-0.3102 -0.74715,-0.59165 -1.15767,-0.8444c-0.26523,-0.24691 -0.52608,-0.49838 -0.78254,-0.75441c0.00222,-0.04431 -0.00708,-0.08434 -0.02788,-0.12004z" fill="#4f4f4f" fill-rule="evenodd"/><path d="M252.2358,185.86967c-0.03716,-0.07394 -0.07889,-0.15197 -0.12522,-0.23405c0.00543,-0.05449 0.02455,-0.10282 0.05744,-0.14491c0.27517,0.26461 0.52743,0.55183 0.75682,0.86161c0.36689,0.31171 0.71047,0.64349 1.03081,0.99532c-0.00032,0.09548 -0.04563,0.11106 -0.13589,0.04676c-0.54617,-0.49076 -1.07415,-0.99899 -1.58394,-1.52472z" fill="#505050" fill-rule="evenodd"/><path d="M251.77309,187.79896c-0.21369,-0.16149 -0.40438,-0.34321 -0.57199,-0.54524c0.05289,-0.0629 0.10572,-0.12577 0.15859,-0.18867c0.37517,0.43027 0.81868,0.77088 1.33048,1.02185c0.22927,0.1606 0.4484,0.33405 0.65731,0.52037c-0.04228,0.05029 -0.08459,0.10064 -0.12687,0.15094c-0.45584,-0.36047 -0.93835,-0.68022 -1.44752,-0.95925z" fill="#525252" fill-rule="evenodd"/><path d="M251.95304,187.04868c-0.02336,-0.08089 -0.07569,-0.14631 -0.15695,-0.19633c-0.20156,-0.10021 -0.22415,-0.22653 -0.0678,-0.37897c0.45912,0.49242 0.97911,0.90804 1.55987,1.2469c0.12954,0.11798 0.24575,0.24786 0.34861,0.38964c-0.0005,0.06469 -0.02495,0.11929 -0.07328,0.16379c-0.52172,-0.42936 -1.05854,-0.83768 -1.61046,-1.22502z" fill="#515151" fill-rule="evenodd"/><path d="M254.20556,187.20353c-0.03699,0.06408 -0.09186,0.10379 -0.16462,0.11921c-0.08558,-0.18927 -0.20478,-0.35389 -0.35762,-0.49384c-0.2415,-0.14583 -0.4606,-0.31926 -0.65732,-0.52036c-0.26627,-0.3201 -0.53838,-0.63478 -0.81644,-0.94391c0.0098,-0.07907 0.04478,-0.14627 0.10501,-0.20151c0.2972,0.29485 0.56408,0.61578 0.80058,0.96278c0.19206,0.19365 0.40486,0.3618 0.63845,0.5045c0.17135,0.17522 0.32201,0.36627 0.45197,0.57314z" fill="#4e4e4e" fill-rule="evenodd"/><path d="M253.49361,185.44589c0.15034,0.15322 0.29798,0.30953 0.44294,0.46896c-0.2047,-0.1116 -0.35234,-0.26793 -0.44294,-0.46896z" fill="#0b0b0b" fill-rule="evenodd"/><path d="M253.83048,184.89192c0.00516,-0.14358 -0.0016,-0.28873 -0.02022,-0.43558c0.01787,0.00428 0.03572,0.00857 0.05359,0.01285c0.02877,0.23353 0.10039,0.45474 0.21489,0.66363c0.22841,0.21344 0.45679,0.42695 0.68519,0.64041c-0.40977,-0.19518 -0.72091,-0.48895 -0.93347,-0.88129z" fill="#333333" fill-rule="evenodd"/><path d="M251.71671,189.16831c-0.10326,-0.02331 -0.19385,0.00784 -0.2718,0.0935c-0.08181,-0.05338 -0.14042,-0.12411 -0.1758,-0.21219c-0.18268,0.04131 -0.31071,-0.02343 -0.38417,-0.19415c0.01057,-0.01257 0.02117,-0.02517 0.03172,-0.03772c0.01062,-0.06887 0.04032,-0.12975 0.08915,-0.18265c-0.19068,-0.18173 -0.18007,-0.19434 0.03172,-0.03772c0.03172,-0.03773 0.06344,-0.07547 0.09515,-0.11321c-0.05031,-0.04229 -0.10062,-0.0846 -0.15092,-0.12687c0.01057,-0.01257 0.02116,-0.02516 0.03172,-0.03772c0.11574,0.03515 0.2315,0.02511 0.34727,-0.03008c0.09056,0.2057 0.23823,0.36202 0.44294,0.46896c0.04968,-0.00145 0.08868,-0.0223 0.11703,-0.0626c-0.0139,0.12845 -0.07533,0.22705 -0.18431,0.29585c0.01768,0.06414 0.01112,0.12302 -0.01969,0.17664z" fill="#cfa55b" fill-rule="evenodd"/><path d="M251.42853,188.66848c-0.06861,0.09412 -0.14889,0.17685 -0.24091,0.24826c-0.09881,-0.00406 -0.13856,-0.05891 -0.11922,-0.16462c0.04388,-0.09016 0.10104,-0.1709 0.17144,-0.24224c0.0629,0.05286 0.12578,0.10572 0.18867,0.15859z" fill="#322018" fill-rule="evenodd"/><path d="M252.74497,184.88095c-0.0941,-0.06861 -0.17687,-0.14888 -0.24827,-0.24089c0.0098,-0.07907 0.04478,-0.14628 0.10501,-0.20153c0.13615,0.10164 0.24605,0.22623 0.32973,0.37379c0.10557,0.29959 0.22424,0.59253 0.35597,0.87883c0.36234,0.28579 0.70921,0.58814 1.04065,0.907c0.02472,0.08061 0.03805,0.1669 0.03992,0.25895c-0.3621,-0.37809 -0.74343,-0.74158 -1.14401,-1.0905c-0.17432,-0.28912 -0.33398,-0.58432 -0.47902,-0.88566z" fill="#555555" fill-rule="evenodd"/><path d="M251.69265,188.89051c-0.06344,0.07546 -0.12687,0.15094 -0.19031,0.2264c-0.18023,-0.1233 -0.17967,-0.25163 0.00166,-0.385c0.0629,0.05286 0.12576,0.10573 0.18867,0.15859z" fill="#402515" fill-rule="evenodd"/><path d="M251.89455,185.96917c0.04956,-0.06883 0.08989,-0.1423 0.12088,-0.22037c0.24199,0.20503 0.45453,0.43735 0.63762,0.697c0.4215,0.36927 0.83328,0.74761 1.23533,1.13506c-0.03172,0.03773 -0.06344,0.07546 -0.09516,0.11319c-0.34004,-0.28578 -0.69019,-0.55869 -1.05049,-0.81868c-0.2787,-0.30454 -0.56141,-0.6066 -0.84816,-0.90619z" fill="#4f4f4f" fill-rule="evenodd"/><path d="M251.71671,189.16831c0.03082,-0.05362 0.03739,-0.11251 0.01969,-0.17666c0.109,-0.06879 0.17041,-0.16739 0.18429,-0.29584c0.24801,0.05845 0.47898,0.1667 0.69286,0.32487c-0.04237,0.05646 -0.09726,0.09623 -0.1646,0.11922c-0.14088,-0.04888 -0.27952,-0.10104 -0.41588,-0.15642c-0.05687,0.01659 -0.0886,0.05431 -0.09516,0.11319c0.12674,-0.02547 0.24022,0.00553 0.34041,0.09296c-0.04228,0.05029 -0.08459,0.10064 -0.12687,0.15094c-0.14624,-0.04676 -0.29116,-0.10419 -0.43475,-0.17228z" fill="#52443b" fill-rule="evenodd"/><path d="M252.77565,183.61879c-0.00762,-0.04968 -0.00636,-0.10229 0.00382,-0.15777c0.2688,0.13542 0.50576,0.31318 0.7109,0.53322c0.07636,0.28031 0.14143,0.56039 0.19521,0.84027c0.00449,0.21249 0.0847,0.39794 0.2406,0.55644c0.24099,0.22403 0.48193,0.44809 0.72293,0.67212c0.0619,0.10594 0.09505,0.21973 0.09952,0.34125c-0.07814,-0.06775 -0.13245,-0.15635 -0.16296,-0.26578c-0.26614,-0.24518 -0.53226,-0.49038 -0.79841,-0.73556c-0.09462,-0.10775 -0.16352,-0.23008 -0.2067,-0.36696c-0.00323,-0.30853 -0.05246,-0.6075 -0.14763,-0.89685c-0.20615,-0.18888 -0.42524,-0.36231 -0.65731,-0.52037z" fill="#383838" fill-rule="evenodd"/><path d="M250.88493,188.85547c0.07345,0.1707 0.20148,0.23545 0.38417,0.19417c0.0354,0.08808 0.094,0.15879 0.17579,0.21217c0.18982,-0.00413 0.37904,0.02616 0.56764,0.0908c0.00802,0.09258 -0.03429,0.14293 -0.12687,0.15094c-0.19228,-0.03414 -0.37822,-0.09384 -0.55781,-0.17912c-0.30542,-0.23329 -0.63169,-0.43251 -0.97886,-0.5975c-0.02717,-0.04429 -0.0543,-0.08861 -0.08147,-0.13289c0.02314,-0.002 0.04631,-0.00402 0.06945,-0.00601c0.17632,0.11499 0.35897,0.20415 0.54794,0.26743z" fill="#4e4948" fill-rule="evenodd"/><path d="M251.44882,186.88242c0.03172,-0.03773 0.06345,-0.07546 0.09516,-0.11319c0.08804,0.07401 0.17609,0.14804 0.26413,0.22204c0.12828,0.13921 0.26232,0.27338 0.40221,0.4025c0.29982,0.21204 0.60823,0.40693 0.92527,0.58463c0.13988,0.12911 0.27393,0.26329 0.40221,0.4025c-0.05289,0.0629 -0.10573,0.12575 -0.1586,0.18866c-0.12238,-0.13347 -0.25019,-0.26234 -0.38333,-0.38665c-0.30944,-0.20829 -0.62417,-0.40845 -0.94415,-0.60049c-0.247,-0.21157 -0.44796,-0.4449 -0.60289,-0.70001z" fill="#4f4f4f" fill-rule="evenodd"/><path d="M252.84763,188.89547c-0.04624,0.06572 -0.10837,0.08856 -0.18647,0.06861c-0.29571,-0.21473 -0.62327,-0.3613 -0.98269,-0.43971c-0.15014,-0.0933 -0.26537,-0.21162 -0.34562,-0.35492c-0.07622,0.02323 -0.13637,0.06927 -0.18048,0.13808c-0.14592,-0.10823 -0.29486,-0.21195 -0.44678,-0.31119c0.07399,-0.08804 0.14804,-0.17609 0.22204,-0.26413c0.61831,0.42724 1.25833,0.81495 1.91999,1.16325z" fill="#504f4f" fill-rule="evenodd"/><path d="M253.15114,188.76423c-0.03583,0.03962 -0.08013,0.06678 -0.13289,0.08148c-0.40953,-0.27355 -0.84303,-0.49842 -1.30042,-0.6746c-0.26117,-0.14472 -0.50342,-0.31616 -0.72675,-0.51433c0.05086,-0.08604 0.10171,-0.17207 0.15259,-0.25811c0.25916,0.22855 0.52854,0.44434 0.80824,0.64725c0.42525,0.19829 0.825,0.43774 1.19924,0.71835z" fill="#4f4f4f" fill-rule="evenodd"/><path d="M252.33847,189.88418c-0.18409,0.08384 -0.35498,0.19775 -0.51269,0.34176c-0.19968,0.22264 -0.41515,0.42789 -0.64642,0.61574c-0.23202,0.05236 -0.43862,0.15772 -0.61986,0.31606c-0.16782,0.1154 -0.34704,0.2009 -0.53757,0.25646c-0.18615,-0.02197 -0.3701,-0.0585 -0.55178,-0.10967c-0.40129,-0.27346 -0.79249,-0.54861 -1.17353,-0.82554c-0.2196,0.15896 -0.43908,0.31795 -0.65844,0.47685c-0.25329,0.12574 -0.51052,0.253 -0.77164,0.38168c-0.03204,-0.01849 -0.05189,-0.04595 -0.05959,-0.08231c0.06366,-0.01159 0.11322,-0.04507 0.14875,-0.10035c-0.05525,-0.06023 -0.12244,-0.0952 -0.20151,-0.10501c-0.22725,0.13835 -0.46962,0.23515 -0.72706,0.29036c0.03786,-0.14102 0.08468,-0.27334 0.14056,-0.39702c0.26187,-0.39311 0.44676,-0.81726 0.55456,-1.27253c-0.03898,0.02087 -0.07804,0.04175 -0.11703,0.06261c-0.20699,0.4142 -0.42226,0.8235 -0.64589,1.22795c-0.03686,0.09363 -0.08772,0.17965 -0.15258,0.25811c0.05129,0.02901 0.07844,0.07329 0.08148,0.13289c-0.24232,-0.15528 -0.31406,-0.10823 -0.21519,0.14109c0.14877,0.01899 0.16964,0.05806 0.06261,0.11703c-0.15615,-0.09425 -0.23762,-0.22714 -0.24443,-0.39868c0.22726,-0.52254 0.51131,-1.01364 0.85207,-1.47322c-0.00676,-0.00695 -0.01361,-0.01359 -0.02056,-0.01991c0.08504,-0.02746 0.16365,-0.07836 0.22541,-0.15181c0.02392,-0.02846 0.04406,-0.05881 0.0605,-0.09047c0.15927,0.0419 0.31946,0.03784 0.48058,-0.0123c0.29984,-0.06085 0.5822,-0.16692 0.8471,-0.31826c0.35949,-0.18703 0.70332,-0.39172 1.0314,-0.61409c-0.08789,0.14294 -0.05443,0.19252 0.10035,0.14875c0.03377,0.07011 0.07982,0.13027 0.13808,0.18048c-0.05993,0.05903 -0.10655,0.12719 -0.13973,0.20452c0.10741,-0.0622 0.21293,-0.12381 0.31637,-0.18482c0.11054,0.06607 0.17114,0.15998 0.18183,0.28164c0.04317,-0.02269 0.08849,-0.0383 0.13589,-0.04676c0.02577,-0.15936 0.10909,-0.20736 0.24992,-0.1441c-0.04228,0.05029 -0.08459,0.10064 -0.12687,0.15094c0.38266,0.16758 0.74467,0.3753 1.08605,0.62319c0.23953,0.07257 0.47904,0.14512 0.71857,0.21768c0.07651,-0.03305 0.15655,-0.05167 0.24008,-0.05578c-0.18398,-0.12794 -0.38976,-0.2151 -0.6174,-0.26142c-0.38128,-0.29566 -0.80219,-0.50994 -1.26269,-0.64288c0.00192,-0.0566 -0.02523,-0.10088 -0.08148,-0.13289c0.05641,-0.09948 0.13444,-0.14124 0.23406,-0.12523c-0.04228,0.05029 -0.0846,0.10064 -0.12687,0.15094c0.66184,0.30491 1.3137,0.62749 1.95555,0.96775c0.11351,0.00431 0.18625,-0.03116 0.21821,-0.10635c0.01057,-0.01257 0.02117,-0.02517 0.03172,-0.03772c0.04968,-0.00762 0.10228,-0.00635 0.15777,0.00382c0.06428,-0.01905 0.0897,-0.06209 0.07628,-0.12907c-0.09891,-0.02855 -0.18496,-0.07938 -0.2581,-0.15259c0.27383,-0.16945 0.5522,-0.32183 0.83507,-0.45714c-0.11087,0.21615 -0.22643,0.43025 -0.34673,0.64228c-0.0952,0.11471 -0.21025,0.20049 -0.34509,0.25728z" fill="#131411" fill-rule="nonzero"/><path d="M246.57833,190.83771c-0.08951,0.11911 -0.19096,0.22701 -0.30433,0.32372c-0.06745,0.02915 -0.09259,0.00801 -0.07546,-0.06344c0.17913,-0.32524 0.34887,-0.65478 0.50916,-0.98871c0.05464,-0.13333 0.09521,-0.27092 0.12169,-0.41288c0.04428,-0.02717 0.09061,-0.03118 0.13891,-0.01203c-0.10344,0.3986 -0.23344,0.78305 -0.38995,1.15332z" fill="#4e4e4f" fill-rule="evenodd"/><path d="M246.98302,190.66273c-0.09144,0.13139 -0.21174,0.22345 -0.36095,0.27615c0.18325,-0.43867 0.34295,-0.88399 0.4791,-1.33597c0.07095,-0.04344 0.12457,-0.03058 0.16077,0.03856c-0.01298,0.06991 -0.01853,0.14032 -0.01669,0.21137c-0.1022,0.26995 -0.18959,0.53992 -0.26225,0.8099z" fill="#4d4d4e" fill-rule="evenodd"/><path d="M247.41943,190.45002c-0.10941,0.13721 -0.24657,0.23655 -0.41152,0.29801c0.16131,-0.36578 0.27442,-0.74293 0.33935,-1.13144c0.05059,-0.02188 0.10117,-0.04375 0.15175,-0.06563c0.00189,0.30534 -0.02465,0.60503 -0.07961,0.89905z" fill="#4c4d4c" fill-rule="evenodd"/><path d="M247.74864,190.21159c-0.05933,0.09502 -0.14163,0.15463 -0.24691,0.17882c0.0788,-0.31305 0.12119,-0.63161 0.12719,-0.95564c0.09731,0.24267 0.13723,0.50161 0.11974,0.77682z" fill="#4a4a49" fill-rule="evenodd"/><path d="M248.56567,189.54608c-0.03699,0.06408 -0.09185,0.10381 -0.16462,0.11922c-0.06509,-0.16838 -0.11485,-0.33901 -0.14928,-0.51187c0.04428,-0.02717 0.09061,-0.03117 0.13891,-0.01202c0.05889,0.13625 0.11724,0.27114 0.17498,0.40467z" fill="#474646" fill-rule="evenodd"/><path d="M248.07785,189.97316c-0.06352,0.08538 -0.14582,0.14497 -0.24692,0.17881c0.01148,-0.23543 -0.00852,-0.46698 -0.06013,-0.69453c0.01633,-0.07926 0.06491,-0.12426 0.14575,-0.13505c0.05368,0.21841 0.10744,0.43538 0.1613,0.65078z" fill="#49484a" fill-rule="evenodd"/><path d="M248.33761,189.74076c-0.04228,0.05029 -0.08459,0.10064 -0.12687,0.15094c-0.12517,-0.19752 -0.17895,-0.41445 -0.16131,-0.65077c0.03372,-0.01461 0.06745,-0.02914 0.10117,-0.04374c0.06304,0.18248 0.12536,0.36368 0.18701,0.5436z" fill="#454647" fill-rule="evenodd"/><path d="M247.35433,190.91047c-0.1111,0.16915 -0.248,0.2043 -0.4107,0.10552c0.08145,-0.08356 0.16802,-0.16103 0.25976,-0.23241c0.05029,0.04228 0.10064,0.0846 0.15094,0.12687z" fill="#504e4f" fill-rule="evenodd"/><path d="M248.78771,189.28196c-0.04785,0.06918 -0.10699,0.12682 -0.17747,0.17279c-0.02412,-0.11931 -0.06887,-0.23208 -0.13424,-0.33822c0.00049,-0.0647 0.02494,-0.11929 0.07329,-0.16378c0.07947,0.10978 0.15895,0.21945 0.23841,0.32922z" fill="#424541" fill-rule="evenodd"/><path d="M247.72126,190.70377c-0.09175,0.07137 -0.17831,0.14884 -0.25976,0.23241c-0.05029,-0.04228 -0.10063,-0.0846 -0.15092,-0.12687c0.07399,-0.08804 0.14804,-0.17609 0.22203,-0.26412c0.0629,0.05287 0.12576,0.10573 0.18866,0.1586z" fill="#544e50" fill-rule="evenodd"/><path d="M248.37972,190.22692c-0.1002,0.20155 -0.22654,0.22415 -0.37899,0.06781c0.06344,-0.07546 0.12687,-0.15094 0.19032,-0.2264c0.0629,0.05287 0.12578,0.10572 0.18866,0.1586z" fill="#4d4d4d" fill-rule="evenodd"/><path d="M248.08823,190.49707c-0.12916,0.16872 -0.26805,0.18076 -0.41672,0.03607c0.06344,-0.07546 0.12687,-0.15094 0.19031,-0.2264c0.07546,0.06344 0.15094,0.12687 0.2264,0.19031z" fill="#504b4b" fill-rule="evenodd"/><path d="M249.34933,189.30331c-0.206,0.1899 -0.39828,0.39313 -0.57695,0.60972c-0.0629,-0.05287 -0.12577,-0.10572 -0.18867,-0.15859c0.17974,-0.21383 0.35949,-0.42762 0.53924,-0.64146c0.07546,0.06344 0.15092,0.12686 0.2264,0.19031z" fill="#353434" fill-rule="evenodd"/><path d="M248.6712,189.95679c-0.06344,0.07546 -0.12687,0.15094 -0.19032,0.2264c-0.0629,-0.05287 -0.12576,-0.10573 -0.18866,-0.1586c0.06344,-0.07546 0.12687,-0.15094 0.19031,-0.2264c0.0629,0.05287 0.12577,0.10572 0.18867,0.15859z" fill="#494b4a" fill-rule="evenodd"/><path d="M249.75777,191.19217c-0.09902,0.02212 -0.19892,0.01329 -0.29968,-0.02653c-0.29786,-0.20744 -0.57458,-0.44005 -0.83013,-0.69783c0.39342,0.21307 0.77003,0.45452 1.1298,0.72436z" fill="#3e3638" fill-rule="evenodd"/><path d="M251.36614,189.96837c-0.02836,0.0403 -0.06736,0.06115 -0.11703,0.0626c-0.14695,-0.01335 -0.28984,-0.04764 -0.42872,-0.10282c-0.34897,-0.23178 -0.71098,-0.43951 -1.08606,-0.62318c-0.00202,-0.02314 -0.004,-0.04631 -0.00602,-0.06946c0.46029,0.13412 0.88118,0.3484 1.26269,0.64288c0.12787,0.03068 0.25294,0.06067 0.37515,0.08997z" fill="#4b4b4b" fill-rule="evenodd"/><path d="M251.06263,190.0996c-0.18275,0.06758 -0.36469,0.05417 -0.54575,-0.04021c-0.19922,-0.14604 -0.39848,-0.29203 -0.59771,-0.43807c-0.10623,-0.06515 -0.22069,-0.10774 -0.34344,-0.12771c0.03727,-0.15016 0.12257,-0.17502 0.25593,-0.07463c0.38224,0.28192 0.79259,0.50877 1.23096,0.68062z" fill="#4e4e4e" fill-rule="evenodd"/><path d="M250.54745,191.01886c-0.05691,0.04039 -0.12007,0.05169 -0.1895,0.0339c-0.23296,-0.05223 -0.4609,-0.12579 -0.68384,-0.22068c0.04173,0.07804 0.10461,0.13089 0.18867,0.15859c0.16627,0.01653 0.31117,0.07395 0.43475,0.17228c-0.23459,0.0314 -0.45953,-0.00746 -0.67484,-0.1165c-0.26817,-0.20577 -0.54185,-0.40367 -0.8211,-0.59365c-0.03345,-0.04958 -0.06687,-0.09918 -0.10033,-0.14874c0.13755,0.02572 0.26461,0.07884 0.38115,0.15943c0.17406,0.12488 0.34817,0.24973 0.52223,0.37462c-0.22212,-0.23663 -0.47266,-0.43655 -0.75164,-0.59966c-0.01391,-0.11885 0.04198,-0.14702 0.16761,-0.08449c0.26212,0.1989 0.52425,0.39775 0.78635,0.59666c0.27379,0.06374 0.52061,0.15314 0.74044,0.26828z" fill="#49494a" fill-rule="evenodd"/><path d="M250.81324,190.8559c-0.04852,0.0569 -0.1107,0.0798 -0.18648,0.06863c-0.17976,-0.09597 -0.37094,-0.14942 -0.57365,-0.16025c-0.36358,-0.22811 -0.71702,-0.47159 -1.06035,-0.73037c0.04228,-0.05029 0.0846,-0.10064 0.12687,-0.15094c0.29619,0.20803 0.58875,0.42179 0.8777,0.64123c0.27253,0.10521 0.5445,0.21578 0.8159,0.3317z" fill="#4f4e4e" fill-rule="evenodd"/><path d="M251.41425,190.52398c-0.06993,0.03975 -0.14265,0.07521 -0.21821,0.10635c-0.21945,-0.19312 -0.47354,-0.29942 -0.76231,-0.31885c-0.36776,-0.1951 -0.71922,-0.4154 -1.05433,-0.66092c0.08103,-0.11786 0.17892,-0.13216 0.29366,-0.04291c0.27312,0.15541 0.53321,0.33117 0.78035,0.52721c0.18261,0.08075 0.37183,0.11103 0.56764,0.0908c0.14095,0.08642 0.27202,0.18584 0.39318,0.29832z" fill="#4f4f4f" fill-rule="evenodd"/><path d="M249.95035,188.97138c0.01256,0.01057 0.02516,0.02115 0.03773,0.03172c0.4605,0.13294 0.8814,0.34721 1.26269,0.64288c0.22763,0.04633 0.43342,0.1335 0.6174,0.26143c-0.08352,0.0041 -0.16356,0.02272 -0.24008,0.05577c-0.23953,-0.07257 -0.47904,-0.14512 -0.71857,-0.21767c-0.34138,-0.24788 -0.7034,-0.45562 -1.08606,-0.6232c0.04228,-0.05029 0.08459,-0.10064 0.12687,-0.15094z" fill="#4f4f4e" fill-rule="evenodd"/><path d="M251.07901,190.69295c-0.03552,0.05526 -0.08512,0.08874 -0.14875,0.10035c-0.64263,-0.18558 -1.21245,-0.50359 -1.70946,-0.95406c0.03552,-0.05526 0.08512,-0.08874 0.14875,-0.10035c0.27813,0.20728 0.56343,0.40415 0.85582,0.59064c0.17243,0.0716 0.3511,0.11444 0.53593,0.12854c0.11561,0.06518 0.22152,0.14345 0.31773,0.23489z" fill="#505150" fill-rule="evenodd"/><path d="M251.57284,190.33532c-0.04228,0.05029 -0.08459,0.10064 -0.12687,0.15094c-0.12596,-0.08547 -0.22859,-0.1932 -0.30787,-0.3232c0.049,-0.02179 0.10057,-0.03206 0.15476,-0.0309c0.10292,0.05452 0.19623,0.12226 0.27998,0.20316z" fill="#454444" fill-rule="evenodd"/></g><path d="M246.32327,190.71938c-0.08719,0.07417 -0.19857,0.3681 -0.31802,0.41588c-0.04327,0.0024 -0.06638,-0.06096 -0.05634,-0.14984c0.00757,-0.06681 0.04418,-0.16007 0.04787,-0.18395c0.16009,-0.22249 0.28059,-0.47523 0.41671,-0.71091c0.04318,-0.09697 0.10302,-0.20446 0.11108,-0.3174c0.04842,-0.00963 0.11893,-0.01728 0.17983,0.01382c-0.05742,0.30821 -0.20287,0.56592 -0.32844,0.83372z" data-paper-data="{&quot;index&quot;:null}" fill="#4e4e4f" fill-rule="evenodd" stroke="none" stroke-width="1" stroke-linecap="butt"/><g fill="#000000" fill-rule="nonzero" stroke="none" stroke-width="1" stroke-linecap="butt"><path d="M251.45603,182.71545c0.04304,0.11605 0.03253,0.15812 -0.01597,0.06388c-0.04944,-0.09608 -0.1065,-0.19756 -0.11533,-0.20512c-0.00857,-0.00735 -0.01325,-0.0043 -0.19509,0.12771c-0.13515,0.09809 -0.21224,0.13285 -0.3693,0.16648c-0.22188,0.04752 -0.29189,0.04458 -0.33334,-0.01401c-0.02577,-0.03645 -0.03052,-0.37193 -0.00585,-0.41465c0.04272,-0.07396 0.07883,-0.07212 0.32156,0.01646c0.1729,0.06311 0.23656,0.10103 0.25049,0.14916l0.00952,0.0329l0.13389,-0.08095c0.07366,-0.04454 0.13343,-0.08727 0.13283,-0.09499c-0.00111,-0.01462 -0.14072,-0.28933 -0.22302,-0.43885l-0.04765,-0.08659l-0.10032,-0.02156c-0.26998,-0.05802 -0.33878,-0.07524 -0.35461,-0.08884c-0.0233,-0.01999 -0.12783,-0.26505 -0.14543,-0.34094c-0.01677,-0.07235 -0.00554,-0.11392 0.03594,-0.13316c0.03599,-0.01669 0.05786,-0.00741 0.27127,0.1152c0.28182,0.16192 0.31093,0.18168 0.34667,0.23522c0.03189,0.04776 0.27272,0.64682 0.27819,0.69197c0.00444,0.03692 0.03228,0.02787 0.17325,-0.0564c0.08257,-0.04934 0.17388,-0.09827 0.20293,-0.10872l0.05283,-0.01899l-0.05069,0.04909c-0.02788,0.02699 -0.10663,0.09069 -0.17503,0.14155c-0.0684,0.05086 -0.13063,0.09981 -0.13833,0.10877c-0.00851,0.00992 -0.00648,0.03422 0.00516,0.06188zM250.69308,182.59998c-0.06923,-0.02635 -0.12837,-0.045 -0.13146,-0.04141c-0.01048,0.01221 -0.00497,0.15647 0.00636,0.16618c0.01254,0.01076 0.2576,-0.03937 0.27147,-0.05552c0.00483,-0.00562 0.00217,-0.01272 -0.00587,-0.01579zM250.88043,181.72694c-0.02946,-0.02536 -0.26146,-0.14017 -0.268,-0.13264c-0.00324,0.00375 0.00453,0.03081 0.01726,0.06015l0.02314,0.05335l0.10326,0.03013c0.10791,0.03149 0.1453,0.03577 0.14383,0.01651z"/><path d="M251.35913,182.18922c0.0265,0.08302 0.04201,0.14844 0.03447,0.14538c-0.02321,-0.00948 -0.43299,-0.86899 -0.49516,-1.03856c-0.02074,-0.05661 -0.02203,-0.05797 -0.05934,-0.0628l-0.03815,-0.00495l0.02282,0.06401c0.01256,0.0352 0.02536,0.06616 0.02847,0.06882c0.01067,0.00915 0.0527,0.1457 0.04693,0.15244c-0.00866,0.01008 -0.08648,-0.07272 -0.15933,-0.16953c-0.10996,-0.14614 -0.07601,-0.1321 -0.4615,-0.19076c-0.31423,-0.04783 -0.82536,-0.13645 -0.93125,-0.1615c-0.07306,-0.01726 -0.02958,-0.0375 0.06461,-0.03005c0.046,0.00363 0.1466,0.01061 0.22357,0.01552c0.07695,0.00489 0.33503,0.02588 0.57351,0.04663c0.23849,0.02076 0.47991,0.04077 0.53652,0.04449c0.2225,0.01462 0.25682,0.03974 0.31954,0.23401c0.02219,0.06873 0.08665,0.2624 0.14323,0.43043z"/><path d="M251.09521,182.39962c-0.00668,0.08946 -0.06681,0.08274 -0.53249,-0.05952c-0.10492,-0.03204 -0.26743,-0.07887 -0.36115,-0.10406c-0.29994,-0.08058 -0.34475,-0.09398 -0.41093,-0.12298c-0.03571,-0.01564 -0.06421,-0.02925 -0.06336,-0.03023c0.00811,-0.00943 0.18074,0.01398 0.34784,0.04718c0.11314,0.02249 0.28191,0.05384 0.37511,0.06969c0.09319,0.01586 0.19416,0.03618 0.2244,0.04521l0.05496,0.0164l-0.02179,-0.04165c-0.02375,-0.04536 -0.01442,-0.07956 0.03147,-0.11549l0.0269,-0.02108l-0.12041,-0.04798c-0.10231,-0.04075 -0.1225,-0.05248 -0.1343,-0.07792c-0.02015,-0.04348 0.01171,-0.07498 0.07178,-0.07095c0.05708,0.00382 0.39815,0.11376 0.42535,0.13711c0.02618,0.02247 0.03018,0.06965 0.00808,0.0954c-0.01007,0.01173 -0.03989,0.03021 -0.06629,0.04106c-0.0264,0.01084 -0.0516,0.02392 -0.05602,0.02909c-0.00526,0.00614 0.02848,0.03934 0.09744,0.09588z"/></g><g fill="#000000" fill-rule="nonzero" stroke="none" stroke-width="1" stroke-linecap="butt"><path d="M248.33732,180.6175c-0.00996,0.01625 -0.05244,0.06899 -0.09439,0.11725l-0.07629,0.08774l-0.05196,-0.0391c-0.0464,-0.0349 -0.05517,-0.03667 -0.08201,-0.0163c-0.01654,0.01252 -0.04472,0.02912 -0.06264,0.03688c-0.07835,0.03393 -0.20095,-0.01517 -0.23407,-0.09372c-0.01649,-0.03911 -0.0204,-0.04119 -0.0757,-0.04005c-0.13737,0.00274 -0.20827,-0.15407 -0.14197,-0.31392c0.0138,-0.03323 0.01058,-0.04648 -0.01933,-0.07966c-0.04293,-0.04761 -0.03477,-0.06787 0.07911,-0.19647c0.07848,-0.08863 0.10946,-0.10416 0.15274,-0.07655c0.02198,0.01402 0.03227,0.00898 0.07736,-0.03794c0.05565,-0.05788 0.07448,-0.06194 0.1176,-0.02536c0.02975,0.02522 0.03381,0.05413 0.01274,0.09046c-0.01827,0.03149 0.01651,0.07959 0.11828,0.16372c0.13801,0.11405 0.1561,0.1226 0.18589,0.08787c0.01983,-0.02309 0.03262,-0.02624 0.05708,-0.01401c0.07476,0.03733 0.07923,0.10721 0.01188,0.18569c-0.0229,0.02669 -0.02195,0.03253 0.00967,0.05967zM248.21711,180.4783c0.05206,-0.06881 0.05971,-0.09651 0.01628,-0.05885c-0.0473,0.04099 -0.06257,0.03317 -0.25827,-0.13255c-0.16471,-0.13945 -0.17185,-0.14949 -0.14347,-0.20239c0.00772,-0.01442 -0.00861,-0.00597 -0.03931,0.02033c-0.02892,0.02476 -0.0636,0.04459 -0.07711,0.0441c-0.02096,-0.00077 -0.02388,0.00297 -0.02003,0.02557c0.0054,0.03167 -0.0339,0.08134 -0.06633,0.08381c-0.01272,0.00097 -0.03778,-0.00997 -0.05572,-0.02435l-0.03258,-0.0261l0.02767,0.03796c0.03376,0.04632 0.03437,0.05638 0.00741,0.12018c-0.0268,0.06343 -0.02137,0.19233 0.00921,0.21858c0.03175,0.02724 0.10472,0.04253 0.1392,0.02915c0.03662,-0.01422 0.04702,-0.00473 0.06076,0.05533c0.00995,0.0435 0.01648,0.05097 0.06224,0.0713c0.05768,0.02561 0.11829,0.01403 0.1745,-0.03335c0.03469,-0.02927 0.0404,-0.02911 0.089,0.00247c0.03375,0.02194 0.04216,0.02443 0.02405,0.0071c-0.04747,-0.04532 -0.05281,-0.07882 -0.01892,-0.11833c0.03195,-0.03723 0.03593,-0.03681 0.11557,0.01233c0.02201,0.01357 0.02059,0.0099 -0.00552,-0.01456z"/><path d="M247.92344,180.35611c0.00252,0.03313 -0.11109,0.16162 -0.16062,0.18167c-0.05935,0.02401 -0.11719,-0.00502 -0.14969,-0.07506c-0.02201,-0.04748 -0.00426,-0.09285 0.07038,-0.17982c0.05145,-0.05994 0.07008,-0.07459 0.08725,-0.06846zM247.76638,180.2808l-0.04627,0.04745c-0.05246,0.05378 -0.06832,0.11554 -0.03666,0.1427c0.03666,0.03145 0.07681,0.0165 0.13367,-0.04978l0.0533,-0.06211z"/><path d="M248.1145,180.51708c0.00902,0.02325 0.00108,0.03937 -0.04712,0.09555c-0.04968,0.05789 -0.06474,0.06808 -0.10532,0.07116c-0.05834,0.00448 -0.11546,-0.04014 -0.12607,-0.09847c-0.00649,-0.0357 -0.00002,-0.04934 0.05086,-0.107c0.08489,-0.09622 0.0905,-0.09759 0.1587,-0.03908zM247.96478,180.47358c-0.00614,0.00216 -0.02628,0.02745 -0.04478,0.05619c-0.02772,0.04312 -0.02993,0.05645 -0.0126,0.07619c0.03228,0.03676 0.06774,0.03015 0.11135,-0.02067l0.03899,-0.04543l-0.04089,-0.0351z"/></g><g fill="#000000" fill-rule="nonzero" stroke="none" stroke-width="1" stroke-linecap="butt"><path d="M244.84154,187.33011c0.05484,0.0751 0.05862,0.11295 0.00853,0.0855c-0.11309,-0.06201 -0.22854,-0.14012 -0.31596,-0.2138c-0.05334,-0.04494 -0.07152,-0.055 -0.08054,-0.04449c-0.00755,0.0088 -0.00042,0.02498 0.02025,0.04603c0.03762,0.03827 0.03749,0.07909 -0.00029,0.0908c-0.01846,0.00572 -0.03995,-0.00459 -0.08692,-0.04171c-0.03433,-0.02712 -0.06402,-0.0563 -0.06601,-0.06483c-0.00199,-0.00853 0.00145,-0.05019 0.00764,-0.0926l0.01126,-0.07708l-0.04055,0.00183c-0.0397,0.0018 -0.04213,0.00004 -0.11559,-0.08355c-0.04128,-0.04696 -0.07911,-0.08507 -0.08408,-0.08471c-0.00497,0.0004 -0.01189,0.02616 -0.01541,0.05728c-0.00705,0.06255 -0.0269,0.07419 -0.05099,0.02989c-0.01918,-0.03524 -0.02192,-0.1426 -0.00424,-0.16604c0.00707,-0.00937 0.04658,-0.05811 0.08779,-0.10831c0.0412,-0.05019 0.07972,-0.10373 0.08557,-0.11898c0.00793,-0.02066 0.01417,-0.02468 0.02449,-0.01581c0.02271,0.01948 0.02559,0.09907 0.00494,0.13587l-0.01924,0.03426l0.09893,0.0734c0.08858,0.06572 0.09939,0.07699 0.10329,0.10786c0.0043,0.03394 0.00506,0.03434 0.05121,0.02562c0.02576,-0.00487 0.06527,-0.017 0.08777,-0.02695c0.04363,-0.01932 0.05177,-0.01568 0.12987,0.05769c0.04136,0.03885 0.06307,0.08871 0.04684,0.10761c-0.01596,0.01861 -0.06447,0.00879 -0.09781,-0.01981c-0.02008,-0.01723 -0.0415,-0.02973 -0.04761,-0.02778c-0.02761,0.00879 -0.00956,0.04033 0.06472,0.11304zM244.35891,186.89213c-0.00597,-0.0159 -0.02801,-0.04249 -0.049,-0.05913c-0.02098,-0.01662 -0.04049,-0.03758 -0.04335,-0.04656c-0.00841,-0.02643 -0.12538,-0.08563 -0.13865,-0.07017c-0.00923,0.01074 0.00686,0.0293 0.0796,0.0917c0.05012,0.04302 0.08522,0.07866 0.07795,0.07918c-0.00726,0.00052 -0.02904,-0.01201 -0.04844,-0.02785c-0.12514,-0.10235 -0.1372,-0.11033 -0.14789,-0.09787c-0.0199,0.02318 0.16622,0.19201 0.21637,0.19629c0.02725,0.00232 0.06664,0.02697 0.06452,0.04038c-0.00113,0.00719 0.00246,0.01695 0.00799,0.02167c0.00708,0.00608 0.01013,0.00251 0.01039,-0.01211c0.0002,-0.01314 0.00787,-0.02304 0.02094,-0.02705c0.03073,-0.00941 0.0381,-0.02249 0.01292,-0.0229zM244.7325,187.26544c-0.00043,0.00401 -0.00238,0.00844 -0.00567,0.01229c-0.0091,0.01061 -0.00346,0.01877 0.02372,0.03437c0.04968,0.02853 0.05102,0.02659 0.01648,-0.02405zM244.71677,187.25514l-0.02307,-0.0151c-0.00432,0.00504 -0.00587,0.01542 -0.00345,0.02309c0.00244,0.00767 0.01012,0.0073 0.01705,-0.00077c0.00284,-0.0033 0.00617,-0.00575 0.00947,-0.0072zM244.72933,187.25573c-0.00307,-0.00264 -0.0078,-0.00267 -0.01259,-0.00058l0.01575,0.0103c0.00043,-0.00395 -0.00059,-0.0075 -0.00315,-0.00971z"/><path d="M243.93952,186.76794c-0.00689,0.0635 -0.01068,0.07334 -0.02735,0.07073c-0.03905,-0.00612 -0.05988,-0.15004 -0.02932,-0.20241c0.01313,-0.02249 0.00152,-0.03999 -0.10071,-0.15155c-0.07097,-0.07747 -0.04692,-0.08992 0.05271,-0.02725c0.04409,0.02774 0.0885,0.05758 0.09867,0.0663c0.0248,0.02129 0.03386,0.00784 0.01768,-0.02616c-0.00723,-0.01518 -0.00622,-0.03448 0.00225,-0.04289c0.00949,-0.00944 0.00873,-0.02099 -0.00199,-0.03018c-0.00956,-0.0082 -0.02409,-0.02937 -0.03228,-0.04707c-0.01132,-0.0244 -0.00922,-0.03742 0.00868,-0.05396c0.02271,-0.02098 0.0261,-0.0197 0.09048,0.03382c0.03948,0.03282 0.07075,0.06753 0.07631,0.08473c0.01709,0.05286 -0.00999,0.11702 -0.08262,0.19574z"/></g></g></g></g></svg>