<svg version="1.1" xmlns="http://www.w3.org/2000/svg" xmlns:xlink="http://www.w3.org/1999/xlink" width="9.30886" height="47.98498" viewBox="0,0,9.30886,47.98498"><g transform="translate(-233.27937,-143.58615)"><g data-paper-data="{&quot;isPaintingLayer&quot;:true}" fill-rule="nonzero" stroke="none" stroke-width="0.5" stroke-linecap="butt" stroke-linejoin="miter" stroke-miterlimit="10" stroke-dasharray="" stroke-dashoffset="0" style="mix-blend-mode: normal"><g data-paper-data="{&quot;index&quot;:null}"><path d="M236.61524,188.52252c0,0 0.0182,0.4376 -0.4194,0.45581c-0.08069,0.00336 -0.14712,-0.00878 -0.20181,-0.03082c-0.28609,0.07822 -0.57073,0.16209 -0.8523,0.25512c-0.3612,0.11936 -1.60046,0.62253 -0.61904,0.98218c0.11925,0.0437 0.24601,0.06485 0.37137,0.08525c0.6205,0.10094 1.32235,0.0673 1.94916,0.04081c0.29455,-0.01245 0.59923,0.07125 0.88443,-0.00343c0.18108,-0.04742 0.14698,-0.82135 0.15583,-0.90932c0.22847,-2.75386 0.08553,-5.51397 -0.21467,-8.25467c-0.08846,-0.80761 -0.09829,-1.62451 -0.2328,-2.42766c-0.03074,-0.71247 -0.01653,-1.45479 -0.15453,-2.15483c-0.01377,-0.06985 -0.13919,0.0432 -0.19471,0.08775c-0.09381,0.07528 -0.21422,0.11812 -0.2961,0.20623c-0.26826,0.28862 -0.36611,0.8051 -0.42291,1.17308c-0.25418,1.64672 -0.04695,3.35473 0.01822,5.01038c-0.17656,1.75411 0.14184,3.47704 0.21834,5.22149l0.01092,0.26263zM234.38612,188.53108c0.42428,-0.17749 0.88661,-0.30011 1.33491,-0.41827c-0.08299,-1.70254 -0.38317,-3.38611 -0.21065,-5.10012c-0.08112,-1.83618 -0.40749,-3.91155 0.11337,-5.70409c0.26274,-0.90419 1.40435,-2.37966 2.37874,-1.24507c0.13998,0.16299 0.10885,0.41581 0.1549,0.62568c0.1392,0.63446 0.12407,1.28938 0.14987,1.93587c0.13407,0.80055 0.14538,1.61492 0.23197,2.42002c0.30135,2.8018 0.45009,5.61804 0.21654,8.43311c-0.0639,0.63505 0.02168,1.25882 -0.65956,1.62389c-0.08853,0.04745 -1.1065,0.07947 -1.21659,0.08398c-0.92824,0.03804 -2.53525,0.22566 -3.24498,-0.53941c-0.80303,-0.86565 -0.11113,-1.75474 0.75147,-2.11558z" data-paper-data="{&quot;index&quot;:null}" fill="#9966ff"/><path d="M236.19537,188.96959c0.4376,-0.0182 0.41863,-0.45574 0.41863,-0.45574l-0.01097,-0.26262c-0.0765,-1.74444 -0.39999,-3.45271 -0.22343,-5.20682c-0.06516,-1.65566 -0.26678,-3.36094 -0.01259,-5.00765c0.0568,-0.36798 0.15658,-0.90187 0.42483,-1.19048c0.08189,-0.0881 0.20262,-0.13089 0.29643,-0.20618c0.05552,-0.04456 0.18116,-0.15756 0.19493,-0.08771c0.138,0.70004 0.12477,1.44261 0.1555,2.15508c0.13451,0.80315 0.14692,1.62139 0.23538,2.429c0.3002,2.74071 0.44067,5.51611 0.2122,8.26996c-0.00886,0.08797 0.02472,0.86206 -0.15635,0.90948c-0.2852,0.07468 -0.59095,-0.0088 -0.8855,0.00364c-0.62682,0.02649 -1.33115,0.06012 -1.95165,-0.04082c-0.12536,-0.0204 -0.2526,-0.04163 -0.37185,-0.08533c-0.98142,-0.35965 0.26075,-0.8801 0.62195,-0.99945c0.28157,-0.09304 0.56491,-0.17698 0.851,-0.2552c0.05469,0.02204 0.1208,0.03419 0.20149,0.03084z" data-paper-data="{&quot;noHover&quot;:false,&quot;origItem&quot;:[&quot;Path&quot;,{&quot;applyMatrix&quot;:true,&quot;segments&quot;:[[386.45029,689.05383],[[386.45029,686.05308],[0,0],[0.04473,-19.93365]],[[386.46286,626.39253],[2.84625,19.92377],[-0.04245,-18.91557]],[[384.29298,569.23481],[3.68067,18.66211],[-0.82249,-4.17029]],[[378.9125,556.05523],[3.19679,3.16476],[-0.97581,-0.96604]],[[375.43728,553.8435],[1.10571,0.81416],[-0.65445,-0.48189]],[[373.17469,552.935],[0.12391,-0.80322],[-1.24187,8.05023]],[[372.43462,577.58658],[0.01246,-8.14114],[-1.15309,9.22469]],[[370.93133,605.38727],[0.62575,-9.2537],[-2.12356,31.40327]],[[372.40004,699.64298],[-3.9128,-31.30241],[0.14277,0.99913]],[[374.60901,709.94081],[-2.08791,-0.45491],[3.28844,0.71647]],[[384.6986,709.56021],[-3.36559,-0.0022],[7.16214,0.00467]],[[406.91163,708.16978],[-7.02964,1.44582],[1.42021,-0.2921]],[[411.10706,707.02122],[-1.33949,0.55506],[11.02351,-4.56796]],[[403.58006,696.11202],[4.17659,1.18995],[-3.25577,-0.9276]],[[393.73752,693.60652],[3.30032,0.75641],[-0.6133,0.27731]],[[391.45029,694.05383],[0.92196,0],[-5,0]]],&quot;closed&quot;:true}]}" fill="#ffffff"/></g><g data-paper-data="{&quot;index&quot;:null}"><path d="M238.629,188.85974c0,0 0.0182,0.4376 -0.4194,0.45581c-0.08069,0.00336 -0.14712,-0.00878 -0.20181,-0.03082c-0.28609,0.07822 -0.57073,0.16209 -0.8523,0.25512c-0.3612,0.11936 -1.60046,0.62253 -0.61904,0.98218c0.11925,0.0437 0.24601,0.06485 0.37137,0.08525c0.6205,0.10094 1.32235,0.0673 1.94916,0.04081c0.29455,-0.01245 0.59923,0.07125 0.88443,-0.00343c0.18108,-0.04742 0.14698,-0.82135 0.15583,-0.90932c0.22847,-2.75386 0.08553,-5.51397 -0.21467,-8.25467c-0.08846,-0.80761 -0.09829,-1.62451 -0.2328,-2.42766c-0.03074,-0.71247 -0.01653,-1.45479 -0.15453,-2.15483c-0.01377,-0.06985 -0.13919,0.0432 -0.19471,0.08775c-0.09381,0.07528 -0.21422,0.11812 -0.2961,0.20623c-0.26826,0.28862 -0.36611,0.8051 -0.42291,1.17308c-0.25418,1.64672 -0.04695,3.35473 0.01822,5.01038c-0.17656,1.75411 0.14184,3.47704 0.21834,5.22149l0.01092,0.26263zM236.39988,188.8683c0.42428,-0.17749 0.88661,-0.30011 1.33491,-0.41827c-0.08299,-1.70254 -0.38317,-3.38611 -0.21065,-5.10012c-0.08112,-1.83618 -0.40749,-3.91155 0.11337,-5.70409c0.26274,-0.90419 1.40435,-2.37966 2.37874,-1.24507c0.13998,0.16299 0.10885,0.41581 0.1549,0.62568c0.1392,0.63446 0.12407,1.28938 0.14987,1.93587c0.13407,0.80055 0.14538,1.61492 0.23197,2.42002c0.30135,2.8018 0.45009,5.61804 0.21654,8.43311c-0.0639,0.63505 0.02168,1.25882 -0.65956,1.62389c-0.08853,0.04745 -1.1065,0.07947 -1.21659,0.08398c-0.92824,0.03804 -2.53525,0.22566 -3.24498,-0.53941c-0.80303,-0.86565 -0.11113,-1.75474 0.75147,-2.11558z" data-paper-data="{&quot;index&quot;:null}" fill="#9966ff"/><path d="M238.20912,189.3068c0.4376,-0.0182 0.41863,-0.45574 0.41863,-0.45574l-0.01097,-0.26262c-0.0765,-1.74444 -0.39999,-3.45271 -0.22343,-5.20682c-0.06516,-1.65566 -0.26678,-3.36094 -0.01259,-5.00765c0.0568,-0.36798 0.15658,-0.90187 0.42483,-1.19048c0.08189,-0.0881 0.20262,-0.13089 0.29643,-0.20618c0.05552,-0.04456 0.18116,-0.15756 0.19493,-0.08771c0.138,0.70004 0.12477,1.44261 0.1555,2.15508c0.13451,0.80315 0.14692,1.62139 0.23538,2.429c0.3002,2.74071 0.44067,5.51611 0.2122,8.26996c-0.00886,0.08797 0.02472,0.86206 -0.15635,0.90948c-0.2852,0.07468 -0.59095,-0.0088 -0.8855,0.00364c-0.62682,0.02649 -1.33115,0.06012 -1.95165,-0.04082c-0.12536,-0.0204 -0.2526,-0.04163 -0.37185,-0.08533c-0.98142,-0.35965 0.26075,-0.8801 0.62195,-0.99945c0.28157,-0.09304 0.56491,-0.17698 0.851,-0.2552c0.05469,0.02204 0.1208,0.03419 0.20149,0.03084z" data-paper-data="{&quot;noHover&quot;:false,&quot;origItem&quot;:[&quot;Path&quot;,{&quot;applyMatrix&quot;:true,&quot;segments&quot;:[[386.45029,689.05383],[[386.45029,686.05308],[0,0],[0.04473,-19.93365]],[[386.46286,626.39253],[2.84625,19.92377],[-0.04245,-18.91557]],[[384.29298,569.23481],[3.68067,18.66211],[-0.82249,-4.17029]],[[378.9125,556.05523],[3.19679,3.16476],[-0.97581,-0.96604]],[[375.43728,553.8435],[1.10571,0.81416],[-0.65445,-0.48189]],[[373.17469,552.935],[0.12391,-0.80322],[-1.24187,8.05023]],[[372.43462,577.58658],[0.01246,-8.14114],[-1.15309,9.22469]],[[370.93133,605.38727],[0.62575,-9.2537],[-2.12356,31.40327]],[[372.40004,699.64298],[-3.9128,-31.30241],[0.14277,0.99913]],[[374.60901,709.94081],[-2.08791,-0.45491],[3.28844,0.71647]],[[384.6986,709.56021],[-3.36559,-0.0022],[7.16214,0.00467]],[[406.91163,708.16978],[-7.02964,1.44582],[1.42021,-0.2921]],[[411.10706,707.02122],[-1.33949,0.55506],[11.02351,-4.56796]],[[403.58006,696.11202],[4.17659,1.18995],[-3.25577,-0.9276]],[[393.73752,693.60652],[3.30032,0.75641],[-0.6133,0.27731]],[[391.45029,694.05383],[0.92196,0],[-5,0]]],&quot;closed&quot;:true}]}" fill="#ffffff"/></g><g data-paper-data="{&quot;index&quot;:null}"><g><g><g><path d="M234.4668,160.27349c0.55186,-0.64907 1.159,-1.23705 1.83912,-1.74069c0.38279,-0.28346 0.89988,-0.81814 1.40223,-0.80664c0.4207,0.00963 1.07225,0.3513 1.42221,0.53441c0.32538,0.17026 0.84149,0.28431 1.05998,0.60727c0.90268,1.33434 1.04579,3.15713 1.10982,4.69632c0.00881,0.2118 0.03665,0.39972 0.08141,0.56789c-0.0096,0.00151 -0.01909,0.00301 -0.02846,0.0045c0.00463,1.38995 -0.09934,2.78135 0.04644,4.16777c0.23172,2.20365 0.39722,4.40007 0.48956,6.61961c0.02513,0.62537 0.09904,1.36542 -0.29434,1.91311c-0.44552,0.62027 -1.01968,0.49975 -1.67791,0.52713c-1.4377,0.05981 -3.6626,0.46744 -4.81616,-0.63906c-0.74341,-0.71308 -0.50482,-2.18901 -0.54329,-3.16263c0.2107,-2.09337 -0.11637,-4.179 -0.33164,-6.25621c-0.10142,-0.97863 -0.06775,-1.98861 -0.05236,-2.96759c0.0129,-0.82062 0.21764,-1.5982 0.18352,-2.4252c0.03475,-0.41891 -0.03379,-0.84455 0.02483,-1.26079c0.01697,-0.12043 0.04583,-0.24806 0.08502,-0.37921zM239.8891,175.60155c-0.05668,-0.05216 -0.09423,-0.10511 -0.11761,-0.15697c-0.27334,0.02589 -0.5548,0.02889 -0.71515,0.03558c-0.88572,0.03698 -2.12686,0.17899 -2.57951,-0.82175c-0.09848,-0.21771 -0.07804,-0.47776 -0.05027,-0.71509c0.16576,-1.41695 2.0119,-1.37621 3.07558,-1.42046c0,0 0.28677,-0.01193 0.40567,0.21567c0.07866,0.0156 0.15196,0.03808 0.2244,0.0743c0.04976,-0.02256 0.1046,-0.03612 0.16254,-0.03853c0.02359,-0.00098 0.04683,-0.00007 0.06956,0.00258l0.49233,0.04955l-0.00425,0.04219c0.01752,0.00117 0.0349,0.00293 0.05214,0.00532c-0.09427,-1.49592 -0.22146,-2.98542 -0.37624,-4.47889c-0.17259,-1.66532 0.00265,-3.33407 -0.06674,-5.00179c-0.03388,-0.85118 -0.17489,-1.71857 -0.32746,-2.56497c-0.39337,-0.1296 -0.27674,-0.53491 -0.27674,-0.53491c0.15788,-0.42935 -0.01105,-0.53225 -0.22846,-0.93571c-0.34712,-0.64418 -0.85451,-0.81104 -1.41915,-0.75861c0.03993,0.05469 0.06333,0.11277 0.07648,0.15532c-0.17843,0.00965 -0.38253,0.08585 -0.55694,0.06228c-0.09686,-0.01309 -0.19104,-0.02802 -0.28762,-0.03915c0.00031,-0.00157 0.00063,-0.00314 0.00095,-0.00473c-0.00364,0.00119 -0.00728,0.00239 -0.01092,0.00359c-0.19237,-0.02159 -0.39486,-0.02737 -0.64716,0.02714c-0.23239,0.05021 -0.3537,0.27935 -0.47459,0.50989c-0.00262,-0.06302 -0.00524,-0.12602 -0.00787,-0.18904c-0.04301,0.01862 -0.08485,0.03987 -0.12512,0.06461c-0.94752,0.58205 -0.86807,1.8243 -0.94425,2.74257c0.0347,0.8271 -0.17369,1.60645 -0.18352,2.4252c-0.01132,0.94302 -0.05128,1.91622 0.04783,2.85883c0.22227,2.11384 0.55041,4.2423 0.33598,6.37266c0.02139,0.48649 0.04158,0.97302 0.06183,1.45955c0.01566,0.37648 -0.10422,0.77683 0.199,1.03274c0.91398,0.77141 2.59545,0.47467 3.68975,0.42914c0.39248,-0.01633 0.97128,0.06823 1.3468,-0.03132c0.29818,-0.07905 0.3315,-0.59307 0.31623,-1.01402c-0.02216,0.00363 -0.04574,0.00606 -0.07081,0.0071c-0.13419,0.00558 -0.22896,-0.0317 -0.29584,-0.08608c-0.00088,0.00082 -0.00176,0.00163 -0.00264,0.00244l-0.16937,0.18803c0,0 -0.29656,0.32231 -0.61887,0.02575zM238.70532,173.43224c-0.35629,0.02591 -0.70739,0.08108 -1.04792,0.22301c-0.27195,0.11335 -0.49991,0.32891 -0.37004,0.67097c0.18779,0.49459 1.37279,0.29364 1.73256,0.27873c0.29091,-0.01206 0.62742,0.13664 0.87328,-0.01934c0.06759,-0.04288 0.03549,-0.15716 0.03763,-0.23718c0.0159,-0.59477 -0.07899,-0.76615 -0.66139,-0.80137l-0.22186,0.01364c0,0 -0.20707,0.00862 -0.34226,-0.12846z" fill="#9966ff"/><path d="M238.70692,173.42363c0.13518,0.13707 0.34655,0.13058 0.34655,0.13058l0.22293,-0.01247c0.58239,0.03522 0.67891,0.21372 0.66301,0.80848c-0.00214,0.08001 0.02954,0.19573 -0.03806,0.23861c-0.24586,0.15598 -0.58501,0.01087 -0.87593,0.02293c-0.35977,0.01491 -1.55886,0.21075 -1.74665,-0.28384c-0.12988,-0.34206 0.09868,-0.56288 0.37063,-0.67623c0.34053,-0.14194 0.70124,-0.20216 1.05752,-0.22807z" data-paper-data="{&quot;noHover&quot;:false,&quot;origItem&quot;:[&quot;Path&quot;,{&quot;applyMatrix&quot;:true,&quot;segments&quot;:[[[358.86813,523.3342],[4.07617,0.12642],[-1.47688,1.62759]],[355.02522,524.96179],[[352.48821,524.91154],[0,0],[-6.62617,0.67818]],[[345.32457,534.36604],[-0.4636,-6.77645],[0.06237,0.9117]],[[345.86628,537.05347],[-0.79133,-0.45704],[2.87836,1.66243]],[[355.83625,536.85961],[-3.32395,0.00051],[4.11062,-0.00063]],[[375.46579,532.85821],[-1.90729,5.73051],[1.31908,-3.96322]],[[370.92667,525.38061],[3.15563,1.16381],[-3.95145,-1.45731]]],&quot;closed&quot;:true}]}" fill="#ffffff"/><path d="" data-paper-data="{&quot;noHover&quot;:false,&quot;origItem&quot;:[&quot;Path&quot;,{&quot;applyMatrix&quot;:true,&quot;segments&quot;:[[[338.44262,342.45984],[2.66651,0.38866],[-2.91538,1.07796]],[[329.54887,345.2624],[2.83772,-1.26839],[-13.54673,6.05504]],[[310.44244,380.69638],[2.74258,-12.52637],[-1.46397,6.68648]],[[316.19833,406.97442],[-7.33565,-3.98544],[1.30721,0.71021]],[[324.07919,408.49777],[-2.65476,-0.29848],[0.11576,-11.30057]],[[327.32896,374.43298],[-1.62098,11.16043],[0,0]],[327.31638,369.11021],[[329.10876,365.12552],[-1.79238,1.46154],[2.58323,-8.19254]],[[345.6743,345.084],[-6.73172,2.80644],[-2.28966,-1.16404]]],&quot;closed&quot;:true}]}" fill="#ffffff"/><path d="M239.76945,175.43606c0.02338,0.05185 0.06084,0.10483 0.11753,0.15698c0.3223,0.29656 0.61826,-0.02557 0.61826,-0.02557l0.16914,-0.18795c0.00088,-0.00082 0.00175,-0.00163 0.00263,-0.00244c0.06689,0.05438 0.1614,0.09176 0.2956,0.08618c0.02507,-0.00104 0.05508,0.01283 0.07725,0.00919c0.01527,0.42095 -0.01864,0.93519 -0.31682,1.01423c-0.37552,0.09956 -0.95553,0.01529 -1.34802,0.03162c-1.0943,0.04553 -2.77942,0.3421 -3.6934,-0.42931c-0.30321,-0.25591 -0.18382,-0.65641 -0.19948,-1.03289c-0.02024,-0.48653 -0.04108,-0.97331 -0.06248,-1.4598c0.21443,-2.13036 -0.11903,-4.26814 -0.3413,-6.38199c-0.09912,-0.94261 -0.05626,-1.92116 -0.04494,-2.86417c0.00983,-0.81874 0.22027,-1.59943 0.18556,-2.42654c0.07618,-0.91827 -0.00131,-2.16117 0.94621,-2.74322c0.04028,-0.02474 0.0855,-0.02881 0.12851,-0.04742c0.00247,0.05939 0.00495,0.11879 0.00742,0.17818c-0.06298,0.1201 -0.12576,0.24074 -0.20397,0.33679c-0.36515,0.44842 -0.35059,3.11773 -0.25868,3.46606c0.07577,0.28721 0.21206,1.24646 0.40797,1.34785l1.5444,0.79926c0.43245,-0.27156 1.03913,-0.38389 1.36651,-0.75147c0.04993,-0.05606 0.09336,-0.11806 0.12869,-0.18746c0.07555,-0.14843 0.12205,-0.30048 0.14766,-0.45493c0.0286,-0.13815 0.04086,-0.28202 0.03472,-0.42938c-0.00381,-0.09149 -0.01456,-0.18103 -0.03174,-0.26817c-0.05187,-0.45044 -0.17437,-0.90568 -0.18121,-1.33799c-0.02108,-1.33398 0.61247,-1.85196 -0.71555,-3.00363c-0.07379,-0.064 -0.16494,-0.07908 -0.26399,-0.07369c-0.01302,-0.04708 -0.03618,-0.1097 -0.0759,-0.16409c0.56464,-0.05243 1.07353,0.11461 1.42065,0.75878c0.21742,0.40347 0.3868,0.50647 0.22892,0.93583c0,0 -0.11614,0.40545 0.27723,0.53505c0.15258,0.8464 0.29538,1.71462 0.32926,2.5658c0.06939,1.66772 -0.10199,3.34645 0.0706,5.01178c0.15478,1.49347 0.27791,2.98808 0.37218,4.48401c-0.01724,-0.0024 -0.03467,-0.00412 -0.05219,-0.00529l0.00428,-0.0422l-0.49288,-0.04927c-0.02273,-0.00266 -0.04606,-0.00352 -0.06965,-0.00254c-0.05794,0.00241 -0.11301,0.01608 -0.16277,0.03864c-0.07243,-0.03622 -0.146,-0.05859 -0.22465,-0.07419c-0.11891,-0.2276 -0.40616,-0.2155 -0.40616,-0.2155c-1.06368,0.04426 -2.91453,0.00372 -3.08029,1.42066c-0.02777,0.23733 -0.04446,0.48026 0.05402,0.69798c0.45265,1.00074 1.69079,0.85865 2.5765,0.82167c0.16035,-0.00669 0.44105,-0.00955 0.71439,-0.03543z" data-paper-data="{&quot;noHover&quot;:false,&quot;origItem&quot;:[&quot;Path&quot;,{&quot;applyMatrix&quot;:true,&quot;segments&quot;:[[[346.39531,548.63926],[0.62179,-0.62179],[-3.53553,3.53553]],[339.32424,548.63926],[[337.30321,546.57498],[0,0],[-0.01041,-0.00887]],[[337.27199,546.54836],[0.0104,0.00888],[-0.73709,0.65205]],[[333.93844,547.67064],[1.53334,0],[-0.28644,0]],[[333.12741,547.62329],[0.25456,0.03094],[0.02559,4.80858]],[[337.21554,559.03927],[-3.43859,-0.76019],[4.33046,0.95736]],[[352.59213,558.75742],[-4.48449,0],[12.50333,0]],[[394.47428,552.11158],[-10.05894,9.23254],[3.33699,-3.06283]],[[396.25393,540.23755],[0,4.3016],[0,-5.5591]],[[396.26651,523.56036],[-0.01314,5.55908],[-3.45677,-24.19739]],[[397.07462,450.71356],[-1.53217,24.21631],[0.68322,-10.79851]],[[396.26359,418.0827],[0.57662,10.7508],[-0.50063,-9.33407]],[[393.01947,390.50768],[-0.00337,9.4505],[-1.30472,-10.43773]],[[380.94778,359.6737],[11.08375,6.18927],[-0.47114,-0.26309]],[[379.48994,358.99615],[0.49945,0.19197],[0,10.94097]],[[379.48994,391.81905],[0,-10.94097],[0,0]],[379.48994,392.63008],[[374.48994,397.63008],[5,0],[-5,0]],[[369.48994,392.63008],[0,0],[0,-11.62476]],[[369.48994,356.94476],[0,11.62476],[0,0]],[[369.52027,356.5065],[-0.03033,0.27196],[-1.07005,-0.34818]],[[366.314,355.5272],[1.06586,0.3011],[0.26145,1.04712]],[[366.48865,357.44228],[0,0],[-1.12554,11.16678]],[[365.70243,391.00802],[0,-11.21704],[0,0]],[365.70243,392.63008],[[360.70243,397.63008],[5,0],[-5,0]],[355.70243,392.63008],[[355.70243,391.00802],[0,0],[0,-11.55476]],[[356.53828,356.44724],[-1.14201,11.50594],[0,0]],[[357.48175,353.90977],[-0.81108,1.21362],[-6.46521,-0.33011]],[[341.6547,363.23598],[3.65359,-7.5123],[-2.28839,4.70525]],[[339.49289,374.01731],[-2.0045,-4.82238],[0,0]],[[336.59012,380.24991],[4.42532,-1.66491],[-1.33864,9.72654]],[[334.07226,409.66171],[-0.01751,-9.72475],[0,19.05517]],[[335.68466,466.7445],[1.17829,-19.07679],[-1.0567,17.10812]],[[333.51866,518.00978],[0.36534,-17.10746],[0.19544,-0.03554]],[[334.11082,517.9243],[-0.19927,0.02168],[0,0]],[334.04237,517.44514],[[339.63443,516.64627],[0,0],[0.25804,-0.04108]],[[340.42668,516.58385],[-0.2696,0],[0.66201,0]],[[342.29891,516.94618],[-0.57827,-0.23367],[0.80901,-0.44746]],[[344.82312,515.99226],[-0.88983,0.21525],[1.24824,-2.65253]],[[349.34801,513.33973],[0,0],[12.15349,0]],[[385.10259,528.08221],[-2.56313,-16.08322],[0.42931,2.69387]],[[384.86851,536.26246],[1.01992,-2.53002],[-4.68809,11.62938]],[[355.83625,546.85961],[10.12013,0.00142],[-1.83212,-0.00026]],[[347.66225,546.79312],[3.13001,0.16559],[-0.24207,0.60256]]],&quot;closed&quot;:true}]}" fill="#ffffff"/><path d="M237.43961,158.77727c-0.00935,-0.00107 -0.01872,-0.00211 -0.02811,-0.0031c0.01023,-0.00341 0.02045,-0.00679 0.03066,-0.01015c-0.00092,0.00446 -0.00177,0.00888 -0.00255,0.01324z" data-paper-data="{&quot;noHover&quot;:false,&quot;origItem&quot;:[&quot;Path&quot;,{&quot;applyMatrix&quot;:true,&quot;segments&quot;:[[[346.39531,548.63926],[0.62179,-0.62179],[-3.53553,3.53553]],[339.32424,548.63926],[[337.30321,546.57498],[0,0],[-0.01041,-0.00887]],[[337.27199,546.54836],[0.0104,0.00888],[-0.73709,0.65205]],[[333.93844,547.67064],[1.53334,0],[-0.28644,0]],[[333.12741,547.62329],[0.25456,0.03094],[0.02559,4.80858]],[[337.21554,559.03927],[-3.43859,-0.76019],[4.33046,0.95736]],[[352.59213,558.75742],[-4.48449,0],[12.50333,0]],[[394.47428,552.11158],[-10.05894,9.23254],[3.33699,-3.06283]],[[396.25393,540.23755],[0,4.3016],[0,-5.5591]],[[396.26651,523.56036],[-0.01314,5.55908],[-3.45677,-24.19739]],[[397.07462,450.71356],[-1.53217,24.21631],[0.68322,-10.79851]],[[396.26359,418.0827],[0.57662,10.7508],[-0.50063,-9.33407]],[[393.01947,390.50768],[-0.00337,9.4505],[-1.30472,-10.43773]],[[380.94778,359.6737],[11.08375,6.18927],[-0.47114,-0.26309]],[[379.48994,358.99615],[0.49945,0.19197],[0,10.94097]],[[379.48994,391.81905],[0,-10.94097],[0,0]],[379.48994,392.63008],[[374.48994,397.63008],[5,0],[-5,0]],[[369.48994,392.63008],[0,0],[0,-11.62476]],[[369.48994,356.94476],[0,11.62476],[0,0]],[[369.52027,356.5065],[-0.03033,0.27196],[-1.07005,-0.34818]],[[366.314,355.5272],[1.06586,0.3011],[0.26145,1.04712]],[[366.48865,357.44228],[0,0],[-1.12554,11.16678]],[[365.70243,391.00802],[0,-11.21704],[0,0]],[365.70243,392.63008],[[360.70243,397.63008],[5,0],[-5,0]],[355.70243,392.63008],[[355.70243,391.00802],[0,0],[0,-11.55476]],[[356.53828,356.44724],[-1.14201,11.50594],[0,0]],[[357.48175,353.90977],[-0.81108,1.21362],[-6.46521,-0.33011]],[[341.6547,363.23598],[3.65359,-7.5123],[-2.28839,4.70525]],[[339.49289,374.01731],[-2.0045,-4.82238],[0,0]],[[336.59012,380.24991],[4.42532,-1.66491],[-1.33864,9.72654]],[[334.07226,409.66171],[-0.01751,-9.72475],[0,19.05517]],[[335.68466,466.7445],[1.17829,-19.07679],[-1.0567,17.10812]],[[333.51866,518.00978],[0.36534,-17.10746],[0.19544,-0.03554]],[[334.11082,517.9243],[-0.19927,0.02168],[0,0]],[334.04237,517.44514],[[339.63443,516.64627],[0,0],[0.25804,-0.04108]],[[340.42668,516.58385],[-0.2696,0],[0.66201,0]],[[342.29891,516.94618],[-0.57827,-0.23367],[0.80901,-0.44746]],[[344.82312,515.99226],[-0.88983,0.21525],[1.24824,-2.65253]],[[349.34801,513.33973],[0,0],[12.15349,0]],[[385.10259,528.08221],[-2.56313,-16.08322],[0.42931,2.69387]],[[384.86851,536.26246],[1.01992,-2.53002],[-4.68809,11.62938]],[[355.83625,546.85961],[10.12013,0.00142],[-1.83212,-0.00026]],[[347.66225,546.79312],[3.13001,0.16559],[-0.24207,0.60256]]],&quot;closed&quot;:true}]}" fill="#ffffff"/><path d="M239.76946,175.43606c-0.00001,0 -0.00001,0 -0.00001,0v0z" data-paper-data="{&quot;noHover&quot;:false,&quot;origItem&quot;:[&quot;Path&quot;,{&quot;applyMatrix&quot;:true,&quot;segments&quot;:[[[346.39531,548.63926],[0.62179,-0.62179],[-3.53553,3.53553]],[339.32424,548.63926],[[337.30321,546.57498],[0,0],[-0.01041,-0.00887]],[[337.27199,546.54836],[0.0104,0.00888],[-0.73709,0.65205]],[[333.93844,547.67064],[1.53334,0],[-0.28644,0]],[[333.12741,547.62329],[0.25456,0.03094],[0.02559,4.80858]],[[337.21554,559.03927],[-3.43859,-0.76019],[4.33046,0.95736]],[[352.59213,558.75742],[-4.48449,0],[12.50333,0]],[[394.47428,552.11158],[-10.05894,9.23254],[3.33699,-3.06283]],[[396.25393,540.23755],[0,4.3016],[0,-5.5591]],[[396.26651,523.56036],[-0.01314,5.55908],[-3.45677,-24.19739]],[[397.07462,450.71356],[-1.53217,24.21631],[0.68322,-10.79851]],[[396.26359,418.0827],[0.57662,10.7508],[-0.50063,-9.33407]],[[393.01947,390.50768],[-0.00337,9.4505],[-1.30472,-10.43773]],[[380.94778,359.6737],[11.08375,6.18927],[-0.47114,-0.26309]],[[379.48994,358.99615],[0.49945,0.19197],[0,10.94097]],[[379.48994,391.81905],[0,-10.94097],[0,0]],[379.48994,392.63008],[[374.48994,397.63008],[5,0],[-5,0]],[[369.48994,392.63008],[0,0],[0,-11.62476]],[[369.48994,356.94476],[0,11.62476],[0,0]],[[369.52027,356.5065],[-0.03033,0.27196],[-1.07005,-0.34818]],[[366.314,355.5272],[1.06586,0.3011],[0.26145,1.04712]],[[366.48865,357.44228],[0,0],[-1.12554,11.16678]],[[365.70243,391.00802],[0,-11.21704],[0,0]],[365.70243,392.63008],[[360.70243,397.63008],[5,0],[-5,0]],[355.70243,392.63008],[[355.70243,391.00802],[0,0],[0,-11.55476]],[[356.53828,356.44724],[-1.14201,11.50594],[0,0]],[[357.48175,353.90977],[-0.81108,1.21362],[-6.46521,-0.33011]],[[341.6547,363.23598],[3.65359,-7.5123],[-2.28839,4.70525]],[[339.49289,374.01731],[-2.0045,-4.82238],[0,0]],[[336.59012,380.24991],[4.42532,-1.66491],[-1.33864,9.72654]],[[334.07226,409.66171],[-0.01751,-9.72475],[0,19.05517]],[[335.68466,466.7445],[1.17829,-19.07679],[-1.0567,17.10812]],[[333.51866,518.00978],[0.36534,-17.10746],[0.19544,-0.03554]],[[334.11082,517.9243],[-0.19927,0.02168],[0,0]],[334.04237,517.44514],[[339.63443,516.64627],[0,0],[0.25804,-0.04108]],[[340.42668,516.58385],[-0.2696,0],[0.66201,0]],[[342.29891,516.94618],[-0.57827,-0.23367],[0.80901,-0.44746]],[[344.82312,515.99226],[-0.88983,0.21525],[1.24824,-2.65253]],[[349.34801,513.33973],[0,0],[12.15349,0]],[[385.10259,528.08221],[-2.56313,-16.08322],[0.42931,2.69387]],[[384.86851,536.26246],[1.01992,-2.53002],[-4.68809,11.62938]],[[355.83625,546.85961],[10.12013,0.00142],[-1.83212,-0.00026]],[[347.66225,546.79312],[3.13001,0.16559],[-0.24207,0.60256]]],&quot;closed&quot;:true}]}" fill="#ffffff"/></g><path d="M237.15194,165.0703c-0.03287,-0.00114 -0.06572,-0.0036 -0.09858,-0.00762c-0.63101,-0.07716 -1.21426,-0.76121 -1.47407,-1.28627c-0.55208,-1.11573 -0.53225,-2.99028 0.29001,-3.994c0.307,-0.37475 0.82026,-0.61911 1.18279,-0.94011c0.16119,-0.14272 0.26612,-0.36495 0.46437,-0.44892c0.29279,-0.12402 0.63111,-0.21119 0.94254,-0.147c0.64791,0.13354 0.86316,0.5083 1.06074,1.00203c0.07801,0.09911 0.12188,0.22095 0.15813,0.34787c0.06571,0.11536 0.12993,0.23457 0.08856,0.31318c0.0083,0.02458 0.01715,0.0488 0.02678,0.07248l-0.01772,0.04847l0.02647,-0.00443l0.07097,0.42375c0.00616,0.03376 0.01005,0.06835 0.01152,0.10362c0.01056,0.25383 -0.10725,0.48327 -0.29573,0.6256c0.39677,1.53017 1.03206,3.30032 -0.46643,4.45366c-0.32391,0.2493 -0.73864,0.37431 -1.13997,0.45172c0,0 -0.73434,0.12298 -0.85733,-0.61136c-0.02719,-0.16236 -0.01247,-0.29483 0.02695,-0.4027z" fill="#ffffff"/><path d="M238.5078,175.58608c-0.30512,0.53539 -0.85925,0.85918 -1.6183,0.63724c-0.90766,-0.2654 -0.84022,-0.64973 -0.91725,-1.37019c-0.11125,-1.04061 0.0106,-2.00912 0.25368,-3.02079c0,0 0.17461,-0.7238 0.89841,-0.54919c0.24905,0.06008 0.39174,0.18519 0.47176,0.32345c0.72537,-0.54737 1.12098,-0.13781 1.77254,0.18469c0.01996,0.02596 0.04076,0.05143 0.06211,0.07657c1.14801,-0.57436 1.37766,0.09934 1.62572,0.94688c0.196,0.66968 0.10302,1.73631 0.00181,2.41131l-0.2168,0.54683c0,0 -0.30501,0.67923 -0.98424,0.37422c-0.15977,-0.07175 -0.26508,-0.16419 -0.33272,-0.26364c-0.49842,0.07515 -0.82007,-0.05726 -1.01673,-0.29737z" fill="#ffffff"/><path d="M235.81978,163.81278c-0.4376,0.0182 -0.45581,-0.4194 -0.45581,-0.4194l-0.00728,-0.17504c-0.01805,-0.43369 -0.11355,-0.96816 -0.05016,-1.39589c0.02305,-0.15554 0.13081,-0.28982 0.15683,-0.44488c0.03224,-0.1921 0.03346,-0.40421 0.02082,-0.62239l-0.0489,0.12456c0,0 -0.17942,0.39955 -0.57897,0.22013c-0.39955,-0.17941 -0.22013,-0.57896 -0.22013,-0.57896l0.02074,-0.02074c0.04346,-0.18448 0.04467,-0.3844 0.13037,-0.55344c0.01463,-0.02887 0.02963,-0.05718 0.04496,-0.08496c0.38275,-0.41265 0.79156,-0.79618 1.23159,-1.14376c0.65998,-0.3445 1.41894,-0.54181 2.08588,-0.90189c0.31707,0.10407 0.65935,0.27703 0.90088,0.4028c-0.06331,0.11621 -0.16701,0.18134 -0.16701,0.18134c-0.69409,0.42797 -1.85935,0.64729 -2.62631,1.18037c0.00029,0.0037 0.00037,0.00569 0.00037,0.00569c0.02527,0.60728 0.16077,1.32202 0.07201,1.92101c-0.02305,0.15554 -0.13081,0.28982 -0.15683,0.44488c-0.06131,0.36529 0.04364,0.85876 0.05908,1.22973l0.00728,0.17504c0,0 0.0182,0.4376 -0.4194,0.45581z" fill="#9966ff"/></g><path d="M235.14764,174.14799c0.4376,-0.0182 0.45581,0.4194 0.45581,0.4194l-0.09569,-0.08057c0.0896,0.11141 0.15896,0.24272 0.2688,0.33423c0.08142,0.06783 0.18649,0.10686 0.28968,0.13103c0.69424,0.16257 0.33976,-0.85878 0.25648,-1.181c-0.1223,-0.47322 -0.74769,-0.81721 -1.13596,-1.02534c0,0 -0.38461,-0.20953 -0.17507,-0.59414c0.20953,-0.38461 0.59414,-0.17507 0.59414,-0.17507c1.01208,0.55869 1.76419,1.37767 1.75186,2.61017c-0.00854,0.85302 -0.5873,1.38101 -1.45709,1.22555c-0.6052,-0.10818 -0.69925,-0.34657 -1.06134,-0.75936l-0.11102,-0.44908c0,0 -0.0182,-0.4376 0.4194,-0.45581z" fill="#9966ff"/></g><path d="M241.62279,161.98091c0.398,-1.02991 -0.55313,-2.103 -1.29849,-2.78627c0.37311,0.6904 0.60216,1.47653 0.71171,2.16099l0.01968,0.40859c0,0 0.0182,0.4376 -0.4194,0.45581c-0.4376,0.0182 -0.45581,-0.4194 -0.45581,-0.4194l-0.0103,-0.31217c-0.15768,-1.08685 -0.68453,-2.50433 -1.7159,-2.96519l-0.2187,0.02966c-0.99555,0.55541 -0.84458,1.91214 -0.75249,2.88725c0.05136,0.5438 -0.03296,1.15235 0.46833,1.52035c0.54486,0.39998 1.38565,0.17905 1.9986,0.08935c0.5252,-0.22769 1.44344,-0.47552 1.67277,-1.06898zM236.87702,158.67354c-0.84162,0.44759 -1.378,1.23025 -1.71175,2.25193l0.02576,-0.05184c0,0 0.0182,0.4376 -0.4194,0.45581c-0.4376,0.0182 -0.45581,-0.4194 -0.45581,-0.4194l0.01719,-0.25778c0.19221,-0.58296 0.45864,-1.22804 0.80781,-1.73473c0.48711,-0.70685 1.44992,-1.16995 2.31694,-1.38735c0.05315,-0.01934 0.10022,-0.02699 0.12566,-0.02995c0.11257,-0.02544 0.22301,-0.04663 0.33002,-0.06357c0,0 0.14886,-0.02284 0.28539,0.04556c0.022,0.00105 0.04399,0.00245 0.06599,0.00427c0.30487,-0.01259 0.72725,-0.02894 0.76089,-0.02358c0.63106,0.10044 1.17664,0.46663 1.64639,0.86816c1.07984,0.92303 2.37223,2.45585 1.75695,3.9923c-0.35617,0.8894 -1.43472,1.23487 -2.24007,1.56926c-0.90225,0.143 -1.964,0.36979 -2.75923,-0.22842c-0.74489,-0.56033 -0.73992,-1.30723 -0.8185,-2.13928c-0.08535,-0.90373 -0.17976,-1.99743 0.26579,-2.85139z" fill="#9966ff"/><path d="M240.80345,159.64793c0,0 0.00893,0.01226 0.02236,0.03448c0.59773,0.65494 1.11646,1.49587 0.80463,2.30279c-0.22934,0.59346 -1.1537,0.84562 -1.67889,1.07331c-0.61295,0.08969 -1.46051,0.309 -2.00536,-0.09098c-0.50129,-0.368 -0.42011,-0.98106 -0.47146,-1.52485c-0.06132,-0.6493 -0.14698,-1.47226 0.09654,-2.1137c-0.01925,-0.05932 -0.03084,-0.12221 -0.03356,-0.18757c-0.01609,-0.38669 0.28434,-0.71321 0.67103,-0.72929l0.51483,-0.02142l0.00092,0.02196c0.02502,-0.00754 0.05023,-0.01454 0.07566,-0.02095c0.6012,-0.15156 1.23798,0.49269 1.65168,0.81795z" fill="#ffffff"/></g><g data-paper-data="{&quot;index&quot;:null}"><path d="M239.71991,145.97577c-0.09322,0.17984 -0.30005,0.27164 -0.45263,0.40548c0.16787,0.10244 0.31696,0.23417 0.43629,0.40565c0.27448,0.39446 0.22273,0.73365 0.22761,1.17277c0.01173,1.05593 -0.05992,2.10752 -0.05383,3.15732c-0.36868,2.73418 -0.04868,5.48368 -0.16482,8.23288c-0.04151,0.9826 -0.34561,1.91031 -0.3379,2.89297c0,0 0.00157,0.27228 -0.21243,0.38871c-0.18393,0.28371 -0.43,0.63664 -0.69085,0.73162c-0.88456,0.32209 -1.8888,-0.45198 -2.15595,-1.25617c-0.12094,-0.36405 -0.09504,-0.82182 -0.0979,-1.1957c-0.02136,-3.68207 -0.39772,-7.32578 -0.41909,-11.00946c-0.00399,-0.68674 -0.00797,-1.37348 -0.01195,-2.06022c-0.00111,-0.19093 -0.01664,-1.07351 0.03636,-1.18457c0.10217,-0.21412 0.59311,-0.55131 0.91911,-0.68855c-0.05332,-0.06735 -0.09921,-0.13344 -0.13273,-0.19576c-0.17382,-0.32316 -0.32074,-0.9492 -0.16954,-1.29951c0.36739,-0.85118 2.17009,-1.15653 2.87297,-0.62054c0.33138,0.2527 0.54114,0.99074 0.53183,1.40781c-0.0054,0.24196 -0.01319,0.50041 -0.12456,0.71527zM237.99391,146.01779c0.0882,0.01075 0.17752,0.02272 0.26697,0.03685c0.02734,-0.28135 0.33144,-0.35925 0.33144,-0.35925l0.11686,0.01117c0.29602,-0.19231 0.43095,-0.88703 0.06838,-1.16031c-0.21837,-0.1646 -1.42339,-0.04708 -1.52669,0.25751c-0.14889,0.43899 0.45093,0.91385 0.69323,1.15268c0,0 0.02271,0.02245 0.0498,0.06135zM238.50162,162.05377c0.03114,-0.92883 0.29724,-1.80952 0.3358,-2.74244c0.11384,-2.7539 -0.21565,-5.51335 0.16583,-8.25135c-0.00502,-0.86504 0.05992,-1.72774 0.05487,-2.59791c-0.00162,-0.27875 0.11672,-0.91749 -0.07016,-1.16997c-0.30985,-0.4186 -1.03443,-0.38124 -1.47757,-0.44723c-0.14586,-0.02172 -0.29019,-0.08787 -0.43668,-0.07092c-0.1744,0.02018 -0.39899,0.09308 -0.45918,0.25801c-0.09212,0.25239 0.04634,0.53594 0.04789,0.80461c0.00399,0.68674 0.00797,1.37348 0.01195,2.06022c0.02137,3.68355 0.39772,7.32719 0.41908,11.00946c0.00229,0.61032 -0.04636,1.03979 0.46817,1.41984c0.14011,0.10349 0.34535,0.33612 0.56982,0.22978c0.18862,-0.08936 0.27011,-0.30871 0.37017,-0.50209z" fill="#9966ff"/><path d="M237.94203,145.96495c-0.2423,-0.23885 -0.84777,-0.72633 -0.69888,-1.16532c0.10331,-0.30459 1.322,-0.42441 1.54037,-0.25981c0.36256,0.27329 0.22872,0.97966 -0.0673,1.17196l-0.11739,-0.01054c0,0 -0.309,0.08065 -0.33635,0.362c-0.08944,-0.01413 -0.18175,-0.02606 -0.26995,-0.03681c-0.02709,-0.0389 -0.05051,-0.06149 -0.05051,-0.06149z" data-paper-data="{&quot;noHover&quot;:false,&quot;origItem&quot;:[&quot;Path&quot;,{&quot;applyMatrix&quot;:true,&quot;segments&quot;:[[[475.794,535.00135],[0,0],[-2.75029,2.74259]],[[467.95653,548.20608],[-1.72879,-5.00165],[1.19951,3.47034]],[[485.402,551.04465],[-2.48197,1.89348],[4.12088,-3.1438]],[[484.54456,537.80325],[3.39197,2.17571],[0,0]],[483.21123,537.93858],[[479.40376,533.85935],[0.33076,3.21005],[-1.02019,0.16718]],[[476.35846,534.29769],[1.00624,-0.12859],[-0.30672,0.4459]]],&quot;closed&quot;:true}]}" fill="#ffffff"/><path d="M238.50235,162.06251c-0.10006,0.19338 -0.182,0.41275 -0.37062,0.50212c-0.22448,0.10634 -0.43035,-0.12629 -0.57046,-0.22978c-0.51453,-0.38005 -0.46661,-0.80958 -0.4689,-1.4199c-0.02136,-3.68227 -0.39876,-7.34309 -0.42013,-11.02665c-0.00399,-0.68674 -0.00736,-1.37361 -0.01135,-2.06035c-0.00156,-0.26867 -0.13991,-0.55224 -0.04779,-0.80463c0.0602,-0.16493 0.28532,-0.2379 0.45972,-0.25808c0.14649,-0.01695 0.29131,0.04917 0.43716,0.07089c0.44313,0.06599 1.16943,0.02871 1.47928,0.44732c0.18688,0.25247 0.06887,0.89127 0.07049,1.17002c0.00505,0.87017 -0.05892,1.73312 -0.05391,2.59816c-0.38147,2.738 -0.05282,5.51439 -0.16665,8.26829c-0.03856,0.93291 -0.3057,1.81376 -0.33683,2.7426z" data-paper-data="{&quot;noHover&quot;:false,&quot;origItem&quot;:[&quot;Path&quot;,{&quot;applyMatrix&quot;:true,&quot;segments&quot;:[[[481.09232,351.20035],[0.41699,10.60131],[-1.15507,-2.20096]],[[476.83329,345.49316],[2.15917,1.00762],[-2.56962,-1.19916]],[[470.34355,348.15397],[1.59265,-1.19073],[-5.84861,4.37267]],[[465.09302,364.39363],[-0.01429,-6.96741],[0,42.03747]],[[461.03787,490.10328],[0,-42.05218],[0,7.83996]],[[461.03787,513.62315],[0,-7.83996],[0,3.06724]],[[460.54438,522.81163],[-1.0683,-2.87518],[0.69807,1.87877]],[[465.80336,525.72656],[-1.99229,-0.21876],[1.67344,0.18375]],[[470.78377,524.88799],[-1.66368,0.25762],[5.05436,-0.78266]],[[487.62181,519.68464],[-3.50945,4.79923],[2.11667,-2.89459]],[[488.34525,506.32388],[0,3.18234],[0,-9.93399]],[[487.54679,476.67022],[0,9.87543],[-4.53614,-31.23126]],[[485.10733,382.48536],[1.48188,31.43047],[-0.50201,-10.64746]]],&quot;closed&quot;:true}]}" fill="#ffffff"/></g></g></g></svg>